<?xml version="1.0" encoding="UTF-8"?>
<svg width="2780" height="1214.7" version="1.1" viewBox="0 0 2779.9607 1214.7399" xmlns="http://www.w3.org/2000/svg">
 <path d="m2013.6 1182.9c-1.5661-1.1889-2.3333-3.5997-2.3333-7.3327 0-3.7136-0.6645-5.8166-2-6.329-2.2152-0.8501-2.8945-11.772-0.8124-13.059 0.6533-0.4037 2.8164-3.8892 4.8069-7.7454 4.2136-8.1625 6.0055-10.414 6.0055-7.5447 0 1.1-0.5368 2.57-1.1928 3.2667-0.6561 0.6967-1.6039 3.2167-2.106 5.6-0.7319 3.4734-0.4868 4.3333 1.2347 4.3333 1.1813 0 2.4869-1.05 2.9014-2.3333 0.9431-2.9193 4.5103-11.007 6.0278-13.667 2.7456-4.8115 4.0914-8.9222 4.0377-12.333-0.044-2.7554 0.5828-3.6667 2.5197-3.6667 1.4176 0 2.5775-0.6 2.5775-1.3333 0-2.2662 0.064-2.4934 1.992-7.1084 1.8733-4.4837 0.8617-7.5583-2.4871-7.5583-0.7122 0-2.2422-0.8231-3.4-1.8292-2.6541-2.3064-26.139-12.837-28.629-12.837-1.0195 0-2.2184 1.4537-2.6644 3.2305-1.2519 4.9881-7.3227 11.436-10.767 11.436-4.7033 0-6.5179-3.193-5.6039-9.8611 0.6856-5.0022 0.2272-6.6859-3.2486-11.934-3.2112-4.8481-6.0235-7.0526-13.62-10.676-14.913-7.1139-21.98-10.196-23.38-10.196-1.4108 0-8.1924 12.847-8.1924 15.52 0 2.3369-5.3452 5.8138-8.938 5.8138-3.2431 0-3.6587-1.0562-4.9844-12.667-0.4187-3.6666-1.598-7.2894-2.6208-8.0505-1.3236-0.985-1.6579-3.1743-1.1595-7.5957l0.7002-6.2119-9.995-4.9456c-5.4973-2.7202-10.901-4.5981-12.008-4.1733-1.1072 0.4249-2.7152 3.6685-3.5734 7.2081-2.091 8.6239-7.9198 15.758-11.854 14.51-2.4671-0.783-2.9004-1.9131-2.9004-7.5636 0-3.7276-1.0036-8.5157-2.2868-10.91-1.2578-2.347-2.3243-6.7837-2.3702-9.8595-0.045-3.0758-0.3668-5.8018-0.7132-6.0578-1.7834-1.3177-42.874-21.016-43.84-21.016-0.6217 0-1.9093 0.9385-2.8614 2.0857-1.1691 1.4087-2.8407 1.8072-5.1499 1.2276-3.9517-0.9918-5.3965-2.8155-5.4252-6.8483-0.024-3.3908-2.2208-4.7474-26.316-16.252-9.6958-4.6295-18.251-8.0326-19.012-7.5624-2.0072 1.2406-6.6927-0.5371-6.6927-2.5392 0-0.94-5.85-4.4481-13-7.7958-38.298-17.932-35.08-16.766-37.667-13.649-2.9988 3.6134-7.3053 2.4396-9.0826-2.4755-2.3336-6.4533-4.2204-7.7303-24.917-16.865-10.267-4.5311-19.267-8.6965-20-9.2564-0.7333-0.56-2.7136-1.3565-4.4005-1.7701-3.1711-0.7774-3.9684 0.5128-11.762 19.034-3.1956 7.5938-3.9777 8.6469-6.7292 9.0608-2.0836 0.3134-3.4872-1.5119-6.8581-8.9178-2.3311-5.1215-4.7111-9.604-5.2888-9.9611-0.5779-0.357-0.8173-3.0941-0.5324-6.0822 0.3925-4.1168 1.0907-5.433 2.8815-5.433 3.0301 0 5.7041-3.2126 5.1333-6.1673-0.2737-1.4172-7.2461-5.7781-18.222-11.397-9.7784-5.0061-18.22-9.102-18.759-9.102-1.0003 0-13.588 16.262-17.776 22.964-2.7004 4.3218-6.3529 4.9102-6.3529 1.0234 0-1.4739-1.2-3.7072-2.6667-4.963s-2.6667-3.0499-2.6667-3.987c0-0.937-0.6-1.7037-1.3333-1.7037s-1.3333-1.6868-1.3333-3.7485c0-2.0618-1.0724-4.9118-2.383-6.3334-1.7869-1.9382-2.2536-4.1688-1.8657-8.9181 0.5716-6.999 2.6848-8.1988 5.9032-3.3516 1.7101 2.5755 2.2771 2.7349 4.1627 1.1701 3.4354-2.8513 2.5896-5.2218-2.8172-7.8946-2.75-1.3594-9.5-4.8459-15-7.7477-5.5-2.9019-12.002-6.098-14.449-7.1026-4.2613-1.7493-4.5758-1.6677-7.446 1.9317-2.978 3.7349-6.1046 3.7126-6.1046-0.043 0-1.0344-3.0442-5.1514-6.7647-9.1489-5.1097-5.4901-10.357-9.1119-21.451-14.805-14.174-7.2735-18.451-8.2402-18.451-4.1697 0 2.8527-10.76 15.943-12.022 14.627-0.597-0.6224-1.2863-2.6317-1.5316-4.465-0.3358-2.5072-1.3551-3.4379-4.113-3.7552-2.438-0.2805-3.6666-1.2016-3.6666-2.7486 0-1.2797-1.2-3.6147-2.6667-5.189-3.4536-3.7071-3.378-4.2993 1-7.8341 2.9228-2.3599 3.3852-3.4227 2.2791-5.2391-1.2451-2.0447-17.156-11.141-19.602-11.207-0.5443-0.015-2.0443 2.18-3.3333 4.8771-2.7055 5.6605-5.283 7.0474-6.5792 3.5404-0.497-1.3443-1.2507-2.7442-1.675-3.1109-0.4244-0.3666-2.335-2.7666-4.2458-5.3333-8.4216-11.312-15.398-17.154-28.482-23.854-7.3175-3.747-14.671-6.8127-16.342-6.8127s-4.3417-1.5-5.9357-3.3333c-1.5942-1.8333-3.8972-3.3333-5.1179-3.3333-1.2208 0-3.2772-1.1685-4.5696-2.5968-2.6153-2.8899-23.353-13.403-26.438-13.403-1.0827 0-2.7059 1.7801-3.6071 3.9558-0.9012 2.1757-2.5562 4.7174-3.6778 5.6484-1.699 1.41-2.37 1.1948-4.0192-1.2891-1.089-1.6399-2.7136-2.9817-3.6106-2.9817-2.2761 0-6.044-4.4268-6.044-7.1012 0-3.8781-8.9742-12.404-15.654-14.871-3.4904-1.2894-8.3895-3.5079-10.886-4.9299-5.4836-3.1227-5.3383-3.2984-10.366 12.53-2.0452 6.4379-4.0848 11.705-4.5326 11.705s-1.9001-1.2-3.2274-2.6667c-1.3274-1.4667-3.2123-2.6667-4.1888-2.6667-0.9764 0-2.6899-2.1885-3.8075-4.8634-1.1176-2.6748-2.8528-5.5248-3.856-6.3333-1.0032-0.8085-2.1533-3.6845-2.5559-6.3911-0.6256-4.2061-0.4069-4.8014 1.5048-4.0972 1.2302 0.45309 2.6775 1.4676 3.2163 2.2544 0.5964 0.87093 0.9876 0.54856 1-0.82405 0.013-1.2401-0.5401-2.6011-1.2252-3.0244-0.6849-0.42338-0.9252-2.7433-0.5337-5.1554 0.6862-4.2293 0.4173-4.5426-7.5442-8.786-4.5406-2.4202-8.7233-3.8856-9.2948-3.2566-0.5713 0.62904-2.0982 4.5937-3.3928 8.8104-1.2946 4.2167-3.0909 7.6667-3.9916 7.6667-0.9008 0-3.1632-1.2-5.0278-2.6667-1.8646-1.4667-4.0156-2.6667-4.7802-2.6667s-1.87-0.79286-2.4564-1.7619c-0.5864-0.96904-3.9594-3.1434-7.4954-4.832-7.6244-3.6408-10.246-8.3801-6.7639-12.228 1.2189-1.3468 2.8031-2.086 3.5204-1.6427 1.186 0.73301 3.6027-1.7041 3.6523-3.6833 0.013-0.44788-3.8548-3.3205-8.5914-6.3836-12.355-7.9904-17.239-15.732-11.722-18.579 8.9458-4.6162 25.715-5.6293 32.791-1.981 2.0848 1.075 3.9462 1.7603 4.1365 1.5229 2.6088-3.2552 8.7396-16.723 8.7396-19.199 0-1.7981 0.5655-4.3112 1.2567-5.5846s3.4472-6.964 6.1244-12.646c2.6772-5.6818 6.3042-12.447 8.06-15.035 5.1972-7.6586 5.4393-10.78 1.0125-13.054-4.9639-2.5497-17.384-5.7729-29.535-7.665-6.6895-1.0416-10.873-2.4862-13.333-4.6036-4.1158-3.5426-3.4645-5.2945 1.2956-3.4847 1.7878 0.67969 8.321 1.6396 14.518 2.1331 6.3695 0.5072 15.215 2.3047 20.347 4.1348 11.372 4.0548 12.613 4.0382 14.542-0.19455 1.2012-2.6363 1.1945-4.0234-0.028-5.9819-0.8759-1.4024-1.5924-3.3845-1.5924-4.4046 0-1.0201-0.9284-2.6253-2.0631-3.567-1.6478-1.3676-1.7149-1.9331-0.3333-2.8095 2.7271-1.7299 3.8791-1.3314 3.4548 1.1952-0.3811 2.2701 0.1227 2.339 5.614 0.76761 2.46-0.70395 21.328 19.978 21.328 23.379 0 3.9816 3.044 6.7522 10.337 9.4087l7.004 2.5511 1.996-2.8498c2.5251-3.605 2.524-4.9231 0-4.9231-2.6116 0-2.6035-0.0437 1.6111-8.6371 1.9861-4.0496 4.335-7.3629 5.22-7.3629 2.5301 0 12.24 11.771 13.158 15.952 0.4558 2.0746 2.0146 4.8454 3.4643 6.1573 2.1231 1.9213 2.4781 3.4395 1.8255 7.8049l-0.8104 5.4196 8.7621 3.8107c11.672 5.0761 12.764 4.4979 12.79-6.7688l0.02-9.0418 6.6367 7.2538c3.6503 3.9896 6.9639 8.2841 7.3636 9.5435s1.5768 2.6159 2.6157 3.0146c1.039 0.39868 3.0719 3.0435 4.5176 5.8773 2.065 4.0477 3.8647 5.5418 8.3936 6.9686 3.1707 0.99885 6.6649 2.5283 7.7649 3.3988 1.1 0.8705 4.2482 1.9259 6.9959 2.3452 4.5943 0.70127 5.0597 0.47467 5.7917-2.8196 2.1218-9.5488 7.2124-15.431 7.2124-8.3334 0 1.3336 0.9396 3.2045 2.0879 4.1575 1.1484 0.95306 2.9553 3.4101 4.0155 5.4602 1.5922 3.079 2.5632 3.6002 5.5825 2.9964 3.2175-0.6435 4.1295 0.0197 7.6193 5.5408 3.2827 5.1932 5.6896 7.091 13.996 11.035 5.5175 2.62 10.566 5.0212 11.22 5.3361 0.6751 0.32529 0.7387-1.0861 0.1475-3.2679-1.1303-4.1709-1.1992-8.4214-0.1535-9.4671 0.8313-0.83132 14.15 10.558 14.15 12.101 1e-3 1.6411 8.0118 11.525 9.341 11.525 0.6138 0 7.9134 3.2477 16.221 7.2172 17.683 8.4487 23.22 9.6624 25.376 5.5623 0.804-1.5287 2.0807-3.1821 2.8371-3.6741 2.1468-1.3965 15.684 13.735 14.794 16.537-0.5969 1.8805 1.7762 3.5377 12.144 8.4812 7.0873 3.3792 13.386 5.6338 13.997 5.0101 3.0934-3.157 9.2901-17.292 9.2901-21.191 0-2.4489 0.4944-4.7581 1.0985-5.1315 1.3071-0.80782 13.311 11.287 15.621 15.739 0.8882 1.712 2.411 6.219 3.3841 10.015 1.64 6.3992 2.6489 7.6014 13.833 16.482 13.693 10.873 22.19 16.892 23.897 16.927 0.6418 0.0133 0.7968-1.8249 0.3448-4.0849-0.9348-4.6743 0.9735-9.2242 3.8688-9.2242 2.0259 0 2.418-1.2398 2.0046-6.3383-0.3432-4.2327 3.2524-5.1215 8.7616-2.1657 8.0092 4.2972 10.312 7.6814 10.086 14.821l-0.2014 6.35 2.6526-3.3333c1.4591-1.8333 2.5022-4.8333 2.318-6.6667-0.3142-3.1289 0.02-3.3172 5.4446-3.0697 9.9208 0.45253 11.957 4.3337 6.2206 11.855-1.8333 2.4036-3.3333 5.0184-3.3333 5.8106 0 0.79221-0.7076 2.5734-1.5724 3.9582-2.4157 3.8682 1.4897 8.6023 10.5 12.727 9.0754 4.1549 12.403 3.6824 14.952-2.123 1.0335-2.3539 3.1335-6.2625 4.6667-8.6857 2.6074-4.1214 3.1494-4.3558 8.393-3.6302 5.2056 0.72031 5.6678 0.52767 6.4779-2.6999 1.0437-4.1588 2.5289-4.3116 8.2141-0.84526 6.134 3.7401 6.7115 7.8215 2.2631 15.995-2.1893 4.0225-3.1891 7.2286-2.4585 7.8844 0.6772 0.60783 4.4598 2.1298 8.4058 3.3821 9.453 2.9999 23.465 9.6662 25.518 12.14 2.4262 2.9233 3.9736 2.3916 3.9736-1.3651 0-1.8334 0.5646-3.3334 1.2546-3.3334 0.6901 0 4.8726 4.9797 9.2946 11.066 5.1308 7.0619 9.9828 12.158 13.409 14.084 2.953 1.6598 7.2476 4.5982 9.5433 6.53 4.0051 3.37 16.132 9.6536 18.63 9.6536 0.6606 0 1.2124-0.75 1.2263-1.6667 0.015-0.9167 1.8809-4.6225 4.1488-8.2351 3.7365-5.9522 4.2575-6.3289 5.552-4.0156 0.7857 1.404 2.4443 3.6429 3.6856 4.9753s2.5875 4.8875 2.9916 7.9002c1.0765 8.0265 4.5603 11.785 16.1 17.369 14.75 7.1383 16.528 7.4399 17.063 2.8947 0.6633-5.6371 3.0972-5.2615 6.8252 1.0535 5.438 9.2111 11.358 14.234 24.894 21.12 6.9929 3.5574 11.931 6.4987 10.974 6.5362-0.9574 0.037-5.7483-2.0587-10.647-4.6582-5.8835-3.1222-9.0858-4.1883-9.4348-3.1411-0.672 2.0161 8.9872 11.257 17.524 16.765 6.6845 4.3131 20.646 10.531 21.571 9.6071 0.2807-0.2807 0.9241-2.1592 1.4299-4.1743 0.6964-2.7748 0.4349-3.664-1.0772-3.664-1.0983 0-3.4134-1.2502-5.1446-2.7782-2.4737-2.1834-2.6216-2.6104-0.6905-1.9944 8.6323 2.7541 8.8761 2.6899 8.8761-2.3375 0-2.6029 0.6-5.1033 1.3334-5.5565 0.7333-0.4533 1.3333-1.9887 1.3333-3.4121s0.45-2.5553 1-2.5153c1.6017 0.1164 9.3624 11.871 13.821 20.933 4.0748 8.2826 4.1965 8.3864 17.986 15.333 7.6363 3.8469 15.438 7.8054 17.336 8.7966 4.4117 2.3033 6.21 0.6466 6.6186-6.0973 0.9404-15.52 3.1518-19.124 8.4703-13.806 1.4112 1.4111 3.7553 3.2023 5.2092 3.9804 3.0352 1.6244 8.1788 15.143 9.1772 24.12 0.3671 3.3 1.2205 6.6826 1.8965 7.5168 1.7372 2.1439 18.126 9.8165 20.968 9.8165 2.8285 0 7.4222-12.866 7.0218-19.667-0.1634-2.7765 0.3587-4.3253 1.4534-4.3108 2.6873 0.036 14.375 11.641 14.376 14.274 4e-4 1.3033 1.1291 5.3697 2.5083 9.0364 1.379 3.6666 2.2366 8.4666 1.9056 10.667-0.5198 3.4531 0 4.3088 3.825 6.2582 4.5687 2.3303 19.572 6.4085 23.576 6.4085 1.2466 0 2.9784-1.65 3.8481-3.6667 0.8699-2.0166 3.6703-7.4834 6.2231-12.148 2.5529-4.6649 4.8313-9.4649 5.0629-10.667 0.2555-1.3246 1.9116 0.6647 4.2063 5.0525 2.0817 3.9806 4.2834 8.1806 4.8926 9.3333 0.6094 1.1528 1.8836 5.9008 2.8318 10.551 1.4792 7.2541 2.2968 8.7524 5.7553 10.546 7.6495 3.9679 30.72 13.886 38.698 16.636 4.4 1.5167 9.5 3.7935 11.333 5.0595 9.8184 6.7804 36.96 17.781 46.667 18.914 2.3146 0.2702 3.3333 1.204 3.3333 3.0558 0 2.2971-0.8011 2.6301-5.7795 2.403-9.2802-0.4233-30.24-8.2981-40.22-15.111-1.8333-1.2515-4.8333-2.7028-6.6667-3.225-1.8333-0.5222-8.4333-3.2457-14.667-6.0522-6.2334-2.8066-13.344-5.8558-15.801-6.7762-2.4572-0.9203-6.3901-2.9781-8.7398-4.5727-2.3499-1.5946-6.477-3.257-9.1714-3.6942-4.3768-0.7103-5.2214-0.3506-7.9266 3.3757-4.2703 5.8822-12.303 20.115-17.112 30.319-2.2461 4.7667-4.9833 10.167-6.0825 12-1.0992 1.8334-5.8659 11.433-10.593 21.333-4.7267 9.9-10.037 20.7-11.801 24-3.1818 5.9519-8.7712 19.753-8.7726 21.66-6e-4 1.033 2.8684 2.4217 23.999 11.617 12.367 5.3814 24.649 11.747 19.333 10.021-1.4667-0.4764-7.9708-2.6132-14.454-4.7485-6.4828-2.1352-12.45-3.8823-13.262-3.8823-0.811 0 0.5607 2.1 3.0484 4.6667 5.7876 5.9714 3.7331 5.9457-4-0.05-10.45-8.1023-17.83-12.654-18.836-11.619-1.1928 1.2269-15.762 33.29-16.814 37.002-0.4155 1.4666-1.8642 4.2593-3.2192 6.2058-1.3551 1.9465-2.4639 4.1505-2.4639 4.8976 0 2.6702-10.928 21.562-12.449 21.521-0.8529-0.023-2.6008-0.8394-3.8841-1.8136zm2.3263-26.155c-1.2469-2.0175-3.3263-0.2345-3.3263 2.8521 0 2.4337 0.1939 2.4893 2.0851 0.5982 1.1467-1.1468 1.7052-2.6994 1.2412-3.4503zm28.674-58.795c0-2.2768 1.5-7.1261 3.3334-10.776 1.8333-3.6501 3.3333-7.7139 3.3333-9.0308 0-3.0202 2.3116-8.5797 12.142-29.204 4.3216-9.066 7.8767-16.866 7.9003-17.333 0.024-0.4673 2.9581-6.8497 6.5213-14.183 3.5634-7.3334 6.1586-13.864 5.7674-14.514-0.3914-0.6491-1.5047 0.2509-2.4743 2-2.8047 5.06-2.1333 1.6152 0.8095-4.1532 1.4666-2.8749 2.6666-6.7085 2.6666-8.519 0-2.9291-0.834-3.4651-7.567-4.8629-4.162-0.864-10.312-3.2817-13.667-5.3726-7.316-4.5599-7.4848-4.4419-13.474 9.4212-4.5648 10.567-22.878 47.722-27.875 56.555-1.6246 2.8717-4.1974 8.5717-5.7173 12.667-1.5197 4.095-3.1301 7.7454-3.5787 8.1121-1.2852 1.051-8.1216 15.211-8.1216 16.822 0 1.3772 11.122 6.9619 23.857 11.979 5.6245 2.216 5.9281 2.2093 7.6666-0.1682 1.6895-2.3106 1.8102-2.2364 1.8102 1.1126 0 2.9385 0.6036 3.5881 3.3333 3.5881 2.8399 0 3.3333-0.6129 3.3333-4.1397zm-56.125-25.527c1.3456-3.1167 3.6838-6.7731 5.1961-8.1253s2.4401-3.2649 2.0619-4.2504c-0.3782-0.9856 1.4622-6.3827 4.09-11.994 2.6276-5.611 4.7774-10.43 4.7774-10.71 0-1.0199 6.9948-16.157 11.565-25.026 2.6438-5.1314 4.399-10.223 4.0216-11.667-0.4159-1.5904 0.013-2.5615 1.1266-2.5615 2.518 0 3.7671-2.4737 2.2174-4.3917-0.8922-1.1043 0.3966-5.113 4.1132-12.793 6.4174-13.261 6.9461-12.39-11.403-18.797-8.2085-2.8663-12.894-3.8801-14.182-3.0679-1.0576 0.6671-3.85 4.7762-6.2055 9.1313s-8.5231 14.818-13.706 23.252c-5.1828 8.4333-11.202 18.633-13.377 22.667-2.1747 4.0334-8.456 15.433-13.958 25.333-5.5027 9.9-9.6012 18.416-9.108 18.925 2.3788 2.4545 31.245 15.893 32.831 15.284 0.998-0.383 2.864 0.4632 4.1466 1.8804s2.5602 2.5767 2.8393 2.5767 1.6084-2.55 2.9539-5.6666zm-57.244-30.525c1.176-3.4037 2.7917-7.003 3.5905-7.9985 0.7988-0.9956 1.9027-3.3101 2.453-5.1434 0.8882-2.9593 6.4432-13.93 17.083-33.736 1.8916-3.5216 3.1284-7.2135 2.7483-8.2041-0.8059-2.1001 2.1827-8.2751 12.995-26.85 4.3082-7.4013 7.8332-14.367 7.8332-15.479 0-1.3998-4.6195-3.5152-15.016-6.8764-8.2589-2.67-16.22-4.8545-17.69-4.8545-2.1431 0-4.962 4.6984-14.199 23.667-19.416 39.87-33.094 71.855-33.094 77.387 0 2.0564 22.493 13.965 24.745 13.101 1.057-0.4055 1.9216-0.1122 1.9216 0.6519s1.0108 1.1946 2.2462 0.9567c1.3014-0.2507 3.1456-3.0355 4.3845-6.6211zm-47.612-21.475c10.568-31.42 14.586-42.845 17.467-49.667 1.9518-4.6217 2.8818-8.4971 2.2024-9.1773-1.3791-1.3806 1.8728-10.104 9.7501-26.156 3.0589-6.2334 5.7421-11.724 5.9627-12.203 0.2204-0.4781-4.163-3.3885-9.7408-6.4676-5.5779-3.079-12.845-7.9378-16.149-10.797-6.0402-5.2277-8.5116-6.3462-8.5116-3.8521 0 0.7409-1.9858 4.1909-4.4132 7.6667-2.4272 3.4758-7.7526 12.62-11.834 20.32-4.0817 7.7-9.3737 17.3-11.76 21.333-6.8642 11.602-25.326 48.032-25.326 49.975 0 2.1015 5.1592 5.2575 18.667 11.419 5.5 2.5087 13.3 6.4677 17.333 8.7978s8.9337 4.2902 10.89 4.3558c3.0342 0.1017 3.8363-0.713 5.4624-5.5474zm-70.625-29.333c-0.3873-2.0166-1.5748-3.6666-2.6388-3.6666-1.4132 0-1.6652-0.8082-0.9351-3 0.5498-1.65 1.0187-4.1024 1.0423-5.4498 0.024-1.3474 2.1207-4.6474 4.6601-7.3333 4.569-4.8326 4.8379-4.4474 2.1751 3.1164-0.5163 1.4667 0.5197 0.2667 2.3023-2.6667 2.0973-3.4514 2.8133-5.8909 2.0292-6.9136-1.339-1.7462 4.0396-13.741 16.031-35.753 12.153-22.307 22.94-44.11 22.94-46.364 0-2.3183-24.456-14.688-27.709-14.015-1.0055 0.2081-3.9544 4.2784-6.5528 9.045-2.5986 4.7667-5.8028 9.8667-7.1204 11.333-1.3178 1.4666-4.3003 6.8666-6.628 12-2.3276 5.1333-4.88 10.533-5.6722 12-6.5762 12.178-13.948 26.405-18.368 35.45-0.5691 1.1643-3.8505 7.3248-7.2921 13.69-3.4418 6.3653-5.9724 12.313-5.6238 13.216 0.6515 1.6887 36.812 19.984 37.849 19.15 0.1187-0.096-0.1013-1.8235-0.4888-3.8402zm-52.402-24c0-0.9166-0.7742-3.1666-1.7103-5-1.9845-3.8863-1.0759-10 1.4863-10 1.7756 0 7.7178-9.2962 11.506-18 1.1171-2.5666 2.6328-5.5666 3.3683-6.6666 0.7356-1.1 3.2095-5.6 5.4975-10s4.9877-8.9417 5.9992-10.093c1.0116-1.151 2.4252-5.1829 3.1414-8.9597 0.7163-3.7769 2.9591-9.4352 4.984-12.574 8.5406-13.239 13.736-22.485 13.736-24.445 0-0.9544-1.5706-2.9708-3.4904-4.4808-1.9197-1.5101-6.4228-5.4142-10.007-8.6758-5.7066-5.1934-11.513-8.6062-12.295-7.2273-0.142 0.2503-2.6132 5.1416-5.4915 10.87-2.8783 5.7279-5.7215 10.716-6.3184 11.085-2.3535 1.4545-15.462 20.243-18.902 27.092-2.0051 3.9923-5.4119 9.6605-7.5707 12.596s-3.9251 6.0811-3.9251 6.9903-2.5874 5.441-5.7498 10.071c-9.4327 13.809-16.92 28.76-15.13 30.211 2.4227 1.9636 37.35 18.702 39.213 18.793 0.9166 0.044 1.6629-0.6692 1.6584-1.5859zm-63.972-32c0.013-1.65 0.7608-4.2782 1.6667-5.8404s5.8999-9.9622 11.098-18.667c5.198-8.7044 10.75-18.526 12.337-21.826s6.1309-11.4 10.096-18c20.38-33.919 24.984-42.218 24.345-43.883-0.3843-1.0014-3.5931-2.8696-7.1306-4.1516-3.5376-1.282-13.142-5.2485-21.343-8.8146-8.2012-3.566-15.422-6.4837-16.046-6.4837-0.6241 0-2.1753 1.7615-3.4471 3.9144-1.9089 3.2316-2.0796 4.9527-0.9784 9.8666 1.7807 7.9457-1.243 17.023-10.006 30.039-3.6364 5.4008-8.1115 12.104-9.9448 14.896s-7.8796 11.873-13.436 20.18c-5.5565 8.3074-12.368 18.99-15.135 23.74l-5.0326 8.6356 3.0579 2.0311c1.6819 1.1171 8.1928 4.3183 14.469 7.1137 6.2758 2.7955 13.811 6.2156 16.744 7.6002 7.0325 3.3197 8.6626 3.2541 8.6862-0.3495zm271.25-6.216c-2.9833-2.8642-18.266-9.6518-19.331-8.5861-2.2152 2.2152 0.8489 4.3285 10.095 6.9625 11.23 3.1991 10.798 3.1233 9.2364 1.6236zm-330.71-22.819c0.9229-1.814 2.6441-5.0982 3.8249-7.2982s4.3337-8.5 7.0067-14c2.6729-5.5 5.7404-10.987 6.8165-12.194 2.7045-3.0317 12.463-22.312 12.463-24.624 0-1.772 0.4412-2.8437 4.1399-10.056 1.825-3.5585 5.9596-16.316 7.1662-22.112 0.4946-2.3749 1.4358-4.6498 2.0919-5.0552 1.9655-1.2148 6.7368-13.019 6.0188-14.89-0.9285-2.4197-4.806-2.1698-6.7087 0.43225-2.0253 2.7698-5.3674 1.1361-11.151-5.4512-2.2781-2.5947-4.5033-4.7176-4.9448-4.7176-3.1222 0-10.608 13.921-11.046 20.541-0.5116 7.7374-8.2521 23.266-15.335 30.764-3.4269 3.6278-6.2308 7.0734-6.2308 7.6568 0 0.5833-1.8497 3.6054-4.1105 6.7158-2.2608 3.1103-4.9492 7.4551-5.9742 9.6551-2.6601 5.71-10.327 16.371-16.636 23.134-2.9766 3.1904-5.1852 6.4806-4.9083 7.3115 0.5685 1.7055 33.023 18.365 34.734 17.83 0.6079-0.19 1.8604-1.8297 2.7834-3.6438zm-66.555-5.2982c0.4532-0.7333 0.224-1.3333-0.5093-1.3333s-1.7041 0.6-2.1573 1.3333-0.224 1.3333 0.5093 1.3333 1.7041-0.6 2.1573-1.3333zm5.4526-6c0.4601-1.8333 1.6714-3.3333 2.692-3.3333 1.0205 0 1.8554-0.6 1.8554-1.3334 0-0.7333-0.2509-1.3333-0.5576-1.3333-0.3066 0-1.5066-0.3642-2.6666-0.8093-1.4536-0.5578-2.1155-0.04-2.1295 1.6667-0.016 1.9065-0.2853 2.0579-1.172 0.6584-1.53-2.415-2.5745 0.4359-1.7465 4.7672 0.7701 4.0284 2.679 3.8834 3.7248-0.283zm9.9264-14.085c0.9377-1.7522 1.0146-3.3264 0.2117-4.3333-0.6996-0.8774-0.7825-2.7688-0.1863-4.2482 0.5912-1.4666 1.1171-4.039 1.1686-5.7164 0.052-1.6774 3.989-8.676 8.75-15.552 9.5174-13.747 12.538-19.772 9.2865-18.525-1.1776 0.4519-1.9428-0.055-1.9428-1.286 0-1.1174 0.51-2.2316 1.1332-2.476 1.7303-0.6786 25.535-47.385 25.524-50.081 0-1.2999-2.2551-3.8581-5-5.6849-2.7451-1.8268-5.2909-3.6268-5.6576-4-5.9751-6.0818-18.896-13.176-25.735-14.13-4.0573-0.56602-4.5901-0.0901-10.931 9.7616-3.666 5.6961-7.442 12.137-8.3911 14.314-0.9489 2.1763-2.201 4.2763-2.7825 4.6667-0.5813 0.39034-3.3753 4.9097-6.2089 10.043s-7.005 12.333-9.2696 16c-6.6755 10.808-22.016 43.266-22.016 46.582 0 2 36.508 22.085 40.143 22.085 1.2194 0 3.2125-1.5191 4.429-3.3758 2.5846-3.9443 4.4282-3.3918 4.4282 1.3272 0 1.8334-0.525 3.0089-1.1667 2.6123-1.3551-0.8375-1.5983 2.5603-0.2777 3.8808 1.5561 1.5562 2.9752 0.9674 4.49-1.863zm-63.135-40.165c-0.4256-1.0636-0.7416-0.7477-0.8056 0.8056-0.057 1.4055 0.2573 2.193 0.7004 1.75 0.443-0.4431 0.4904-1.5931 0.1053-2.5556zm-17.578 0.25c0.4532-0.7333 2.5409-1.3333 4.6395-1.3333 3.1684 0 3.9666-0.689 4.7078-4.0636 0.4908-2.235 2.0386-4.7793 3.4392-5.6541 1.4008-0.8747 2.5468-2.1937 2.5468-2.9311 0-3.2662 18.878-40.816 31.142-61.946 12.589-21.689 12.171-24.127-5.3391-31.079l-5.5305-2.196-0.8501 4.532c-0.4676 2.4926-2.8758 6.9563-5.3512 9.9193-2.4756 2.963-5.8727 7.6443-7.549 10.403-1.6764 2.7585-3.3796 5.3154-3.7849 5.6821-0.4053 0.36666-3.0764 4.2667-5.9356 8.6667-5.558 8.5532-10.034 15.17-11.725 17.333-6.4356 8.234-11.069 15.62-17.364 27.68-8.5422 16.364-9.3612 13.524 6.2874 21.802 9.2075 4.8704 9.5603 4.9757 10.667 3.1855zm249.33-20.712c-3.8497-3.159-7.7062-4.7612-15.778-6.5555-2.4608-0.547-3.4794-0.3563-2.9213 0.5469 0.4715 0.7627 1.5869 1.3868 2.4791 1.3868 0.892 0 5.2066 1.7812 9.588 3.9581 9.6877 4.8137 11.968 5.0418 6.6326 0.6637zm-293.21-4.9551c1.7407-1.65 3.1752-3.762 3.1879-4.6932 0.013-0.9312 1.4169-3.9312 3.1205-6.6667 1.7035-2.7354 3.5439-6.1735 4.0896-7.6402 0.9648-2.5928 1.0315-2.5968 2.4089-0.1426 1.2659 2.2553 1.6071 1.9714 3.2055-2.6667 1.0887-3.1593 1.2819-5.3647 0.4936-5.6352-1.7751-0.60918-1.6236-2.3544 0.3872-4.4603 0.9252-0.96906 2.4316-3.2619 3.3475-5.0952 0.9158-1.8333 2.8522-5.1333 4.303-7.3333s3.0662-4.9 3.5895-6c0.5235-1.1 2.6301-4.487 4.6815-7.5267 4.4642-6.6153 4.4944-7.0247 0.9584-13.018-3.4936-5.9214-2.7535-8.3876 5.6248-18.742 3.5638-4.4045 6.4797-8.6799 6.4797-9.5008 0-1.4448-22.323-12.546-25.228-12.546-0.7911 0-1.4383 1.2068-1.4383 2.6819s-2.7598 9.425-6.1329 17.667c-3.3731 8.2416-7.5183 18.672-9.2116 23.178-3.6508 9.7159-5.6092 13.645-8.3879 16.83-1.131 1.2962-3.1374 5.4263-4.4588 9.1781-1.3212 3.7518-3.4581 8.3913-4.7486 10.31-2.8027 4.1669-9.7268 20.076-9.7268 22.348 0 1.2402 17.602 12.294 19.812 12.442 0.2632 0.018 1.9029-1.318 3.6436-2.968zm-47.169-26c1.1186-1.2833 3.6896-6.0746 5.7135-10.647 2.0237-4.5727 4.4631-8.9642 5.4205-9.7588 0.9575-0.79464 2.1542-3.3267 2.6594-5.6268s3.1769-9.0087 5.9372-14.908c6.9037-14.755 12.467-28.754 16.448-41.392 1.8482-5.8667 3.7522-11.687 4.2312-12.934 0.6939-1.8057-0.973-3.1031-8.1936-6.377-8.9348-4.0512-13.17-4.6671-13.17-1.9154 0 2.2657-5.2343 12.527-6.3985 12.544-0.5859 8e-3 -2.0979 2.2653-3.3599 5.0153-1.2621 2.75-3.8503 7.4-5.7515 10.333-1.9012 2.9333-6.6305 10.733-10.509 17.333-3.879 6.6-8.6115 13.816-10.517 16.036-1.9052 2.2196-4.664 6.4196-6.1307 9.3333-1.4666 2.9138-3.0933 5.6188-3.6148 6.0111-0.5214 0.39232-2.2208 3.5902-3.7761 7.1063-3.3334 7.5359-3.8534 6.8892 11.752 14.617 5.668 2.8069 11.206 5.6216 12.306 6.2549 3.0687 1.7666 4.7345 1.5211 6.9537-1.0251zm235.77-5.7809c0.8186-1.5295 1.0907-3.1785 0.6047-3.6646-0.9045-0.90455-4.6657 3.4219-4.6657 5.3669 0 2.1187 2.5992 1.0291 4.061-1.7024zm-288.08-29.841c4.5974-8.6945 6.5642-10.727 4.0942-4.2301-2.3963 6.3028 0.948 3.7302 5.0882-3.9141 2.7046-4.9934 3.9592-9.0989 3.8231-12.511-0.1425-3.5763 0.7919-6.4063 3.1593-9.5676 1.849-2.469 5.0459-7.4892 7.1043-11.156s5.6126-9.9667 7.8985-14c3.0151-5.3201 4.2481-9.3465 4.4917-14.667 0.1847-4.0333 0.4922-9.0574 0.6835-11.165 0.3319-3.6565-0.1359-4.0043-10.251-7.6233-5.8295-2.0856-10.675-3.6615-10.768-3.502-0.093 0.15946-2.128 5.3899-4.522 11.623-4.0479 10.54-17.024 38.125-20.07 42.667-2.8142 4.1959-17.375 34.193-17.375 35.795 0 1.0615 18.154 10.468 20.709 10.73 0.7564 0.0776 3.4268-3.7385 5.9341-8.4803zm9.3572-17.967c0-0.69005 0.6-1.6255 1.3334-2.0787 0.7333-0.45323 1.3333 0.11133 1.3333 1.2546 0 1.1433-0.6 2.0787-1.3333 2.0787-0.7334 0-1.3334-0.56458-1.3334-1.2546zm-59.256 2.2546c0.508-1.65 9.0318-19.437 18.942-39.526 11.873-24.068 18.241-38.498 18.67-42.308l0.6518-5.7813-6.5039-2.6922c-3.5772-1.4807-7.5457-3.2923-8.8191-4.0257-3.8966-2.2444-7.4396-1.5445-8.4365 1.6665-0.5123 1.65-2.0528 4.5926-3.4232 6.5392s-2.4917 4.1103-2.4917 4.8083c0 1.0958-11.453 23.035-15.362 29.426-7.0744 11.568-21.411 40.104-21.952 43.693-0.013 0.0733 4.0298 1.7893 8.9798 3.8133 4.95 2.024 10.8 4.5003 13 5.503 5.3262 2.4274 5.6706 2.3704 6.7438-1.1163zm-47.388-32c5.225-12.748 18.392-38.644 24.572-48.326 7.0027-10.971 14.378-25.767 13.529-27.14-0.8546-1.3829-12.127-5.5338-15.028-5.5338-0.9694 0-1.7625 0.70828-1.7625 1.5739 0 2.5883-32.988 67.528-36.386 71.629-2.5732 3.1056-5.1807 9.6749-4.2218 10.636 1.8206 1.825 12.032 7.9954 13.365 8.0754 0.783 0.0471 3.4526-4.8644 5.9324-10.914zm-40.408-16.36c2.1048-4.4138 2.1005-4.8301-0.072-7-2.4396-2.4364-14.987-3.1968-20.085-1.2172-2.4457 0.94965-2.4302 1.0928 0.4031 3.7324 3.6608 3.4106 13.56 9.1401 15.828 9.1616 0.9285 9e-3 2.6952-2.0957 3.9261-4.6768zm870.39 447.36c-0.4692-0.7592 0.6791-1.3333 2.6667-1.3333s3.1359 0.5741 2.6667 1.3333c-0.4532 0.7333-1.6532 1.3333-2.6667 1.3333s-2.2135-0.6-2.6667-1.3333zm-72.646-6.2546c0.013-0.5933 0.602-1.9787 1.3129-3.0787 1.1139-1.7236 1.2953-1.6884 1.3129 0.2546 0.013 1.2401-0.5796 2.6255-1.3129 3.0787s-1.3241 0.3386-1.3129-0.2546zm2.6934-6.4787c0.027-0.6967 0.9511-2.7667 2.0558-4.6l2.0082-3.3334-0.8721 3.3334c-0.9099 3.4778-3.2772 6.8895-3.1919 4.6zm4-9.3452c0.084-2.2358 3.858-8.0205 3.8632-5.9215 0 1.1-0.8761 3.1647-1.9528 4.5882-1.0766 1.4235-1.9364 2.0235-1.9104 1.3333zm-1087.9-33.059c-0.6833-0.841-1.8891-5.4291-2.6795-10.196-0.7905-4.7667-2.6778-14.019-4.1941-20.56-3.0965-13.359-2.8862-19.665 0.3149-9.4396 3.3932 10.839 4.1418 4.4127 2.5245-21.671-0.807-13.014-2.3395-44.662-3.4056-70.329-1.0661-25.667-2.2579-50.267-2.6485-54.667-0.3905-4.4-1.0035-13.1-1.3622-19.333s-0.9903-17.033-1.4035-24c-1.168-19.691-4.9658-50.667-6.2122-50.667-0.6176 0-1.1283 1.65-1.135 3.6667-0.01 2.0167-1.488 6.6667-3.2917 10.333l-3.2794 6.6667-0.042-10.333c-0.066-16.301-2.7247-12.659-6.5702 9-2.1449 12.08-5.2344 26.07-6.9935 31.667-1.325 4.2158-2.158 5-5.3111 5-5.2617 0-7.2857-4.1204-5.2923-10.774 0.8317-2.7759 1.8657-7.6374 2.2978-10.803 0.4321-3.166 1.234-6.3563 1.7821-7.0896 1.2773-1.7091 3.4495-13.298 6.1231-32.667 1.9076-13.819 6.019-31.823 8.5097-37.263 4.2684-9.3236 6.9739-13.063 11.1-15.344 9.0308-4.9909 10.559-2.9961 29.065 37.94 2.4864 5.5 5.8512 11.2 7.4773 12.667 2.8417 2.5631 13.77 24.727 13.77 27.927 0 0.855 1.5 3.5876 3.3334 6.0726 4.5875 6.2181 4.4014 9.3333-0.5576 9.3333-2.1401 0-4.8194-0.3562-5.9541-0.7917-1.1347-0.4354-11.172-19.035-22.304-41.333-18.01-36.072-23.851-45.538-23.851-38.651 0 1.04-0.3642 2.84-0.8094 4-0.605 1.5766 0.032 2.1091 2.524 2.1091 4.2696 0 4.9462 1.9627 4.9784 14.442 0.015 5.6234 0.6183 14.318 1.3417 19.321 1.3065 9.0368 5.8061 64.771 7.3927 91.57 0.4559 7.7 1.0244 15.8 1.2634 18s0.7974 7.3 1.2408 11.333 1.3845 20.233 2.0912 36c0.7068 15.767 2.1344 41.267 3.1726 56.667 1.038 15.4 2.2935 37.967 2.7898 50.149 0.879 21.573 0.8315 22.168-1.8257 22.862-1.5005 0.3923-3.2872 0.025-3.9705-0.8156zm1587.8-6.8624c-2.5666-0.9884-5.8666-1.8339-7.3333-1.8789s-8.5581-2.0015-15.759-4.3479c-9.6255-3.1365-14.623-5.6131-18.871-9.353-3.1784-2.7978-6.4368-5.0869-7.2409-5.0869-0.8043 0-1.4621-0.6476-1.4621-1.4392 0-2.0062 7.2412-0.2837 14.784 3.5167 9.6256 4.8497 22.327 8.7223 30.686 9.3559l7.6712 0.5815 1.4125-7.0074c0.7769-3.8541 1.7139-12.408 2.0821-19.008 0.7215-12.932 3.1791-28.182 6.7646-41.978 1.3928-5.3592 2.0081-11.44 1.6189-16-0.3452-4.0452-0.2659-10.276 0.1764-13.847l0.8043-6.4918 3.2256 2.6201c3.1033 2.5207 3.2208 3.2291 3.0978 18.688-0.1026 12.986-0.8936 19.227-4.1208 32.538-2.1961 9.0589-4.65 22.171-5.453 29.137-1.3826 11.994-3.4638 24.515-4.9314 29.667-0.7709 2.7066-0.9652 2.7157-7.1516 0.3333zm-98.618-8.618c-3.3702-3.3703-3.3832-4.8322-0.1026-11.623 1.4372-2.9746 3.2701-9.5373 4.0733-14.584 0.8032-5.0465 2.9715-15.175 4.8184-22.509 1.8469-7.3334 3.8733-16.333 4.5032-20 2.0561-11.97 5.0565-25.213 7.0987-31.333 4.1152-12.332 6.5362-22.672 5.8886-25.149-0.6113-2.3376 0.2018-2.5807 9.5014-2.8407 31.281-0.8745 29.378-1.0892 39.42 4.4471 5.8667 3.2345 12.926 5.803 19.302 7.0229 12.782 2.4457 14.634 4.2076 4.5755 4.3539-8.0868 0.1176-16.351-2.0269-25.203-6.54-3.7389-1.9062-7.8348-2.6279-14.915-2.6279-10.793 0-18.018 2.3242-20.262 6.5183-0.8077 1.5092-2.0409 10.243-2.7405 19.409-1.2203 15.987-3.7375 26.073-6.5074 26.073-1.4017 0-8.5936 17.793-10.146 25.1l-0.9418 4.4338 4.1966-2.1701c2.3081-1.1936 4.53-3.0388 4.9373-4.1005 0.4075-1.0616 1.4949-1.9303 2.4168-1.9303 0.9217 0 3.2091-2.25 5.0828-5 2.7061-3.9717 3.6304-7.4678 4.4937-17 0.5979-6.6 0.8882-14.885 0.6451-18.411-0.5233-7.5944 1.7333-13.837 5.4255-15.009 8.7532-2.7781 27.26 6.8699 35.554 18.535 5.9546 8.375 7.2356 17.821 2.9922 22.065-1.5515 1.5518-4.0211 2.8214-5.4878 2.8214-3.6272 0-3.3534 2.89 0.628 6.6304 6.5966 6.1971 7.1128 14.971 1.1918 20.255-4.6288 4.1307-19.032 7.9239-33.117 8.7215-14.659 0.8301-21.802-0.5665-26.968-5.2733l-2.9322-2.6712-0.8516 3.8354c-1.1783 5.3064-11.335 29.71-12.722 30.567-0.6224 0.3846-2.3534-0.5226-3.8468-2.016zm66.618-36.352c5.6227-2.5184 7.6938-4.2622 8.8782-7.4749 1.4313-3.8824 1.2552-4.434-2.3966-7.5067-7.4365-6.2574-26.593-9.822-28.339-5.2732-1.9523 5.0877-0.8952 7.0892 4.1907 7.9344 7.4808 1.2433 9.633 2.3387 5.6666 2.8841-12.626 1.7361-12 1.3194-12 7.9821v6.1221l8.3334-0.6916c4.5864-0.3806 11.631-2.1685 15.667-3.9763zm-36.46-1.935c-0.3827-0.3827-1.3648-0.2824-2.1825 0.223-1.0672 0.6596-0.9983 1.5084 0.2445 3.0078 1.56 1.8821 1.7761 1.86 2.1827-0.223 0.2481-1.2716 0.1381-2.6251-0.2447-3.0078zm44.106-31.907c6.7804-4.2991 4.352-13.965-4.9903-19.862-7.5556-4.7696-9.216-4.4288-8.3909 1.7222 0.4851 3.6174-0.1173 6.4633-2.1269 10.04-3.3748 6.0086-3.4242 6.7672-0.6223 9.5691 2.516 2.516 11.074 1.7363 16.13-1.4696zm-20.913-14.666c3.6269-7.9616 3.39-9.8551-1.2327-9.8551-3.2266 0-3.9652 0.6594-4.6666 4.1666-0.4583 2.2917-0.8334 6.5652-0.8334 9.4966 0 4.6622 0.2588 5.1152 2.066 3.6153 1.1363-0.943 3.2363-4.2836 4.6667-7.4234zm69.267 75.685c0-1.3531 1.1287-3.4815 2.5082-4.7299 2.3101-2.0906 2.6785-2.0996 4.6641-0.114 1.6353 1.6354 1.8232 2.7771 0.7781 4.7299-1.831 3.4215-7.9504 3.5093-7.9504 0.114zm-165.98-23.706c-1.8376-1.8376-2.1608-3.6364-1.5127-8.4191 0.9324-6.8793 6.2049-30.08 9.5516-42.03 1.626-5.8057 1.8455-8.5574 0.8144-10.209-1.408-2.2546 0.6104-9.1422 2.6861-9.1662 2.3534-0.027 9.1016 7.2242 9.0964 9.7748 0 2.5532-3.7001 13.935-7.6701 23.627-2.0703 5.0538-3.9513 12.563-6.3252 25.248-1.1659 6.2299-2.6111 11.818-3.2116 12.419-0.6005 0.6005-2.1436 0.04-3.4289-1.245zm16.197 1.2766c-1.5561-1.5561-0.9564-9.0875 0.9407-11.814 1.0062-1.4466 2.2721-4.7301 2.8128-7.2967 1.2968-6.1554 12.038-34.48 16.271-42.909 1.8366-3.6564 3.0384-7.7977 2.671-9.203-1.0282-3.9316 2.5064-3.1086 5.6581 1.3176 3.9489 5.5458 3.4512 9.3796-2.4863 19.153-5.907 9.7232-7.7585 13.818-14.086 31.157-6.7113 18.39-9.0673 22.309-11.781 19.595zm-64.781-14.315c-0.8943-1.0776-2.052-3.552-2.5726-5.4988-0.7488-2.7996-2.8897-4.3735-10.241-7.5286-5.1117-2.194-12.396-4.3186-16.188-4.7213l-6.8939-0.7321-1.5532 5.1841c-3.3756 11.267-8.5138 13.135-6.5016 2.3636 0.6356-3.4025 0.7708-8.5936 0.3003-11.536-0.7119-4.4521-0.3885-5.7109 1.9283-7.5051 2.1214-1.6427 3.1829-4.8522 4.4617-13.489 0.9229-6.2333 1.6635-13.313 1.6456-15.733-0.028-3.9073 0.3372-4.3549 3.2693-4 5.7348 0.6942 6.4412 3.7561 3.8127 16.526-1.3044 6.3371-2.0833 11.81-1.7311 12.163 0.646 0.646 13.571-3.4934 27.937-8.9473l7.7812-2.954 3.8611 3.699c4.3532 4.1707 3.3788 7.2469-2.2956 7.2469-1.7667 0-6.6432 1.1382-10.837 2.5294-4.1936 1.3911-10.175 2.9438-13.291 3.4505-7.0527 1.1465-7.322 3.7334-0.6667 6.4023 2.75 1.1028 8.2103 4.1679 12.134 6.8114s8.0065 4.8064 9.0731 4.8064c1.4777 0 1.8424 1.4817 1.5326 6.2291-0.4285 6.5683-2.2577 8.4965-4.9654 5.2339zm12.218 0.2631c-3.0128-3.6301-3.1279-8.4149-0.3531-14.688 1.5233-3.4437 3.3624-6.6277 4.0868-7.0754s0.9975-1.3311 0.6069-1.9631c-1.4328-2.3183 2.0336-2.7177 5.9608-0.6869 5.4247 2.8052 5.2298 6.6259-0.7924 15.537-6.8982 10.208-7.7465 11-9.509 8.8757zm16.455-43.599c-2.0432-2.2576-2.1212-3.4424-0.7019-10.657 1.2254-6.2282 1.2318-8.5568 0.027-10.008-3.0252-3.6451 1.1235-3.6763 5.8853-0.044 5.5435 4.2282 5.8006 6.8516 1.361 13.884-1.8226 2.887-2.9584 6.1751-2.524 7.3068 1.0968 2.8584-1.281 2.5751-4.0478-0.4823zm-994.95-164.74c-0.4576-1.1926-0.5439-2.4566-0.1916-2.8089 1.1292-1.1291 5.1525 1.0312 4.662 2.5032-0.8009 2.4028-3.5924 2.5937-4.4704 0.3057zm-324.01-87.079c-3.0289-2.0025-6.6289-4.3287-8-5.1694-1.9772-1.2124-2.1556-1.8806-0.8622-3.2305 1.2757-1.3316 2.3773-1.3617 5.0626-0.1381 4.5463 2.0714 4.6434 2.0412 4.6198-1.4362-0.048-7.0624 0.132-7.0422-34.204-3.8413-17.477 1.6292-37.476 3.5588-44.443 4.2878s-21.217 1.6952-31.667 2.1471c-10.45 0.45184-19 1.3201-19 1.9294s-2.2471 2.0468-4.9936 3.1944c-7.9973 3.3415-33.44 3.0149-43.964-0.56433-4.5602-1.5508-9.6602-2.8279-11.333-2.8379-5.68-0.034-9.0421-1.5723-9.0421-4.1373 0-1.8433 0.9752-2.5191 3.6667-2.5412 5.1229-0.0419 27.529-1.1973 36.333-1.8736 4.0333-0.3098 28.633-1.2247 54.667-2.0331 47.278-1.4681 86.13-3.463 97.193-4.9906l5.8599-0.80908-1.1719-16.799c-0.6444-9.2392-1.195-35.099-1.2237-57.465-0.035-27.556-0.774-48.189-2.2916-64-1.2317-12.833-2.5896-40.433-3.0175-61.333-0.4278-20.9-1.3557-48.5-2.0621-61.333-1.3359-24.272-1.4683-26.036-4.2547-56.667-1.7433-19.164-2.1213-124.37-0.491-136.66l0.8228-6.2027-10.348 0.0997c-5.6916 0.0548-18.148-0.44872-27.682-1.119-22.617-1.5902-40.751-1.2635-65.333 1.177-11 1.092-26 2.5799-33.333 3.3064-7.3333 0.72644-18.433 2.277-24.667 3.4456-6.2334 1.1687-13.133 2.3748-15.333 2.6804-10.54 1.464-11.34 1.9185-11.221 6.3819 0.062 2.3251 0.5889 7.8274 1.1711 12.227 1.3269 10.027-0.72 19.333-4.2522 19.333-1.8343 0-2.2383-0.72184-1.6791-3 1.248-5.0837-2.8183-24.386-6.0613-28.772-4.0139-5.4291-2.8102-10.204 3.0417-12.067 10.814-3.4415 32.666-6.1509 77.001-9.5473 10.633-0.81462 25.033-1.9395 32-2.4997 6.9667-0.56023 15.367-0.92364 18.667-0.80759 3.3 0.116 18.113 0.70047 32.918 1.2987 25.434 1.0277 27.163 0.94344 31.351-1.5279 3.0038-1.7722 6.0246-2.4298 9.3684-2.0395 7.0771 0.82621 8.1234 2.7537 4.9626 9.1423-2.098 4.2404-2.9036 9.8762-3.8951 27.25-0.6875 12.047-1.9459 28.804-2.7963 37.237-1.6001 15.868-1.0217 47.466 1.456 79.552 4.9579 64.202 7.7447 141.35 5.3347 147.69-0.7972 2.097-0.055 11.484 2.2387 28.28 3.0136 22.075 3.4118 29.369 3.2664 59.808-0.1094 22.892 0.5024 40.554 1.8012 52 1.0818 9.5333 2.1229 20.333 2.3137 24 0.3876 7.4538 0.4672 7.4866 13.013 5.3619l6-1.0161-2.7832 2.9066c-1.7261 1.8027-5.2686 3.2622-9.3273 3.8427l-6.544 0.93608 0.5768 5.3177c0.9975 9.1952 0.7913 14.387-0.5889 14.834-0.7334 0.23761-3.8116-1.2064-6.8406-3.2088zm-134.65-3.7646c5.7862-2.2204 0.4242-3.2096-17.397-3.2096-19.054 0-22.986 0.81512-12.792 2.652 6.7196 1.2109 27.488 1.5945 30.19 0.55759zm-76.687-10.21c-0.098-0.91667-0.048-4.1782 0.1129-7.2478 0.1606-3.0697-0.6375-12.07-1.7734-20-4.0526-28.292-6.1544-48.429-9.4508-90.548-0.3499-4.4708-0.9273-8.9708-1.2832-10-1.1326-3.276-4.6065-46.487-5.3492-66.538-0.3939-10.633-1.0363-36.133-1.4276-56.667-1.3704-71.921-1.9945-83.501-4.4614-82.79-6.0604 1.7479-14.679 3.8182-20.115 4.8322-3.3401 0.62299-10.873 2.0731-16.74 3.2225-43.378 8.4983-48.429 9.0869-86.667 10.099-25.987 0.68788-40.566 1.6546-47.969 3.1808-11.307 2.3311-14.546 3.9859-10.499 5.3636 3.0114 1.025 9.5998 9.493 10.654 13.694 1.6891 6.7299-2.4948 13.731-8.2054 13.731-3.0712 0-3.1406-0.24119-2.4215-8.422 0.7203-8.195 0.62679-8.5174-3.4698-11.964-7.6562-6.4423-12.234-6.9781-37.786-4.4228-12.634 1.2634-32.871 3.1719-44.971 4.241-12.1 1.0691-22.9 2.2203-24 2.5581s-7.1 1.1881-13.333 1.8895c-9.9898 1.1241-13.111 0.89357-26.329-1.9446-11.974-2.5712-18.69-3.1993-33.333-3.1175-10.389 0.058-24.652-0.81933-32.904-2.0241-17.028-2.486-30.237-2.7212-36.777-0.65474-2.9123 0.92022-22.647 1.6427-52.658 1.9278-49.804 0.47312-57.519-0.15618-67.539-5.5089-4.6259-2.4713-14.224-2.3925-29.46 0.24171-14.109 2.4393-26.767 2.006-29.793-1.0198-1.8375-1.8375-1.1238-2.1252 7.0404-2.8378 4.9968-0.43616 13.885-2.0172 19.752-3.5134 11.618-2.963 20.915-3.4084 29.547-1.4155 5.1482 1.1885 5.8504 0.9974 9.7622-2.6568 7.2714-6.7925 16.684-6.8499 42.691-0.26038 15.765 3.9946 23.341 4.1508 108 2.2269 36.991-0.84062 42.318-1.2289 44.667-3.256 4.9156-4.2425 11.921-7.7919 22.667-11.484 11.01-3.783 24.868-4.7496 41.333-2.8828 3.6667 0.41571 18.367 2.0312 32.667 3.59 23.069 2.5146 40.651 5.5842 42.484 7.4168 2.0406 2.0406-2.9384 2.0751-17.445 0.12093-38.408-5.1742-73.699-7.2059-83.902-4.8302-9.0808 2.1144-19.804 6.608-19.804 8.2989 0 0.83575 5.6001 0.89621 15.667 0.16915 26.24-1.8952 90.891-1.2514 103.67 1.0323 2.9333 0.52436 8.9333 1.643 13.333 2.4858 6.8656 1.3151 10.238 1.129 23.779-1.3128 12.355-2.2277 21.47-2.8723 42-2.9702 20.1-0.0957 31.045-0.8476 46.887-3.2205 11.367-1.7025 25.167-3.6563 30.667-4.3418 15.84-1.974 41.649-6.6241 48.793-8.7914 3.5972-1.0913 7.7739-1.9906 9.2816-1.9986 2.7144-0.0143 2.7414-0.48247 2.7693-48.014 0.027-45.452-0.1-48-2.3865-48-2.0114 0-2.3513-0.94631-2.0352-5.6667 0.2279-3.4034 1.0182-5.6134 1.9787-5.5333 0.8795 0.0733 3.035 0.22333 4.7899 0.33333 1.7548 0.11 3.6001 1.25 4.1005 2.5333 0.5005 1.2833 0.8273 11.933 0.7263 23.667-0.1009 11.733-0.2962 34.383-0.4339 50.334-0.2431 28.168-0.1737 29.003 2.4164 29.09 2.4175 0.0816 2.3737 0.2308-0.4679 1.5969l-3.1345 1.5069 0.8084 36.07c1.8018 80.392 2.3402 96.09 4.369 127.4 1.1641 17.967 2.2813 35.667 2.4826 39.333 0.2013 3.6667 1.012 11.767 1.8015 18 0.7895 6.2333 2.3502 22.133 3.4682 35.333s2.5898 26.7 3.2707 30c0.681 3.3 1.5967 11.1 2.0349 17.333 0.4383 6.2333 1.5897 16.269 2.5587 22.301 0.9691 6.0322 1.4474 11.282 1.0629 11.667-1.3749 1.3749-5.5912 0.66746-5.7669-0.96767zm-313.15-305.07c9.1667-0.77481 23.867-2.0304 32.667-2.7902 8.8-0.75984 17.96-1.5378 20.356-1.7288 8.6164-0.68693 5.4337-1.6892-8.0034-2.5204-7.5275-0.46561-22.986-0.48937-34.353-0.0528-11.367 0.43658-23.967 0.69127-28 0.56599-9.1527-0.28427-33.131 2.5226-34.035 3.984-0.79585 1.2877 2.4955 2.4504 9.4611 3.3423 2.7854 0.35662 5.404 1.0042 5.8189 1.4391 0.41499 0.43485 4.9545 0.42592 10.088-0.0199 5.1333-0.44577 16.833-1.4444 26-2.2192zm-65.664-4.2648c-0.56884-1.7135-12.531-3.4361-21.002-3.0243-2.5667 0.1248-9.7667 0.3986-16 0.60853l-11.333 0.38169 7.3333 1.7008c10.097 2.3417 41.754 2.5991 41.002 0.33333zm-150.49-0.87465c2.2278-1.411 1.2203-1.7645-13.453-4.7212-12.36-2.4905-16.149-2.5715-21.962-0.46963-9.7931 3.5412-2.36 6.2012 17.572 6.2882 8.8 0.0384 16.829-0.4554 17.843-1.0973zm671.91 255.42c-3.1407-2.109-4.5366-4.1597-4.8245-7.0873-0.3691-3.7536-0.108-4.0628 2.9385-3.4804 4.3141 0.82468 4.4227 0.3465 6.7227-29.605l1.8397-23.957-3.3067-3.0646c-3.9698-3.679-5.092-3.1737-7.2112 3.2477-2.7293 8.2698-8.5263 17.032-11.563 17.477-6.3577 0.93292-8.8932-16.646-3.5722-24.767 3.2832-5.0109 1.5863-6.9797-6.0159-6.9797h-6.6571l-1.4937 5.6667c-2.095 7.9481-7.4165 16.653-10.845 17.742-2.8741 0.91221-3.5305 0.40565-7.2903-5.6261-1.4569-2.3372-1.6568-2.3121-4.3853 0.55117-3.3457 3.5109-6.3667 3.7902-10.404 0.96211-2.7602-1.9333-3.023-1.8135-5.1193 2.3333-5.4356 10.752-12.692 13.551-17.614 6.7948l-2.6053-3.5764-4.3107 4.9097c-2.371 2.7003-5.3662 4.9097-6.656 4.9097-1.2899 0-4.6656-1.844-7.5016-4.0977l-5.1563-4.0977-1.7188 6.4311c-1.1602 4.3406-1.5231 11.997-1.1164 23.555 0.6277 17.838 0.2655 20.876-2.4881 20.876-3.8875 0-5.72-4.8233-6.5852-17.333-1.9431-28.093-4.3779-48.241-5.947-49.211-2.2149-1.3689-1.6675-15.684 0.6741-17.627 1.3261-1.1006 2.2897-1.0776 3.6942 0.0881 1.507 1.2507 3.6111 0.68653 10.169-2.7263 5.1377-2.6739 10.603-4.4281 14.433-4.6329 7.3043-0.39048 18.072-3.3718 24.338-6.7384 2.4711-1.3277 8.9929-2.8699 14.493-3.4271s13.044-1.3742 16.764-1.8156c5.9932-0.71101 7.24-0.40168 10.944 2.7154 4.1275 3.4731 4.2583 3.4915 10.283 1.4461 3.3562-1.1395 9.6182-2.0718 13.916-2.0718 6.5879 0 8.306 0.51927 10.953 3.3103 3.5399 3.7319 5.8409 4.2094 7.4071 1.537 1.6445-2.8061 9.1396-6.1807 13.727-6.1807 5.0992 0 10.672 5.1903 10.672 9.9394 0 4.1092-9.4126 14.061-13.299 14.061-1.5764 0-3.4623-1.6047-4.7009-4-1.9598-3.7897-1.9307-4 0.5537-4 1.4422 0 3.011 0.62913 3.4863 1.3981 1.2365 2.0008 4.1187-0.68935 5.749-5.3661 1.0665-3.0593 0.8795-4.2203-0.94575-5.8721-2.2077-1.9979-8.1767-1.6463-8.1767 0.4816 0 0.54844-1.7904 3.0285-3.9787 5.5112-4.2205 4.7884-5.2445 10.128-2.1686 11.309 1.0583 0.40611 1.5678 1.8 1.1884 3.251-0.4888 1.8692 0.6375 3.308 4.2644 5.448 4.1731 2.4622 4.8133 3.4393 4.176 6.3738-1.7271 7.9539-4.8218 33.36-6.9494 57.053-0.9902 11.026-2.3627 12.271-8.7793 7.9621zm-99.12-55.483c1.1189-2.1636 2.0343-5.9878 2.0343-8.4983 0-4.4473-0.1113-4.5411-4.3333-3.6554-4.0399 0.8475-4.3268 1.2711-4.2363 6.2543 0.1849 10.185 3.0036 12.729 6.5353 5.8994zm21.168-3.1885c1.3568-2.7374 2.7983-7.448 3.2034-10.468l0.7365-5.491-4.37 0.874c-2.4036 0.48071-5.1951 0.87402-6.2034 0.87402-1.3616 0-1.8333 2.1616-1.8333 8.4 0 12.435 3.8679 15.09 8.4668 5.811zm68.214-7.1162c2.647-6.3352 1.7614-9.0687-1.1321-3.4944-2.1252 4.0943-2.928 8.3995-1.5661 8.3995 0.3568 0 1.571-2.2073 2.6982-4.9052zm-110.01-0.58287c0-0.81843 2.1-4.3488 4.6667-7.8453 4.3421-5.9151 6.0027-10.726 3.6667-10.622-0.55 0.0244-3.3286 1.6744-6.1746 3.6667-4.2732 2.9913-5.2524 4.5285-5.621 8.8236-0.2455 2.8607-0.1316 5.7107 0.2533 6.3333 1.0108 1.6355 3.2089 1.3917 3.2089-0.35593zm61.1-2.8453c1.3922-5.1312 0.9324-6.3333-2.4223-6.3333-1.9482 0-2.4796 0.9548-2.4113 4.3333 0.1553 7.6944 2.9723 8.86 4.8336 2zm-41.433-5.8404c3.2463-0.86999 3.9595-4.3334 1.4161-6.8769-1.223-1.223-2.1325-0.75206-3.9912 2.0667-3.7193 5.64-3.318 6.3895 2.5751 4.8102zm24.333-7.0644c0-2.6495-3.273-6.7619-5.3816-6.7619-1.5036 0-3.9517 4.4888-3.9517 7.2457 0 1.497 1.3203 2.0876 4.6667 2.0876 3.7201 0 4.6666-0.52155 4.6666-2.5714zm17.962-0.0339c0.9703-1.57-0.5537-8.0614-1.8926-8.0614-1.4621 0-4.2179 6.6812-3.3411 8.0999 0.9946 1.6093 4.23 1.5854 5.2337-0.0387zm48.085-2.2147c4.1098-2.6928 4.5166-9.0945 0.7074-11.133-3.9262-2.1012-12.212-1.6469-17.421 0.95516-3.7783 1.8874-4.6667 3.0928-4.6667 6.3313 0 3.8647 0.248 4.0265 7.3333 4.7827 4.0334 0.43048 8.1045 0.88048 9.0469 1 0.9425 0.1196 3.1925-0.75166 5-1.936zm-33.483-3.8305c2.8233-3.7016 3.266-5.1758 2.1693-7.225-1.5018-2.8061-9.0104-5.0859-10.735-3.2594-1.5282 1.6182 1.5444 15.135 3.4404 15.135 0.8682 0 3.1747-2.0927 5.1256-4.6505zm-47.231 0.65048c0-0.73333-0.9-1.3333-2-1.3333s-2 0.6-2 1.3333 0.9 1.3333 2 1.3333 2-0.6 2-1.3333zm23.191-3.4424c2.0863-5.4366-1.834-7.9733-7.1376-4.6186-1.6663 1.054-1.5884 1.6277 0.54 3.9796 2.9715 3.2835 5.4893 3.5274 6.5976 0.63901zm42.928-67.327c-2.6569-3.1575-3.4519-5.5658-3.4519-10.457 0-5.8946 0.3377-6.5363 4.6667-8.8676 2.5667-1.3822 4.6667-2.8804 4.6667-3.3293 0-2.7479 11.78-4.9346 16.607-3.0826 3.3395 1.2815 6.4054 8.2765 5.3977 12.315-2.0662 8.2816-13.229 17.523-21.166 17.523-2.0123 0-4.5943-1.5762-6.7198-4.1023zm15.894-6.8225c4.8374-5.7489 6.4525-10.241 4.5194-12.571-2.3131-2.7871-8.3888-2.201-12.048 1.1622-6.0097 5.5238-6.6124 6.9008-5.0198 11.469 2.0417 5.8568 7.5916 5.8299 12.548-0.0608zm-112.68-2.0301c-3.079-1.105-8-5.9728-8-7.9134 0-0.95527-1.5-2.7197-3.3333-3.9209-3.8748-2.5388-4.1345-5.1545-1.2322-12.408 1.8021-4.5037 3.4774-5.9314 11.766-10.027 5.3157-2.6265 10.597-4.7755 11.736-4.7755 3.0567 0 5.0592 3.063 4.1858 6.4027-1.4025 5.3633 5.4941 3.3323 13.739-4.0459 2.8789-2.5763 20.03-10.754 39.806-18.98 19.106-7.947 20.878-8.8117 27.768-13.552 5.4381-3.7408 7.6392-4.525 10.954-3.9031 2.9811 0.55927 5.9309-0.16922 10.481-2.5884 6.7464-3.5871 8.7964-3.4127 8.7964 0.74843 0 1.75-1.7326 3.3425-5.3334 4.9025-5.6856 2.4632-6.5013 3.6147-3.403 4.8036 3.3435 1.283 6.3454 8.5381 4.7591 11.502-1.9371 3.6195-12.576 8.0425-19.346 8.0425-6.4311 0-12.677-3.9892-12.677-8.0968 0-3.193-0.9857-3.2014-8.2228-0.0708-25.386 10.981-40.475 18.665-53.444 27.215-8.0099 5.2803-10.333 7.5143-10.333 9.9356 0 9.4386-11.146 19.428-18.667 16.729zm8.8343-10.447c2.13-3.2507 2.1017-3.4915-0.6359-5.4089-2.8946-2.0275-3.9944-7.1889-1.5317-7.1889 0.7333 0 1.3333-1.2 1.3333-2.6667 0-3.6484-3.4198-3.3681-7.3939 0.60606-4.1853 4.1852-4.3489 10.743-0.3737 14.975 3.733 3.9736 5.842 3.896 8.6019-0.31621zm101.5-43.229c6.5283-2.9633 6.9445-4.2253 2.3803-7.2159-4.3835-2.8721-4.8575-2.7865-10.003 1.8072-3.7259 3.3264-4.1651 4.2871-2.7435 6 2.1693 2.6139 3.4678 2.5399 10.366-0.59133zm509.09 32.964c-2.656-8.9242-5.5169-27.158-10.094-64.333-4.8832-39.658-6.3743-48.823-9.0023-55.333-0.444-1.1-0.8484-3.5-0.8986-5.3333-0.076-2.7902-0.8252-3.4035-4.5944-3.7638-5.7304-0.5478-8.5024 1.8676-5.0604 4.4094 2.3056 1.7026 2.3152 1.9848 0.18 5.2436-2.5122 3.834-5.63 4.4961-6.8012 1.4441-0.4222-1.1-1.3032-2-1.9582-2-0.6548 0-1.1906 0.9-1.1906 2s-0.564 2-1.2535 2c-0.6893 0-1.1267-1.6488-0.9719-3.6639 0.1704-2.2162 1.0608-3.665 2.2535-3.6667 1.0845-1e-3 2.1219-0.45276 2.3052-1.0028 1.0493-3.1478-0.024-3.7487-5.3333-2.986-3.1167 0.4477-8.6192 1.2277-12.228 1.7333-3.798 0.53216-6.8225 1.7107-7.1819 2.7984-0.4265 1.2912 0.061 1.6172 1.5612 1.0418 1.2-0.46051 2.1819-0.25611 2.1819 0.4542 0 0.71032-1.5 1.2915-3.3333 1.2915-2.137 0-3.3334-0.74965-3.3334-2.0886 0-1.4918-1.0476-1.968-3.6666-1.6667-2.0623 0.23728-3.5208 1.1512-3.3334 2.0886 0.1834 0.91666-0.5748 1.6667-1.6848 1.6667-1.1098 0-3.2464-0.75-4.7478-1.6667-2.2912-1.3989-3.0042-1.2972-4.4375 0.63276-1.3884 1.8696-1.384 4.611 0.024 14.667 3.1293 22.358 6.0503 40.176 8.6348 52.677 2.9953 14.488 3.3445 23.508 0.8785 22.698-0.9166-0.30092-1.8433-2.6009-2.0593-5.1111-0.2159-2.5102-2.2088-14.764-4.4287-27.231-2.2197-12.467-4.8601-28.367-5.8674-35.333-2.9894-20.676-3.4723-21.998-8.0432-22.013-2.164-7e-3 -5.008 1.043-6.32 2.3333-2.5959 2.5533-6.2813 3.1475-6.2813 1.0128 0-1.9391-2.5584-1.6321-4.7619 0.57143-2.7243 2.7242-2.3884 3.4078 1.7619 3.5863l3.6666 0.15776-4 1.0178c-5.6137 1.4284-19.47 1.4751-16 0.0539 1.4667-0.60063 4.3167-0.78345 6.3334-0.40629 2.2334 0.41773 3.6666 0.0995 3.6666-0.81424 0-1.4813-2.4556-2.032-7-1.5697-1.365 0.13887-2.3333-0.66462-2.3333-1.9363 0-1.6427-0.7328-1.945-3-1.2374-1.65 0.51493-3.3 1.3054-3.6667 1.7565-0.3666 0.45116-1.5666 0.82029-2.6666 0.82029s-2 0.9-2 2 1.05 1.9167 2.3333 1.8148 2.3333 0.34815 2.3333 1c0 0.65186-0.8265 1.1852-1.8368 1.1852-4.2558 0-4.4064 3.3983-1.3869 31.333 4.1501 38.396 4.0687 37.052 2.2815 37.647-1.9656 0.65519-7.4956-9.8602-6.2475-11.88 1.2045-1.9491 0.8748-14.374-0.8611-32.434-2.0824-21.668-2.4344-23.333-4.931-23.333-2.016 0-2.0127-0.1356 0.04-1.6667 1.4016-1.0457 1.9554-2.7079 1.4864-4.4612-0.6662-2.4899-1.4996-2.7272-7.6459-2.177-3.794 0.33965-7.4855 1.1643-8.2031 1.8326-0.7936 0.73908 1.1651 1.0093 5 0.68984 4.568-0.38052 6.3048-0.0453 6.3048 1.2165 0 0.95796-0.4933 2.0466-1.0964 2.4193-0.908 0.56121-15.164 0.872-35.559 0.77521-2.1937-0.0107-5.5502 0.62794-7.459 1.4186l-3.4704 1.4375-0.9136 29.591c-0.9636 31.205-1.7484 39.591-3.7052 39.591-3.2143 0-4.0586-7.6014-2.5915-23.333 0.8207-8.8 1.4852-23.05 1.4768-31.667-0.016-16.798-0.1688-17.115-6.9524-14.474-1.6845 0.65575-11.763 2.8483-22.396 4.8724-10.633 2.0241-20.383 4.5806-21.667 5.6811-2.4333 2.0866-3.1743 5.5876-1.1825 5.5876 1.0534 0 3.1365 14.354 2.9992 20.667-0.032 1.4667-0.9494 9.5667-2.0388 18-1.0895 8.4333-2.0102 15.783-2.046 16.333-0.1388 2.1289-4.046 0.86053-5.4542-1.7706-1.0958-2.0476-1.0648-5.1096 0.1187-11.734 1.496-8.3711 1.3863-43.157-0.1409-44.684-0.3575-0.35747-4.2363-0.77979-8.6196-0.9385-6.4515-0.23358-9.0535-1.0572-13.66-4.3237-6.3768-4.522-9.9658-10.466-8.8952-14.732 1.0167-4.0506 7.759-7.5828 12.619-6.6107 2.2945 0.45891 4.7776 0.1132 5.9045-0.8222 1.0698-0.88776 2.5208-1.2582 3.2248-0.82313 0.7039 0.43505 2.7738 0.223 4.5998-0.47121l3.3198-1.2622-0.208-30.266-0.208-30.266-6-1.8812c-3.3-1.0346-7.8-2.2027-10-2.5957-2.2-0.393-5.2-1.7524-6.6666-3.0208-4.4163-3.8193-9.341-6.5247-12.757-7.0082-2.1359-0.3023-3.9572-2.0041-5.3818-5.0287-2.6224-5.5675-1.8522-9.3545 1.9611-9.6447 3.1503-0.23977 7.9703-0.49319 16.511-0.86809 4.9351-0.21664 5.6667-0.64078 5.6667-3.2854 0-4.1935 3.6128-8.9634 6.7892-8.9634 1.4509 0 4.1476 0.98919 5.9928 2.1982 4.5088 2.9543 5.565 1.439 6.1012-8.7534 0.4262-8.1008 0.2882-8.5671-2.5972-8.7806-5.8526-0.43312-6.3434-2.4357-3.5072-14.31 3.1054-13.002 5.0121-14.163 11.918-7.2575 4.3284 4.3285 4.6351 5.1998 4.6104 13.104-0.015 4.6567-0.6248 12.606-1.3561 17.666-0.7314 5.0597-0.9706 9.5597-0.5316 10 2.296 2.3029 38.953-0.0879 46.653-3.0427 2.4265-0.93115 2.3196-52.809-0.1147-55.52-1.118-1.2452-1.3868-2.7363-0.6949-3.8556 0.9164-1.4828 1.8893-1.283 5.187 1.0651 5.2611 3.7463 5.7027 5.4972 4.4062 17.472-1.3263 12.249-0.8634 39.133 0.682 39.617 0.6206 0.19452 10.987-0.0863 23.036-0.62384l21.907-0.97752 0.947-3.553c0.5211-1.9542 1.3864-12.923 1.9231-24.375l0.9759-20.822-5.4968 0.87898c-4.8432 0.77448-5.4968 0.57337-5.4968-1.6914 0-6.0371 7.7801-7.758 13.771-3.046 4.929 3.8771 5.534 9.6464 3.0594 29.172-1.1899 9.3884-2.1634 18.367-2.1634 19.952 0 2.8562 0.2042 2.8785 23 2.5169l23-0.36481-0.3543-25.333c-0.1948-13.933-0.6641-26.715-1.0429-28.403-0.6114-2.7259-0.3885-2.9092 1.9908-1.6359 4.1319 2.2114 5.0833 8.2523 4.9408 31.372-0.072 11.733 0.3381 22.083 0.9124 23 1.1433 1.8254 33.65 2.3821 48.495 0.83052l7.9997-0.83615 0.8475-15.761c0.9365-17.419 0.4232-20.441-3.3064-19.466-2.0627 0.5394-2.4828-0.11933-2.4828-3.8926 0-4.8845 0.8119-5.3298 5.6757-3.1136 6.1551 2.8044 6.991 5.902 6.991 25.905v18.667l7.9884-0.29859c4.3936-0.16422 8.1936-0.91422 8.4444-1.6667 0.5244-1.5732 5.1238-1.8656 5.7894-0.36808 0.2444 0.55 10.344 0.7 22.444 0.33333l22-0.66667v-27.735c0-26.624 0.093-27.62 2.3334-24.852 2.4818 3.0664 2.839 8.1012 2.6096 36.786-0.1416 17.706-1.9256 16.402 22.375 16.347 9.1749-0.0207 21.632 0.3838 27.682 0.89884l11 0.93646 0.2304-5.8572c0.411-10.447-0.4038-43.115-1.1437-45.857-0.3957-1.4667-2.2644-4.3167-4.1525-6.3333-3.2976-3.522-3.3227-3.6667-0.6355-3.6667 4.1997 0 9.4009 7.0862 10.479 14.277 0.5167 3.4456 0.566 13.633 0.1094 22.638-0.4564 9.0053-0.4679 18.183-0.025 20.396l0.8043 4.0224h13.866c13.564 0 13.894-0.0727 15.134-3.3333 0.6971-1.8333 1.8381-3.3333 2.5359-3.3333 0.6977 0 1.4689-1.0405 1.7138-2.3121 0.3571-1.8542 3.2154-2.717 14.431-4.3562l13.986-2.0441 0.2701-12.398c0.3545-16.263-1.462-21.994-7.2544-22.889-4.2147-0.65158-4.242-0.69928-1.2093-2.1079 3.9716-1.8446 8.0858-0.31349 10.965 4.0805 1.8563 2.8329 2.1369 5.61 1.5708 15.539-1.004 17.609-0.9911 17.634 8.8527 16.606 4.4761-0.46755 12.938-1.7005 18.805-2.7399 5.8666-1.0394 19.067-2.8664 29.333-4.06 10.267-1.1937 19.236-2.7272 19.931-3.4079 0.7958-0.77896 0.5487-4.8211-0.6666-10.907-1.6595-8.31-2.3527-9.729-4.931-10.095-3.1856-0.45244-3.5866-1.2531-1.9318-3.8571 1.6964-2.6694 6.8793-0.35043 9.2068 4.1193 1.1925 2.2901 2.5185 7.7639 2.9466 12.164 0.507 5.2095 1.3598 7.9535 2.4451 7.8667 0.9167-0.0733 18.052-0.22334 38.078-0.33334 26.819-0.1473 36.985-0.63909 38.586-1.8667 1.6896-1.2954 2.4617-5.6768 3.4661-19.671 1.35-18.808 0.9296-25.329-1.6329-25.329-0.8387 0-3.9963 2.3988-7.017 5.3306-4.6138 4.4783-5.7452 5.0255-7.0754 3.4226-1.2415-1.4959-1.1299-2.4313 0.5166-4.3306 1.1551-1.3324 3.793-4.4632 5.862-6.9574 3.127-3.7693 4.3591-4.385 7.2983-3.6474 4.348 1.0913 7.5841 6.9705 7.5863 13.783 9e-4 2.7864-1.0024 12.167-2.2295 20.846-2.5891 18.311-2.454 18.596 8.2279 17.403 3.6666-0.40975 18.667-1.1434 33.333-1.6302l26.666-0.88523v-16.729c0-13.894-0.4087-17.352-2.4111-20.405-3.5339-5.3878-5.8877-5.7173-10.344-1.4478-5.3859 5.16-7.7939 2.7843-3.5604-3.5127 3.8603-5.742 7.4988-6.3147 12.639-1.9895 6.6408 5.5878 8.6559 11.519 8.528 25.102-0.063 6.5934-0.4153 12.962-0.785 14.152-1.6967 5.4611-0.2674 5.6221 37.364 4.2081 57.446-2.1585 61.838-2.573 62.544-5.9034 0.3275-1.5443 1.5458-9.6118 2.7075-17.928 2.2569-16.156 1.5523-19.775-3.5885-18.431-2.8675 0.74982-2.9908-0.0359-0.7599-4.8396 2.0787-4.476 4.9608-4.5758 8.9679-0.31045 2.8678 3.0528 3.0396 4.0741 2.2989 13.678-0.4401 5.7083-1.7303 12.604-2.8669 15.325-1.1366 2.7203-2.0666 6.9886-2.0666 9.4851 0 4.2865 0.3056 4.588 5.4924 5.4173 3.0208 0.48306 9.7708 0.55295 15 0.15532 12.845-0.9767 50.398-2.2685 59.67-2.0525 5.9381 0.13828 7.6769-0.29787 8.3681-2.0991 1.4219-3.7055 1.0818-27.634-0.4501-31.663-1.8815-4.9485-1.7832-6.211 0.4829-6.211 3.4403 0 5.76 9.8672 6.184 26.304 0.1367 5.3003 0.9282 10.566 1.7587 11.702 1.3387 1.8308 4.9135 1.9081 31.502 0.68133 52.128-2.4051 67.083-2.9404 76.145-2.7259 12.313 0.2915 13.207-0.8277 13.083-16.39-0.053-6.731-0.5478-15.403-1.0985-19.271-0.6568-4.6138-0.5336-6.877 0.358-6.5798 2.6687 0.88956 3.9431 8.5175 4.0563 24.279l0.1146 16 10-0.094c5.5-0.0517 21.4-0.35175 35.333-0.66667 19.063-0.43088 30.448 0.0272 46 1.8509 36.595 4.2914 40.587 4.5986 43.071 3.3154 6.7217-3.4724 29.959 18.846 27.175 26.101-1.0668 2.7801-10.93 3.3041-22.246 1.182-5.5-1.0314-13.837-2.4205-18.528-3.0869-4.69-0.6664-9.49-1.509-10.667-1.8724-1.1765-0.36347-7.8392-1.3434-14.806-2.1777-6.9667-0.83426-13.867-1.6698-15.333-1.8568-1.4666-0.18693-3.7502 0.60368-5.0745 1.7569-1.9471 1.6954-2.9007 1.7891-4.982 0.48933-3.1799-1.9859-18.062-1.9309-44.338 0.1638-11.132 0.8874-20.232 1.069-20.884 0.41687-3.2808-3.2809-4.0548 1.5434-4.0548 25.275 0 36.37 2.2772 70.135 4.8635 72.111 2.3553 1.7998 11.135 2.7214 35.803 3.7581 9.5333 0.40067 25.733 1.3646 36 2.1421 10.267 0.77746 20.167 1.5138 22 1.6362 2.5258 0.16871 3.4365-0.50412 3.7594-2.7774 0.5868-4.1319 2.6016-3.7551 5.3026 0.99157 2.0434 3.591 2.9737 4.0091 9.2713 4.1667 3.85 0.0963 7.45 0.28732 8 0.42449 0.55 0.13718 7.9 0.73046 16.333 1.3184 14.695 1.0244 20 2.2503 20 4.6213 0 2.0949-14.992 10.811-18.596 10.811-1.9946 0-4.071 0.44446-4.6142 0.98767-1.0478 1.0477-59.54 0.79916-67.457-0.28667-2.5667-0.35205-11.567-0.98002-20-1.3955-17.082-0.84156-36.421-2.7692-41-4.0867-2.5095-0.72204-2.9998-0.34721-2.9982 2.2923 0 5.1632 3.534 23.675 7.9051 41.444 2.2512 9.1513 4.0931 17.164 4.0931 17.805 0 3.4678-4.0916-5.5807-6.9759-15.427-6.2303-21.269-7.8016-27.335-9.6071-37.083-0.993-5.3624-2.1769-10.121-2.6309-10.575-3.4624-3.4625-119.83-2.6957-123.72 0.81515-1.0496 0.94849 3.3353 35.765 5.5314 43.921 0.7818 2.903 2.317 6.0215 3.4118 6.9301 1.0946 0.90855 1.9904 3.7224 1.9904 6.2531 0 7.4044-3.7895 5.0639-7.409-4.5761-3.4768-9.2603-8.591-35.284-8.591-43.716 0-8.9211-1.3824-9.7447-17.801-10.606-10.662-0.55927-16.449-0.23301-22 1.2402-4.143 1.0995-17.056 2.5585-28.696 3.2422-14.848 0.8722-21.713 1.7931-23.006 3.0862-1.4977 1.4976-1.568 3.3312-0.3754 9.7826 0.8072 4.3667 2.0225 8.9763 2.7008 10.243 0.6781 1.2672 1.8273 5.4701 2.5536 9.3399 0.7264 3.8697 4.0138 15.264 7.3057 25.321 5.6449 17.246 7.462 25.879 4.8375 22.982-1.4052-1.5511-15.453-45.363-17.507-54.6-0.8153-3.6667-2.2391-10.567-3.1637-15.333-1.5586-8.0346-1.9182-8.6368-4.9315-8.2575-1.7876 0.22505-24.832 0.6086-51.211 0.8523l-47.96 0.44311 0.3961 5.8144c1.1262 16.529 4.6956 35.474 8.0862 42.916 1.5245 3.3467 2.772 6.5292 2.772 7.0721 0 0.54297 1.1464 2.2259 2.5474 3.7398 3.2784 3.5425 4.1952 9.4193 1.4694 9.4193-5.0176 0-16.319-36.492-18.066-58.333-0.5132-6.4167-1.312-11.726-1.7753-11.799-8.1378-1.2778-67.945-1.8766-69.129-0.69216-1.9529 1.9529 12.864 51.491 15.401 51.491 0.4322 0 2.1044-1.65 3.7163-3.6667 1.6119-2.0167 3.2191-3.3667 3.5717-3 1.4426 1.4999-2.3146 14.667-4.185 14.667-5.7695 0-15.376-24.226-20.223-51l-1.6294-9-13.516-0.17016c-7.4338-0.0936-14.716-0.36905-16.182-0.61212-5.5148-0.91399-7.0387-0.96613-22.244-0.76109-13.732 0.18517-15.667 0.49476-16.34 2.6148-0.4198 1.3226 0.1362 8.3726 1.2357 15.667 2.0187 13.393 2.5644 21.59 1.3573 20.382-0.841-0.84096-2.8926-11.669-4.0016-21.121-0.4733-4.0333-1.2966-9.4333-1.8296-12-0.9592-4.6192-1.0362-4.6642-7.5736-4.4272-3.6325 0.13174-20.942 0.28171-38.465 0.33334l-31.86 0.0939 0.7851 9.3646c0.8731 10.413 7.4703 33.046 12.622 43.302 1.8419 3.6667 5.5612 9.9667 8.2654 14 7.0769 10.556 7.6266 12.054 2.2012 6-13.471-15.032-19.763-30.563-28.222-69.667-0.6482-2.9969-0.681-3.0003-31.624-3.2662-35.661-0.30647-38.23-0.25584-39.26 0.77356-0.6927 0.69265 0.2795 7.1 3.5643 23.493 0.6613 3.3 3.274 12.3 5.8058 20 5.6414 17.156 6.6432 21.333 5.1162 21.333-0.6507 0-2.2262-3.75-3.501-8.3333-1.2749-4.5833-3.8216-12.833-5.6593-18.333s-4.7192-16.496-6.4035-24.435c-1.6841-7.939-3.3902-14.763-3.7913-15.164-0.9113-0.9114-23.725-3.5847-30.646-3.591-3.4454-3e-3 -5.549 0.73944-6.3994 2.259-1.3748 2.4564-7.1335 3.0892-8.4678 0.9304-1.0405-1.6837-6-1.758-6-0.0899 0 0.68392-1.05 1.5768-2.3333 1.9841-1.9991 0.63451-2.3188 2.414-2.232 12.423 0.056 6.4254 0.5043 15.883 0.9971 21.016 0.6668 6.9474 0.56 8.3108-0.4182 5.3333-0.7226-2.2-2.003-10.6-2.8452-18.667-2.1594-20.683-1.5585-19.763-13.061-20.001-5.3138-0.11-10.062-0.82852-10.551-1.5968-0.5116-0.80352-8.6775-1.6926-19.223-2.0928-15.125-0.57409-18.333-0.37043-18.333 1.1638 0 1.0228 0.6 1.8597 1.3334 1.8597 2.4629 0 1.3626 2.4776-1.5043 3.3876-2.6021 0.82587-2.7768 1.5805-2.1043 9.0898 1.522 16.994 8.8175 71.008 12.452 92.189 3.5275 20.558 3.5376 20.667 1.9273 20.667-0.8365 0-1.7442-0.75-2.017-1.6667zm-235.42-128.15c6.9667-1.1213 17.092-2.683 22.5-3.4705 5.4084-0.78751 10.358-1.7563 11-2.1529 1.3621-0.84182 1.5323-27.501 0.2947-46.189l-0.8582-12.959-8.1349 0.80358c-4.4743 0.44197-12.335 1.6351-17.468 2.6513-26.323 5.2112-24.652 4.6487-24.844 8.3647-0.5652 10.919-0.7351 54.267-0.2163 55.152 0.3401 0.57983 1.6177 0.7806 2.8395 0.44616 1.2216-0.33444 7.921-1.5255 14.888-2.6468zm667.33-0.85365c0.4532-0.73333-0.4468-1.3333-2-1.3333s-2.4532 0.6-2 1.3333 1.3532 1.3333 2 1.3333 1.5468-0.6 2-1.3333zm44.667 0.0232c0-0.79055-3.8939-1.3565-9.3334-1.3565-5.1333 0-9.3333 0.52408-9.3333 1.1646s4.2 1.251 9.3333 1.3565c5.5652 0.1144 9.3334-0.3558 9.3334-1.1646zm-107.5-1.2808c3.1796-0.0628 3.5593-0.40187 2.2359-1.9964-0.8767-1.0564-2.4502-1.5922-3.4966-1.1907-1.0464 0.40153-1.9025 0.0659-1.9025-0.74592 0-0.8118-0.9355-1.476-2.0787-1.476-1.1505 0-1.6808 0.64379-1.1876 1.4418 0.5319 0.86068-0.108 1.3362-1.588 1.1798-1.3634-0.14412-5.1025-0.19295-8.3089-0.10854-4.5016 0.11854-5.5152 0.53331-4.4483 1.8202 0.8679 1.0468 4.2758 1.5709 9.1632 1.409 4.2799-0.14169 9.5051-0.29169 11.612-0.33333zm29.332-4.1988c-1.5822-0.59486-3.089-0.1843-4.1189 1.1223-2.5612 3.2495-0.5803 4.5294 3.1884 2.0601 3.1461-2.0614 3.222-2.3208 0.9305-3.1824zm-19.523 3.3175c-0.4431-0.44305-1.5931-0.49041-2.5556-0.1052-1.0636 0.42563-0.7478 0.74158 0.8056 0.80555 1.4054 0.0579 2.193-0.25724 1.75-0.70029zm11.028 0.24795c0-3.3729-2.1537-4.7581-7.1427-4.5942-3.2177 0.10574-4.239 0.42708-2.4461 0.7696 2.4907 0.47586 2.7775 0.94992 1.5033 2.4851-1.3122 1.5812-0.7701 1.8971 3.2556 1.8971 2.6564 0 4.8299-0.25093 4.8299-0.55761zm-77.948-2.0251c-0.4247-0.68717-3.1519-1.2165-6.0604-1.1764-2.9086 0.0401-4.9611 0.60237-4.5612 1.2494 0.4 0.64702 3.127 1.1764 6.0604 1.1764 2.9772 0 4.9922-0.55196 4.5612-1.2494zm-491.41-4.1522c5.5145-0.68743 15.327-1.7838 21.806-2.4365 6.4784-0.65263 12.324-1.7318 12.991-2.3982 1.0555-1.0556-2.327-56.195-3.532-57.576-0.23-0.26347-3.9024 0.22215-8.1612 1.0792-8.7604 1.7629-21.202 2.9853-28.995 2.8488-2.8886-0.0505-6.669 0.8364-8.4008 1.9711l-3.1486 2.0631 0.841 26.925c0.4626 14.809 1.0979 27.737 1.412 28.73 0.3472 1.0978 1.4704 1.4598 2.8664 0.92413 1.2626-0.48449 6.8075-1.4433 12.322-2.1307zm69.36-5.7221 16.667-1.5686-0.069-8.6538c-0.075-9.4369-1.6532-34.699-2.7181-43.514-0.4867-4.0284-1.374-5.7117-3.2724-6.2082-1.4325-0.3746-2.9405-0.13744-3.3512 0.52705-0.4106 0.66449 0.3387 1.2272 1.6654 1.2506 2.2985 0.0404 2.3012 0.12653 0.057 1.8289-1.6789 1.2742-6.2677 1.702-16 1.4918-7.5051-0.16212-16.558 0.27796-20.118 0.97794-6.1596 1.2113-6.4362 1.4518-5.73 4.9825 0.4081 2.0404 1.1168 10.827 1.5749 19.526 0.458 8.6992 1.0504 18.517 1.3163 21.817 0.2658 3.3 0.5196 6.75 0.5638 7.6667 0.099 2.0446 6.6678 2.017 29.414-0.12373zm521.6-44.66c0.2559-27.769-0.083-44.059-0.9321-44.955-0.9003-0.9485-5.6638-1.0445-14.667-0.29546-7.3333 0.6101-22.905 1.5422-34.603 2.0714l-21.27 0.96213-1.7323 11.333c-1.83 11.973-2.2749 57.645-0.6625 68l0.9343 6 34.667 0.66667c19.067 0.36667 35.386 0.46419 36.266 0.21671 1.1905-0.33502 1.7013-11.574 2-44zm64.401 42.874c15.4-0.35843 30.537-0.59569 33.639-0.52727 4.9674 0.1096 5.7393-0.27712 6.4853-3.2496 0.4659-1.8557 0.4715-7.1104 0.013-11.677-0.4588-4.5668-0.9194-24.053-1.0234-43.303l-0.1894-35-4.1285 8e-3c-2.2707 4e-3 -7.7285 0.66826-12.128 1.4756-13.154 2.4136-16.015 2.5821-49.049 2.8888-26.517 0.24623-31.922 0.62229-32.98 2.2945-1.2393 1.9604-1.4552 7.4822-2.1368 54.667-0.4449 30.802-0.3761 31.19 5.8487 32.935 2.7407 0.7682 10.083 1.1142 16.316 0.76878 6.2333-0.34538 23.933-0.92122 39.333-1.2796zm-141.62-2.424c-0.1564-1.4667-0.5825-12.567-0.9466-24.667-0.5954-19.774 0.2609-36.595 2.6997-53.04l0.8463-5.7066-22.491 0.15864c-14.358 0.10134-25.202 0.83627-29.988 2.0327-7.0828 1.7703-13.952 2.9299-18.552 3.1319-1.7545 0.0771-1.9984 2.631-1.6949 17.757 0.4352 21.7 3.087 57.525 4.4174 59.677 0.6672 1.0795 9.433 1.9107 27.486 2.6064 36.926 1.423 38.573 1.3389 38.222-1.9505zm-64.049-72.216c-2.7118-1.0943-1.9094-2.7597 1.6583-3.4417 3.2855-0.62805 6.8068 1.7485 5.108 3.4474-0.9961 0.99609-4.2904 0.99332-6.7663-5e-3zm-309.19 71.187 17.141 0.28235-0.7165-4.2929c-0.394-2.3611-1.9988-13.593-3.5662-24.96-1.5673-11.367-3.3668-21.954-3.9988-23.527-1.04-2.5888-2.0614-2.8375-10.756-2.6188-5.2834 0.13294-10.961-0.46098-12.616-1.3198-1.9175-0.9948-4.9919-1.1992-8.4702-0.56315-3.003 0.54915-6.9672 0.71036-8.809 0.35826-1.9592-0.37452-3.3491-0.0224-3.3491 0.84856 0 0.81882 0.6 1.5638 1.3333 1.6554 0.7334 0.0916 1.9334 0.31666 2.6667 0.5 0.7333 0.18333 1.9333 0.40833 2.6667 0.5 0.7333 0.0916 1.286 1.5167 1.2281 3.1667-0.057 1.65-0.408 2.25-0.7779 1.3333-0.8316-2.061-7.6689-2.1786-11.374-0.19567-1.6339 0.87439-3.0855 0.97284-3.5791 0.24275-0.4566-0.67554-2.6304-1.1288-4.8304-1.0072l-4 0.22104 0.1372 15.203c0.076 8.3616 0.5812 19.902 1.124 25.646l0.9868 10.443 16.209-1.099c8.9152-0.60446 23.923-0.97195 33.35-0.81667zm-24.274-50.237c0.2933-0.88 0.9684-1.555 1.5-1.5 1.5942 0.16492 1.2854 1.9937-0.4334 2.5667-0.88 0.29334-1.36-0.18666-1.0666-1.0667zm6.4666-1.1778c0-1.8787 1.5019-2.7405 3.4638-1.9877 2.7825 1.0678 2.2601 3.0988-0.7971 3.0988-1.4667 0-2.6667-0.5-2.6667-1.1111zm99.776 51.098c3.0887-0.75454 3.1038-0.85706 2.2968-15.707-1.615-29.722-2.287-38.883-2.9289-39.921-0.3593-0.58151-8.8637-0.8369-18.898-0.56754-14.279 0.38331-19.232 1.0098-22.784 2.8822-4.1437 2.1844-4.6742 2.2065-6.1016 0.25444-1.0844-1.483-4.1326-2.2556-9.9502-2.5219l-8.387-0.38388-0.4741 5.2836c-0.2608 2.906 0.7091 13.684 2.1553 23.952 1.4462 10.268 2.6294 20.305 2.6294 22.305 0 2.0003 0.9716 4.1806 2.1592 4.8452 2.2598 1.2647 54.887 0.89644 60.283-0.42185zm136.95 0.40142c0.4808-0.4808-0.075-7.965-1.2356-16.631-1.1604-8.6665-2.7206-23.508-3.4674-32.982-0.7468-9.4736-1.5066-17.339-1.6886-17.479-0.182-0.13988-1.9901-0.65251-4.0181-1.1392-3.6315-0.87142-3.6749-0.8076-2.8725 4.2101 1.3245 8.2837 0.12 8.6607-29.845 9.3402-14.444 0.32751-26.362 0.67759-26.484 0.77794-0.3353 0.2747-0.7868 33.482-0.604 44.422 0.1473 8.8122 0.3987 9.6189 3.16 10.14 4.8072 0.90635 66.093 0.30491 67.056-0.65807zm83.595-0.14712c0.2925-0.86622-0.2847-13.575-1.2826-28.242-0.998-14.667-2.1485-31.686-2.5568-37.82l-0.7425-11.153-4.8675 0.88839c-2.6772 0.48862-9.9676 1.1794-16.201 1.5351-6.2333 0.35568-13.133 1.1857-15.333 1.8446-2.2 0.65881-10.9 1.5404-19.333 1.9591-8.4333 0.41869-17.433 1.2432-20 1.8323l-4.6666 1.0711 0.3166 12.588c0.3023 12.022 3.7318 46.648 5.2374 52.881 0.6825 2.8254 1.4521 2.9796 16.914 3.3905 40.182 1.0678 61.985 0.79731 62.516-0.7756zm325.91-0.6798c11.127-0.50109 20.631-1.3123 21.122-1.8026 0.4904-0.49034 0.1836-8.5868-0.6817-17.992-0.8654-9.4053-1.37-29.34-1.1218-44.299 0.4351-26.201 0.3539-27.233-2.215-28.154-1.4667-0.52569-3.9762-0.46687-5.5767 0.1308-1.6004 0.5976-4.7108 0.57004-6.912-0.0612-2.3023-0.66025-8.3551-0.60741-14.25 0.1244-5.6361 0.69972-20.95 1.4013-34.032 1.5592-16.296 0.19658-24.285 0.7877-25.375 1.8774-1.827 1.8271-2.4142 77.318-0.671 86.262l1.015 5.2074 24.234-0.9709c13.329-0.534 33.338-1.3809 44.464-1.882zm-483.33-26.113c-0.2724-14.73-0.8866-27.166-1.3649-27.636-0.4783-0.46953-13.47-1.0695-28.87-1.3333l-28-0.47963 0.444 22.667c0.6688 34.134 0.3284 31.879 4.9296 32.661 2.1779 0.37003 15.074 0.7248 28.658 0.7884l24.698 0.1156-0.4952-26.782zm634.68 13.884c-0.2308-6.2333-0.9804-17.633-1.6656-25.333s-1.2463-24.015-1.2469-36.255c-8e-4 -16.356-0.4428-22.532-1.6678-23.3-2.7734-1.739-11.866-1.9485-20.333-0.46856-4.4 0.76902-15.8 1.655-25.333 1.9688-9.5334 0.3138-24.833 0.95844-34 1.4325-9.1667 0.47408-21.167 1.01-26.667 1.191-13.414 0.44136-16.005 1.3905-15.98 5.8537 0.015 2.5138 0.3611 3.0392 1.1667 1.7678 1.7609-2.7792 2.9214 0.26662 1.9508 5.12-0.4678 2.3383-1.6651 4.5642-2.6608 4.9463-2.3402 0.89802-2.4779 9.8763-0.1443 9.4094 1.2763-0.25535 1.6963 4.9696 1.7951 22.333 0.071 12.467 0.5881 27.076 1.1492 32.465l1.02 9.7983 26.851-1.1316c29.393-1.2388 58.504-0.95502 78.185 0.76205 19.616 1.7115 18.069 2.6407 17.58-10.56zm-127.01-41.745c0.052-1.3266-0.5063-2.0412-1.2396-1.588-0.7334 0.45323-1.2912 2.7386-1.2396 5.0787 0.079 3.5864 0.2737 3.8358 1.2396 1.588 0.6302-1.4667 1.1881-3.7521 1.2396-5.0787zm-700.57 0.41203c0.4532-0.73333-0.1106-1.3333-1.2546-1.3333-1.1432 0-2.0787 0.6-2.0787 1.3333s0.5645 1.3333 1.2547 1.3333c0.69 0 1.6254-0.6 2.0786-1.3333zm653.33-48c0.4949-0.80089-1.204-1.3252-4.2547-1.3129-3.77 0.0152-4.5633 0.35347-3.0787 1.3129 2.6076 1.6852 6.2919 1.6852 7.3334 0zm93.333 0c0.4595-0.74351-0.5379-1.3243-2.2547-1.3129-2.4768 0.0164-2.6877 0.27308-1.0786 1.3129 2.4809 1.6033 2.3424 1.6033 3.3333 0zm-80.333-0.88304c-0.9167-0.36988-2.4167-0.36988-3.3334 0-0.9166 0.36988-0.1666 0.67252 1.6667 0.67252s2.5833-0.30264 1.6667-0.67252zm130.33-1.7836c0-0.73333-1.2-1.3333-2.6667-1.3333-1.4666 0-2.6666 0.6-2.6666 1.3333 0 0.73334 1.2 1.3333 2.6666 1.3333 1.4667 0 2.6667-0.6 2.6667-1.3333zm9.6667-0.88304c-0.9167-0.36988-2.4167-0.36988-3.3334 0-0.9166 0.36988-0.1666 0.67252 1.6667 0.67252s2.5833-0.30264 1.6667-0.67252zm11.667-0.32546c0-0.66468-1.2-0.89471-2.6666-0.51116-1.4667 0.38354-2.6667 0.92737-2.6667 1.2085 0 0.28114 1.2 0.51116 2.6667 0.51116 1.4666 0 2.6666-0.54382 2.6666-1.2085zm23.333-0.12483c0.4912-0.79476-0.9582-1.2796-3.588-1.2004-4.1482 0.12494-4.2127 0.19676-1.0787 1.2004 1.8333 0.58713 3.4479 1.1273 3.588 1.2004 0.14 0.0731 0.6255-0.4671 1.0787-1.2004zm46.257-1.8796c3.4344 0.32084 6.6052-0.0243 7.0654-0.76916 0.5246-0.84866-1.7976-1.3444-6.2436-1.333-8.859 0.0228-14.008 1.2499-11.569 2.7572 0.9541 0.58964 2.3606 0.5525 3.1258-0.0825 0.7652-0.63501 4.195-0.89266 7.6218-0.57253zm-525.91 193.88c-0.5351-1.8333-0.9032-7.8333-0.818-13.333l0.1548-10 1.1869 10c0.653 5.5 1.021 11.5 0.818 13.333l-0.3689 3.3333zm-884.73-18.391c-3.5793-0.55719-12.278-8.8134-12.278-11.653 0-2.336-1.562-2.5268-3.6437-0.44519-2.3686 2.3686-5.6249 0.30341-7.8254-4.9631-4.0188-9.6182 1.2604-17.672 12.386-18.895 3.529-0.38813 7.8473-1.8186 9.5962-3.1789 1.7489-1.3603 5.2268-2.4732 7.7286-2.4732 3.5554 0 5.0158-0.80084 6.6863-3.6667 2.2436-3.8487 13.279-13.271 22.376-19.106 2.9492-1.8914 6.1644-4.416 7.145-5.6101 1.2042-1.4663 2.9815-1.9314 5.4748-1.4328 2.5315 0.50629 3.9274 0.12466 4.4411-1.2142 0.4121-1.0739 6.3961-6.1968 13.298-11.384s13.324-10.366 14.272-11.509c0.9483-1.1426 2.8507-2.0774 4.2276-2.0774 1.8599 0 2.5034-0.97101 2.5034-3.7778 0-4.6347-1.1884-6.0024-3.5282-4.0605-2.0545 1.7051-3.6705-1.0812-2.9118-5.0206 0.6651-3.4536 11.083-10.891 16.743-11.952 11.038-2.0707 19.841 7.6652 19.418 21.476-0.3333 10.884-3.0268 17.814-8.7125 22.415-6.5166 5.2743-11.969 4.1846-15.705-3.1392-1.45-2.8422-2.6363-6.3915-2.6363-7.8874 0-3.913-2.1916-3.3896-9.8769 2.3588-3.7344 2.7932-10.39 7.7216-14.79 10.952-4.4 3.2302-12.2 9.8744-17.333 14.765-5.1334 4.8905-12.268 11.212-15.855 14.048-3.5866 2.836-9.4105 8.1013-12.942 11.701l-6.4208 6.5441 0.7028 10.123c0.5941 8.5567 0.2967 10.763-1.9222 14.265-2.7514 4.3418-5.5208 5.5936-10.619 4.8zm2.3889-17.609c0-0.73334-0.8646-1.3333-1.9213-1.3333s-2.2922 0.6-2.7454 1.3333c-0.4532 0.73333 0.4114 1.3333 1.9213 1.3333 1.51 0 2.7454-0.6 2.7454-1.3333zm-17.333-2.6667c0-0.73333-0.6355-1.3333-1.4121-1.3333s-1.0412 0.6-0.5879 1.3333c0.4532 0.73333 1.0886 1.3333 1.412 1.3333s0.588-0.6 0.588-1.3333zm119.76-65.746c4.01-4.2684 6.4602-16.891 4.2938-22.122-0.8976-2.1669-2.7841-4.9826-4.1922-6.2569-2.4503-2.2174-2.7747-2.1439-7.5449 1.7087-6.2652 5.0601-8.0809 9.7025-5.7545 14.713 7.5986 16.364 8.3867 17.078 13.198 11.957zm871.12 83.079c0-1.8333 0.3027-2.5833 0.6726-1.6667 0.3698 0.91666 0.3698 2.4167 0 3.3333-0.3699 0.91667-0.6726 0.16667-0.6726-1.6667zm-883.09-9c-4.1602-4.9611-6.4566-9.7261-6.4566-13.398 0-5.2723-0.9115-5.7605-6.1191-3.2772-5.426 2.5875-7.9092 0.95196-3.2458-2.1377 1.816-1.2032 5.2592-3.8938 7.6516-5.9791 2.5883-2.2562 6.5039-4.0804 9.6695-4.505 4.718-0.63282 5.7736-0.22773 9.3318 3.5814 4.594 4.9179 7.4374 12.977 6.2491 17.711-0.4469 1.7806-2.0691 4.835-3.6049 6.7874-3.3358 4.2407-10.404 4.8789-13.476 1.2166zm8.7981-9.9302c2.8169-6.6994-0.1878-12.74-5.0614-10.176-5.3205 2.7996-5.7161 6.9198-1.1623 12.106 2.9128 3.3171 4.1831 2.9232 6.2237-1.9302zm-310.3 8.5517c1.6601-4.5355 6.6576-10.939 11.606-14.872 4.8041-3.8178 5.23-3.9147 8.8894-2.0224 3.8272 1.9791 5.8594 6.323 5.0002 10.688-0.4637 2.3562-11.226 6.42-13.417 5.0661-0.63336-0.39144-1.8753-0.14448-2.7598 0.5488-0.88454 0.69326-3.5316 1.6246-5.8824 2.0696-3.6471 0.69041-4.1513 0.47343-3.4366-1.479zm-333.47-56.123c-1.661-1.8354-2.3376-5.2827-2.54-12.941-0.24216-9.1648 0.0797-10.795 2.6358-13.349 1.6014-1.6003 3.3283-5.2268 3.8376-8.0587s1.3814-6.0035 1.938-7.0479c1.0061-1.8878-0.2589-7.377-3.0164-13.09-1.0504-2.1761-1.0206-3.915 0.10987-6.3961 2.3881-5.2413 1.9689-6.3422-2.0328-5.3379-3.8774 0.97316-10.154 5.0624-14.415 9.3909-14.728 14.963-23.573 15.322-20.943 0.8505l1.2149-6.6845-5.0582-0.85458c-2.782-0.47002-7.1932-1.9431-9.8027-3.2735-4.7156-2.4042-4.7445-2.4014-4.7445 0.44624 0 4.5906-7.5317 26.287-9.9529 28.671-2.0453 2.014-2.3531 1.9833-4.1286-0.41196-1.0552-1.4235-1.9185-4.0912-1.9185-5.9282v-3.34l-4.6374 4.4947c-4.4967 4.3583-4.7174 4.4223-7.2759 2.1069-2.0251-1.8327-2.7294-4.4443-3.0293-11.233-0.2151-4.8693-0.99006-8.7842-1.7241-8.7094-2.6095 0.26605-6.1632 8.5034-9.5278 22.085-1.8774 7.5784-4.2654 15.129-5.3069 16.779-2.5352 4.0169-6.3876 3.7823-10.949-0.66666-3.1767-3.0986-4.0343-5.526-5.5352-15.667-0.97684-6.6-1.9433-12.213-2.1476-12.474-0.53334-0.68104-12.534 8.0826-12.534 9.1531 0 1.5206-6.5916 3.988-10.654 3.988-4.8874 0-8.0129-4.2391-8.0129-10.868 0-6.1828-2.851-9.1319-8.8281-9.1319-6.4737 0-10.615 2.479-19.817 11.863-4.3883 4.4751-8.5883 8.1365-9.3333 8.1365-0.74504-3e-5 -3.0804-2.1629-5.1896-4.8064-4.2584-5.337-6.1078-4.4687-6.1446 2.8849-0.0107 2.2432-0.92035 5.2432-2.0203 6.6667-1.9451 2.5173-2.0819 2.4809-5-1.3327-1.6501-2.1565-3.3129-5.096-3.6952-6.5323-0.61258-2.3015-1.6409-1.7801-8.6667 4.3944-13.464 11.833-21.736 16.485-34.294 19.288-4.881 1.0894-11.913-2.0093-14.178-6.2479-2.7589-5.1616-0.88764-16.839 3.8222-23.852 3.4137-5.0829 4.6293-5.8426 11.58-7.2368 4.4859-0.89983 8.9982-1.0923 10.684-0.45572 4.0169 1.5165 6.0976 5.9349 5.0471 10.718-1.1849 5.3947-6.334 5.0304-6.5653-0.4645-0.24455-5.8092-2.7433-7.3692-6.8663-4.2867-9.2364 6.9052-16.039 23.335-10.536 25.447 3.1906 1.2244 14.814-1.7985 21.408-5.5676 2.9734-1.6996 10.432-7.6336 16.575-13.187 6.1428-5.553 11.743-10.096 12.446-10.096 1.2591 0 0.66702-10.003-1.2036-20.333-0.84861-4.6863-0.6962-5 2.4291-5 2.8576 0 3.5703 0.90569 4.9837 6.3333 0.90705 3.4833 1.9157 7.3526 2.2415 8.5985 0.32577 1.2458 1.7616 2.6362 3.1908 3.0898 1.806 0.5732 2.5985 2.0303 2.5985 4.7778 0 2.8802 0.81421 4.2558 3 5.0683 3.8581 1.4341 5.7664 0.71001 12.614-4.7866 8.7247-7.0036 14.341-8.8557 23.888-7.8775 6.6326 0.67953 8.3442 0.45405 8.972-1.182 1.7441-4.5451 11.526-1.2215 11.526 3.9162 0 5.1996-1.428 7.3955-4.8093 7.3955-2.7576 0-3.1907 0.63341-3.1907 4.6667 0 5.4863 1.1324 5.7674 6.231 1.5466 2.0729-1.716 4.7958-3.6769 6.0509-4.3576 1.255-0.68065 5.29-4.1204 8.9665-7.6438 4.7332-4.5361 7.5701-6.2806 9.7181-5.9758 2.4778 0.3516 2.973 1.1633 2.7034 4.4305-1.362 16.502-1.3514 21.178 0.0591 26.022 0.88238 3.0303 2.2043 5.522 2.9377 5.5373 1.5703 0.0327 8.4776-19.385 8.6177-24.226 0.0531-1.8333 2.6358-6.7946 5.7394-11.025 5.19-7.0745 6.0174-7.663 10.31-7.3333l4.6667 0.35847 0.66666 8.4876c0.6306 8.0284 0.7858 8.353 2.8685 6 1.211-1.3682 2.9413-4.9886 3.8451-8.0455 1.9535-6.607 6.0646-8.5632 9.4506-4.4969 2.0647 2.4796 2.2434 2.2256 3.8889-5.5284 1.9934-9.3935 2.0283-10.062 0.73336-14.083-0.87825-2.7272-0.53788-3 3.7435-3 3.5292 0 5.1038 0.75194 6.2823 3 0.86497 1.65 3.5861 5.2517 6.0469 8.0038 2.4608 2.7521 4.4742 5.6021 4.4742 6.3333 0 3.5227 3.6904 0.67418 6.0345-4.6579 2.7566-6.2704 5.8355-7.589 10.048-4.3036 4.8381 3.7733 3.6677 8.1996-4.6269 17.498-3.0344 3.4017-4.7226 8.7926-2.7535 8.7926 0.38623 0 4.5888-3.2058 9.3389-7.124 8.4691-6.9856 15.532-10.209 22.368-10.209 1.8883 0 3.8094 0.60857 4.2691 1.3524 0.45971 0.74382 3.2973 2.6081 6.3058 4.1429 5.3999 2.7548 5.6846 2.7627 22.243 0.61569 39.593-5.1338 58.283-5.2112 78.892-0.32681 4.7365 1.1225 8.6031 1.3407 10.609 0.59862l3.1564-1.1676-3.9164-2.5691c-2.154-1.413-5.7282-2.9631-7.9425-3.4446-2.2143-0.48152-5.2096-1.6988-6.6561-2.7051-3.4238-2.3819-4.7033-2.3114-4.7033 0.25892 0 1.4906-1.0466 1.9678-3.6553 1.6667-4.3749-0.50496-5.3989-3.8439-2.1694-7.0734 2.037-2.037 4.5939-2.2386 21.733-1.7143 14.748 0.45119 20.468 1.1367 23.758 2.8476 5.3699 2.7924 5.4116 4.2788 0.26914 9.5844-3.7341 3.8527-3.9279 4.4923-2.3861 7.8762 2.5292 5.551-0.62647 7.3458-9.9456 5.6566-6.436-1.1666-8.0754-0.92408-16.378 2.4225-14.401 5.8048-26.276 5.569-28.301-0.56197-0.50239-1.5214 0.73156-1.7132 6.5614-1.0204 7.0077 0.83285 18.513-1.9446 18.513-4.469 0-2.5532-38.828-4.0096-53.845-2.0196-3.0188 0.40003-8.4887 1.0391-12.155 1.4201-3.6667 0.38102-10.462 1.3479-15.1 2.1487-4.6386 0.80079-10.789 1.0794-13.667 0.61919-5.9791-0.9561-6.192-0.42932-3.657 9.0486 1.3971 5.2236 1.1524 7.5328-2.1568 20.352-2.053 7.9532-4.4952 17.859-5.4271 22.013-0.93191 4.1542-2.0968 8.2042-2.5886 9-1.3463 2.1783-4.054 1.7446-6.5876-1.055zm139.18-74.873c0-1.5962-3.7608-3.3084-4.8577-2.2116-1.1676 1.1676 0.81287 3.5868 2.9364 3.5868 1.0567 0 1.9213-0.61883 1.9213-1.3752zm-99.589-2.7318c-6.0177-2.23-7.7342-7.2804-7.8741-23.168-0.16186-18.372-1.0628-22.059-5.391-22.059-5.9799 0-12.236 3.667-15.748 9.2314-3.9104 6.1945-4.7147 6.4699-8.0693 2.7631-2.1038-2.3247-2.2124-3.3215-0.83477-7.6667 3.1143-9.8231 3.9277-17.487 2.1185-19.961-1.6176-2.2121-1.8437-2.2052-4.4297 0.13515-3.7385 3.3833-6.5507 15.978-4.2001 18.81 1.4201 1.7111 1.3392 2.4913-0.46488 4.4848-1.2012 1.3273-2.184 3.3806-2.184 4.563 0 3.3881-2.5931 4.1202-5.4467 1.5378-2.5066-2.2684-2.9035-2.243-9.839 0.63164-4.0418 1.6752-9.1709 2.8064-11.637 2.5665l-4.4102-0.42893-0.40655 8c-0.48618 9.5674-1.8196 11.415-5.7041 7.9018-2.9758-2.691-2.992-3.6387-0.49034-28.785 0.29043-2.9192-0.0621-6.0148-0.78334-6.8791-0.72127-0.86425-2.5484-3.2214-4.0603-5.238-1.5119-2.0167-3.5617-3.6667-4.5551-3.6667-3.8144 0-13.339 14.57-18.086 27.667-3.3141 9.143-9.2862 2.7635-6.1363-6.5549 2.372-7.0172 1.1312-12.287-3.0359-12.893-2.9376-0.42761-3.0372-0.17063-2.1714 5.6034 0.70053 4.6715 0.36309 6.9021-1.4797 9.7815-3.0389 4.7482-5.806 6.9672-8.7548 7.0209-3.0047 0.0547-10.277-11.436-10.31-16.291-0.0145-2.1122-0.76232-3.6667-1.7638-3.6667-2.5435 0-9.5477 7.8148-12.765 14.243-1.5352 3.0669-3.2958 5.888-3.9124 6.269-2.6456 1.6351-7.2191-1.2101-9.6711-6.0165-1.4484-2.8391-3.2091-5.1621-3.9126-5.1621s-2.5035 2.4-4 5.3333c-2.7756 5.4406-6.0225 6.7775-9.0667 3.7333-0.97095-0.97095-1.6-5.6889-1.6-12 0-6.0444-0.5584-10.4-1.3333-10.4-0.73333 0-1.3593 1.65-1.391 3.6667-0.0719 4.5682-9.2435 22.951-12.421 24.895-1.9128 1.1706-2.9812 0.71081-5.7492-2.4744-3.342-3.8456-3.391-4.2126-2.8841-21.561 0.28365-9.7069 0.0717-17.374-0.47105-17.039-1.9862 1.2275-6.0029 17.519-5.3747 21.8 0.45939 3.1301 0.036 4.7495-1.4608 5.5871-1.1592 0.64874-3.4498 3.5674-5.09 6.4859s-3.6218 5.2972-4.4035 5.2859c-3.1306-0.0449-5.4298-2.7596-5.5878-6.5976-0.0917-2.2268-0.24167-4.8844-0.33333-5.906-0.29838-3.325-4.0114-3.4344-7.8193-0.23038-5.1978 4.3737-17.48 5.2191-21.606 1.4872l-2.8751-2.6005-4.9331 5.5079c-5.6739 6.335-9.7746 8.0289-12.241 5.0565-2.6163-3.1524-3.6273-2.494-6.0958 3.9699-1.7902 4.6876-2.9566 6-5.3325 6-3.9826 0-4.3547-1.4053-3.5686-13.478 0.73993-11.364-0.14814-12.851-5.8892-9.8562-2.093 1.0916-4.5081 1.9884-5.3668 1.9929-2.1631 0.012-13.419 11.464-14.446 14.697-0.94747 2.9852-3.3475 3.4228-5.7262 1.0441-1.9051-1.905-2.1225-7.253-0.33966-8.3549 1.9578-1.21 13.816-39.44 13.952-44.979 0.14416-5.8807 2.0204-8.1178 6.3005-7.5123 2.9049 0.411 3.1196 0.971 2.7203 7.0969-0.23842 3.6579-1.1112 7.4673-1.9395 8.4654-0.82832 0.99808-2.8071 5.8053-4.3974 10.683-1.5902 4.8774-3.3316 9.918-3.8698 11.201-1.2285 2.9295 1.2285 3.0531 6.4592 0.32512 2.1005-1.0955 5.2803-1.9918 7.0662-1.9918 4.3558 0 11.074 3.5937 11.281 6.0342 0.0917 1.0812 0.31667 2.5658 0.5 3.2991s0.40833 1.7744 0.5 2.3136c0.0917 0.53914 1.4322-1.4109 2.9788-4.3333 1.5467-2.9225 3.7397-6.3636 4.8733-7.6469 2.5609-2.8991 9.3333-3.0313 12.415-0.24226 1.9486 1.7635 2.7491 1.8172 5.1096 0.34305 3.6788-2.2975 7.3034-0.1164 7.8825 4.7434 0.39885 3.3471 0.73914 3.5178 5.3333 2.6763 2.699-0.49437 6.0908-1.7137 7.5373-2.7097 2.9873-2.0568 9.7678-2.3621 12.604-0.56737 3.4028 2.1536 10.26-4.4731 12.027-11.623 2.1187-8.5707 9.4006-22.857 12.495-24.513 3.2916-1.7616 5.2946 0.19873 5.2585 5.1466-0.0151 2.0603-0.67217 12.423-1.4603 23.029-0.78814 10.605-1.1639 19.552-0.83512 19.88 1.4205 1.4205 5.8186-5.8043 6.6446-10.915 0.49611-3.0696 2.1552-8.2811 3.6869-11.581 2.6972-5.8112 2.801-5.882 3.2973-2.2502 0.42533 3.1126 0.84256 3.4758 2.4553 2.1373 1.4678-1.2182 2.7484-1.2455 5.2368-0.11173 2.796 1.2739 3.2938 2.412 3.2938 7.5294 0 5.9077 1.6283 7.991 3.1488 4.0286 0.43354-1.1298 2.4193-2 4.5638-2 3.0702 0 4.3978 1.0702 6.9413 5.5957 2.8812 5.1264 3.2652 5.3786 4.5788 3.0075 0.78864-1.4235 4.7339-6.0209 8.7672-10.216l7.3333-7.6282 15.503 0.15836c12.621 0.12893 16.087 0.59901 18.645 2.5285 3.1213 2.3544 3.1866 2.3242 9.8301-4.5542 3.6784-3.8084 8.4348-8.3471 10.57-10.086 3.6404-2.9651 4.0943-3.0328 7.2982-1.0888 4.4856 2.7217 5.1046 4.9511 1.6271 5.8605-3.2739 0.85613-3.4981 2.7307-0.75975 6.3514 1.1998 1.5864 2.4133 2.1046 3.1222 1.3333 1.3582-1.4777 5.4971-21.697 5.4971-26.854v-3.5387l3.4345 3.2266c2.5679 2.4124 3.2372 4.0691 2.6526 6.5658-5.2153 22.273-6.8361 30.673-5.9189 30.673 0.60345 0 4.7224-3.5472 9.1532-7.8828 6.8899-6.7418 8.3251-7.6137 9.9153-6.0235 2.8295 2.8295 1.0255 6.888-5.477 12.321-5.8661 4.9013-10.479 10.643-9.4099 11.713 0.30952 0.30952 4.5137-1.2287 9.3427-3.4182 8.5986-3.8988 12.967-7.9387 12.982-12.006 0.0171-4.6796 3.0932-12.592 6.0417-15.54 3.7155-3.7155 9.3415-4.1082 13.829-0.9653 2.9094 2.0378 3.0793 2.8232 2.3349 10.795-0.7246 7.7596-0.57953 8.5112 1.4894 7.7174 11.943-4.5829 20.85-3.3502 23.134 3.2016 1.8549 5.321 3.7889 4.2666 11.696-6.3763 9.5805-12.896 13.921-16.712 17.88-15.718 4.4056 1.1057 6.2059 6.2036 6.4214 18.183 0.23276 12.94-2.2325 25.845-6.2309 32.617-5.718 9.6845-19.062 17.671-25.524 15.276zm10.392-8.2619c11.596-7.7692 16.654-22.738 15.982-47.298-0.22518-8.2354-5.1372-4.643-16.796 12.283-3.5168 5.1059-7.5447 10.215-8.9508 11.354-2.0993 1.6999-2.5757 3.9073-2.663 12.34-0.15108 14.583 3.1158 17.559 12.427 11.32zm-142.57-29.838c2.9294-2.651 3.1925-5.7933 0.48522-5.7933-1.9428 0-4.7136 3.8674-4.7136 6.579 0 2.0237 1.4145 1.7608 4.2284-0.78567zm1278.2 31.963c0.9625-0.38516 2.1125-0.3378 2.5556 0.1052 0.4431 0.44305-0.3445 0.75819-1.75 0.70029-1.5533-0.064-1.8692-0.37992-0.8056-0.80554zm1210.7-44.434c-1.0897-1.5952-5.064-3.5245-9.8293-4.7716-4.4-1.1514-12.293-3.2073-17.541-4.5685-13.467-3.4935-31.993-6.0908-66.459-9.3172-8.8-0.82379-18.25-2.0835-21-2.7993-5.7754-1.5034-7.025-4.6365-1.3334-3.343 2.0167 0.45831 12.367 1.4241 23 2.1462 37.026 2.5144 57.872 5.2319 84.983 11.079l8.316 1.7935 0.618-4.1038c0.3399-2.2571 0.8903-8.9038 1.2231-14.77 0.4036-7.116 2.0176-14.883 4.8485-23.333 3.0016-8.9591 5.1837-19.845 7.4553-37.191 1.7664-13.488 3.8568-28.23 4.6455-32.759 0.7887-4.5289 1.2413-10.593 1.0059-13.476-0.3867-4.7327-1.0104-5.5269-6.4283-8.1862-5.3085-2.6057-8.1727-2.9514-24.853-3-13.406-0.0391-22.566-0.81893-31.703-2.6989-12.96-2.6667-19.204-2.6852-31.859-0.0941-3.805 0.77906-8.718 1.5638-10.918 1.744l-4 0.32747-1.5638 22.286c-0.9678 13.792-2.9682 28.783-5.2489 39.333-2.8083 12.991-3.7053 20.828-3.7696 32.935-0.064 12.185-0.5088 16.029-1.9053 16.496-2.477 0.82728-4.1342-2.1499-4.1587-7.4712-0.013-2.4316-0.5569-5.4316-1.2128-6.6667-1.4763-2.7805 1.262-26.978 4.9315-43.579 3.0865-13.963 4.5757-29.714 4.4238-46.793-0.097-10.917 0.1887-12.398 2.8647-14.841 1.8139-1.656 5.8307-3.0751 10.306-3.641 10.583-1.3381 30.255-1.0319 38 0.59147 3.6667 0.76849 8.1667 1.7082 10 2.0883 1.8334 0.38005 11.733 1.2485 22 1.9299 10.267 0.68141 20.767 1.7753 23.333 2.4308 13.328 3.4038 20 9.1072 20 17.095 0 4.7508-3.7602 29.672-4.7084 31.207-0.3056 0.49458-1.777 10.883-3.2695 23.085-1.8464 15.095-3.7968 25.062-6.1021 31.183-4.5938 12.198-5.5618 17.214-6.6266 34.331-1.0798 17.361-3.1578 21.626-7.4641 15.322zm-1156.7-21.018c-4.8118-3.8977-6.0068-7.5608-4.5406-13.917 1.6578-7.1866 1.6667-7.7196 0.1294-7.7196-0.6903 0-3.8323 3.3-6.9824 7.3333-3.1502 4.0333-6.732 7.3333-7.9598 7.3333-2.0497 0-9.1092-7.0176-9.1565-9.1023-0.013-0.49374-0.5464-1.7281-1.1892-2.7431-0.9328-1.473-2.2416-0.98312-6.4859 2.4276-4.8742 3.9171-6.4933 4.382-19.436 5.5812-10.204 0.94538-14.899 0.89068-16.932-0.19728-1.5471-0.82799-5.9158-2.4097-9.7082-3.5148-3.7924-1.1052-8.8634-3.1494-11.269-4.5426l-4.374-2.5333-5.2863 3.8294c-6.8995 4.998-13.486 6.2295-18.892 3.5325-6.4656-3.2254-13.617-2.5908-21.741 1.9294-9.025 5.0214-15.049 5.1888-20.538 0.57063-2.2416-1.8862-4.8376-5.0186-5.7691-6.961-0.9313-1.9424-3.0392-4.2024-4.6841-5.0223-1.645-0.8199-4.045-2.3749-5.3334-3.4555-1.2884-1.0806-4.8925-3.0685-8.0091-4.4175-3.1167-1.349-5.6667-3.3379-5.6667-4.4198 0-2.7909 13.17-1.4789 15.371 1.5313 2.1933 2.9995 4.6292 2.7253 4.6292-0.52104 0-1.4824 1.573-5.0724 3.4958-7.9778 3.4387-5.1964 3.4587-5.3605 1.2264-10.065-3.1112-6.5565-2.0422-8.5894 4.2136-8.0132 4.8227 0.44416 5.0642 0.69166 5.0642 5.1906 0 4.2885 0.4056 4.8002 4.3969 5.548 3.0176 0.56535 5.212 2.1604 6.9951 5.0848 3.2716 5.3656 3.2648 7.7465-0.041 14.226-3.0665 6.0108-7.2808 9.3683-11.759 9.3683-4.3552 0-3.014 3.2199 1.5664 3.7606 2.1348 0.252 6.0189-0.9787 9.468-3 3.2165-1.885 7.8413-3.4365 10.278-3.4477 5.9202-0.0273 7.1446-0.99098 10.172-8.0064 3.5908-8.3202 6.8521-10.911 13.084-10.395 3.8471 0.31873 5.5601 1.2653 7.0204 3.8792 2.0175 3.6116 1.7124 5.1035-2.1295 10.417-2.252 3.1145-2.2429 3.1663 0.3146 1.7814 1.4485-0.7845 4.3961-3.278 6.55-5.5411 2.1538-2.2631 5.0038-4.1148 6.3333-4.1148 3.7811 0 7.9107 4.8934 7.0497 8.3536-0.7925 3.1848 0.4996 4.0422 12.368 8.2064 6.3028 2.2116 6.2728 2.2292 4.1467-2.4372-1.9147-4.2023 0.1013-9.5979 5.5284-14.798 3.3974-3.255 4.4654-3.557 9.7666-2.7621 4.9879 0.74798 6.223 1.5462 7.6232 4.9269 1.4064 3.3952 1.3224 4.7657-0.5302 8.6507-2.8226 5.9189-2.8362 5.8592 1.3368 5.8592 3.8225 0 13.062-8.7273 15.266-14.42 0.6575-1.6977 1.1953-8.6438 1.1953-15.436v-12.349l3.9104 0.57392c2.1507 0.31565 4.3804 1.5617 4.9551 2.7691 0.5745 1.2074 1.0649 10.093 1.0896 19.746 0.024 9.6527 0.4669 17.975 0.9825 18.493 0.5158 0.51854 4.6252-1.8291 9.1322-5.2171 4.5069-3.3879 9.0924-6.1599 10.19-6.1599 1.0975 0 3.7886 1.2768 5.98 2.8373 3.6471 2.597 3.9538 3.4158 3.6191 9.6667-0.2011 3.7562 0.1053 9.4001 0.6795 12.542 0.7162 3.9146 0.5348 6.3278-0.5764 7.6667-2.0438 2.4626-2.6432 2.4226-6.1391-0.40911zm-158.54-35.753c1.243-1.897 1.9264-3.7825 1.519-4.19-0.9551-0.95504-4.5751 2.0504-6.2586 5.196-2.1069 3.937 2.0836 3.0475 4.7396-1.006zm1012.3 27.327c-1.1803-1.8013-2.229-5.0606-2.3306-7.2431-0.3242-6.9705 1.5426-32.806 3.5019-48.463 2.0281-16.206 1.6757-20.068-2.3573-25.838l-2.5631-3.6667h3.3264c2.7496 0 3.9411 1.3294 6.8713 7.6667 3.2386 7.0039 3.4682 8.5773 2.6554 18.2-0.4894 5.7934-1.3848 11.836-1.9902 13.428-0.6052 1.5919-1.5389 9.0795-2.0748 16.639-1.1176 15.762-0.027 16.847 6.4111 6.3711 4.7035-7.6537 6.3393-15.638 3.2037-15.638-2.3972 0-4.888-3.8978-4.888-7.649 0-1.8794 1.5551-2.847 6.3334-3.9408 11.22-2.5684 20.31-6.3367 21.09-8.7435 0.4162-1.2833 1.8284-2.3333 3.1387-2.3333 2.422 0 9.4381 5.6569 9.4381 7.6098 0 0.58875-3.5466 2.4457-7.8814 4.1266-12.498 4.8462-11.508 8.5147 2.9432 10.904 3.816 0.63096 7.8854 1.5198 9.0433 1.9751 1.3869 0.54549 2.6068-0.21419 3.5764-2.2272 1.1876-2.4658 1.4888-2.596 1.5616-0.6748 0.049 1.3091 1.0716 3.8779 2.2709 5.7083 1.1994 1.8304 1.869 3.6397 1.488 4.0206-0.6876 0.68751-30.177-2.9475-34.69-4.2761-1.7428-0.51304-2.9619 0.6318-4.6888 4.4035-3.7873 8.272-13.604 24.367-17.567 28.803l-3.6758 4.1138zm141.36-10.878c-7.879-28.533-8.0168-37.421-1.0589-68.333 4.4375-19.716 4.6005-23.819 0.8213-20.682-2.4184 2.0071-5.3294 11.528-8.5658 28.015-2.8462 14.5-4.8091 23.059-6.9016 30.095-0.6699 2.2521-1.2179 5.9523-1.2179 8.2228 0 2.2705-1.1977 6.9223-2.6616 10.337-3.2271 7.5284-6.2176 7.6388-9.7741 0.36068-5.3196-10.886-5.1524-34.679 0.5126-72.957 0.8092-5.468 1.273-13.119 1.0306-17.002-0.526-8.4248 1.5074-9.335 4.897-2.1918 2.7371 5.7679 2.0814 19.539-2.1077 44.268-4.3581 25.726-2.8099 52.124 2.0004 34.107 1.1609-4.3482 3.3187-11.806 4.7949-16.573 2.4748-7.9903 8.0312-28.727 10.747-40.108 1.3532-5.6704 8.6294-20.699 10.616-21.927 2.3202-1.434 7.6565 3.0232 8.5636 7.1527 0.9638 4.3889-0.9839 17.442-4.807 32.215-6.8014 26.281-8.2145 45.307-4.5058 60.667 2.3021 9.5343 2.4272 11.333 0.788 11.333-0.6814 0-2.1087-3.15-3.1718-7zm-70.49-10.384c-3.058-1.7842-6.0109-12.112-7.1666-25.065-0.2184-2.4473-1.4244-5.5848-2.68-6.9722-2.1487-2.3743-2.1494-2.5739-0.013-3.3943 4.5351-1.7402 8.2963 1.9696 10.082 9.9438 0.9284 4.1464 2.8104 9.1646 4.1824 11.152 2.7952 4.0483 3.1077 7.2674 1.1941 12.301-1.4149 3.7212-2.2136 4.0116-5.5997 2.036zm152.2-0.65908c-1.1481-1.3834-1.4164-4.453-0.8571-9.8044l0.8143-7.7905-6.9607-1.181c-6.8756-1.1665-6.9658-1.2437-7.3824-6.3143-0.3185-3.8769-0.013-4.8776 1.2688-4.0885 0.9298 0.57465 6.0466 1.2558 11.371 1.5137l9.6801 0.46887 2.6847-5.2625c4.6329-9.0814 10.288-24.499 12.164-33.165 0.9921-4.5833 2.2067-8.3333 2.6989-8.3333 2.5774 0 14.673 21.029 18.713 32.533 6.0085 17.11 6.2704 17.294 23.635 16.597 10.788-0.43301 11.54-0.29016 11.54 2.1904 0 3.2474-4.1157 4.3009-17.667 4.522l-9.6666 0.15775v6.588c0 3.6234-0.6519 6.9908-1.4486 7.4832-0.7966 0.49239-3.3466-0.90848-5.6666-3.113-6.4286-6.1087-18.323-10.958-26.878-10.958-8.1408 0-8.7453 0.59959-12.145 12.047-2.2094 7.4395-3.5302 8.7628-5.8983 5.9093zm44.035-28.244c0-6.0963-11.279-29.708-14.19-29.711-1.6312-1e-3 -3.1427 2.9712-3.1427 6.1808 0 1.0803-1.1378 4.4812-2.5285 7.5576-6.0329 13.346-6.7688 15.694-5.0945 16.253 2.4614 0.82306 7.4226 1.342 16.623 1.7389 7.2432 0.31243 8.3332 0.0483 8.3327-2.0196zm-182.43-21.682c-2.1832-2.1831-5.8343-7.0001-8.1135-10.704-3.4955-5.6809-3.8169-6.8606-2.0536-7.5372 2.5597-0.98229 9.9312 5.7163 9.9312 9.0247 0 1.2732 1.5 4.0976 3.3333 6.2764 6.0495 7.1894 3.5368 9.5748-3.0974 2.9405z" stroke-width="1.3333"/>
</svg>
