<?xml version="1.0" encoding="UTF-8"?>
<svg width="4044" height="2540" version="1.1" viewBox="0 0 4044 2540" xmlns="http://www.w3.org/2000/svg">
 <path d="m1898.1 2425.6c-2.992-5.7858-3.4401-10.976-3.9383-45.61-0.2906-20.211-0.9958-32.406-1.9804-34.246-0.8409-1.5715-1.529-4.6231-1.529-6.7815 0-6.7077 4.508-8.4695 17.223-6.7307 11.391 1.5579 16.44 4.2332 20.025 10.612 3.7932 6.7492 3.0346 11.933-3.4547 23.608-4.07 7.3226-5.6485 8.8746-12.233 12.028l-7.56 3.6204-0.3824 11.444c-0.2103 6.294 0.2837 14.982 1.098 19.305 2.63 13.967 2.4449 15.804-1.6394 16.276-2.8388 0.3277-4.0172-0.4105-5.6285-3.5267zm19.981-67.686c1.5741-5.4148 1.6685-7.5947 0.4448-10.28-1.9346-4.2461-8.5986-7.2896-11.698-5.3425-3.1111 1.9543-3.6836 18.493-0.8731 25.22l2.0824 4.9838 4.0231-3.8542c2.3615-2.2626 4.848-6.6924 6.0207-10.726zm994.21 25.131c-2.5196-3.6311-4.3856-15.58-6.4024-41-1.1888-14.982-1.3807-15.212-12.666-15.176-10.221 0.032-13.236-1.3896-13.236-6.2415 0-4.3232 1.7897-5.0338 12.965-5.1484 10.922-0.112 12.314-1.0824 12.348-8.6124 0.035-7.6405 2.706-14.258 6.7112-16.623 5.1478-3.0408 7.5475-2.758 10.138 1.195 2.1417 3.2687 2.0949 3.5267-1.2789 7.0483-1.926 2.0104-3.9056 5.6736-4.399 8.1404-1.131 5.6552 1.729 8.0851 9.5163 8.0851 5.3487 0 11.523 2.9212 9.8055 4.639-0.4715 0.4714-4.6596 1.3944-9.3071 2.0514-11.123 1.5722-12.317 3.2024-11.216 15.31 0.4668 5.1333 1.3563 15.033 1.9768 22 0.6204 6.9666 1.8168 14.908 2.6586 17.647 2.7858 9.066-2.6498 13.84-7.6135 6.6861zm-567.11-0.6932c-7.234-4.8327-9.496-10.564-8.7155-22.083 1.2498-18.441 8.2795-30.891 17.443-30.891 6.4197 0 10.075 3.811 10.075 10.504 0 6.2636-2.5592 8.7325-8.8667 8.5537-5.6938-0.1613-7.1333 2.7576-7.1333 14.466 0 7.0817 0.4541 8.4699 3.8975 11.913 4.7585 4.7587 7.1162 4.8451 15.543 0.5697 3.6076-1.8302 7.3093-3.3302 8.226-3.3333 4.0248-0.013 0.6001 4.9237-6.8527 9.8793-6.9212 4.6022-17.088 4.7838-23.617 0.4219zm59.19-1.5192c-2.0997-1.7668-5.2525-6.2759-7.0061-10.02-3.1538-6.7332-3.1636-6.8864-0.907-14.045 1.255-3.981 1.9088-8.7235 1.4531-10.539-1.5033-5.9897 3.0949-7.4761 24.29-7.852 14.255-0.2528 19.204 0.1027 20.897 1.4987 3.904 3.2198 2.4254 4.1701-6.4897 4.1701-9.9369 0-11.374 1.3941-8.0547 7.8135 5.1292 9.9186 0.6958 24.793-8.8398 29.657-6.609 3.3716-10.743 3.1875-15.344-0.6833zm12.903-8.0687c4.0933-4.9321 2.6756-19.423-2.0788-21.248-4.5015-1.7273-8.9889 4.5479-8.9889 12.57 0 7.9131 7.0893 13.472 11.068 8.6781zm-467.03 7.5658c-1.1857-1.3102-3.466-5.3443-5.0676-8.9647-2.7476-6.2115-2.8571-7.7497-1.942-27.285 0.5333-11.386 0.8892-25.05 0.7909-30.365-0.1685-9.1049 0.015-9.7516 3.1699-11.189 2.7099-1.2347 3.9949-1.1023 6.7365 0.6941 3.9679 2.5998 4.0702 4.2047 1.2427 19.492-2.76 14.922-2.752 39.54 0.016 50.192 1.1711 4.5058 2.1291 8.5558 2.1291 9 0 1.7824-5.056 0.6573-7.0758-1.5744zm513.26-2.2871c-1.6212-1.6212-1.8776-4.7308-1.3472-16.333 0.519-11.349 0.2331-15.025-1.3733-17.664-5.6177-9.2312-5.6424-9.4137-1.726-12.782 5.3068-4.5647 9.0271-2.3931 13.446 7.849l3.5013 8.1147 7.2355-7.5905c5.978-6.2714 8.0037-7.5871 11.655-7.5703 5.0258 0.023 6.4114 0.7639 9.2736 4.9569 2.973 4.3552 2.1416 36.806-0.96 37.473-5.6 1.205-10.548-10.64-9.0396-21.642 0.6948-5.0688 0.4395-6.2404-1.5242-6.9939-1.2974-0.4978-3.2567-0.3389-4.354 0.3534-3.7395 2.3588-12.176 18.033-13.084 24.308-0.4924 3.4053-1.4931 6.9416-2.2237 7.8582-1.8188 2.282-7.0479 2.0968-9.4806-0.3357zm97.187-0.6185c-2.6956-2.9787-2.9957-8.3919-1.4103-25.438 0.899-9.6648 0.7328-11.72-1.0956-13.548-1.2369-1.237-3.3144-1.8522-4.876-1.4438-4.7154 1.2331-12.844 11.993-19.51 25.826l-6.4328 13.349-4.6673-0.3955c-6.4232-0.5443-7.736-4.5889-5.4398-16.759 1.6172-8.5708 1.5206-11.824-0.666-22.422-0.6045-2.9301-0.2105-4.7575 1.3654-6.3333 2.94-2.94 3.7664-2.8211 8.5889 1.2368 3.2735 2.7544 4.1023 4.4896 4.1023 8.588 0 2.8248 0.5436 5.4721 1.2081 5.8826 0.6644 0.4107 3.6953-2.224 6.7352-5.8549 7.1609-8.5528 12.951-12.068 19.881-12.068 10.535 0 13.443 8.0643 10.905 30.24-0.9418 8.2292-0.9631 13.391-0.065 15.754 0.7347 1.9323 1.3358 4.0743 1.3358 4.7599 0 2.3128-7.567 1.2684-9.9587-1.3744zm47.959-1.2603c-3.8382-1.7093-8.3215-6.2503-10.687-10.824-1.3805-2.6698-3.0593-3.9614-5.1487-3.9614-8.8314 0-14.066-4.6762-12.115-10.823 0.8232-2.5938 1.5294-2.7515 8.6906-1.9414l7.7946 0.8819 5.3134-11.059c7.1958-14.976 11.708-19.725 18.743-19.725 6.466 0 10.752 3.5977 10.721 9-0.035 6.068-9.4592 21.792-16.075 26.82-3.2472 2.4675-6.0954 5.3035-6.3292 6.3021-0.2338 0.9987 1.1547 3.3956 3.0855 5.3266 3.3232 3.323 3.9868 3.4616 12.425 2.5928 5.4299-0.559 13.105-2.7008 19.636-5.4795 11.253-4.7879 13.945-5.4149 13.945-3.248 0 0.7224-6.9538 4.7475-15.453 8.9444-12.955 6.3972-16.78 7.6913-23.667 8.0061-4.5177 0.2066-9.414-0.1589-10.881-0.8121zm-611.33-1.5667c-1.8333-0.751-5.1333-3.0577-7.3333-5.126-2.2-2.0682-5.8-4.5897-8-5.6032-2.7972-1.2885-4.1276-2.9501-4.4244-5.5254-0.3512-3.047 0.2991-3.9872 3.7657-5.4448 3.4564-1.4532 5.1006-3.8167 9.3895-13.497 2.8596-6.4544 6.2636-12.911 7.5644-14.349 4.0171-4.4388 9.6269-6.6518 14.53-5.732 12.543 2.3532 10.733 23.869-3.1586 37.545-3.85 3.7902-7 7.5352-7 8.3221 0 2.3105 4.7473 4.1913 10.579 4.1913 6.5166 0 7.0674 1.9394 1.0876 3.8299-7.3165 2.3131-13.509 2.8191-17 1.3889zm5.4167-23.93c5.5077-2.9477 10.585-18.622 6.032-18.622-3.1701 0-10.115 10.708-10.115 15.596 0 4.83 0.2989 5.0515 4.0833 3.0261zm103.96 21.466c-2.1056-3.9343-1.6875-6.1845 1.9531-10.511 1.8333-2.1788 3.3333-4.5072 3.3333-5.1741s-2.1512-3.2803-4.7804-5.8075c-6.9736-6.7029-8.7112-10.621-7.1328-16.083 1.6147-5.588 4.2049-8.7168 12.388-14.963 7.566-5.7752 10.397-6.0709 14.021-1.4642 3.2011 4.0694 2.3971 7.2482-1.8332 7.2482-4.2244 0-11.329 8.3346-11.329 13.29 0 2.9527 1.3911 5.0043 5.8958 8.6956 9.4622 7.7535 10.757 16.077 3.683 23.681-4.3261 4.6503-13.946 5.2963-16.198 1.0876zm850.53 0.104c-4.3865-3.5519-5.3457-19.816-2.8817-48.858 1.0577-12.467 2.0612-29.014 2.23-36.772 0.1688-7.7578 0.7411-14.808 1.2719-15.667 0.5308-0.8587 2.4157-1.5614 4.1889-1.5614 3.9903 0 7.6639 5.2048 6.7229 9.5255-0.3761 1.7276-0.9925 8.7361-1.3696 15.574-0.3772 6.8383-1.2512 14.638-1.9422 17.333-1.8275 7.1258-1.1999 40.536 0.7737 41.197 0.8857 0.2968 3.8459-4.2885 6.8128-10.553 6.5937-13.922 14.19-22.411 20.052-22.411 7.072 0 8.7112 4.2635 9.7011 25.232 0.9117 19.315 0.6116 20.416-5.3884 19.78-3.7167-0.3941-4.6396-3.0351-6.0616-17.345-0.7503-7.55-1.2923-9-3.3641-9-3.8955 0-9.6463 8.8218-15.645 24-1.8839 4.7666-4.0044 9.4166-4.7124 10.333-1.8754 2.428-6.872 2.0392-10.389-0.8084zm-251.95-3.3433c-3.0942-2.8819-19.991-5.1054-24.852-3.2704-2.222 0.8388-5.006 1.1544-6.1865 0.7013-3.0649-1.1761-11.58-19.413-11.58-24.801 0-10.348 15.724-34.078 24.889-37.563 7.3282-2.7861 15.111 1.8739 15.111 9.048 0 2.745-0.6248 3.0367-6.5035 3.0367-4.2477 0-7.0983 0.7169-8.2188 2.0669-2.7323 3.2923 1.0907 5.905 10.609 7.2504 4.5739 0.6466 9.6575 2.0544 11.297 3.1286 3.1156 2.0414 6.1499 9.9878 6.1499 16.106 0 2.1014 1.3744 4.8494 3.3333 6.6648 1.8334 1.6991 3.3334 3.5131 3.3334 4.031 0 1.5925-12.579 15.384-14.048 15.402-0.7596 0.013-2.2596-0.8015-3.3334-1.8016zm-2.0476-13.61c3.698-3.6981 1.8943-15.709-2.6193-17.441-1.2233-0.4695-3.4923 0.5107-5.48 2.3675-9.5381 8.9096-7.7992 15.574 4.4327 16.987 0.8642 0.1 2.5142-0.7612 3.6666-1.9136zm-624.01 12.803c-1.5264-0.6175-4.3377-2.9795-6.2472-5.2488-1.9094-2.2694-4.1813-4.126-5.0485-4.126s-3.6268 1.8-6.1325 4c-3.3659 2.9553-5.8896 4-9.6628 4-5.4896 0-12.134-4.0976-12.134-7.4832 0-4.064 10.624-22.172 19.663-33.517 3.6621-4.5959 5.3412-5.6667 8.8861-5.6667 6.7802 0 8.5 3.0193 9.1142 16 0.379 8.0101 1.5738 14.07 4.0749 20.667 4.9373 13.022 4.6601 14.277-2.5139 11.375zm-15.685-23.432c1.0797-2.8139-0.7224-4.3329-2.2587-1.9039-1.6323 2.581-1.5995 3.9614 0.095 3.9614 0.7562 0 1.7304-0.9259 2.1646-2.0575zm690.79 22.82c-6.9187-2.4688-16.322-10.476-20.325-17.308-2.2046-3.7619-3.8012-9.2899-4.676-16.19-1.1511-9.0782-1.8626-10.966-5.3266-14.13-5.7676-5.2679-5.0541-8.2625 2.9584-12.417 1.4698-0.7618 3.4747-3.7506 4.4555-6.6416 3.4864-10.276 11.57-17.543 16.243-14.601 3.6149 2.2759 3.5436 5.5064-0.2203 9.9795-3.4777 4.1331-4.5308 9.7096-2.1154 11.202 0.7257 0.4485 4.5997 0.2091 8.6088-0.532 10.03-1.8541 20.738-0.5201 20.738 2.5836 0 2.674-2.576 3.9569-7.9455 3.9569-5.1043 0-23.004 4.055-25.054 5.6756-2.3032 1.8208-2.1304 15.967 0.265 21.7 5.2586 12.586 13.964 19.291 25.046 19.291 6.3526 0 8.3748-0.7103 15.176-5.3301 8.9787-6.0991 9.8467-6.3348 9.8467-2.6738 0 3.5134-8.2241 12.507-13.9 15.2-5.4245 2.5741-16.899 2.6865-23.774 0.233zm-581.52-1.5204c-2.8563-1.0466-6.0872-2.645-7.1799-3.5518-1.0925-0.9068-6.4474-2.0136-11.9-2.4595-8.0899-0.6617-10.486-1.4013-13.028-4.0209-2.4252-2.4999-2.8566-3.8736-1.9498-6.21 1.3497-3.478 2.6636-3.628 9.8538-1.1255 6.7904 2.3633 8.2708 1.6835 9.3646-4.3003 2.0238-11.072 13.746-24.649 22.739-26.336 5.5808-1.047 10.773 1.9163 13.658 7.795 1.5575 3.1741 1.2416 4.1244-3.8279 11.511-3.039 4.4284-7.5529 9.5982-10.031 11.488-6.5659 5.0081-6.0974 8.9255 1.4945 12.494 6.6656 3.1332 7.4857 4.7642 3 5.9663-4.2197 1.1308-6.268 0.9208-12.193-1.2507zm7.7065-29.195c2.6407-4.0301 2.743-6.0469 0.3067-6.0469-1.9004 0-6.1533 5.4968-6.1533 7.953 0 2.5902 3.6885 1.3876 5.8466-1.9061zm857.92 25.183c-6.4985-1.9998-9.5579-5.5304-14.775-17.05l-2.3398-5.166 4.2914-7.5068c8.9446-15.647 20.115-24.064 29.582-22.288 5.7932 1.087 10.406 7.048 10.406 13.447 0 5.0039-7.0893 17.844-12.829 23.236-4.4367 4.1682-4.4487 7.7931-0.029 8.9023 1.8744 0.4704 8.4888 0.5887 14.699 0.2628 13.559-0.7117 14.115 0.9059 1.7901 5.2069-9.9204 3.4619-21.485 3.8208-30.794 0.9556zm11.51-27.527c10.988-12.837 5.3219-22.374-6.1364-10.329-5.7578 6.0528-7.5808 11.022-5.1278 13.977 2.7802 3.35 6.2306 2.2324 11.264-3.6482zm144.72 24.37c-4.6071-1.6206-9.002-4.3998-11.822-7.476-4.0407-4.4076-4.4284-5.5134-3.8849-11.08 0.7366-7.5458 10.424-23.386 17.694-28.93 6.9532-5.3035 10.708-3.6852 16.407 7.0705 3.5685 6.7355 4.1231 8.7984 2.9531 10.985-2.1667 4.0484-5.9703 3.2542-10.307-2.1522-3.3577-4.1853-4.2578-4.6448-6.6222-3.3794-6.5202 3.4894-9.4902 18.966-4.5055 23.477 3.5164 3.1822 11.702 5.9506 17.803 6.0213 8.0164 0.093 26.546-5.1099 30.549-8.5777 5.3316-4.6187 7.4447-10.82 6.7091-19.691-0.613-7.3906-0.5186-7.6586 3.1978-9.0846 3.3022-1.267 4.9723-0.9078 12.13 2.6092 10.86 5.3366 11.357 7.3879 4.9936 20.616-2.6955 5.6027-5.5468 10.187-6.3363 10.187s-3.3828-0.7041-5.7629-1.5648c-3.8983-1.4096-5.3624-1.0937-14.761 3.1852-22.468 10.229-35.523 12.327-48.434 7.7856zm303.55-6.5136c-2.532-2.6428-3.9856-6.046-4.8494-11.353-0.6784-4.168-1.5988-8.1696-2.0454-8.8924-1.6236-2.627-6.882-1.2011-14.684 3.9816-11.789 7.8317-18.623 6.7924-23.862-3.629-1.198-2.3833-2.8023-4.3333-3.5649-4.3333-2.9238 0-7.5019 3.2516-15.29 10.86-12.934 12.634-21.476 11.642-30.014-3.4862-2.2888-4.0556-4.7977-7.3737-5.5754-7.3737-0.7776 0-4.1892 3.0187-7.5812 6.7083-8.4806 9.2245-16.928 14.612-22.921 14.619-6.4248 0.013-13.954-3.2611-16.515-7.1697-2.4456-3.7326-2.8452-13.277-0.7778-18.578 3.664-9.3956-0.6564-11.554-16.536-8.2627-8.1537 1.6903-9.9679 2.6385-14.354 7.5037-3.4106 3.7828-5.9211 8.5327-7.8275 14.809-3.1516 10.376-6.5379 13.322-12.295 10.699-3.7218-1.6958-4.8564-6.1887-4.8564-19.229 0-5.7697-0.7827-10.746-2.0868-13.268-1.897-3.6682-1.8942-4.3293 0.031-7.267 3.6342-5.5464 9.7071-3.998 14.46 3.6869l2.2174 3.5855 5.7068-3.1896c8.0694-4.51 31.968-6.1988 37.925-2.6799 3.7324 2.2048 4.2032 2.2091 8.3283 0.076 5.7113-2.9536 10.161-1.7437 13.455 3.6584 3.1676 5.1953 3.3748 11.308 0.5214 15.382-1.6594 2.3689-3.2152 2.9456-7.2971 2.7048-6.0588-0.3575-7.7225 0.7837-5.7457 3.9416 2.3917 3.8204 12.57 3.7804 16.792-0.067 1.0051-0.9156 6.9737-6.6147 13.264-12.665 15.999-15.389 20.228-15.065 22.247 1.7034 1.1061 9.188 3.343 12.63 8.2085 12.63 3.6007 0 14.729-8.0679 24.353-17.655 4.9752-4.9564 9.9252-9.0116 11-9.0116 1.0746 0 3.1438 1.1899 4.5982 2.6443 2.131 2.1309 2.4915 3.7586 1.8574 8.385-1.0494 7.6559 1.6617 10.306 7.9386 7.7607 2.3246-0.9428 7.994-3.0831 12.599-4.7563 6.6697-2.4234 10.024-4.7701 16.494-11.538l8.1213-8.4957-0.8419-14.185c-0.7272-12.25-0.5524-14.296 1.2818-15 4.6069-1.7678 7.4748-0.5453 14.039 5.9846 9.1398 9.092 15.429 11.801 27.48 11.838 6.1063 0.019 10.112-0.5788 10.98-1.6373 0.7512-0.9167 2.8945-3.5767 4.7629-5.9109 9.6941-12.112 29.976-6.5716 29.976 8.1885 0 5.3945-7.936 10.71-20.951 14.032-9.5493 2.4375-12.161 9.9609-7.1823 20.691 5.458 11.763 15.274 17.698 26.488 16.016 11.286-1.6924 17.961-5.3568 29.473-16.178 6.1101-5.7435 13.073-11.777 15.473-13.408 2.3997-1.6308 4.6634-3.7448 5.0302-4.6977 0.8835-2.2955 15.519-12.327 16.522-11.325 0.4299 0.4299-1.117 1.9363-3.4374 3.3473-2.3204 1.4112-11.238 9.4523-19.817 17.869-8.5789 8.4167-17.698 16.383-20.265 17.703-2.5666 1.3199-7.1129 4.3984-10.103 6.8413-20.49 16.741-43.536 7.5147-51.71-20.702-1.5521-5.358-2.4301-6.3518-6.9469-7.8632-7.2723-2.4333-9.9069-5.2376-9.9069-10.545 0-3.9723-0.6136-4.7844-5-6.6162-2.75-1.1485-6.971-3.8178-9.3798-5.932-4.8846-4.287-6.0101-4.5933-7.9989-2.1772-1.9091 2.3195-3.4109 13.462-2.2904 16.992 0.7849 2.4731 1.5969 2.797 5.2803 2.106 2.9314-0.55 4.856-0.2102 5.8938 1.0402 2.406 2.8992 0.47 5.7561-5.9437 8.7709-3.242 1.524-5.8969 3.2177-5.8997 3.764-0.035 6.7081-4.3486 25.078-6.6483 28.308-3.5505 4.9864-5.2143 5.0279-9.7971 0.2446zm84.651-52.259c5.0227-1.395 6.936-3.8568 5.6343-7.249-1.1988-3.1243-5.6623-3.804-9.3052-1.4171-3.8199 2.5029-5.1537 5.1503-4.0476 8.0329 0.9065 2.3624 1.3595 2.3995 7.7185 0.6332zm-312.74-6.1073c-7.0608-7.8956-7.7475-9.1705-6.6427-12.332 0.9112-2.6079 2.2683-3.6172 5.2083-3.874 5.8871-0.5144 7.2988 1.0545 10.049 11.168 2.3098 8.4942 2.3757 13.847 0.1702 13.845-0.5005-4e-4 -4.4537-3.9634-8.7849-8.8067zm-2504.6-84.652c-0.81895-2.3492-1.489-6.5083-1.489-9.2424 0-2.8698-0.8762-5.6983-2.0728-6.6914-4.0719-3.3794-4.7707-6.3805-3.3169-14.245 2.2464-12.152 12.056-23.97 12.056-14.524 0 1.7434 0.97033 3.9753 2.1563 4.9596 1.7781 1.4757 1.964 3.0828 1.0596 9.1632-0.60316 4.0556-1.1235 13.374-1.1563 20.707-0.0563 12.573-0.22176 13.356-2.904 13.739-2.167 0.3091-3.1989-0.6115-4.3333-3.8657zm1167.9-36.909c-2.3195-1.8781-3.2551-5.03-4.8227-16.245-2.5697-18.385-2.9654-51.703-0.8368-70.453 1.6459-14.498 1.608-15.197-1-18.513-3.7694-4.7922-3.4076-8.736 1.1076-12.074 7.906-5.8452 21.741-4.9445 36.241 2.3592 10.312 5.1944 12.932 10.196 10.827 20.674-3.5039 17.447-12.947 30.877-24.382 34.675-4.0697 1.3517-8.3877 1.8893-11.095 1.3814-3.367-0.6316-4.63-0.3173-5.2535 1.3076-1.3133 3.4224 0.7568 24.994 2.6841 27.969 1.716 2.6493 4.415 17.696 4.4676 24.908 0.037 5.0441-4.0874 7.1285-7.9369 4.0113zm21.31-71.644c3.9096-3.7458 7.0196-10.71 9.1808-20.558 1.0103-4.603 0.8551-6.756-0.7043-9.7714-2.3838-4.6098-11.095-8.9206-18.11-8.962-5.8493-0.035-7.7641 2.5658-8.1356 11.049-0.2286 5.2239-0.013 5.5887 3.3035 5.5887 5.3416 0 5.6709 1.2441 2.0021 7.562-4.3189 7.4371-5.7796 15.085-3.4233 17.924 2.6041 3.1377 11.267 1.5933 15.886-2.8324zm-1168 15.127c0-0.8539 2.0654-5.9039 4.5898-11.222 2.5244-5.3183 6.4494-14.938 8.7222-21.378 4.2271-11.976 5.9916-15.181 8.359-15.181 3.1139 0-4.7159 23.593-13.806 41.6-3.4812 6.8963-7.8654 10.342-7.8654 6.1807zm1268.1-6.9626c-1.0647-1.2828-1.2619-5.7217-0.6445-14.504 1.0521-14.969 0.5377-17.579-4.7844-24.276-6.7734-8.5231-4.7478-16.248 3.8114-14.536 4.2254 0.8451 7.4851 4.4053 10.528 11.498 1.8833 4.3897 2.2285 4.424 9.4437 0.938 4.2403-2.0487 7.7083-2.6301 13.917-2.3333 10.857 0.519 11.03 3.1658 0.4753 7.2542-12.114 4.6926-16.174 8.465-19.405 18.032-1.5404 4.5613-2.8007 9.8837-2.8007 11.828 0 6.1646-7.0845 10.264-10.541 6.0992zm-48.797-3.6677c-7.7474-6.8021-11.959-15.221-11.905-23.798 0.025-4.0436 0.8273-9.6484 1.7819-12.455 2.7842-8.1865 13.334-12.962 18.689-8.4601 1.1578 0.9734 4.5572 2.4682 7.5546 3.3217 2.9973 0.8536 6.4981 2.7105 7.7796 4.1265 5.4484 6.0204 3.5822 25.548-3.413 35.715-3.6426 5.2946-4.3948 5.733-9.8338 5.733-4.7 0-6.8519-0.8449-10.654-4.1829zm10.953-7.5509c2.3042-1.4643 5.7184-10.177 5.7184-14.593 0-3.8104-3.2123-9.6728-5.3002-9.6728-0.6318 0-3.6457 2.399-6.6974 5.3311-4.7984 4.6103-5.4316 5.8637-4.6834 9.2707 1.002 4.562 5.4887 10.741 7.7778 10.711 0.8634-0.013 2.2965-0.4823 3.1848-1.0468zm233.18 7.5165c-2.1713-3.1-1.7229-5.116 1.1381-5.116 0.9783 0 2.143-0.9491 2.588-2.1091 1.2187-3.1758 0.9123-19.173-0.4825-25.188-1.8732-8.0796-4.0807-9.0893-17.728-8.1095-6.4276 0.4616-12.531 1.1634-13.564 1.5596-2.0959 0.8043-7.4403-3.8962-7.3744-6.4858 0.023-0.9167 0.8684-2.7562 1.8778-4.0878 1.7002-2.2428 2.9495-2.3164 16.958-1.0004 18.144 1.7046 18.456 1.5 18.456-12.115 0-16.384 7.3207-40.744 15.446-51.396 3.7093-4.8631 9.5667-8.4004 13.91-8.4004 3.988 0 11.351 5.9873 13.857 11.268 3.9387 8.3003 1.673 21.047-3.3953 19.102-1.0457-0.4012-2.666-3.713-3.6005-7.3594-3.7003-14.438-8.457-15.958-15.717-5.0235-7.7397 11.657-13.183 40.24-9.9495 52.248 1.5792 5.8646 2.0415 6.126 13.841 7.829 7.9777 1.1513 7.6229 3.9096-0.515 4.0032-12.949 0.1489-11.785-1.749-11.48 18.704l0.2702 18.105-3.7411 3.2282c-4.6295 3.9948-8.1585 4.1073-10.794 0.3441zm233.67-7.8137c-2.7448-1.6026-4.7403-10.433-5.8682-25.969-0.8813-12.14-3.3016-20.667-5.8657-20.667-1.6296 0-1.8452-5.237-0.3147-7.6466 0.5752-0.9057 2.9104-2.0196 5.1892-2.4753 5.1927-1.0385 7.7816 2.4232 9.0656 12.122 1.1044 8.3412 1.9191 11.335 3.0818 11.326 0.5005 0 3.0101-3.3007 5.5768-7.3264 2.5666-4.0258 4.9666-7.3234 5.3333-7.3282 0.3667 0 2.4297-1.5246 4.5845-3.3778 4.727-4.0651 8.7794-5.2212 14.377-4.1018 4.0617 0.8124 9.0384 4.2166 9.0384 6.1827 0 0.5288-3.2567 1.2316-7.2372 1.5617-13.663 1.133-21.97 11.794-25.642 32.906-2.4412 14.038-5.5822 18.143-11.319 14.794zm258.75-4.3418c-11.234-7.5704-13.646-22.774-5.4764-34.523 4.2272-6.0792 12.02-13.88 17.556-17.572 9.914-6.6132 20.542 2.2147 22.863 18.99 1.3322 9.6281-2.2549 19.273-10.213 27.461-9.1119 9.3756-16.642 11.094-24.729 5.6436zm15.343-7.5613c6.9978-4.3249 10.298-11.781 9.835-22.218-0.4925-11.094-2.4966-12.973-9.7212-9.1112-8.1036 4.3315-16.674 13.366-16.672 17.575 0 5.2304 4.0756 12.691 7.9978 14.651 4.2019 2.0996 3.6138 2.161 8.5602-0.8959zm-79.242 0.9341c-4.4035-2.2341-6.7392-4.6265-9.1488-9.3713-2.9602-5.8287-3.0939-6.8507-1.5704-12 4.7466-16.043 22.232-35.608 31.836-35.624 4.7615-0.013 10.898 6.897 10.898 12.262 0 6.1825-3.2419 10.399-7.9951 10.399-3.4795 0-3.8832-0.4741-4.2577-5-0.8275-9.9973-7.8422-6.4136-16.558 8.4597-6.2002 10.58-3.8916 20.014 5.9149 24.173 4.1859 1.7749 6.2504 1.8417 14.23 0.4598 5.1333-0.889 11.295-1.9538 13.694-2.3664 3.6302-0.6244 4.2218-0.3898 3.5344 1.4019-1.3758 3.5848-8.7356 7.1492-18.004 8.7192-12.459 2.1104-15.882 1.8809-22.572-1.5135zm-242.1-1.6522c-3.0215-4.6115-4.18-15.983-2.496-24.5 1.1093-5.6103 2.4053-7.9739 6.0117-10.964 2.5287-2.0966 5.9353-3.8282 7.5705-3.8479 5.221-0.063 13.266 3.9647 14.846 7.4325 2.1804 4.7856 1.8487 13.886-0.6757 18.532-1.1955 2.2-3.0302 5.639-4.0771 7.642-1.9132 3.6606-11.743 9.0247-16.538 9.0247-1.3565 0-3.4449-1.4935-4.641-3.3189zm14.746-12.615c1.1188-2.1636 2.0342-5.5035 2.0342-7.422 0-3.0099-0.4968-3.4303-3.6246-3.0662-4.5696 0.5319-7.8016 5.8804-6.555 10.848 1.2302 4.9016 5.5228 4.7122 8.1454-0.3594zm-109.35 13.182c-2.2275-0.6479-5.7898-2.9937-7.9162-5.2131-4.3572-4.548-9.033-5.2056-11.625-1.635-5.03 6.9298-12.604 8.7384-17.228 4.114-2.3336-2.3336-2.7209-4.0044-2.2485-9.7008 0.4765-5.746 2.0399-9.1312 9.474-20.514 8.0044-12.256 9.3053-13.632 12.884-13.632 6.2373 0 8.5388 4.6462 7.3548 14.848-0.8629 7.4357-0.6819 8.4466 1.8565 10.362 1.5471 1.1676 4.7748 5.1218 7.1728 8.7873 3.6798 5.6247 5.2412 6.8503 10.009 7.8561 6.176 1.3028 7.0387 2.642 3.0702 4.7659-3.0196 1.6161-7.1587 1.6037-12.804-0.037zm43.986-3.4431c-1.7984-1.9404-3.2697-4.1078-3.2697-4.8165s-2.8043-7.2501-6.2316-14.537l-6.2316-13.248 2.9264-2.9265c2.7318-2.7318 3.1672-2.7912 6.5473-0.894 1.9915 1.1177 4.138 3.8137 4.77 5.991 1.7139 5.9051 4.0349 10.351 5.6895 10.898 0.8084 0.2672 2.7732-2.3848 4.3661-5.8931 7.2525-15.974 10.897-18.33 18.07-11.682 4.3502 4.0317 3.9133 6.3982-1.3498 7.312-5.2086 0.9042-10.821 11.23-12.009 22.094-1.2562 11.486-6.7936 14.699-13.278 7.7025zm405.98-1.953c-0.8689-1.6236-1.1614-5.1494-0.6916-8.3334 2.2054-14.941 2.3115-23.168 0.3828-29.663-2.3814-8.0194-1.1657-11.19 4.2908-11.19 4.8042 0 6.488 2.093 7.941 9.8704 0.6425 3.439 1.5217 6.6064 1.9538 7.0384 0.4322 0.4321 2.3687-0.3455 4.3034-1.7282 9.2646-6.621 13.456-8.4708 19.232-8.487 11.582-0.033 18.396 7.2833 16.738 17.973-3.2733 21.108-4.4704 23.525-8.9398 18.053-2.3311-2.8537-2.5628-4.4385-1.784-12.194 1.1441-11.392-0.3347-14.526-6.8552-14.526-4.7631 0-10.887 3.3977-15.567 8.6374-3.0496 3.4143-8.895 15.34-8.9122 18.183-0.02 3.2684-5.212 9.1799-8.063 9.1799-1.3876 0-3.2008-1.2666-4.0292-2.8144zm161.94-0.8895c-5.0542-0.7753-11.428-8.7805-12.16-15.272-0.9212-8.1724 5.7501-21.365 16.869-33.358 7.3756-7.9554 15.368-5.9274 15.023 3.8119-0.2372 6.6912-4.1644 10.333-9.1136 8.4512-1.8548-0.7052-3.9335-0.9353-4.6192-0.5116-2.3476 1.4509-7.8628 13.823-7.8628 17.638 0 4.6901 4.8969 9.6101 9.5649 9.6101 3.468 0 16.564-6.3749 22.282-10.846 3.4779-2.72 6.8202-3.2707 6.8202-1.1237 0 0.7497-2.377 3.9418-5.2822 7.0936-8.5101 9.2324-22.857 15.835-31.521 14.506zm325.49-3.4165c-2.6-3.9682-4.8228-23.58-4.0331-35.584 3.0572-46.479 3.8755-53.821 6.2633-56.209 3.2932-3.2932 5.9526-3.0381 8.4759 0.8128 1.9407 2.9619 1.9307 3.7711-0.1187 9.6667-2.7996 8.054-5.5184 41.579-4.5226 55.768 0.4117 5.8667 1.5929 13.542 2.6248 17.056 1.3666 4.6539 1.4884 7.0076 0.4485 8.6667-2.2749 3.6297-6.7005 3.5445-9.1383-0.176zm-43.696-1.452c-2.7569-0.9839-5.9415-2.5596-7.0768-3.5019-3.7373-3.1017-8.3524-12.483-9.2821-18.868-0.6675-4.5836-2.1339-7.532-5.4379-10.934-2.4881-2.562-4.5239-5.5144-4.5239-6.561 0-3.2538 3.7204-5.2852 8.0823-4.4129 2.9124 0.5825 5.9432-0.1307 10.619-2.5007 9.2325-4.6784 13.493-4.3378 20.07 1.6043 7.1716 6.4791 13.695 19.254 12.533 24.544-1.2352 5.6242-4.8648 7.0216-15.636 6.0206-8.3251-0.7738-9.1631-0.6307-8.7699 1.4966 0.4849 2.6236 10.827 8.2119 15.356 8.2971 4.0368 0.076 5.3228 2.7581 2.3608 4.9239-3.1045 2.2701-11.774 2.2189-18.295-0.108zm13.436-27.785c0.8792-7.6211-11.347-14.955-15.862-9.5153-2.4529 2.9557 0.6094 8.1198 6.7723 11.421 5.9945 3.2104 8.5617 2.6723 9.0897-1.9053zm411.36 24.024c-8.6302-9.6574-12.39-20.163-12.43-34.727-0.017-6.4749 0.518-8.266 3.3036-11.052 2.708-2.708 3.8149-3.062 5.9695-1.9088 4.2456 2.2721 5.5273 5.8464 3.8364 10.697-0.8871 2.5443-1.1603 7.7992-0.6754 12.991 1.2599 13.493 6.756 17.558 12.567 9.2961 1.662-2.3632 5.6942-8.024 8.9603-12.58 3.2661-4.5556 7.8429-11.658 10.171-15.782 4.9444-8.7611 7.0605-9.9806 10.811-6.2303 2.2272 2.2273 2.8941 5.0933 3.5556 15.281 0.6001 9.2428 1.4127 13.138 3.0908 14.816 2.41 2.4093 1.9953 5.2992-1.3139 9.156-3.7946 4.4229-10.963-3.4632-10.963-12.061 0-4.9026-3.3026-7.9852-6.445-6.0159-1.2219 0.7659-5.025 6.1311-8.4511 11.923-11.428 19.317-16.114 22.769-21.987 16.197zm-783.63-5.0038c-2.652-2.9355-4.8219-5.8866-4.8219-6.5579 0-0.6715-2.0691-2.4995-4.5979-4.0624s-4.9828-4.0548-5.4534-5.5376c-1.0174-3.2052 2.3836-7.4995 6.4124-8.0971 1.5121-0.2244 3.9994-2.5506 5.5274-5.1696 6.7683-11.601 8.4816-13.641 14.645-17.436 7.8758-4.8502 13.081-4.4378 18.756 1.4858 2.7586 2.8793 3.9225 5.6474 4.381 10.419 0.5852 6.0909 0.26 6.9448-5.1897 13.624-3.1977 3.9196-8.5141 8.5665-11.814 10.327-8.8782 4.7353-7.2102 7.5528 5.3333 9.0086 9.7851 1.1358 12.278 2.6632 8.7452 5.3587-1.8521 1.4131-6.0739 1.9747-14.845 1.9747h-12.257zm14.798-19.978c0.8912-0.013 3.7412-1.8804 6.3333-4.1564 5.5461-4.8696 6.4197-11.237 2.0804-15.164-2.2365-2.0241-3.2111-2.1429-6.4776-0.7899-4.0989 1.6979-8.7721 7.1895-10.916 12.827-1.8228 4.7941 0.5744 9.1217 4.4733 8.0759 1.5872-0.4258 3.615-0.7823 4.5062-0.7923zm138.8 20.315c-5.8618-6.3068-8.8538-19.314-9.054-39.362-0.064-6.3784-4.5663-7.1965-17.163-3.1188-12.864 4.1644-14.369 4.2484-16.16 0.9016-3.9098-7.3056 1.3672-12.984 10.615-11.422 2.9786 0.5034 8.5484 0.225 12.377-0.6184 3.8286-0.8433 8.2621-1.7981 9.852-2.1217 2.3502-0.4783 3.2732-2.2712 4.9366-9.5903 1.4591-6.4196 3.0416-9.8625 5.517-12.002 4.2278-3.6541 4.8602-3.6838 8.8413-0.4168 2.6652 2.1871 2.8948 2.9536 1.498 5-8.8729 12.999-6.9797 16.36 9.2377 16.399 7.1198 0.017 10.715 1.5161 7.8639 3.2784-0.6921 0.4277-6.1183 1.4649-12.058 2.3049-15.736 2.2255-15.441 1.8093-15.144 21.341 0.1667 10.94 0.9462 18.377 2.3334 22.262 2.2801 6.3868 2.6902 10.832 0.999 10.832-0.5961 0-2.6174-1.65-4.4918-3.6666zm783.43 1.7493c-4.5867-3.2127-13.496-15.799-14.688-20.749-0.6177-2.5667-1.1333-10.367-1.1457-17.333l-0.0227-12.667h-8.6667c-10.212 0-12-0.8812-12-5.9155 0-5.5061 2.5974-6.8945 12.233-6.5388 4.677 0.1727 9.1777-0.1027 10.002-0.6117 0.8238-0.5092 2.2396-4.0776 3.1462-7.9299 3.1526-13.396 8.1822-19.701 13.95-17.487 2.9797 1.1433 3.2006 5.629 0.4496 9.1266-3.7299 4.7416-5.2226 10.7-3.3275 13.281 0.8511 1.1591 4.2473 2.5669 7.5473 3.1285 4.6824 0.797 6 1.5855 6 3.5908 0 2.8664-3.7738 4.3464-11.62 4.557-6.2337 0.1673-7.6249 2.5584-8.658 14.88-1.1577 13.81 2.2865 25.332 9.8271 32.872 6.303 6.3029 6.8706 7.6781 3.6749 8.9044-2.9939 1.1488-3.6296 1.0437-6.7017-1.108zm-214.41-3.3733c-8.3707-4.3143-9.8016-6.2542-10.77-14.602-1.5107-13.016 1.3851-20.092 13.479-32.941 5.6777-6.032 8.8409-7.0154 12.828-3.9881 6.2989 4.7825 8.5821 21.92 3.6288 27.236-1.4952 1.605-3.2218 2.9182-3.8367 2.9182-2.6103 0-4.58-4.5736-4.2999-9.9844 0.1648-3.1843-0.3129-6.1682-1.0616-6.631-2.6678-1.6488-6.5152 1.9955-8.6161 8.1615-2.7233 7.9924-2.6912 11.766 0.1411 16.56 3.5012 5.927 9.6652 8.1977 20.834 7.6748 11.04-0.517 12.927 1.0806 5.6026 4.7425-7.6026 3.8009-21.391 4.2219-27.928 0.8527zm261.22-0.5794c-5.3726-2.3714-8.0792-5.6994-10.046-12.352-1.534-5.1883-1.3664-6.1453 2.5352-14.483 2.2977-4.9101 4.1968-10.21 4.2201-11.778 0.095-6.3972 8.7782-12.85 17.291-12.85 8.31 0 12.386 3.3135 16.018 13.022 8.3299 22.264-10.895 46.883-30.018 38.442zm11.924-7.4345c4.8584-1.8472 11.409-12.682 11.409-18.87 0-16.29-11.846-17.236-20.562-1.6419-5.2911 9.4667-4.4069 16.465 2.5616 20.276 3.2891 1.799 2.5473 1.7724 6.5909 0.2351zm-331.3 3.2516c-0.98-1.1808-1.7965-6.1372-1.9221-11.667-0.1777-7.8242-1.0213-11.28-4.5327-18.564-4.9809-10.334-4.3142-14.382 2.3686-14.382 2.9281 0 4.5684 1.1974 7.3053 5.3333 1.9412 2.9333 4.1609 5.3333 4.9328 5.3333s3.3133-1.4314 5.6477-3.181c7.1486-5.3575 15.219-8.819 20.561-8.819 6.3985 0 11.311 3.255 10.759 7.1288-0.336 2.3575-1.3635 2.9018-5.7425 3.042-2.9334 0.093-6.9424 0.2439-8.9091 0.3334-2.362 0.108-6.096 2.5648-11 7.2393-6.1037 5.8183-7.4243 7.8657-7.4243 11.512 0 4.9589-2.4632 14.527-4.3966 17.078-1.7335 2.2872-5.5902 2.0924-7.6474-0.3863zm205.62 0.3439c-1.0922-1.316-1.196-6.9899-0.3728-20.391 0.6274-10.212 0.958-22.159 0.735-26.55-0.2231-4.3904 0.2233-8.7404 0.992-9.6667 1.7954-2.1634 7.0157-2.1738 8.757-0.017 2.676 3.3139 3.1371 12.27 1.0451 20.301-1.1355 4.3592-2.0732 13.05-2.084 19.312-0.02 11.778-1.7844 17.722-5.4699 18.432-1.1489 0.2214-2.7701-0.4181-3.6024-1.421zm-299.64-2.75c-7.1343-3.2532-11.267-9.4964-11.267-17.02 0-9.0811 6.8832-26.678 12.178-31.133 7.4723-6.2876 16.364-3.0136 21.294 7.8404 3.1108 6.8493 3.1303 9.0661 0.112 12.793-3.4021 4.2016-7.3564 2.5584-9.9924-4.1525-1.7339-4.4139-2.6848-5.3257-5.1836-4.9707-4.0212 0.5715-7.5941 7.9568-7.6772 15.869-0.095 9.0914 3.9263 12.363 16.267 13.232 5.2026 0.3667 9.6786 1.3332 9.9466 2.1478 1.5826 4.8101-17.956 8.9141-25.677 5.3932zm52.898-1.7107c-0.8779-1.9268-1.9288-6.2768-2.3355-9.6667-0.4065-3.39-1.3214-8.0842-2.033-10.432-1.6419-5.4166 0.4468-9.732 4.7102-9.732 5.8422 0 7.4931 3.7447 7.4931 16.996 0 6.6656-0.3641 13.068-0.8093 14.228-1.2583 3.2791-5.2579 2.4853-7.0255-1.394zm-415.84-0.8303c-4.2912-4.5809-5.9207-10.218-4.964-17.173 0.9827-7.1448 4.1563-10.702 11.707-13.12 2.7852-0.8921 6.5078-3.066 8.2728-4.8309 2.4221-2.4223 4.6544-3.2088 9.1061-3.2088 8.8451 0 9.5569 1.5544 9.5587 20.872 8e-4 9.0536-0.3683 16.461-0.8202 16.461-0.452 0-2.3472-1.2-4.2118-2.6666-4.7458-3.7331-6.7934-3.3567-10.879 2-3.0895 4.0504-4.3121 4.6666-9.2592 4.6666-4.1892 0-6.4444-0.795-8.51-3zm415.95-47.933c-2.3059-2.3059-1.9771-4.6896 1.0666-7.7333 3.8199-3.8199 8.6334-3.3948 11.792 1.0414 3.7825 5.312 1.7729 8.2919-5.5918 8.2919-3.1169 0-6.387-0.72-7.267-1.6zm225.97-28.329c-1.5943-1.2084-2.2838-3.1472-2-5.6243 0.3889-3.3969 0.9945-3.8212 5.9728-4.1841 4.6294-0.3373 6.3278 0.288 10.333 3.8048 7.1512 6.2789 6.4057 7.9407-3.54 7.89-4.9708-0.025-9.3149-0.7865-10.766-1.8864zm-3034.2-29.655c-2.4837-8.8557-3.1644-18.475-1.5242-21.54 1.4838-2.7724 5.9692-3.9352 7.237-1.876 0.33862 0.55 0.22404 6.9519-0.25464 14.226-0.94448 14.354-3.0267 17.859-5.4582 9.1896zm118.85-91.349c-0.88-0.88-1.6-2.0534-1.6-2.6075s-1.5-3.2179-3.3333-5.9193c-3.809-5.613-4.2612-10.11-1.2664-12.596 1.6942-1.406 2.3765-1.3753 3.7839 0.1701 2.1601 2.372 7.4825 16.601 7.4825 20.004 0 2.8681-2.6506 3.3641-5.0667 0.948zm-131.38-5.9556c-1.5232-1.5231-0.94625-11.446 1.1111-19.111 2.6935-10.035 2.4932-16.397-0.73986-23.494-1.5069-3.3079-3.0718-8.8249-3.4776-12.26-0.62483-5.2898-0.28901-6.6514 2.1936-8.8948 2.8904-2.612 2.9576-2.6131 4.811-0.079 1.0338 1.4137 1.8796 4.8751 1.8796 7.6917 0 2.8168 0.80538 7.0522 1.7897 9.4119 4.6075 11.046 5.2373 17.644 2.7912 29.244-3.2893 15.598-6.6227 21.227-10.359 17.491zm1047.8-11.803c-8.0666-0.9425-17.667-2.4157-21.333-3.2736-88.805-20.779-111.98-31.304-138.04-62.701-18.444-22.217-29.15-40.12-40.554-67.812-8.216-19.951-10.882-28.755-13.658-45.107-3.0308-17.848-1.4024-31.982 5.578-48.414 10.202-24.016 11.285-26.26 24.58-50.937 7.6109-14.126 9.8121-16.967 23.251-30 12.748-12.364 16.068-14.85 23.511-17.612 7.2036-2.6731 34.803-15.721 44.667-21.116 4.964-2.7155 29.281-9.775 38-11.032 30.161-4.3477 69.614 1.8552 120.67 18.972 8.8 2.9502 19.6 6.4201 24 7.7106 11.34 3.3262 16.399 5.5887 36 16.1 44.446 23.835 88.818 66.293 104.21 99.712 5.5752 12.107 9.7678 30.437 10.431 45.604 1.028 23.51-11.798 60.131-29.396 83.932-17.869 24.167-39.49 42.08-68.13 56.443-27.592 13.838-58.624 23.597-96.446 30.33-8.6826 1.5456-30.408 1.1792-47.333-0.7983zm66-10.595c20.804-4.7849 25.828-6.3248 46.526-14.259 15.288-5.8606 22.846-9.497 41.819-20.12 12.176-6.8168 37.056-30.309 49.16-46.416 8.6633-11.529 11.143-16.143 17.72-32.974 11.362-29.078 12.556-46.028 5.2289-74.277-8.0205-30.924-32.094-60.341-74.994-91.64-25.339-18.487-53.711-31.206-98.899-44.336-9.1085-2.6467-19.218-5.7141-22.466-6.8164-5.4633-1.8543-24.342-5.1493-49.973-8.7223-10.887-1.5177-31.569-0.08-42.581 2.961-4.6877 1.2942-4.9877 1.6717-4.1954 5.2786 1.1325 5.1568-4.3955 10.609-10.757 10.609-2.395 0-8.7573 0.8793-14.138 1.954-17.3 3.4551-24.624 7.0423-33.202 16.263-9.3622 10.063-12.145 15.49-12.925 25.2-0.6695 8.3413-0.7939 8.5833-4.4112 8.5833-3.5088 0-7.9127-2.92-7.9127-5.2465 0-0.581 0.6062-4.252 1.3468-8.158 1.9828-10.455 0.064-11.216-8.0802-3.2039-3.6942 3.6347-9.598 10.808-13.12 15.942-8.2539 12.032-28.992 54.299-32.276 65.786-7.1662 25.058 1.1386 64.092 22.086 103.81 18.938 35.904 40.938 60.3 65.24 72.342 24.123 11.954 85.323 28.146 116 30.692 33.031 2.7414 40.366 2.3739 64.802-3.2464zm-149.61-63.546c-6.7486-2.5228-6.0749-8.9127 1.1682-11.08 4.0574-1.2142 12.184 6.5621 10.189 9.75-1.6304 2.6053-6.4394 3.1685-11.357 1.3301zm235.21-20.1c-3.6961-3.6962 0.3006-10.4 6.2003-10.4 3.9193 0 6.3807 5.2582 4.29 9.1646-1.6957 3.1687-7.8341 3.8915-10.49 1.2354zm-139.71-32.374c-1.0853-4.3241 3.2741-11.885 7.18-12.452 2.6892-0.3906 2.9325 0.1307 2.9325 6.2866 0 5.2717-0.5534 7.0086-2.579 8.0926-4.1759 2.235-6.6476 1.6027-7.5335-1.9269zm161.4-6.9719c-6.7913-9.715-6.8005-11.883-0.06-14.13 5.871-1.9569 7.9627 1.2433 8.5614 13.098 0.3178 6.2942 0 9.9772-0.8722 9.9772-0.7568 0-4.19-4.0256-7.6294-8.9458zm-283.62-16.494c-3.4247-1.9946-3.004-7.731 0.6667-9.0889 4.295-1.5889 9 0.9079 9 4.7761 0 2.157-1.0799 3.5628-3.4202 4.4527-4.0228 1.5295-3.3549 1.5444-6.2465-0.1399zm-9.46-56.998c-1.2137-1.3411-2.2067-3.75-2.2067-5.3529 0-4.0303 7.325-8.3732 13.333-7.9055 4.1878 0.326 4.7092 0.8027 5.0806 4.6451 0.3651 3.7768-0.1266 4.5076-4.1705 6.1973-2.5216 1.0535-4.9932 2.5767-5.4927 3.3849-1.3496 2.1836-4.0533 1.7834-6.5441-0.9689zm155.13-14.895c-3.888-3.888-3.3552-7.5754 1.4537-10.062 5.276-2.7283 7.3943-1.8492 8.5828 3.5618 0.784 3.5696 0.4225 4.7772-2.022 6.7568-3.7704 3.053-4.736 3.0222-8.0145-0.2564zm85.364-12.12c-7.3579-9.3083-7.0986-15.94 0.5482-14.021 3.06 0.768 6.5878 8.0102 8.3492 17.141 1.1447 5.9331-2.8484 4.533-8.8974-3.1197zm-248.31-10.899c-6.4069-2.5871-6.0918-9.2256 0.5479-11.54 4.9371-1.7211 8.7101 0 9.8371 4.4924 1.911 7.6137-2.153 10.372-10.385 7.0479zm88.586-29.034c-4.2181-1.6941-5.088-4.9264-2.5034-9.3019 1.2098-2.048 2.1997-5.596 2.1997-7.8842 0-5.3944-2.9389-6.5252-21.291-8.1924-17.584-1.5974-24.172-3.1191-26.34-6.0839-2.4744-3.3839-2.1352-4.9067 1.9642-8.8167 2.9072-2.7729 6.7044-4.0973 18.333-6.3942 19.202-3.793 19.333-3.8738 19.333-11.913 0-4.931 0.7657-7.4357 3.1048-10.155 4.3807-5.0928 8.5292-3.6547 15.492 5.3702 4.4269 5.7383 6.9907 7.737 12.101 9.4344 10.897 3.6195 13.302 6.3027 13.302 14.841 0 4.0284-0.5895 8.4256-1.3099 9.7717-1.6016 2.9926 0.5268 10.101 4.2632 14.238 1.6176 1.7912 2.4212 4.2842 2.1487 6.6667-0.3717 3.2496-1.0981 3.8687-4.9729 4.2385-2.9071 0.2775-5.7819-0.4736-8-2.09-1.9043-1.3877-4.4951-2.9072-5.7572-3.3764-2.6944-1.002-6.3719 2.1887-6.3719 5.5286 0 1.2676-0.72 3.0248-1.6 3.9048-1.8584 1.8584-9.7056 1.9776-14.096 0.2141zm-3.9102-35.162c-0.1503-2.077-0.6167-4.1198-1.0363-4.5396-2.22-2.2198-20.734 1.885-21.71 4.8134-0.4129 1.2388 16.452 4.2257 21.02 3.7229 1.3301-0.1464 1.9085-1.4849 1.7268-3.9967zm-889.18 222.72c-1.0008-2.6078 0.36275-4.8413 2.9556-4.8413 1.309 0 1.8649 1.0136 1.588 2.8956-0.51736 3.516-3.4578 4.7752-4.5435 1.9457zm-91.756-29.969c-0.38336-0.6204-1.0951-5.9012-1.5816-11.735-0.74891-8.98-0.53716-10.955 1.3802-12.872 2.9844-2.9843 5.6587-2.8661 7.3668 0.3255 1.6339 3.053-0.48424 20.829-2.8169 23.64-1.6839 2.0289-3.3402 2.2734-4.3485 0.642zm78.003-36.405c-4.4397-12.736 1.0292-29.134 9.716-29.134 4.9665 0 5.5933 4.2059 1.6338 10.963-1.8384 3.1371-3.7557 8.4039-4.2608 11.704-1.6817 10.987-4.5889 13.64-7.089 6.4677zm2059.2-21.351c-4.4-0.5028-14.3-1.27-22-1.7048-28.804-1.6264-39.788-4.0636-48.598-10.783-6.2028-4.7311-7.8732-10.42-6.7668-23.047 0.5172-5.9034 0.1619-17.598-0.8381-27.582-2.0276-20.244-1.9933-49.91 0.087-75.333 0.81-9.9 2.0604-37.2 2.7785-60.667s1.6307-48.113 2.028-54.77c0.6437-10.786 0.4279-12.477-1.9844-15.544-6.4489-8.1985-1.8489-12.142 11.757-10.079 10.124 1.5349 12.537 1.0338 20.277-4.21 8.2514-5.5908 14.735-5.2556 21.081 1.09 2.6286 2.6286 8.3904 3.9826 38.846 9.1285 24.85 4.1988 55.284 5.1465 61.111 1.9029 2.4976-1.3901 4.4695-1.4133 10-0.1173 3.7889 0.8879 7.6389 2.2092 8.5556 2.9363 2.3955 1.9001 2.0529 6.0837-0.7945 9.7037-2.2583 2.8711-2.32 3.8772-0.7491 12.21 5.3828 28.55 6.1009 52.387 2.4959 82.838-1.1011 9.3004-2.5888 22.91-3.306 30.243-2.0827 21.294-5.0602 43.555-10.641 79.557-0.758 4.8897-1.7648 17.392-2.2374 27.782-0.6622 14.556-1.36 19.509-3.0407 21.585-2.0275 2.5037-4.0101 2.7267-28.121 3.1612-14.267 0.2571-29.539 0.9503-33.939 1.5403s-11.6 0.6613-16 0.1585zm34.052-12.482c0.4879-0.3015 7.8233-0.6499 16.301-0.7742 8.478-0.124 16.034-0.6089 16.791-1.0769 1.9245-1.1893 3.9363-10.941 6.9011-33.45 1.4006-10.633 3.1518-23.319 3.8918-28.191 1.2988-8.5525 4.2671-33.66 6.7554-57.142 0.6605-6.2333 2.1238-19.733 3.2518-30 3.7196-33.856 2.2728-70.302-3.2938-82.975-3.5414-8.0618-13.225-14.153-20.756-13.056-9.6708 1.4085-20.091 1.018-31.113-1.1664-5.9296-1.1751-15.448-3.058-21.151-4.1843-10.855-2.1436-29.756-2.7038-40.758-1.2084-4.7668 0.648-7.8052 0.2727-11.582-1.4305-4.1129-1.8547-7.052-2.1281-14.936-1.3893-5.3985 0.5058-10.487 1.3346-11.307 1.8416-1.0746 0.6642-1.1497 5.0173-0.2684 15.578 1.0872 13.029-0.6558 95.636-2.0662 97.918-0.265 0.4288-0.8891 16.37-1.3868 35.426-0.7422 28.407-0.5227 37.15 1.2185 48.548 1.1681 7.6458 2.1237 17.057 2.1237 20.913 0 9.45 3.565 25.828 6.2734 28.821 2.2208 2.4538 11.093 5.5141 21.851 7.537 5.6595 1.0642 71.45 0.5812 73.261-0.5378zm-0.9712-130.23c-2.9564-3.7755-6.0205-21.45-7.2356-41.734-1.644-27.445-1.6839-26.333 1.0169-28.308 3.0268-2.2132 3.61-2.1507 7.2224 0.7744 2.9343 2.376 2.9948 2.8333 1.6468 12.44-1.4634 10.43-0.2405 32.451 1.9224 34.614 0.6895 0.6895 3.3292-6.4796 6.3218-17.168 4.8258-17.237 11.744-34.528 14.647-36.609 1.739-1.2467 4.7113 1.3811 4.7113 4.1651 0 2.159-5.6291 18.334-9.7847 28.116-2.7496 6.4723-7.5996 26.98-8.6658 36.642l-0.8828 8-4.7808 0.4008c-2.7802 0.2331-5.3491-0.3249-6.1387-1.3333zm-36.435-5.1073c-0.8533-1.5946-1.3572-9.3295-1.2261-18.826 0.1705-12.364-0.2019-16.386-1.5984-17.263-2.0979-1.3175-6.5403-0.3072-8.4875 1.9303-0.7333 0.8425-3.8851 3.782-7.0039 6.532-8.0933 7.1362-13.672 6.6673-19.391-1.63-5.5698-8.0812 0.1386-29.323 11.038-41.076 8.0166-8.644 13.909-8.3304 18.666 0.9933 3.5752 7.0078 4.9362 7.5558 8.6948 3.5002 1.7841-1.9251 4.663-3.4543 6.503-3.4543 4.1262 0 7.9227 3.6256 6.812 6.5052-2.6945 6.9861-7.3197 35.466-7.3197 45.072 0 3.7215 0.8504 7.7044 1.9576 9.1683 2.6508 3.5045 2.5239 6.4059-0.3959 9.0481-3.2864 2.9742-6.4945 2.7798-8.2497-0.4998zm-17.803-39.388c4.9156-5.212 5.8263-11.01 3.0019-19.112-2.3963-6.874-6.3254-5.14-11.511 5.0803-4.5396 8.9465-5.4229 14.504-2.7333 17.193 2.8077 2.8077 6.6252 1.7342 11.242-3.1616zm-2100.9 165.9c-1.6309-3.0473-0.97415-13.945 0.95376-15.826 0.63289-0.6177 2.7514-1.5181 4.7078-2.0011 7.3447-1.813 7.8166 9.897 0.71291 17.689-3.4004 3.73-4.4401 3.7525-6.3745 0.1381zm45.891-29.14c-1.3001-2.2009-3.434-4.3413-4.742-4.7565-3.2434-1.0293-3.0989-7.5095 0.23477-10.526 3.43-3.1041 8.4478-1.8373 10.492 2.6488 0.85905 1.8853 1.5619 6.3997 1.5619 10.032 0 5.6509-0.37392 6.6039-2.5913 6.6039-1.4655 0-3.6183-1.7386-4.9552-4.0018zm-48.945 1.7326c-2.7956-2.7955 3.3352-15.815 15.256-32.398 12.807-17.815 14.727-24.942 7.5688-28.093-2.9763-1.31-4.791-3.3234-5.7949-6.4293-0.82124-2.5408-2.9717-5.3131-4.9084-6.3279-4.5459-2.3818-5.5711-6.1072-3.032-11.017 1.1378-2.2001 2.0687-5.4892 2.0687-7.3089v-3.3084l-16.157-0.035c-23.523-0.051-30.286-2.5505-45.167-16.697-14.397-13.687-15.592-15.202-16.716-21.194-1.1958-6.3741 0.79041-9.5608 13.498-21.656 5.4314-5.17 9.8754-10.099 9.8754-10.953 0-3.1093-5.243-4.5509-11.751-3.2309-6.8447 1.3883-15.963 0.6993-18.582-1.4039-2.3522-1.8892-2.0693-7.0857 0.52704-9.682 1.7682-1.7682 3.5138-1.9968 9-1.1784 3.7435 0.5584 12.563 1.0528 19.599 1.0986 16.684 0.108 17.664 0.8589 16.515 12.647-1.0475 10.74-1.7539 13.436-3.5204 13.436-2.2614 0-7.3902 4.5918-12.865 11.518-8.9251 11.291-8.8978 11.066-2.4196 19.969 6.5212 8.962 13.955 14.417 22.62 16.599 7.819 1.9688 32.166 1.1656 34.465-1.137 1.9362-1.9392 1.9332-18.207-0.0169-91.616-0.64287-24.2-0.91275-44.704-0.59974-45.564 1.0673-2.9323 4.8782-3.2391 8.2969-0.668 3.8022 2.8596 3.8144 3.0568 1.5504 24.898-2.5747 24.839-0.12933 105.92 3.2799 108.75 2.2136 1.8372 16.933-2.0868 19.651-5.2388 1.4119-1.6372 2.2468-10.589 3.3741-36.176 0.82387-18.7 2.2256-48.197 3.115-65.55 1.3305-25.959 1.3056-31.924-0.14015-33.667-2.287-2.7556-15.303-2.8072-36.759-0.1456-14.107 1.75-16.237 1.7466-18.949-0.031-3.2574-2.1343-3.7543-4.1062-1.8092-7.1796 0.96708-1.5283 6.0548-1.9395 25.691-2.0766 13.467-0.095 25.215-0.622 26.107-1.1732 0.89181-0.5512 1.6215-2.3737 1.6215-4.0501s1.2024-4.1363 2.6721-5.4663c4.4395-4.0176 9.5023-0.37 12.499 9.005 0.47311 1.4804 2.1014 2.337 4.4542 2.3434 2.0397 0 7.6085 1.2011 12.375 2.6566 9.5916 2.9286 18.024 3.4514 19.414 1.2033 0.4974-0.8048 1.1072-33.955 1.3552-73.667 0.24798-39.712 1.0041-82.403 1.6804-94.87 2.888-53.241 6.4297-84.379 10.181-89.509 1.6326-2.2327 1.8798-2.233 5.2795-0.01 4.8189 3.1575 5.5673 5.7504 3.085 10.689-3.174 6.315-3.6381 8.8828-6.4149 35.493-6.1772 59.196-6.9951 77.793-6.0111 136.67 1.0782 64.509 1.3018 69.05 3.817 77.493 2.5015 8.3973 0.95692 12.498-5.3937 14.319-3.4368 0.9856-5.4541 0.6617-9.9831-1.6027-8.4617-4.2308-22.98-9.5972-28.299-10.46-7.8162-1.2684-8.7063 0.5055-8.7384 17.414-0.0155 8.1603-0.90636 27.437-1.9798 42.837-2.1688 31.116-2.5843 69.667-0.78147 72.514 2.2467 3.5476 7.6137 0.611 10.636-5.8196 1.5508-3.2991 2.8196-6.559 2.8196-7.244 0-0.6851 1.5533-3.0916 3.4518-5.3479 2.3817-2.8304 4.6412-4.1023 7.2881-4.1023 2.1099 0 5.8746-0.972 8.366-2.1601 3.9331-1.8755 5.0367-1.9181 8.3786-0.3235 5.8905 2.8108 5.6972 7.416-0.64839 15.444-2.9156 3.6887-8.7611 9.0316-12.99 11.873-8.6715 5.8272-10.388 8.5002-5.4582 8.5002 1.8022 0 5.8277 0.9 8.9454 2 3.1177 1.1 7.0932 2 8.8343 2 3.6651 0 9.0137 4.7552 7.714 6.8581-0.60675 0.9817-7.0807 1.1275-20.729 0.4664-23.456-1.1359-24.287-0.8281-23.045 8.5336 0.68785 5.1852 0.37477 6.5625-1.9751 8.6891-2.71 2.4525-2.9502 2.4561-8.1297 0.12-6.514-2.9374-12.031-2.9172-16.576 0.06-4.4852 2.9388-4.3226 4.032 0.86894 5.8417 12.129 4.2283 15.046 13.996 7.2386 24.238-2.4562 3.2221-5.4067 7.6584-6.5566 9.8584-1.1498 2.2-5.6246 8.2-9.9439 13.333-4.3193 5.1334-9.8149 12.787-12.212 17.008-4.1927 7.3813-8.2087 11.16-9.9792 9.3896zm36.876-93.262c5.3678-0.8871 8.1714-4.1367 6.7545-7.8291-0.69982-1.8236-1.9473-2.056-6.9952-1.3029-11.344 1.6923-17.385 5.6437-13.921 9.1071 1.1099 1.11 7.5279 1.1212 14.162 0.025zm737.62 51.531c-13.084-3.9006-47.867-9.6206-72.864-11.983-12.676-1.1977-39.184-7.4529-48.851-11.528-16.459-6.9377-26.214-11.797-34.284-17.078-3.6667-2.3995-13.267-8.6287-21.333-13.843-8.0667-5.214-16.767-11.017-19.333-12.895-2.5666-1.8781-8.5666-6.2022-13.333-9.609-20.333-14.533-35.007-25.876-50.102-38.732-5.382-4.5833-10.029-8.3333-10.327-8.3333-0.2978 0-2.2203 2.4226-4.2723 5.3837-4.6883 6.7652-3.493 8.2392 7.3162 9.0211 9.345 0.6758 11.868 2.68 9.61 7.6346-1.3016 2.8567-2.3761 3.2939-8.0953 3.2939-3.627 0-12.057 1.2577-18.734 2.7949-11.28 2.5971-12.372 2.6424-15.427 0.6406-3.1017-2.0323-3.6671-1.9622-9.9851 1.2394-9.178 4.6508-11.236 3.3819-13.247-8.1697-0.8511-4.8875-2.4063-11.35-3.4559-14.362s-1.9409-7.8761-1.9807-10.81c-0.082-6.0693-2.7297-21.061-5.3141-30.093-1.7277-6.0379-1.6793-6.2362 5.3675-22 8.1917-18.325 13.107-25.68 23.521-35.199 10.086-9.2177 14.104-11.086 25.724-11.961l9.9316-0.7478 7.1045-10c3.9075-5.5 7.4564-11.5 7.8863-13.333s3.652-9.3333 7.1602-16.667c3.5082-7.3333 7.6221-16.219 9.142-19.745 1.673-3.882 7.3828-11.32 14.47-18.851 6.4387-6.8414 14.274-15.47 17.41-19.174 3.137-3.704 11.607-10.821 18.821-15.816 7.2148-4.9946 20.66-15.18 29.878-22.635 19.869-16.068 27.271-20.372 57.455-33.405 12.545-5.4169 30.609-13.939 40.142-18.938 19.469-10.209 56.857-27.58 70-32.522 4.7667-1.7926 11.967-4.7651 16-6.6055s15.133-6.7627 24.667-10.938c9.5333-4.1757 25.433-11.206 35.333-15.624 9.9-4.4172 21.9-9.7411 26.667-11.831 9.426-4.1324 43.195-17.385 54.151-21.252 3.75-1.3235 8.85-3.4604 11.333-4.7487 2.4833-1.2884 9.3152-4.2857 15.182-6.6608 10.486-4.2453 28.924-12.352 46-20.226 4.7667-2.1978 10.167-4.4552 12-5.0163 1.8334-0.5611 5.7334-2.2358 8.6667-3.7216 5.4728-2.7719 30.058-12.018 46.667-17.551 5.1333-1.71 12.933-4.7204 17.333-6.6896s12.2-4.9905 17.333-6.7138c5.1334-1.7233 18.633-6.4457 30-10.494 30.622-10.907 111.25-36.826 138.67-44.577 7.7-2.1769 21.5-6.158 30.667-8.8469 24.718-7.2507 33.528-9.7117 52.667-14.713 58.279-15.228 99.294-25.618 108.64-27.522 18.25-3.7171 92.875-29.372 150.69-51.805 9.9-3.8413 20.4-7.7835 23.333-8.7604 23.951-7.9764 43.987-18.805 79.333-42.877 3.3-2.2474 11.4-7.4308 18-11.519 25.213-15.616 52.822-44.763 65.666-69.324 3.2108-6.14 3.61-8.3603 3.6368-20.23 0.035-15.478-3.3957-37.908-6.53-42.691-1.5341-2.3413-3.3727-3.3086-6.2889-3.3086-5.5479 0-13.186-4.4876-16.925-9.9431-1.947-2.8416-5.5784-5.5155-9.977-7.3467-6.407-2.6672-26.23-12.359-29.492-14.419-4.8291-3.0498-36.952-11.896-49.424-13.611-4.4-0.60496-14.511-2.0338-22.468-3.1752-7.9576-1.1414-25.958-2.7733-40-3.6264-29.296-1.7798-181.79-2.2713-224.86-0.72466-52.022 1.8677-68.318 2.2313-101.33 2.2606-17.967 0.016-40.467 0.68255-50 1.4813-11.198 0.93823-87.652 1.5906-216 1.843-204.99 0.40316-223.38 0.66765-257.51 3.7034-11.096 0.98713-31.196 1.908-44.667 2.0463-13.47 0.13835-32.291 0.9204-41.825 1.7379-11.739 1.0066-27.231 1.1156-48 0.33777-38.836-1.4545-127.72-0.95444-151.33 0.85147-9.9 0.75703-25.8 1.9372-35.333 2.6227-18.424 1.3247-79.905 2.0185-130.74 1.4754-18.708-0.19991-41.184 0.4842-57.435 1.7481-14.684 1.1421-34.752 2.0619-44.597 2.0439-16.904-0.0308-30.24 1.1429-43.899 3.8635-3.3 0.65732-14.1 2.4576-24 4.0007-9.9 1.5431-22.2 3.4798-27.333 4.3038-5.1333 0.824-15.333 1.9866-22.667 2.5836-22.854 1.8604-26.205 3.022-35.744 12.391-4.6023 4.5201-9.3263 10.318-10.498 12.885-6.377 13.972-6.8041 15.77-7.9066 33.282-0.62145 9.872-2.0058 22.772-3.0763 28.667-1.0705 5.8947-2.3546 14.918-2.8535 20.051-0.4989 5.1333-1.9382 13.533-3.1985 18.667-2.6306 10.715-2.6129 13.192 0.39021 54.667 3.4403 47.514 8.3226 96.576 10.216 102.67 1.3938 4.4824 3.9662 45.79 3.2382 52-0.25792 2.2-1.1565 9.1-1.9968 15.333-2.1272 15.778-1.3345 69.39 1.202 81.294l0.98594 4.6269 18.62 0.2215c19.551 0.2326 29.279 2.0882 37.62 7.1756 8.942 5.4542 3.1915 15.747-11.529 20.637-8.4258 2.7987-9.4996 4.3762-4.2293 6.2134 4.7198 1.6453 6.4499 6.093 4.0873 10.508-1.2342 2.3062-2.3143 2.7425-5.1134 2.0655-1.9518-0.472-12.849-1.3975-24.215-2.0566s-24.267-1.5553-28.667-1.9916c-6.7461-0.6689-9.8808-0.1518-20 3.2994-17.918 6.1109-25.046 6.5175-35.106 2.0027-8.8484-3.971-16.376-3.9442-22.525 0.08-8.9273 5.8424-16.121 40.674-20.5 99.258-1.5198 20.334-0.83371 29.775 5.5225 76 0.65544 4.7667 1.7847 10.673 2.5094 13.125 3.3694 11.399 8.6566 47.689 7.8979 54.209-0.3312 2.8458-1.2664 4.1144-3.2407 4.3967-2.46 0.3515-2.9458-0.6327-4.2782-8.6667-0.82671-4.9848-1.8661-12.963-2.3097-17.73-0.89372-9.6029-3.0518-22.363-8.3432-49.333-3.3277-16.961-3.5308-20.232-3.5177-56.667 9e-3 -25.087 0.60924-42.178 1.7092-48.667 2.246-13.248 3.9819-29.489 5.009-46.864 0.83485-14.122 0.82087-14.213-2.6608-17.24-6.5739-5.7159-3.9054-9.4394 7.6198-10.632 7.2348-0.7488 9.5991-1.6741 14.464-5.6606 6.6883-5.4806 21.69-12.934 26.036-12.935 1.6242-6e-4 3.5385-1.095 4.254-2.4319 0.73462-1.3727 1.4539-19.221 1.6523-41 0.37003-40.625-0.0519-45.119-7.0015-74.569-2.2699-9.6189-4.1096-33.372-5.8347-75.333-1.356-32.982-2.3076-47.991-3.4238-54-0.68114-3.6667-2.1158-11.167-3.1883-16.667-1.0724-5.5-2.6183-18.4-3.4354-28.667-1.5152-19.04-3.1722-33.718-5.4186-48-0.69207-4.4-1.1478-22.7-1.0127-40.667 0.13507-17.967-0.43733-44.667-1.272-59.333-1.7356-30.498-0.95267-37.742 6.4846-60 6.9132-20.69 11.688-26.314 28.616-33.702 10.316-4.5025 15.547-5.9512 29.293-8.1126 5.1333-0.80712 13.233-2.0974 18-2.8673 4.7667-0.76992 36.867-1.98 71.333-2.6892 34.467-0.70911 67.167-1.8038 72.667-2.4328 5.5-0.62889 14.8-0.86598 20.667-0.52685s19.067-0.31644 29.333-1.4568c31.22-3.4678 46.589-4.8028 80.654-7.0061 17.96-1.1616 33.26-2.5071 34-2.99 1.2336-0.8048 203.15-1.9908 317.35-1.864 48.811 0.0541 111.32 2.0346 136.67 4.3298 7.7 0.6973 48.058 1.2488 89.685 1.2256 41.627-0.0232 76.361 0.37541 77.187 0.88585 0.826 0.51046 28.868 0.71784 62.315 0.46088 115.96-0.89086 141.15-0.4552 193.48 3.3465 26.767 1.9445 52.567 4.0804 57.333 4.7464 8.5137 1.1895 49.306 3.1531 96.667 4.6532 24.223 0.76725 57.884 3.1038 59.55 4.1336 0.8467 0.52326 32.623 2.3001 70.45 3.9393 9.1666 0.39723 20.567 1.2814 25.333 1.9647s14.667 1.2565 22 1.2735c7.3333 0.0171 22.633 0.86827 34 1.8916 11.367 1.0233 26.062 1.9211 32.656 1.9951 6.5938 0.074 15.294 0.71159 19.333 1.4168s13.411 1.2463 20.825 1.2024c7.4143-0.0439 17.914 0.31015 23.333 0.78684 5.4192 0.47671 26.353 1.0998 46.52 1.3846 27.139 0.38329 38.919 1.0587 45.333 2.5992 18.42 4.4237 22.576 4.9771 40.667 5.4156 10.267 0.24884 29.767 1.0958 43.333 1.8822 13.567 0.78636 40.16 1.7252 59.097 2.0863 18.936 0.36112 34.851 0.91712 35.367 1.2356 0.5154 0.31844 6.9219 1.2367 14.237 2.0406 7.315 0.8039 19 2.6096 25.967 4.0126 6.9666 1.4031 17.767 3.5392 24 4.7469 33.466 6.4844 73.096 22.896 101.33 41.965 11.787 7.9601 30.31 27.357 40.77 42.694 4.7512 6.9667 9.7343 14.167 11.074 16 6.3809 8.7355 17.954 27.472 25.53 41.333 4.6094 8.4333 9.7588 17.433 11.443 20 2.4925 3.7982 10.455 20.108 14.32 29.333 0.461 1.1 3.1926 5.9 6.0703 10.667 17.513 29.008 29.413 60.29 31.977 84.057 0.8274 7.6684 2.1738 19.643 2.9921 26.609 0.8181 6.9667 1.9125 18.411 2.4317 25.431 0.5194 7.0206 1.3376 13.401 1.8186 14.18 3.6041 5.8316 7.6054 64.138 6.1681 89.88-1.7979 32.201-4.0288 56.139-5.9496 63.842-1.0057 4.0333-2.7984 13.033-3.9837 20-2.0644 12.133-6.865 30.102-10.686 40-0.9908 2.5666-2.8027 9.4117-4.0263 15.211-1.2236 5.7995-3.424 13.3-4.8897 16.667-1.4658 3.3671-5.5478 14.822-9.0711 25.455s-9.236 25.933-12.695 34c-3.4587 8.0667-8.5501 20.967-11.314 28.667-4.7482 13.227-15.472 36.219-28.498 61.103-7.0335 13.436-14.493 32.386-17.508 44.481-2.5432 10.2-4.7621 13.988-7.2813 12.431-2.7037-1.6711-0.8439-18.486 3.2431-29.321 1.9305-5.1181 9.0077-20.118 15.727-33.333 21.891-43.054 23.13-45.782 29.994-66.028 1.1188-3.3 4.6177-12.3 7.7753-20 13.596-33.153 19.184-48.997 26.1-74 2.2314-8.0667 6.1376-21.567 8.6804-30 10.476-34.744 14.859-64.051 17.25-115.33 0.8944-19.184-1.6731-58.166-5.4007-82-1.8925-12.1-3.763-27.4-4.1568-34-2.2169-37.156-11.15-70.471-26.457-98.667-3.9811-7.3333-11.582-21.733-16.89-32-15.667-30.301-14.839-28.81-29.891-53.815-1.4667-2.4365-4.4667-7.15-6.6667-10.475-2.2-3.3245-5.2-8.3016-6.6667-11.06-1.4666-2.7586-4.9409-8.2335-7.7208-12.167-2.7797-3.933-7.9837-11.651-11.564-17.151-8.7381-13.422-32.015-36.068-44.048-42.855-2.5667-1.4477-8.7552-4.9688-13.752-7.8248-4.9971-2.856-12.197-6.3678-16-7.8039-3.8031-1.4362-11.115-4.5406-16.248-6.8987-10.703-4.9166-26.958-9.4494-47.89-13.354-8.0059-1.4934-15.048-3.0195-15.65-3.3913-1.7795-1.0997-25.855-4.295-43.794-5.8121-9.1667-0.77526-38.267-1.4131-64.667-1.4175-64.454-0.0107-100.43-2.3797-112.42-7.4038-6.8628-2.8751-29.964-4.9369-58.249-5.1988-28.513-0.26397-61.909-1.6374-84.708-3.4838-9.0762-0.73502-23.13-1.5341-31.231-1.7757-8.1005-0.2416-21.028-1.1296-28.728-1.9734s-19.7-1.7216-26.667-1.9507-26.467-1.414-43.333-2.633c-16.867-1.219-40.267-2.8486-52-3.6212-11.733-0.77261-28.833-2.301-38-3.3963-9.1667-1.0954-36.767-2.5608-61.333-3.2566-24.567-0.69576-51.567-1.931-60-2.7451-8.4333-0.81405-18.633-1.7382-22.667-2.0538-4.0334-0.31553-10.333-1.1369-14-1.8254-3.6667-0.68831-18.367-1.8766-32.667-2.6405s-36.8-1.9894-50-2.7234c-13.2-0.734-44.7-1.2203-70-1.0806-115.52 0.63764-301.34-1.104-320-2.9992-16.025-1.6274-108.26-1.9291-292.67-0.9572-114.47 0.60331-129.36 0.93031-154.67 3.3972-15.4 1.5013-32.5 2.7882-38 2.8598-14.01 0.18241-45.904 2.6534-54.667 4.2353-6.1683 1.1136-37.733 2.6663-93.333 4.5912-6.2333 0.2158-23.333 0.51197-38 0.65815-26.848 0.2676-51.165 1.5998-73.333 4.0175-23.905 2.6072-49.064 11.046-56.198 18.849-3.0086 3.2911-9.96 19.354-15.205 35.134-3.2988 9.9253-3.3555 11.652-2.2791 69.333 0.19159 10.267 0.06 27.967-0.29252 39.333-0.48134 15.522-0.082 24.152 1.6043 34.667 2.0247 12.625 4.4183 35.918 4.9237 47.915 0.10613 2.5198 1.1076 11.22 2.2255 19.333 1.1179 8.1135 2.6078 18.952 3.3109 24.085 1.4247 10.402 2.0894 25.239 3.1953 71.333 0.7932 33.06 1.977 45.522 6.0796 64 5.6655 25.518 6.3972 32.202 7.2846 66.549 0.60467 23.402 2.4316 39.373 4.8035 41.991 0.63574 0.7017 5.1616-0.4946 10.82-2.86 5.3498-2.2365 12.727-5.2953 16.394-6.7974 5.9503-2.4375 6.6316-3.1331 6.3404-6.4733-1.6794-19.26-1.8057-62.985-0.22061-76.378 2.5986-21.958 2.0974-50.306-1.2853-72.697-1.551-10.267-2.8278-21.967-2.8373-26-0.00934-4.0333-0.57239-10.933-1.2508-15.333-0.67846-4.4-1.5683-14.086-1.9774-21.525s-1.0267-14.339-1.3725-15.333c-0.34579-0.99468-1.5857-15.609-2.7555-32.475-1.1697-16.867-2.4155-31.867-2.7683-33.333-0.73002-3.0341 0.52458-12.092 5.3119-38.349 1.84-10.092 3.6924-23.592 4.1164-30 1.9821-29.955 3.6319-40.967 7.6993-51.389 4.7662-12.212 7.5028-16.031 14.126-19.713 2.6807-1.4902 7.7142-4.7217 11.186-7.181 7.3591-5.2136 16.022-7.3769 29.421-7.3472 5.2806 0.012 15.301-0.8609 22.268-1.9391 6.9667-1.0782 18.367-2.5685 25.333-3.3117 11.949-1.2748 26.921-3.61 42-6.551 3.6667-0.71514 18.367-1.377 32.667-1.4708 14.3-0.0939 34.1-0.71826 44-1.3877 18.592-1.2572 84.087-1.9822 132-1.4614 27.218 0.2959 69.095-1.5106 90.667-3.9113 18.413-2.0491 111.93-2.8742 130.78-1.1539 23.623 2.1563 43.117 2.2644 64.554 0.35768 10.267-0.91314 27.685-1.7049 38.708-1.7595 11.022-0.0547 41.022-1.2652 66.667-2.6901 42.228-2.3465 64.754-2.5834 238.84-2.5122 105.72 0.0433 192.94-0.37498 193.84-0.92944 0.8971-0.55448 29.002-1.492 62.456-2.0834 33.454-0.59137 80.325-1.6918 104.16-2.4455 103.75-3.2808 136.07-3.5004 213.33-1.4502 53.567 1.4214 60.228 1.8373 72.926 4.5536 4.9908 1.0676 12.967 2.3283 17.724 2.8015 18.002 1.7906 47.449 10.48 61.35 18.104 5.9616 3.2695 19.569 7.8856 23.245 7.8856 1.5555 0 4.2156-0.97193 5.9116-2.1598 4.5844-3.211 14.021-1.7938 18.848 2.8308 6.1636 5.9052 7.4028 10.338 4.7972 17.161-2.1861 5.7242-2.1574 5.9658 2.8012 23.642 4.5131 16.088 5.0114 19.446 5.0239 33.859 0.013 15.828-0.039 16.1-4.8521 25.333-2.6762 5.1333-5.9926 10.533-7.3696 12-1.3771 1.4667-7.0586 8.0667-12.626 14.667-16.794 19.91-34.692 35.457-53.686 46.634-6.2615 3.6846-19.644 11.88-29.739 18.211-27.8 17.436-43.102 24.6-83.688 39.18-35.473 12.743-72.724 26.365-78 28.523-16.136 6.6005-72.692 22.48-124 34.816-25.116 6.0388-36.458 8.9087-55.333 14.002-7.3333 1.9788-16.689 4.3549-20.79 5.2802-4.1015 0.92531-13.702 3.6312-21.333 6.0131-7.6319 2.3819-26.176 7.8186-41.21 12.081s-35.133 10.259-44.667 13.325c-9.5333 3.0656-24.833 7.8509-34 10.634-18.965 5.7579-41.34 13.254-56 18.761-20.811 7.8182-66.188 24.147-70.667 25.429-6.2914 1.801-27.098 9.5561-35.333 13.169-3.6666 1.6088-11.467 4.8818-17.333 7.2733-5.8667 2.3916-18.467 7.7801-28 11.975-9.5333 4.1944-25.133 10.888-34.667 14.875-9.5333 3.9866-21.86 9.3265-27.392 11.866-5.5325 2.54-10.632 4.6149-11.333 4.6109-2.7578-0.015-49.746 19.049-70.608 28.647-5.1333 2.3618-15.333 6.8693-22.667 10.017-7.3333 3.1473-23.533 10.376-36 16.064-12.467 5.6881-30.467 13.784-40 17.992-9.5333 4.2073-21.833 10.068-27.333 13.024-19.449 10.452-55.356 27.782-61.333 29.602-6.326 1.926-30.026 14.267-39.164 20.393-8.1189 5.4427-16.43 12.434-29.502 24.82-2.2 2.0843-8.8 7.1548-14.667 11.268-5.8666 4.1129-13.227 10.186-16.356 13.496-10.131 10.717-25.287 27.728-28.746 32.263-3.6271 4.7554-11.518 22.329-15.591 34.723-1.38 4.199-4.7988 10.799-7.5973 14.667-7.7807 10.753-13.791 21.076-14.501 24.908-0.382 2.0603 0.3218 4.8671 1.7419 6.9473 1.3106 1.9198 4.159 6.0396 6.3297 9.1555 7.4512 10.695 5.3502 28.174-6.6477 55.304-1.8145 4.1028-3.299 8.5176-3.299 9.8106 0 6.2138 49.197 45.466 98.622 78.685 39.989 26.878 57.66 32.735 125.56 41.619 4.8679 0.6369 16.568 2.4641 26 4.0607 22.545 3.8157 33.864 3.8401 42.319 0.091 8.296-3.6782 12.387-3.7148 13.527-0.1213 1.0612 3.3433-1.8204 6.8683-8.0196 9.81-5.8424 2.7724-20.367 2.5016-30.677-0.5719zm-302-124c0-1.7778-0.8889-2.6667-2.6667-2.6667-1.7777 0-2.6666 0.8889-2.6666 2.6667 0 1.7777 0.8889 2.6666 2.6666 2.6666 1.7778 0 2.6667-0.8889 2.6667-2.6666zm29.962-23c3.8084-5.4052 8.7335-23.51 8.8699-32.607 0.1128-7.5209-0.3853-9.4332-3.7018-14.208-2.3948-3.4481-6.2406-6.6711-10.253-8.5925-3.6649-1.755-7.3772-4.7504-8.6492-6.9791-1.2257-2.1475-2.9494-4.1839-3.8306-4.5255-3.8711-1.5002-20.86 16.43-26.17 27.621-4.2331 8.9205-4.1776 12.027 0.2589 14.5 2.2499 1.2544 4.1529 3.5444 4.4041 5.3 0.5196 3.6307 6.4803 7.2542 7.9695 4.8446 0.5164-0.8356-0.2156-4.557-1.6267-8.2696-2.9472-7.7542-3.5658-17.939-0.822-13.534 3.6057 5.7881 6.1109 7.4124 10.178 6.5989 7.1467-1.4293 10.344 0.3362 14.08 7.7732l3.4676 6.904-2.7353 3.6998c-3.4373 4.6492-3.4323 6.562 0.028 10.961 3.3838 4.3018 5.7623 4.4449 8.5324 0.5132zm-481.78-331.88c7.4297-2.2259 6.3416-3.8095-2.512-3.656-9.0948 0.1577-13.934 1.3347-14.679 3.5705-0.71254 2.1376 10.161 2.1917 17.191 0.085zm37.103-9.9785c5.6695-1.1339 6.3358-3.5206 2.9021-10.396-1.5675-3.1386-2.85-6.3698-2.85-7.1803s-1.05-2.0296-2.3333-2.7089c-1.7312-0.9165-6.7582 0.7056-19.482 6.2864-9.4317 4.1369-17.232 8.1216-17.333 8.855-0.10174 0.7333 5.8151 2.3204 13.148 3.5268 15.325 2.5212 19.977 2.8111 25.948 1.6169zm37.385-8.528c10.137-3.2053 17.311-7.6955 17.324-10.842 0.0155-3.7672-11.428-6.6144-26.583-6.6144-7.3594 0-13.987 0.3745-14.727 0.8323-1.5486 0.9571-1.8518 18.377-0.34671 19.926 1.5118 1.5559 14.576-0.2171 24.333-3.3024zm1102.7 470.87c-2.4944-0.688-3.4352-1.9531-3.7381-5.0261-0.4643-4.7096 2.2316-6.0818 9.6-4.886 4.7252 0.7668 20.204-4.9739 31.864-11.818 3.5156-2.0635 6.715-3.7517 7.1098-3.7517 3.3002 0 57.482-33.66 68.645-42.646 4.114-3.3115 10.663-8.4208 14.554-11.354 36.628-27.615 123.89-117.1 134.58-138 6.9492-13.59 29.66-22.224 52.128-19.817 10.908 1.1688 38.27 10.325 49.565 16.586 2.0029 1.1103 10.044 4.3938 17.869 7.2966 8.6772 3.2191 16.483 7.1264 20.01 10.016 3.1802 2.6059 9.5444 6.444 14.143 8.529 4.5982 2.0849 12.701 7.4261 18.006 11.869 5.3713 4.4987 11.877 8.6796 14.682 9.435 3.3886 0.9124 5.8306 2.6998 7.4622 5.462 1.4526 2.4589 3.3071 3.9358 4.6239 3.6822 3.5551-0.6846 3.3896-4.9626-0.3252-8.4053-6.6239-6.1389-3.4653-13.772 7.1595-17.3 7.3161-2.43 14.728-9.6403 14.728-14.327 0-3.7343 6.3652-10.36 9.9528-10.36 3.0924 0 6.6205-2.1935 12.351-7.6792 2.0995-2.0098 8.7517-8.3826 14.783-14.162s12.874-12.918 15.208-15.864c22.242-28.083 54.835-59.797 68.633-66.781 4.9901-2.526 11.188-6.0407 13.774-7.8105 14.328-9.8074 37.207-18.374 67.299-25.198 10.13-2.2973 15.014-2.617 31.333-2.0512 34.549 1.1979 49.395 3.022 60.993 7.4947 5.7597 2.2212 12.509 5.5414 14.999 7.3781 2.4896 1.8368 4.9465 3.3396 5.4596 3.3396 1.2793 0 19.767 12.589 34.802 23.699 12.015 8.8783 26.645 23.32 34.747 34.301 5.1728 7.0107 9.9765 17.801 13.059 29.333 1.3721 5.1334 4.0961 13.233 6.0533 18 3.3545 8.1699 3.5489 9.8271 3.3904 28.911-0.2003 24.107-1.0721 27.434-7.0348 26.84-7.6723-0.7633-7.8171-2.7713-2.1675-30.055 1.3356-6.4507 1.0838-8.0918-3.3777-22-2.6516-8.2662-6.0739-19.314-7.6049-24.551-3.5944-12.294-9.4814-21.938-21.235-34.79-13.297-14.539-34.115-31.224-47.417-38.002-2.9333-1.4947-7.0677-4.168-9.1876-5.9406-4.9123-4.1076-18.43-10.253-26.914-12.237-3.6106-0.8441-11.965-1.8412-18.565-2.2158s-14.1-0.9393-16.667-1.2549c-29.013-3.5678-64.741 4.5934-99.333 22.69-14.32 7.4913-31.28 19.185-38.667 26.66-3.6667 3.7104-13.267 12.502-21.333 19.536-8.0666 7.0343-17.132 15.404-20.145 18.6-3.0131 3.1955-6.522 6.6388-7.7977 7.6517-2.1746 1.7266-2.1199 2.0266 0.8741 4.8028 1.7565 1.6287 4.3128 6.6577 5.6807 11.176l2.487 8.2143-2.9264 3.115c-2.487 2.6473-2.7129 3.6763-1.505 6.8533 1.5346 4.0365-0.063 24.354-2.9812 37.927-1.3775 6.4052-2.7895 8.5223-11.958 17.927-7.9028 8.107-10.396 11.55-10.396 14.357 0 2.1709-1.5886 5.5021-3.8544 8.0828-7.1763 8.1733-25.899 35.002-28.461 40.782-4.1747 9.4202-10.935 9.1904-11.109-0.3774-0.061-3.371-0.985-5.702-2.844-7.18-5.0828-4.0407-5.8492-7.2171-3.6278-15.035 1.1182-3.9346 2.5026-9.3001 3.0767-11.923 1.6449-7.5168 2.4053-8.1039 9.9028-7.6467l6.8237 0.4162 0.9696-5.3334c1.3786-7.5822 1.3416-21.708-0.059-22.573-2.1671-1.3393-4.1727 2.8039-4.7643 9.8423-0.9021 10.731-4.3689 13.05-12.91 8.6328-4.6161-2.3871-5.1868-2.0791-7.0968 3.8296-1.2045 3.7268-1.9721 4.2686-6.0464 4.2686-4.264 0-4.9542-0.5738-8-6.6497-2.413-4.8139-4.9065-7.5151-9.0317-9.784-3.134-1.7239-7.034-5.0667-8.6667-7.4285-4.8289-6.9858-20.137-19.636-25.862-21.372-1.5916-0.4827-5.1471-2.9415-7.9011-5.4642-2.7541-2.5226-8.652-6.3785-13.106-8.5688-27.524-13.533-70.042-29.399-78.786-29.399-7.3394 0-18.083 2.7442-26.781 6.8407-6.8612 3.2314-9.7832 5.8416-18.667 16.675-24.283 29.613-92.767 97.688-121.88 121.15-4.5494 3.6667-11.416 9.5167-15.258 13-3.8426 3.4834-7.5286 6.3362-8.191 6.3398-0.6625 0-3.5004 2.1148-6.3062 4.6918-5.0484 4.6366-28.187 20.635-29.844 20.635-0.4724 0-3.9029 2.0323-7.6232 4.516-18.484 12.34-37.453 23.246-51.637 29.685-15.789 7.1685-17.666 7.6374-23.794 5.9469zm487.85-118.32c-2.1166-2.5503-3.8532-2.2703-3.8532 0.6213 0 3.3952 1.423 4.4744 3.5604 2.7004 1.3642-1.1321 1.4358-1.9445 0.2928-3.3217zm38.613-50.628c7.9818-6.8322 9.9307-12.186 9.1059-25.013-0.3708-5.7664-1.312-11.122-2.0917-11.902-1.8612-1.8612-6.4252 2.2082-8.7696 7.8192-1.2067 2.8879-3.3926 4.8168-7.172 6.3291-6.9564 2.7835-9.146 6.2829-10.273 16.418-0.7945 7.1472-0.5952 8.3629 1.5788 9.6261 5.1745 3.0065 11.697 1.7932 17.621-3.2777zm-30.466-25.862c0-0.7333-0.6-1.3333-1.3333-1.3333s-1.3333 0.6-1.3333 1.3333c0 0.7334 0.6 1.3334 1.3333 1.3334s1.3333-0.6 1.3333-1.3334zm22.102-18.95c7.5187-4.7682 10.664-8.3253 11.973-13.543 0.6005-2.3926 0.3483-3.5075-0.7936-3.5075-3.1639 0-22.59 17.472-22.609 20.333-0.015 2.2178 5.0481 0.7637 11.429-3.283zm-720.73 103.44c-3.7191-3.1293-4.1252-4.1712-3.7691-9.6667 0.3264-5.0353 0.8643-6.1593 2.9471-6.1593 1.6689 0 3.0485 1.4616 4 4.2376 1.9341 5.6436 2.7118 6.2373 6.8205 5.2061 5.282-1.3257 8.4925-10.017 9.9881-27.039 0.821-9.344 0.8014-14.78-0.056-15.638-0.8642-0.8643-3.7736-0.1094-8.489 2.2037-11.027 5.4079-16.27 6.0025-20.219 2.2929-6.422-6.0332-2.8375-16.121 11.408-32.105 7.8639-8.8237 16.327-13.79 20.078-11.783 1.218 0.6518 3.5136 4.205 5.1015 7.8961 1.5879 3.6909 4.3216 7.6509 6.0751 8.7999 4.9157 3.2208 4.9941 5.1721 0.6822 16.966-2.6102 7.1397-4.4786 15.613-5.3576 24.296-1.8408 18.187-1.9873 18.671-7.5128 24.787-8.8081 9.7496-14.966 11.369-21.697 5.7061zm9.3336-56.085c4.3354-2.9707 7.9924-7.0883 9.3034-10.475 1.3475-3.4812 0.1543-9.9418-1.8289-9.903-3.9431 0.077-16.844 15.451-16.844 20.073 0 3.2778 4.8034 3.4346 9.37 0.3057zm-204.81 39.744c-5.3055-3.2352-8.8519-10.829-9.0608-19.4-0.1416-5.8092 0.6684-8.1881 5.5298-16.24 10.235-16.954 13.976-18.35 24.264-9.0563 13.535 12.228 10.359 36.646-5.7825 44.459-7.013 3.395-9.7028 3.4378-14.95 0.238zm15.302-12.865c3.3868-3.8574 4.1348-5.8546 4.1199-11-0.025-8.663-1.074-11.822-4.7179-14.21-4.2769-2.8023-7.2638-1.3505-7.2638 3.5307 0 2.713-1.2795 5.1842-4 7.7256-4.8798 4.5582-5.428 11.298-1.2814 15.748 3.9856 4.2781 8.3323 3.6845 13.143-1.7949zm30.147 0.7226c-2.0704-2.2877-2.2998-4.2801-1.6506-14.333 0.5532-8.5667 0.2445-12.886-1.1588-16.219-3.5772-8.4944 0.4113-11.796 8.929-7.3913 3.8104 1.9705 4.1832 1.9087 8.0362-1.3333 7.3038-6.1458 20.598-3.4447 23.65 4.805 0.8266 2.2348 1.5646 1.9072 6.8889-3.0584 3.2796-3.0588 9.1499-7.968 13.045-10.909 15.145-11.436 23.316-3.9923 22.562 20.555-0.3179 10.35 1.3751 15.09 4.9063 13.735 2.4433-0.9378 5.1434 2.9029 4.1785 5.9433-1.1671 3.6772-6.9268 4.8105-10.973 2.1592-1.8122-1.1875-4.508-4.2148-5.9905-6.7275-3.2152-5.4493-4.9267-5.6762-9.1228-1.2096-5.3176 5.6604-15.237 11.308-19.862 11.308-3.0357 0-5.5259-1.2068-8.3803-4.0611-3.775-3.7751-3.9989-4.5292-3.1794-10.708 0.9648-7.2728-1.6822-13.897-6.1154-15.304-6.2072-1.9701-13.579 9.624-15.271 24.016-1.2681 10.79-5.4676 14.285-10.493 8.732zm58.891-22.263c7.086-7.7404 11.362-18.019 8.6316-20.749-2.2515-2.2515-11.116 4.9196-19.251 15.575-11.398 14.927-2.3465 19.338 10.62 5.1745zm155.3 15.219c-8.8962-2.8447-13.789-15.692-10.542-27.678 1.3304-4.911 11.528-14.999 18.642-18.443 5.6928-2.7557 6.4843-2.8305 10.814-1.0216 11.895 4.9703 9.3724 19.046-5.5551 30.991-4.4163 3.5339-7.7383 6.8964-7.3821 7.4725 0.9009 1.4579 10.656 1.2511 17.713-0.3754 11.978-2.761 12.1 1.9349 0.1885 7.2801-8.249 3.702-16.042 4.2813-23.879 1.7752zm11.776-27.299c4.5833-4.1833 5.924-9.9664 2.4773-10.687-2.8495-0.5956-11.786 8.2993-11.786 11.731 0 3.8287 4.5259 3.3208 9.3086-1.0444zm-104.05 18.544c-3.0259-2.4501-3.0723-2.7908-1.5248-11.189 1.9924-10.813 2.0137-14.354 0.087-14.354-2.3978 0-10.335 9.0975-14.727 16.88-4.2531 7.5362-8.8004 10.132-12.447 7.1051-2.4885-2.0653-2.5092-7.6607-0.075-20.176 1.0496-5.3952 2.2758-12.054 2.725-14.798 0.6315-3.858 1.5632-5.1767 4.109-5.8156 5.3594-1.3452 7.6437 1.6503 6.9292 9.0864-0.6718 6.9919-0.1294 7.5717 3.7436 4.0051 5.2576-4.841 9.2832-6.9534 13.251-6.9534 8.3572 0 13.096 7.3978 9.8871 15.435-0.856 2.144-1.9308 7.4279-2.3884 11.742-0.6276 5.9162-1.5221 8.3002-3.6405 9.7021-2.4675 1.6329-3.1874 1.5517-5.9294-0.6687zm1055-27.84c-0.6589-1.3039-1.9444-8.4249-2.8567-15.824-0.9122-7.3996-2.0664-14.114-2.5646-14.92-0.4983-0.8062-4.1812-1.652-8.1844-1.8795-6.6426-0.3774-7.3944-0.7452-8.6072-4.2099-1.1039-3.1537-0.8959-4.1129 1.229-5.6666 1.4068-1.0287 4.5432-1.8704 6.9696-1.8704 3.3596 0 4.4119-0.5724 4.4119-2.4 0-1.32-0.6508-3.0508-1.4463-3.8462-2.4712-2.4712-0.7942-7.6139 3.0875-9.4685 4.5695-2.1832 8.6995-0.2967 9.6764 4.4199 0.3753 1.8122 0.9984 4.813 1.3847 6.6686 0.5061 2.4318 1.809 3.5952 4.6666 4.1667 5.1952 1.039 5.1768 4.5246-0.049 9.4091l-4.014 3.7515 1.4516 10.786c1.0544 7.8344 1.0483 12.284-0.023 16.26-1.7202 6.3886-3.4518 7.9485-5.1322 4.6233zm229.06-5.3548c-3.458-1.2055-6.6667-4.6668-6.6667-7.1917 0-1.3362 1.5341-3.4346 3.4092-4.6631 3.0644-2.0079 4.5357-2.0585 14.548-0.5011 6.8068 1.0588 14.62 1.3759 20.092 0.8154 10.042-1.029 13.951 0.8649 13.951 6.7598 0 5.0734-4.5873 6.306-17.166 4.6132-5.9302-0.7981-11.544-1.2164-12.474-0.9297-3.4136 1.0517-13.75 1.7745-15.692 1.0972zm-1481.1-60.616c-0.9279-0.9278-1.6-5.3742-1.6-10.584 0-4.9412-0.932-13.002-2.0711-17.914-1.1389-4.9115-1.8889-10.794-1.6666-13.072 0.5568-5.7028 4.6512-6.3405 8.6346-1.3448l3.0188 3.786 4.3755-4.2102c5.1395-4.9453 10.336-6.5567 14.3-4.4347 3.411 1.8255 8.6052 13.083 10.706 23.202 0.8384 4.0384 2.7196 8.862 4.1804 10.719 3.2146 4.0866 1.7284 8.1164-3.3514 9.0875-5.4267 1.0373-7.8107-2.0703-9.4378-12.302-1.3466-8.4685-5.446-17.333-8.0153-17.333-3.2165 0-6.2279 8.5188-7.7765 22-0.7583 6.6-2.0203 12.441-2.8046 12.98-2.1952 1.5081-6.7132 1.1998-8.4925-0.5796zm289.33-7.1684c-4.8232-5.8514-9.7576-15.79-13.465-27.12-4.5791-13.994-1.4574-12.906 6.5329 2.2763 2.9752 5.6533 6.6504 11.766 8.1669 13.584 2.538 3.0427 2.8894 3.1251 4.4164 1.0367 2.5186-3.4443 5.1179-31.314 3.451-37-2.1087-7.1921-1.6936-11.739 1.2134-13.295 6.6543-3.5612 12.863 0.301 11.524 7.1681-0.4418 2.2651-1.3595 10.718-2.0392 18.785-1.4616 17.348-3.4932 30.993-5.3358 35.839-1.0793 2.8389-2.192 3.4944-5.931 3.4944-3.6574 0-5.41-0.9794-8.5332-4.7684zm-1505.3-4.8982c-0.73202-0.9167-1.61-6.2336-1.9512-11.815-0.4687-7.6694-1.6334-12.314-4.7674-19.011-5.3992-11.538-8.1228-24.61-5.4764-26.284 1.0263-0.6491 2.4231-1.0043 3.1041-0.7892 1.3292 0.4198 1.6051 0.9134 5.9055 10.566 3.6569 8.2078 6.8535 8.3997 11.107 0.6667 2.4591-4.4712 3.957-5.7432 7.0999-6.0294 5.2016-0.4736 12.026 3.8203 15.542 9.7782 3.8115 6.4599 7.3268 5.7593 10.446-2.0821 8.9348-22.458 8.6745-21.985 12.317-22.414 4.6292-0.5456 7.0457 3.2857 9.0115 14.288 0.83931 4.6973 2.7477 11.806 4.2408 15.796l2.7148 7.2558 5.8557-0.8781c3.2206-0.4829 5.8557-0.5168 5.8557-0.075 0 0.4416-1.2434 4.6517-2.7632 9.3558-3.0368 9.4001-6.2712 11.895-10.481 8.0854-2.4149-2.1855-3.3416-4.173-10.249-21.981-2.1121-5.4453-4.5987-10.148-5.5258-10.451-3.0502-0.9959-6.0508 9.0457-6.3904 21.386-0.33021 11.998-1.6981 15.632-5.8847 15.632-2.2038 0-5.3124-5.5426-7.478-13.333-1.3035-4.6894-8.1382-14.346-11.382-16.083-3.6543-1.9558-5.9549-0.8626-8.4861 4.0323-3.996 7.7273-4.6619 15.73-1.9844 23.846 3.0135 9.1346 1.8585 12.204-4.592 12.204-2.4511 0-5.0554-0.75-5.7874-1.6666zm1268.6-2.0113c-5.9406-6.5642-0.5092-18.045 16.46-34.792 10.246-10.112 14.695-12.677 19.977-11.517 5.9845 1.3144 14.499 13.493 16.598 23.739 0.5397 2.6361 1.9645 4.1694 4.7894 5.1542 2.6107 0.9101 3.8764 2.1661 3.6084 3.5809-0.655 3.4578-7.0916 3.3306-15.014-0.2967l-7.2581-3.3228-9.9652 7.1501c-16.822 12.07-24.988 14.952-29.194 10.304zm18.708-12.308c4.7808-2.9149 5.0337-3.6853 2.8108-8.5641-1.2359-2.7125-1.9865-3.0934-3.9863-2.0232-3.1248 1.6723-6.9117 8.8869-5.9628 11.36 0.953 2.4836 1.9806 2.3724 7.1383-0.7724zm12.276-18.148c1.3128-1.2483 1.5046-2.2858 0.5914-3.1991-0.9134-0.9133-2.6244-2e-4 -5.2763 2.8155-3.9224 4.1649-3.9228 4.1666-0.5912 3.1991 1.8333-0.5325 4.2076-1.7995 5.2761-2.8155zm-1137.3 20.998c-10.524-5.5925-14.547-17.018-15.972-45.357-0.7496-14.91-1.5265-20.828-2.8521-21.724-1.002-0.6775-5.5524-1.0289-10.112-0.7808-6.5057 0.3539-9.0171 1.1338-11.667 3.6229-1.857 1.7446-3.375 3.5174-3.3733 3.9396 1e-3 0.4222 1.8558 2.8676 4.1202 5.4342 7.3105 8.2863 9.2005 12.262 9.192 19.333-9e-3 7.2624-4.7028 19.054-9.7369 24.46-13.351 14.336-31.081 4.8813-35.366-18.859-1.5329-8.4928-1.4625-9.2865 1.1147-12.563 1.5131-1.9236 3.9096-6.1165 5.3257-9.3177 2.1992-4.9716 3.7004-6.3155 10.294-9.215 9.8296-4.3224 13.72-7.934 13.72-12.738 0-3.9612 4.0495-9.101 7.1705-9.101 1.0104 0 4.0713 0.9335 6.8019 2.0744 2.7306 1.1409 6.8539 1.8909 9.1628 1.6667l4.1981-0.4077 0.37607-15.715c0.36672-15.324 0.45917-15.752 3.7232-17.24 2.8347-1.2916 3.7658-1.1064 6.0819 1.2097 2.5772 2.5771 2.6439 3.3017 1.1577 12.573-0.8674 5.4111-1.3735 11.938-1.1246 14.505 0.4181 4.3121 0.7564 4.6337 4.4525 4.2334 5.3459-0.5791 8.6667-3.813 8.6667-8.4401 0-4.7397 1.6663-4.8191 5.2599-0.2505 4.7485 6.0368 1.4116 11.702-10.1 17.148-3.8997 1.8448-7.7832 4.6488-8.63 6.231-1.0587 1.9781-1.3336 9.1554-0.88021 22.977 0.72145 21.994 2.5887 29.33 8.6847 34.126 4.6054 3.6226 7.1807 3.3227 11.665-1.3583 4.294-4.4819 7.3378-5.1746 7.3246-1.6667-0.0187 4.945-7.94 13.454-12.679 13.619-0.74477 0.026-3.4448-1.0637-6-2.4215zm-48.942-14.87c4.4351-3.4886 8.9642-12.968 8.9579-18.749-7e-3 -5.6471-4.1893-12.784-8.6971-14.838-4.9418-2.2516-9.8155 1.9267-13.66 11.71-3.8969 9.9183-3.1931 17.798 1.951 21.845 4.3284 3.4047 7.1498 3.4125 11.448 0.032zm1229.1 11.159c-2.2879-2.9086-2.7635-5.4039-2.7635-14.499 0-6.3569-0.8426-13.374-2-16.654-2.6768-7.5869-2.5208-10.294 0.6922-12.014 3.277-1.7539 8.9726 0.6294 11.185 4.6803 0.8009 1.4667 1.594 2.9044 1.7623 3.1949 0.1684 0.2906 3.0664-2.016 6.44-5.1257 5.6013-5.1631 6.6168-5.5987 11.694-5.0159 9.6976 1.113 18.859 4.2896 19.323 6.7001 0.3772 1.9592-0.9669 2.2466-10.508 2.2466-10.679 0-11.04 0.1063-15.098 4.4448-4.6784 5.0017-7.2652 12.226-8.8601 24.744-0.5972 4.6874-1.8833 9.0282-2.8583 9.6462-3.1796 2.0158-6.1941 1.2299-9.0089-2.3486zm80.309-1.719c-3.077-1.4151-6.3712-3.8168-7.3207-5.3371-2.2283-3.5679-3.5931-3.4824-9.0848 0.5692-5.5484 4.0935-12.292 4.3745-16 0.6667-3.9023-3.9023-3.3367-6.8867 3.2136-16.958 9.7061-14.924 19.865-22.708 27.458-21.04 7.1893 1.579 7.7458 4.8788 4.5416 26.926-0.7002 4.8172-0.34 6.0672 2.5928 9 1.9181 1.9182 4.931 3.4059 6.8976 3.4059 2.6049 0 3.3793 0.5925 3.0494 2.3333-0.636 3.3559-8.5106 3.5789-15.348 0.4346zm170.65-4.0568c-2.2467-1.3662-5.7255-4.6352-7.7308-7.2642-4.4892-5.8857-8.6203-6.198-18.144-1.3718-3.6995 1.8747-9.6292 3.7523-13.177 4.1725-5.6998 0.6751-6.852 0.3629-9.896-2.6812-1.8948-1.8949-3.432-4.5225-3.4159-5.8391 0.1107-9.0326 19.235-34.916 27.292-36.939 7.7804-1.9527 16.591 9.7773 16.649 22.165 0.023 4.9128 0.8406 7.2442 3.7406 10.667 4.6485 5.4858 10.955 15.238 10.955 16.939 0 2.5372-2.2605 2.5918-6.273 0.1517zm-27.42-16.754c8.0932-3.3816 10.701-16.928 4.0643-21.114-3.0164-1.9028-8.3474 3.1408-13.618 12.884-6.2096 11.479-3.6009 13.727 9.5535 8.2306zm-121.04 15.958c-1.4277-1.7203-1.3388-3.175 0.51-8.3333 2.3423-6.5351 2.7967-16.365 0.9669-20.916-2.534-6.3031 5.436-10 10.899-5.0561 1.7158 1.5528 3.0682 1.8709 4.2513 1 6.9937-5.1489 9.2523-6.2214 13.346-6.3374 2.6325-0.075 5.7071 0.835 7.1083 2.103 4.0529 3.6679 5.8216 13.582 4.4876 25.155-1.376 11.938-1.9371 13.135-6.1555 13.135-4.0299 0-5.1756-3.4273-4.7895-14.328 0.1623-4.5802-0.087-9.5302-0.5532-11-2.2945-7.2293-11.291 1.2617-16.725 15.785-1.5454 4.1307-3.4384 8.2676-4.2065 9.1931-1.9353 2.332-7.0583 2.1071-9.14-0.4013zm-1248.7-9.7557c-2.9641-1.3464-6.3283-3.8832-7.476-5.6374-3.5286-5.393-3.9184-17.939-0.88327-28.433 3.3046-11.426 5.7623-15.286 11.174-17.547 6.4069-2.6769 12.872-0.2674 21.372 7.9651 6.85 6.6347 7.2032 7.3082 7.2032 13.734 0 12.521-7.5027 27.24-15.612 30.628-5.721 2.3904-9.3089 2.2291-15.777-0.709zm14.13-9.533c5.0963-2.7274 9.5849-17.022 6.5089-20.728-2.7971-3.3703-6.2153-2.0413-11.749 4.5683-7.0652 8.4387-8.7465 12.763-6.0216 15.488 2.3553 2.3553 7.5388 2.6648 11.262 0.6722zm46.809-1.0779c-1.9402-1.9402-2.6341-5.4461-3.3304-16.827-0.6977-11.403-1.6105-16.005-4.4142-22.252l-3.5346-7.8761 3.0974-3.297c5.562-5.9205 10.75-2.9682 11.886 6.7639 0.8764 7.5064 2.8492 8.7078 6.813 4.1491 5.9806-6.8783 28.6-13.914 28.6-8.8966 0 1.0891-2.7 3.2637-6 4.8324-8.9324 4.2462-17.895 14.516-20.505 23.496-1.1888 4.0892-2.1614 9.7995-2.1614 12.69 0 3.3974-0.86184 6.0348-2.4383 7.4614-3.1386 2.8404-4.9842 2.7842-8.0125-0.2441zm1260.9-51.874c-5.7734-4.762-7.6745-7.1843-7.7265-9.845-0.124-6.3305 9.7888-6.4348 11.978-0.126 0.6928 1.9962 2.11 5.2209 3.1496 7.1661 1.3719 2.5672 1.4888 3.9377 0.4266 5-2.1026 2.1025-2.8823 1.8838-7.8278-2.1951zm2255-703.79c0.064-1.5533 0.38-1.8692 0.8056-0.80556 0.3852 0.9625 0.3378 2.1125-0.1054 2.5556-0.443 0.44306-0.7582-0.34445-0.7004-1.75zm-2715.3-216.89c-1.9453-3.0635-3.4271-9.584-6.3955-28.143-0.9216-5.7618-2.2948-11.253-3.0516-12.202-2.4251-3.0416-132.02 0.0297-196.71 4.662-9.9 0.70891-28.5 1.6249-41.333 2.0355-12.833 0.41063-31.433 1.0178-41.333 1.3492-60.34 2.0198-103.02 3.0795-129.33 3.2108-47.127 0.2352-64.158 1.4298-98 6.8738-11.098 1.7854-22.818 2.5834-38.256 2.6052-23.187 0.0327-29.536-0.67914-28.694-3.2176 0.33468-1.0097 9.2152-1.8205 26.894-2.4553 14.517-0.52128 34.568-2.132 44.558-3.5794 30.41-4.4059 47.551-5.3182 114.83-6.1117 35.567-0.41949 66.467-0.98868 68.667-1.2648 2.2-0.27617 18.4-0.65812 36-0.84878 33.286-0.3606 81.597-2.3544 142-5.8603 20.441-1.1864 56.97-2.0601 86.667-2.0728 28.233-0.012 52.168-0.55055 53.188-1.1966 1.5079-0.95488 1.6954-4.6306 1.0018-19.646-0.4692-10.159-1.1472-39.472-1.5065-65.138-0.3594-25.667-1.0049-57.183-1.4344-70.037-0.729-21.813-0.6125-23.523 1.749-25.66 3.1109-2.8153 14.258-4.5856 15.564-2.4717 0.5028 0.81354 0.013 4.6342-1.0892 8.4905-1.1019 3.8562-2.9995 13.179-4.2171 20.718-2.8473 17.629-1.9055 24.979 3.8146 29.767 4.1356 3.4616 4.1435 3.4934 2.2679 9.1764-1.0351 3.1365-2.6575 6.4782-3.6053 7.426-4.9514 4.9514-5.5548 13.364-1.5517 21.633 2.6134 5.3986 2.7116 6.5061 1.1895 13.421-0.9125 4.1452-2.1915 9.2684-2.8423 11.385-0.6509 2.1164-0.8079 9.0164-0.349 15.333 0.7467 10.279 1.2219 11.85 4.5254 14.954 3.4495 3.2411 3.6139 3.8816 2.5112 9.7842-0.649 3.4738-1.8775 8.6441-2.73 11.49-3.0631 10.224 0.3419 10.817 41.574 7.2388 41.239-3.5783 96.116-8.659 114.61-10.611 21.056-2.2224 55.888-4.3271 90.81-5.4869 13.645-0.4532 25.546-1.2793 26.447-1.8359 1.2472-0.77082 1.2943-2.2467 0.1978-6.1963-2.955-10.642-1.0866-21.02 7.2102-40.05 1.007-2.3095 2.2512-6.4399 2.765-9.1787l0.9342-4.9796-6.1108 0.91637c-7.4946 1.1239-13.203-1.4402-16.974-7.6238-3.7377-6.1302-3.2971-9.3753 2.9551-21.76 7.5985-15.052 13.949-22.286 19.565-22.286 8.0963 0 15.352 8.3878 19.606 22.666 1.1288 3.7886 2.9244 7.612 3.9902 8.4966 3.189 2.6465 2.2286 4.7631-3.1132 6.8614-4.8396 1.901-5.3446 2.7208-12.058 19.57-3.8536 9.672-6.6452 18.17-6.2035 18.885 0.4416 0.71464 2.5676 1.2993 4.7243 1.2993 4.6521 0 4.6632 0.0489 1.2792 5.6135l-2.6421 4.3447 6.2488 6.3443c3.4369 3.4894 7.4758 8.8988 8.9756 12.021l2.7265 5.6766h20c31.104 0 98.344-1.9152 115.33-3.285 8.4334-0.67998 25.533-1.9002 38-2.7116 21.281-1.3851 35.548-2.4797 94.667-7.2629 13.2-1.068 24.9-1.8234 26-1.6786 1.1 0.14476 10.1-0.47262 20-1.372 55.076-5.0032 120.17-6.7193 172-4.535 19.433 0.81896 68.333 1.7926 108.67 2.1637 70.038 0.64444 100.21 1.7798 126.67 4.7668 6.6 0.74509 21.217 2.1974 32.482 3.2274 23.501 2.1488 29.031 4.1198 8.1849 2.9175-7.7-0.44412-30.5-1.4389-50.667-2.2106-20.167-0.77173-50.467-2.0184-67.333-2.7704s-49.867-1.5668-73.333-1.8107c-23.467-0.24391-54.667-0.95381-69.333-1.5776-33.524-1.4257-87.936-1.4563-116.67-0.0656-12.1 0.5857-31 1.2961-42 1.5787s-23.6 1.1355-28 1.8954-12.2 1.3867-17.333 1.393c-5.1333 7e-3 -14.433 0.6048-20.667 1.33-11.987 1.3945-36.794 3.4932-63.333 5.3581-8.8 0.61836-27.656 2.0791-41.901 3.2461-14.246 1.167-27.746 2.1126-30 2.1014-2.2544-0.0107-15.799 0.57182-30.099 1.2956s-45.362 1.58-69.027 1.9026c-40.619 0.55379-43.277 0.74103-47.491 3.3451-5.5743 3.4451-9.5977 3.4773-17.003 0.13582-5.482-2.4736-8.0474-2.5828-45.146-1.9216-21.633 0.3856-41.754 1.2419-44.713 1.903-2.9589 0.66102-13.459 1.5463-23.333 1.9672-9.8746 0.42096-20.354 1.0836-23.287 1.4726-2.9333 0.38898-11.333 1.2434-18.667 1.8986-20.976 1.8744-50.147 5.2363-51.228 5.904-0.5405 0.3341-9.0355 0.9185-18.878 1.2987-26.312 1.0164-55.596 3.3856-59.313 4.7989-1.7869 0.67937-3.2489 1.8128-3.2489 2.5188 0 3.5545 4.3688 19.439 6.0536 22.01 2.8183 4.3011 4.0168 14.944 1.9619 17.42-2.428 2.9256-6.33 2.4764-8.5258-0.98141zm297.56-69.156c0.2246-1.1856-1.1737-4.0356-3.107-6.3333-6.133-7.2884-10.436-4.4573-6.7246 4.4247 1.7542 4.1981 2.5899 4.8519 5.7383 4.489 2.1-0.24206 3.8607-1.352 4.0933-2.5803zm-9.0861-70.272c3.5705-3.5706 3.7508-4.3284 3.5641-14.982-0.2184-12.453-1.5898-14.13-8.0769-9.8798-3.8015 2.4908-11.453 16.793-11.453 21.407 0 7.6422 9.6832 9.7375 15.966 3.4548zm-875.88 90.896c-3.2547-1.1392-9.5547-2.8097-14-3.7121-7.2029-1.4623-8.1273-2.0181-8.4956-5.1087-0.65779-5.5201 3.1131-6.6046 12.359-3.5543 9.9317 3.2765 11.388 3.2322 11.388-0.3461 0-2.6423-7.2137-16.175-13.516-25.354-4.6523-6.7766-8.0624-17.337-7.1569-22.163 0.97819-5.2142 6.0564-10.896 9.7386-10.896 2.618 0 6.9339 3.8743 6.9339 6.2243 0 0.74121-1.5 2.0311-3.3333 2.8664-7.1754 3.2693-2.1666 17.654 15.094 43.348 8.4549 12.586 9.1089 14.691 5.6405 18.16-3.2273 3.2273-6.6106 3.3511-14.653 0.53628zm33.329-7.8894c-6.9443-6.2738-8.641-11.761-7.5068-24.277 1.0254-11.315 4.5798-21.85 8.9371-26.488 4.425-4.7102 11.75-4.3018 17.778 0.99124 9.1208 8.0082 4.597 17.286-6.0808 12.471-6.4861-2.9248-8.0515-1.7864-11.168 8.1216-2.7172 8.6389-2.0206 14.278 2.4544 19.869 2.4544 3.0663 4.2246 3.9333 8.0309 3.9333 6.1374 0 10.1-3.7629 15.881-15.081 7.8279-15.325 9.3993-6.2264 1.728 10.006-5.4228 11.475-10.005 15.208-18.668 15.208-5.1473 0-6.9628-0.7581-11.386-4.7546zm81.265-4.5601c-0.77947-1.4564-2.6244-9.1064-4.0999-17-3.6773-19.673-5.0516-24.352-7.1521-24.352-2.5181 0-5.8621 9.0415-7.5446 20.399-2.1972 14.832-2.7699 16.211-6.9344 16.692-3.0754 0.35577-3.968-0.29408-5.4941-4-2.1292-5.1705-5.378-22.072-7.5142-39.091-0.82837-6.6-2.3407-15.733-3.3607-20.297-2.0788-9.2997-1.5982-11.866 2.4637-13.155 4.968-1.5768 7.6263 3.5947 7.6263 14.837 0 11.816 2.3813 30.117 4.1557 31.938 1.7213 1.7661 2.9267-0.28677 8.0041-13.632 4.8896-12.851 6.3063-14.424 11.45-12.71 5.8958 1.9653 8.4382 7.9794 9.8549 23.312 1.2973 14.041 2.4479 19.278 6.1631 28.053 1.6766 3.9603 1.8045 5.7099 0.60921 8.3333-1.8282 4.0126-6.246 4.3737-8.2269 0.67253zm35.323-8.575c-13.612-6.0757-17.703-21.607-10.136-38.474 4.7083-10.494 8.5139-14.303 14.29-14.303 3.1178 0 5.1262 1.0194 7.2238 3.6667 2.4988 3.1536 2.7942 4.7481 2.1108 11.395-0.94053 9.1481-2.2342 11.962-8.5261 18.546-3.9825 4.1672-4.454 5.263-3.0124 7 2.6025 3.1358 11.891 2.6726 15.562-0.77592 3.2147-3.02 7.1538-2.6087 7.1538 0.7471 0 3.5324-7.7154 10.914-13.091 12.525-6.3609 1.9058-6.59 1.8993-11.576-0.32625zm3.0886-35.88c0.23204-1.9601-0.19684-3.5638-0.95308-3.5638-1.894 0-4.4517 5.0764-3.4083 6.7646 1.4513 2.3483 3.9188 0.53747 4.3614-3.2008zm41.732 27.257c-1.9231-1.9231-2.7418-5.444-3.4879-15-1.199-15.357-1.3362-16.167-4.1864-24.724-2.6914-8.0801-1.3403-11.096 4.9702-11.096 4.6024 0 6.5503 3.1225 6.5503 10.5 0 7.4114 1.8874 7.8386 5.1125 1.157 3.4164-7.0778 8.0757-12.528 11.568-13.531 1.4744-0.42354 4.7372 0.27476 7.2507 1.5518 3.5699 1.8137 5.051 3.7808 6.7678 8.9885 2.9875 9.0624 6.0661 8.9709 11.05-0.32852 3.8548-7.1931 7.4739-9.3994 12.699-7.7411 3.4268 1.0876 4.2047 3.1062 6.4494 16.736 3.016 18.313 3.0432 18-1.5633 18-3.5522 0-4.418-0.86256-7.7335-7.704-2.1481-4.4326-4.3291-7.3359-5.136-6.8372-2.04 1.2608-5.1304 9.231-5.1304 13.231 0 5.5675-3.6359 11.31-7.1609 11.31-4.8352 0-7.5838-4.3003-9.0854-14.215-3.1098-20.532-7.0855-23.833-13.39-11.119-2.6939 5.4331-3.8634 10.27-4.5132 18.667-0.48238 6.2333-1.4696 12.083-2.1938 13-1.9171 2.4266-5.9498 2.0404-8.8365-0.84628zm113.85-2.6812c-3.3877-1.5682-6.5426-4.476-8.6481-7.9707-3.1038-5.1516-6.904-7.0507-8.6041-4.2998-0.4086 0.66113-2.5874 1.845-4.8418 2.6309-3.6031 1.2561-4.4902 1.0374-7.3357-1.8081-2.1604-2.1603-3.237-4.748-3.237-7.7798 0-9.5605 18.156-41.397 24.518-42.994 4.2677-1.0711 8.4885 0.31396 10.093 3.312 0.7014 1.3106 1.3796 7.6805 1.5072 14.156 0.2081 10.56-0.061 12.01-2.61 14.074-2.2204 1.798-2.8419 3.7717-2.8419 9.0248 0 12.143 4.922 17.516 16.045 17.516 6.1494 0 6.6677 2.182 1.1831 4.9804-4.493 2.2924-8.9962 2.0437-15.228-0.84114zm-8.3338-44.343c-0.3698-1.4144-1.346-2.3489-2.1693-2.0768-2.6161 0.86467-5.3349 7.0454-4.2838 9.7385 0.9169 2.3495 1.225 2.2528 4.0589-1.2738 1.7987-2.2383 2.7887-4.8796 2.3942-6.3878zm59.1 35.871c-4.3639-6.6738-7.544-16.024-8.7886-25.841-0.7225-5.699-1.7632-10.769-2.3125-11.266-0.5493-0.49739-3.3988-1.6527-6.3321-2.5673-6.3755-1.9879-10-4.9006-10-8.0359 0-4.0172 3.5431-5.6731 10.673-4.988 4.0249 0.38675 7.1097 0.058 7.7984-0.83102 0.6267-0.80898 2.165-5.6709 3.4185-10.804 3.1924-13.074 5.0566-15.586 11.191-15.076 3.9334 0.32702 5.0051 1.01 5.3455 3.4067 0.2341 1.6487-0.7241 4.6487-2.1294 6.6667-2.9002 4.1644-5.6297 11.535-5.6297 15.201 0 1.8994 0.998 2.463 4.3333 2.4473 5.4528-0.0257 7.1479-1.1083 8.8836-5.6734 1.6617-4.3707 3.5311-4.6886 4.5546-0.77462 1.0855 4.151-0.3781 10.001-3.1238 12.486-1.3088 1.1844-5.5367 2.9863-9.3955 4.0042-3.8587 1.0179-7.5424 2.6295-8.186 3.5813-1.982 2.9312 0.3383 21.237 3.764 29.696 1.7742 4.381 2.932 8.731 2.5729 9.6667-1.025 2.6712-4.4833 1.9944-6.6366-1.2988zm35.575 0.20421c-1.6453-0.61163-4.2403-3.0828-5.7666-5.4915-2.5036-3.9511-2.7099-5.8139-2.1092-19.046 0.9435-20.784 5.9189-31.004 10.137-20.821 1.2871 3.1073 1.1902 5.2007-0.5049 10.909-1.1537 3.8849-2.0976 10.648-2.0976 15.029 0 6.4422 0.6374 8.8012 3.3333 12.336 1.8333 2.4036 3.3333 4.9461 3.3333 5.6499 0 1.9794-3.0189 2.6648-6.3249 1.4358zm58.04-11.172c-7.1672-1.8198-9.7884-3.6842-12.47-8.8693-3.7679-7.2864-2.2944-12.681 7.1439-26.154 4.219-6.0225 6.9987-8.641 10.054-9.4712 4.9959-1.3574 8.2811-0.01 9.279 3.806 0.5512 2.108-0.4356 3.5272-4.1668 5.9921-6.7331 4.4482-8.6522 6.1422-11.284 9.9602-3.0185 4.3796-2.8665 8.2548 0.4913 12.524 3.3682 4.2821 9.3143 4.6193 21.973 1.2462 4.6791-1.2468 8.8692-1.9052 9.3112-1.4632 1.7055 1.7055-2.9134 6.4397-8.6793 8.8959-10.676 4.5477-14.927 5.2414-21.653 3.5335zm353.2-10.704c-2.7945-1.9442-5.5737-4.8384-6.1757-6.4317-2.434-6.4413 4.9039-10.588 8.0763-4.5634 0.8689 1.65 2.24 3.4408 3.0469 3.9796 2.3187 1.5482 9.4412 1.1797 11.2-0.57959 2.5544-2.5544 1.8565-8.6372-1.4-12.202-3.1952-3.4976-16.574-12.865-18.374-12.865-0.5912 0-2.373-2.1004-3.9597-4.6676-2.8365-4.5897-2.8439-4.7438-0.442-9.2292 4.2431-7.9237 13.68-19.318 17.737-21.416 5.6635-2.9287 8.7995-2.501 12.072 1.6465 2.3285 2.951 2.7421 4.7772 2.119 9.3563-1.2341 9.0709-4.0992 13.321-10.215 15.153-3.72 1.1145-5.158 2.1929-4.6589 3.4936 0.3971 1.0348 0.722 2.0813 0.722 2.3255s3.0252 2.6647 6.7225 5.3788c8.0031 5.8748 13.899 16.094 12.627 21.887-1.4539 6.6195-7.4017 10.883-16.207 11.618-6.8698 0.57308-8.4195 0.2264-12.89-2.8834zm-55.864-5.9797c-18.242-5.4989-22.374-28.635-8.2173-46.013 13.392-16.441 25.258-14.803 31.159 4.3013 2.4481 7.9261 2.5156 9.0671 0.6997 11.838-2.0905 3.1906-6.4214 4.4681-16.696 4.9249-5.3065 0.2359-6.0493-0.0807-6.4268-2.7392-0.431-3.0355 0.1534-3.4614 6.7216-4.8984 4.9256-1.0776 6.712-4.7218 4.8847-9.9641-1.6607-4.7635-6.1304-5.6107-9.4875-1.7982-4.2394 4.8145-9.0253 16.327-9.0253 21.71 0 6.7653 1.6863 10.057 6.3728 12.44 4.7825 2.4318 20.166 5.004 23.944 4.0038 3.5994-0.95273 5.4909 2.531 3.0021 5.5298-1.8281 2.2028-20.315 2.6594-26.931 0.66514zm179.07-7.4461c-2.2424-1.8869-4.6684-5.6369-5.3911-8.3333-2.0297-7.5735-2.9162-35.079-1.1974-37.15 2.0465-2.466 4.7006-2.1793 7.713 0.83312 2.2976 2.2976 2.5016 3.8929 1.8328 14.333-0.5785 9.0311-0.2652 12.909 1.3546 16.767 5.7158 13.615 14.448 3.0152 16.216-19.685 1.2176-15.627 4.9832-20.361 11.228-14.116 2.1313 2.1314 2.4334 3.844 1.8373 10.418-0.7681 8.4706 0.9349 13.528 6.142 18.241 5.6723 5.1334 2.0156 9.1865-5.0103 5.5533-6.1116-3.1604-7.6242-2.6198-9.99 3.5702-3.4806 9.1068-7.9173 13-14.815 13-4.3322 0-6.8984-0.88733-9.9209-3.4307zm73.225-0.53442c-5.904-1.4736-11.455-7.653-13.416-14.936-0.84-3.1196-2.6695-7.124-4.0655-8.8987-3.7804-4.8061-3.1644-7.9209 2.1917-11.081 3.0283-1.7867 5.9578-5.2481 8.1432-9.6217 6.491-12.989 12.924-17.039 18.796-11.831 9.8532 8.7389 4.9786 28.437-8.8004 35.562-5.2931 2.7371-5.7032 7.7257-0.8944 10.877 3.2917 2.1568 9.5808 2.1078 18.359-0.143 3.1127-0.79808 3.6667-0.52744 3.6667 1.7912 0 6.217-13.53 10.889-23.981 8.2811zm5.2609-36.638c1.8069-2.1772 1.4216-6.1453-0.6135-6.3182-0.7333-0.0623-2.0468 1.2859-2.9186 2.996-2.437 4.7795 0.2361 7.2937 3.5321 3.3222zm56.998 33.607c-2.5504-2.3841-3.5163-5.251-4.6788-13.886-1.4639-10.874-3.3018-16.191-8.249-23.861-2.4136-3.7422-2.4589-4.3187-0.5528-7.0401 1.9678-2.8094 2.6894-2.9178 13.824-2.0773 11.539 0.87106 11.787 0.82676 13.961-2.4917 3.0804-4.7013 9.2709-7.1133 13.413-5.226 4.389 1.9998 7.0912 7.7628 8.5848 18.309 0.692 4.8868 1.5685 9.1955 1.9478 9.5748 1.5731 1.573 5.0514-1.2378 6.8455-5.5319 3.3953-8.1261 12.423-11.559 16.938-6.4412 2.0038 2.2712 7.6882 22.422 7.6882 27.254 0 6.2757-9.3432-0.23007-13.395-9.327l-2.7882-6.2602-2.5752 3.1477c-1.4164 1.7312-2.5752 3.9352-2.5752 4.8977 0 3.5798-6.8021 9.9546-10.622 9.9546-5.0875 0-6.2244-1.792-9.2959-14.652-2.6184-10.963-4.2696-13.668-7.9409-13.013-4.0532 0.72325-6.7816 7.177-8.8086 20.836-2.2581 15.216-2.3742 15.556-5.9942 17.493-1.961 1.0494-3.2191 0.68487-5.7268-1.6595zm79.352-15.08c-4.506-3.1561-3.6971-8.5613 3.1277-20.9 7.916-14.311 11.946-19.483 15.969-20.492 9.7667-2.4513 15.273 4.7275 15.273 19.911 0 11.373 1.6418 13.561 9.0625 12.077 4.9477-0.98957 6.6797 1.4141 3.5281 4.8965-3.5881 3.9648-13.894 3.558-19.014-0.75068-2.1788-1.8333-4.5884-3.3333-5.3545-3.3333-0.7663 0-4.1662 2.4-7.5554 5.3333-6.6225 5.7318-10.351 6.5396-15.037 3.2577zm23.468-26.408c0.2372-1.2006-0.3928-2.1829-1.4-2.1829-2.296 0-5.0311 2.6585-5.0311 4.8904 0 2.4963 5.8934 0.0152 6.4311-2.7075zm-762.8 12.079c-10.692-9.3896-14.356-24.929-5.8786-24.929 4.4455 0 7.0874 3.6136 8.0451 11.004 0.4518 3.4857 2.0812 8.8071 3.621 11.825 1.5398 3.0182 2.301 5.9842 1.6916 6.591-0.6095 0.60683-3.9751-1.4146-7.4791-4.492zm845.12 1.3865c-3.591-5.4805-6.2174-19.003-5.808-29.905l0.3908-10.41 4.6666-0.66667 4.6667-0.66667 0.4016-8.5117c0.2208-4.6814-0.1467-10.085-0.8168-12.007-1.8631-5.3441 0.2456-9.4814 4.8323-9.4814 4.8208 0 6.9665 2.4247 11.961 13.515 3.0506 6.7746 5.6108 10.134 10.923 14.333 7.7008 6.0871 11.091 6.6831 16.032 2.818 4.2326-3.3108 9.5002-3.372 13.471-0.15663 2.7357 2.2153 2.9131 2.9198 1.5096 6-0.9431 2.0697-2.6745 3.49-4.2547 3.49-3.4136 0-6.775 5.1407-7.656 11.708-0.5593 4.17-0.057 5.8785 2.6522 9.0286 2.9933 3.4799 4.1561 3.8812 11.143 3.8459 5.6764-0.0287 10.087-1.078 16.193-3.8527 6.2494-2.8398 8.7772-3.4278 9.9019-2.3032 2.5375 2.5376-2.2149 6.2774-12.955 10.195-16.146 5.8886-29.304 4.4258-34.734-3.8615-1.4225-2.1711-2.0867-6.3524-2.0867-13.138v-9.9535l-8.6181-5.5332c-5.2168-3.3495-10.543-8.2131-13.496-12.323-7.3833-10.277-8.3996-7.6898-8.4223 21.443-0.013 12.877-0.3798 24.762-0.8221 26.412-1.0756 4.0138-6.4409 4.003-9.0757-0.0182zm116.27-0.10367c-2.0061-1.86-5.1645-6.5685-7.0186-10.463-1.8543-3.8948-4.3699-8.6491-5.5902-10.565-1.9626-3.0815-2.0029-4.0051-0.3486-8 2.855-6.8949 12.44-15.85 16.966-15.85 4.515 0 11.942 7.144 16.366 15.743 2.4478 4.7572 2.8064 7.0089 2.0888 13.115-1.4618 12.437-5.2446 17.584-13.764 18.725-4.1172 0.55155-5.7274 0.0509-8.6998-2.705zm12.304-12.852c1.884-4.5483 1.1348-13.731-1.366-16.745-0.8891-1.0712-2.9468-1.9477-4.5725-1.9477-3.848 0-6.0508 4.877-6.0508 13.396 0 11.829 7.8476 15.295 11.989 5.2964zm-157.61 11.659c-1.1963-0.92655-3.722-5.4166-5.6127-9.9778-3.0232-7.2933-3.4377-10.165-3.4377-23.822v-15.529l-3.3333 0.8221c-1.8334 0.45216-4.7098 1.1684-6.3919 1.5917-1.9888 0.50042-4.2039-0.16984-6.3333-1.9165-4.6418-3.8073-2.256-7.0461 6.8557-9.3071 9.2539-2.2963 10.058-3.0528 10.866-10.215 0.9081-8.0565 4.088-12.665 8.7394-12.665 2.7392 0 5.7859 2.1304 11.969 8.3692 4.5621 4.6031 8.2948 9.2831 8.2948 10.4 0 3.4851-2.9814 5.2308-8.9334 5.2308-10.173 0-12.559 5.5605-12.773 29.764-0.095 10.694 0.7736 13.742 6.0502 21.236 1.1903 1.6906 1.2512 2.9542 0.2211 4.5873-1.9239 3.05-3.5916 3.436-6.1808 1.4307zm-73.384-65.125c-4.3619-2.5405-2.6003-6.8285 8.0418-19.575 7.0275-8.4172 10.326-10.503 13.043-8.2474 2.9901 2.4815 2.298 4.8493-2.764 9.4556-2.5734 2.3417-6.2215 7.4105-8.1068 11.264-1.8854 3.8535-4.329 7.3521-5.4302 7.7747-2.3996 0.92083-1.9389 0.98553-4.7842-0.67176zm-1634.3-49.227c-2.6126-0.8367-1.8028-1.0963 3.7454-1.2004 4.4099-0.082798 6.768 0.36979 6.2546 1.2004-0.95092 1.5386-5.1956 1.5386-10 0zm613.33-0.090732c-2.9002-0.84986-2.6836-0.99406 1.6667-1.1097 5.0768-0.13495 6.353 0.43967 3.3333 1.5008-0.91667 0.32212-3.1667 0.14613-5-0.39111zm148-0.042343c-5.2137-0.69493-4.7331-0.82599 3.6666-1 5.3167-0.11014 9.6667 0.031642 9.6667 0.31508 0 1.067-7.5552 1.4551-13.333 0.68492zm349.33 0.13308c-1.3801-0.89194 1.4333-1.2988 9.0787-1.3129 7.051-0.012995 10.779 0.46431 10.255 1.3129-1.0549 1.7069-16.692 1.7069-19.333 0zm-1327.6-0.92399c1.2973-0.33806 3.0973-0.31583 4 0.049405s-0.15871 0.64182-2.3587 0.61465-2.9386-0.326-1.6413-0.66406zm28.725 0.013169c0.9625-0.38516 2.1125-0.33779 2.5556 0.10526 0.44306 0.44306-0.34444 0.75819-1.75 0.70029-1.5533-0.063978-1.8692-0.37992-0.80556-0.80556zm23.917-0.030159c1.65-0.3178 4.35-0.3178 6 0s0.3 0.57783-3 0.57783-4.65-0.26002-3-0.57783zm84 0.057936c0.91667-0.36988 2.4167-0.36988 3.3333 0 0.91667 0.36988 0.16667 0.67251-1.6667 0.67251-1.8333 0-2.5833-0.30263-1.6667-0.67251zm24-0.057936c1.65-0.3178 4.35-0.3178 6 0s0.3 0.57783-3 0.57783-4.65-0.26002-3-0.57783zm113.33 0.057936c0.91667-0.36988 2.4167-0.36988 3.3333 0 0.91666 0.36988 0.16666 0.67251-1.6667 0.67251s-2.5833-0.30263-1.6667-0.67251zm26.667 0c0.91667-0.36988 2.4167-0.36988 3.3333 0 0.91667 0.36988 0.16667 0.67251-1.6667 0.67251-1.8333 0-2.5833-0.30263-1.6667-0.67251zm67.352-0.073734c2.0267-0.30647 5.0267-0.29828 6.6667 0.0182 1.6399 0.31648-0.0184 0.56723-3.685 0.55722-3.6667-0.010011-5.0084-0.26895-2.9817-0.57542zm59.315 0.073734c0.91666-0.36988 2.4167-0.36988 3.3333 0s0.16667 0.67251-1.6667 0.67251c-1.8333 0-2.5833-0.30263-1.6667-0.67251zm17.333-0.081487c2.3833-0.29577 6.2833-0.29577 8.6667 0 2.3833 0.29577 0.43333 0.53776-4.3333 0.53776-4.7667 0-6.7167-0.24199-4.3333-0.53776zm38.025 0.04054c1.2973-0.33806 3.0973-0.31583 4 0.049405 0.90271 0.36523-0.1587 0.64182-2.3587 0.61465-2.2-0.027173-2.9386-0.326-1.6413-0.66406zm8.6568-0.019027c1.6586-0.31892 4.0586-0.30682 5.3333 0.026908 1.2748 0.33372-0.0822 0.59466-3.0156 0.57986-2.9333-0.014799-3.9763-0.28785-2.3178-0.60677zm122.65 0.059974c0.91667-0.36988 2.4167-0.36988 3.3333 0 0.91666 0.36988 0.16666 0.67251-1.6667 0.67251s-2.5833-0.30263-1.6667-0.67251zm26.75-0.027778c0.9625-0.38516 2.1125-0.33779 2.5556 0.10526 0.44306 0.44306-0.34445 0.75819-1.75 0.70029-1.5533-0.063979-1.8692-0.37992-0.80556-0.80556zm26.667 0c0.96249-0.38516 2.1125-0.33779 2.5556 0.10526 0.44305 0.44306-0.34445 0.75819-1.75 0.70029-1.5533-0.063979-1.8692-0.37992-0.80556-0.80556zm25.333 0c0.9625-0.38516 2.1125-0.33779 2.5556 0.10526 0.44306 0.44306-0.34445 0.75819-1.75 0.70029-1.5533-0.063979-1.8692-0.37992-0.80556-0.80556zm51.917 0.027778c0.91667-0.36988 2.4167-0.36988 3.3333 0 0.91667 0.36988 0.16667 0.67251-1.6667 0.67251-1.8333 0-2.5833-0.30263-1.6667-0.67251zm28.083-0.027778c0.9625-0.38516 2.1125-0.33779 2.5556 0.10526 0.44306 0.44306-0.34445 0.75819-1.75 0.70029-1.5533-0.063979-1.8692-0.37992-0.80556-0.80556zm29.333 0c0.96249-0.38516 2.1125-0.33779 2.5556 0.10526 0.44305 0.44306-0.34446 0.75819-1.75 0.70029-1.5533-0.063979-1.8692-0.37992-0.80556-0.80556zm18.583 0.027778c0.91667-0.36988 2.4167-0.36988 3.3333 0 0.91667 0.36988 0.16667 0.67251-1.6667 0.67251-1.8333 0-2.5833-0.30263-1.6667-0.67251zm25.333 0c0.91667-0.36988 2.4167-0.36988 3.3333 0 0.91666 0.36988 0.16666 0.67251-1.6667 0.67251s-2.5833-0.30263-1.6667-0.67251zm14.018-0.073734c2.0267-0.30647 5.0267-0.29828 6.6667 0.0182 1.6399 0.31648-0.0183 0.56723-3.685 0.55722-3.6667-0.010011-5.0084-0.26895-2.9817-0.57542zm66.674 0.032787c1.2973-0.33806 3.0973-0.31583 4 0.049405 0.90271 0.36523-0.1587 0.64182-2.3587 0.61465-2.2-0.027173-2.9386-0.326-1.6413-0.66406zm21.975 0.040947c0.91667-0.36988 2.4167-0.36988 3.3333 0 0.91667 0.36988 0.16667 0.67251-1.6667 0.67251-1.8333 0-2.5833-0.30263-1.6667-0.67251zm11.333-0.071965c2.0167-0.3055 5.3167-0.3055 7.3334 0 2.0166 0.3055 0.3666 0.55545-3.6667 0.55545-4.0333 0-5.6833-0.24995-3.6667-0.55545zm116.69-0.011303c2.3964-0.29675 5.9964-0.29063 8 0.013607 2.0035 0.30423 0.043 0.54703-4.3572 0.53954-4.4-0.007484-6.0393-0.2564-3.6428-0.55315zm30.667 0c2.3965-0.29675 5.9965-0.29063 8 0.013607 2.0036 0.30423 0.043 0.54703-4.3572 0.53954-4.4-0.007484-6.0392-0.2564-3.6428-0.55315zm13.393 0.05549c0.9625-0.38516 2.1125-0.33779 2.5556 0.10526 0.443 0.44306-0.3445 0.75819-1.75 0.70029-1.5533-0.063978-1.8692-0.37992-0.8056-0.80556zm25.266-0.032196c1.6585-0.31892 4.0585-0.30682 5.3333 0.026908 1.2748 0.33372-0.082 0.59466-3.0155 0.57986-2.9334-0.014799-3.9764-0.28785-2.3178-0.60677zm15.318 0.023914c1.2833-0.33537 3.3833-0.33537 4.6666 0 1.2834 0.33537 0.2334 0.60976-2.3333 0.60976s-3.6167-0.27439-2.3333-0.60976zm32.69-0.047208c2.3965-0.29675 5.9965-0.29063 8 0.013607 2.0035 0.30423 0.043 0.54703-4.3572 0.53954-4.4-0.007484-6.0393-0.2564-3.6428-0.55315zm89.325 0.023294c1.6586-0.31892 4.0586-0.30682 5.3333 0.026908 1.2748 0.33372-0.082 0.59466-3.0155 0.57986-2.9333-0.014799-3.9763-0.28785-2.3178-0.60677zm95.318-0.011992c2.0167-0.3055 5.3167-0.3055 7.3333 0 2.0167 0.3055 0.3667 0.55545-3.6666 0.55545-4.0334 0-5.6834-0.24995-3.6667-0.55545zm14 0.071965c0.9167-0.36988 2.4167-0.36988 3.3333 0 0.9167 0.36988 0.1667 0.67251-1.6666 0.67251-1.8334 0-2.5834-0.30263-1.6667-0.67251zm13.333-0.057936c1.65-0.3178 4.35-0.3178 6 0 1.65 0.3178 0.3 0.57783-3 0.57783s-4.65-0.26002-3-0.57783zm12.685-0.015798c2.0268-0.30647 5.0268-0.29828 6.6666 0.0182 1.64 0.31648-0.019 0.56723-3.6849 0.55722-3.6667-0.010011-5.0084-0.26895-2.9817-0.57542zm30.006-0.009533c2.3965-0.29675 5.9965-0.29063 8 0.013607 2.0036 0.30423 0.043 0.54703-4.3572 0.53954-4.4-0.007484-6.0392-0.2564-3.6428-0.55315zm70.643 0.025331c1.65-0.3178 4.35-0.3178 6 0 1.65 0.3178 0.3 0.57783-3 0.57783s-4.65-0.26002-3-0.57783zm36.083 0.030159c0.9625-0.38516 2.1125-0.33779 2.5556 0.10526 0.4431 0.44306-0.3445 0.75819-1.75 0.70029-1.5533-0.063978-1.8692-0.37992-0.8056-0.80556zm19.275-0.013169c1.2974-0.33806 3.0974-0.31583 4 0.049405 0.9028 0.36523-0.1586 0.64182-2.3586 0.61465-2.2-0.027173-2.9386-0.326-1.6414-0.66406zm93.945-0.038322c2.3669-0.29455 6.5669-0.29939 9.3333-0.010755 2.7664 0.28863 0.8297 0.52963-4.3036 0.53554-5.1333 0.005915-7.3967-0.23024-5.0297-0.52479zm48.696 0.043209c1.2833-0.33537 3.3833-0.33537 4.6666 0 1.2834 0.33537 0.2334 0.60976-2.3333 0.60976s-3.6167-0.27439-2.3333-0.60976z" stroke-width="1.3333"/>
</svg>
