<?xml version="1.0" encoding="UTF-8"?>
<svg width="220.28" height="148.3" version="1.1" viewBox="0 0 220.2805 148.29906" xmlns="http://www.w3.org/2000/svg">
 <path d="m67.616 138.12c-0.25658-0.25557-5.1915-0.99364-10.967-1.6402-5.775-0.6465-17.126-2.4848-25.223-4.0852s-15.834-2.9097-17.191-2.9097c-3.7179 0-5.285-3.9015-3.4943-8.6996 0.98716-2.6451 7.6529-4.7351 12.033-3.773 3.8052 0.83576 6.0606-0.94108 5.2573-4.1418-0.42876-1.7083-0.17905-2.3856 0.87961-2.3856 1.0058 0 1.6372-1.4093 1.9753-4.4087 0.72509-6.433 4.025-10.382 11.512-13.777 5.6742-2.5728 7.3913-2.8823 14.849-2.6768 4.6378 0.12783 8.8144-0.18833 9.2814-0.70256 1.3451-1.4813 3.1752-10.13 2.5102-11.863-0.45548-1.187 0.04935-1.572 2.0609-1.572 3.3966 0 11.761 2.0096 12.983 3.1193 1.6062 1.4583 0.068 1.8849-3.3069 0.91698-1.7826-0.51124-3.8633-0.69076-4.6238-0.39893-1.8108 0.69487-4.0122 4.156-4.8776 7.6688l-0.69133 2.8062 4.7831-0.30615c3.8385-0.24568 4.978-0.75031 5.7699-2.5552 0.61573-1.4034 2.1932-2.4754 4.1954-2.851 2.8407-0.53292 3.0744-0.81685 2.0383-2.4759-0.90065-1.4422-0.88806-2.1563 0.0546-3.099 0.67373-0.67373 1.225-2.2344 1.225-3.4683 0-1.2338 1.0001-2.9438 2.2225-3.8 1.9036-1.3334 1.9659-1.5567 0.43425-1.5567-0.98353 0-2.6587 0.46583-3.7225 1.0352-1.6077 0.86044-1.9342 0.70302-1.9342-0.93261 0-2.563 1.8359-3.0248 11.5-2.8926 4.4 0.0602 8.9243-0.18976 10.054-0.55545 2.2548-0.72992 8.257-10.814 13.484-22.655 3.8972-8.8281 6.0859-11.55 8.5323-10.611 1.6218 0.62235 1.6126 0.75723-0.13851 2.0377-1.3532 0.98951-1.9061 2.7217-1.9859 6.2225-0.0857 3.7606-0.454 4.7924-1.6379 4.5896-1.0168-0.17418-2.0957 1.3299-3.2279 4.5-0.93533 2.6189-2.3485 6.2394-3.1403 8.0456-1.8132 4.1359-1.8159 5.9828-0.0111 7.7875 2.6195 2.6195 2.9614 2.298 8.5592-8.0488 2.0224-3.738 2.5472-5.5402 1.7137-5.8842-0.75025-0.30964-0.0188-1.5554 1.9476-3.3172 1.732-1.5517 3.6604-3.8338 4.2852-5.0713 0.62482-1.2375 1.5788-2.25 2.1199-2.25 1.136 0 0.1798 4.8534-1.3346 6.7742-0.55254 0.70079-0.77824 1.5005-0.50156 1.7772 0.7102 0.71023 5.7819-6.1282 5.7819-7.7961 0-0.75799-0.9-2.3442-2-3.5249-2.4846-2.6669-2.504-3.2304-0.11129-3.2304 1.3655 0 2.07-0.96613 2.543-3.4878 0.61962-3.3028 3.5697-6.1774 4.9368-4.8103 0.34731 0.34732 0.63148-0.11852 0.63148-1.0352 0-0.98311-0.79607-1.6667-1.941-1.6667-2.1628 0-3.9343-1.9608-1.868-2.0677 0.71996-0.03722 0.28701-0.56023-0.9621-1.1622-3.1043-1.4961-4.9094 1.0662-5.7976 8.2299-0.37508 3.025-1.1348 6.3686-1.6882 7.4302-0.98088 1.8815-1.0408 1.883-2.3747 0.05887-0.7526-1.0292-1.3711-3.2478-1.3745-4.9302-3e-3 -1.6824-0.63529-4.2648-1.4042-5.7386-1.1967-2.2937-1.1969-2.757-1e-3 -3.2158 0.76824-0.2948 1.9582 0.06497 2.6443 0.7995 1.0276 1.1 1.5292 0.87228 2.8451-1.2914 0.9999-1.6442 3.4353-3.2594 6.5099-4.3176 12.674-4.3619 15.901-5.7432 17.031-7.2882 1.3361-1.8272 3.0578-1.261 8.6184 2.8345 2.2149 1.6313 4.6955 2.0917 13 2.4128 6.07 0.23469 11.449 0.97882 13.166 1.8214 1.597 0.78354 3.6595 1.4246 4.5833 1.4246 2.5163 0 2.9894 0.93182 1.912 3.7657-0.62115 1.6337-0.62633 2.907-0.0143 3.519 1.1518 1.1518 0.28754 3.9011-1.5803 5.0268-0.74055 0.4463-1.1258 1.1684-0.85623 1.6046 0.26961 0.43625-0.62092 1.837-1.979 3.1129-1.3583 1.2758-2.4695 2.0004-2.4695 1.6102s-0.7875-0.28806-1.75 0.22702c-1.5897 0.85074-1.734 2.8462-1.5749 21.785 0.0963 11.467-0.28836 22.996-0.85484 25.62-0.75086 3.4783-0.71753 5.1477 0.12298 6.1604 0.90774 1.0938 0.47639 2.1597-2.0282 5.0124-1.7496 1.9927-2.9302 3.8741-2.6235 4.1809 0.91476 0.91477 4.7875-0.68793 4.151-1.7178-0.90989-1.4722 6.5324-4.1664 9.4768-3.4306 1.4193 0.35464 3.9156 0.90792 5.5474 1.2295 3.905 0.76964 5.0824 2.0772 5.9278 6.5836 0.47848 2.5505 0.23428 4.6091-0.76807 6.4749-0.80827 1.5046-1.7158 3.5231-2.0166 4.4856-0.34761 1.112-1.561 1.754-3.3284 1.7608-3.3247 0.0129-10.89 2.2185-15.129 4.4105-1.679 0.86827-4.2297 1.5787-5.6682 1.5787s-3.5472 0.49871-4.6862 1.1082-5.434 1.2953-9.5446 1.5239c-4.1106 0.22861-8.2946 0.8549-9.2978 1.3918-1.0031 0.53685-5.5163 0.9761-10.029 0.9761-6.466 0-8.4609 0.34924-9.4102 1.6475-1.2292 1.681-4.3738 1.4356-7.4869-0.58425-1.9807-1.2851-0.73453-2.3244 2.9444-2.4555 1.6622-0.0592 3.0231-0.38975 3.0244-0.73446 2e-3 -0.54927 19.263-1.94 27.502-1.9858 4.5721-0.0254 15.868-2.7189 27.222-6.4913 5.6224-1.8679 10.852-3.3962 11.621-3.3962 0.92208 0 1.6232-1.6922 2.0574-4.9657 0.80572-6.0738-0.69596-9.0343-4.5826-9.0343-1.4852 0-2.9786-0.45-3.3185-1s-1.7165-1-3.059-1-2.441 0.45-2.441 1 0.975 1 2.1667 1c3.4001 0 1.6217 0.9439-5.2957 2.8107-6.0211 1.6249-6.371 1.8833-6.371 4.7043 0 2.7914 0.21967 2.9634 3.3887 2.6524 2.7069-0.26564 3.2706-0.0249 2.8018 1.1968-0.49669 1.2944 0.21171 1.4395 4.6113 0.94462 2.859-0.32157 5.9561-0.9726 6.8824-1.4468 2.7652-1.4153 4.4971-1.0987 2.78 0.50829-0.80536 0.75371-5.9643 2.1311-11.464 3.0609s-12.599 2.177-15.775 2.7715c-3.1761 0.59454-6.0116 0.84411-6.3012 0.5546-0.28952-0.28951-2.6409 0.27397-5.2252 1.2522-2.5844 0.97821-9.741 2.3516-15.904 3.0519l-11.205 1.2733-3.849-2.6674c-4.6043-3.1908-5.5625-3.3238-4.8089-0.66739 0.31207 1.1 0.82271 2.9 1.1348 4 0.43632 1.538 0.0899 2-1.5 2-1.2005 0-2.0674-0.64983-2.0674-1.5497 0-0.85231-0.68947-2.883-1.5322-4.5125-1.4862-2.8741-1.4544-2.9924 1.0602-3.9485 1.4258-0.54208 2.3699-1.3454 2.0981-1.7852-0.27181-0.43979-0.0739-1.4531 0.43982-2.2519 0.81284-1.2638 1.0616-1.2576 1.9178 0.0478 0.54106 0.825 0.8343 1.95 0.65164 2.5-0.34802 1.0479 3.4234 4.0282 6.9014 5.4536 2.423 0.99305 19.687-0.52874 23.963-2.1123 3.3872-1.2543 11.387-2.6994 19.384-3.5018l5.3839-0.54012-4.1623-1.8635c-5.2786-2.3633-17.123-1.7058-21.075 1.17-4.2734 3.1093-20.031 6.1726-20.031 3.8941 0-0.55 0.675-1 1.5-1s1.5-0.43588 1.5-0.96862c0-0.53273-0.675-0.70959-1.5-0.39301-0.92887 0.35644-1.5-5e-3 -1.5-0.94805 0-0.83801 0.5625-1.7506 1.25-2.028s-0.325-0.54606-2.25-0.59699c-1.925-0.0509-4.5125-0.36394-5.75-0.69558-4.771-1.2786-1.8439-2.2583 8-2.6777 11.585-0.49355 20.555-2.0311 25.477-4.3668 3.6935-1.7527 5.2508-1.2085 3.293 1.1506-0.69572 0.8383-0.95527 1.5242-0.57676 1.5242 0.62377 0 4.5864-1.875 5.3866-2.5487 0.18145-0.15278-0.40894-1.4054-1.312-2.7836-1.3219-2.0175-1.5348-4.1294-1.0922-10.837 0.30231-4.582 0.79606-16.881 1.0972-27.331s0.76171-19.998 1.0235-21.219c0.36351-1.6945-0.22358-2.5803-2.4856-3.75-1.6288-0.8423-3.8535-1.5314-4.9438-1.5314s-2.2605-0.7875-2.6006-1.75-1.9293-2.7834-3.5317-4.0465c-2.7763-2.1885-3.0326-2.2183-5.4491-0.63499-3.3832 2.2168-3.2766 4.4278 0.21427 4.4451 3.7194 0.01847 7.3285 1.0503 6.7797 1.9382-0.24627 0.39847-3.0493 0.37145-6.229-0.06004-4.6014-0.62442-5.9464-0.48936-6.5907 0.66182-0.44518 0.79549-1.2786 1.4464-1.852 1.4464-1.548 0-5.8875 3.6372-5.1816 4.3431 0.33473 0.33472-0.018 1.3672-0.78391 2.2944-0.76587 0.92719-1.3925 2.6169-1.3925 3.7548 0 1.2695-1.0626 2.5806-2.75 3.3929-1.7141 0.8252-2.75 2.1195-2.75 3.436 0 1.1617 0.2961 1.816 0.65799 1.4541 0.3619-0.36189 1.2352-0.17899 1.9406 0.40645 2.9313 2.4328-1.6365 6.107-9.141 7.3528-2.4293 0.40329-4.541 1.4694-5.2918 2.6717-1.0082 1.6144-0.99998 1.9674 0.0425 1.8287 3.267-0.4348 4.0754 0.0184 2.7918 1.565-0.68469 0.825-1.8648 1.5-2.6224 1.5-1.7184 0-1.8432 1.9882-0.12756 2.0316 0.6875 0.0174-0.0436 1.169-1.6246 2.5592-1.581 1.3902-3.5301 2.276-4.3312 1.9686-0.80118-0.30744-2.4202 0.11593-3.5979 0.94082-1.1777 0.82488-3.2786 1.4898-4.6688 1.4776l-2.5275-0.0222 2.5-2.0035 2.5-2.0034-3 0.65362c-1.65 0.3595-5.1865 1.5726-7.8589 2.6957-4.795 2.0152-4.8521 2.0924-4.3452 5.8721 0.43986 3.2794 0.23985 3.83-1.3911 3.83-1.0477 0-1.9048 0.36-1.9048 0.8 0 1.7338 2.5558 3.2 5.5779 3.2 4.6359 0 9.5025 2.3426 13.116 6.3132 3.6307 3.9899 4.0048 5.112 2.9883 8.9622-0.76236 2.8874-2.6976 5.2213-6.5903 7.9478l-2.2869 1.6018 2.3476 1.2334c1.2912 0.67838 2.6971 1.824 3.1241 2.5459 0.42704 0.72187 1.4395 1.058 2.25 0.74703 0.85725-0.32896 1.4736 9e-3 1.4736 0.8079 0 2.7612-17.909 11.836-23.377 11.846-1.7176 3e-3 -4.6979 0.41319-6.6229 0.9114-4.1663 1.0783-19.367 2.3818-20.033 1.718zm24.063-7.6443c11.192-2.2154 10.407-1.8514 8.5102-3.9474-1.5835-1.7497-1.5751-1.9294 0.13775-2.9733 1.4549-0.88673 1.0152-0.98899-2.177-0.50635-2.2 0.33262-5.4811 1.0579-7.2912 1.6117-1.8102 0.55383-3.9803 0.74255-4.8224 0.41938-0.84216-0.32317-2.3847-0.13078-3.428 0.42754-1.8552 0.99286-2.6319 0.90619-18.458-2.0598-2.75-0.51537-8.9375-1.2037-13.75-1.5296-8.3852-0.56787-8.75-0.50587-8.75 1.4872 0 1.7103-0.62189 2.0798-3.5 2.0798-4.5495 0-4.7356 2.5697-0.25743 3.5533 8.552 1.8783 46.443 2.891 53.786 1.4374zm-62.241-5.7407c-0.30408-2.9051-1.8398-4.0642-5.5378-4.1797-1.838-0.0574-2.25 0.4669-2.25 2.8633 0 2.9599 0.36246 3.169 6.7878 3.9166 0.8336 0.097 1.1863-0.82014 1-2.6002zm-10.953-1.6446c0.29028-1.4971 0.0644-1.5597-1.6853-0.46698-1.1113 0.69401-1.7834 1.6455-1.4936 2.1145 0.8128 1.3151 2.8046 0.28286 3.1789-1.6475zm17.165-2.6054c0-1.1-0.45-2-1-2s-1 0.9-1 2 0.45 2 1 2 1-0.9 1-2zm52-2.0095c5.225-0.70299 10.738-1.9 12.25-2.66 2.5323-1.2724 3.1816-1.0643 2.8684 0.91952-0.2166 1.3718 1.5614 0.77735 5.492-1.8363 7.4595-4.96 8.2704-8.5678 3.1396-13.968-3.253-3.4234-9.75-5.8031-9.75-3.5712 0 0.61875-0.6199 1.125-1.3776 1.125-0.75765 0-1.9378 0.675-2.6224 1.5s-2.7166 1.5-4.5155 1.5c-1.9847 0-3.4969-0.58975-3.8462-1.5-0.31658-0.825-1.4534-1.5-2.5264-1.5-1.7513 0-1.8508 0.36222-0.97273 3.5422 0.86351 3.1274 0.70767 3.7676-1.3306 5.4667-1.4353 1.1965-3.8689 1.9371-6.4329 1.9578-2.2684 0.0183-6.0934 0.73281-8.5 1.5878-5.5461 1.9703-10.876 1.1863-10.876-1.5998 0-1.0751 0.483-1.9547 1.0733-1.9547s0.92783-0.71126 0.75-1.5806c-0.18064-0.88308-2.7029-2.4168-5.7156-3.4756-2.9657-1.0422-5.6657-2.1697-6-2.5055-0.9455-0.94977 3.9501-4.4999 7.0641-5.1227 1.5376-0.30752 2.5514-0.95434 2.2529-1.4374-0.94153-1.5234-7.7426-0.95515-13.425 1.1218-3.0095 1.1-5.585 2-5.7233 2-0.13836 0-1.3822 1.7911-2.7641 3.9801-3.591 5.6885-3.2876 9.8246 0.83239 11.348 1.0147 0.37516 2.081 1.5848 2.3695 2.688 0.55222 2.1117 4.2838 3.5824 6.7187 2.648 0.7907-0.30341 1.5792-0.14411 1.7522 0.35401 0.41141 1.1843 14.411 2.6382 23.315 2.4212 3.85-0.0938 11.275-0.74575 16.5-1.4487zm68.5-6.9905 2-0.85943-2-0.055c-1.1-0.0302-2.675 0.38124-3.5 0.9144-1.3333 0.86167-1.3333 0.96327 0 0.9144 0.825-0.0302 2.4-0.44171 3.5-0.9144zm-82.25-4.7129c5.1031-1.6073 8.75-3.2981 8.75-4.0567 0-0.97616-0.4827-1.0424-1.9343-0.26559-1.0638 0.56935-2.7086 1.0352-3.655 1.0352-1.5979 0-1.5915-0.14278 0.08925-2 1.6277-1.7986 1.6433-2 0.15499-2-0.91025 0-1.655-0.45-1.655-1s-1.5484-1-3.441-1-3.7191 0.45-4.059 1c-1.0104 1.6349-3.7878 1.1924-3.1384-0.5 0.31658-0.825 0.19483-1.5-0.27057-1.5s-1.4064 0.675-2.0911 1.5c-1.6006 1.9286-3 1.9197-3-0.019 0-1.1476-0.67244-1.3606-2.75-0.87089-3.7002 0.87205-5.2475 2.3899-2.4364 2.3899 4.5072 0 9.1864 3.7838 9.1864 7.4286 0 1.4143 0.3375 2.5811 0.75 2.5929 0.4125 0.0118 4.6875-1.2187 9.5-2.7344zm95.25 0.7129c0.78917-1.2769-2.5241-1.2769-4.5 0-1.1732 0.7582-0.91378 0.97271 1.191 0.98469 1.48 8e-3 2.9691-0.43469 3.309-0.98469zm10.5-1c0-0.55-0.42344-1-0.94098-1s-1.2191 0.45-1.559 1 0.0835 1 0.94098 1c0.85746 0 1.559-0.45 1.559-1zm-84-10.105c0.825-0.45905 1.05-0.88276 0.5-0.94156s-1.8359-0.26478-2.8576-0.45772c-2.5867-0.48849-4.6424 0.45463-4.6424 2.1299 0 1.4597 3.7709 1.0662 7-0.73058zm-9.2263-3.7167c0.21085-0.63254-0.77516-1.6779-2.1911-2.3231-2.1696-0.98856-2.9021-0.87654-4.6577 0.71231l-2.0833 1.8853 2.2228 1.7999c1.9248 1.5586 2.4979 1.6173 4.2744 0.43776 1.1284-0.7492 2.2241-1.8797 2.4349-2.5122zm-10.349 1.943c0.29853-0.48303-0.87178-1.1612-2.6007-1.5069-3.4391-0.68782-4.3779-0.31995-3.3652 1.3187 0.79378 1.2844 5.2025 1.4235 5.9659 0.18828zm105.86-7.1208c0.28751-1.0995 0.115-2.251-0.38337-2.559s-0.90612 0.59154-0.90612 1.999c0 3.064 0.56994 3.3116 1.2895 0.56002zm-92.789-1e-3c0.35667-0.5771-0.5699-0.99352-2.191-0.98469-2.1811 0.0119-2.4737 0.232-1.309 0.98469 1.9213 1.2416 2.7326 1.2416 3.5 0zm92.47-7.75c-0.0248-3.06-0.22004-3.4243-1.061-1.9798-0.56682 0.9736-0.74781 2.6611-0.40221 3.75 0.95988 3.0243 1.4968 2.3747 1.4632-1.7702zm-80.53-1.1376c3.5611-1.572 3.9596-2.1214 4.1442-5.7127 0.20317-3.9529 0.18691-3.9714-3.155-3.5812-1.8476 0.21569-3.8578 0.99302-4.4673 1.7274-0.60949 0.73439-1.7957 1.0714-2.636 0.74897-1.9871-0.76251-3.2915 1.3869-3.3106 5.4552-0.0137 2.9003 0.28059 3.242 2.7347 3.1758 1.5125-0.0408 4.523-0.85685 6.69-1.8135zm14.078-5.8057c1.8488-2.5284 0.80287-3.5329-2.8629-2.7497-3.8183 0.81577-5.6548 2.1786-5.6548 4.1964 0 2.1045 6.7607 0.95623 8.5177-1.4467zm0.70296-8.7532c-1.6604-2.1109-2.1122-2.2787-2.614-0.97088-1.004 2.6164-0.71266 3.2614 1.6433 3.6377 3.1472 0.50266 3.2473 0.22745 0.9707-2.6668zm68.611-6.7216c-1.1055-2.2651 0.0623-7.5771 1.8134-8.2491 0.91585-0.35144 1.3382-1.765 1.1891-3.9796-0.20162-2.9937-0.62295-3.4943-3.2826-3.9004-1.6782-0.2562-3.1561-0.37684-3.2842-0.2681-0.12809 0.10874 0.19342 1.6842 0.71448 3.501 0.85605 2.9849 0.78115 5.6101-0.44952 15.755-0.28936 2.3853 0.0364 3.2754 1.2904 3.5263 1.9665 0.39348 3.2799-3.7809 2.0089-6.3851zm-52.831 2.0501c0-0.55-0.44999-0.72189-0.99999-0.38197s-1 1.068-1 1.618 0.45 0.72189 1 0.38197 0.99999-1.068 0.99999-1.618zm7-1.4648c0-0.90987-4.4473 1.4248-4.815 2.5276-0.26833 0.80497 0.51875 0.6401 2.1985-0.46051 1.439-0.94291 2.6164-1.8731 2.6164-2.0671zm50-23.477c0-0.6234-1.2746-0.85917-3.0943-0.57238-4.4996 0.70914-4.8233 1.6324-0.57238 1.6324 2.0167 0 3.6667-0.47702 3.6667-1.06zm-41.229-1.7525c0.21771-0.65312-0.31666-1.1875-1.1875-1.1875-0.87083 0-1.5833 0.7125-1.5833 1.5833 0 1.7659 2.1528 1.4584 2.7708-0.39583zm38.246-1.4602c2.5149 0 3.9832-0.4597 3.9832-1.2471 0-1.6527-4.9955-2.553-7.3056-1.3167-1.0048 0.53775-3.4421 0.83344-5.4162 0.65708-2.2259-0.19885-3.7518 0.15418-4.0171 0.92936-0.26792 0.78286 0.51558 1.25 2.0965 1.25 1.3884 0 2.8159 0.47185 3.1724 1.0486 0.4421 0.71534 1.1018 0.672 2.0758-0.13636 0.78526-0.65171 3.2202-1.1849 5.411-1.1849zm-18.936-8.007c0.32322-1.9885 1.1196-4.2564 1.7698-5.0398 0.9579-1.1542 0.65625-1.6422-1.5903-2.5728-3.0598-1.2674-10.481-0.27156-16.405 2.2013l-3.3554 1.4007 4 1.1396c2.2 0.62677 4.7572 1.1421 5.6826 1.1452 0.92544 0.0031 1.9338 0.7971 2.2409 1.7645 0.57545 1.8131 4.31 4.137 6.0729 3.7791 0.54801-0.11127 1.2608-1.8293 1.5841-3.8178zm6.9971 2.2797c0.92265 0 2.1899-0.61731 2.816-1.3718 0.91369-1.1009 0.51144-1.4972-2.0373-2.0069-3.7451-0.74902-3.5071-0.90469-4.4041 2.8808-0.58524 2.4698-0.47623 2.7777 0.61871 1.748 0.73101-0.6875 2.084-1.25 3.0067-1.25zm23.96-2.0258c1.5429-2.4398 1.1712-2.7579-4.0638-3.4779-3.8363-0.52762-5.6124-0.30756-7.5 0.92922-2.3561 1.5438-3.0013 2.7132-2.0317 3.6827 0.24285 0.24286 3.1914 0.41876 6.5524 0.39091 4.2528-0.03525 6.3943-0.4989 7.0431-1.5249zm-14.619-2.5812c3.8681-1.4843-0.86157-3.8743-5.3462-2.7016-2.2467 0.58753-2.2737 0.68789-0.52872 1.9639 2.0198 1.4769 3.473 1.6594 5.8749 0.73771zm12.582 86.076c0-0.25774 0.88359-1.3522 1.9635-2.4322 1.9108-1.9108 3.5903-1.4689 2.2205 0.58422-0.735 1.1016-4.184 2.6249-4.184 1.8479zm-34.967-17.929c-1.6281-1.9617-2.463-8.7552-1.5029-12.229 0.74808-2.7066 0.81134-2.6442 1.7127 1.6896 0.51478 2.475 1.0367 5.2783 1.1598 6.2296 0.12309 0.95129 0.53296 2.0388 0.91083 2.4167 0.9836 0.98359 0.84895 3.3537-0.19052 3.3537-0.48265 0-1.4231-0.65735-2.0899-1.4608zm33.029-0.28922c0.0923-1.118 8.9381-7.3705 8.9381-6.3178 0 2.2422-1.4626 4.2556-4.0715 5.6048-3.1017 1.604-4.9626 1.8766-4.8666 0.71301zm-29.598-3.6642c-2.739-4.1802-0.73425-14.107 2.4513-12.138 0.74875 0.46275 0.77602 1.2599 0.0871 2.5471-1.4114 2.6372-1.2488 8.7481 0.2473 9.2967 0.94878 0.34788 0.97122 0.75519 0.0931 1.6902-0.90376 0.96235-1.5337 0.65686-2.8788-1.3961zm27.536-2.0184c0-0.78794 0.87766-1.7112 1.9504-2.0516 2.5782-0.81831 6.089-6.605 5.5008-9.0666-0.51236-2.144 2.9747-7.3567 4.141-6.1904 0.40091 0.40091-0.0476 1.587-0.99675 2.6358-1.1292 1.2477-1.3575 2.1344-0.66053 2.5652 1.3099 0.80955 1.423 5.5403 0.13253 5.5403-0.51294 0-1.1899 0.7875-1.5043 1.75-0.49483 1.5147-6.5932 6.25-8.049 6.25-0.28271 0-0.51402-0.64468-0.51402-1.4326z"/>
</svg>
