<?xml version="1.0" encoding="UTF-8"?>
<svg width="1387.4" height="828.52" version="1.1" viewBox="0 0 1387.4285 828.52405" xmlns="http://www.w3.org/2000/svg" xmlns:xlink="http://www.w3.org/1999/xlink">
 <defs>
  <clipPath id="clipPath10540">
   <rect x="76.322" y="107.12" width="1387.2" height="946.66" fill-opacity="0"/>
  </clipPath>
 </defs>
 <image transform="translate(1598 61.925)" width="1500" height="1264" clip-path="url(#clipPath10540)" preserveAspectRatio="none" xlink:href="file:///Users/wongchunhoi/Desktop/image%20for%20website/lethardplasticbeelectrocuted_connectionweb.jpg"/>
 <path d="m267.93 636.56c-14.85-7.3606-30.5-15.453-34.779-17.984-4.2783-2.5306-7.9866-4.6011-8.2406-4.6011s-6.4286-3.6751-13.721-8.1669-16.184-9.7439-19.759-11.671-8.1786-4.5523-10.23-5.8331c-2.0516-1.2808-3.931-2.3287-4.1766-2.3287-0.24556 0-3.8441-2.25-7.9967-5s-7.7782-5-8.0568-5-4.4515-2.6443-9.2731-5.8763c-4.8216-3.232-13.906-8.6912-20.188-12.132-10.6-5.8055-20.662-12.861-31.932-22.39-2.5353-2.1438-6.0483-4.4989-7.8067-5.2336-1.7584-0.7347-6.1044-3.3682-9.6578-5.8522-6.4088-4.48-8.3714-5.441-7.182-3.5164 0.98416 1.5924-2.1249 1.1569-3.4909-0.48899-0.67967-0.81894-1.6294-1.2457-2.1104-0.9484-0.48108 0.29732-3.4592 1.2138-6.618 2.0365-5.242 1.3654-6.0724 1.3476-9.512-0.20347-4.3985-1.9835-5.1406-4.0201-1.0186-2.7955 5.2867 1.5706 16.25-0.1609 16.25-2.5665 0-1.0036-3.1373-3.601-5.2586-4.3536-3.2092-1.1386-4.2293-5.132-2.3321-9.13 1.4283-3.0098 2.1721-3.5394 4.8877-3.4798 6.3042 0.13833 7.2669 1.7452 5.3502 8.9297-0.36684 1.375-0.20574 3.175 0.358 4 0.85786 1.2554 1.5188 0.92935 4.0539-2 4.874-5.6321 4.941-5.7585 4.941-9.3229 0-1.9521 0.90094-4.5527 2.1094-6.0891 1.6885-2.1466 2.1322-4.1796 2.2237-10.188 0.11424-7.505-0.675-9.3422-4.0316-9.3851-2.5008-0.032-6.1755 4.5282-5.8726 7.2878 0.34337 3.1281-1.9551 3.7652-2.8954 0.80263-0.33067-1.0419-2.1579-2.9544-4.0606-4.25-4.2158-2.8708-4.5462-6.2187-0.99216-10.052 2.1825-2.3537 2.874-2.5648 5.75-1.7548 1.798 0.50634 3.8866 1.8274 4.6411 2.9357 1.7166 2.5212 5.128 2.6792 5.128 0.23758 0-4.1643-6.4667-10.59-12.095-12.019-9.8617-2.5032-24.676 5.8738-26.58 15.03-0.31264 1.5036-0.94092 2.5036-1.3962 2.2222-0.45524-0.28136-1.1105 1.1884-1.4562 3.2662-0.34564 2.0778-0.81701 4.3736-1.0475 5.1017-0.64695 2.0439-3.7307 0.94327-5.1352-1.8328-1.1274-2.2282-1.2619-1.7225-1.2751 4.7921-0.0118 5.8566 0.48813 8.2756 2.5525 12.349 2.8165 5.5582 2.4324 7.7757-0.66741 3.8524-4.1655-5.2722-5.2531-8.4375-5.3267-15.502-0.0907-8.7074 4.0122-19.227 5.6191-14.406 0.19737 0.5921 1.775-0.89542 3.5059-3.3056 5.0948-7.0943 9.1909-10.515 15.689-13.101 5.3385-2.1246 6.8842-2.3256 12.204-1.5871 3.3501 0.4651 7.2052 1.2692 8.567 1.787 4.1545 1.5796 9.6468 7.6919 10.817 12.038 0.60837 2.2593 2.002 4.5443 3.1445 5.1557 4.563 2.442 25.891 25.511 28.602 30.936 1.5115 3.025 6.1871 9.775 10.39 15 8.628 10.726 10.676 14.022 8.6733 13.96-0.70685-0.022-2.9762-2.1849-5.043-4.8064-2.0668-2.6214-6.2105-7.3394-9.2083-10.484s-7.0444-8.7446-8.9926-12.444c-2.5386-4.8203-6.5163-9.6766-14.041-17.143-5.7745-5.7294-10.752-10.164-11.061-9.8553-0.30905 0.30905-0.79971 3.1968-1.0904 6.4172-0.29066 3.2204-1.3479 7.6553-2.3494 9.8553-5.6116 12.327-7.5397 16.252-9.1159 18.56l-1.7486 2.5596 6.5922 4.4404c3.6257 2.4422 8.6579 5.6339 11.183 7.0926 2.5247 1.4587 6.3903 4.1991 8.5903 6.0897 2.2 1.8906 5.8 4.5997 8 6.0203 2.2 1.4206 5.575 3.9677 7.5 5.6602 1.925 1.6925 6.65 4.6629 10.5 6.6008 17.26 8.6881 25.143 13.43 35.316 21.242 4.2584 3.2706 23.57 14.953 30.184 18.261 2.475 1.2375 9.675 5.5134 16 9.5018s21.175 12.058 33 17.933c150.74 89.54 177.39 72.167 4-13.304-7.975-3.9141-16.975-8.4551-20-10.091s-10.225-5.2849-16-8.1085c-5.775-2.8237-11.175-5.7244-12-6.4461-0.825-0.72168-3.075-2.0172-5-2.8788-16.249-7.2733-26.53-14.642-37.5-26.876-2.2-2.4535-6.6095-6.3981-9.7989-8.7656s-6.3013-5.2465-6.9154-6.3976c-0.94237-1.7665-0.58374-1.6608 2.2989 0.6775 1.8785 1.5238 5.2154 3.9412 7.4154 5.3721 2.2 1.4309 8.7668 7.2683 14.593 12.972 8.3858 8.2097 12.136 11.109 18 13.914 4.0739 1.949 10.557 5.3374 14.407 7.5297 3.85 2.1923 10.6 5.663 15 7.7126 180.02 115.75 229.61 98.913 175.98-135.27-0.91123-3.85-3.3541-16.9-5.4285-29-4.1003-23.916-6.5212-32.909-13.96-51.853-7.6875-19.579-16.419-30.85-29.096-37.562-2.475-1.3103-5.2104-2.9904-6.0787-3.7337s-1.9238-1.3514-2.3456-1.3514-2.0998-0.94909-3.7288-2.1091-3.1508-1.9202-3.3816-1.6894c-0.34215 0.34215-1.8131 8.7023-2.7797 15.799-0.75745 5.5608-8.787 7.8533-27.836 7.9474-9.3168 0.046-11.321-0.25928-16-2.4376-2.9421-1.3696-6.8118-2.4946-8.5993-2.5-1.7875-5e-3 -3.25-0.49009-3.25-1.0772 0-0.61231 0.85269-0.79675 2-0.43261 3.0402 0.96491 2.3888-0.24756-1.103-2.0532l-3.103-1.6046 0.67107-16.671c0.61469-15.27 1.6759-28.011 3.104-37.268l0.55498-3.5972-13.312-0.68318c-24.115-1.2376-29.211-1.7181-38.812-3.6596-5.225-1.0566-11.3-2.1787-13.5-2.4935-10.189-1.4582-16.503-2.7534-22.5-4.6154-3.575-1.11-11.225-3.3515-17-4.9811-12.108-3.4167-14.812-4.3849-40.5-14.499-10.45-4.1146-21.25-8.3524-24-9.4173-2.823-1.0932-8.3032-2.0916-12.587-2.2932-4.9255-0.23176-8.6414-0.98004-10.594-2.1333-3.5148-2.0763-5.7504-7.3596-5.443-12.863 0.14932-2.673-0.84772-6.0028-3.2938-11-2.6704-5.4554-3.668-9.0036-4.1783-14.861-0.66654-7.6502-0.65258-7.7118 2.446-10.81 3.0004-3.0003 3.0561-3.2083 1.4973-5.5873-1.9882-3.0344-1.3121-10.928 1.3666-15.955 9.4011-17.641 11.846-21.708 15.07-25.075 2.0434-2.1333 4.574-4.3518 5.6236-4.9299 1.448-0.79762 1.7488-1.6868 1.2468-3.6866-0.5882-2.3436-1.0305-2.5756-3.994-2.0947-4.3259 0.702-10.128-2.2276-14.923-7.5355-3.8412-4.2517-5.11-8.3644-5.054-16.382 0.0219-3.135-0.38916-4.75-1.2089-4.75-2.0119 0-2.4674-3.9804-0.90165-7.8793 3.2375-8.0616 17.982-12.733 28.859-9.143 12.822 4.2318 15.446 25.317 4.8447 38.941-1.8618 2.3927-2.6804 4.4946-2.4657 6.3317 0.35539 3.0413 1.0833 3.2401 6.1951 1.692 1.9214-0.58189 7.5145-1.8491 12.429-2.8161l8.9358-1.7581 1.5642-4.5583c2.1867-6.3724 6.5456-9.7678 13.144-10.239 6.9744-0.4977 13.652 1.6259 18.194 5.7855 3.1373 2.8737 3.7266 4.0596 3.7266 7.5 0 2.2476-1.1271 6.6352-2.5047 9.7502l-2.5047 5.6636 2.9873 4.5101c2.2083 3.334 2.8228 5.1893 2.3562 7.1149-0.7448 3.0741-6.0849 9.662-8.5841 10.59-0.9625 0.35735-1.75 0.97228-1.75 1.3665 0 1.9258 11.304 11.444 17.5 14.735 16.315 8.6655 22.053 11.414 23.827 11.414 1.0353 0 4.1857 1.1569 7.0008 2.5708 2.8152 1.414 7.3805 3.1845 10.145 3.9344 6.6514 1.8043 11.147 3.3736 16.136 5.6335 2.2602 1.0237 5.4102 1.8718 7 1.8848 5.0561 0.0412 17.557 3.8314 28.108 8.5217 5.6195 2.4983 13.269 5.1541 17 5.9018 3.7305 0.7477 10.383 2.2586 14.783 3.3576s10.883 2.2978 14.406 2.664 9.1762 1.7086 12.562 2.9831c9.3402 3.5157 21.926 6.5482 27.177 6.5482 3.0103 0 5.3697 0.60808 6.5684 1.6929 3.5112 3.1776 42.486 4.7716 75.149 3.0734 10.986-0.57121 16.26-0.49444 17.157 0.24975 1.0912 0.90561 18.658 1.4777 28.481 0.92757 1.375-0.077 9.25 0.21333 17.5 0.64521 18.773 0.98277 19.892 0.96949 26-0.30853 5.4501-1.1404 17.984-0.29705 25.5 1.7157 2.475 0.66283 6.975 1.5589 10 1.9913 10.494 1.5 15.752 3.5733 22.958 9.0515 6.8348 5.196 8.8735 7.5968 5.2916 6.2313-0.9625-0.36692-4.0118-2.5065-6.7761-4.7546-6.5771-5.3488-11.145-7.0281-27.474-10.101-14.643-2.7558-22.789-3.2831-30.432-1.9697-5.3953 0.92718-11.252 0.95913-24.748 0.13501-9.8889-0.60382-19.218-0.71366-21.17-0.24923-2.0284 0.48272-8.2328 0.34882-14.819-0.31983-6.2316-0.63261-13.355-1.2128-15.83-1.2892-6.1308-0.18944-39.748 1.084-49.014 1.8566-4.7595 0.3969-9.158 0.17836-12-0.59623-2.4676-0.67254-6.5115-1.3863-8.9865-1.5861-12.57-1.0148-15.525-1.5095-17.758-2.9727-1.3367-0.87583-3.4004-1.3501-4.5861-1.054-1.1857 0.29614-3.9558 0.0803-6.1558-0.47954-2.2-0.55988-6.0002-1.4418-8.4448-1.9599s-9.1947-2.482-15-4.3643c-5.8053-1.8823-14.419-3.9068-19.142-4.4988-4.7226-0.59204-10.573-1.6853-13-2.4295-2.4274-0.7442-7.7176-2.1395-11.756-3.1006-4.0384-0.96111-11.913-3.8778-17.5-6.4815-5.5866-2.6037-13.758-5.5025-18.158-6.4418-4.4-0.93926-10.085-2.3614-12.634-3.1604-2.5488-0.79895-5.1808-1.4526-5.8489-1.4526-0.66807 0-2.6327-0.61152-4.3658-1.3589-1.7331-0.74741-6.4136-2.373-10.401-3.6125-3.9875-1.2394-7.25-2.5464-7.25-2.9044s-2.3625-1.203-5.25-1.8778-9.4398-3.3688-14.561-5.9866-11.236-5.7473-13.59-6.9544c-2.3536-1.2071-7.1341-4.9196-10.623-8.25-5.8853-5.6175-6.6779-6.0553-10.963-6.0553-3.5722 0-5.5556-0.68871-8.7514-3.0389-5.0705-3.7289-6.747-8.1753-5.8761-15.585 0.50377-4.2863 0.22869-6.1029-1.3781-9.1008-1.1041-2.0601-2.0075-4.3148-2.0075-5.0104 0-1.7512-2.6026-1.5838-9.5558 0.61459-3.2693 1.0337-8.6724 2.6941-12.007 3.6899l-6.0626 1.8105 0.69321 4.0601c0.38127 2.233 1.2386 6.5351 1.9052 9.5601 0.66658 3.025 1.3847 6.4361 1.5959 7.5803 0.30935 1.6762 0.95537 1.9964 3.3258 1.6485 2.1898-0.3214 3.4586 0.16937 4.9629 1.9197 1.1116 1.2933 2.9353 3.4179 4.0528 4.7212 1.5574 1.8164 1.7968 2.8087 1.0254 4.25-1.3956 2.6078-1.9628 2.4282-6.6958-2.1197-2.2895-2.2-5.0457-4-6.1247-4-2.6958 0-7.7617 4.4549-8.5253 7.497-0.39071 1.5567-1.3367 2.503-2.5022 2.503-2.3536 0-3.407-2.5264-1.7599-4.2211 0.68368-0.70342 2.6748-3.3039 4.4248-5.7789l3.1817-4.5-1.4177-6c-0.77973-3.3-1.7944-7.8-2.2548-10-0.51517-2.4617-1.3995-4-2.2996-4-0.80437 0-3.8238 3.573-6.7099 7.9399-5.5396 8.382-9.9181 20.34-10.457 28.56-0.28019 4.2708-0.16791 4.4865 2.2048 4.2344 11.125-1.1818 20.138 1.1692 25.354 6.6136 3.0782 3.213 3.3216 4.6218 2.2716 13.152-0.67492 5.4831-0.47358 7.3271 1.2869 11.787 2.5872 6.554 2.5975 8.4162 0.087 15.713-2.425 7.0484-2.4274 6.5 0.0285 6.5 1.1157 0 4.6441 1.3204 7.8409 2.9341 6.9641 3.5155 41.972 17.438 47.631 18.943 12.065 3.2082 31.472 6.7548 56 10.234 8.25 1.1703 17.925 2.543 21.5 3.0504 3.575 0.5074 12.44 1.2411 19.699 1.6305 15.364 0.82405 14.265 1.6859 14.287-11.203 0.0132-7.6355 0.12536-8.0105 3.2234-10.776 1.9751-1.7634 3.8022-2.6187 4.75-2.2235 0.84712 0.35318 3.275 1.053 5.3953 1.5551 2.1203 0.50214 5.0453 1.5124 6.5 2.2449 2.5797 1.299 11.574 2.5971 21.645 3.1238 11.615 0.60748 17.5 2.8282 17.5 6.6036 0 1.2563 0.81821 2.2845 2.0806 2.6147 1.5952 0.41716 1.9208 1.0369 1.3957 2.6564-0.37669 1.1618-0.90418 3.5061-1.1722 5.2097l-0.48733 3.0974 15.291 0.71203c9.156 0.42635 20.326 0.27446 27.842-0.3786 20.844-1.8112 48.117-3.9993 75.362-6.0463 14.196-1.0666 26.154-2.1515 26.574-2.4111 1.2593-0.77827 18.211-1.5798 42.615-2.0149 12.65-0.22555 27.025-0.94685 31.945-1.6029s11.332-0.9464 14.25-0.64525c4.1855 0.43198 5.3053 0.2462 5.3053-0.88019 0-1.0906 1.5351-1.4278 6.5-1.4278 6.9243 0 7.6964-0.60734 4.4764-3.5214-1.113-1.0072-1.6755-2.1599-1.25-2.5615 1.2084-1.1404 15.274-3.3373 20.274-3.1665 2.475 0.0845 7.3284-0.52475 10.785-1.354 3.4569-0.82925 10.657-1.6397 16-1.8011 9.2147-0.27824 14.444-1.1133 35.914-5.7355 5.0594-1.0892 11.584-1.907 14.5-1.8172 7.0054 0.21565 34.362-1.6534 35.625-2.434 0.54446-0.3365 6.9943-0.77303 14.333-0.97006 7.3387-0.19704 12.443-3e-3 11.343 0.43118-1.1 0.43419-5.375 0.82366-9.5 0.86551-4.125 0.0418-10.2 0.5428-13.5 1.1132-8.8155 1.5238-29.055 3.1907-36.303 2.9899-3.4669-0.096-9.3169 0.53886-13 1.4109-14.196 3.3612-27.922 5.8862-33.197 6.1068-11.713 0.4899-21.293 1.5299-23.125 2.5107-1.0525 0.56329-4.2674 0.94165-7.1442 0.8408-6.7563-0.23686-18.643 1.141-19.322 2.2398-0.28974 0.46882-0.0503 0.85239 0.53221 0.85239 0.58246 0 1.059 0.67814 1.059 1.507 0 1.2737 1.1224 1.3898 7.25 0.75 21.112-2.2044 84.998 1.1334 118.25 6.1781 21.318 3.2342 56.277 6.2372 83 7.1298 9.35 0.31233 23.3 1.2954 31 2.1845 21.24 2.4526 45.298 2.2305 59.5-0.54953 20.224-3.9587 20.835-4.1711 21.567-7.5035 0.4156-1.892 0.2026-3.2208-0.5951-3.7139-0.9604-0.59357-0.9846-1.5064-0.1069-4.0243 0.6244-1.7911 1.1353-4.3359 1.1353-5.6551s1.0934-3.412 2.43-4.6506c3.0796-2.854 8.1111-3.3218 25.57-2.377 3.575 0.19345 8.1972 0.0443 10.272-0.3315 2.1288-0.38565 4.0298-0.26533 4.3646 0.27624 0.3262 0.52791 2.1609 0.66533 4.0788 0.30552 2.5758-0.48322 3.9818-0.20514 5.3855 1.0652 1.0448 0.94553 1.8996 1.2475 1.8996 0.67114s0.6764-1.3076 1.5032-1.6248c2.2067-0.84679 8.0652 5.9331 7.6783 8.8858-0.203 1.5492 0.3903 2.7127 1.7559 3.4436 1.1344 0.60711 2.0626 1.763 2.0626 2.5687 0 1.9532-1.9055 1.8746-2.6671-0.11003-0.462-1.2039-0.9528-0.8554-2.0835 1.4794-0.8136 1.6798-1.2196 3.7307-0.9024 4.5574 0.6981 1.8192 1.9319 1.6437 21.653-3.0808 33.009-7.9077 40.212-9.8843 55-15.093 8.525-3.0026 19.55-6.6967 24.5-8.2092s11.201-3.7267 13.89-4.9205c5.0591-2.2454 7.6096-1.7364 7.6096 1.5187 0 1.738-8.5445 5.6351-18.255 8.326-3.9296 1.089-13.467 4.2849-21.195 7.1021-7.7276 2.8172-17.435 5.7179-21.571 6.446-4.1366 0.7281-8.852 1.8298-10.479 2.4483-1.6267 0.61848-7.9172 1.9859-13.979 3.0388-6.0617 1.0528-14.54 2.8144-18.84 3.9146-4.3006 1.1002-9.825 2.1727-12.277 2.3834-3.9475 0.33926-7.5861 1.6634-4.5709 1.6634 0.6417 0 1.1667 0.675 1.1667 1.5s-0.675 1.5-1.5 1.5c-1.8977 0-1.8966 0.98874 0 3.7021 1.3386 1.9111 1.3386 2.3125 0 3.6511-2.0183 2.0183-1.9016 4.561 0.2461 5.363 0.9625 0.35939 3.775 1.8764 6.25 3.3712 2.475 1.4948 6.4985 3.8277 8.9411 5.1843 13.625 7.5673 19.114 15.803 24.576 36.873 1.549 5.9757 1.6097 8.6429 0.6033 26.5-1.0166 18.037-1.5262 21.504-5.5644 37.856-2.4449 9.9-4.0203 18.15-3.5007 18.333 0.5195 0.18334 0.9445 1.019 0.9445 1.857 0 0.94352-0.5711 1.3045-1.5 0.94805-0.825-0.31658-1.5-0.39595-1.5-0.17639 0 0.21957-1.35 5.7892-3 12.377-3.5586 14.208-3.5371 13.957-1 11.661 1.7563-1.5894 2-1.6137 2-0.1994 0 0.88582-1.1364 3.2852-2.5253 5.3319-1.389 2.0467-2.7817 4.8792-3.095 6.2944-113 111.11-221.37 239.13 37.124 72.653 4.95-3.1996 10.575-6.8338 12.5-8.076 9.6306-6.2144 26.148-15.689 26.587-15.25 0.7133 0.71334-4.3935 4.6419-11.746 9.0359-208.6 121.55-180.34 135.62 1.1591 21.279 5.775-3.6903 17.925-10.354 27-14.808s19.147-10.089 22.382-12.521 10.885-7.6958 17-11.696 12.527-8.6855 14.25-10.411l3.132-3.1378-1.5694-4.2468c-0.9274-2.5097-1.5949-7.6253-1.6319-12.506-0.053-6.9471-0.301-8.1572-1.5626-7.615-0.825 0.35452-3.5581 1.1463-6.0734 1.7596-3.761 0.91691-6.6299 3.0405-16.148 11.953-13.113 12.279-27.486 23.273-36.158 27.658-3.2335 1.6352-6.496 3.485-7.25 4.1108s-1.3709 0.7332-1.3709 0.23875 4.2672-3.7713 9.4826-7.2819 10.278-7.1027 11.25-7.9824 3.7924-3.1504 6.2674-5.0458c2.475-1.8954 9.225-8.1224 15-13.838 10.34-10.234 15.158-13.836 16.99-12.704 0.512 0.31643 3.5363-0.76806 6.7207-2.41 4.2403-2.1864 6.6846-4.3248 9.1338-7.9908 4.336-6.4901 9.859-9.2458 19.811-9.8844 11.046-0.70886 18.796 2.9617 22.864 10.828 1.366 2.6414 1.6131 5.1762 1.2556 12.876-0.525 11.308-3.9985 20.952-9.6372 26.758-4.3378 4.4665-7.8571 5.9421-16.309 6.8382-5.8773 0.62315-7.1571 0.43448-10.75-1.5849-2.2432-1.2607-4.0785-2.6435-4.0785-3.0729s-0.8191-1.219-1.8202-1.7548c-1.4592-0.78093-2.6497-0.19289-6.002 2.9648-2.3 2.1664-4.8233 3.939-5.6072 3.939-0.784 0-2.2456 1.0175-3.248 2.2611-1.0024 1.2436-3.7678 3.1267-6.1452 4.1846-2.3774 1.0579-4.8635 2.6958-5.5246 3.6396-0.6612 0.94388-2.991 2.7463-5.1774 4.0053-2.1865 1.259-5.4536 3.5537-7.2602 5.0992s-3.9337 2.8101-4.7268 2.8101c-2.0902 0-37.07 17.444-41.017 20.454-1.8357 1.4001-3.7938 2.5457-4.3514 2.5457-1.2682 0-10.352 4.7908-11.081 5.8444-0.8182 1.182-11.623 7.4784-20.038 11.677-404.77 313.34-297.1 309.46-753.5 83.064zm187.57-187.09c-1.689-9.3516-3.6767-14.444-11.681-29.925-5.1416-9.9442-9.1349-19.567-12.924-31.142-5.5305-16.896-13.332-34.431-20.078-45.126-4.9986-7.9252-15.313-17.795-24.879-23.807-8.8501-5.5621-10.68-6.4746-25.007-12.472-5.5-2.3023-12.236-5.3313-14.969-6.7312s-7.6829-2.9259-11-3.3912-6.9178-0.97199-8.0017-1.1259c-1.7738-0.2519-2.0739 0.62342-3.0049 8.7657-1.2375 10.822-1.0534 12.162 1.7898 13.021 2.9283 0.88529 23.264 14.541 27.784 18.657 4.743 4.3195 12.265 16.009 14.335 22.277 0.90805 2.75 3.1959 8.825 5.0841 13.5 4.2272 10.466 8.0503 23.688 8.9639 31 0.37795 3.025 1.2924 7.975 2.0322 11 0.73977 3.025 1.6514 8.2 2.0259 11.5s1.7313 11.664 3.0152 18.587c1.2839 6.9227 2.3998 16.373 2.4798 21-52.931 319.69 112.98 247.68 64.035-15.587zm494.27-6.1818c4.5182-7.05 9.1039-14.605 10.191-16.788 2.2448-4.5103 7.8807-13.615 17.163-27.727 14.836-22.555 19.357-40.782 14.338-57.803-3.7818-12.826-6.3917-19.179-8.9624-21.818-5.4641-5.6087-9.325-8.3506-12.479-8.8625-3.1526-0.51159-3.3087-0.3737-4.5353 4.0071-0.6986 2.4953-1.3982 6.0301-1.5545 7.855-0.2404 2.8054-0.6386 3.2761-2.5773 3.0465-3.0605-0.36245-3.1387-0.51412-1.9191-3.7218 0.5794-1.5239 0.7862-3.6127 0.4596-4.6418-0.3436-1.0826 0.087-2.5519 1.0221-3.4869 1.4879-1.4879 1.4339-1.7064-0.6816-2.7578-1.2637-0.62801-4.4351-1.2675-7.0476-1.4211-3.6418-0.21408-4.75 0.0642-4.75 1.1927 0 0.80958-1.3955 2.4657-3.1012 3.6802-3.4496 2.4563-12.096 2.9439-17.277 0.97428-2.8051-1.0665-2.8185-1.1138-2.2059-7.8097 0.339-3.7052 0.7172-11.325 0.8405-16.933 0.2585-11.766-0.046-11.431 10.744-11.827 5.3877-0.19774 7.0134 0.14225 9.5 1.9868 1.8934 1.4045 5.0905 2.4374 8.6672 2.8001l5.6671 0.57481-0.048-5.3902c-0.041-4.5372-0.4233-5.6358-2.4172-6.9422-3.0754-2.0151-3.0091-4.9623 0.1739-7.7299 2.2114-1.9228 2.5167-2.9313 2.3439-7.7434-0.1093-3.043-0.3864-6.0556-0.6159-6.6948-0.7357-2.0496-46.638-4.1073-48.944-2.194-0.9682 0.80353-1.699 0.79206-2.7046-0.0425-2.0927-1.7368-2.6416 1.8112-1.0067 6.5077 0.745 2.14 1.3613 6.2534 1.3695 9.1409 0.016 5.5434 1.4553 6.8344 4.0858 3.6648 0.8108-0.97692 2.3662-1.431 4.0537-1.1833 1.8819 0.2762 2.8685-0.0881 3.1549-1.1648 0.4671-1.7565 19.775-13.555 23.835-14.565 3.2526-0.8091 5.0944 2.3681 2.3178 3.9984-3.8981 2.2889-15.04 9.9903-16.393 11.331-0.8032 0.79594-2.9245 2.0589-4.714 2.8066s-3.7079 2.2084-4.2633 3.2461c-1.2313 2.3008-5.781 3.5951-7.5313 2.1425-0.7027-0.58318-2.0096-0.77941-2.9044-0.43607-1.4503 0.55653-1.6267 3.7531-1.6267 29.472v28.848l3.587 0.67294c4.8395 0.90788 30.41-0.29674 37.534-1.7682 4.592-0.94846 6.0393-0.92571 7.2928 0.11462 2.4179 2.0067 0.9252 3.0713-4.3065 3.0713-2.6258 0-5.011 0.23669-5.3002 0.52597-0.2893 0.28929-5.6346 0.76328-11.878 1.0533-6.2438 0.29004-11.903 0.98457-12.577 1.5434-0.8318 0.69033-1.865 0.67324-3.2225-0.0533-1.099-0.58816-3.3107-1.0694-4.9147-1.0694-10.009 0-12.714-4.8698-12.221-22 0.3683-12.788 0.1911-38.148-0.2698-38.609-0.1629-0.16296-6.13 0.79647-13.26 2.1321-16.123 3.02-31.94 3.9384-44.964 2.6108-17.262-1.7596-35.078-3.0789-63.5-4.7022-37.976-2.1689-49.752-3.1025-62.5-4.955-29.912-4.3466-40.681-5.3429-70-6.4758-44.605-1.7235-61.064-1.3005-62.176 1.5982-0.2783 0.72524-0.0172 2.7997 0.58018 4.6099l1.0862 3.2912h19.255c22.914 0 25.758 0.82593 29.393 8.5346 1.1759 2.494 2.8634 5.1366 3.75 5.8724 2.0289 1.6838 2.1158 7.8787 0.1411 10.061-1.1887 1.3135-1.5167 6.0279-1.7097 24.579-0.13135 12.624 0.13943 28.128 0.60173 34.453s0.91877 22.357 1.0144 35.627c0.13947 19.357 0.46686 24.597 1.6559 26.5 5.0404 8.0687 4.9883 10.951-0.34151 18.891-3.6012 5.365-5.1659 6.7454-10.25 9.0428-12.97 5.8609-41.038 11.536-51.811 10.475-9.062-0.89202-20.708-3.3542-23.189-4.9025-1.1-0.6866-3.8399-1.7816-6.0886-2.4334-5.8704-1.7014-12.023-6.5195-14.483-11.342-1.8353-3.5974-2.0478-5.2747-1.5543-12.263 0.89942-12.735 1.6038-40.893 2.0465-81.803 0.22437-20.739 0.65974-38.114 0.96747-38.612s0.0415-4.7771-0.59168-9.5092c-1.0401-7.7736-0.97218-8.972 0.70388-12.418 1.6752-3.444 2.4924-3.9876 8.4275-5.6059 3.6148-0.98562 11.747-2.284 18.072-2.8852s11.629-1.1858 11.787-1.299c0.15809-0.11318-0.25655-1.3997-0.92144-2.859-1.615-3.5445-4.1684-4.0198-16.733-3.1141-5.8484 0.42157-25.018 0.90095-42.6 1.0653-17.582 0.16432-34.682 0.78628-38 1.3821-3.3185 0.59584-15.934 1.7526-28.034 2.5705-12.1 0.81793-26.05 1.921-31 2.4514-30.154 3.2306-47.824 4.5429-61.5 4.5676-8.525 0.0154-18.732 0.12792-22.683 0.25-7.7312 0.23891-7.4194-6e-3 -8.8069 6.9024-0.7916 3.941 0.57335 4.8153 9.8251 6.2933 3.6439 0.58211 9.8965 2.5986 13.895 4.481 3.9983 1.8825 12.711 5.849 19.362 8.8146 14.024 6.2533 24.54 12.964 32.488 20.731 12.424 12.141 23.996 33.532 32.543 60.157 4.3422 13.526 9.9994 26.445 17.738 40.504 4.0215 7.3066 6.1796 13.331 8.1815 22.839 83.151 60.647 426.2 93.062 489.79-7.1817zm-294.67-7.0682c0.0485-0.6875 0.14449-2.3846 0.21324-3.7714 30.065-26.167-2.0995 40.848-0.21324 3.7714zm0.28432-30.717c0.62908-0.3888 0.59027-1.4571-0.10869-2.9912-0.78832-1.7302-0.77795-3.2737 0.0377-5.6135 1.6636-4.7722 1.427-5.6278-1.875-6.7789-3.775-1.316-3.9507-3.4041-0.25-2.9714 143.57-1.5348-15.863 30.397 2.196 18.355zm273.38-49.312c-1.8695-1.1891-3.8148-10.131-2.4918-11.454 1.1914-1.1914 1.4417-0.74885 2.6768 4.7322l0.676 3 2.3917-4.6812c4.3119-8.4394 6.5099-7.9112 3.2708 0.78606-3.0491 8.1869-3.9581 9.2482-6.5235 7.6166zm46.012-0.78863c-0.3307-0.86197-0.092-2.077 0.5314-2.7 0.623-0.62303 1.1259-1.6053 1.1175-2.1828-0.01-0.5775-0.4447-0.375-0.9695 0.45-0.7572 1.1903-1.3402 1.2609-2.8242 0.34177-1.1552-0.71549-2.4091-0.81691-3.2805-0.26531-1.9205 1.2158-6.9105 1.1606-6.9105-0.0765 0-1.8912-1.6805-0.99665-2.818 1.5-0.6265 1.375-1.9796 2.5-3.0069 2.5-2.1358 0-7.8495-2.6642-8.7142-4.0633-0.9688-1.5675-2.1973-1.0525-2.777 1.1639-0.3386 1.295-1.0026 1.8204-1.7313 1.3701-1.5058-0.93063-0.7474-9.8081 1.0199-11.938 1.8752-2.2595 5.7588-1.9038 7.1269 0.65264 1.0094 1.886 0.8149 2.4911-1.4173 4.4112-2.1635 1.8609-2.3258 2.3257-0.9915 2.8377 1.8579 0.71293 1.6084 0.95846 3.274-3.223 1.3614-3.4181 4.3618-5.7461 6.0561-4.699 1.6865 1.0424 1.0764 3.481-1.5207 6.0781-2.7716 2.7716-3.2006 4.4091-1.155 4.4091 2.1174 0 4.655-3.4054 4.655-6.247 0-3.2164 0.929-5.753 2.107-5.753 0.4911 0 0.893 2.25 0.893 5s0.45 5 1 5 1-0.86786 1-1.9286c0-1.0607 0.7071-2.6357 1.5714-3.5 2.0334-2.0334 4.8388-2.0826 4.067-0.0714-0.6703 1.7468 2.3603 2.1013 3.9944 0.46722 1.4645-1.4645 4.3672-0.0977 4.3672 2.0564 0 0.99532 0.5625 2.0159 1.25 2.268 1 0.36666 1 0.72333 0 1.7833-0.6875 0.72875-1.25 2.36-1.25 3.625 0 2.7048-3.6852 3.2838-4.6642 0.73278zm-25.795-11.499c1.0763-1.7414-0.1495-2.1102-1.521-0.45764-0.7888 0.95039-0.8647 1.5242-0.2016 1.5242 0.5849 0 1.3601-0.47994 1.7226-1.0665zm-35.541 11.067c0-0.55 0.6199-1 1.3776-1 0.7576 0 1.9377-0.675 2.6224-1.5 1.0401-1.2532 0.8957-1.5-0.8776-1.5-1.8488 0-2.1224-0.58013-2.1224-4.5 0-4.1043 0.2146-4.5 2.441-4.5 1.3425 0 2.7236 0.45734 3.0691 1.0163 0.3454 0.55897 1.0159 0.77663 1.4899 0.48369s1.1464-0.0721 1.4943 0.49075c0.9716 1.572-2.3259 2.3939-4.007 0.99868-1.2385-1.0279-1.4873-0.87199-1.4873 0.93196 0 1.1915 0.5625 2.0932 1.25 2.004 4.3146-0.56027 4.9011 1.3416 1.6774 5.4398-2.0225 2.5713-6.9274 3.7288-6.9274 1.6349zm70-4c0-1.8667 0.2667-2.1333 1.2-1.2s0.9333 1.4667 0 2.4-1.2 0.66667-1.2-1.2zm-23.306-20.639c-0.3518-0.35171-0.4123-1.0071-0.1347-1.4563 0.6235-1.0088 3.4408-0.024 3.4408 1.2028 0 1.0261-2.3531 1.2065-3.3061 0.25353zm202.05 156.73c6.3346-1.2256 10.823-4.8244 14.458-11.593 2.8427-5.2922 3.2695-7.1206 3.6186-15.5 0.5489-13.176-0.653-17.041-6.5039-20.916-2.9834-1.9762-5.917-3.0836-8.1683-3.0836-5.8492 0-14.622 2.9857-18.241 6.2081-2.1916 1.9515-2.6914 2.7716-1.4036 2.3029 6.6036-2.4033 8.7788-2.6608 10.229-1.2108 1.5766 1.5766 0.7412 4.2201-2.5122 7.9499-1.4877 1.7056-7.2013 2.4956-7.2318 1-0.01-0.4125-0.3867-1.3355-0.8407-2.0512-1.1804-1.8611-5.6001 0.31203-7.0337 3.4585-1.4173 3.1105-1.428 12.195-0.021 17.783 0.9 3.5742 1.4291 4.237 3.0452 3.8144 1.0757-0.28132 2.8027-2.1713 3.8376-4.1999 1.035-2.0286 2.6383-4.3164 3.563-5.0838 1.4612-1.2126 1.8636-1.1461 3.0731 0.50803 1.7726 2.4241 1.7925 6.9775 0.038 8.7318-0.7444 0.74442-3.225 2.1974-5.5124 3.2289-4.0449 1.824-4.1107 1.9299-2.3966 3.8611 4.6702 5.2617 9.2598 6.4834 18.002 4.792zm-5.0925-23.843c0.5905-11.837 2.1759-18.432 4.3303-18.013 0.8376 0.16278 1.5835 0.96359 1.6576 1.7796 0.074 0.816 0.1865 2.0461 0.25 2.7336 0.063 0.6875 1.2137 1.25 2.5563 1.25 1.3425 0 2.6408 0.3375 2.885 0.75s0.1582 3.6699-0.191 7.2387c-0.5184 5.2976-0.9841 6.5555-2.5369 6.8526-2.2599 0.43231-5.0301 2.9691-5.9066 5.4087-0.3458 0.9625-1.2818 1.75-2.08 1.75-1.2023 0-1.3678-1.6721-0.9647-9.75zm-11.218 0.75c0-1.2952 0.3381-1.6333 0.9857-0.98571 0.6476 0.64761 0.6476 1.3238 0 1.9714-0.6476 0.64762-0.9857 0.30953-0.9857-0.98571zm-170.38 0c6.6824-13.481 7.1613-14.343 9.6233-17.327 1.2828-1.5547 2.3323-3.6413 2.3323-4.637s1.6299-8.0486 3.622-15.673c10.841-41.495 12.295-50.114 12.441-73.796 0.124-20.08-1.2917-27.767-7.5931-41.229-1.9177-4.0969-10.837-12.135-16.042-14.458-2.2399-0.99944-5.7893-3.1814-7.8875-4.8488-2.0981-1.6674-4.6733-3.0316-5.7226-3.0316-2.0809 0-2.0171 1.7118 0.4663 12.5 1.286 5.5864 2.0699 6.4626 5.8012 6.4847 1.5704 9e-3 3.586 1.139 5.1361 2.8788 1.4033 1.5749 3.4086 3.4874 4.4562 4.25 3.1197 2.2708 5.9987 7.1212 6.7584 11.386 0.3919 2.2 1.2767 4.9 1.9661 6 2.23 3.5578 4.7874 16.532 4.9028 24.872 0.1793 12.963-4.9664 25.268-20.961 50.128-4.9543 7.7-11.198 17.825-13.875 22.5-2.6772 4.675-7.6087 12.55-10.959 17.5-35.558 42.095 8.689 50.191 25.536 16.5zm-379.54-15.62c4.95-0.81984 11.88-2.1498 15.4-2.9556 7.2926-1.6694 19.1-6.9902 19.1-8.6071 0-1.5355-7.7495-0.34865-9.8276 1.5051-2.392 2.1337-6.7377 2.5913-6.4354 0.67769 0.20366-1.2891-1.8337-1.4516-14.491-1.1561-8.1006 0.18917-15.49 0.75167-16.421 1.25-2.711 1.4509-15.519 1.0603-19.479-0.59394-4.8944-2.045-6.7636-1.9643-5.7915 0.25 0.42253 0.9625 0.74328 2.7625 0.71278 4s0.398 2.25 0.95225 2.25c0.55424 0 0.8097-1.3491 0.5677-2.998-0.42553-2.8993-0.37688-2.9408 1.4787-1.2616 1.407 1.2734 1.7802 2.5893 1.3996 4.9352l-0.51909 3.1988 5.6769 0.63934c3.1223 0.35164 6.1269 0.77633 6.6769 0.94376 1.6065 0.48905 11.284-0.46837 21-2.0775zm556.5-1.4236c0-0.53914-0.8921-0.41615-2 0.27573-1.1 0.68696-2 1.6066-2 2.0437s0.9 0.31297 2-0.27573 2-1.5084 2-2.0437zm-596-1.4563c-0.68469-0.825-1.9773-1.484-2.8724-1.4646-1.1199 0.0244-0.84777 0.4812 0.87244 1.4646 3.2092 1.8345 3.5225 1.8345 2 0zm-8.5-4.5c-1.883-2.0806-3.5-2.6132-3.5-1.1528 0 0.46595 1.0125 1.3355 2.25 1.9323 3.1788 1.5331 3.2837 1.4677 1.25-0.77951zm3.5-1c0-0.55-0.47656-1-1.059-1s-0.7809 0.45-0.44098 1 0.81648 1 1.059 1 0.44098-0.45 0.44098-1zm43.674-8.4065c-0.0956-0.52208 1.1762-1.3803 2.8262-1.9072 1.65-0.52687 5.3573-1.847 8.2384-2.9336 2.8811-1.0866 5.9186-1.7146 6.75-1.3956 1.8329 0.70336 1.9759 3.7491 0.26159 5.5719-1.0277 1.0927-0.7634 1.2144 1.486 0.68446 1.5048-0.35456 6.2198-0.89014 10.478-1.1902 4.258-0.30004 7.9433-0.74713 8.1897-0.99354 0.62917-0.62917 0.2764-65.525-0.39916-73.43-0.30552-3.575-0.54933-20-0.54181-36.5 8e-3 -16.5-0.40876-31.8-0.92507-34-1.3787-5.8748-3.828-7.4704-9.7479-6.3504-11.51 2.1775-19.906 2.9182-43.141 3.8055-13.598 0.51932-25.398 1.203-26.222 1.5194-1.717 0.65888-4.2276 5.2475-5.9795 10.928-2.9384 9.529-2.6227 33.609 0.61431 46.853 0.42846 1.753 0.17589 3.3611-0.69412 4.4194-0.93805 1.141-1.4208 4.9873-1.5367 12.244-0.0929 5.8193-0.47319 20.503-0.84499 32.629-0.59776 19.497-0.4914 22.202 0.919 23.372 2.0381 1.6914 2.0158 3.5579-0.0848 7.114-1.3363 2.2622-1.45 3.3162-0.55574 5.1543 1.0198 2.0962 1.0713 2.0091 0.55484-0.93944-0.78523-4.483 0.10679-4.0671 2.6807 1.25 1.5544 3.2111 2.7793 4.5 4.2763 4.5 1.9905 0 1.9603-0.14362-0.58921-2.8047-4.9998-5.2187-2.9367-5.8365 2.4472-0.73275 3.3532 3.1787 4.2041 3.4735 11 3.8117 13.577 0.67557 30.718 0.29351 30.539-0.68069zm-5.1738-15.594c-1.65-0.41985-4.8225-0.81661-7.05-0.88169-2.2275-0.0651-4.4775-0.53368-5-1.0414s-2.2555-1.0702-3.8511-1.25c-1.7595-0.19829-3.719-1.4271-4.9795-3.1228-1.9006-2.5567-1.9518-3.0184-0.5989-5.3977 1.6629-2.9244 9.9728-6.1294 16.18-6.2403 2.0354-0.0364 5.9976-0.55874 8.8049-1.1608 5.6375-1.209 9.0452-0.71163 11.424 1.6676 2.0807 2.0807 1.981 5.3023-0.331 10.696-1.5211 3.5486-2.724 4.764-6.0202 6.0829-2.2656 0.90652-4.4477 1.595-4.8491 1.5299-0.40137-0.0651-2.0798-0.46184-3.7298-0.88169zm10.485-7.1312c1.8141-2.2574 2.9427-4.6144 2.6165-5.4644-0.89046-2.3205-7.5085-4.6786-11.032-3.931-1.6882 0.35816-5.5444 0.87668-8.5694 1.1523s-5.9275 0.92253-6.45 1.4377-1.7442 0.93662-2.7148 0.93662-2.2665 0.93743-2.8797 2.0832c-1.5642 2.9227 1.0632 5.5801 6.3836 6.4566 2.2885 0.377 4.6878 0.97228 5.3317 1.3228 0.64395 0.35057 4.0854 0.48854 7.6476 0.30661 6.1896-0.31613 6.6182-0.5068 9.6668-4.3004zm-26.039-11.923c-1.137-0.71936-0.98807-0.91819 0.69689-0.93023 3.0557-0.0218 3.6986-2.6626 1.0926-4.4879-2.7863-1.9516-6.1375-1.953-7.7557-3e-3 -0.69572 0.83829-1.4981 1.291-1.783 1.0061-0.84838-0.84839 2.9814-4.5306 4.708-4.5266 2.8339 7e-3 8.095 3.8713 8.095 5.9464 0 2.4534-3.0517 4.2621-5.0539 2.9954zm-24.696-1.6909c-3.31-1.6473-4.5329-5.2546-1.7814-5.2546 0.84482 0 1.2414 0.59198 0.93379 1.3937-0.63132 1.6452 4.665 4.6058 7.3292 4.097 0.97259-0.18573 2.09-0.37213 2.4832-0.41421 0.39315-0.0421 1.2246-1.029 1.8476-2.1932 1.6376-3.06-0.61984-4.8741-6.6349-5.3318-6.2907-0.47864-6.206-0.44938-4.3863-1.5148 2.537-1.4855 9.6361-9e-3 11.987 2.4928 1.8499 1.9691 1.9743 2.603 0.90821 4.6261-0.67946 1.2894-1.7305 2.675-2.3357 3.079-1.8247 1.2184-6.8982 0.738-10.35-0.98007zm47.603-2.194c-1.8439-0.98889-3.327-2.1946-3.2958-2.6793 0.0312-0.48472 1.7932-1.8554 3.9156-3.0459 3.5417-1.9867 4.0507-2.0388 6.1933-0.63499 6.0024 3.9329-0.32504 9.8397-6.813 6.3601zm6.51-2.2626c1.5072-2.4047 0.4597-2.9805-3.1396-1.7258-2.1068 0.73445-2.9197 1.5545-2.5349 2.5574 0.72821 1.8977 4.2911 1.3756 5.6744-0.83155zm12.638-3.7789c0-0.56048 0.64991-1.019 1.4442-1.019s2.6922-1.0735 4.2175-2.3855c2.3412-2.0138 2.5722-2.6278 1.4826-3.9406-1.4925-1.7983-4.0398-1.146-5.9628 1.5269-0.72513 1.0079-1.6984 1.5977-2.1628 1.3107s-1.7694 0.71794-2.8999 2.2333c-1.4573 1.9534-2.0647 2.2815-2.0872 1.1276-0.0174-0.89515 0.62893-2.1758 1.4364-2.8459 0.80742-0.67009 1.3699-1.7294 1.25-2.3541-0.11992-0.62465 1.5295-1.9972 3.6654-3.0502 5.2852-2.6055 8.9892-1.3935 9.4253 3.0842 0.23638 2.4272-0.23245 3.5086-2 4.613-3.1336 1.958-7.8088 2.9755-7.8088 1.6996zm-32.75-4.701c-1.7875-0.24463-3.25-0.7705-3.25-1.1686s-0.95086-0.79547-2.113-0.88301c-2.9351-0.2211-3.0396-0.45983-2.2799-5.2104 0.43908-2.7459 1.7964-5.4017 3.9012-7.6335 2.8658-3.0387 3.8074-3.4226 8.395-3.4226 6.5123 0 9.7663 2.059 11.104 7.0262 2.2329 8.2922-4.1664 12.878-15.757 11.292zm9.453-3.5477c3.7666-1.6559 4.4464-2.7523 3.8207-6.1626-1.196-6.5193-7.8601-7.535-12.954-1.9743-1.8365 2.0047-3.8248 3.3268-4.4355 2.9493-0.76803-0.47467-0.85348 9.8e-4 -0.27909 1.5537 0.71772 1.9402 4.4127 3.6302 10.348 4.733 0.38662 0.0718 1.9616-0.42273 3.5-1.099zm-10.176-8.5772c-0.30789-0.30789-1.1148-6.4e-4 -1.7931 0.68278-0.98026 0.98762-0.8654 1.1025 0.5598 0.5598 0.98622-0.37553 1.5412-0.93469 1.2333-1.2426zm-28.166-5.6954c-0.31706-0.82623-0.29572-2.6208 0.0474-3.9879 0.34313-1.3671 0.063-3.3838-0.6226-4.4816-1.0304-1.6499-0.96669-2.2757 0.36731-3.6097 1.3111-1.3111 2.0254-1.3935 3.808-0.43947 1.3112 0.70173 1.9683 1.763 1.6329 2.6372-0.5754 1.4995 1.3102 5.3838 2.6135 5.3838 0.39938 0 0.58957-2.2833 0.42264-5.074-0.26741-4.4703-0.0894-5.018 1.4965-4.6032 1.8478 0.4832 4.6067-1.7802 3.1721-2.6024-0.43921-0.25173-2.4774-0.76057-4.5294-1.1308-3.0836-0.55629-3.6908-1.0561-3.5-2.8813 0.14621-1.3988-0.319-2.2083-1.2692-2.2083-1.1028 0-1.4107 0.89042-1.1628 3.3624 0.24112 2.4046-0.03 3.24-0.95181 2.9327-1.4987-0.49957-3.988-9.364-3.2036-11.408 0.57546-1.4996 2.3182-1.9162 2.3182-0.55406 0 0.45809 1.0125 0.75829 2.25 0.66712 1.2375-0.0912 2.25-0.80347 2.25-1.5829 0-1.838 2.7583-3.6421 3.2613-2.1331 0.45124 1.3537 2.991 0.46363 5.3186-1.8639 1.6436-1.6436 1.5489-1.7672-1.8409-2.4031-2.7176-0.50982-3.7859-0.29115-4.4597 0.9129-0.68378 1.2218-1.3305 1.3455-2.8327 0.54152-1.5359-0.82199-1.9466-0.71788-1.9466 0.49339 0 2.0744-1.715 1.9449-2.8465-0.21482-1.6066-3.0664-2.4956-8.5795-1.2604-7.8161 0.62133 0.384 1.1069 0.0261 1.1069-0.81588 0-2.2302 1.8694-2.9713 3.688-1.462 1.4062 1.1671 1.5141 1.0562 0.88881-0.91391-0.8496-2.6768 1.4371-3.1352 3.463-0.69413 1.056 1.2724 0.98365 2.2071-0.40646 5.25l-1.6912 3.702 2.9506-3.4919c1.9811-2.3446 2.6389-3.8674 2.002-4.6348-1.2986-1.5648 3.5543-2.7385 5.9722-1.4444 1.8997 1.0167 2.7334 6.5821 1.1341 7.5705-0.90032 0.55643-0.53117 8.3039 0.44204 9.2771 0.30628 0.30629 0.55688 0.0319 0.55688-0.60978 0-0.64167 0.45-1.1667 1-1.1667 1.3688 0 1.2625 6.3297-0.15866 9.4489-0.96039 2.1078-0.85806 2.8752 0.59796 4.484 1.0404 1.1497 1.4358 2.4602 0.96969 3.2143-0.43281 0.70031-0.90529 3.1812-1.05 5.5132-0.20243 3.263 0.0547 4.118 1.116 3.7108 0.99987-0.38369 1.2238 0.0646 0.81429 1.6304-0.43513 1.6639-1.0496 2.0065-2.677 1.4924-4.6121-1.4568-10.588-2.118-11.441-1.2658-0.53372 0.53372-1.5178 0.28275-2.417-0.61638-1.8947-1.8947-2.7548-1.0971-2.7548 2.5548 0 3.0067-1.6726 3.8502-2.6392 1.3311zm14.139-7.4978c0.33992-0.55 0.14148-1-0.44098-1s-1.059 0.45-1.059 1 0.19844 1 0.44098 1 0.7191-0.45 1.059-1zm2.0884-13.745c-1.0924-1.0924-1.8415 0.64486-1.0572 2.4518 0.74368 1.7134 0.79759 1.7118 1.2119-0.0351 0.2385-1.0056 0.16886-2.093-0.15476-2.4167zm-6.9053-0.44256c-0.31922-0.79773-0.55618-0.56078-0.60416 0.60417-0.0434 1.0542 0.19293 1.6448 0.52522 1.3125s0.36781-1.1948 0.0789-1.9167zm3.3169-5.9305c0-0.55-0.45-0.72189-1-0.38197s-1 1.068-1 1.618 0.45 0.72189 1 0.38197 1-1.068 1-1.618zm-9-10.441c0-0.85746-0.45-1.2809-1-0.94098s-1 1.0415-1 1.559 0.45 0.94098 1 0.94098 1-0.70156 1-1.559zm35.641 29.956c-0.3525-2.5718-0.64091-6.7934-0.64091-9.3814 0-3.4819-0.53592-5.1904-2.061-6.5707-1.7652-1.5975-2.1956-1.6556-2.9982-0.40499-0.51541 0.80313-0.64505 3.4847-0.28809 5.9591 1.0768 7.4643 0.96434 8.4398-1.0179 8.8275-1.2179 0.23816-1.7077-0.10219-1.4115-0.98078 0.24953-0.74002-0.14527-3.5955-0.87734-6.3455-1.1583-4.3511-1.1205-5.592 0.29143-9.5621 1.4211-3.9959 1.4667-5.6592 0.36758-13.402-1.4977-10.551-2.9232-9.6433-3.5161 2.2379-0.21207 4.2497-0.42314 7.9516-0.46905 8.2266-0.0459 0.275-0.74415-0.37351-1.5516-1.4411-2.8136-3.7199-1.1792-20.559 1.9955-20.559 2.2656 0 2.3465-2.2655 0.2372-6.6439-1.098-2.2791-1.7189-4.8666-1.38-5.75 0.79277-2.0659 4.9152-2.0625 9.278 8e-3 4.1914 1.989 4.432 4.7728 0.6178 7.1508-3.7441 2.3343-3.0613 4.656 2.292 7.7932 4.1046 2.4054 4.4023 2.8814 5.0511 8.0744 0.4485 3.5897 0.30224 5.9056-0.4185 6.6263-1.6468 1.6468-2.2029 0.54478-2.84-5.6284-0.45347-4.3938-1.0783-5.9094-2.9386-7.1283-2.152-1.4101-2.7769-1.2373-2.5 0.6914 0.0548 0.38136 0.32469 2.6314 0.59987 5 1.4753 12.699 1.7047 13.617 3.5197 14.092 2.3762 0.62138 4.2919 9.154 3.8474 17.136-0.40475 7.2684-2.3022 8.4441-3.1888 1.9758zm7.1036 3.3799c-0.30773-0.80192-0.16141-2.0922 0.32515-2.8673 0.94722-1.509 0.22779-5.0432-1.2164-5.9757-1.0609-0.68504 0.96193-6.9336 2.2446-6.9336 0.49619 0 0.90217 0.56675 0.90217 1.2594s0.94933 1.8523 2.1096 2.5769c1.6836 1.0514 1.9844 1.9436 1.4896 4.4176-0.34102 1.7051-0.33318 2.8133 0.0174 2.4627 0.35059-0.35059 0.96986-2.4553 1.3761-4.6771 0.59685-3.2638 0.44838-4.0396-0.77304-4.0396-1.0302 0-0.64683-0.80158 1.2034-2.5163 1.4933-1.384 3.0713-2.2962 3.5066-2.0271 0.43532 0.26904 1.5525 3.2014 2.4826 6.5163s2.0864 6.0271 2.5696 6.0271c0.48374 0 0.52259-1.2408 0.0865-2.7615-0.4356-1.5188-0.57811-4.2188-0.3167-6 0.40738-2.7756 0.87939-3.2385 3.3028-3.2385 1.5551 0 3.0951-0.43303 3.4222-0.96229 0.37376-0.60475 1.4952-0.55201 3.0182 0.14194 1.9125 0.87141 2.2241 1.4769 1.4775 2.8718-0.64735 1.2096-0.45813 2.9352 0.59936 5.4662 0.84994 2.0342 1.2324 3.9874 0.84987 4.3405-0.38252 0.35305-0.89638 0.0794-1.1419-0.60809-0.52967-1.483-3.2798-1.6926-3.2798-0.25 0 1.7274-2.8308 1.0861-3.3107-0.75-0.31254-1.196-0.4989-0.95851-0.58864 0.75-0.0722 1.375-0.55072 3.1632-1.0633 3.9738-0.78805 1.2461-1.3117 1.1171-3.3902-0.83552-2.4541-2.3055-2.4592-2.3059-3.1201-0.22379-0.61217 1.9288-3.5272 3.0326-3.5271 1.3355 4e-5 -0.4125-1.4087-0.70834-3.1306-0.65743-2.1744 0.0643-3.5025 0.78735-4.3481 2.3673-0.93253 1.7425-1.3483 1.9336-1.7769 0.81675zm2.2555-10.777c0-0.55-0.19844-1-0.44098-1s-0.7191 0.45-1.059 1-0.14148 1 0.44098 1 1.059-0.45 1.059-1zm9.8069-1.5265c-0.30789-0.30789-0.86705 0.24711-1.2426 1.2333-0.54268 1.4252-0.42782 1.5401 0.5598 0.5598 0.68342-0.67834 0.99067-1.4852 0.68278-1.7931zm-12.154-7.6934c-0.31928-1.2209-0.32298-3.2459-8e-3 -4.5 0.32258-1.2853 0.11578-2.2802-0.47398-2.2802-1.1967 0-1.1564-3.9347 0.0422-4.125 0.43296-0.0688 1.3497-0.19135 2.0372-0.27244 0.6875-0.0811 1.1178-0.92484 0.95616-1.875-0.40869-2.4028 1.5174-2.1741 2.2938 0.27244 0.34913 1.1 1.2794 2 2.0674 2 0.85221 0 1.4326 0.98892 1.4326 2.441 0 1.3425 0.45734 2.7236 1.0163 3.0691s0.77663 1.0159 0.48369 1.4899-0.0753 1.1445 0.48369 1.4899c1.5772 0.97476 1.197 2.7934-0.45166 2.1607-0.80739-0.30982-1.734-0.13297-2.059 0.39301-1.0099 1.634-2.473 1.0514-2.473-0.98465 0-3.2329-1.7922-3.2815-2.4981-0.0677-0.78004 3.5515-2.0358 3.8992-2.8492 0.78888zm12.347 0.51757c0-0.23606 0.44176-1.2546 0.98169-2.2635 0.73598-1.3752 0.59498-1.9827-0.56339-2.4272-0.84978-0.32609-1.265-1.0461-0.92267-1.6 0.34232-0.55388 0.0907-1.0071-0.55906-1.0071-0.87499 0-0.89255-0.34812-0.0677-1.342 0.61257-0.7381 0.86045-1.5953 0.55084-1.9049-0.63824-0.63823 2.6265-4.753 3.7711-4.753 0.4105 0 0.45902 0.74882 0.10782 1.664-0.42829 1.1161-0.25471 1.4268 0.52713 0.94362 0.70284-0.43438 1.6105 0.25575 2.2859 1.7381 1.6535 3.629-0.96606 11.112-3.9445 11.268-1.1919 0.0624-2.1672-0.0797-2.1672-0.31574zm-1.617-19.048c-0.38917-2.0625-0.89706-3.1875-1.1286-2.5-0.81827 2.4292-2.2544 1.2082-2.2544-1.9167 0-1.7417-0.32665-2.84-0.72589-2.4408-0.39923 0.39924-0.73673 2.6117-0.75 4.9167-0.0175 3.0478-0.43323 4.1908-1.5241 4.1908-0.93333 0-1.5-0.94444-1.5-2.5 0-1.375-0.675-3.0482-1.5-3.7182-1.3043-1.0593-1.2577-1.2223 0.35699-1.25 1.2736-0.0218 1.6671-0.52663 1.2526-1.6069-0.47315-1.233-8e-3 -1.5125 2.1436-1.2868 1.5114 0.15854 3.33-0.0714 4.0412-0.511 0.72811-0.44999 1.9401-0.26238 2.7736 0.42935 0.8142 0.67573 1.7695 0.93947 2.1229 0.58609 0.35338-0.35337 0.12629-0.6425-0.50463-0.6425-0.67964 0-1.008-1.1949-0.80577-2.9319 0.33555-2.882 0.30045-2.9051-2.0605-1.3582-1.8589 1.218-2.9322 1.3321-4.7483 0.50468-2.1229-0.96724-2.2945-0.86168-1.802 1.1081 0.53086 2.1233 0.49338 2.1323-1.513 0.36248-2.3767-2.0965-3.5006-5.4164-2.1221-6.2684 0.52074-0.32184 0.67317-1.4473 0.33873-2.501-0.33992-1.071-0.13736-1.9158 0.45932-1.9158 0.58707 0 0.95489-0.50625 0.81739-1.125s0.3125-1.3312 1-1.5833c0.6875-0.25209 1.25 0.0292 1.25 0.625 0 0.59583 0.45 1.0833 1 1.0833s1-0.675 1-1.5 0.675-1.5 1.5-1.5 1.5 0.87344 1.5 1.941 0.45 2.2191 1 2.559c0.55913 0.34556 1-0.42591 1-1.7498 0-3.0408 2.4117-6.5111 3.4064-4.9016 0.39142 0.63332 0.41025 1.1515 0.0419 1.1515-0.36839 0 0.33722 0.81543 1.568 1.8121 1.7469 1.4145 2.0656 2.3469 1.4527 4.25-1.5184 4.715-1.1341 8.4085 1.2092 11.621 1.277 1.7508 2.3218 3.6856 2.3218 4.2997 0 1.8625-2.983 7.0171-4.0609 7.0171-0.66026 0-0.64053-0.68944 0.057-1.9928 0.99253-1.8546 0.89088-1.9128-1.4648-0.83948-1.3922 0.63435-2.5314 1.7561-2.5314 2.4928 0 2.9152-1.9512 1.118-2.617-2.4105zm-0.69992-7.4375c-0.31922-0.79773-0.55618-0.56078-0.60416 0.60417-0.0434 1.0542 0.19293 1.6448 0.52522 1.3125s0.36781-1.1948 0.0789-1.9167zm7.5669 1.5252c-0.6875-0.27741-1.8125-0.27741-2.5 0s-0.125 0.50439 1.25 0.50439 1.9375-0.22698 1.25-0.50439zm-4.82-10.224c0.30141-0.48768-0.12204-1.4428-0.94098-2.1224-1.2391-1.0284-1.489-0.87956-1.489 0.8867 0 2.1454 1.4211 2.8681 2.43 1.2358zm3.2992-6.7175c-0.33229-0.33229-1.1948-0.36781-1.9167-0.0789-0.79773 0.31922-0.56078 0.55618 0.60417 0.60416 1.0542 0.0434 1.6448-0.19293 1.3125-0.52522zm-51.988 15.354c-0.27098-1.812 0.0106-3.6155 0.6365-4.0761 0.80127-0.5897 0.81022-0.95615 0.0313-1.2804-1.3647-0.56812 0.56719-7.4013 2.086-7.3781 2.5753 0.0392 3.7782 1.87 3.1833 4.8447-0.33687 1.6843-0.16989 3.336 0.37107 3.6703 0.54095 0.33433 0.70615 1.0567 0.3671 1.6053-0.33904 0.54859 0.21612 1.6637 1.2337 2.478 1.711 1.3692 1.6152 1.4356-1.2731 0.88186-2.2946-0.43989-3.2812-0.1871-3.7186 0.95288-0.98799 2.5747-2.4012 1.7519-2.9172-1.6984zm-11.818 1c-0.0421-0.6875-0.25042-3.8306-0.4629-6.9847-0.33418-4.9604-0.11269-5.8811 1.6405-6.8194 3.432-1.8368 5.2006 0.55674 4.3927 5.9447-0.61975 4.1328-0.53743 4.3906 0.99577 3.1181 1.0585-0.87844 1.4963-2.303 1.194-3.8846-0.61597-3.2222 0.14131-5.1242 2.0402-5.1242 1.0776 0 1.3371 0.644 0.90667 2.25-0.33164 1.2375-0.60913 3.7391-0.61664 5.559-8e-3 1.82-0.39583 3.0728-0.86294 2.7841-0.4671-0.28869-1.4431 0.58475-2.169 1.941-1.6388 3.062-2.7814 3.1245-3.9506 0.21587l-0.90439-2.25-0.0634 2.25c-0.0654 2.3213-2.0035 3.227-2.14 1zm3.5339-10.681c0.31644-0.512 0.11799-1.2136-0.44098-1.559s-1.0163 0.0734-1.0163 0.9309c0 1.7565 0.60006 2.0152 1.4573 0.62812zm53.072 126.29c0.77406-1.0219 1.4217-2.1533 1.4392-2.5143 0.0457-0.94242-4.1187 0.22905-6.4407 1.8118-1.0849 0.7395-2.7724 1.3446-3.75 1.3446-0.97762 0-1.7775 0.38414-1.7775 0.85363 0 1.7123 9.0756 0.42306 10.529-1.4957zm-305.15-88.921c3.1435-0.53109 3.6161-0.86152 2.2921-1.6025-2.7562-1.5424-2.0168-3.5389 1.139-3.0757 3.9678 0.58234 5.3072-1.5863 5.515-8.9292l0.17811-6.2927-5.4934-0.68862c-3.2123-0.40267-5.9845-0.28104-6.6761 0.29291-0.65047 0.53984-3.0834 0.84153-5.4066 0.67042-3.2804-0.24161-4.693-0.94579-6.3239-3.1523-1.8984-2.5684-2.0777-4.0085-1.868-15 0.26411-13.841 0.72411-16.659 2.7196-16.659 1.4845 0 3.0339 3.4053 2.1789 4.7888-0.27421 0.44368-0.13172 1.4002 0.31664 2.1257 0.65895 1.0662 1.5197 1.0865 4.4909 0.10592 5.0085-1.653 4.6164-4.7938-0.83302-6.673-4.7766-1.6471-6.9846-3.3679-5.8182-4.5343 0.49554-0.49554 2.1319-0.21444 3.7924 0.65146 1.6064 0.83771 4.1261 1.5259 5.5993 1.5293 1.4732 3e-3 3.4611 0.78872 4.4176 1.7452 1.2415 1.2415 3.7962 1.8429 8.9299 2.1022l7.1908 0.36312 0.54678-4.851c0.30073-2.6681 0.33787-5.189 0.0826-5.6022-0.82406-1.3334-4.3912-0.79743-4.9846 0.74886-0.74717 1.9471-4.3188 1.9187-7.1391-0.0567-2.544-1.7819-2.9245-5.6158-0.73758-7.4308 1.2572-1.0434 0.60529-1.8204-4.25-5.0658-7.7544-5.1833-9.235-6.4523-9.235-7.9153 0-1.7619 4.6505-0.48277 9 2.4755 1.925 1.3093 5.6375 3.2898 8.25 4.4013 3.022 1.2857 4.75 2.6417 4.75 3.7276 0 1.8496 2.755 5.3643 4.2049 5.3643 0.49221 0 0.75996-2.5817 0.59501-5.7372l-0.2999-5.7372-6.5-2.6078c-3.575-1.4343-8.75-3.1073-11.5-3.7178-15.907-3.5312-24.234-5.3615-26.031-5.7214-1.7284-0.3462-2.2046 0.36984-3.1965 4.8073-0.64105 2.8677-1.4626 7.331-1.8257 9.9183-0.62814 4.476-0.53266 4.7362 1.969 5.364 1.591 0.39932 3.8687 0.0595 5.7686-0.86064 6.1311-2.9694 11.735 2.23 7.2442 6.721-2.1475 2.1475-8.0608 2.051-9.2935-0.15165-0.78702-1.4063-1.4835-1.5405-3.7888-0.72973-2.4341 0.85603-2.918 1.6817-3.5009 5.9731-1.4467 10.652-1.8297 15.556-2.4784 31.73-0.66928 16.687-0.6637 16.75 1.4806 16.75 1.1838 0 2.1524 0.42344 2.1524 0.94098 0 1.9172-1.731 1.9008-4.9334-0.0467-1.8107-1.1011-3.5028-1.7914-3.7604-1.5338-0.82645 0.82645 1.7165 4.6395 3.0941 4.6395 0.73147 0 2.4265 0.86255 3.7668 1.9168 1.3402 1.0542 4.8884 2.2139 7.8849 2.5771s7.4731 0.97824 9.9481 1.3668c7.143 1.1214 12.112 1.2962 16.376 0.5758zm-25.376-5.7948c-3.025-1.2458-5.3612-2.6873-5.1914-3.2034 0.38383-1.1673 1.5179-0.99739 7.1875 1.0766 2.62 0.95844 8.0095 1.7157 12.916 1.8149 5.7191 0.11555 8.5539 0.57111 8.8372 1.4201 0.52086 1.5609-3.906 1.6935-5.4367 0.16287-0.78285-0.78285-1.2752-0.78285-1.759 0-1.154 1.8671-10.716 1.1329-16.554-1.2711zm38.522-8.7406c0.37434-1.7044 0.23608-3.5434-0.30724-4.0867-0.65048-0.65048-1.121 0.40785-1.3776 3.0988-0.45717 4.7939 0.69988 5.4723 1.6848 0.98786zm-17.922-12.401c0-3.9796 0.14697-3.8996-4.2443-2.3117-5.8723 2.1234-5.5529 5.8117 0.5033 5.8117 3.6087 0 3.741-0.12372 3.741-3.5zm16.023-3c0.62024-3.3 1.378-7.125 1.6839-8.5 2.1652-9.7319 2.2918-9-1.557-9-1.925 0-4.8602-0.27203-6.5226-0.60452-3.5734-0.71467-3.7458-0.19923-4.7748 14.272-0.72496 10.195-0.63912 10.317 7.045 9.9685 2.8469-0.12909 3.0544-0.4376 4.1254-6.1359zm3.2364 0v-2l-0.85943 2c-0.47269 1.1-0.85943 2.9-0.85943 4v2l0.85943-2c0.47269-1.1 0.85943-2.9 0.85943-4zm620.53-1.1481c3.5108-1.6742 4.5736-3.6625 4.5981-8.6019 0.015-3.0711-1.2471-3.3876-4.9863-1.25-3.3236 1.8999-6.6956 1.8664-7.7833-0.0773-0.6357-1.1358-0.9275-0.43611-1.0425 2.5-0.1888 4.8171 0.6323 5.0216 6.5586 1.633 2.4744-1.4148 4.4835-2.0147 4.8361-1.4442 1.4413 2.332-6.2647 7.4372-9.6189 6.3726-1.3672-0.43393-1.95-0.15045-1.95 0.94847 0 2.1075 4.8875 2.0655 9.3882-0.0807zm-639.59-4.8909c-0.21967-0.21968-2.0633-0.12941-4.0969 0.2006-2.747 0.44579-3.6975 1.0857-3.6975 2.4895 0 1.82 0.15066 1.8126 4.0969-0.20061 2.2533-1.1495 3.9172-2.2698 3.6975-2.4895zm661.46-1.6618c1.9271-0.2509 2.5172-5.2071 0.75003-6.2993-0.55-0.33992-1-2.1506-1-4.0238 0-4.0441-2.0388-5.4762-7.7963-5.4762h-3.9278l-0.6819 7.5244c-0.375 4.1384-0.3858 8.0034-0.024 8.5888 0.5816 0.94099 3.6185 0.86579 12.68-0.314zm-664.87-2.3127c3.4369-1.436 5.3738-4.3727 2.0403-3.0936-0.86998 0.33385-2.67 0.60699-4 0.60699-1.7515 0-2.4182 0.55137-2.4182 2 0 2.3945-0.14884 2.378 4.3779 0.48658zm639.14-6.5019 2.8889-3.0154-3.4518 0.67261c-3.504 0.68277-4.9088 1.8519-4.9365 4.1081-0.027 2.1722 2.5058 1.3593 5.4994-1.7654zm6.5671 0.0154c1.5379 0 1.9182-0.71815 1.9182-3.6224 0-3.1552-0.1995-3.4569-1.5467-2.3388-0.8507 0.706-2.515 2.6435-3.6985 4.3056-1.8747 2.6328-1.9226 2.934-0.3715 2.3388 0.9791-0.37574 2.6435-0.68317 3.6985-0.68317zm-5.7093-9.3544 3.8725-2.3442-3.8314-0.62175c-4.0095-0.65066-5.3692 0.2486-5.3983 3.5703-0.02 2.2888 0.7147 2.2059 5.3572-0.6044zm-352.36-17.609c-0.61692-2.2911-1.5802-4.0128-2.1407-3.8259-1.238 0.41266-1.1875 0.78325 0.73298 5.3796 1.9746 4.7258 2.8411 3.7694 1.4077-1.5537zm-359.01 2.3912c-3.575-0.73377-8.075-1.3046-10-1.2686-3.0509 0.0571-2.7943 0.2292 2 1.3411 3.025 0.70156 7.525 1.2724 10 1.2686 4.343-7e-3 4.2732-0.0535-2-1.3411zm96.768-10.623c-0.44574-1.3372-5.7682-3.0635-5.7682-1.8708 0 0.75929 3.7549 2.8704 5.3333 2.9986 0.45834 0.0372 0.65401-0.47029 0.43484-1.1278zm-229.38-29.386c1.1608-3.025 0.58694-3.4367-2.8114-2.0167-1.8801 0.78558-3.6246 1.2222-3.8765 0.9703-0.25191-0.25192-0.72449 0.23638-1.0502 1.0851-0.47071 1.2267 0.19979 1.5431 3.2695 1.5431 2.5988 0 4.0601-0.51727 4.4686-1.5818zm-12.393-1.1974c0-0.42858-0.9-1.4279-2-2.2208s-2-2.0172-2-2.7208-0.45-1.2792-1-1.2792c-1.5825 0-1.163-5.8216 0.61501-8.5352 0.88826-1.3556 2.2383-2.4648 3-2.4648s1.385-0.70156 1.385-1.559 0.44577-1.2835 0.9906-0.94679c0.58514 0.36164 0.12071 1.7888-1.1347 3.4868-2.0258 2.74-1.9758 6.8292 0.0679 5.566 0.51588-0.31883 1.2206-0.12235 1.5661 0.43662s1.8965 1.0163 3.4466 1.0163c1.5502 0 3.3787 0.675 4.0634 1.5 1.5848 1.9095 4.6178 1.9384 5.3421 0.0509 0.33303-0.86786 0.0751-1.2649-0.64301-0.98981-0.73204 0.28039-1.2606-0.60384-1.3569-2.2702-0.0868-1.5012-0.64932-2.8933-1.25-3.0935-0.60064-0.2002-1.0921-1.0281-1.0921-1.8397s-0.4317-1.2089-0.95932-0.88279c-1.054 0.65139-5.0407-1.4992-5.0407-2.7192 0-1.6484 6.5456-0.18589 7.8071 1.7444 1.1833 1.8106 1.2368 1.7158 0.5658-1-0.4077-1.65-0.81338-7.3696-0.90153-12.71-0.17765-10.763-0.76235-12.071-6.1986-13.865-4.886-1.6125-13.787 0.34973-17.523 3.8631-2.4212 2.2768-2.75 3.3209-2.75 8.7321 0 5.2383 0.59076 7.2673 4 13.738 2.9466 5.5928 4 8.7755 4 12.085 0 6.288 0.73401 7.6564 4.107 7.6564 1.5912 0 2.893-0.35066 2.893-0.77924zm57-74.28c0-1.1325-0.44322-1.7851-0.98494-1.4503-0.60628 0.37471-0.76136-0.50917-0.40338-2.2991 0.47499-2.375 0.19736-3.0083-1.5151-3.4561-1.5064-0.39394-2.0985-1.3488-2.1032-3.3919l-7e-3 -2.8436-1.9868 3c-2.4406 3.6852-2.5044 5.8375-0.28439 9.5957 2.144 3.6296 7.2844 4.2261 7.2844 0.84527zm7-3.5674c0-1.0075 0.60868-1.3152 1.8329-0.92662 2.6562 0.84303 4.5367-3.5416 2.9822-6.9533-0.62808-1.3785-1.8092-2.391-2.6248-2.25-0.81557 0.14098-1.6763-0.41868-1.9127-1.2437-0.38211-1.3333-0.312-1.3333 0.63095 0 0.65291 0.92322 1.0667 1.042 1.0761 0.30902 8e-3 -0.65504-0.39336-1.4436-0.89285-1.7523s-0.0997-2.2478 0.88833-4.309c5.6818-11.853 5.6839-16.215 9e-3 -20.255-2.5655-1.8268-3.9701-2.13-7.577-1.6356-5.7093 0.78255-8.8218 2.8783-10.957 7.3778-1.39 2.9293-1.486 3.9871-0.50405 5.5593 0.86975 1.3927 0.90666 2.2477 0.13052 3.0238-1.7272 1.7272-1.2739 3.8801 1.7888 8.4963 2.5071 3.7788 2.9293 4.058 3.4021 2.25 0.30152-1.153 1.3536-2.0575 2.3834-2.0489 1.3631 0.0113 1.5027 0.23154 0.53563 0.84486-1.791 1.1359-0.50203 5.9036 1.951 7.2164 1.0521 0.56309 1.6455 1.4565 1.3187 1.9854-0.70204 1.1359 3.695 6.8744 4.7883 6.249 0.4125-0.23597 0.75-1.1078 0.75-1.9374zm-0.5-3.3736c-0.33992-0.55-0.14148-1 0.44098-1s1.059 0.45 1.059 1-0.19844 1-0.44098 1-0.7191-0.45-1.059-1zm3.1667-2.6667c-0.36667-0.36666-0.66667-1.1317-0.66667-1.7 0-0.6266 0.46577-0.56756 1.1833 0.15 0.65084 0.65084 0.95084 1.4158 0.66667 1.7-0.28417 0.28417-0.81667 0.21667-1.1833-0.15zm-60.512-27.375c2.1148-2.2232 3.8452-4.6982 3.8452-5.5s0.35294-1.4579 0.7843-1.4579c1.631 0 4.0027-8.7929 3.6339-13.473-0.68882-8.7421-5.1358-13.483-12.675-13.513-2.7957-0.011-4.3304 0.64203-6 2.5529-2.5047 2.8667-4.552 7.7719-4.6673 11.182-0.0439 1.2995-0.70973 2.25-1.5761 2.25-2.2918 0-1.9189 8.1306 0.6206 13.533 4.361 9.2776 9.9505 10.82 16.034 4.4247zm1267.8 559.04c-1.213-0.78387-1.0694-0.9723 0.75-0.98469 1.2375-8e-3 2.25 0.43469 2.25 0.98469 0 1.2529-1.0612 1.2529-3 0zm-108.27-110.66c-0.2724-0.46042-0.8054-2.2834-1.1844-4.051-0.6194-2.8888-0.8872-3.0911-2.6481-2-2.5415 1.5747-3.8613-0.30723-3.8827-5.5362-0.01-2.4414-0.4783-3.75-1.3421-3.75-0.9026 0-1.1874 0.9501-0.8907 2.9716 0.3579 2.4384-0.027 3.1825-2.1436 4.147-2.9018 1.3222-5.2695 0.0542-6.5962-3.5324-0.6605-1.7854-0.7845-1.717-1.2437 0.68502-0.2806 1.4675-0.1251 2.4303 0.3455 2.1394 0.4705-0.29081 0.8555 0.34966 0.8555 1.4233 0 2.4337-2.7669 3.6043-4.7092 1.9924-1.0357-0.85952-1.3598-2.7856-1.1233-6.6751 0.1865-3.0661-0.1067-5.6101-0.6675-5.7929-2.2084-0.71963-3.523 1.5312-3.9141 6.7014-0.2264 2.9921-0.4508 5.6078-0.4987 5.8126-0.048 0.20485-0.7876-0.20883-1.6436-0.91929-0.8765-0.72741-3.7941-1.2408-6.6783-1.1751-5.4205 0.12347-7.6696-1.378-7.7335-5.1629-0.026-1.5584-0.4174-1.3852-2.2583 1-4.3169 5.5933-7.88 6.9382-9.6305 3.6349-1.0791-2.0365-0.3533-17.329 0.8844-18.633 0.461-0.48553 1.5384-0.61407 2.3943-0.28565 1.1837 0.45426 1.4551 1.6741 1.1342 5.0982l-0.422 4.501 5.0711-0.21539c4.1668-0.17697 5.2693 0.14126 6.183 1.7846 0.6116 1.1 1.2291 2.1922 1.3723 2.427s0.8634-0.39773 1.6005-1.4057c0.8806-1.2043 2.0772-1.64 3.4897-1.2706 2.2717 0.59408 3.1848-1.7389 0.9696-2.4773-0.6532-0.21773-0.8933-1.1402-0.5379-2.0665 0.3532-0.92025 1.262-1.4353 2.0197-1.1445s1.9563-0.16858 2.6636-1.0208c1.1508-1.3867 1.6469-1.3262 4.7234 0.57515l3.4376 2.1246 2.1132-2.2682 2.1132-2.2682 2.264 2.8394c1.2453 1.5616 2.0748 3.1456 1.8436 3.5198-0.2313 0.37423 1.6806 0.91725 4.2487 1.2067 2.568 0.28945 5.1743 1.2171 5.7918 2.0615 0.6174 0.84437 2.3651 1.8471 3.8837 2.2282 3.6268 0.91028 5.1314 4.7244 3.5002 8.8734-1.471 3.7416-2.4981 5.0126-3.1544 3.9033zm-111.74-6.3496c-0.5923-1.1068-0.9457-5.4895-0.7851-9.7392 0.3225-8.5382 1.0403-9.3388 6.3706-7.1048 1.6066 0.67338 4.0286 1.254 5.3821 1.2904 1.5775 0.0423 2.9183 0.96341 3.7352 2.566 0.7009 1.375 1.2811 1.9375 1.2892 1.25 0.01-0.6875 1.1397-1.25 2.5147-1.25 1.8333 0 2.5 0.53333 2.5 2 0 2.9598 1.8606 2.4262 2.6153-0.75 1.1663-4.9093 5.2189-7.9453 6.9236-5.187 0.3614 0.58466-0.062 1.8576-0.9409 2.8287-2.216 2.4486-2.0048 3.6019 0.902 4.9263 2.2214 1.0121 2.5 0.912 2.5-0.89851 0-1.1207-0.4534-1.7574-1.0076-1.4148-1.2038 0.74397 0.8607-4.4212 2.5146-6.2914 1.673-1.8918 4.493-0.37747 4.493 2.4128 0 2.0017 0.3828 2.3162 2.25 1.8484 1.2375-0.31 3.0986 0.0575 4.1357 0.81678 1.6241 1.1889 1.7885 2.1586 1.1851 6.9883-0.8811 7.0524-3.3113 6.9771-3.7696-0.11687l-0.3012-4.6627-2.2163 3.75c-2.4205 4.0956-5.1706 4.8985-5.994 1.75-0.6728-2.5728-2.2897-2.5977-2.2897-0.0352 0 2.2251-3.4322 4.467-5.5781 3.6436-1.9684-0.75533-1.7833-3.2557 0.3001-4.0552 1.4751-0.56605 1.5109-0.79423 0.25-1.5917-2.2432-1.4186-2.972-1.1563-2.972 1.0699 0 2.4778-2.5102 3.62-4.4385 2.0196-0.7772-0.64501-2.009-1.092-2.7373-0.99339-2.9149 0.39482-3.7469-0.20188-4.9604-3.5576-0.696-1.925-1.5134-3.5-1.8164-3.5-1.1733 0-5.0528 8.6422-5.0502 11.25 0 2.0679-0.4846 2.75-1.962 2.75-1.0807 0-2.4495-0.9056-3.0419-2.0124zm25.245-25.149c-1.9448-1.9448-1.4663-5.036 1.4481-9.3562 1.5432-2.2875 1.9507-3.3831 0.9576-2.5745-1.2437 1.0127-2.0334 1.1029-2.8147 0.32167-0.7813-0.78127-1.5883-0.77223-2.8764 0.0322-1.3708 0.85608-2.1986 0.78069-3.5315-0.32167-0.9575-0.79191-2.8529-1.4398-4.2119-1.4398-3.5462 0-4.8063-2.4796-3.0889-6.0786 2.0498-4.2953 6.2154-4.5427 8.0155-0.47607l1.3533 3.0573 1.6788-2.2256c1.6124-2.1377 1.7558-2.1558 3.6317-0.45816 1.716 1.5529 2.0249 1.5801 2.5452 0.22426 0.3257-0.84874 1.223-1.5432 1.994-1.5432 0.7711 0 3.1477-1.7996 5.2814-3.9991 5.3235-5.4877 8.221-5.2028 7.4578 0.73314-0.087 0.67884 0.4763 0.99039 1.2526 0.69249 0.7762-0.29785 2.1408 0.18803 3.0325 1.0797 0.8917 0.89169 2.1003 1.3252 2.6858 0.96336 1.3497-0.83418 5.9508 0.28001 5.9508 1.441 0 0.4799-1.0745 1.1422-2.3878 1.4718-1.5631 0.39231-2.9125 1.9107-3.9071 4.3965-1.3355 3.3377-2.1992 4.0115-7.138 5.5683-3.0902 0.97412-6.464 1.5028-7.4972 1.1749-1.5209-0.48273-2.1496 0.21986-3.3026 3.6908-1.4932 4.4954-4.1716 5.9827-6.529 3.6253zm14.762-14.447c0-0.99033-0.6783-1.051-2.9392-0.26285-1.8473 0.64399-2.7448 1.5312-2.4159 2.3882 0.6601 1.7204 5.3551-0.143 5.3551-2.1254zm3.6831-4.579c-0.3192-0.79773-0.5562-0.56078-0.6042 0.60417-0.043 1.0542 0.193 1.6448 0.5253 1.3125s0.3678-1.1948 0.079-1.9167zm-6.6831-0.93053c0-0.55-0.45-0.72189-1-0.38197s-1 1.068-1 1.618 0.45 0.72189 1 0.38197 1-1.068 1-1.618zm-45.482 14.173c-0.8362-2.6343 0.4702-17.929 1.5905-18.622 1.3204-0.81608 8.6856 1.4583 9.1788 2.8344 0.243 0.67777 0.9702-0.68019 1.616-3.0177 0.9035-3.27 1.6563-4.25 3.2646-4.25 1.9514 0 2.0398 0.34874 1.3304 5.25-0.4179 2.8875-0.696 6.4579-0.6179 7.9343 0.1762 3.3333-1.7624 4.6969-3.4317 2.414-1.1519-1.5753-1.4457-1.5099-3.8028 0.84723-1.405 1.405-3.0571 2.5545-3.6715 2.5545-0.6299 0-0.9768 1.1994-0.7955 2.75 0.2551 2.1817-0.1256 2.8137-1.8425 3.0583-1.4711 0.20956-2.3737-0.35194-2.8184-1.7533zm7.0835-10.602c0.3516-1.4006 0.3357-2.8501-0.035-3.221-0.8689-0.8689-2.5305 1.7487-2.5504 4.0176-0.023 2.6667 1.8623 2.0858 2.5857-0.79657zm59.066 10.88c-1.5086-1.5085-0.4946-3.2203 2.0833-3.5169 2.5345-0.29162 2.7744-0.70242 3.062-5.242 0.2319-3.6615-0.089-5.1499-1.25-5.7997-1.8753-1.0494-2.0483-4.1309-0.312-5.5552 0.6875-0.56395 2.6-1.1816 4.25-1.3724l3-0.34708-0.2751 8.3714c-0.2288 6.9624 0.014 8.5826 1.4405 9.6258 1.5555 1.1375 1.4226 1.4059-1.4253 2.8786-3.163 1.6357-9.3362 2.1947-10.573 0.95749zm-1042-4.1719c-2.3317-2.5765-3.6461-7.6134-3.6461-13.972 0-4.8464 0.17939-5.2731 2-4.7566 1.1 0.31207 2.9 0.82271 4 1.1348 1.1923 0.33823 2 0.0898 2-0.61501 0-0.79507 0.80186-0.657 2.4478 0.42149 1.5008 0.98339 2.6843 1.2213 3.059 0.61501 0.987-1.597 4.6649-1.1352 6.0615 0.76112 1.2122 1.646 1.3276 1.6312 1.9416-0.25 1.7405-5.3327 2.5622-6.5 4.5756-6.5 1.495 0 1.9478 0.44638 1.5214 1.5-0.33385 0.825-0.88013 2.175-1.214 3-0.44714 1.105 0.0796 1.5 2 1.5 2.0783 0 2.607 0.48214 2.607 2.3776 0 2.8016-2.2006 4.924-4.6191 4.455-2.3413-0.45398-2.983-2.8326-0.76424-2.8326 1.2742 0 1.4758-0.30758 0.70606-1.0773-0.7697-0.7697-1.8482-0.30639-3.7773 1.6227-1.977 1.977-2.997 2.403-3.8091 1.5909s-1.5755-0.68694-2.8511 0.46741c-2.3098 2.0903-5.7071 0.9544-6.4914-2.1704-0.86464-3.445-1.8785-3.0251-3.3324 1.3801-0.94403 2.8604-0.98901 4.7898-0.17996 7.7199 1.2627 4.5733 0.19221 6.3106-2.2355 3.628zm29.803-15.629c-0.79693-1.9073-1.449-3.8948-1.449-4.4167s-0.55721-1.1345-1.2382-1.3615c-0.98277-0.32759-0.9805-0.97842 0.011-3.1545 1.5284-3.3545 4.395-3.1318 5.2244 0.40587 0.39304 1.6766 1.3913 2.6082 3.0438 2.8406 3.5464 0.49874 4.959 2.0018 4.959 5.2766 0 2.2109-0.46336 2.8776-2 2.8776-1.2104 0-2-0.66667-2-1.6886 0-1.4213-0.32276-1.3421-2.039 0.5-1.1214 1.2037-2.2694 2.1886-2.551 2.1886s-1.1641-1.5606-1.961-3.4679zm-138.54 0.67456c-2.3569-2.7527-3.1117-4.2067-2.1836-4.2067 0.46387 0 1.6409 1.35 2.6156 3 2.0034 3.3915 1.8369 3.8565-0.43194 1.2067zm153.07-0.77178c-1.5036-3.9547-1.2302-12.123 0.42698-12.759 1.8514-0.71045 2.5978 0.14884 2.5978 2.9908 0 2.5296 0.96402 2.9693 2.7012 1.2322 1.4814-1.4814 7.0153-0.19396 8.2929 1.9293 0.93421 1.5526 1.0808 1.547 2.0556-0.0782 0.57733-0.9625 1.68-1.75 2.4503-1.75s1.8593 0.7875 2.4199 1.75c0.89416 1.5352 1.023 1.5502 1.0497 0.12197 0.0167-0.89541-0.98209-2.3407-2.2196-3.2117l-2.25-1.5837 2.1871-0.63848c1.2102-0.3533 2.6503-1.9672 3.2241-3.6133 0.9788-2.8078 3.0888-3.1376 3.0888-0.48277 0 1.7563 4.6246 1.3076 6.7983-0.65948 1.5915-1.4402 2.0987-1.4784 3.7364-0.2809 1.8528 1.3548 1.8535 1.4625 0.0294 4.8496-1.3385 2.4854-1.7086 4.6343-1.3099 7.6064 0.41721 3.1107 0.21446 4.1424-0.81407 4.1424-1.9083 0-3.44-3.236-3.44-7.2676 0-4.1493-0.69732-4.9648-3.1315-3.662-1.4234 0.76175-1.8685 2.1352-1.8685 5.7648 0 2.6206 0.48921 5.254 1.0871 5.852 0.78285 0.78285 0.74038 1.3014-0.1517 1.8528-0.73394 0.4536-1.7656 0.0453-2.5312-1.0018-1.5793-2.1598-6.4042-4.7807-6.4042-3.4788 0 1.4831-3.7011 1.0967-5.3571-0.5593-1.76-1.76-2.6429-1.911-2.6429-0.45203 0 1.5979-5.2674 5.8847-7.2748 5.9204-1.0024 0.0179-2.1992-1.0847-2.75-2.5335zm56.003-6.1849-1.2592-4.75-1.4952 3.75c-1.8045 4.5258-3.662 4.8003-5.074 0.75-1.3253-3.8017-2.733-3.8342-3.4838-0.0804-0.67105 3.3552-3.596 4.7235-6.6283 3.1006-3.4116-1.8258-2.1948-7.7954 2.0522-10.068 1.5798-0.8455 2.5968-0.7319 4.4771 0.50013 1.5548 1.0188 2.4329 1.1828 2.4329 0.4545 0-0.69684 1.0414-0.94055 2.6804-0.62724 1.4742 0.28181 3.4627 0.0238 4.4188-0.57326 3.0144-1.8825 4.9008 0.77978 4.9008 6.9165 0 2.9577-0.39658 5.3776-0.88129 5.3776-0.4847 0-1.4479-2.1375-2.1405-4.75zm-14.323-1.7931c0.93028-2.4243-0.36778-2.8619-1.6091-0.54252-0.77398 1.4462-0.7892 2.0856-0.0496 2.0856 0.58661 0 1.333-0.69441 1.6587-1.5431zm22.345 4.5431c0-0.55 0.675-1 1.5-1s1.5 0.45 1.5 1-0.675 1-1.5 1-1.5-0.45-1.5-1zm-205.46-5.9377c-0.32983-0.53368-0.31214-2.116 0.0393-3.5163 0.39099-1.5578 0.2088-2.5945-0.4694-2.671-0.60963-0.0688-1.5359-0.18125-2.0584-0.25-3.0102-0.39608-3.8773-4.5282-2.5444-12.125 0.70992-4.0463 1.3426-4.5485 11.744-9.3224 1.3669-0.62734 0.77819 4.5548-1.2477 10.983-1.0988 3.4865-2.2872 8.7142-2.641 11.617-0.63739 5.23-1.6661 7.1557-2.8228 5.2842zm77.856-0.82761c-0.6078-0.40408-1.6-2.3097-2.2049-4.2347-1.3829-4.4007-3.4908-20.033-2.7951-20.728 0.28538-0.28538 1.3258-0.17138 2.312 0.25335 0.98622 0.42472 2.768 0.67804 3.9595 0.56293 1.2079-0.1167 2.6324 0.59178 3.2196 1.6013 0.84578 1.454 1.0592 0.87514 1.0836-2.9394 0.0257-4.0072 0.33074-4.75 1.9508-4.75 1.641 0 2.0135 0.98199 2.5601 6.75 0.93399 9.8553 0.88982 9.6976 2.8203 10.069 1.4416 0.27762 1.6598-0.12819 1.1535-2.1454-1.2404-4.9422 3.0963-9.2171 7.5457-7.4381 3.0819 1.2323 8.029 1.5262 8.6544 0.51427 0.97201-1.5728 4.5469-0.69648 5.0529 1.2386 0.62696 2.3975 2.2927 1.6618 2.2927-1.0126 0-2.1768 3.4572-4.3984 5.5781-3.5846 1.6167 0.62038 1.9458 6.1665 0.42186 7.1084-0.55 0.33992-1 1.1416-1 1.7815 0 1.9899 2.7833-2.6996 3.1514-5.3098 0.28931-2.0513 1.036-2.5635 4.39-3.0112 2.2228-0.29673 5.6623-1.5413 7.6435-2.7657 2.8955-1.7895 4.1134-2.0318 6.2086-1.2352 3.169 1.2048 3.2988 3.2595 0.45795 7.2491l-2.1486 3.0174 4.1486-0.70089c4.9527-0.83675 5.572 0.68747 1.1982 2.9492-6.8898 3.5629-12.218 0.4841-8.6326-4.9881 1.9267-2.9405 2.0197-4.4862 0.27002-4.4862-1.9924 0-6.4544 5.1357-7.2471 8.3415-0.58162 2.3519-1.1244 2.7608-3.1501 2.3736-1.5105-0.28875-2.6496 0.0591-2.9756 0.90854-0.84508 2.2022-6.069 1.7242-6.8142-0.62361-0.93508-2.9462-2.5-2.4317-2.5 0.82186 0 3.99-2.9544 12.178-4.394 12.178-3.3896 0-4.5913-4.7435-2.4129-9.5246 1.4246-3.1266-0.25195-4.7498-3.9478-3.8222-1.2492 0.31353-2.984-0.0214-3.8551-0.74437-1.3273-1.1016-1.7332-1.0475-2.5063 0.33395-0.50737 0.9066-2.2519 2.595-3.8768 3.7521-3.682 2.6218-6.328 1.5252-8.0923-3.3539l-1.2141-3.3576-2.716 5.0832c-2.1911 4.1007-2.5487 5.6666-1.8504 8.1017 1.5998 5.5782 0.99472 7.5841-1.7394 5.7664zm1.5898-19.544c8e-3 -0.99496-0.43469-1.5309-0.98469-1.191s-0.99311 1.829-0.98469 3.309c0.012 2.1048 0.22649 2.3642 0.98469 1.191 0.53316-0.825 0.97627-2.3141 0.98469-3.309zm-59.428 9.4837c-0.81213-2.5545-0.0248-4.0794 1.3465-2.608 0.47838 0.51333 0.53747 1.8333 0.13129 2.9333-0.70688 1.9144-0.77014 1.9004-1.4778-0.32536zm-11.557-13.175c0-0.55 0.45-1 1-1s1 0.45 1 1-0.45 1-1 1-1-0.45-1-1zm-0.1875-14.683c0.72187-0.28887 1.5844-0.25335 1.9167 0.0789 0.33229 0.33229-0.25834 0.56864-1.3125 0.52522-1.165-0.048-1.4019-0.28494-0.60417-0.60416zm266.32-88.067c0.15304-1.5125-0.23279-3.65-0.85738-4.75-1.0506-1.8502-1.1864-1.8682-1.8136-0.24036-0.55754 1.4471-1.8126 1.735-7.0672 1.6211-3.6111-0.0783-6.3893-0.5847-6.3893-1.1646 0-0.56435-0.82293-0.28134-1.8287 0.6289-2.4454 2.213-5.3296 2.0877-7.9409-0.34501-2.7816-2.5915-3.2304-2.5221-3.2304 0.5 0 5.2952-3.4094 2.0852-4.3507-4.0961-0.75766-4.9756-0.13996-5.7715 2.9223-3.765 2.1116 1.3836 2.5655 1.3785 4.6079-0.0521 3.4468-2.4143 5.8205-2.0419 5.8205 0.91317 0 1.6079 0.56172 2.5 1.5741 2.5 1.2675 0 1.5199-1.0218 1.2958-5.2451-0.22143-4.172 0.0512-5.3086 1.3326-5.5554 2.044-0.39365 2.9089 1.0133 3.0197 4.9126 0.0672 2.363 0.29719 2.7111 0.98243 1.4866 1.0476-1.872 4.4484-2.1394 5.0298-0.39539 0.22505 0.67516 2.0183 1.1575 4.0854 1.0989 2.0264-0.0574 3.9349 0.30105 4.2412 0.79665 0.3063 0.49559 1.4707 0.90108 2.5876 0.90108 3.1759 0 5.9224 3.9487 5.2166 7.5-0.85848 4.3194-2.16 5.5-6.0631 5.5-3.1676 0-3.4299-0.22723-3.1747-2.75zm-63.628-0.44495c-3.996-2.266-4.7938-5.3517-0.92839-3.5905 2.0819 0.9486 2.7455 0.89691 3.4847-0.27144 1.4498-2.2915 1.0992-3.217-1.0098-2.6655-1.0744 0.28097-2.71-0.0423-3.6347-0.71844-1.5095-1.1038-1.5452-1.7598-0.3493-6.4259l1.3319-5.1966 4.5528 0.64856c2.504 0.35671 4.9411 1.0068 5.4157 1.4446 1.3613 1.2559-0.25447 2.9703-2.7994 2.9703-1.2752 0-2.8359 0.62334-3.4682 1.3852-0.91745 1.1055-0.43732 1.8055 2.3776 3.4663 4.0105 2.3662 4.6937 5.7828 1.6984 8.4935-2.1239 1.9221-3.8794 2.0432-6.6713 0.46004zm14.157-1.6313c-1.9022-2.102-3.8263-10.951-2.5523-11.739 1.5761-0.97406 4.8946 1.6127 4.9392 3.85 0.0366 1.8341 0.36875 1.6009 1.9322-1.3565 4.4672-8.45 7.7058-7.5506 4.7609 1.322-3.1322 9.4371-5.69 11.669-9.0801 7.923zm689.34-119.17c0-0.55 0.45-1 1-1s1 0.45 1 1-0.45 1-1 1-1-0.45-1-1zm-207.01-16.628c-2.4688-0.73802-8.0512-1.3487-12.405-1.357-4.3542-8e-3 -7.7292-0.19909-7.5-0.42387 1.0489-1.0288 15.577-1.1242 20.705-0.13598 14.13 2.723 79.063-2.7403 93.712-7.8848 2.2-0.7726 6.475-1.6438 9.5-1.9359s7.4444-0.94986 9.8209-1.4616c2.3765-0.51175 5.9166-0.57056 7.8669-0.13071 2.5553 0.57631 5.226 0.26304 9.5594-1.1213 3.3074-1.0566 7.6423-1.9289 9.6332-1.9384 1.9908-0.01 6.7697-0.72745 10.62-1.5953 9.1237-2.0567 15.718-3.21 22.5-3.9351 3.025-0.32341 10.054-1.6808 15.621-3.0164 5.5664-1.3356 12.766-2.8207 16-3.3001 19.725-2.9247 42.083-7.8825 45.216-10.027 1.4648-1.0024 3.9152-2.5818 5.4454-3.5099 1.6726-1.0145 3.7755-3.9337 5.2731-7.32 2.6847-6.0705 2.2968-7.2334-2.4228-7.2639-3.0147-0.0195-10.132-7.0185-10.132-9.9634 0-1.2009 0.4933-3.1051 1.0961-4.2315 0.8561-1.5996 0.7001-2.7836-0.7123-5.4062-1.5926-2.9573-1.6672-4.0312-0.6254-8.9983 0.6507-3.1021 2.3243-7.5876 3.7192-9.9678 2.2253-3.7973 3.079-4.409 6.9667-4.992 6.4519-0.96752 9.5723 0.45216 13.388 6.0909 2.5023 3.6982 3.237 5.737 2.9508 8.1887-0.2096 1.7954-0.2475 3.2644-0.084 3.2644 0.1633 0 2.4409-1.5404 5.0615-3.423 6.3824-4.5854 23.032-10.577 29.391-10.577 2.2312 0 2.9022-0.64436 3.9054-3.75 1.06-3.2817 6.7158-13.54 10.161-18.429 1.002-1.4221 0.3091-2.56-4.5288-7.4366-7.1872-7.2448-8.3205-10.823-6.572-20.751 1.0728-6.0908 1.7772-7.6193 4.82-10.458 6.5123-6.0764 8.763-6.522 23.498-4.6522 13.856 1.7582 18.698 3.219 25.16 7.5896 3.259 2.2046 4.4323 3.8532 5.7494 8.0787 3.5724 11.461 0.4126 24.364-7.2264 29.51-7.5183 5.0641-18.56 5.7624-27.638 1.7477-3.173-1.4033-6.2738-2.3578-6.8906-2.1211s-1.7642 1.7223-2.5498 3.3014c-0.7856 1.5791-2.8795 5.3461-4.653 8.3711-4.7257 8.0602-5.684 13.898-1.6133 9.8271 2.8928-2.8928 8.5416 3.2488 15.858 17.242 2.262 4.326 2.6424 6.3446 2.7471 14.577l0.1215 9.5557 4.5 1.5159c2.475 0.83376 5.7051 2.3709 7.178 3.4158 3.1174 2.2116 5.2797 7.849 4.2522 11.086-1.066 3.3587-6.5364 9.778-8.3476 9.7955-1.1496 0.0111-1.2447 0.22992-0.3476 0.79972 0.6792 0.43142 2.1238 3.368 3.2102 6.5258l1.9754 5.7414-3.4165 3.7816c-2.4135 2.6714-5.1173 4.312-9.2103 5.5884-3.1866 0.99371-6.8394 2.2039-8.1173 2.6894-3.0493 1.1583-9.5454-1.7378-8.7204-3.8878 0.3167-0.82516-0.7543-2.9682-2.4464-4.8955-3.7059-4.2208-3.9793-8.8559-0.7634-12.944 1.8756-2.3844 2.2469-4.0982 2.25-10.385 0-8.7932 2.2004-14.304 6.6089-16.584 4.0473-2.093 5.0057-4.5416 5.1871-13.253 0.1379-6.6216-0.2384-8.5118-2.7039-13.58-3.2106-6.5998-9.6238-13.612-12.449-13.612-1.4209 0-2.3664 1.6022-4 6.7782-1.1765 3.728-2.1392 7.7925-2.1392 9.0321 0 1.2396-0.675 3.8694-1.5 5.8439-0.825 1.9745-1.5 5.3395-1.5 7.4777 0 2.6263-0.6372 4.4332-1.9638 5.5691-1.2058 1.0325-1.6262 2.09-1.0893 2.7402 0.481 0.58233 1.0272 4.3274 1.2138 8.3224 0.268 5.738 0.06 7.1557-0.9925 6.75-0.7325-0.28249-2.2451-0.51362-3.3613-0.51362-1.7761 0-1.9479-0.43502-1.3757-3.4849 0.5413-2.8853 0.3884-3.3831-0.8887-2.893-1.9376 0.74352-2.042-1.2415-0.1221-2.3224 0.7812-0.43983 1.7393-2.1497 2.1291-3.7997 0.596-2.5229 0.4894-2.7948-0.6704-1.7101-1.4555 1.3614-6.3932 9.1055-9.9103 15.543-1.1892 2.1767-2.6382 3.6242-3.3532 3.3498-0.6925-0.26574-1.7932 0.37193-2.4458 1.417-0.6527 1.0451-1.6329 1.9002-2.1783 1.9002-1.9396 0-0.9362-2.6274 3.0085-7.8773 2.2-2.9279 4-5.8889 4-6.58s2.25-4.2664 5-7.9453c2.75-3.6789 5-6.9703 5-7.3144s0.6151-1.336 1.367-2.2043c0.7518-0.86831 2.1219-4.9537 3.0445-9.0787 1.8404-8.2278 3.4375-14.443 4.2668-16.604 0.3251-0.84711-0.1133-1.3959-1.115-1.3959-2.6017 0-20.588 6.9902-24.755 9.6211-2.0727 1.3084-4.8164 2.3789-6.0972 2.3789s-3.2022 0.65914-4.2699 1.4648c-1.8942 1.4294-1.877 1.5199 0.7137 3.75 1.4602 1.2569 3.1882 3.9899 3.8401 6.0733 1.4477 4.6266-0.2491 7.8991-5.2645 10.154-1.7767 0.79865-3.9054 2.0498-4.7304 2.7803-1.7465 1.5465-4.9848 7.4071-5.0333 9.1091-0.1053 3.7022-10.794 10.748-18.967 12.502-3.025 0.64923-8.2 1.6671-11.5 2.2618s-8.925 1.7438-12.5 2.5533-9.875 2.0624-14 2.7841c-6.8686 1.2018-17.324 3.2391-44.5 8.6707-5.5 1.0993-13.039 2.4137-16.753 2.921-3.7142 0.50725-9.203 1.6345-12.197 2.5049-3.7848 1.1003-7.2127 1.3844-11.247 0.93234-5.7653-0.64613-10.104 0.0119-36.303 5.5063-20.576 4.3151-77.658 7.9021-86.011 5.405zm337.36-9.453c2.8493-0.7247 6.2454-2.5532 8.2455-4.4395 3.2215-3.0383 3.339-3.3845 2.2285-6.5698-0.6447-1.8494-1.7648-4.4982-2.4893-5.8862-1.6895-3.2373-1.6661-4.0237 0.1197-4.0237 1.8011 0 6.1779-5.6288 7.0285-9.039 1.1296-4.5285-0.8434-7.5639-5.7137-8.7902-10.484-2.64-16.787 1.995-17.577 12.927-0.358 4.95-0.1655 5.9022 1.1933 5.9022 0.8911 0 1.6202-0.4875 1.6202-1.0833 0-0.59584 0.5625-0.89584 1.25-0.66667s1.25 1.0542 1.25 1.8333c0 0.77917 0.3018 1.6462 0.6707 1.9267s0.9515 1.6305 1.2947 3c0.5369 2.1421 0.2695 2.5101-1.9141 2.6338-1.5423 0.0874-2.2839-0.26747-1.8902-0.90451 0.3984-0.64463 0.1603-0.74694-0.6184-0.26568-0.7232 0.44695-1.6012 0.24072-2.0472-0.48084-0.4744-0.76761-1.706-1.0176-3.1382-0.63696-3.555 0.94483-4.6345 1.9084-5.3553 4.78-0.5379 2.1433 0.1252 3.5084 3.6708 7.5569 3.0456 3.4777 4.7715 4.7216 5.8272 4.1999 0.825-0.40766 3.6801-1.2957 6.3447-1.9734zm-7.3447-6.9192c0-0.55 0.7016-1 1.559-1 0.8575 0 1.2809 0.45 0.941 1s-1.0415 1-1.559 1c-0.5176 0-0.941-0.45-0.941-1zm-4.5-1c0.3399-0.55 0.8165-1 1.059-1 0.2426 0 0.441 0.45 0.441 1s-0.4766 1-1.059 1c-0.5825 0-0.7809-0.45-0.441-1zm9.5-0.39301c0-0.94863 2.9934-1.4267 3.527-0.56332 0.3251 0.52598-0.3355 0.95633-1.468 0.95633-1.1324 0-2.059-0.17686-2.059-0.39301zm7-3.4159c0-0.44488 0.6607-1.6824 1.4682-2.75 1.4063-1.8593 1.4695-1.8252 1.5 0.80887 0.021 1.7919-0.4908 2.75-1.4682 2.75-0.825 0-1.5-0.36399-1.5-0.80887zm-3.25-2.8534c0.6875-0.27741 1.25-1.1419 1.25-1.921 0-1.452 1.198-1.8853 2.2644-0.8189 1.1999 1.1998-0.5357 3.4001-2.6214 3.3233-1.1786-0.0434-1.5805-0.30592-0.893-0.58333zm-1.75-2.3377c0-0.55 0.4766-1 1.059-1 0.5825 0 0.7809 0.45 0.441 1s-0.8165 1-1.059 1c-0.2426 0-0.441-0.45-0.441-1zm-64.25-38.299c3.0277-2.7577 2.8325-4.8511-0.75-8.0431-3.2726-2.9159-3.7776-6.0455-1.4682-9.0987 1.9794-2.617 1.8188-8.5583-0.304-11.248-2.8621-3.6267-6.3405-3.8524-9.4036-0.61017-2.9329 3.1042-6.2851 9.3631-7.2185 13.477-0.6186 2.7265 1.6903 6.3755 3.3751 5.3342 1.56-0.96411 0.4158 5.2344-1.2791 6.9293-3.8158 3.8158-0.4407 7.0205 6.2647 5.9482 2.769-0.44278 4.0336-0.28038 4.0336 0.518 0 1.4512 3.4197-0.17338 6.75-3.2067zm87.85-55.533c2.1723-1.5774 4.955-4.9544 6.2816-7.623 2.1432-4.3114 2.2755-5.3043 1.3218-9.918-0.5828-2.8198-1.3381-6.8179-1.6783-8.8845-0.7406-4.4989-2.8559-6.0763-10.985-8.1916-7.1076-1.8494-15.325-1.995-20.757-0.36765-9.1824 2.7511-16.211 19.042-11.785 27.313 1.2258 2.2904 1.8618 2.5646 4.7095 2.0304 2.7895-0.52333 3.2923-0.32596 3.2923 1.2924 0 1.5395 1.6975 2.4067 8.75 4.47 11.838 3.4635 15.946 3.4395 20.85-0.12146zm-43.478-13.843c-1.1789-2.0272-1.4635-1.3783-0.4986 1.1363 0.343 0.8937 0.8342 1.4143 1.0917 1.1568s-0.01-1.2894-0.5931-2.2931zm0.8779-12.325c2.0399-2.8648 1.7791-3.812-0.6152-2.2347-1.1651 0.76754-2.8891 5.2347-2.0203 5.2347 0.2746 0 1.4606-1.35 2.6355-3zm-973.55 138.53c-1.5552-3.7221-1.9944-10.987-0.61258-10.133 0.46001 0.28431 0.89788 2.1526 0.97303 4.1518 0.0752 1.9992 0.7893 4.9431 1.587 6.5421 0.79768 1.599 1.0118 2.9072 0.47594 2.9072s-1.6264-1.5606-2.4234-3.4679zm953.11 2.2179c-1.7565-5.7825-0.7504-12.078 2.1052-13.174 2.2969-0.88143 2.9687 0.18335 1.5494 2.456-1.5591 2.4966-1.5667 9.2135-0.012 10.768 0.9333 0.93333 0.7041 1.2-1.0314 1.2-1.2272 0-2.4022-0.5625-2.6111-1.25zm-947.06-3c-1.7922-5.4507-0.69326-9.8604 1.4564-5.8438 1.2756 2.3836 1.3933 8.0938 0.1668 8.0938-0.48585 0-1.2163-1.0125-1.6232-2.25zm7.5065-2.75c0-3.1574 0.38309-4.8813 1-4.5 0.55 0.33992 1 2.3649 1 4.5s-0.45 4.1601-1 4.5c-0.61691 0.38127-1-1.3426-1-4.5zm952.97 3.0557c0.5723-1.0694 1.4881-2.2209 2.0352-2.559 0.547-0.33809 0.9946-1.7462 0.9946-3.129 0-3.8835 3.4153-2.722 3.8062 1.2945 0.3291 3.3811-2.4998 6.3379-6.0639 6.3379-1.4855 0-1.6248-0.35094-0.7721-1.9443zm-4.9702-0.4487c0-0.76616-0.675-1.652-1.5-1.9686-0.825-0.31658-1.5-1.3129-1.5-2.214 0-1.032 0.5451-1.4292 1.4726-1.0733 0.8381 0.3216 2.0931-0.32072 2.9126-1.4907l1.4399-2.0558 1.1672 2.1808c0.9403 1.7571 0.8602 2.52-0.4126 3.9264-0.8688 0.96005-1.5797 2.2726-1.5797 2.9168s-0.45 1.1713-1 1.1713-1-0.62686-1-1.393zm-59.309-38.25c-0.3438-0.34388 0.2601-1.7507 1.3421-3.1262 2.2532-2.8645 2.4568-5.0626 0.8048-8.6884-1.5807-3.4691-0.3042-4.3869 2.1561-1.5501 2.2547 2.5997 2.648 7.86 0.7563 10.115-2.0136 2.4005-4.3851 3.9237-5.0593 3.2495zm-11.122-3.5632c-2.8481-4.0662-1.4942-14.841 2.035-16.196 1.8181-0.69768 2.8188 1.1877 1.484 2.796-1.6896 2.0358-2.4639 10.033-1.2001 12.395 1.5726 2.9384-0.3738 3.7817-2.3189 1.0048zm4.8905-6.8608c-0.3626-0.58659-0.5016-1.1977-0.309-1.3581 0.7972-0.66386 7.8501 0.71436 7.8501 1.534 0 1.266-6.7472 1.1086-7.5411-0.17594zm-840.78-27.316c-0.37594-0.97967-0.655-2.5319-0.62013-3.4494 0.042-1.1049 0.38931-0.85293 1.0286 0.74611 0.53084 1.3279 0.8099 2.8801 0.62013 3.4494-0.18977 0.56931-0.65262 0.23357-1.0286-0.74611zm13.303-1.2452c-8e-3 -1.5798-0.30316-3.9974-0.657-5.3724-0.64074-2.4899-0.63464-2.4923 1.5137-0.59501 2.5034 2.2109 2.8143 5.8046 0.65699 7.595-1.2738 1.0572-1.5021 0.81176-1.5136-1.6276zm-9.4418-1.3004c-0.31545-0.51041 0.36691-1.2265 1.5163-1.5913 2.374-0.75348 3.4532-0.12137 2.4803 1.4528-0.81134 1.3128-3.2193 1.3962-3.9966 0.13853zm-110.85-75.822c-0.23383-0.4125-1.4411-3.9-2.6828-7.75s-2.6519-7.4275-3.1339-7.95c-1.2218-1.3247-1.0929-3.6847 0.37376-6.8428 1.3262-2.8556 2.2427-3.337 3.25-1.7072 0.33992 0.55 1.736 1 3.1023 1 2.2525 0 2.4569-0.3466 2.191-3.7146-0.2222-2.8143 0.11038-3.7976 1.3722-4.057 1.3042-0.26814 1.9236 0.91747 2.855 5.4646 0.65423 3.1939 1.6528 7.059 2.2191 8.5891 1.3528 3.6555 0.4404 4.398-2.1821 1.7755l-2.1091-2.1091-2.5064 2.7758c-2.5337 2.8061-2.752 6.1954-0.83899 13.026 0.58579 2.0915-0.90935 3.2656-1.9102 1.5zm0.91128-19.979c-1.0165-1.0165-1.8552 0.51389-1.0212 1.8634 0.63003 1.0194 0.86558 1.0202 1.2043 4e-3 0.2316-0.69479 0.14921-1.5351-0.18308-1.8674zm27.578 11.144c-2.5369-1.7769-2.7881-4.2311-0.71365-6.9737 0.8075-1.0676 1.4688-3.0661 1.4696-4.4411 1e-3 -2.2502-0.10516-2.3167-1.065-0.66588-0.76023 1.3076-1.7563 1.661-3.4696 1.231-1.6878-0.42361-2.4032-0.18281-2.4032 0.80889 0 1.874-2.4723 2.7537-3.8545 1.3715-0.79763-0.79763-1.6426-0.60559-3.087 0.70162-1.9301 1.7467-2.0235 1.7236-3.1655-0.78266-0.96813-2.1248-0.87537-3.0424 0.52345-5.1772 2.0755-3.1677 4.3264-4.1392 6.4646-2.7905 1.1829 0.74616 1.913 0.59963 2.7559-0.5531 0.93799-1.2828 1.4246-1.3375 2.6738-0.30071 1.2866 1.0677 1.739 0.82543 2.8717-1.5378 3.1901-6.6559 5.643-1.6212 5.7599 11.822 0.0669 7.6929-1.2668 9.7344-4.7605 7.2873zm1029.9-12.772c-0.094-4.7734 0.1572-5.7526 1.3561-5.2925 1.9938 0.7651 4.5289-1.957 4.5289-4.8629 0-2.666-1.6447-4.0784-4.25-3.6498-1.043 0.17158-1.75-0.34352-1.75-1.275 0-2.1342 2.2223-1.9624 5.2312 0.40439 2.9053 2.2853 3.7688 1.7964 3.7688-2.1339 0-1.5583 0.45-2.8333 1-2.8333 1.091 0 1.3672 5.8796 0.3952 8.4125-0.3326 0.86682-1.0076 1.3271-1.5 1.0228s-0.8952 0.1829-0.8952 1.0827c0 0.89976-1.4353 3.0638-3.1896 4.809-1.7543 1.7452-3.5025 4.7481-3.885 6.6731-0.5991 3.0153-0.7113 2.689-0.8104-2.357zm49.917 3.4162c-0.8369-1.5638-0.6127-2.2393 1.1544-3.477 2.6571-1.8611 3.6218-1.2639 1.7064 1.0563-1.2014 1.4553-1.1867 1.6196 0.1075 1.197 2.5088-0.81912 2.4454-5.7719-0.1044-8.1474-1.5119-1.4086-2.3902-1.7043-2.6598-0.89559-0.2214 0.66409-1.0757 1.2074-1.8986 1.2074-1.1514 0-1.35-0.74891-0.8619-3.25l0.6343-3.25-2.993 3.5c-1.9836 2.3197-3.3251 3.1628-3.9778 2.5-1.295-1.3148-0.2172-6.702 1.2358-6.1769 0.619 0.22368 1.9299-7e-3 2.9132-0.51359 2.2514-1.159 5.7122-0.12146 5.7122 1.7125 0 0.89297 0.8745 0.51271 2.4545-1.0674 4.7261-4.7261 6.4117-2.5054 5.608 7.3885-0.458 5.6392-1.0429 7.6695-2.5206 8.75-2.6885 1.9659-5.2864 1.7528-6.5102-0.53384zm-24.385-0.82227c-0.2594-0.41971-0.3113-3.1197-0.1154-6 0.3812-5.6039-0.022-6.2514-2.1708-3.4869-1.293 1.6635-1.4296 1.6606-2.7642-0.0598-0.8886-1.1454-1.6445-1.4207-2.059-0.75-1.0518 1.7018-3.3786 1.2243-4.5315-0.92997-1.2249-2.2886 1.2063-7.0102 3.6095-7.0102 1.7819 0 1.7987 1.6273 0.024 2.3084-1.5463 0.59337-2.9185 4.6916-1.5709 4.6916 0.4844 0 1.5789-1.35 2.4321-3 1.6553-3.2011 4.5-4.0719 4.5-1.3776 0 1.274 0.2994 1.374 1.3941 0.46549 1.0713-0.88915 1.7343-0.81664 2.8642 0.31327 1.043 1.043 1.7808 1.1597 2.5388 0.40173 1.9014-1.9014 4.2029-0.067 4.2029 3.35 0 4.5347-3.722 11.847-6.0302 11.847-1.0185 0-2.064-0.3434-2.3234-0.7631zm4.3536-5.428c0-1.2955-1.6505-0.93496-2.9636 0.64733-0.6647 0.8009-0.8761 1.9941-0.4698 2.6515 0.5319 0.86075 1.1158 0.67958 2.086-0.64733 0.7411-1.0134 1.3474-2.2066 1.3474-2.6515zm0.9847-5.6179c-0.013-1.4573-0.1493-1.4837-0.9847-0.19098-1.2656 1.9584-1.2656 3.2822 0 2.5 0.55-0.33992 0.9931-1.379 0.9847-2.309zm-1032.7 9.1467c-1.6929-0.6831-1.5789-2.9476 0.4305-8.5541 1.5853-4.4231 1.5856-4.8322 5e-3 -6.5787-2.3739-2.6231-2.0944-4.2049 0.74307-4.2049 5.1482 0 7.192 5.9655 4.0953 11.954l-1.4761 2.8545 2.9379-1.109c3.33-1.2569 4.3543-0.74893 3.4166 1.6946-1.1556 3.0114-6.9168 5.2494-10.152 3.9439zm-20.643-1.9195c-1.0919-2.8454-0.63803-7.2443 0.90678-8.7891 0.96812-0.96813 2.8605-1.3909 5.25-1.1729 2.0549 0.18749 4.7646 0.38654 6.0214 0.44234 1.9407 0.0862 2.1292 0.39301 1.25 2.0357-0.56935 1.0638-1.0421 2.7513-1.0505 3.75-8e-3 0.99866-0.46698 2.4907-1.019 3.3157-0.86811 1.2974-1.2052 1.2357-2.4959-0.45648-1.4718-1.9297-1.5134-1.9263-3.0377 0.25-1.7992 2.5687-4.9495 2.9065-5.8251 0.62469zm1090.1-1.0426c-1.2145-1.2145-0.7855-2.2166 1.2215-2.8536 1.1537-0.36616 2.1897-1.9023 2.5747-3.8174 0.3542-1.7626 0.9004-4.1011 1.2137-5.1968 0.4884-1.708 0.3478-1.8081-0.9856-0.70144-0.9321 0.77357-1.7923 0.90711-2.147 0.33331-0.3254-0.52657 0.7941-2.1234 2.4877-3.5486 4.6121-3.8808 5.9141-3.3699 4.0623 1.5938-0.475 1.2733-1.1731 4.4224-1.5512 6.9979l-0.6875 4.6828 3.3012 0.31717c1.8157 0.17445 3.3012 0.76718 3.3012 1.3172 0 1.1469-11.718 1.9491-12.791 0.87563zm-32.709-6.7206c0-2.9883 0.3648-3.655 2-3.655 1.2773 0 2 0.66667 2 1.845 0 1.0148-0.9 2.6595-2 3.655-1.9653 1.7786-2 1.7466-2-1.845zm2.5101-7.6713c0.3454-0.55897 1.047-0.75742 1.559-0.44098 1.387 0.85723 1.1284 1.4573-0.6281 1.4573-0.8575 0-1.2764-0.45734-0.9309-1.0163z" opacity=".99"/>
 <path d="m22.055 134.23v732.42h933.81c1.0174-0.34904 2.0324-0.69953 3.0957-0.74024 0.0817-3e-3 0.1409 0.0847 0.21094 0.12696 1.0288-0.47188 2.026-1.0191 3.0859-1.416 3.0661-1.148 0.9425 0.28608 4-1.2617 1.1366-0.57536 2.1834-1.3165 3.3106-1.9082 0.1327-0.25812 0.2773-0.51522 0.4765-0.72461 1.4121-1.4838 2.9088-2.8839 4.3633-4.3262 0.6783-0.83739 1.4262-1.58 2.2188-2.2617 0.8636-1.387 1.8243-2.7167 2.7441-4.0703 6e-4 -0.013-6e-4 -0.026 0-0.0391 0.01-0.22148 0.5166-0.72025 0.3945-0.53515-0.1277 0.19365-0.264 0.38219-0.3945 0.57422-0.028 0.65384 0.023 1.3077 0.084 1.9609 0.096-0.0637 0.195-0.12243 0.291-0.18554 0.2682-3.4246-0.2681-3.7926 2.3262-6.0898 0.4718-0.4179 1.0891-0.64308 1.5801-1.0371 0.01-0.0345 0.01-0.0659 0.016-0.10156-0.054-0.025-0.1291-0.053-0.1406-0.0977-0.022-0.0842 0.037-0.1732 0.082-0.24805 0.074-0.12445 0.1594-0.24129 0.2402-0.36133 0.1856-0.68039 0.4222-1.3847 0.6153-1.7949 0.1314-0.27907 0.3153-0.52082 0.5214-0.74805 1.1293-2.2634 3.379-6.0456 1.834-1.7676 0.093-0.12552 0.2069-0.2355 0.3477-0.32617 0.1211-0.078 0.2495-0.1401 0.3769-0.20508 0.1987-0.19242 0.4051-0.37739 0.6289-0.54297 0.316-0.2337 1.0613-0.40838 1.627-0.45312 0.4217-0.58482 0.8673-1.1507 1.3691-1.6699 0.021-0.022 2.9758 0.22014 3.1387 0.20117 0.1243-0.0145 0.1179-0.27267 0.2422-0.28711 5.8222-0.67632 9.6513-0.66931 15.58-0.86328 1.4411-0.11051 2.8819-0.16085 4.3144-0.13867 4.2976 0.0665 8.5297 0.78792 12.537 2.5195 0.8599 0.37158 1.6514 0.88569 2.4707 1.3398 0.295 0.16351 1.0236 0.21284 0.8711 0.51367-0.7908 1.5602-1.7621 3.0171-2.7617 4.457 2.4208-2.3342 4.579-4.3314 3.8789 0.0234-0.053 0.33201 0.145 0.8546-0.1601 0.9961-2.1893 1.0155-3.9514 1.4146-5.1836 1.5938-0.1945 0.36188-0.3757 0.73053-0.586 1.084-0.1284 0.21584-0.4043-0.13553-0.6386-0.3418-0.3935-0.21709-0.6334-0.35833-0.6895-0.43359-1.1375 0.70696-1.9906 0.66404-2.1582-1.0566-0.1762-0.0557-0.3005-0.10225-0.5254-0.16797-3.9379-1.1506-4.6739-1.0919-7.6914-0.99414 0.186 0.40894 0.3725 0.8176 0.5586 1.2266 0.4206-0.50672 0.7518-0.86135 0.5781-0.47656-0.8861 1.9631-2.4004 3.0449-3.9336 4.3828-0.5746 0.50094-1.0947 1.0727-1.7246 1.502-0.1144 0.078-0.2329 0.14914-0.3476 0.22656-0.8388 1.7058-2.4797 3.3339-5.0625 4.2695-1.1169 0.40461-2.2347 0.80828-3.3516 1.2129-0.3928 0.1-0.78826 0.18804-1.1836 0.2793-1.3679 0.74105-2.7522 1.4538-4.1387 2.1621-0.099 0.13929-0.2338 0.28307-0.3437 0.42382 1.2959-0.12205 2.5923-0.24091 3.8848-0.39257 2.9172-0.34235 5.8256-0.75628 8.7382-1.1348 17.193-3.7895-2.1683 0.21145 12.024-1.8379 1.231-2.9526 3.5278-2.8216 6.0468-1.7637 0.9163-0.1933 1.4638-0.0181 1.9375 0.9375 0.1369 0.0741 0.2734 0.13878 0.4102 0.21484 0.5939 0.33025 0.5809 1.2294 0.8711 1.8438 0.061 0.59454 0.1224 1.1887 0.1836 1.7832 0.055 0.53535 0.063 0.96734 0.039 1.3262 0.1829 0.75087 0.365 1.5035 0.5937 2.4316 0.1857 0.7535-1.3286 0.83386-2.0664 1.0742-1.7075 0.55623-3.452 1.0256-5.2266 1.3008-2.948 0.45719-4.7065 0.69489-5.7929 0.8125h400.78v-732.42zm1004 712.53c0.3326-0.61905 0.6531-1.2444 0.9531-1.8809-0.4472 0.63869-0.8839 1.2828-1.3203 1.9277 0.1247-0.015 0.2287-0.0267 0.3672-0.0469zm0.9531-1.8809c0.171-0.24417 0.3418-0.48767 0.5117-0.73242-0.103 0.0993-0.1969 0.183-0.3008 0.2832-0.069 0.15026-0.1404 0.2996-0.2109 0.44922zm-39.506-5.8086c-0.3563 0.34509-0.673 0.73319-0.9824 1.1289-0.04 0.15777-0.067 0.32145-0.078 0.49219 0.3168 0.10165 0.9203 0.0258 2.1504-0.86328 0.3061-0.49124 0.6264-0.9706 0.9551-1.4434-0.7082 0.17498-1.41 0.36186-2.045 0.68554zm1.0899 0.75782c-0.6392 1.0258-1.2565 2.0706-1.9395 3.0605-0.066-0.52089-0.265-1.4033-0.2109-2.1973-0.1031-0.0331-0.1667-0.0747-0.2207-0.12305-0.1249 0.16536-0.2505 0.33009-0.375 0.49609-0.01 0.0221-0.023 0.0788-0.029 0.10352 0.01 6e-3 0.016 7e-3 0.023 0.0137 0.7203 0.60001 0.4004 1.7123-0.248 2.707 0.04 0.38611 0.1138 0.65247 0.3203 0.43946 1.2844-1.3238 2.0356-3.0642 2.9316-4.6953-0.081 0.0617-0.1755 0.14007-0.2519 0.19532zm-2.7461 1.2363c0.1312-0.46747 0.2168-0.6377 0.375-0.49609 0.096-0.12712 0.201-0.24406 0.2988-0.36914 0.035-0.13864 0.087-0.26663 0.1504-0.38867-0.5432 0.54169-1.2152 0.99482-1.7266 1.5586-0.3509 0.7034-0.6069 1.2733-0.5859 1.3828 0.4115-1.044 0.9299-1.9226 1.4258-1.6035 0.021-0.0279 0.043-0.056 0.062-0.084zm11.26 4.4219c-0.021 2e-3 -0.053 4e-3 -0.074 6e-3 -0.2451 0.1254-0.4829 0.26277-0.705 0.42383 0.01 8e-3 0.011 0.0154 0.016 0.0234 0.228-0.14377 0.4986-0.29938 0.7637-0.45312zm-0.7637 0.45312c-0.1207 0.0761-0.2174 0.14492-0.3301 0.21875-0.162 0.13504-0.3128 0.28552-0.4629 0.4375 0.3045 0.19453 0.617 0.36714 0.9512 0.48047 0.3991 0.13538 0.2084-0.54954-0.1582-1.1367zm-0.3301 0.21875c0.1018-0.0849 0.2076-0.16472 0.3145-0.24218-0.069-0.10818-0.1431-0.21192-0.2207-0.30664-0.493 0.0876-0.9828 0.20009-1.4747 0.29492 0.2703 0.22511 0.545 0.44168 0.8301 0.63086 0.1739-0.12249 0.3533-0.2476 0.5508-0.37696zm-2.0215-0.15234c-0.06 8e-3 -0.1194 0.0209-0.1797 0.0273-0.1289 0.24503-0.29 0.51093-0.4629 0.77735 0.2454 0.2946 0.4908 0.59034 0.709 0.86718 0.2473-0.24715 0.5453-0.50967 0.9219-0.79687 0.015-0.28942-0.3701-0.59338-0.9883-0.875zm-3.3789 0.73828c-0.05 0.0268-0.1057 0.0531-0.1543 0.0801 0.036 8e-5 0.069 6e-3 0.1211-0.0234 2e-4 -2.7e-4 0 2.8e-4 0 0 0.011-0.0183 0.02-0.0381 0.031-0.0566zm2.4063 0.54883c-0.3952 0.56901-0.7875 1.086-0.9707 1.3242-0.1454 0.21513-0.2635 0.38159-0.3946 0.57226 0.6681-0.25504 1.3138-0.5382 1.8906-0.91015 0.1166-0.17006 0.2736-0.35264 0.4629-0.54688-0.329-0.14463-0.6586-0.29258-0.9882-0.43945zm4.0957 0.19726c-0.053-0.0611-0.2324 0.20107-0.4981 0.56836 0.1928-0.10428 0.3243-0.17303 0.5195-0.27929 0.01-0.15083 0-0.26118-0.021-0.28907zm-2.959 0.30665c0 6e-3 0.011 0.0133 0.016 0.0195 0-3e-3 0-7e-3 0.01-0.01-0.01-3e-3 -0.016-6e-3 -0.023-0.01zm0.3222 0.14062c-0.033 0.0493-0.069 0.0945-0.1015 0.14453 0.1515 0.19839 0.2833 0.38375 0.4199 0.57227 0.2069-0.0655 0.4197-0.12282 0.6172-0.20117 0.059-0.0235 0.01-0.16335-0.053-0.1836-0.2953-0.0988-0.5892-0.2106-0.8829-0.33203zm-6.5761 1.0957c0.039 0.34155 0.1046 0.68245 0.164 1.0234 0.017 5e-3 0.034 0.0137 0.051 0.0195-0.072-0.34764-0.1432-0.69527-0.2148-1.043zm8.4004 1.2988c-0.1334 6e-3 -0.2649 6e-3 -0.3965 6e-3 0.079 0.13603 0.1458 0.2652 0.2148 0.39453 0.048-0.10162 0.1238-0.25363 0.1797-0.36914 3e-4 -0.0105 0-0.0207 0-0.0312zm-0.9121 0.89258c-0.022 0.0664-0.04 0.11263-0.061 0.17578 0.1647-0.0289 0.3107-0.083 0.4316-0.16797-0.1235-6e-4 -0.2469 1e-3 -0.371-8e-3zm29.656 4.125c-0.2001-0.0116-0.8236 0.0558-0.791 0.26367v0.0293c0.2684-0.0878 0.536-0.18029 0.8066-0.25781 0.067-0.0193 0.047-0.0313-0.019-0.0352zm2.9121 1.9238c0.1332 0.43334 0.2826 0.94948 0.4336 1.5332 0.04-0.52972-0.1373-1.0525-0.4336-1.5332zm-3.1582 2.9043c0.1299 1.7402 0.103 2.4422 0.3477 2.9512 0.8053-0.0505 1.5098-0.35328 2.0703-1.0664-0.6981-0.37917-1.5438-1.0942-2.418-1.8848zm-6.3984 5.6035c-0.35 0.0818-2.9029 0.63486-3.9766 0.87305h0.6856c0.5291-0.30899 4.8228-1.231 3.291-0.87305z" fill-opacity="0"/>
 <rect x="474.63" y="643.04" width="2.678" height="25.441" fill="#f9f9f9" fill-opacity=".12381"/>
 <g fill="#f00">
  <path d="m996.34 850.33c-0.1334 6e-3 -0.2649 6e-3 -0.3965 6e-3 0.079 0.13603 0.1458 0.2652 0.2148 0.39453 0.048-0.10162 0.1238-0.25363 0.1797-0.36914 3e-4 -0.0105 0-0.0207 0-0.0312zm-0.9121 0.89258c-0.022 0.0664-0.04 0.11263-0.061 0.17578 0.1647-0.0289 0.3107-0.083 0.4316-0.16797-0.1235-6e-4 -0.2469 1e-3 -0.371-8e-3z" opacity=".99"/>
  <path d="m68.074 219.35c0.25339-1.8629 0.50702-3.7272 0.6824-5.5994 0.0214-0.24558 0.0381-0.49191 0.0409-0.7384 2e-5 -0.0458-0.0154-0.18059 6e-5 -0.13746 3.9774 11.089 4.854 12.106 0.97138 5.8749-9.4273-19.238 17.779-32.57 27.207-13.332-4.5418-6.9506 2.0284 2.3036 2.1188 7.813-0.0125 1.1614-0.0656 2.322-0.18477 3.4779-0.21419 2.1381-0.46966 4.2721-0.77165 6.3997-2.6573 21.258-32.721 17.5-30.064-3.758z" opacity=".379"/>
  <path d="m146.07 138.37c-0.0801-0.14098-0.34722-0.54472-0.24018-0.42295 0.70359 0.8004 2.0058 2.4545 2.6559 3.4231 0.44495 0.66298 0.85192 1.3507 1.2743 2.0282 0.1235 0.19811 0.50066 0.78751 0.36335 0.59872-0.34781-0.47822-0.66381-0.97878-0.99571-1.4682 1.3481 1.4959 2.3919 3.0568 3.3299 4.8948 0.37147 0.72789 1.2856 2.994 0.86275 2.2948-0.75994-1.2566-1.2556-2.655-1.8835-3.9826 1.9865 3.1153 0.39966 0.47137-3.9395-3.7306-0.23532-0.22787-0.5563-0.34761-0.84817-0.49632-0.444-0.22624-1.707-0.982-1.357-0.62729 9.4816 9.6093 6.6782 3.4701 9.366 11.251 0.7269 5.1081-0.0592-0.95591-1.0149-2.9927-0.74706-1.5922-1.735-3.1414-3.0591-4.2989-1.7055-1.4908-3.8499-2.3928-5.838-3.4784-0.31222-0.17046-1.3322-0.46307-1.0318-0.27255 2.6956 1.7097 5.5034 3.2359 8.2551 4.8538-1.7019-1.606-4.9222-5.1786 2.3049 2.7395 11.515 18.066-14.034 34.351-25.549 16.285 7.445 7.9038 2.3764 2.622 0.64077 1.1509 2.677 1.5343 5.4326 2.9391 8.0311 4.6029 0.40123 0.25692-0.96253-0.13032-1.3863-0.34812-2.1744-1.1177-4.5017-2.0597-6.3688-3.6382-1.4481-1.2243-2.5333-2.8834-3.3624-4.5889-1.1133-2.2902-1.9853-8.4738-1.2684-3.7689 2.6596 7.449-0.2228 1.1462 9.1737 10.692 0.4059 0.41236-1.0643-0.45611-1.5814-0.71572-0.41496-0.20833-0.86913-0.37352-1.212-0.68667-4.5576-4.1629-6.6001-7.2579-4.8478-4.6609-0.73323-1.4794-1.3941-2.997-2.1997-4.4383-0.30578-0.54711 0.39705 1.1958 0.69544 1.747 2.0362 3.7611 2.2194 3.1518 0.99351 1.8244-2.1966-2.9437-2.1472-3.3963-4.6172-6.1596-12.452-17.433 12.202-35.043 24.654-17.61z" opacity=".379"/>
  <path d="m37.195 493.96c-2.5686-5.1839-3.4558-10.891-4.0512-16.582-0.6519-4.6959 0.09564-9.3076 1.9617-13.632 3.2097-4.677 2.3968-4.734 8.0054-8.662 2.6059-1.5678 5.4689-2.5493 8.402-3.2806 0.61219-0.14124 0.64526-0.15282 1.6094-0.30911 4.3344-0.70263-7.2066 3.1506-4.1993 1.3921 6.0493-3.6094 12.135-2.5304 18.146 0.037 2.9865 1.3163 5.5548 3.3208 7.9009 5.5536-1.265-1.3585 1.4747 1.6392 2.248 2.4245 0.3622 0.36783-0.85033-0.68497-1.0065-1.177-0.1339-0.4219 0.64435 0.60935 0.93286 0.94503 1.6076 1.8704 1.4948 1.7892 2.6 3.4721-0.22958-0.34017-0.94207-1.3434-0.68874-1.0205 1.0443 1.3309 2.3388 3.2319 2.9787 4.7657 0.52353 1.2549 0.87078 2.5763 1.3062 3.8645 0.35147 2.0292 0.87367 3.959 1.2038 6.3401 0.5265 3.1903 0.0995 6.3838-0.46118 9.5317-0.0161 1.4063-0.10108 3.1543-0.13047 4.6926 0.1283 2.6687-0.30949 5.0901-0.71926 7.77-2.1903 5.2595-0.29203 1.35-3.4436 6.2406-1.0906 1.6924 2.7275-3.6751 1.8336-2.7576-1.9844 2.037-4.1255 3.9837-5.6831 6.363-1.076 1.6435 2.8096-2.7463 4.2143-4.1194-2.3748 3.3367-4.7836 4.8991-8.2266 6.519-0.19778 0.0931 0.80087-0.35016 0.60399-0.25524-1.087 0.52406-1.8524 0.79709-1.11 0.52585-2.4689 1.1177-3.1088 1.5498-6.812 2.9353-1.2577 0.45226-2.4999 0.99523-3.8242 1.2358-0.64349 0.11687 1.263-0.3493 1.8717-0.58859 1.1409-0.44855 1.5814-0.81804 2.569-1.4824-2.8719 2.089-5.9835 3.2864-9.4795 3.6793-1.1024 0.12154-2.2127 0.11185-3.3201 0.10685-2.1173-0.45033-5.7626-0.42327-7.9128-1.8115-0.2811-0.18149 0.62193 0.24702 0.9329 0.37053 0.41448 0.11831 0.8327 0.22424 1.2435 0.35493 0.1183 0.0376-0.25116-0.0252-0.36473-0.0753-2.05-0.90471-4.0873-1.8381-6.1178-2.7856-0.09673-0.0451-0.34886-0.24576-0.25801-0.18971 2.9834 1.8405 1.9545 1.2299 0.48853 0.40295-3.8392-2.261-2.814-3.8063-6.7394-8.2778-5.346-6.0897 3.7051 6.2531 2.8407 4.8522-0.89766-1.4548-1.8984-2.8435-2.8475-4.2652-0.72985-0.8122-0.69129-1.9089-1.073-2.8492-0.24278-0.59808 1.0701 2.347 0.75798 1.782-0.92647-1.6772-0.98927-2.0143-1.6073-3.6813-0.79952-2.4293-0.93324-4.9638-0.88293-7.4938 0.01893-0.69024 0.02417-1.3807 0.0284-2.0712 4.83e-4 -0.12679-0.01661-0.50588 0.0014-0.38038 0.5251 3.6498 0.09478 3.3962 1.3364 6.1581 0.20354 0.45278 0.92702 1.7538 0.72927 1.2985-2.6181-6.0284-1.2726-2.3003-1.8677-3.96-0.68297-1.7287-0.95966-3.5762-1.102-5.4136-0.04112-0.56506-0.04549-1.1312-0.04765-1.6973-0.04639-21.424 30.251-21.489 30.298-0.0656-0.01024-0.13861-0.02716-0.27688-0.03073-0.41582-0.11183-1.2041-1.2565-4.4673-0.58358-2.595 0.51625 1.4493 0.21655 0.54955-1.3533-2.5026-0.25562-0.6396 0.74954 1.1602 1.047 1.7815 1.2018 2.5102 1.9686 5.1311 1.8705 7.9784-0.0052 0.83636-0.01241 1.6728-0.03425 2.5089-0.02487 1.1376-0.19172-3.2134-0.6538-2.676-0.27657-0.68504-1.28-2.6634-0.95431-2.0003 1.369 2.7868 0.96724 1.6156 1.797 3.8797 0.09063 0.24731 0.36991 0.9839 0.24891 0.74995-0.24519-0.47406-0.41582-0.98311-0.62374-1.4747-0.81161-1.1359-1.7456-2.1937-2.4348-3.4077-0.37986-0.66911 1.0862 1.1063 1.4975 1.7566 0.82982 1.3118 3.3002 5.2028 2.2074 4.1003-1.7915-1.8074-2.8267-4.2359-4.3571-6.2691-0.21365-0.28384-1.3905-1.019-1.7068-1.2256-0.28142-0.15123-1.1151-0.62321-0.84426-0.4537 0.83687 0.52381 1.7004 1.0039 2.5436 1.5174 0.08797 0.0536 0.34387 0.22294 0.24892 0.18303-1.9048-0.8006-3.7984-1.6278-5.6859-2.4683-0.08297-0.0369 0.17788 0.0368 0.26682 0.0553 0.70773 0.17793 1.4155 0.35587 2.1232 0.53381 0.54852 0.20108 1.0966 0.40322 1.6455 0.60322 0.2667 0.0972-1.078-0.3563-0.80723-0.27121 3.6351 1.1421-5.7329-0.65814-3.1221-0.38702 1.0959 5e-3 0.86287-0.021 0.03763 0.0562-3.3702 0.4849-2.9013 0.62187-6.0514 2.5959 3.1228-2.2102 6.0454-3.2439 7.4431-3.6834 0.6412-0.23974 2.3256-1.2756 1.9224-0.72246-0.26924 0.36935-1.6045 0.87579-1.1964 0.66989 0.92687-0.46766 1.8982-1.1292 2.9234-1.4894 4.7268-2.3075-2.1258 0.88038 2.7295-1.2947 0.2809-0.12584-0.56438 0.24976-0.82837 0.40804-2.625 1.5739-2.0114 1.5194-4.8853 4.7093 1.5637-1.6206 5.4485-6.9826 4.6911-4.8618-0.87968 2.4633-3.2559 4.1071-5.0882 5.9738-0.24001 0.2445 2.6178-4.7913 2.4372-3.8442-0.35268 1.8494-2.9467 2.8042-2.59 5.0192-1.0055 8.0286-0.26754 1.8652-0.45071-8e-3 0.06353-3.15 0.14342-6.3101 0.59836-9.4327 0.05233-0.29145 0.10205-0.58337 0.15699-0.87434 0.22473-1.1902 0.14163 2.599 0.09441 0.67046-0.06216-0.55731-1.1203-5.1498-0.5907-3.0938 1.2008 2.9546 0.40398 1.3547 1.5422 3.2456 0.16455 0.27337-0.73673-1.0395-0.52684-0.79921 0.26203 0.30003 2.9366 3.9156-0.80604-1.1126 0.42985 0.54819 0.31531 0.411 1.1385 1.3082 0.04985 0.0543 0.21701 0.1993 0.16671 0.14539-6.4533-6.9152 3.0329 3.0024-1.7535-1.7414 0.22765 0.17042 0.91987 0.66906 0.69242 0.49836-0.23842-0.17893-1.0086-0.43076-0.7252-0.52332 0.10631-0.0347 2.355 1.4251 0.38933 0.26583 2.0577 0.69631 4.3543 0.8522 6.4745 0.24732 1.3713-0.39121 2.6318-1.0991 3.9559-1.6285 0.0904-0.0362-0.16809 0.0984-0.25214 0.14768-2.0799 1.216-9.6176 2.9203-5.6769 2.2344 0.15565-0.0271-0.30805 0.0704-0.46207 0.10555 0.76873-0.23075 0.31278-0.0584 0.80317-0.42674 1.3634-1.0299 1.1588-0.71095 1.788-1.4545 0.40156-0.47455 1.5442-1.9485 1.1744-1.4487-3.3349 4.5074 0.0371-0.52282 0.89418-1.8757 0.25298-0.87249-0.32619 1.1319 0.5086-1.9914 0.0415-0.15521-0.0903 0.63216-0.0988 0.47173-0.0416-0.78482-0.0284-1.5723-1e-3 -2.3578 0.0233-0.67278 0.0909 3.0298 0.14161 2.0146 0.12313 1.274 0.25131 2.5477 0.47304 3.8094 0.07 0.39853 0.16198 0.79293 0.23809 1.1904 0.0383 0.20003 0.26598 0.72684 0.10513 0.60189-0.30441-0.23647-0.40109-0.65838-0.60164-0.98758 10.629 18.601-15.677 33.633-26.306 15.032z" opacity=".379"/>
 </g>
 <g fill="#0ff">
  <path d="m1172.2 473.27c-1.6792 1.6073-3.1446 3.4318-4.777 5.0814-3.2101 3.2438-1.3783 1.1856-2.5465 2.5119 0.3921-0.25203-4.1741 3.725-3.4655 3.0914-5.0502 3.2055-7.1692 4.3938-12.434 4.2557-0.3607-0.0105-0.7214-0.0201-1.0821-0.0293-11.607-7.8233-14.96-6.6197-14.947-17.033-0.2468-3.8336 1.2551-5.7762 2.6199-9.0767 0.2794-0.67556-1.3298 2.6039-1.0153 1.9439 1.7904-3.7568 1.2243-2.596 4.0573-6.2232 4.5096-4.787 10.206-8.3242 15.762-11.765 4.5324-2.7643 9.1688-5.3511 13.826-7.8967 18.8-10.273 33.328 16.315 14.528 26.587-4.2002 2.2944-8.3835 4.6222-12.473 7.1109-2.4716 1.5082-2.571 1.5222-4.956 3.1637-1.1774 0.81041-2.224 1.8294-3.4928 2.4877-0.1099 0.057 0.2554-0.41599 0.1629-0.33374-0.3422 0.30426-0.6182 0.67562-0.9273 1.0134 0.3554-0.54488 0.7543-1.0637 1.0661-1.6346 0.2914-0.53347 1.014-2.2092 0.7376-1.6677-0.506 0.99149-0.3588 3.3314-1.4273 3.0191-1.0626-0.31056 1.015-1.9866 1.2982-3.0568 0.3328-1.2576 0.3411-2.5794 0.5338-3.8659 0.016-0.10672 0 0.2158 0 0.3237 0 0.15145-0.026-0.30191-0.045-0.45221-0.1201-0.95777-0.4683-3.1459-0.8833-3.494-4.2377-3.5547-9.099-6.2918-13.648-9.4376 0.4269 0.0109 0.8537 0.0223 1.2805 0.035-3.7314 0.0736-5.8852 1.6632-9.3241 3.9834 0.7132-0.66122 1.4587-1.4439 2.2765-1.9682 0.1307-0.0838-0.4386 0.4366-0.3143 0.34362 0.1936-0.14486 0.3498-0.33401 0.5247-0.50102 2.0401-2.061 4.0458-4.1496 6.0844-6.2335 13.942-16.266 36.946 3.4514 23.004 19.718z" opacity=".379"/>
  <path d="m1112.9 208.73c-0.4057 3.818-0.5269 7.66-0.6413 11.496-0.042 1.4214-0.065 2.8431-0.089 4.2648-0.3632 21.421-30.657 20.907-30.293-0.5137 0.026-1.5539 0.053-3.1078 0.099-4.6612 0.1407-4.6494 0.3075-9.3047 0.8128-13.931 2.3659-21.293 32.478-17.947 30.112 3.3458z" opacity=".379"/>
  <path d="m1033.4 154.53c1.1193 5.92 2.2042 11.847 3.5104 17.73 0.8103 4.1007 1.3448 8.2456 2.2443 12.329 4.5357 20.938-25.075 27.352-29.611 6.4144-0.8721-4.0688-1.525-8.1734-2.2321-12.273-1.2653-5.8552-2.4079-11.737-3.488-17.628-4.6474-20.914 24.929-27.486 29.576-6.5725z" opacity=".379"/>
 </g>
</svg>
