<?xml version="1.0" encoding="UTF-8"?>
<svg width="4046.7" height="2057.3" version="1.1" viewBox="0 0 4046.6667 2057.3333" xmlns="http://www.w3.org/2000/svg">
 <path d="m1089.1 1866.8c-20.236-4.2189-36.554-6.4001-54.667-7.3065-19.186-0.9603-27.675-2.6952-42.781-8.7443-5.5929-2.2395-14.155-4.9083-19.027-5.9308-22.644-4.7523-34.2-10.658-49.525-25.309-16.064-15.358-28.694-24.197-44.393-31.068-5.9752-2.6152-26.542-20.732-49.518-43.62-8.8016-8.7676-16.589-21.397-20.184-32.733-1.2573-3.9651-4.3471-13.467-6.8663-21.115-5.0371-15.293-10.419-35.002-12.966-47.487-2.5208-12.353-9.8129-33.427-15.666-45.274-2.8984-5.8666-6.1075-13.873-7.1313-17.792-1.0238-3.9191-3.3796-10.442-5.2351-14.494-4.5251-9.884-4.2787-13.967 1.812-30.034 2.8521-7.5236 6.7565-18.779 8.6765-25.012 5.236-16.998 8.6981-24.02 15.229-30.885 5.5058-5.7877 5.8512-6.5725 4.9866-11.333-0.5109-2.8132-3.228-10.215-6.038-16.448-3.0719-6.8142-5.4649-14.523-6.0013-19.333-1.0064-9.0237-3.2198-17.85-5.098-20.329-0.69271-0.9142-5.2376-3.7766-10.1-6.3608l-8.8404-4.6986-9.6325 1.6151c-11.581 1.9419-19.307 0.045-31.034-7.6193-17.209-11.247-21.097-12.557-42.754-14.402-21.815-1.8588-24.978-3.1112-23.43-9.2784 1.0064-4.0094 5.3855-5.3522 11.622-3.5637 5.6168 1.6109 5.2291 1.6453 5.2291-0.4635 0-0.9718-3.2269-5.0218-7.1708-9-6.5654-6.6224-7.3492-8.0773-9.2842-17.233-1.1624-5.5-2.4547-13-2.8719-16.667s-1.0982-8.5743-1.5132-10.906c-1.6287-9.1487 1.8825-18.333 15.063-39.399 1.7107-2.7343 3.1104-5.4632 3.1104-6.0643 0-0.601-3.2254-4.4765-7.1676-8.6121-8.8659-9.3011-17.17-21.587-20.27-29.988-1.2914-3.5003-3.02-7.2641-3.8414-8.3641-11.343-15.191-22.07-70.795-22.489-116.58-0.23248-25.404-0.2292-25.435 4.1464-38.88 4.6942-14.424 10.802-23.211 16.134-23.211 3.7617 0 3.5608 2.9153-0.53651 7.7846-7.4176 8.8153-12.643 27.058-12.643 44.138 0 7.3381 1.9352 8.842 4.0889 3.1774 1.8881-4.966 19.303-30.822 24.386-36.206 6.4408-6.8225 15.181-12.647 26.465-17.638l10.273-4.5435 0.39371-5.9867c0.37884-5.7609 0.61385-6.0634 6.2315-8.0226l5.8378-2.0359 0.23417-9.3333c0.19397-7.7319 1.0979-11.164 5.2678-20 2.7685-5.8667 6.4524-15.467 8.1864-21.333 1.7341-5.8666 4.7294-15.467 6.6564-21.333 2.5151-7.6573 3.6345-14.24 3.9675-23.333 0.25517-6.9667 1.6549-20.167 3.1106-29.333 1.4557-9.1666 3.0467-20.267 3.5356-24.667 0.48891-4.4 1.672-11.3 2.6291-15.333 0.95708-4.0333 2.4763-11.833 3.3759-17.333 9.356-57.196 16.281-79.131 35.147-111.33 3.0075-5.1333 11.841-22.233 19.629-38 24.433-49.459 47.535-86.756 74.329-120 15.97-19.814 26.186-32.569 34.433-42.987 15.582-19.686 34.604-35.321 60.868-50.032 20.065-11.238 24.025-12.939 38.258-16.428 11.229-2.753 37.329-11.824 44.382-15.426 2.0267-1.0348 6.5053-2.4084 9.9525-3.0524 10.104-1.8877 19.456 4.4528 16.795 11.387-1.0543 2.7476-4.9829 2.2806-7.8928-0.93828-2.1652-2.3951-3.5285-2.6937-9.2388-2.0237-3.6844 0.43226-12.684 2.943-20 5.5795-7.3157 2.6364-21.101 7.1728-30.635 10.081-26.858 8.1925-36.317 13.128-65.509 34.178-14.011 10.103-22.875 19.436-48.491 51.053-6.9667 8.599-16.928 20.661-22.136 26.805-5.2079 6.1438-10.418 13.007-11.579 15.251-1.1604 2.244-2.9347 4.7646-3.9429 5.6013-1.848 1.5337-14.426 21.242-26.136 40.951-15.638 26.321-60.207 111.75-60.207 115.41 0 0.75004-1.1598 3.6371-2.5774 6.4158-3.3087 6.4856-12.962 37.885-14.712 47.852-0.73918 4.2113-2.2669 12.457-3.3948 18.324-6.0717 31.579-8.8575 53.065-12.706 98-0.72237 8.4333-2.475 20.133-3.8948 26-1.4198 5.8666-3.2212 13.892-4.0032 17.833-0.78197 3.9416-3.5818 12.042-6.2219 18-2.6401 5.9584-5.288 12.482-5.8843 14.497-1.3998 4.7298 1.1178 30.557 3.1636 32.454 0.86026 0.7978 5.143 2.7767 9.5173 4.3976 14.21 5.2654 23.849 14.838 36.405 36.152 8.6741 14.725 20.521 44.526 25.611 64.423 4.6442 18.155 5.4234 38.17 2.044 52.502-4.9961 21.188-21.082 48.775-38.076 65.3-13.366 12.997-15.638 14.448-29.156 18.613-12.818 3.9492-21.048 3.6922-35.692-1.1152-6.1258-2.0109-8.848-2.3632-10.118-1.3093-0.95546 0.7929-4.4149 6.6481-7.6877 13.012-5.4966 10.688-5.9857 12.465-6.4128 23.308-0.6675 16.946 2.443 29.697 8.8746 36.379 2.7066 2.8121 7.0971 6.2367 9.7567 7.6099 5.2215 2.6962 6.4978 4.768 6.4978 10.548 0 3.4211 0.50752 3.7916 6.3333 4.6232 3.4833 0.4972 8.2459 1.9244 10.583 3.1718 2.3376 1.2472 11.799 6.3177 21.026 11.268 9.2265 4.95 17.935 9 19.351 9 1.4168 0 6.0321-0.9001 10.256-2.0004 8.4919-2.2119 10.538-1.8833 17.44 2.8005 2.5934 1.76 5.798 3.1999 7.1215 3.1999 5.3543 0 8.8992 5.5485 11.778 18.434 1.5276 6.8388 2.7774 13.412 2.7774 14.608 0 1.1953 2.163 7.0001 4.8067 12.899 8.235 18.376 8.5266 19.296 8.5266 26.886 0 7.2232-0.1922 7.6036-7.8957 15.626-8.5524 8.9064-9.082 10.058-18.79 40.865-5.3573 17.001-5.6266 18.618-4.9194 29.535 0.75888 11.713 4.3491 23.173 11.011 35.146 3.0477 5.4777 11.062 30.285 13.999 43.333 0.90791 4.0334 4.3068 15.433 7.553 25.333 3.2462 9.9 7.3654 23.7 9.1536 30.667 1.7882 6.9667 6.0358 18.348 9.4391 25.291 5.6789 11.586 7.8431 14.311 26.319 33.14 19.396 19.767 26.692 25.588 46.798 37.339 10.389 6.0716 20.821 14.134 30.17 23.32 12.855 12.629 23.066 18.692 40.67 24.149 21.485 6.6603 26.618 8.4943 35.106 12.543 6.0212 2.8716 10.17 3.6596 24 4.5577 28.364 1.8421 47.037 3.8425 55.387 5.9333 4.4 1.1018 10.4 2.5976 13.333 3.3242 6.3826 1.5809 21.597 0.5404 32.274-2.2074 23.913-6.1537 29.357-6.6926 68.392-6.7708 29.557-0.059 40.666-0.5708 50-2.3025 13.178-2.4449 42.743-5.7459 68.667-7.6665 21.552-1.5968 29.957-2.5186 37.333-4.0939 3.3-0.7048 15.9-3.3269 28-5.8271 12.1-2.5001 24.7-5.2329 28-6.0729 3.8746-0.9863 13.98-1.3111 28.528-0.9172 21.627 0.5857 23.094 0.4568 36.667-3.2229 7.7761-2.1082 15.857-3.8366 17.957-3.8408 5.7172-0.013 29.483-6.1423 40.848-10.537 31.279-12.095 43.595-16.256 57.872-19.554 9.1559-2.1149 18.747-5.2741 22.667-7.4665 19.478-10.894 31.602-15.941 43.049-17.92 6.4602-1.1169 16.57-4.093 22.467-6.6136 5.8968-2.5205 11.162-4.5828 11.7-4.5828s8.9205-3.8274 18.627-8.5054c12.235-5.8968 19.398-10.256 23.355-14.212 3.6707-3.6707 6.1658-5.2467 6.9944-4.418 1.8226 1.8225-0.018 13.49-2.5917 16.427-1.1768 1.343-9.9396 4.997-19.473 8.1198-9.5333 3.1229-23.033 8.24-30 11.371-11.154 5.0138-35.839 12.551-41.105 12.551-2.9492 0-23.242 9.3809-26.305 12.16-3.5317 3.2044-18.329 8.3495-31.923 11.1-12.805 2.5906-23.337 5.9598-38.226 12.229-20.98 8.8332-30.719 11.934-49.774 15.846-5.8667 1.2046-15.829 3.6302-22.138 5.3903-9.0182 2.5157-14.436 3.1676-25.333 3.0481-42.975-0.4713-43.903-0.4149-63.195 3.835-22.417 4.9384-51.514 9.3484-73.333 11.115-14.993 1.2137-57.286 6.0993-81.333 9.3956-5.8666 0.8042-17.567 1.28-26 1.0573-37.626-0.9932-46.733-0.2359-74 6.154-19.08 4.4715-27.281 4.8531-41.333 1.9232zm-376.58-595.4c3.9831-1.1819 9.942-3.5349 13.242-5.2293 10.79-5.5399 30.137-27.903 38.756-44.798 1.4472-2.8368 4.8256-11.308 7.5075-18.824 4.4897-12.584 4.876-14.829 4.8742-28.333-1e-3 -12.11-0.73729-17.531-4.2211-31.099-2.3205-9.0379-5.0886-18.338-6.1514-20.667-1.0627-2.3287-3.5391-8.1341-5.503-12.901-9.2247-22.389-20.829-41.532-30.798-50.805-9.3952-8.739-27.76-15.211-25.868-9.1161 0.60691 1.9544 0.61207 4.0746 0.0425 17.481-0.24572 5.7838 0.34643 8.6406 2.5199 12.157 6.3451 10.266 0.84396 18.741-10.178 15.68-2.7393-0.7608-5.6306-1.3866-6.425-1.3907-2.4874-0.013-10.74 9.1556-13.249 14.718-2.018 4.475-2.1302 5.8232-0.70648 8.4835 1.3714 2.5625 6.4197 6.1241 8.6804 6.1241 0.26866 0 3.1145-2.7402 6.324-6.0893 4.5574-4.7556 7.0428-6.2513 11.347-6.8286 4.6926-0.6295 6.0224-0.2288 8.9466 2.6953 4.8033 4.8033 4.3124 7.9265-2.3368 14.866-4.2886 4.4758-6.7816 6.0234-9.7033 6.0234-2.1625 0-5.2465 0.9208-6.8533 2.0462-3.6794 2.5772-8.5837 13.477-8.0646 17.924 0.36676 3.1418 0.81511 3.3363 6.8101 2.9543 11.827-0.7537 19.13 4.0498 16.515 10.863-1.3532 3.5265-10.296 6.5809-16.958 5.7918-6.977-0.8263-9.3079 0.5251-9.3079 5.3964 0 4.0395 3.0882 5.148 6.9015 2.477 4.0961-2.869 10.198-2.6582 15.432 0.5332 6.7093 4.0907 4.9157 10.26-3.6667 12.613-8.4786 2.3242-10.584 3.7768-12.091 8.343-1.2862 3.8972-1.1913 5.0147 0.5758 6.7818 1.9321 1.932 2.6231 1.8622 7.9614-0.8038 7.2192-3.6054 13.067-3.7374 16.12-0.3637 3.0776 3.4008 1.0579 7.2277-5.6109 10.631-7.1934 3.6715-10.113 7.342-9.088 11.426 1.463 5.8292 9.3174 4.2024 17.052-3.532 5.9921-5.992 6.9324-0.037 1.2359 7.8269-5.3911 7.4422-12.42 10.595-19.442 8.7202-4.4456-1.1871-5.7846-1.07-7.7128 0.6744-1.2833 1.161-2.3349 2.7678-2.3368 3.5709-1e-3 0.8029-2.1019 4.94-4.6667 9.1935-2.5648 4.2533-4.6632 8.5537-4.6632 9.5564 0 1.6596 7.3541 5.0718 14 6.496 5.8791 1.2598 13.887 0.7706 20.758-1.2679zm-39.579-16.863c3.7742-4.9483 12.156-22.48 13.393-28.014 0.71528-3.1993 0.19316-4.0658-3.9075-6.4853-7.5864-4.4761-8.825-8.8639-5.7487-20.366 1.5613-5.8376 1.5175-5.9871-3.3333-11.356-5.9402-6.5751-6.1322-9.8869-1.015-17.506 3.1184-4.6433 3.6222-6.3275 2.5128-8.4005-1.8449-3.4473-0.46837-12.688 3.1395-21.074l2.9263-6.8025-3.9062-2.8119c-7.6745-5.5244-15.24-13.216-15.24-15.494 0-1.2743 1.2638-3.9237 2.8086-5.8875 1.5447-1.9638 5.0018-7.5829 7.6824-12.487 3.8579-7.0579 6.4645-9.969 12.505-13.966 8.988-5.9477 10.646-9.827 6.47-15.136-1.9577-2.4888-2.7997-5.4771-2.7997-9.9369 0-12.142-1.5239-12.781-15.542-6.5219-12.877 5.7497-18.09 9.6807-26.215 19.768-17.905 22.229-25.318 43.554-18.479 53.158 2.8985 4.0706 2.9118 4.2346 0.4488 5.5527-1.6023 0.8576-4.0753 0.9174-6.7082 0.1623l-4.1703-1.1961 9e-3 7.5736c0.0248 21.244 10.709 63.311 21.378 84.175 10.389 20.317 23.255 37.399 28.166 37.399 1.271 0 3.8023-1.9553 5.6251-4.3452zm1248.2 501.21c2.5074-1.7212 5.8318-3.2278 28.504-12.919 13.333-5.6992 26.526-12.957 31.839-17.517 4.4006-3.7763 7.5376-4.7162 8.8194-2.6424 2.7838 4.5045-15.329 15.319-44.084 26.32-21.942 8.3951-31.031 10.844-25.079 6.7584zm-245.04-15.635c-5.0698-2.9529-1.464-9.3012 6.3333-11.15 5.3074-1.2586 12.408-4.5899 17.333-8.1318 8.4137-6.0505 20.263-11.892 33.75-16.638 12.644-4.4493 14.21-5.3667 16.134-9.4505 3.8932-8.266 12.116-6.3475 12.116 2.8268 0 4.6065-0.4701 5.2422-5.6667 7.6641-3.1167 1.4524-9.8667 3.9735-15 5.6023-16.335 5.183-25.154 9.254-34.701 16.018-12.446 8.8177-22.739 14.708-25.612 14.659-1.2945-0.023-3.4036-0.6521-4.6869-1.3996zm119.43-47.123c-9.6649-2.4643-19.565-5.4819-22-6.7055-2.435-1.2237-11.027-3.9373-19.094-6.0304-8.0666-2.0931-18.267-5.4365-22.667-7.4301s-12.2-4.7187-17.333-6.0556c-9.8913-2.5763-11.546-3.8974-20.667-16.501-11.301-15.616-11.93-18.911-8.5437-44.768 1.0873-8.3028 1.71-15.792 1.3838-16.642-0.3447-0.8981-2.2886-1.2968-4.6402-0.9516-3.6203 0.5313-4.2637 0.076-6.1011-4.322-3.3908-8.1153-8.5739-53.697-7.3534-64.667 1.1616-10.441-0.9051-72.748-2.6694-80.478-0.8095-3.546-1.6877-23.046-1.9517-43.333-0.2639-20.287-1.2371-43.186-2.1626-50.886l-1.6828-14 4.7775-9.4684c5.3946-10.692 13.897-19.172 25.951-25.883 4.2127-2.3455 9.7595-6.2617 12.326-8.7028 2.5667-2.4409 8.116-5.7203 12.332-7.2873 8.9346-3.3208 9.8163-5.1696 8.479-17.778-0.4792-4.5179-1.2392-11.645-1.689-15.838-0.9313-8.6821 1.332-13.77 6.7278-15.124 4.834-1.2133 6.4084-6.2399 5.3612-17.116-0.5015-5.2081-1.4475-10.907-2.1021-12.664l-1.1903-3.194-3.2247 3.0294c-1.7736 1.6662-4.0714 2.7045-5.1064 2.3074-2.3281-0.8934-3.7784-12.272-2.1201-16.634 1.9671-5.1737 1.4312-7.6066-3.4672-15.741-4.7082-7.8188-6.1307-16.198-3.4646-20.407 1.9798-3.1254 7.627-2.0308 13.382 2.5938l5.5089 4.427 6.9537-2.1988c8.7552-2.7684 26.404-4.3575 46.637-4.1994 30.393 0.2376 47.888 6.0951 66.054 22.115 12.523 11.044 12.994 12.829 5.8426 22.145-6.4372 8.3852-8.633 15.092-8.0301 24.526 0.394 6.1646 1.3797 9.5618 3.674 12.662 1.7615 2.38 2.7832 5.1559 2.3313 6.3334-1.1624 3.0292-5.6664 2.5742-8.9493-0.9038-7.0639-7.4836-8.2263-14.302-5.1103-29.978 0.9094-4.5745 1.2532-8.7175 0.7644-9.2064-0.4889-0.4888-5.3868 0.1704-10.884 1.4649-11.612 2.7346-32.057 3.1111-44.386 0.8176-10.641-1.9794-24.5-7.621-36.431-14.83-12.202-7.3728-13.391-6.4375-9.8251 7.7325 1.6757 6.6589 2.6003 14.863 2.6003 23.072 0 12.123-0.2517 13.248-5.205 23.268l-5.2051 10.528 1.3997 13.399c1.3194 12.631 1.2356 13.696-1.4616 18.568-2.5094 4.5332-4.1597 5.6387-13.415 8.9859-10.587 3.8288-29.575 15.388-37.897 23.07-6.5167 6.0157-9.3454 12.416-9.5216 21.545-0.3779 19.577 2.5763 94.912 4.3357 110.56 1.0776 9.5864 2.0304 31.338 2.1319 48.667 0.101 17.233 0.5197 36.133 0.9305 42 0.8141 11.628 4.4785 38.009 5.5218 39.754 0.3575 0.5978 1.7438 0.097 3.0807-1.113 3.8818-3.5129 12.818-4.1604 16.124-1.1684 6.0544 5.4792 5.9057 11.195-0.2912 11.195-2.8194 0-2.7864-0.1227-5.844 21.733-2.4829 17.748-2.0792 21.238 3.6554 31.6 5.7667 10.421 9.6092 14.092 18.158 17.348 4.1257 1.5712 11.401 4.579 16.168 6.6836 4.7667 2.1047 11.002 4.2018 13.855 4.66 2.8537 0.4583 12.074 3.4942 20.488 6.7464 8.4149 3.2524 17.78 6.26 20.811 6.6838 3.0315 0.4237 11.051 1.9196 17.822 3.3242 14.815 3.0736 32.963 3.2919 43.589 0.5243 9.6073-2.5024 15.455-7.0433 29.058-22.565 10.746-12.261 15.71-19.98 15.71-24.43 0-1.3558 0.8458-3.6218 1.8796-5.0355 1.8444-2.5224 1.9317-2.5233 4.6666-0.048 2.0002 1.8101 2.7871 4.1333 2.7871 8.2288 0 7.7161-1.4811 11.103-8.246 18.855-3.1647 3.6266-9.954 11.518-15.087 17.536-5.9326 6.9553-12.005 12.49-16.667 15.191l-7.3333 4.2488-23.333 0.3165c-22.622 0.307-23.869 0.18-40.906-4.1641zm37.167-502.65c12.789-3.9849 14.161-5.9869 8.072-11.774-11.947-11.354-41.634-20.545-61.576-19.064-18.71 1.3903-23.15 2.3217-26.358 5.5296-5.1475 5.1475-4.0253 8.5631 4.6129 14.041 11.154 7.0732 17.494 9.6058 34.322 13.709 5.1442 1.2544 34.731-0.5107 40.928-2.4416zm63.1 417.4c-2.18-1.5941-2.5324-4.1116-2.8991-20.712-0.2296-10.394-1.0581-20.095-1.8412-21.558-0.9498-1.7748-1.5196-27.171-1.7116-76.288-0.2724-69.644 0.076-85.36 2.4616-111.17 1.2206-13.206-0.057-18.968-7.8978-35.589-7.2002-15.266-14.073-23.752-22.392-27.648-11.982-5.6119-14.619-19.346-9.0668-47.215 2.2666-11.379 3.2453-13.871 6.6752-17 4.4892-4.0956 8.1544-4.6659 10.651-1.6574 1.3669 1.647 1.0821 2.9094-1.5789 7-3.0108 4.6284-7.7622 22.573-7.7622 29.316 0 1.6124 1.4164 6.0987 3.1475 9.9696 2.3155 5.1775 4.4303 7.7103 8 9.5814 2.6689 1.3988 4.8525 2.9097 4.8525 3.3577s2.4776 3.8035 5.5056 7.4567c6.8487 8.2625 19.369 33.785 21.457 43.739 1.1999 5.7209 1.186 12.632-0.06 29.841-1.4382 19.862-1.5862 42.059-1.0032 150.4 0.075 13.794 0.608 19.537 2.045 22 1.1573 1.984 2.3898 9.54 3.0449 18.667 1.6943 23.608 1.7603 22.826-2.2183 26.248-4.1318 3.5542-5.9505 3.7998-9.4096 1.2704zm467.64-267.85c-0.7288-0.9167-1.6698-11.867-2.091-24.333-0.5293-15.668-1.569-25.96-3.3676-33.333-4.2006-17.221-4.4624-20.412-4.9056-59.782-0.5214-46.333-1.6662-75.292-3.3521-84.796-0.7068-3.9846-1.2851-11.184-1.2851-15.999 0-8.7166-2.8926-28.107-8.1684-54.756-1.5244-7.7-3.3128-17.3-3.9742-21.333-0.6615-4.0334-1.7434-10.033-2.4043-13.333-2.8887-14.424-5.4552-31.648-8.0468-54-1.5305-13.2-3.4173-29.1-4.1929-35.333-0.7756-6.2333-1.9243-15.833-2.5527-21.333-0.6283-5.5-2.4311-20.2-4.0061-32.667-1.5751-12.467-3.3495-28.967-3.9431-36.667-1.1925-15.47-2.656-26.569-7.5599-57.333-6.1054-38.304-7.0017-43.304-9.5592-53.333-1.4024-5.5-3.6157-14.8-4.9184-20.667-1.3028-5.8667-3.1757-13.367-4.1621-16.667-2.3347-7.8107-10.989-48.869-12.632-59.931-0.7024-4.7288-2.1215-11.929-3.1535-16-1.032-4.0712-2.2516-10.402-2.7101-14.069-0.9023-7.2132-5.7404-23.699-14.674-50-3.1135-9.1667-7.0439-22.367-8.7342-29.333-1.6901-6.9667-4.4618-17.767-6.1593-24l-3.0861-11.333 0.6249 18.667c0.7893 23.577 1.3833 32.839 3.1212 48.667 0.7649 6.9667 2.0827 20.467 2.9281 30 3.9731 44.794 9.8826 83.211 23.41 152.19 4.1684 21.254 6.8323 39.26 9.9339 67.148 0.6933 6.2333 2.4661 20.033 3.9396 30.667 1.4735 10.633 4.4556 33.733 6.6268 51.333s4.5647 35.9 5.3188 40.667c0.7541 4.7667 2.5871 16.767 4.0732 26.667s3.2729 21.6 3.9705 26c5.2911 33.372 9.838 66.211 13.385 96.667 0.726 6.2334 1.9203 14.23 2.654 17.77 0.7338 3.5402 1.6632 11.94 2.0654 18.667 0.4022 6.7264 1.285 15.23 1.9618 18.897 0.677 3.6666 1.8466 12.904 2.5995 20.527 0.7528 7.6234 1.9827 17.704 2.7331 22.402 1.3293 8.3208 0.8917 11.805-1.3115 10.444-0.5969-0.3689-1.5393-4.1286-2.0941-8.355-0.5547-4.2264-1.2235-9.1843-1.486-11.018-0.2626-1.8334-1.0338-7.2334-1.7138-12-0.68-4.7667-2.1188-13.767-3.1972-20-1.0785-6.2334-2.6122-16.433-3.4082-22.667-2.716-21.266-14.005-102.33-16.899-121.33-1.5254-10.023-3.1984-20.711-7.3044-46.667-0.6381-4.0333-3.3174-23.833-5.9541-44-2.6368-20.167-5.0785-38.017-5.4261-39.667-0.5508-2.6148-1.4672-3-7.1371-3-7.7204 0-42.742 5.6972-54.111 8.8026-4.4 1.2018-9.5 2.488-11.333 2.8581-1.8334 0.37-4.9935 2.2197-7.0226 4.1104-3.461 3.225-4.6292 3.4587-18.895 3.7802-8.3634 0.1884-22.603 1.2167-31.644 2.285-10.088 1.1921-27.654 1.895-45.471 1.8196-16.22-0.069-29.56 0.4215-30.226 1.1106-0.7164 0.7408 4.2187 5.7743 12.355 12.602 12.599 10.572 16.911 15.998 12.669 15.942-0.9704-0.013-8.0644-3.9093-15.764-8.6591-7.7-4.7499-18.05-10.747-23-13.327-9.7399-5.0766-11.085-7.7546-6.8967-13.734 1.9891-2.8398 1.8765-3.2613-2.0693-7.7554-2.295-2.6138-3.9455-5.446-3.6679-6.2937 0.2776-0.8478 3.1588-3.307 6.4027-5.4649 3.2438-2.158 10.673-7.7334 16.509-12.39 11.464-9.1462 14.222-9.7919 18.316-4.2874 3.3368 4.4872 2.115 7.0873-4.6702 9.939-7.8614 3.3039-3.0993 4.1689 6.7367 1.2237 8.4847-2.5405 13.148-2.6573 15.872-0.3973 2.534 2.1031 2.2434 4.8528-0.9408 8.9009-2.606 3.313-2.6218 3.5308-0.3181 4.383 7.3913 2.7342 28.723 4.2308 49.475 3.471 23.168-0.8482 33.909-2.2865 66.676-8.9284 10.767-2.1824 20.861-3.9733 22.431-3.9797 1.869-0.01 3.1235-1.0796 3.6314-3.103 0.64-2.5497 2.1254-3.3405 8.4778-4.5132 4.2362-0.782 10.851-1.1146 14.7-0.7392l6.9977 0.6827-0.7667-6.5028c-0.4217-3.5765-1.3209-9.5027-1.9982-13.169-0.6774-3.6667-1.8043-12.067-2.5043-18.667-3.1265-29.476-7.9144-60.886-12.093-79.333-1.412-6.2333-4.6743-23.333-7.2494-38-2.5752-14.667-5.3089-29.644-6.075-33.284-1.4482-6.8794-5.1342-31.262-5.9536-39.383-0.259-2.5667-1.4299-15.467-2.6022-28.667-1.1721-13.2-3.044-33.6-4.1598-45.333-1.1158-11.733-2.5818-33.033-3.2576-47.333-2.2458-47.513-2.422-49.065-7.2682-64-2.4985-7.7-5.8814-20.6-7.5176-28.667-1.6361-8.0667-3.6581-15.424-4.4933-16.35-1.8035-1.9993-12.226-6.1016-26.057-10.256-5.5-1.652-14.5-5.1216-20-7.7102-10.902-5.131-19.031-7.6842-24.466-7.6842-1.9199 0-9.0503-2.4754-15.845-5.501-6.7952-3.0255-15.655-5.9069-19.688-6.4032-4.0333-0.49624-11.833-2.1847-17.333-3.7521-14.317-4.0802-35.783-8.0843-52-9.6996-7.7-0.76696-18.44-2.03-23.867-2.8067-9.8051-1.4033-28.307-7.8613-32.133-11.216-1.1-0.9645-7.4-3.5427-14-5.7292-11.147-3.693-16.862-4.8264-30.724-6.0932-2.9646-0.27095-11.665-2.4254-19.333-4.7877-7.6685-2.3623-18.443-5.677-23.943-7.366s-14.2-4.6594-19.333-6.6009c-5.1334-1.9415-15.917-4.4494-23.963-5.5731-8.0465-1.1237-16.267-2.8895-18.267-3.924-5.1595-2.6681-5.4668-2.4675-4.7798 3.1192 0.8292 6.7424-1.7005 14.675-8.1328 25.502-6.4734 10.896-12.19 15.059-25.155 18.317-12.695 3.1902-20.025 1.5183-27.55-6.2839-2.8498-2.9546-5.6616-4.8836-6.2486-4.2867-2.0697 2.1047-6.5647 29.309-7.89 47.752-0.7377 10.267-2.0404 23.767-2.8948 30-1.8633 13.594-1.8634 15.048-0.01 66.667 1.3989 38.854 2.6206 55.53 5.4706 74.667 0.7098 4.7667 2.2498 16.167 3.4222 25.333 1.1723 9.1667 2.7411 20.867 3.4862 26s1.8838 14.133 2.5306 20 3.291 26.267 5.8762 45.333c2.5851 19.067 5.6347 45.167 6.7769 58 1.1421 12.833 2.6275 26.633 3.3007 30.667 0.6733 4.0333 1.8766 13.333 2.6741 20.667 0.7976 7.3333 2.5557 16.633 3.9071 20.667 5.9992 17.905 6.9494 25.095 6.5208 49.34l-0.412 23.327 10 0.741c19.042 1.4111 28.818 9.013 35.086 27.283 2.0082 5.8532 4.8464 13.231 6.307 16.395 2.63 5.6972 2.631 5.8084 0.088 11.556l-2.5672 5.8037 3.5428 1.4427c1.9486 0.7935 7.9742 2.5959 13.39 4.0055 11.242 2.9257 13.566 4.6764 13.524 10.188-0.083 10.811-1.0387 15.711-3.4002 17.438-3.384 2.4744-9.5741 2.2858-11.042-0.3366-1.6463-2.9418-11.192-1.3089-15.87 2.7147l-3.4535 2.9705 2.1972 9.7295c2.5351 11.226 2.8603 25.769 0.7136 31.927-1.4556 4.1756-13.248 13.38-19.81 15.463-1.5517 0.4925-8.2249-0.5754-15.078-2.4129-12.177-3.2648-26.883-5.7777-43.628-7.455-14.035-1.4058-17.583-5.092-15.264-15.858 2.6318-12.221-0.8694-32.699-6.4749-37.871-1.6101-1.4857-6.1608-4.7013-10.112-7.1457l-7.1849-4.4444-5.4817 2.8342c-10.846 5.608-12.159 6.0544-14.815 5.0363-1.4667-0.5623-3.8097-2.2932-5.2067-3.8464-3.0612-3.4036-9.252-3.6672-18.714-0.797-7.3468 2.2286-10.479 1.0049-7.2895-2.8484 2.9857-3.6074 17.412-9.8431 22.775-9.8443 3.3442-7e-4 6.2191 1.1109 9.0639 3.5046l4.1663 3.5057 3.2693-3.0714c1.9931-1.8721 3.2698-4.561 3.2698-6.8859 0-4.962 3.1495-9.6442 8.8616-13.174 4.0572-2.5075 5.2617-2.6639 10.452-1.3568 9.3378 2.3513 9.6066 2.1956 14.502-8.3996 4.9867-10.793 20.205-34.61 24.709-38.671 1.5545-1.4016 4.1722-3.2207 5.8172-4.0424 3.35-1.6735 3.3541-1.7143 3.7237-36.743 0.2993-28.361-0.7378-45.431-3.8074-62.667-1.502-8.4333-3.401-21.633-4.2201-29.333-0.819-7.7-2.6425-23.6-4.0521-35.333s-3.4731-29.237-4.5856-38.897c-1.1124-9.6598-2.6159-20.16-3.3409-23.333-1.5334-6.712-6.3526-37.378-7.4023-47.103-1.7147-15.887-4.8649-39.524-6.6637-50-2.6134-15.221-4.7306-42.45-5.4427-70-0.3222-12.467-1.1799-28.209-1.906-34.983-0.965-9.0032-0.7825-21.726 0.6785-47.294 1.0993-19.237 2.2791-36.795 2.6218-39.017 5.3298-34.553 9.1113-51.335 12.778-56.706 1.2514-1.8333 4.4268-7.621 7.0564-12.862 4.4336-8.8359 9.9759-15.138 13.312-15.138 0.7696 0 4.1387-1.3468 7.4869-2.9928 8.3817-4.1207 20.702-3.8729 30.754 0.61847 4.0333 1.8021 8.1536 4.2697 9.1562 5.4837 4.3446 5.2602 15.848 10.258 26.762 11.626 6.1267 0.76821 18.238 3.9112 27.802 7.2148 28.319 9.7819 52.106 16.434 69.276 19.372 17.817 3.0491 28.639 6.6351 41.792 13.848 10.311 5.6548 15.069 6.7787 42.942 10.145 29.353 3.5446 46.495 6.585 57.371 10.176 3.5391 1.1683 11.039 2.6107 16.667 3.2053 25.167 2.659 39.231 6.7472 61.226 17.798 15.892 7.9844 40.106 16.273 42.001 14.378 0.9542-0.95427 0.8077-5.226-0.473-13.794-1.4252-9.5346-1.6766-21.992-1.0849-53.745 0.6179-33.16 0.4059-42.465-1.072-47.056-2.2612-7.0244-1.3293-10.582 3.9443-15.061l4.0633-3.451-2.164-11.216c-2.7433-14.219-4.9095-36.13-3.9387-39.842 0.4583-1.7526 2.1575-3.1255 4.4312-3.5802 2.6284-0.5257 3.9022-1.751 4.4338-4.2654 0.4762-2.2527 10.64-13.536 28.119-31.218 32.074-32.445 42.354-39.738 47.415-33.64 0.9782 1.1786 1.3378 3.6273 0.8736 5.9483-0.434 2.1697-0.3072 4.2428 0.2818 4.6068 0.5889 0.36397 7.6192 1.6365 15.623 2.8278 16.712 2.4875 30.068 2.1883 61.199-1.3706 19.436-2.222 24.016-2.286 52-0.72665 37.28 2.0773 37.466 2.078 64.02 0.21846 11.733-0.82166 46.833-2.0487 78-2.7267 31.167-0.678 60.267-1.6291 64.667-2.1135 4.4-0.48441 29.9-0.71557 56.667-0.51371 26.767 0.20187 54.667 0.28923 62 0.19412 7.3333-0.0951 39.733-0.0895 72 0.012 116.23 0.36756 121.8 0.20384 151.33-4.4527 10.479-1.652 85.656-6.7346 87.748-5.9326 4.2791 1.6409 60.857-2.4235 95.586-6.8666 8.8-1.1258 21.4-2.6344 28-3.3524 31.171-3.3909 57.55-6.6059 73.813-8.9959 9.7974-1.4398 30.497-3.269 46-4.0648 15.503-0.79588 32.087-2.0158 36.854-2.711s12.621-1.276 17.455-1.2908c4.8333-0.0148 13.747-0.69419 19.808-1.5099 12.37-1.6647 15.838-0.8131 19.509 4.7898 2.1162 3.2298 2.1084 3.5805-0.1362 6.0607-1.5605 1.7244-4.0972 2.6325-7.3536 2.6325-3.9952 0-5.1508 0.58896-5.8864 3-0.5033 1.65-1.2445 24-1.647 49.667-0.7336 46.779-0.4494 52.159 4.2625 80.667 2.5297 15.305 3.1129 19.778 4.6076 35.333 0.7047 7.3333 2.5037 24.73 3.9979 38.66 1.4941 13.929 2.7166 30.215 2.7166 36.191 0 12.728 3.3983 46.715 5.1302 51.308 0.6585 1.7462 2.1857 13.375 3.3938 25.842 4.217 43.511 6.2027 62.734 7.4379 72 3.5491 26.624 6.8009 108.58 6.7351 169.75-0.031 28.733 0.6966 60.812 1.699 74.917 2.8196 39.671 3.5686 109.99 1.7823 167.33-1.0953 35.17-1.758 42.362-3.8392 41.668-0.8104-0.2701-2.6111-4.3561-4.0015-9.0798-2.2577-7.6711-2.4109-10.868-1.4341-29.922 2.0604-40.195 0.5785-155-2.2944-177.75-0.6772-5.362-1.2333-39.562-1.2359-76 0-36.438-0.2838-68.651-0.625-71.584-0.3411-2.9333-1.2722-19.733-2.069-37.333-0.7969-17.6-1.7149-32.9-2.0402-34-0.779-2.6347-4.2686-37.47-6.6503-66.388-1.0444-12.68-2.2197-23.574-2.6119-24.208-2.506-4.0547-8.4522-57.918-9.3933-85.088-0.4505-13.007-1.6925-30.249-2.76-38.316-1.0676-8.0667-2.5143-20.067-3.2149-26.667-0.7007-6.6-2.196-17.7-3.3231-24.667-5.9508-36.782-7.4556-55.795-7.1809-90.726 0.2257-28.696-0.5239-33.273-5.4492-33.273-4.5142 0-10.722 6.4367-10.722 11.117 0 3.4262-1.5571 5.7086-8.3334 12.215-8.8936 8.5393-23.862 26.091-27.867 32.676-2.6768 4.4017-6.4602 5.141-9.7048 1.8964-3.4047-3.4047-2.4572-6.7415 3.9688-13.977 3.3353-3.7553 5.9202-7.8253 5.7445-9.0445-0.5997-4.1596 1.6703-8.1181 7.6975-13.424 7.631-6.7172 29.827-31.747 29.827-33.636 0-0.78153 1.8287-3.1291 4.0636-5.2169l4.0635-3.796-4.896-0.91849c-2.6927-0.50518-9.1714-0.50695-14.397-4e-3 -5.2255 0.50301-15.501 1.1975-22.834 1.5434-39.526 1.8641-55.876 3.3828-85.333 7.9264-6.6 1.018-20.7 2.4976-31.333 3.288-20.897 1.5533-23.569 1.8259-46.667 4.7617-8.4334 1.0719-21.272 2.5626-28.53 3.3128-7.2577 0.75014-13.677 1.6611-14.265 2.0244s-16.85 0.64843-36.137 0.63361c-35.039-0.0269-73.254 2.2345-102.4 6.0598-22.449 2.9462-63.812 5.4862-80.667 4.9535-36.976-1.1685-271.53-1.3541-280-0.22152-5.1334 0.68612-29.733 1.531-54.667 1.8776-24.933 0.34653-56.733 1.3774-70.667 2.2908-27.658 1.8132-47.164 1.8943-80.216 0.33351-21.225-1.0023-26.198-0.70854-65.118 3.8465-11.11 1.3003-17.576 1.3692-26.667 0.28434-6.6-0.78769-18.6-1.3185-26.667-1.1796l-14.667 0.25263-16.864 17.416c-9.2751 9.579-19.475 21.019-22.667 25.423-3.6057 4.9752-7.0651 8.2908-9.1363 8.7567-1.8333 0.41236-4.0124 0.95362-4.8425 1.2028-2.56 0.76847-4.888 13.71-4.0437 22.479 0.433 4.4982 2.0137 15.679 3.5125 24.845 2.3504 14.375 2.7092 22.326 2.6093 57.831-0.091 32.295 0.3408 43.643 2.0031 52.667 1.1653 6.3263 2.4697 16.209 2.8989 21.961 0.5402 7.2411 1.4746 11.153 3.0372 12.716 2.8035 2.8035 20.125 8.8866 45.685 16.044 10.74 3.0072 23.94 6.9216 29.333 8.6984 16.414 5.4072 37.576 12.936 41.807 14.872 5.9008 2.7014 28.838 10.825 43.333 15.348 35.806 11.171 56.142 18.942 83.333 31.845 2.9333 1.3919 7.7333 3.3976 10.667 4.4572 13.992 5.0542 39.689 14.859 62.667 23.91 13.933 5.4886 31.033 11.892 38 14.229 13.748 4.6128 39.768 15.179 52.886 21.476 4.5207 2.17 8.5224 3.9455 8.8929 3.9455 0.7708 0 30.929 14.042 34.731 16.171 1.3801 0.7729 4.6801 2.173 7.3333 3.1113 2.6531 0.93831 10.524 4.4515 17.491 7.807 6.9666 3.3556 18.067 8.0273 24.667 10.382 10.618 3.7876 18.816 7.8626 44 21.869 3.6667 2.0394 8.1667 4.7484 10 6.02 8.8942 6.1694 42.72 21.701 54.667 25.101 2.5667 0.73041 7.9667 2.6205 12 4.2003 4.0333 1.5797 8.8333 3.3469 10.667 3.9271 1.8333 0.58019 13.058 5.9045 24.943 11.832 19.895 9.9218 32.145 15.4 50.842 22.738 3.9153 1.5365 12.615 6.0301 19.333 9.9859 6.7182 3.9558 17.915 9.8043 24.881 12.997 20.437 9.3652 32.134 15.696 40.667 22.011 12.043 8.9123 16.282 11.76 28.667 19.261 6.2333 3.775 13.133 8.2097 15.333 9.855 5.7692 4.3146 35.816 20.734 37.942 20.734 1.4601 0 1.6537-3.715 1.034-19.84-0.5307-13.806-0.3084-20.294 0.7308-21.333 2.3272-2.3271 6.9712-1.7612 9.6268 1.1733 1.3273 1.4667 4.0994 2.6667 6.1602 2.6667 2.235 0 5.5275 1.5633 8.1591 3.8739 3.4265 3.0085 7.3952 4.5126 17.766 6.733 11.958 2.5603 13.744 2.6566 17.09 0.92089 3.7585-1.95 8.05-1.4635 13.683 1.5511 1.7162 0.91854 14.126 1.0215 37.565 0.31172 29.417-0.89084 35.384-1.4054 37.394-3.2253 1.3159-1.191 3.6525-2.1654 5.1924-2.1654 2.6795 0 7.0381 3.1971 6.9467 5.0952-0.024 0.49761-0.5978 5.1048-1.2748 10.238-1.2182 9.2336-2.0362 63.09-0.9746 64.152 0.3026 0.30258 2.8638-0.41651 5.6915-1.598 4.8845-2.0409 8.704-1.9788 16.463 0.26774 2.973 0.8608 3.1308 0.65607 2.2722-2.9481-0.8821-3.7033-3.5414-32.96-3.7352-41.093-0.1844-7.7434 9.0331-9.8367 18.268-4.1487 2.9334 1.8067 6.0135 3.3036 6.8447 3.3265 0.8776 0.0241 1.8857-3.4529 2.4041-8.2917 1.279-11.936 6.5644-21.29 12.918-22.861 4.2192-1.0429 5.7984-0.64042 12.476 3.1799 6.1858 3.5392 7.8682 4.0216 8.8144 2.5274 1.0992-1.7357 1.8915-44.501 1.714-92.513-0.044-11.733-0.8405-35.433-1.7714-52.667-1.7776-32.906-2.0512-39.196-3.393-78-0.4564-13.2-1.6666-33-2.6893-44-1.0228-11-2.2163-26-2.6524-33.333-0.436-7.3333-1.3377-19.933-2.004-28-0.6663-8.0667-1.5828-19.467-2.0367-25.333-2.036-26.317-7.8814-65.11-14.466-96-8.7925-41.25-9.8089-45.54-13.477-56.87-3.7163-11.48-4.2394-21.736-1.9099-37.438 2.2003-14.831 2.8144-16.358 6.5764-16.358 2.3256 0 3.8368 1.1548 5.1808 3.959 1.6613 3.4663 1.6213 5.2916-0.3216 14.667-2.5452 12.282-2.7792 19.421-0.8539 26.05 3.3731 11.613 15.935 72.05 20.23 97.325 4.8096 28.307 9.6555 82.305 15.735 175.33 0.6708 10.267 1.568 30.967 1.9938 46 0.4256 15.033 1.3617 34.233 2.0802 42.667 1.3847 16.251 1.878 58.901 1.4423 124.67l-0.2651 40 5.6894 4.8689c4.1794 3.5768 7.3994 5.0958 12.133 5.7238 8.4816 1.1251 18.963 6.2239 25.747 12.525 4.7269 4.3902 5.6985 6.2844 7.1385 13.916 1.915 10.148 1.0267 20.973-2.7362 33.346-1.3862 4.5578-2.5248 9.5734-2.5304 11.146-0.013 2.8092-4.84 8.5338-10.525 12.474-2.4907 1.7264-3.3064 4.9177-5.964 23.333-3.1851 22.07-3.06 39.388 0.3305 45.723 0.815 1.5227 1.4818 4.767 1.4818 7.2094s1.2824 6.8318 2.8496 9.7543c2.0322 3.7894 3.1552 9.1382 3.9146 18.647 2.3806 29.804 7.0356 41.755 20.407 52.386 1.3195 1.0492 2.1623 3.7126 2.1623 6.8334 0 2.8127 0.3751 6.9891 0.8333 9.2807 0.6968 3.4839 1.4491 4.1667 4.5911 4.1667 4.546 0 7.9072 4.2321 7.9131 9.9633 0 5.2181 6.2368 17.399 19.117 37.37 19.69 30.528 24.511 39.351 29.874 54.667 0.7703 2.2 2.634 7 4.1417 10.667 1.5078 3.6666 5.2352 14.467 8.2835 24 3.0481 9.5333 7.2756 21.446 9.3943 26.473 4.3146 10.237 4.75 13.564 1.9173 14.651-5.2049 1.9974-8.5675-5.4145-24.654-54.344-3.8371-11.671-8.6536-24.882-10.704-29.357-6.9104-15.088-30.021-50.934-41.413-64.236-1.953-2.2804-4.9537-7.5304-6.6681-11.667-1.7144-4.1362-3.6067-7.5204-4.2051-7.5204-5.2192 0 13.49 46.754 24.543 61.333 4.7991 6.3299 17.716 26.934 21.587 34.435 2.0717 4.0141 2.0952 4.7307 0.2475 7.5508-1.123 1.7138-3.9798 3.5416-6.3484 4.0618-3.648 0.8013-4.7767 0.3997-7.3786-2.6251-1.6894-1.9641-3.0717-4.4871-3.0717-5.6066 0-3.4173-8.0383-20.86-11.897-25.816-5.3144-6.8254-12.937-20.272-17.207-30.354-4.4495-10.506-6.8964-12.133-6.8964-4.5869 0 4.4921-2.9081 14.169-4.8793 16.235-1.5475 1.6225-3.0818-4.0848-3.1003-11.533-0.023-8.9158 2.3619-13.163 6.7453-12.016 1.74 0.455 2.1628 0.041 1.5942-1.5632-0.4256-1.2003-1.2791-2.8419-1.8966-3.648-0.6174-0.8061-1.7221-4.7061-2.4546-8.6667-0.7326-3.9606-1.9116-8.401-2.6199-9.8677-0.7084-1.4667-4.4123-11.367-8.2308-22-6.5113-18.132-14.733-33-28.387-51.333-1.7801-2.3904-2.0178 0.7182-2.2937 30-0.1695 17.967-0.43 34.467-0.5791 36.667-0.149 2.2-0.4873 11.2-0.7514 20-0.437 14.553-0.2266 16.362 2.3265 20 16.311 23.245 42.449 64.734 49.382 78.387 1.7837 3.5126 5.3211 9.1085 7.8605 12.435 2.5395 3.3269 4.6172 6.5602 4.6172 7.185 0 2.2521-4.2572 5.3264-7.376 5.3264-3.138 0-4.4021-0.945-7.7369-5.7834-1.5971-2.3172-1.9203-2.2336-5.9609 1.541-2.536 2.3689-3.9664 4.7878-3.5198 5.952 0.4524 1.1788-2.0713 5.2646-6.3269 10.243-3.8937 4.5552-8.9979 10.779-11.343 13.831-2.3448 3.052-5.5793 7.2461-7.188 9.3203-4.187 5.3989-8.4386 6.699-13.444 4.1109-2.633-1.3616-4.5362-1.6509-5.3708-0.8164-2.1194 2.1195-6.3728 0.1899-8.4544-3.8355-2.3956-4.6325-2.517-22.668-0.5401-80.187 1.5447-44.938 1.8849-41.73-6.6827-63.006-2.0752-5.1536-4.7868-12.67-6.0256-16.704-1.2388-4.0333-4.0818-10.633-6.318-14.667-18.96-34.199-19.975-36.367-18.523-39.552 0.7807-1.7131 2.0321-3.1147 2.7812-3.1147 2.4952 0 1.4061-3.5776-2.6381-8.6667-2.8351-3.5675-4-6.4864-4-10.023 0-4.3299-0.8311-5.6704-6.2875-10.142-6.9981-5.7344-16.53-11.169-19.589-11.169-3.5846 0-8.7212-3.0145-9.5417-5.5997-0.9673-3.0478 1.4299-6.2163 6.0297-7.9695 3.3675-1.2835 3.3366-1.3369-5.0882-8.7809-9.5943-8.4773-14.21-15.088-17.377-24.889l-2.1849-6.7612-9.3143 0.411c-5.1228 0.2261-12.133 1.3139-15.578 2.4174-8.3282 2.6677-12.227 0.879-11.508-5.2794l0.4924-4.2157h-24.694c-23.819 0-64.191-2.3197-71.263-4.0947-1.8868-0.4735-3.4307-1.3671-3.4307-1.9856 0-0.6186-2.1802-3.2421-4.845-5.8301l-4.845-4.7054 0.2579-49.195 0.2579-49.195-13.746-8.6886c-7.5605-4.7787-17.946-10.917-23.08-13.641-5.1333-2.7236-12.933-7.4748-17.333-10.558-4.4-3.0835-11-7.3238-14.667-9.4228-3.6666-2.0991-10.783-7.0901-15.813-11.091-5.0307-4.0011-14.631-10.11-21.333-13.575-27.995-14.474-72.517-36.837-76.853-38.603-8.257-3.3632-18.854-8.2728-40.667-18.841-11.733-5.6846-27.333-12.532-34.667-15.216-20.164-7.3813-29.059-10.989-41.326-16.764-6.1476-2.8936-11.482-5.2611-11.854-5.2611-0.3722 0-4.4588-2.2391-9.0814-4.9758-4.6226-2.7367-11.826-6.7867-16.007-9-4.1815-2.2133-13.482-7.2526-20.667-11.199s-19.364-9.7534-27.064-12.906c-20.784-8.5084-51-22.045-65.101-29.165-6.8392-3.453-14.929-7.1583-17.978-8.2341-3.0488-1.0757-6.7532-2.7381-8.2319-3.6942-1.4786-0.95608-4.3145-2.1387-6.3018-2.6279-1.9875-0.48929-8.6286-3.2502-14.758-6.1353-6.1295-2.8851-17.104-7.3269-24.387-9.8706-22.173-7.7441-35.191-12.691-45.791-17.399-5.5648-2.4719-13.418-5.544-17.451-6.8269s-9.7333-3.5424-12.667-5.0211c-2.9333-1.4788-11.27-4.7105-18.526-7.1815-7.2556-2.4711-23.768-9.2095-36.694-14.974-12.926-5.7648-30.39-12.691-38.808-15.391-42.116-13.509-49.188-15.866-55.972-18.658-15.299-6.2946-66.064-23.529-80.667-27.385-23.997-6.3376-39.082-10.695-43.595-12.593-3.3253-1.3984-5.2112-1.6156-5.797-0.6676-0.4776 0.77276-0.4368 12.317 0.091 25.655 0.8179 20.681 1.4202 25.485 4.0935 32.644 2.9943 8.0185 4.8463 15.929 9.2696 39.594 4.0499 21.667 9.8328 42.752 19.933 72.679 3.3413 9.9 6.9068 21.9 7.9232 26.667 2.8187 13.22 5.9004 29.395 6.7319 35.333 0.4105 2.9333 1.0226 6.2333 1.3602 7.3333 0.3375 1.1 1.156 5.6 1.819 10 1.5766 10.465 7.4022 37.855 10.209 48 1.2173 4.4 2.9761 11.3 3.9082 15.333 0.9322 4.0333 2.6291 10.933 3.771 15.333 5.6241 21.673 14.871 82.055 19.602 128 0.6796 6.6 2.7748 24.6 4.6561 40 1.8812 15.4 4.3212 37.3 5.4221 48.667 3.465 35.775 6.2882 54.072 16.004 103.72 2.4813 12.681 4.8242 23.562 5.2062 24.18 1.0235 1.656 5.7376 50.52 7.4694 77.422 0.8257 12.829 1.7617 23.746 2.08 24.261 0.3182 0.515 0.5694 16.791 0.558 36.17-0.017 30.812 0.8629 44.398 3.4532 53.254 0.6216 2.1253 0.9529 2.1564 3.5557 0.3333 3.5712-2.5014 8.7313-2.588 11.505-0.1929 1.1577 0.9997 5.0341 2.9115 8.6143 4.2484 11.077 4.1368 54.827 3.4333 87.006-1.3989 7.9665-1.1963 22.585-3.3534 32.485-4.7935 9.9-1.44 23.1-3.5093 29.333-4.5984 15.042-2.628 66.181-4.3504 92-3.0985 11.367 0.551 28.467 1.3405 38 1.7542 21.658 0.9399 85.951 1.0776 99.333 0.2128 21.583-1.3948 34.524-2.1762 46.667-2.818 6.9666-0.3681 16.267-0.9564 20.667-1.3072s13.7-0.9448 20.667-1.32 23.467-1.29 36.667-2.0328c13.2-0.7429 29.1-1.625 35.333-1.9604s19.133-1.2265 28.667-1.9802c9.5333-0.7538 29.033-2.2964 43.333-3.4282 14.3-1.1317 37.1-3.3558 50.667-4.9426 19.887-2.326 31.772-2.8666 61.333-2.7896 78.651 0.2045 141.89 1.7001 156.67 3.7053 16.308 2.2127 38.918 4.2119 42 3.7135 4.8817-0.7894 59.874-0.5518 61.195 0.2644 2.3606 1.4589 1.6981 5.8706-1.1072 7.372-4.2671 2.2837-73.45 1.7793-87.304-0.6366-20.432-3.563-35.332-4.6676-72.784-5.3957-20.167-0.392-39.667-1.0165-43.333-1.3877-13.378-1.3547-86.98-1.6859-98-0.4412-44.591 5.0366-115.02 10.607-160 12.653-18.031 0.8206-34.035 1.8008-98.667 6.0432-45.971 3.0175-118.01 3.5538-162.18 1.2071-54.838-2.9129-89.332-0.9043-137.82 8.0259-16.786 3.0914-28.654 4.7237-48 6.6014-6.9667 0.6763-18.067 1.8902-24.667 2.6976-17.111 2.0935-42.026 1.8686-55.945-0.5048-6.5698-1.1202-12.148-1.8344-12.395-1.5868-0.2475 0.2475 0.1777 5.4566 0.9449 11.576 1.5426 12.302 1.8214 33.772 0.5394 41.529-0.8348 5.05-3.0428 6.394-5.4763 3.3334zm1014.3-134.34c9.8403-9.6529 15.991-16.668 15.49-17.667-1.2469-2.4824-6.3319-10.68-10.235-16.501-1.9011-2.8351-5.4036-8.6668-7.7835-12.959-2.3798-4.2925-5.9822-10.415-8.0054-13.605-2.0231-3.1901-4.7202-8.5281-5.9934-11.862-1.2733-3.334-2.8654-6.0618-3.5381-6.0618s-1.3023 5.85-1.3989 13c-0.097 7.15-0.3807 25.3-0.631 40.333-0.4644 27.904 0.8522 41.333 4.0519 41.333 0.9475 0 9.0673-7.2048 18.044-16.011zm26.65-32.203c-0.6646-2.3175-2.355-5.4675-3.7565-7-1.4013-1.5326-3.8933-5.4865-5.5376-8.7865-6.2895-12.623-27.746-46.01-28.856-44.9-1.763 1.7631 16.395 37.734 24.685 48.9 3.5672 4.805 13.551 16 14.27 16 0.222 0-0.1401-1.8961-0.8047-4.2135zm-51.846-130.33c0.5599-32.407-0.088-80.618-1.4521-108.12-0.7096-14.3-1.615-36.8-2.0122-50-0.397-13.2-1.0589-29-1.4708-35.111l-0.7488-11.111-2.957 2.7779c-6.9119 6.4934-13.242 1.02-18.709-16.177-4.4505-13.999-10.346-23.744-18.055-29.845-9.5207-7.534-9.9471-7.0172-9.4588 11.466 0.522 19.759 3.6245 30.79 12.539 44.58 2.4008 3.7142 6.6748 11.77 9.4977 17.902 4.4667 9.7025 4.9772 11.779 3.934 16-1.0719 4.3376-1.7055 4.8932-5.9885 5.252-4.1422 0.3471-5.2802-0.2413-8.4144-4.3505-4.1782-5.4779-8.7234-15.324-12.255-26.546-2.9272-9.3024-12.777-20.838-17.792-20.838-2.9748 0-3.0784 0.31708-2.2918 7.0105 1.1728 9.9787 6.5524 26.982 11.469 36.249 4.3826 8.2608 16.628 23.632 22.187 27.852 4.5704 3.4689 4.4266 10.413-0.2924 14.125-1.9322 1.5199-4.5788 2.7634-5.8815 2.7634-2.3561 0-9.272-7.0601-9.272-9.4654 0-0.6935-2.4061-3.8712-5.3469-7.0616-5.355-5.8094-14.914-10.015-19.107-8.4059-1.1163 0.4283-2.2425 3.6275-2.7736 7.879-0.9339 7.4742 0.7115 12.913 6.5276 21.578 4.5415 6.7656 27.334 26.143 30.751 26.143 4.2772 0 7.282 4.7848 7.282 11.596 0 5.0113 0.4878 5.9212 4.2032 7.8426 9.63 4.9799 17.026 11.967 21.392 20.21 3.5882 6.7739 4.1188 8.751 2.8621 10.667-1.6421 2.5032-1.7228 2.515-7.6311 1.1202-3.5306-0.8335-3.7684-0.6593-2.9496 2.1624 0.4899 1.6879 2.724 9.9287 4.965 18.313 5.7814 21.631 13.495 38.526 15.849 34.717 0.5861-0.9484 1.2169-10.478 1.4017-21.176zm-1538.8-32.507c11.076-5.447 13.718-12.926 10.501-29.723-1.6787-8.7638-3.6171-11.147-8.3343-10.245-3.6144 0.691-5.488-1.4412-5.488-6.2455 0-4.1922-2.9818-4.8372-28.192-6.0974l-19.14-0.9568 0.7997 3.9983c0.4398 2.199 0.1519 5.2085-0.6398 6.6878-1.0689 1.9971-1.0112 3.0449 0.2241 4.0701 1.5053 1.2493 11.822 3.2894 23.346 4.6168 3.9913 0.4598 15.5-1.2593 24.409-3.646 6.6424-1.7794 10.944 7.6161 5.2977 11.571-1.7686 1.2389-2.4902 3.186-2.3333 6.2964 0.3281 6.5004-5.9357 10.055-17.038 9.6694-4.4374-0.1543-12.113 0.4159-17.056 1.2671-11.359 1.9559-10.226 4.1174 3.3344 6.3589 5.3095 0.8777 12.654 2.4185 16.32 3.4242 8.3596 2.2927 6.99 2.3952 13.988-1.0466zm-52.018-20.612c0.016-0.9166-1.4703-1.6666-3.3037-1.6666-2.7712 0-3.3333 0.637-3.3333 3.7777 0 2.0778 0.427 4.2048 0.949 4.7268 1.099 1.099 5.644-4.3648 5.688-6.8379zm1618.7-21.333c-0.013-4.0614-2.7328-12.333-4.0552-12.333-1.2092 0-1.9127 5.0428-1.302 9.3333 0.6573 4.6175 5.3708 7.257 5.3572 3zm-1545-21.41c1.2834-1.1021 2.3334-2.6903 2.3334-3.5293 0-2.3685-8.3022-4.8082-18.969-5.5742-12.227-0.8781-27.959-4.1438-35.524-7.3742-7.1943-3.0722-20.388-2.2128-29.508 1.922-3.3 1.4962-9 3.0755-12.667 3.5094-5.5394 0.6557-6.7367 1.2811-7.0809 3.6989-0.8098 5.6884 1.7161 6.0043 76.414 9.5584 21.012 0.9997 21.29 0.9751 25-2.211zm-11.176-29.924c-0.5332-5.3167-2.2209-13.238-3.7508-17.603-4.5809-13.071-10.527-17.646-24.649-18.965-10.211-0.9536-16.9 1.7327-25.735 10.335-6.4846 6.3144-16.013 20.069-17.212 24.846-1.236 4.9244 0.7568 5.9225 8.7849 4.4 9.9083-1.879 18.481-1.5879 24.738 0.84 11.059 4.2917 17.65 5.6359 28.063 5.7232l10.73 0.09zm1429.2-20.191c2.9865-6.3056 3.0448-7.0879 1.7398-23.333-0.7426-9.2449-1.3984-26.409-1.457-38.142-0.059-11.733-0.3316-23.433-0.6064-26-0.2748-2.5667-0.5892-15.017-0.6988-27.667l-0.1994-23-7.5884 0.0133c-7.6638 0.0133-47.63 2.3618-56.255 3.306-2.5666 0.28099-5.4166 0.54919-6.3333 0.596-2.4211 0.1236-2.0467 2.5147 1 6.388 2.1215 2.697 2.6667 5.409 2.6667 13.264 0 7.9857 0.5434 10.609 2.8417 13.718 1.8721 2.5322 2.6128 5.0409 2.1708 7.3528-0.5871 3.071 0.036 3.8415 4.9891 6.1697 6.7298 3.1634 10.817 7.2472 11.991 11.981 1.1247 4.5344-3.9197 10.636-12.044 14.569-7.8814 3.8154-11.016 10.251-10.232 21.005 1.1843 16.231 1.2913 15.597-2.7169 16.058-2.88 0.3313-3.6667 1.118-3.6667 3.6666 0 3.5375-4.2253 8.5781-7.1907 8.5781-2.3042 0-3.476 2.8941-3.476 8.5858v4.3677l8.1956 0.8566c13.24 1.3838 23.172 0.9873 45.724-1.8258 25.278-3.153 23.414-3.0883 23.414-0.8127 0 1.011-1.8 2.5838-4 3.4951-5.9336 2.4578-4.8519 4.2009 2.3209 3.7397 6.1315-0.3942 6.4135-0.6019 9.4111-6.9307zm108.13-1.5095c0.7451-4.3814 1.9496-11.424 2.6769-15.65 0.7272-4.2259 3.4524-12.401 6.056-18.168 5.8147-12.878 6.1499-16.555 1.4006-15.363-5.2618 1.3206-9.4976-0.41007-12.508-5.1103-2.8542-4.4566-3.0627-4.2674-3.296 2.9911-0.2078 6.4656 2.1734 56.746 2.7598 58.274 1.041 2.7126 1.4159 1.8142 2.9103-6.9744zm-205.77 1.0134c2.7086-1.8547 3.108-5.559 1.336-12.39-1.2351-4.7613-1.4675-9.7551-0.7624-16.386 1.1706-11.009-0.1354-31.782-2.0423-32.484-8.4079-3.0966-16.127-8.2023-17.22-11.39-1.0995-3.2061-0.6917-4.2546 3.2267-8.2973l4.4852-4.6275-9.2267-4.1034c-5.0747-2.2568-10.925-4.973-13.001-6.036-7.7222-3.9537-7.4712-5.2792-6.7619 35.734 0.3583 20.717 1.2013 39.167 1.8735 41 0.672 1.8333 1.3962 5.074 1.6092 7.2015 0.5782 5.7773 6.1241 9.1334 18.102 10.954 12.606 1.9163 16.53 2.0922 18.383 0.8239zm120.57-10.173c0-0.2899-1.8-4.757-4-9.927-2.2-5.1699-4.0366-10.783-4.0814-12.473-0.045-1.6902-1.1832-6.3731-2.5299-10.406l-2.4484-7.3334v16c0 19.792 0.6377 22.401 5.7897 23.506 5.1199 1.0979 7.2739 1.2855 7.2739 0.6335zm111.73-50.716c2.6928-2.5584 5.5717-15.22 5.5892-24.58 0.015-8.0933-0.2261-8.7322-5.1607-13.667-8.1377-8.1378-9.0564-7.3384-8.9914 7.8235 0.031 7.15-0.4608 17.718-1.092 23.484l-1.1478 10.484 4.5372-0.95131c2.4955-0.52321 5.315-1.6902 6.2655-2.5932zm-41.259-30.424c0-14.117-0.6004-27.619-1.3383-30.005-1.4503-4.6906-10.354-10.995-15.528-10.995-6.7329 0-6.9637 20.283-0.3976 34.931 1.414 3.1544 3.8459 9.0247 5.4043 13.045 3.418 8.8185 9.0588 18.69 10.679 18.69 0.6474 0 1.1784-11.55 1.1802-25.667zm9.6806 21.283c-1.0889-1.0889-1.4833-0.93968-1.4833 0.5611 0 2.6505 1.7929 4.4434 2.4556 2.4556 0.2811-0.84333-0.1564-2.2008-0.9723-3.0167zm1.8435-32.02c1.0644-4.5785 1.2241-7.9931 0.4397-9.3948-2.5333-4.5268-3.7665-1.9009-3.7665 8.0202 0 11.515 0.8848 11.88 3.3268 1.3746zm-203.95-11.264c-0.2993-10.083-0.5809-18.991-0.6258-19.794-0.045-0.81708-6.6932-2.5079-15.082-3.836-8.25-1.3062-16.114-2.9543-17.477-3.6624-1.4798-0.76939-2.9626-0.80133-3.6845-0.0795-1.7501 1.7501-2.7219 23.63-1.2244 27.569 1.1865 3.1206 9.438 7.9043 18.581 10.772 1.7575 0.55123 6.2575 2.428 10 4.1707s7.5363 3.1743 8.4304 3.1815c1.2268 9e-3 1.4923-4.4863 1.0817-18.32zm-933.22-370.67c-0.7259-12.327-0.3668-11-2.9752-11-2.1936 0-2.1403 2.47 0.3671 17 1.4472 8.3869 3.2157 4.3184 2.6081-6zm-2.8837-32.667c-0.9702-9.412-5.7938-31.667-6.8636-31.667-1.0658 0 0.9545 29.301 2.4132 35 0.7697 3.0073 2.0826 5 3.2945 5 1.6743 0 1.8696-1.4086 1.1559-8.3333zm-426.64-55.896c1.8858-0.85924 4.6621-3.5577 6.1694-5.9966 3.523-5.7003 2.556-10.37-3.6482-17.618-5.8639-6.8505-10.392-7.2512-16.943-1.4994-5.6571 4.967-10.852 16.328-9.0262 19.739 2.9447 5.5022 16.4 8.5863 23.448 5.3747zm-13.412 946.84c-2.2597-0.679-5.2196-2.4625-6.5776-3.963-2.2414-2.4768-2.2765-2.921-0.3802-4.8172 1.7984-1.7984 3.0866-1.8656 9.2625-0.4835 7.5335 1.6859 11.597 1.5361 38.135-1.4053 12.714-1.4094 16.686-1.4554 17.933-0.2082 2.4813 2.4814 0.049 3.7032-10.931 5.493-5.5 0.8965-13 2.431-16.667 3.4101-9.04 2.414-25.746 3.4856-30.775 1.9741zm-1246.9-14.017c-6.5089-4.5589-2.164-10.813 9.3879-13.513 6.978-1.6308 14.315-2.2394 14.315-1.1872 0 0.3066 0.33706 1.436 0.74902 2.5096 0.51095 1.3314-2.1947 3.9088-8.5126 8.1089-10.183 6.7699-11.588 7.1296-15.94 4.0816zm1248.4-4.1224c-27.463-5.7196-35.155-11.435-26.727-19.863 4.4303-4.4302 10.061-4.4496 10.061-0.035 0 6.2356 6.5653 9.523 22 11.016 8.8275 0.8537 8.9321-0.298 0.3173-3.4921-14.686-5.445-21.869-10.416-28.255-19.551-6.2292-8.9109-6.7723-11.844-2.4969-13.485 1.6898-0.6484 4.4149 1.428 10.364 7.8967 9.8919 10.756 21.048 17.062 37.25 21.054 9.3294 2.2987 13.437 2.6919 19.333 1.8511 4.118-0.5874 8.0873-1.0964 8.8206-1.1314 1.9432-0.092 2.1727 14.333 0.2475 15.557-1.6164 1.0279-46.089 1.1862-50.914 0.1814zm-1255-74.544c-8.439-5.9109 3.6024-14.973 13.124-9.8774 3.378 1.8078 3.2003 3.8181-0.7325 8.2864-3.6253 4.1189-7.9838 4.6785-12.392 1.591zm1601.7-14.246c-28.586-5.7642-45.647-13.078-47.881-20.528-1.4187-4.7298-9.8185-9.8264-16.185-9.8206-4.2558 0-7.2667-2.0195-7.2667-4.8833 0-3.6168 8.8024-11.411 19.43-17.204 11.645-6.3477 17.435-12.338 29.23-30.243 4.4227-6.7133 5.5874-7.6666 9.3654-7.6666 2.373 0 5.0016 0.8277 5.8412 1.8393s3.235 2.181 5.3233 2.5987c3.9232 0.7846 5.6637 3.9572 4.2703 7.7836-0.4366 1.1985-4.2436 5.0124-8.4603 8.4753-4.2167 3.463-7.6667 6.8501-7.6667 7.5268 0 1.4213 5.7294 0.5642 20.222-3.0253 5.6222-1.3925 11.391-2.5318 12.82-2.5318 1.4288 0 4.1763-1.2415 6.1054-2.7588 3.3062-2.6008 5.1089-2.7515 31.439-2.6293 15.362 0.071 32.013-0.5223 37.001-1.3191 4.988-0.7969 17.471-1.7198 27.741-2.051s21.051-0.7461 23.959-0.922c4.6784-0.2829 5.436 0.098 6.5765 3.3065 1.6574 4.6624-1.467 8.4191-8.0254 9.6494-2.5598 0.4802-5.8206 2.0396-7.2463 3.4654-1.4589 1.459-4.4099 2.5923-6.7496 2.5923-2.718 0-5.7345 1.3849-8.7131 4-3.9977 3.5101-5.5706 4.0057-12.843 4.0465-8.2079 0.046-19.583 1.8472-37.62 5.9569-7.0059 1.5962-13.157 1.9367-24.667 1.3654-8.4333-0.4186-18.746-0.2533-22.918 0.3674-4.3932 0.6536-8.4904 0.6215-9.7375-0.076-1.4132-0.7909-9.4396 0.2433-23.359 3.0097-20.735 4.121-21.296 4.1615-25.249 1.8261-3.2774-1.936-4.3615-2.0659-5.7231-0.6856-2.5204 2.5551 0.56 4.2755 18.262 10.199 17.584 5.8843 21.255 8.4469 20.404 14.245-0.4987 3.3975 0.057 4.2319 4.2069 6.3165 2.6299 1.321 7.0231 3.1268 9.763 4.0129 5.7281 1.8525 7.4969 3.8724 4.856 5.5451-1.0106 0.6401-2.1375 1.1056-2.5042 1.0344-0.3666-0.071-6.6666-1.3392-14-2.818zm-1595-13.064c-4.8144-1.9336-4.8621-4.7134-0.20427-11.902 3.1739-4.8982 5.1899-6.7126 7.4584-6.7126 2.7398 0 3.1088 0.6352 3.1088 5.3515 0 2.9433 0.7139 6.4945 1.5864 7.8917 3.2828 5.2567-4.0394 8.548-11.949 5.371zm1094.7-61.439c-6.2667-1.8095-18.188-16.924-29.031-36.807-9.9112-18.175-12.311-27.431-8.0321-30.982 3.2362-2.6858 8.6803-0.3391 12.292 5.2987 7.6309 11.911 11.149 15.665 17.735 18.924 4.4679 2.2111 7.065 2.8831 7.3596 1.9042 1.9211-6.385 2.9336-80.738 1.2824-94.179-0.2252-1.8333-0.8099-12.134-1.2994-22.891-0.4894-10.757-1.2836-25.1-1.7649-31.874l-0.8751-12.316-6.4245-4.4219c-3.5335-2.4321-8.5683-5.0138-11.188-5.7373-6.3549-1.7546-10.785-6.1446-12.454-12.339-0.7534-2.7978-2.1014-5.0869-2.9956-5.0869-0.8943 0-4.5443-1.5535-8.1111-3.4523-5.9451-3.1648-7.2768-3.3686-15.989-2.4466-5.2273 0.5532-19.704 1.1144-32.171 1.2472-12.467 0.1328-30.508 0.7195-40.093 1.3039-12.848 0.7833-19.329 0.6089-24.667-0.6638-9.2454-2.2043-18.497-6.1414-21.907-9.3226-1.4667-1.3684-7.6888-5.2633-13.827-8.6554-20.071-11.092-31.63-20.831-44.173-37.219-3.3-4.3116-9.15-10.172-13-13.024s-7.0034-5.9158-7.0075-6.8094c0-0.89354-3.3899-5.8246-7.524-10.958-4.1342-5.1333-9.8074-14.133-12.607-20s-6.2594-12.767-7.6882-15.333c-1.4288-2.5667-3.9661-8.2254-5.6385-12.575-1.6724-4.3496-4.6459-9.7496-6.6078-12-1.9619-2.2504-4.0276-5.5916-4.5903-7.425s-3.8854-9.3333-7.3837-16.667c-4.6398-9.7262-6.6036-15.674-7.2589-21.984-0.9671-9.3134-6.177-25.811-9.2343-29.242-2.1489-2.4112-4.1917-9.7373-5.4441-19.524-0.7259-5.6731-1.9875-8.0124-7.9095-14.667-7.2776-8.1773-19.44-26.613-19.44-29.467 0-0.89051-3.5209-6.306-7.8242-12.034s-10.03-15.215-12.727-21.082c-2.6966-5.8667-7.2474-13.067-10.113-16-2.8654-2.9333-6.1631-7.6238-7.3284-10.423-1.1652-2.7995-4.5415-7.7186-7.503-10.931-4.0239-4.3654-5.5479-7.265-6.0317-11.476-0.356-3.0989-1.508-6.8633-2.5601-8.3653-1.052-1.502-1.9128-4.2002-1.9128-5.9959 0-1.7957-1.0161-4.3878-2.2581-5.7602-3.4929-3.8596-5.9015-11.916-4.182-13.988 1.9683-2.3717 3.327-2.1735 6.4401 0.93963 1.6405 1.6405 2.6667 4.4444 2.6667 7.2864 0 3.4468 0.7617 5.0098 3 6.1561 4.8517 2.4845 7.5461 6.7974 8.4753 13.566 0.6449 4.6984 2.1759 7.825 5.907 12.064 2.77 3.1469 5.6854 8.132 6.4787 11.078s3.015 6.8174 4.9371 8.6029c4.1696 3.8733 11.694 15.318 14.524 22.093 1.1164 2.672 4.3792 8.3 7.2508 12.507 2.8715 4.2068 7.138 11.473 9.4812 16.148 6.1254 12.22 13.117 23.595 18.752 30.507 6.7401 8.2682 10.192 15.456 11.202 23.325 0.4705 3.6667 3.6014 12.94 6.9577 20.608 3.8031 8.689 6.4493 16.978 7.0234 22 1.2476 10.914 8.1058 26.777 19.336 44.725 1.606 2.5667 4.5779 8.8267 6.6043 13.911 10.644 26.709 19.102 40.182 37.392 59.564 7.3398 7.7782 16.746 18.343 20.902 23.477 4.9585 6.1254 10.084 10.761 14.906 13.483 4.0425 2.2814 9.342 5.879 11.777 7.9947 2.4347 2.1157 8.0268 5.1746 12.427 6.7976 4.4 1.623 9.8972 4.7771 12.216 7.0091 7.0357 6.7724 14.785 7.878 58.451 8.3391 21.267 0.22459 44.639-0.0703 51.938-0.65519 10.383-0.83209 14.263-0.64909 17.83 0.84096 2.5069 1.0475 6.8848 1.9045 9.7286 1.9045 5.9228 0 10.493 3.6198 10.522 8.3334 0.041 6.681 1.7643 9.1355 9.6693 13.768 9.6767 5.6714 12.307 5.2503 11.189-1.7907-0.4349-2.7378-1.3983-16.378-2.1407-30.311-0.7425-13.933-2.0465-36.433-2.8977-50l-1.5478-24.667-4.1356-3.5127-4.1355-3.5126-3.8491 3.2387c-4.8182 4.0543-9.5271 10.391-12.227 16.453-4.5822 10.289-6.7422 13.482-9.6065 14.202-7.8565 1.973-8.9251-2.7868-3.1504-14.032 2.1189-4.1264 4.9259-10.802 6.2377-14.836 1.3118-4.0333 5.2272-13.437 8.701-20.896 3.8308-8.2264 7.5081-18.902 9.3458-27.133 3.9707-17.784 5.3225-18.843 17.713-13.883 11.695 4.6817 15.483 7.7773 15.483 12.652 0 2.1335 2.4 9.0738 5.3333 15.423 2.9333 6.3492 5.3432 13.41 5.3553 15.691 0.012 2.2808 1.4917 6.5469 3.2881 9.4802 6.1167 9.9879 6.6406 11.389 5.15 13.77-1.9443 3.1063-8.8847 3.5914-11.24 0.78562-1.0375-1.2359-4.8864-8.2689-8.5531-15.629s-7.4756-13.649-8.4644-13.976c-1.4909-0.49251-1.6357 4.495-0.8484 29.228 0.5221 16.402 1.2019 30.248 1.5108 30.769 0.3088 0.5213 0.8684 11.921 1.2435 25.333 0.8518 30.457 2.7845 52.083 5.1634 57.777 1.8873 4.517 11.667 11.698 20.728 15.22 2.5667 0.9977 6.1667 3.1571 8 4.7987 1.8334 1.6416 5.2123 4.1062 7.5088 5.4768 2.2964 1.3706 7.6258 5.6744 11.843 9.564 4.2173 3.8896 9.9883 8.5369 12.825 10.327 5.5204 3.4849 6.4233 5.4862 3.0576 6.7778-3.7775 1.4495-12.305-2.4846-19.504-8.9985-3.8849-3.5151-9.7635-8.5003-13.064-11.078-6.6379-5.1854-27.658-16.794-30.431-16.805-1.4242-0.01-1.5968 3.9105-0.896 20.326 1.6043 37.579 1.823 44.241 2.2423 68.333 0.2297 13.2-0.1157 30.048-0.7678 37.439-0.652 7.3916-0.7574 16.294-0.2341 19.784 0.9166 6.112 1.0434 6.2611 3.4638 4.0707 1.3818-1.2505 3.4828-5.1955 4.669-8.7666 3.3156-9.9823 12.202-15.184 16.693-9.7723 2.0292 2.445 1.4928 4.3216-7.4073 25.912-3.1741 7.7-6.4191 16.459-7.2112 19.464-0.7921 3.0053-2.9433 7.0863-4.7806 9.0687-1.8372 1.9824-3.3404 4.4093-3.3404 5.393 0 3.3737-5.2639 4.1493-13 1.9156zm-1081-32.373c-1.8628-2.8431-1.9262-3.7352-0.41541-5.8532 3.5984-5.0447 21.674-18.949 24.633-18.949 3.8046 0 2.7738 2.874-3.7381 10.422-3.7934 4.3969-7.5455 10.001-8.3381 12.453-1.1846 3.6649-2.1979 4.5319-5.6924 4.8703-3.328 0.3223-4.7285-0.3168-6.4491-2.9427zm1305.4-11.009c-5.4316-2.8285-13.792-5.7521-20-6.9935-8.9684-1.7936-10.73-2.5763-11.064-4.9165-0.2186-1.5309 0.4848-3.5157 1.5634-4.4108 2.842-2.3586 16.8 0.4353 26.091 5.2225 10.198 5.2544 14.104 6.0308 17.883 3.5545 1.7791-1.1656 6.5031-2.1354 10.99-2.2561 11.106-0.2989 11.204-0.2764 11.204 2.5767 0 1.7066-2.6344 4.1704-7.8411 7.3333-10.546 6.4064-16.354 6.3842-28.826-0.1101zm-1248.2-4.7934c-3.6533-3.85-8.293-8.1041-10.31-9.4536-7.1334-4.7718-1.7869-13.532 5.9599-9.7654 5.2082 2.5323 16.133 26.219 12.093 26.219-0.60495 0-4.089-3.15-7.7424-7zm1147.8-0.4885c-2.3067-1.0154-2.0947-7.8297 0.3055-9.8217 1.4942-1.2401 2.9964-1.2796 6.1989-0.1632 2.3248 0.8104 5.5639 1.4734 7.198 1.4734 4.4559 0 6.5861 3.1878 3.9151 5.8588-1.1777 1.1777-3.1484 2.1478-4.3794 2.1559-1.231 0.01-4.3381 0.2882-6.9048 0.6225-2.5666 0.3344-5.4166 0.2778-6.3333-0.1257zm-57.318-17.498c-5.6402-2.8075-6.7878-6.5003-3.1505-10.138 2.784-2.7841 2.8549-2.7869 7.4706-0.3012 4.3458 2.3403 4.8244 2.3606 7.1005 0.3007 3.6495-3.3027 8.5898-2.7048 12.648 1.5309 7.2192 7.5352 2.2154 13.379-8.2236 9.6042-3.4742-1.2563-4.8721-1.3083-5.2432-0.195-0.7039 2.1119-5.4723 1.7512-10.602-0.802zm1349-1.0571c-3.3-1.0259-9-3.32-12.667-5.098-19.903-9.6512-25.281-10.938-28.667-6.8583-2.2438 2.7036-4.3162 2.5172-8.4868-0.7635-4.7354-3.7249-4.4376-5.7951 1.6726-11.623 3.5781-3.4131 5.4049-6.452 5.8929-9.8034 1.0733-7.3712 6.6916-15.097 15.229-20.942 4.2308-2.8964 9.76-7.4266 12.287-10.067 2.5272-2.6405 5.6904-4.8008 7.0296-4.8008 1.339 0 7.208-2.4 13.042-5.3334 12.477-6.2733 17.333-6.8845 17.333-2.1813 0 2.1724-1.6574 4.3006-5.3333 6.848-6.0815 4.2145-6.4635 5.9127-2.5276 11.236 3.8052 5.1468 2.4683 11.361-3.1835 14.798l-4.1232 2.5075 3.9172 1.6377c8.7124 3.6426 26.432 2.6385 55.25-3.1309 8.4226-1.6862 17.984-2.6841 24-2.5049 12.701 0.3783 36.465-1.1834 38.661-2.5407 1.7677-1.0925-3.1425-9.3802-10.892-18.383-2.0732-2.4089-3.7696-5.2378-3.7696-6.2865 0-4.8322 12.191-6.4607 14.976-2.0005 0.9158 1.4667 3.1001 2.6667 4.8538 2.6667 1.922 0 4.9519 1.8697 7.6278 4.707 2.8573 3.0297 7.665 5.8986 13.491 8.0506 8.1138 2.9972 10.263 4.5948 16.47 12.242 0.744 0.9167 3.9361 1.6667 7.0935 1.6667 6.1893 0 8.9605 2.0202 11.334 8.2629 2.1684 5.7033-1.5926 9.2115-11.281 10.523-8.1516 1.1032-23.18 7.9212-36.769 16.681-7.5351 4.8573-10.817 5.3008-11.538 1.559-0.7208-3.7431 6.4195-11.323 17.408-18.479 9.4663-6.1649 12.444-9.2139 9-9.2139-0.7333 0-1.3333 0.6826-1.3333 1.5169 0 1.0302-2.2459 1.2916-7 0.8146-8.9807-0.9011-12.691 0.1897-14.744 4.3352-1.1923 2.4075-2.924 3.4552-6.2352 3.7721-3.7753 0.3614-5.182-0.2846-7.9696-3.6598l-3.3851-4.0987-17.333-0.578c-17.582-0.5863-25.398 0.06-49.333 4.0754-7.3334 1.2304-20.016 2.3667-28.184 2.5251-8.1676 0.1584-15.555 0.7235-16.416 1.2558-0.9362 0.5787-3.721-1.2975-6.9252-4.6658l-5.359-5.6336-3.8374 2.8371c-2.1105 1.5603-4.4262 2.837-5.146 2.837-7.088 0 8.678 10.083 25.167 16.095 9.7838 3.5674 11.778 6.3349 8.529 11.835-3.3761 5.7154-7.6564 6.5218-17.829 3.3594zm-1141.2-5.0708c-0.9394-1.1317-1.5144-3.7439-1.2782-5.8049 0.364-3.1735 1.3984-4.0535 6.7562-5.7473 3.4794-1.1 6.3256-2.3 6.3248-2.6667-8e-4 -0.3666-1.7976-1.6887-3.993-2.938-5.157-2.9345-5.5164-8.4244-0.6952-10.621 2.782-1.2676 4.0271-1.003 7.9791 1.6953 6.1024 4.1665 6.9308 6.5991 3.2593 9.572-2.2469 1.8195-2.5884 2.7716-1.4149 3.945 4.3929 4.393-1.5525 12.789-9.844 13.901-3.9053 0.5238-5.8561 0.1566-7.0941-1.3352zm-239.44-6.5156c-4.6017-6.5698-0.2614-16.347 5.8135-13.096 1.5277 0.8176 2.7776 2.4682 2.7776 3.668 0 1.1998 0.9478 3.2287 2.1062 4.5088 1.6572 1.8311 1.7893 2.9197 0.6198 5.105-2.0542 3.8383-8.5735 3.7313-11.317-0.1858zm-11.807-36.546c-1.5423-1.5423-1.0548-10.504 0.665-12.224 2.3655-2.3655 6.1226-1.9431 7.6211 0.8568 2.5098 4.6897-4.8572 14.796-8.2861 11.367zm233.17-3.0773c-4.8252-3.1808-6.5053-6.0442-5.4665-9.3169 1.9098-6.0177 9.5304-3.7417 12.644 3.7765 1.8411 4.4448 1.1271 8.1323-1.5721 8.1184-0.9398-0.01-3.4624-1.1649-5.6059-2.578zm-695.44-519.57c-3.1584-1.3923-10.484-2.2481-22.667-2.6478-9.9-0.32482-23.4-0.92606-30-1.3361-8.8292-0.54849-14.29-0.16302-20.667 1.4588-13.683 3.4802-16 3.7946-16 2.1714 0-0.81657 0.1632-1.4847 0.3628-1.4847 0.1995 0 7.1777-2.3795 15.507-5.2879l15.144-5.2879 21.493 0.0789c11.821 0.0435 25.993 0.66139 31.493 1.3733 5.5 0.71189 12.4 1.4059 15.333 1.5423 4.6882 0.21798 5.3824 0.67119 5.739 3.747 0.8317 7.1723-6.4136 9.7836-15.739 5.6727zm1044-233.17c-1.3313-1.6041-1.2976-2.4368 0.1701-4.2065 3.7059-4.4686 9.8395-5.6144 34.579-6.4596 15.81-0.54014 29.581-1.7978 38.584-3.524 9.8099-1.8808 21.582-2.8582 39.333-3.2657 13.933-0.31988 37.933-1.4636 53.333-2.5417s43-2.5888 61.333-3.3571c33.821-1.4175 39.155-1.856 80.667-6.6312 38.338-4.4102 141.84-6.8246 179.74-4.1926 54.345 3.7746 96.231 4.6431 131.06 2.7177 31.4-1.7358 60.906-2.0171 130.54-1.2441 18.872 0.2095 34.97-0.45994 52-2.1625 27.942-2.7934 99.73-3.3987 148-1.2481 37.02 1.6494 49.783 1.3159 75.763-1.9794 18.348-2.3273 35.828-1.1892 37.214 2.4228 1.2229 3.1869-2.3646 4.2968-13.957 4.3184-6.0392 0.0107-20.739 1.0261-32.667 2.2553-24.352 2.5096-44.949 2.751-89.686 1.0514-42.054-1.5977-96.728-1.2573-116 0.72207-28.681 2.9459-53.992 3.5293-93.129 2.1467-32.769-1.1576-44.907-0.99591-82 1.0926-51.566 2.9033-43.009 2.7008-68.204 1.6144-11.367-0.49008-28.167-1.2043-37.333-1.5871-9.1666-0.38283-24.321-1.2965-33.676-2.0303-33.016-2.5899-141.06-1.5478-167.66 1.6173-6.2333 0.74168-16.433 1.852-22.667 2.4673-6.2333 0.61534-18.833 2.0237-28 3.1297-9.1666 1.106-24.467 2.3486-34 2.7614-28.671 1.2414-63.139 3.3886-78 4.859-7.7 0.76188-29.6 1.9115-48.667 2.5546-19.067 0.64315-37.067 1.7601-40 2.4821-10.827 2.6649-22.971 4.2217-34.308 4.3979-6.4031 0.0995-16.603 0.98759-22.667 1.9735-14.233 2.3142-17.666 2.2873-19.692-0.15407z" stroke-width="1.3333"/>
</svg>
