<?xml version="1.0" encoding="UTF-8"?>
<svg width="1427.3" height="834.67" version="1.1" viewBox="0 0 1427.3467 834.66669" xml:space="preserve" xmlns="http://www.w3.org/2000/svg"><defs><clipPath id="clipPath4321"><path d="m0 626h1070.5v-626h-1070.5z"/></clipPath></defs><g transform="matrix(1.3333 0 0 -1.3333 0 834.67)"><g clip-path="url(#clipPath4321)"><g transform="translate(120,569)"><path d="m0 0c0-27.614-22.386-50-50-50s-50 22.386-50 50 22.386 50 50 50 50-22.386 50-50z" fill="none" stroke="#231f20" stroke-dasharray="1.988, 1.988" stroke-miterlimit="10" stroke-width=".5"/></g><g transform="translate(205.04,569)"><path d="m0 0c0-27.614-22.387-50-50-50-27.615 0-50 22.386-50 50s22.385 50 50 50c27.613 0 50-22.386 50-50z" fill="none" stroke="#231f20" stroke-dasharray="1.988, 1.988" stroke-miterlimit="10" stroke-width=".5"/></g><g transform="translate(120 483.96)"><path d="m0 0c0-27.614-22.386-50-50-50s-50 22.386-50 50 22.386 50 50 50 50-22.386 50-50z" fill="none" stroke="#231f20" stroke-dasharray="1.988, 1.988" stroke-miterlimit="10" stroke-width=".5"/></g><g transform="translate(205.04 483.96)"><path d="m0 0c0-27.614-22.387-50-50-50-27.615 0-50 22.386-50 50s22.385 50 50 50c27.613 0 50-22.386 50-50z" fill="none" stroke="#231f20" stroke-dasharray="1.988, 1.988" stroke-miterlimit="10" stroke-width=".5"/></g><g transform="translate(70,569)"><path d="m0 0z" fill="none" stroke="#231f20" stroke-dasharray="2" stroke-miterlimit="10" stroke-width=".5"/></g><g transform="translate(77.087 569)"><path d="m0 0c0-3.914-3.174-7.087-7.088-7.087-3.913 0-7.086 3.173-7.086 7.087s3.173 7.086 7.086 7.086c3.914 0 7.088-3.172 7.088-7.086" fill="#bf1e2d"/></g><g transform="translate(77.087 569)"><path d="m0 0c0-3.914-3.174-7.087-7.088-7.087-3.913 0-7.086 3.173-7.086 7.087s3.173 7.086 7.086 7.086c3.914 0 7.088-3.172 7.088-7.086z" fill="none" stroke="#231f20" stroke-miterlimit="10" stroke-width=".5"/></g><g transform="translate(77.087 483.96)"><path d="m0 0c0-3.914-3.174-7.087-7.088-7.087-3.913 0-7.086 3.173-7.086 7.087s3.173 7.086 7.086 7.086c3.914 0 7.088-3.172 7.088-7.086" fill="#006838"/></g><g transform="translate(77.087 483.96)"><path d="m0 0c0-3.914-3.174-7.087-7.088-7.087-3.913 0-7.086 3.173-7.086 7.087s3.173 7.086 7.086 7.086c3.914 0 7.088-3.172 7.088-7.086z" fill="none" stroke="#231f20" stroke-miterlimit="10" stroke-width=".5"/></g><g transform="translate(69.601 567.55)"><path d="m0 0c16.669-2.362 33.338-4.725 50.008-7.087 1.89-0.268 2.706 2.622 0.797 2.893-16.669 2.362-33.338 4.724-50.008 7.087-1.891 0.268-2.706-2.622-0.797-2.893" fill="#231f20"/></g><g transform="translate(155.04,569)"><path d="m0 0z" fill="none" stroke="#231f20" stroke-dasharray="2" stroke-miterlimit="10" stroke-width=".5"/></g><g transform="translate(162.13 569)"><path d="m0 0c0-3.914-3.173-7.087-7.087-7.087-3.913 0-7.087 3.173-7.087 7.087s3.174 7.086 7.087 7.086c3.914 0 7.087-3.172 7.087-7.086" fill="#006838"/></g><g transform="translate(162.13 569)"><path d="m0 0c0-3.914-3.173-7.087-7.087-7.087-3.913 0-7.087 3.173-7.087 7.087s3.174 7.086 7.087 7.086c3.914 0 7.087-3.172 7.087-7.086z" fill="none" stroke="#231f20" stroke-miterlimit="10" stroke-width=".5"/></g><g transform="translate(162.13 483.96)"><path d="m0 0c0-3.914-3.173-7.087-7.087-7.087-3.913 0-7.087 3.173-7.087 7.087s3.174 7.086 7.087 7.086c3.914 0 7.087-3.172 7.087-7.086" fill="#bf1e2d"/></g><g transform="translate(162.13 483.96)"><path d="m0 0c0-3.914-3.173-7.087-7.087-7.087-3.913 0-7.087 3.173-7.087 7.087s3.174 7.086 7.087 7.086c3.914 0 7.087-3.172 7.087-7.086z" fill="none" stroke="#231f20" stroke-miterlimit="10" stroke-width=".5"/></g><g transform="translate(155.04,569)"><path d="m0 0-46.023-19.57" fill="#231f20"/></g><g transform="translate(154.28 570.3)"><path d="m0 0c-15.342-6.523-30.683-13.047-46.023-19.57-1.776-0.755-0.246-3.339 1.513-2.591 15.342 6.523 30.683 13.047 46.024 19.57 1.775 0.755 0.245 3.339-1.514 2.591" fill="#231f20"/></g><g transform="translate(156.1 482.9)"><path d="m0 0c11.887 11.68 23.772 23.359 35.659 35.04 1.382 1.357-0.741 3.477-2.121 2.121-11.887-11.68-23.773-23.36-35.659-35.04-1.382-1.357 0.741-3.477 2.121-2.121" fill="#231f20"/></g><g transform="translate(71.446 484.36)"><path d="m0 0c-5.036 15.891-10.072 31.782-15.108 47.674-0.582 1.837-3.479 1.052-2.893-0.798 5.036-15.891 10.072-31.782 15.108-47.674 0.582-1.837 3.479-1.052 2.893 0.798" fill="#231f20"/></g><g transform="translate(291.5 569)"><path d="m0 0c0-27.614-22.387-50-50.001-50s-50 22.386-50 50 22.386 50 50 50 50.001-22.386 50.001-50z" fill="none" stroke="#231f20" stroke-dasharray="1.988, 1.988" stroke-miterlimit="10" stroke-width=".5"/></g><g transform="translate(376.54 569)"><path d="m0 0c0-27.614-22.387-50-50-50-27.615 0-50 22.386-50 50s22.385 50 50 50c27.613 0 50-22.386 50-50z" fill="none" stroke="#231f20" stroke-dasharray="1.988, 1.988" stroke-miterlimit="10" stroke-width=".5"/></g><g transform="translate(291.5 483.96)"><path d="m0 0c0-27.614-22.387-50-50.001-50s-50 22.386-50 50 22.386 50 50 50 50.001-22.386 50.001-50z" fill="none" stroke="#231f20" stroke-dasharray="1.988, 1.988" stroke-miterlimit="10" stroke-width=".5"/></g><g transform="translate(376.54 483.96)"><path d="m0 0c0-27.614-22.387-50-50-50-27.615 0-50 22.386-50 50s22.385 50 50 50c27.613 0 50-22.386 50-50z" fill="none" stroke="#231f20" stroke-dasharray="1.988, 1.988" stroke-miterlimit="10" stroke-width=".5"/></g><g transform="translate(241.5 569)"><path d="m0 0z" fill="none" stroke="#231f20" stroke-dasharray="2" stroke-miterlimit="10" stroke-width=".5"/></g><g transform="translate(248.58 569)"><path d="m0 0c0-3.914-3.174-7.087-7.088-7.087-3.913 0-7.086 3.173-7.086 7.087s3.173 7.086 7.086 7.086c3.914 0 7.088-3.172 7.088-7.086" fill="#bf1e2d"/></g><g transform="translate(248.58 569)"><path d="m0 0c0-3.914-3.174-7.087-7.088-7.087-3.913 0-7.086 3.173-7.086 7.087s3.173 7.086 7.086 7.086c3.914 0 7.088-3.172 7.088-7.086z" fill="none" stroke="#231f20" stroke-miterlimit="10" stroke-width=".5"/></g><g transform="translate(248.58 483.96)"><path d="m0 0c0-3.914-3.174-7.087-7.088-7.087-3.913 0-7.086 3.173-7.086 7.087s3.173 7.086 7.086 7.086c3.914 0 7.088-3.172 7.088-7.086" fill="#006838"/></g><g transform="translate(248.58 483.96)"><path d="m0 0c0-3.914-3.174-7.087-7.088-7.087-3.913 0-7.086 3.173-7.086 7.087s3.173 7.086 7.086 7.086c3.914 0 7.088-3.172 7.088-7.086z" fill="none" stroke="#231f20" stroke-miterlimit="10" stroke-width=".5"/></g><g transform="translate(191.1 573.64)"><path d="m0 0 50.007-7.087c1.89-0.268 2.706 2.622 0.797 2.893l-50.007 7.087c-1.891 0.268-2.706-2.622-0.797-2.893" fill="#231f20"/></g><g transform="translate(326.54 569)"><path d="m0 0z" fill="none" stroke="#231f20" stroke-dasharray="2" stroke-miterlimit="10" stroke-width=".5"/></g><g transform="translate(333.62 569)"><path d="m0 0c0-3.914-3.172-7.087-7.086-7.087s-7.088 3.173-7.088 7.087 3.174 7.086 7.088 7.086 7.086-3.172 7.086-7.086" fill="#006838"/></g><g transform="translate(333.62 569)"><path d="m0 0c0-3.914-3.172-7.087-7.086-7.087s-7.088 3.173-7.088 7.087 3.174 7.086 7.088 7.086 7.086-3.172 7.086-7.086z" fill="none" stroke="#231f20" stroke-miterlimit="10" stroke-width=".5"/></g><g transform="translate(333.62 483.96)"><path d="m0 0c0-3.914-3.172-7.087-7.086-7.087s-7.088 3.173-7.088 7.087 3.174 7.086 7.088 7.086 7.086-3.172 7.086-7.086" fill="#bf1e2d"/></g><g transform="translate(333.62 483.96)"><path d="m0 0c0-3.914-3.172-7.087-7.086-7.087s-7.088 3.173-7.088 7.087 3.174 7.086 7.088 7.086 7.086-3.172 7.086-7.086z" fill="none" stroke="#231f20" stroke-miterlimit="10" stroke-width=".5"/></g><g transform="translate(326.54 569)"><path d="m0 0-47.995-14.033" fill="#231f20"/></g><g transform="translate(326.14 570.45)"><path d="m0 0c-15.999-4.678-31.997-9.355-47.995-14.033-1.854-0.542-1.065-3.437 0.797-2.893 15.999 4.678 31.997 9.356 47.995 14.033 1.853 0.542 1.064 3.437-0.797 2.893" fill="#231f20"/></g><g transform="translate(327.6 482.9)"><path d="m0 0c11.887 11.68 23.773 23.359 35.66 35.04 1.382 1.357-0.741 3.477-2.121 2.121-11.887-11.68-23.773-23.36-35.66-35.04-1.382-1.357 0.741-3.477 2.121-2.121" fill="#231f20"/></g><g transform="translate(242.94 484.36)"><path d="m0 0c-5.036 15.891-10.072 31.782-15.108 47.674-0.582 1.837-3.479 1.052-2.893-0.798 5.036-15.891 10.072-31.782 15.108-47.674 0.582-1.837 3.479-1.052 2.893 0.798" fill="#231f20"/></g><g transform="translate(120 398.92)"><path d="m0 0c0-27.614-22.386-50-50-50s-50 22.386-50 50 22.386 50 50 50 50-22.386 50-50z" fill="none" stroke="#231f20" stroke-dasharray="1.988, 1.988" stroke-miterlimit="10" stroke-width=".5"/></g><g transform="translate(205.04 398.92)"><path d="m0 0c0-27.614-22.387-50-50-50-27.615 0-50 22.386-50 50s22.385 50 50 50c27.613 0 50-22.386 50-50z" fill="none" stroke="#231f20" stroke-dasharray="1.988, 1.988" stroke-miterlimit="10" stroke-width=".5"/></g><g transform="translate(120 313.88)"><path d="m0 0c0-27.614-22.386-50-50-50s-50 22.386-50 50 22.386 50 50 50 50-22.386 50-50z" fill="none" stroke="#231f20" stroke-dasharray="1.988, 1.988" stroke-miterlimit="10" stroke-width=".5"/></g><g transform="translate(205.04 313.88)"><path d="m0 0c0-27.614-22.387-50-50-50-27.615 0-50 22.386-50 50s22.385 50 50 50c27.613 0 50-22.386 50-50z" fill="none" stroke="#231f20" stroke-dasharray="1.988, 1.988" stroke-miterlimit="10" stroke-width=".5"/></g><g transform="translate(70 398.92)"><path d="m0 0z" fill="none" stroke="#231f20" stroke-dasharray="2" stroke-miterlimit="10" stroke-width=".5"/></g><g transform="translate(77.087 398.92)"><path d="m0 0c0-3.914-3.174-7.087-7.088-7.087-3.913 0-7.086 3.173-7.086 7.087s3.173 7.086 7.086 7.086c3.914 0 7.088-3.172 7.088-7.086" fill="#bf1e2d"/></g><g transform="translate(77.087 398.92)"><path d="m0 0c0-3.914-3.174-7.087-7.088-7.087-3.913 0-7.086 3.173-7.086 7.087s3.173 7.086 7.086 7.086c3.914 0 7.088-3.172 7.088-7.086z" fill="none" stroke="#231f20" stroke-miterlimit="10" stroke-width=".5"/></g><g transform="translate(77.087 313.88)"><path d="m0 0c0-3.914-3.174-7.086-7.088-7.086-3.913 0-7.086 3.172-7.086 7.086s3.173 7.087 7.086 7.087c3.914 0 7.088-3.173 7.088-7.087" fill="#006838"/></g><g transform="translate(77.087 313.88)"><path d="m0 0c0-3.914-3.174-7.086-7.088-7.086-3.913 0-7.086 3.172-7.086 7.086s3.173 7.087 7.086 7.087c3.914 0 7.088-3.173 7.088-7.087z" fill="none" stroke="#231f20" stroke-miterlimit="10" stroke-width=".5"/></g><g transform="translate(69.601 397.48)"><path d="m0 0c16.669-2.362 33.338-4.725 50.008-7.087 1.89-0.268 2.706 2.622 0.797 2.893-16.669 2.362-33.338 4.724-50.008 7.087-1.891 0.268-2.706-2.622-0.797-2.893" fill="#231f20"/></g><g transform="translate(155.04 398.92)"><path d="m0 0z" fill="none" stroke="#231f20" stroke-dasharray="2" stroke-miterlimit="10" stroke-width=".5"/></g><g transform="translate(162.13 398.92)"><path d="m0 0c0-3.914-3.173-7.087-7.087-7.087-3.913 0-7.087 3.173-7.087 7.087s3.174 7.086 7.087 7.086c3.914 0 7.087-3.172 7.087-7.086" fill="#006838"/></g><g transform="translate(162.13 398.92)"><path d="m0 0c0-3.914-3.173-7.087-7.087-7.087-3.913 0-7.087 3.173-7.087 7.087s3.174 7.086 7.087 7.086c3.914 0 7.087-3.172 7.087-7.086z" fill="none" stroke="#231f20" stroke-miterlimit="10" stroke-width=".5"/></g><g transform="translate(162.13 313.88)"><path d="m0 0c0-3.914-3.173-7.086-7.087-7.086-3.913 0-7.087 3.172-7.087 7.086s3.174 7.087 7.087 7.087c3.914 0 7.087-3.173 7.087-7.087" fill="#bf1e2d"/></g><g transform="translate(162.13 313.88)"><path d="m0 0c0-3.914-3.173-7.086-7.087-7.086-3.913 0-7.087 3.172-7.087 7.086s3.174 7.087 7.087 7.087c3.914 0 7.087-3.173 7.087-7.087z" fill="none" stroke="#231f20" stroke-miterlimit="10" stroke-width=".5"/></g><g transform="translate(155.04 398.92)"><path d="m0 0-46.023-19.57" fill="#231f20"/></g><g transform="translate(154.28 400.22)"><path d="m0 0c-15.342-6.523-30.683-13.047-46.023-19.57-1.776-0.755-0.246-3.339 1.513-2.591 15.342 6.523 30.683 13.047 46.024 19.57 1.775 0.755 0.245 3.339-1.514 2.591" fill="#231f20"/></g><g transform="translate(156.1 312.82)"><path d="m0 0c11.887 11.68 23.772 23.359 35.659 35.04 1.382 1.357-0.741 3.477-2.121 2.121-11.887-11.68-23.773-23.36-35.659-35.04-1.382-1.357 0.741-3.477 2.121-2.121" fill="#231f20"/></g><g transform="translate(71.446 314.28)"><path d="m0 0c-5.036 15.892-10.072 31.783-15.108 47.674-0.582 1.837-3.479 1.052-2.893-0.798l15.108-47.673c0.582-1.838 3.479-1.052 2.893 0.797" fill="#231f20"/></g><g transform="translate(291.5 398.92)"><path d="m0 0c0-27.614-22.387-50-50.001-50s-50 22.386-50 50 22.386 50 50 50 50.001-22.386 50.001-50z" fill="none" stroke="#231f20" stroke-dasharray="1.988, 1.988" stroke-miterlimit="10" stroke-width=".5"/></g><g transform="translate(376.54 398.92)"><path d="m0 0c0-27.614-22.387-50-50-50-27.615 0-50 22.386-50 50s22.385 50 50 50c27.613 0 50-22.386 50-50z" fill="none" stroke="#231f20" stroke-dasharray="1.988, 1.988" stroke-miterlimit="10" stroke-width=".5"/></g><g transform="translate(291.5 313.88)"><path d="m0 0c0-27.614-22.387-50-50.001-50s-50 22.386-50 50 22.386 50 50 50 50.001-22.386 50.001-50z" fill="none" stroke="#231f20" stroke-dasharray="1.988, 1.988" stroke-miterlimit="10" stroke-width=".5"/></g><g transform="translate(376.54 313.88)"><path d="m0 0c0-27.614-22.387-50-50-50-27.615 0-50 22.386-50 50s22.385 50 50 50c27.613 0 50-22.386 50-50z" fill="none" stroke="#231f20" stroke-dasharray="1.988, 1.988" stroke-miterlimit="10" stroke-width=".5"/></g><g transform="translate(241.5 398.92)"><path d="m0 0z" fill="none" stroke="#231f20" stroke-dasharray="2" stroke-miterlimit="10" stroke-width=".5"/></g><g transform="translate(248.58 398.92)"><path d="m0 0c0-3.914-3.174-7.087-7.088-7.087-3.913 0-7.086 3.173-7.086 7.087s3.173 7.086 7.086 7.086c3.914 0 7.088-3.172 7.088-7.086" fill="#bf1e2d"/></g><g transform="translate(248.58 398.92)"><path d="m0 0c0-3.914-3.174-7.087-7.088-7.087-3.913 0-7.086 3.173-7.086 7.087s3.173 7.086 7.086 7.086c3.914 0 7.088-3.172 7.088-7.086z" fill="none" stroke="#231f20" stroke-miterlimit="10" stroke-width=".5"/></g><g transform="translate(248.58 313.88)"><path d="m0 0c0-3.914-3.174-7.086-7.088-7.086-3.913 0-7.086 3.172-7.086 7.086s3.173 7.087 7.086 7.087c3.914 0 7.088-3.173 7.088-7.087" fill="#006838"/></g><g transform="translate(248.58 313.88)"><path d="m0 0c0-3.914-3.174-7.086-7.088-7.086-3.913 0-7.086 3.172-7.086 7.086s3.173 7.087 7.086 7.087c3.914 0 7.088-3.173 7.088-7.087z" fill="none" stroke="#231f20" stroke-miterlimit="10" stroke-width=".5"/></g><g transform="translate(191.1 403.56)"><path d="m0 0 50.007-7.087c1.89-0.268 2.706 2.622 0.797 2.893l-50.007 7.087c-1.891 0.268-2.706-2.622-0.797-2.893" fill="#231f20"/></g><g transform="translate(326.54 398.92)"><path d="m0 0z" fill="none" stroke="#231f20" stroke-dasharray="2" stroke-miterlimit="10" stroke-width=".5"/></g><g transform="translate(333.62 398.92)"><path d="m0 0c0-3.914-3.172-7.087-7.086-7.087s-7.088 3.173-7.088 7.087 3.174 7.086 7.088 7.086 7.086-3.172 7.086-7.086" fill="#006838"/></g><g transform="translate(333.62 398.92)"><path d="m0 0c0-3.914-3.172-7.087-7.086-7.087s-7.088 3.173-7.088 7.087 3.174 7.086 7.088 7.086 7.086-3.172 7.086-7.086z" fill="none" stroke="#231f20" stroke-miterlimit="10" stroke-width=".5"/></g><g transform="translate(333.62 313.88)"><path d="m0 0c0-3.914-3.172-7.086-7.086-7.086s-7.088 3.172-7.088 7.086 3.174 7.087 7.088 7.087 7.086-3.173 7.086-7.087" fill="#bf1e2d"/></g><g transform="translate(333.62 313.88)"><path d="m0 0c0-3.914-3.172-7.086-7.086-7.086s-7.088 3.172-7.088 7.086 3.174 7.087 7.088 7.087 7.086-3.173 7.086-7.087z" fill="none" stroke="#231f20" stroke-miterlimit="10" stroke-width=".5"/></g><g transform="translate(326.54 398.92)"><path d="m0 0-47.995-14.033" fill="#231f20"/></g><g transform="translate(326.14 400.37)"><path d="m0 0c-15.999-4.678-31.997-9.355-47.995-14.033-1.854-0.542-1.065-3.437 0.797-2.893 15.999 4.678 31.997 9.356 47.995 14.033 1.853 0.542 1.064 3.437-0.797 2.893" fill="#231f20"/></g><g transform="translate(327.6 312.82)"><path d="m0 0c11.887 11.68 23.773 23.359 35.66 35.04 1.382 1.357-0.741 3.477-2.121 2.121-11.887-11.68-23.773-23.36-35.66-35.04-1.382-1.357 0.741-3.477 2.121-2.121" fill="#231f20"/></g><g transform="translate(242.94 314.28)"><path d="m0 0c-5.036 15.892-10.072 31.783-15.108 47.674-0.582 1.837-3.479 1.052-2.893-0.798l15.108-47.673c0.582-1.838 3.479-1.052 2.893 0.797" fill="#231f20"/></g><g transform="translate(120 228.84)"><path d="m0 0c0-27.614-22.386-50-50-50s-50 22.386-50 50 22.386 50 50 50 50-22.386 50-50z" fill="none" stroke="#231f20" stroke-dasharray="1.988, 1.988" stroke-miterlimit="10" stroke-width=".5"/></g><g transform="translate(205.04 228.84)"><path d="m0 0c0-27.614-22.387-50-50-50-27.615 0-50 22.386-50 50s22.385 50 50 50c27.613 0 50-22.386 50-50z" fill="none" stroke="#231f20" stroke-dasharray="1.988, 1.988" stroke-miterlimit="10" stroke-width=".5"/></g><g transform="translate(120 143.8)"><path d="m0 0c0-27.614-22.386-50-50-50s-50 22.386-50 50 22.386 50 50 50 50-22.386 50-50z" fill="none" stroke="#231f20" stroke-dasharray="1.988, 1.988" stroke-miterlimit="10" stroke-width=".5"/></g><g transform="translate(205.04 143.8)"><path d="m0 0c0-27.614-22.387-50-50-50-27.615 0-50 22.386-50 50s22.385 50 50 50c27.613 0 50-22.386 50-50z" fill="none" stroke="#231f20" stroke-dasharray="1.988, 1.988" stroke-miterlimit="10" stroke-width=".5"/></g><g transform="translate(70 228.84)"><path d="m0 0z" fill="none" stroke="#231f20" stroke-dasharray="2" stroke-miterlimit="10" stroke-width=".5"/></g><g transform="translate(77.087 228.84)"><path d="m0 0c0-3.914-3.174-7.087-7.088-7.087-3.913 0-7.086 3.173-7.086 7.087 0 3.913 3.173 7.086 7.086 7.086 3.914 0 7.088-3.173 7.088-7.086" fill="#bf1e2d"/></g><g transform="translate(77.087 228.84)"><path d="m0 0c0-3.914-3.174-7.087-7.088-7.087-3.913 0-7.086 3.173-7.086 7.087 0 3.913 3.173 7.086 7.086 7.086 3.914 0 7.088-3.173 7.088-7.086z" fill="none" stroke="#231f20" stroke-miterlimit="10" stroke-width=".5"/></g><g transform="translate(77.087 143.8)"><path d="m0 0c0-3.914-3.174-7.087-7.088-7.087-3.913 0-7.086 3.173-7.086 7.087 0 3.913 3.173 7.086 7.086 7.086 3.914 0 7.088-3.173 7.088-7.086" fill="#006838"/></g><g transform="translate(77.087 143.8)"><path d="m0 0c0-3.914-3.174-7.087-7.088-7.087-3.913 0-7.086 3.173-7.086 7.087 0 3.913 3.173 7.086 7.086 7.086 3.914 0 7.088-3.173 7.088-7.086z" fill="none" stroke="#231f20" stroke-miterlimit="10" stroke-width=".5"/></g><g transform="translate(69.601 227.4)"><path d="m0 0c16.669-2.362 33.338-4.725 50.008-7.087 1.89-0.268 2.706 2.622 0.797 2.893-16.669 2.362-33.338 4.724-50.008 7.087-1.891 0.268-2.706-2.622-0.797-2.893" fill="#231f20"/></g><g transform="translate(155.04 228.84)"><path d="m0 0z" fill="none" stroke="#231f20" stroke-dasharray="2" stroke-miterlimit="10" stroke-width=".5"/></g><g transform="translate(162.13 228.84)"><path d="m0 0c0-3.914-3.173-7.087-7.087-7.087-3.913 0-7.087 3.173-7.087 7.087 0 3.913 3.174 7.086 7.087 7.086 3.914 0 7.087-3.173 7.087-7.086" fill="#006838"/></g><g transform="translate(162.13 228.84)"><path d="m0 0c0-3.914-3.173-7.087-7.087-7.087-3.913 0-7.087 3.173-7.087 7.087 0 3.913 3.174 7.086 7.087 7.086 3.914 0 7.087-3.173 7.087-7.086z" fill="none" stroke="#231f20" stroke-miterlimit="10" stroke-width=".5"/></g><g transform="translate(162.13 143.8)"><path d="m0 0c0-3.914-3.173-7.087-7.087-7.087-3.913 0-7.087 3.173-7.087 7.087 0 3.913 3.174 7.086 7.087 7.086 3.914 0 7.087-3.173 7.087-7.086" fill="#bf1e2d"/></g><g transform="translate(162.13 143.8)"><path d="m0 0c0-3.914-3.173-7.087-7.087-7.087-3.913 0-7.087 3.173-7.087 7.087 0 3.913 3.174 7.086 7.087 7.086 3.914 0 7.087-3.173 7.087-7.086z" fill="none" stroke="#231f20" stroke-miterlimit="10" stroke-width=".5"/></g><g transform="translate(155.04 228.84)"><path d="m0 0-46.023-19.57" fill="#231f20"/></g><g transform="translate(154.28 230.14)"><path d="m0 0c-15.342-6.523-30.683-13.047-46.023-19.57-1.776-0.755-0.246-3.338 1.513-2.59 15.342 6.523 30.683 13.047 46.024 19.57 1.775 0.755 0.245 3.338-1.514 2.59" fill="#231f20"/></g><g transform="translate(156.1 142.74)"><path d="m0 0c11.887 11.68 23.772 23.36 35.659 35.04 1.382 1.357-0.741 3.478-2.121 2.121-11.887-11.68-23.773-23.36-35.659-35.04-1.382-1.357 0.741-3.477 2.121-2.121" fill="#231f20"/></g><g transform="translate(71.446 144.2)"><path d="m0 0c-5.036 15.892-10.072 31.783-15.108 47.674-0.582 1.838-3.479 1.053-2.893-0.797 5.036-15.892 10.072-31.783 15.108-47.674 0.582-1.838 3.479-1.053 2.893 0.797" fill="#231f20"/></g><g transform="translate(291.5 228.84)"><path d="m0 0c0-27.614-22.387-50-50.001-50s-50 22.386-50 50 22.386 50 50 50 50.001-22.386 50.001-50z" fill="none" stroke="#231f20" stroke-dasharray="1.988, 1.988" stroke-miterlimit="10" stroke-width=".5"/></g><g transform="translate(376.54 228.84)"><path d="m0 0c0-27.614-22.387-50-50-50-27.615 0-50 22.386-50 50s22.385 50 50 50c27.613 0 50-22.386 50-50z" fill="none" stroke="#231f20" stroke-dasharray="1.988, 1.988" stroke-miterlimit="10" stroke-width=".5"/></g><g transform="translate(291.5 143.8)"><path d="m0 0c0-27.614-22.387-50-50.001-50s-50 22.386-50 50 22.386 50 50 50 50.001-22.386 50.001-50z" fill="none" stroke="#231f20" stroke-dasharray="1.988, 1.988" stroke-miterlimit="10" stroke-width=".5"/></g><g transform="translate(376.54 143.8)"><path d="m0 0c0-27.614-22.387-50-50-50-27.615 0-50 22.386-50 50s22.385 50 50 50c27.613 0 50-22.386 50-50z" fill="none" stroke="#231f20" stroke-dasharray="1.988, 1.988" stroke-miterlimit="10" stroke-width=".5"/></g><g transform="translate(241.5 228.84)"><path d="m0 0z" fill="none" stroke="#231f20" stroke-dasharray="2" stroke-miterlimit="10" stroke-width=".5"/></g><g transform="translate(248.58 228.84)"><path d="m0 0c0-3.914-3.174-7.087-7.088-7.087-3.913 0-7.086 3.173-7.086 7.087 0 3.913 3.173 7.086 7.086 7.086 3.914 0 7.088-3.173 7.088-7.086" fill="#bf1e2d"/></g><g transform="translate(248.58 228.84)"><path d="m0 0c0-3.914-3.174-7.087-7.088-7.087-3.913 0-7.086 3.173-7.086 7.087 0 3.913 3.173 7.086 7.086 7.086 3.914 0 7.088-3.173 7.088-7.086z" fill="none" stroke="#231f20" stroke-miterlimit="10" stroke-width=".5"/></g><g transform="translate(248.58 143.8)"><path d="m0 0c0-3.914-3.174-7.087-7.088-7.087-3.913 0-7.086 3.173-7.086 7.087 0 3.913 3.173 7.086 7.086 7.086 3.914 0 7.088-3.173 7.088-7.086" fill="#006838"/></g><g transform="translate(248.58 143.8)"><path d="m0 0c0-3.914-3.174-7.087-7.088-7.087-3.913 0-7.086 3.173-7.086 7.087 0 3.913 3.173 7.086 7.086 7.086 3.914 0 7.088-3.173 7.088-7.086z" fill="none" stroke="#231f20" stroke-miterlimit="10" stroke-width=".5"/></g><g transform="translate(191.1 233.49)"><path d="m0 0 50.007-7.087c1.89-0.268 2.706 2.622 0.797 2.893l-50.007 7.087c-1.891 0.268-2.706-2.622-0.797-2.893" fill="#231f20"/></g><g transform="translate(326.54 228.84)"><path d="m0 0z" fill="none" stroke="#231f20" stroke-dasharray="2" stroke-miterlimit="10" stroke-width=".5"/></g><g transform="translate(333.62 228.84)"><path d="m0 0c0-3.914-3.172-7.087-7.086-7.087s-7.088 3.173-7.088 7.087c0 3.913 3.174 7.086 7.088 7.086s7.086-3.173 7.086-7.086" fill="#006838"/></g><g transform="translate(333.62 228.84)"><path d="m0 0c0-3.914-3.172-7.087-7.086-7.087s-7.088 3.173-7.088 7.087c0 3.913 3.174 7.086 7.088 7.086s7.086-3.173 7.086-7.086z" fill="none" stroke="#231f20" stroke-miterlimit="10" stroke-width=".5"/></g><g transform="translate(333.62 143.8)"><path d="m0 0c0-3.914-3.172-7.087-7.086-7.087s-7.088 3.173-7.088 7.087c0 3.913 3.174 7.086 7.088 7.086s7.086-3.173 7.086-7.086" fill="#bf1e2d"/></g><g transform="translate(333.62 143.8)"><path d="m0 0c0-3.914-3.172-7.087-7.086-7.087s-7.088 3.173-7.088 7.087c0 3.913 3.174 7.086 7.088 7.086s7.086-3.173 7.086-7.086z" fill="none" stroke="#231f20" stroke-miterlimit="10" stroke-width=".5"/></g><g transform="translate(326.54 228.84)"><path d="m0 0-47.995-14.033" fill="#231f20"/></g><g transform="translate(326.14 230.29)"><path d="m0 0c-15.999-4.678-31.997-9.355-47.995-14.033-1.854-0.542-1.065-3.437 0.797-2.893 15.999 4.678 31.997 9.356 47.995 14.033 1.853 0.542 1.064 3.437-0.797 2.893" fill="#231f20"/></g><g transform="translate(327.6 142.74)"><path d="m0 0c11.887 11.68 23.773 23.36 35.66 35.04 1.382 1.357-0.741 3.478-2.121 2.121-11.887-11.68-23.773-23.36-35.66-35.04-1.382-1.357 0.741-3.477 2.121-2.121" fill="#231f20"/></g><g transform="translate(242.94 144.2)"><path d="m0 0c-5.036 15.892-10.072 31.783-15.108 47.674-0.582 1.838-3.479 1.053-2.893-0.797 5.036-15.892 10.072-31.783 15.108-47.674 0.582-1.838 3.479-1.053 2.893 0.797" fill="#231f20"/></g><g transform="translate(120 58.764)"><path d="m0 0c0-27.614-22.386-49.999-50-49.999s-50 22.385-50 49.999 22.386 50 50 50 50-22.386 50-50z" fill="none" stroke="#231f20" stroke-dasharray="1.988, 1.988" stroke-miterlimit="10" stroke-width=".5"/></g><g transform="translate(205.04 58.764)"><path d="m0 0c0-27.614-22.387-49.999-50-49.999-27.615 0-50 22.385-50 49.999s22.385 50 50 50c27.613 0 50-22.386 50-50z" fill="none" stroke="#231f20" stroke-dasharray="1.988, 1.988" stroke-miterlimit="10" stroke-width=".5"/></g><g transform="translate(70 58.764)"><path d="m0 0z" fill="none" stroke="#231f20" stroke-dasharray="2" stroke-miterlimit="10" stroke-width=".5"/></g><g transform="translate(77.087 58.764)"><path d="m0 0c0-3.914-3.174-7.087-7.088-7.087-3.913 0-7.086 3.173-7.086 7.087s3.173 7.087 7.086 7.087c3.914 0 7.088-3.173 7.088-7.087" fill="#bf1e2d"/></g><g transform="translate(77.087 58.764)"><path d="m0 0c0-3.914-3.174-7.087-7.088-7.087-3.913 0-7.086 3.173-7.086 7.087s3.173 7.087 7.086 7.087c3.914 0 7.088-3.173 7.088-7.087z" fill="none" stroke="#231f20" stroke-miterlimit="10" stroke-width=".5"/></g><g transform="translate(69.601 57.317)"><path d="m0 0c16.669-2.362 33.338-4.725 50.008-7.087 1.89-0.268 2.706 2.622 0.797 2.893-16.669 2.362-33.338 4.724-50.008 7.087-1.891 0.268-2.706-2.622-0.797-2.893" fill="#231f20"/></g><g transform="translate(155.04 58.764)"><path d="m0 0z" fill="none" stroke="#231f20" stroke-dasharray="2" stroke-miterlimit="10" stroke-width=".5"/></g><g transform="translate(162.13 58.764)"><path d="m0 0c0-3.914-3.173-7.087-7.087-7.087-3.913 0-7.087 3.173-7.087 7.087s3.174 7.087 7.087 7.087c3.914 0 7.087-3.173 7.087-7.087" fill="#006838"/></g><g transform="translate(162.13 58.764)"><path d="m0 0c0-3.914-3.173-7.087-7.087-7.087-3.913 0-7.087 3.173-7.087 7.087s3.174 7.087 7.087 7.087c3.914 0 7.087-3.173 7.087-7.087z" fill="none" stroke="#231f20" stroke-miterlimit="10" stroke-width=".5"/></g><g transform="translate(155.04 58.764)"><path d="m0 0-46.023-19.569" fill="#231f20"/></g><g transform="translate(154.28 60.059)"><path d="m0 0c-15.342-6.522-30.683-13.046-46.023-19.569-1.776-0.755-0.246-3.338 1.513-2.59 15.342 6.522 30.683 13.046 46.024 19.569 1.775 0.755 0.245 3.338-1.514 2.59" fill="#231f20"/></g><g transform="translate(291.5 58.764)"><path d="m0 0c0-27.614-22.387-49.999-50.001-49.999s-50 22.385-50 49.999 22.386 50 50 50 50.001-22.386 50.001-50z" fill="none" stroke="#231f20" stroke-dasharray="1.988, 1.988" stroke-miterlimit="10" stroke-width=".5"/></g><g transform="translate(376.54 58.764)"><path d="m0 0c0-27.614-22.387-49.999-50-49.999-27.615 0-50 22.385-50 49.999s22.385 50 50 50c27.613 0 50-22.386 50-50z" fill="none" stroke="#231f20" stroke-dasharray="1.988, 1.988" stroke-miterlimit="10" stroke-width=".5"/></g><g transform="translate(241.5 58.764)"><path d="m0 0z" fill="none" stroke="#231f20" stroke-dasharray="2" stroke-miterlimit="10" stroke-width=".5"/></g><g transform="translate(248.58 58.764)"><path d="m0 0c0-3.914-3.174-7.087-7.088-7.087-3.913 0-7.086 3.173-7.086 7.087s3.173 7.087 7.086 7.087c3.914 0 7.088-3.173 7.088-7.087" fill="#bf1e2d"/></g><g transform="translate(248.58 58.764)"><path d="m0 0c0-3.914-3.174-7.087-7.088-7.087-3.913 0-7.086 3.173-7.086 7.087s3.173 7.087 7.086 7.087c3.914 0 7.088-3.173 7.088-7.087z" fill="none" stroke="#231f20" stroke-miterlimit="10" stroke-width=".5"/></g><g transform="translate(191.1 63.407)"><path d="m0 0 50.007-7.087c1.89-0.268 2.706 2.622 0.797 2.893l-50.007 7.087c-1.891 0.268-2.706-2.622-0.797-2.893" fill="#231f20"/></g><g transform="translate(326.54 58.764)"><path d="m0 0z" fill="none" stroke="#231f20" stroke-dasharray="2" stroke-miterlimit="10" stroke-width=".5"/></g><g transform="translate(333.62 58.764)"><path d="m0 0c0-3.914-3.172-7.087-7.086-7.087s-7.088 3.173-7.088 7.087 3.174 7.087 7.088 7.087 7.086-3.173 7.086-7.087" fill="#006838"/></g><g transform="translate(333.62 58.764)"><path d="m0 0c0-3.914-3.172-7.087-7.086-7.087s-7.088 3.173-7.088 7.087 3.174 7.087 7.088 7.087 7.086-3.173 7.086-7.087z" fill="none" stroke="#231f20" stroke-miterlimit="10" stroke-width=".5"/></g><g transform="translate(326.54 58.764)"><path d="m0 0-47.995-14.032" fill="#231f20"/></g><g transform="translate(326.14 60.21)"><path d="m0 0c-15.999-4.678-31.997-9.354-47.995-14.032-1.854-0.542-1.065-3.437 0.797-2.893 15.999 4.678 31.997 9.355 47.995 14.032 1.853 0.542 1.064 3.437-0.797 2.893" fill="#231f20"/></g><g transform="translate(460.16 569)"><path d="m0 0c0-27.614-22.386-50-50-50s-50 22.386-50 50 22.386 50 50 50 50-22.386 50-50z" fill="none" stroke="#231f20" stroke-dasharray="1.988, 1.988" stroke-miterlimit="10" stroke-width=".5"/></g><g transform="translate(545.2 569)"><path d="m0 0c0-27.614-22.387-50-50-50-27.615 0-50 22.386-50 50s22.385 50 50 50c27.613 0 50-22.386 50-50z" fill="none" stroke="#231f20" stroke-dasharray="1.988, 1.988" stroke-miterlimit="10" stroke-width=".5"/></g><g transform="translate(460.16 483.96)"><path d="m0 0c0-27.614-22.386-50-50-50s-50 22.386-50 50 22.386 50 50 50 50-22.386 50-50z" fill="none" stroke="#231f20" stroke-dasharray="1.988, 1.988" stroke-miterlimit="10" stroke-width=".5"/></g><g transform="translate(545.2 483.96)"><path d="m0 0c0-27.614-22.387-50-50-50-27.615 0-50 22.386-50 50s22.385 50 50 50c27.613 0 50-22.386 50-50z" fill="none" stroke="#231f20" stroke-dasharray="1.988, 1.988" stroke-miterlimit="10" stroke-width=".5"/></g><g transform="translate(410.16 569)"><path d="m0 0z" fill="none" stroke="#231f20" stroke-dasharray="2" stroke-miterlimit="10" stroke-width=".5"/></g><g transform="translate(417.24 569)"><path d="m0 0c0-3.914-3.174-7.087-7.088-7.087-3.913 0-7.086 3.173-7.086 7.087s3.173 7.086 7.086 7.086c3.914 0 7.088-3.172 7.088-7.086" fill="#bf1e2d"/></g><g transform="translate(417.24 569)"><path d="m0 0c0-3.914-3.174-7.087-7.088-7.087-3.913 0-7.086 3.173-7.086 7.087s3.173 7.086 7.086 7.086c3.914 0 7.088-3.172 7.088-7.086z" fill="none" stroke="#231f20" stroke-miterlimit="10" stroke-width=".5"/></g><g transform="translate(417.24 483.96)"><path d="m0 0c0-3.914-3.174-7.087-7.088-7.087-3.913 0-7.086 3.173-7.086 7.087s3.173 7.086 7.086 7.086c3.914 0 7.088-3.172 7.088-7.086" fill="#006838"/></g><g transform="translate(417.24 483.96)"><path d="m0 0c0-3.914-3.174-7.087-7.088-7.087-3.913 0-7.086 3.173-7.086 7.087s3.173 7.086 7.086 7.086c3.914 0 7.088-3.172 7.088-7.086z" fill="none" stroke="#231f20" stroke-miterlimit="10" stroke-width=".5"/></g><g transform="translate(409.76 567.55)"><path d="m0 0c16.669-2.362 33.338-4.725 50.008-7.087 1.89-0.268 2.706 2.622 0.797 2.893-16.669 2.362-33.338 4.724-50.008 7.087-1.891 0.268-2.706-2.622-0.797-2.893" fill="#231f20"/></g><g transform="translate(495.2 569)"><path d="m0 0z" fill="none" stroke="#231f20" stroke-dasharray="2" stroke-miterlimit="10" stroke-width=".5"/></g><g transform="translate(502.28 569)"><path d="m0 0c0-3.914-3.173-7.087-7.087-7.087-3.913 0-7.087 3.173-7.087 7.087s3.174 7.086 7.087 7.086c3.914 0 7.087-3.172 7.087-7.086" fill="#006838"/></g><g transform="translate(502.28 569)"><path d="m0 0c0-3.914-3.173-7.087-7.087-7.087-3.913 0-7.087 3.173-7.087 7.087s3.174 7.086 7.087 7.086c3.914 0 7.087-3.172 7.087-7.086z" fill="none" stroke="#231f20" stroke-miterlimit="10" stroke-width=".5"/></g><g transform="translate(502.28 483.96)"><path d="m0 0c0-3.914-3.173-7.087-7.087-7.087-3.913 0-7.087 3.173-7.087 7.087s3.174 7.086 7.087 7.086c3.914 0 7.087-3.172 7.087-7.086" fill="#bf1e2d"/></g><g transform="translate(502.28 483.96)"><path d="m0 0c0-3.914-3.173-7.087-7.087-7.087-3.913 0-7.087 3.173-7.087 7.087s3.174 7.086 7.087 7.086c3.914 0 7.087-3.172 7.087-7.086z" fill="none" stroke="#231f20" stroke-miterlimit="10" stroke-width=".5"/></g><g transform="translate(495.2 569)"><path d="m0 0-46.023-19.57" fill="#231f20"/></g><g transform="translate(494.44 570.3)"><path d="m0 0c-15.342-6.523-30.683-13.047-46.023-19.57-1.776-0.755-0.246-3.339 1.513-2.591 15.342 6.523 30.683 13.047 46.024 19.57 1.775 0.755 0.245 3.339-1.514 2.591" fill="#231f20"/></g><g transform="translate(496.26 482.9)"><path d="m0 0c11.887 11.68 23.773 23.359 35.659 35.04 1.382 1.357-0.741 3.477-2.121 2.121-11.887-11.68-23.772-23.36-35.659-35.04-1.382-1.357 0.741-3.477 2.121-2.121" fill="#231f20"/></g><g transform="translate(411.6 484.36)"><path d="m0 0c-5.036 15.891-10.072 31.782-15.108 47.674-0.582 1.837-3.479 1.052-2.893-0.798 5.036-15.891 10.072-31.782 15.108-47.674 0.582-1.837 3.479-1.052 2.893 0.798" fill="#231f20"/></g><g transform="translate(631.65 569)"><path d="m0 0c0-27.614-22.387-50-50.001-50s-50 22.386-50 50 22.386 50 50 50 50.001-22.386 50.001-50z" fill="none" stroke="#231f20" stroke-dasharray="1.988, 1.988" stroke-miterlimit="10" stroke-width=".5"/></g><g transform="translate(716.69 569)"><path d="m0 0c0-27.614-22.387-50-50-50-27.615 0-50 22.386-50 50s22.385 50 50 50c27.613 0 50-22.386 50-50z" fill="none" stroke="#231f20" stroke-dasharray="1.988, 1.988" stroke-miterlimit="10" stroke-width=".5"/></g><g transform="translate(631.65 483.96)"><path d="m0 0c0-27.614-22.387-50-50.001-50s-50 22.386-50 50 22.386 50 50 50 50.001-22.386 50.001-50z" fill="none" stroke="#231f20" stroke-dasharray="1.988, 1.988" stroke-miterlimit="10" stroke-width=".5"/></g><g transform="translate(716.69 483.96)"><path d="m0 0c0-27.614-22.387-50-50-50-27.615 0-50 22.386-50 50s22.385 50 50 50c27.613 0 50-22.386 50-50z" fill="none" stroke="#231f20" stroke-dasharray="1.988, 1.988" stroke-miterlimit="10" stroke-width=".5"/></g><g transform="translate(581.65 569)"><path d="m0 0z" fill="none" stroke="#231f20" stroke-dasharray="2" stroke-miterlimit="10" stroke-width=".5"/></g><g transform="translate(588.74 569)"><path d="m0 0c0-3.914-3.174-7.087-7.088-7.087-3.913 0-7.086 3.173-7.086 7.087s3.173 7.086 7.086 7.086c3.914 0 7.088-3.172 7.088-7.086" fill="#bf1e2d"/></g><g transform="translate(588.74 569)"><path d="m0 0c0-3.914-3.174-7.087-7.088-7.087-3.913 0-7.086 3.173-7.086 7.087s3.173 7.086 7.086 7.086c3.914 0 7.088-3.172 7.088-7.086z" fill="none" stroke="#231f20" stroke-miterlimit="10" stroke-width=".5"/></g><g transform="translate(588.74 483.96)"><path d="m0 0c0-3.914-3.174-7.087-7.088-7.087-3.913 0-7.086 3.173-7.086 7.087s3.173 7.086 7.086 7.086c3.914 0 7.088-3.172 7.088-7.086" fill="#006838"/></g><g transform="translate(588.74 483.96)"><path d="m0 0c0-3.914-3.174-7.087-7.088-7.087-3.913 0-7.086 3.173-7.086 7.087s3.173 7.086 7.086 7.086c3.914 0 7.088-3.172 7.088-7.086z" fill="none" stroke="#231f20" stroke-miterlimit="10" stroke-width=".5"/></g><g transform="translate(531.25 573.64)"><path d="m0 0 50.007-7.087c1.89-0.268 2.706 2.622 0.797 2.893l-50.007 7.087c-1.891 0.268-2.706-2.622-0.797-2.893" fill="#231f20"/></g><g transform="translate(666.69 569)"><path d="m0 0z" fill="none" stroke="#231f20" stroke-dasharray="2" stroke-miterlimit="10" stroke-width=".5"/></g><g transform="translate(673.78 569)"><path d="m0 0c0-3.914-3.172-7.087-7.086-7.087s-7.088 3.173-7.088 7.087 3.174 7.086 7.088 7.086 7.086-3.172 7.086-7.086" fill="#006838"/></g><g transform="translate(673.78 569)"><path d="m0 0c0-3.914-3.172-7.087-7.086-7.087s-7.088 3.173-7.088 7.087 3.174 7.086 7.088 7.086 7.086-3.172 7.086-7.086z" fill="none" stroke="#231f20" stroke-miterlimit="10" stroke-width=".5"/></g><g transform="translate(673.78 483.96)"><path d="m0 0c0-3.914-3.172-7.087-7.086-7.087s-7.088 3.173-7.088 7.087 3.174 7.086 7.088 7.086 7.086-3.172 7.086-7.086" fill="#bf1e2d"/></g><g transform="translate(673.78 483.96)"><path d="m0 0c0-3.914-3.172-7.087-7.086-7.087s-7.088 3.173-7.088 7.087 3.174 7.086 7.088 7.086 7.086-3.172 7.086-7.086z" fill="none" stroke="#231f20" stroke-miterlimit="10" stroke-width=".5"/></g><g transform="translate(666.69 569)"><path d="m0 0-47.995-14.033" fill="#231f20"/></g><g transform="translate(666.29 570.45)"><path d="m0 0c-15.999-4.678-31.997-9.355-47.995-14.033-1.854-0.542-1.065-3.437 0.797-2.893 15.999 4.678 31.997 9.356 47.995 14.033 1.853 0.542 1.064 3.437-0.797 2.893" fill="#231f20"/></g><g transform="translate(667.75 482.9)"><path d="m0 0c11.887 11.68 23.773 23.359 35.66 35.04 1.382 1.357-0.74 3.477-2.121 2.121-11.887-11.68-23.773-23.36-35.66-35.04-1.382-1.357 0.74-3.477 2.121-2.121" fill="#231f20"/></g><g transform="translate(583.1 484.36)"><path d="m0 0c-5.036 15.891-10.072 31.782-15.108 47.674-0.582 1.837-3.479 1.052-2.893-0.798 5.036-15.891 10.072-31.782 15.108-47.674 0.582-1.837 3.479-1.052 2.893 0.798" fill="#231f20"/></g><g transform="translate(460.16 398.92)"><path d="m0 0c0-27.614-22.386-50-50-50s-50 22.386-50 50 22.386 50 50 50 50-22.386 50-50z" fill="none" stroke="#231f20" stroke-dasharray="1.988, 1.988" stroke-miterlimit="10" stroke-width=".5"/></g><g transform="translate(545.2 398.92)"><path d="m0 0c0-27.614-22.387-50-50-50-27.615 0-50 22.386-50 50s22.385 50 50 50c27.613 0 50-22.386 50-50z" fill="none" stroke="#231f20" stroke-dasharray="1.988, 1.988" stroke-miterlimit="10" stroke-width=".5"/></g><g transform="translate(460.16 313.88)"><path d="m0 0c0-27.614-22.386-50-50-50s-50 22.386-50 50 22.386 50 50 50 50-22.386 50-50z" fill="none" stroke="#231f20" stroke-dasharray="1.988, 1.988" stroke-miterlimit="10" stroke-width=".5"/></g><g transform="translate(545.2 313.88)"><path d="m0 0c0-27.614-22.387-50-50-50-27.615 0-50 22.386-50 50s22.385 50 50 50c27.613 0 50-22.386 50-50z" fill="none" stroke="#231f20" stroke-dasharray="1.988, 1.988" stroke-miterlimit="10" stroke-width=".5"/></g><g transform="translate(410.16 398.92)"><path d="m0 0z" fill="none" stroke="#231f20" stroke-dasharray="2" stroke-miterlimit="10" stroke-width=".5"/></g><g transform="translate(417.24 398.92)"><path d="m0 0c0-3.914-3.174-7.087-7.088-7.087-3.913 0-7.086 3.173-7.086 7.087s3.173 7.086 7.086 7.086c3.914 0 7.088-3.172 7.088-7.086" fill="#bf1e2d"/></g><g transform="translate(417.24 398.92)"><path d="m0 0c0-3.914-3.174-7.087-7.088-7.087-3.913 0-7.086 3.173-7.086 7.087s3.173 7.086 7.086 7.086c3.914 0 7.088-3.172 7.088-7.086z" fill="none" stroke="#231f20" stroke-miterlimit="10" stroke-width=".5"/></g><g transform="translate(417.24 313.88)"><path d="m0 0c0-3.914-3.174-7.086-7.088-7.086-3.913 0-7.086 3.172-7.086 7.086s3.173 7.087 7.086 7.087c3.914 0 7.088-3.173 7.088-7.087" fill="#006838"/></g><g transform="translate(417.24 313.88)"><path d="m0 0c0-3.914-3.174-7.086-7.088-7.086-3.913 0-7.086 3.172-7.086 7.086s3.173 7.087 7.086 7.087c3.914 0 7.088-3.173 7.088-7.087z" fill="none" stroke="#231f20" stroke-miterlimit="10" stroke-width=".5"/></g><g transform="translate(409.76 397.48)"><path d="m0 0c16.669-2.362 33.338-4.725 50.008-7.087 1.89-0.268 2.706 2.622 0.797 2.893-16.669 2.362-33.338 4.724-50.008 7.087-1.891 0.268-2.706-2.622-0.797-2.893" fill="#231f20"/></g><g transform="translate(495.2 398.92)"><path d="m0 0z" fill="none" stroke="#231f20" stroke-dasharray="2" stroke-miterlimit="10" stroke-width=".5"/></g><g transform="translate(502.28 398.92)"><path d="m0 0c0-3.914-3.173-7.087-7.087-7.087-3.913 0-7.087 3.173-7.087 7.087s3.174 7.086 7.087 7.086c3.914 0 7.087-3.172 7.087-7.086" fill="#006838"/></g><g transform="translate(502.28 398.92)"><path d="m0 0c0-3.914-3.173-7.087-7.087-7.087-3.913 0-7.087 3.173-7.087 7.087s3.174 7.086 7.087 7.086c3.914 0 7.087-3.172 7.087-7.086z" fill="none" stroke="#231f20" stroke-miterlimit="10" stroke-width=".5"/></g><g transform="translate(502.28 313.88)"><path d="m0 0c0-3.914-3.173-7.086-7.087-7.086-3.913 0-7.087 3.172-7.087 7.086s3.174 7.087 7.087 7.087c3.914 0 7.087-3.173 7.087-7.087" fill="#bf1e2d"/></g><g transform="translate(502.28 313.88)"><path d="m0 0c0-3.914-3.173-7.086-7.087-7.086-3.913 0-7.087 3.172-7.087 7.086s3.174 7.087 7.087 7.087c3.914 0 7.087-3.173 7.087-7.087z" fill="none" stroke="#231f20" stroke-miterlimit="10" stroke-width=".5"/></g><g transform="translate(495.2 398.92)"><path d="m0 0-46.023-19.57" fill="#231f20"/></g><g transform="translate(494.44 400.22)"><path d="m0 0c-15.342-6.523-30.683-13.047-46.023-19.57-1.776-0.755-0.246-3.339 1.513-2.591 15.342 6.523 30.683 13.047 46.024 19.57 1.775 0.755 0.245 3.339-1.514 2.591" fill="#231f20"/></g><g transform="translate(496.26 312.82)"><path d="m0 0c11.887 11.68 23.773 23.359 35.659 35.04 1.382 1.357-0.741 3.477-2.121 2.121-11.887-11.68-23.772-23.36-35.659-35.04-1.382-1.357 0.741-3.477 2.121-2.121" fill="#231f20"/></g><g transform="translate(411.6 314.28)"><path d="m0 0c-5.036 15.892-10.072 31.783-15.108 47.674-0.582 1.837-3.479 1.052-2.893-0.798l15.108-47.673c0.582-1.838 3.479-1.052 2.893 0.797" fill="#231f20"/></g><g transform="translate(631.65 398.92)"><path d="m0 0c0-27.614-22.387-50-50.001-50s-50 22.386-50 50 22.386 50 50 50 50.001-22.386 50.001-50z" fill="none" stroke="#231f20" stroke-dasharray="1.988, 1.988" stroke-miterlimit="10" stroke-width=".5"/></g><g transform="translate(716.69 398.92)"><path d="m0 0c0-27.614-22.387-50-50-50-27.615 0-50 22.386-50 50s22.385 50 50 50c27.613 0 50-22.386 50-50z" fill="none" stroke="#231f20" stroke-dasharray="1.988, 1.988" stroke-miterlimit="10" stroke-width=".5"/></g><g transform="translate(631.65 313.88)"><path d="m0 0c0-27.614-22.387-50-50.001-50s-50 22.386-50 50 22.386 50 50 50 50.001-22.386 50.001-50z" fill="none" stroke="#231f20" stroke-dasharray="1.988, 1.988" stroke-miterlimit="10" stroke-width=".5"/></g><g transform="translate(716.69 313.88)"><path d="m0 0c0-27.614-22.387-50-50-50-27.615 0-50 22.386-50 50s22.385 50 50 50c27.613 0 50-22.386 50-50z" fill="none" stroke="#231f20" stroke-dasharray="1.988, 1.988" stroke-miterlimit="10" stroke-width=".5"/></g><g transform="translate(581.65 398.92)"><path d="m0 0z" fill="none" stroke="#231f20" stroke-dasharray="2" stroke-miterlimit="10" stroke-width=".5"/></g><g transform="translate(588.74 398.92)"><path d="m0 0c0-3.914-3.174-7.087-7.088-7.087-3.913 0-7.086 3.173-7.086 7.087s3.173 7.086 7.086 7.086c3.914 0 7.088-3.172 7.088-7.086" fill="#bf1e2d"/></g><g transform="translate(588.74 398.92)"><path d="m0 0c0-3.914-3.174-7.087-7.088-7.087-3.913 0-7.086 3.173-7.086 7.087s3.173 7.086 7.086 7.086c3.914 0 7.088-3.172 7.088-7.086z" fill="none" stroke="#231f20" stroke-miterlimit="10" stroke-width=".5"/></g><g transform="translate(588.74 313.88)"><path d="m0 0c0-3.914-3.174-7.086-7.088-7.086-3.913 0-7.086 3.172-7.086 7.086s3.173 7.087 7.086 7.087c3.914 0 7.088-3.173 7.088-7.087" fill="#006838"/></g><g transform="translate(588.74 313.88)"><path d="m0 0c0-3.914-3.174-7.086-7.088-7.086-3.913 0-7.086 3.172-7.086 7.086s3.173 7.087 7.086 7.087c3.914 0 7.088-3.173 7.088-7.087z" fill="none" stroke="#231f20" stroke-miterlimit="10" stroke-width=".5"/></g><g transform="translate(531.25 403.56)"><path d="m0 0 50.007-7.087c1.89-0.268 2.706 2.622 0.797 2.893l-50.007 7.087c-1.891 0.268-2.706-2.622-0.797-2.893" fill="#231f20"/></g><g transform="translate(666.69 398.92)"><path d="m0 0z" fill="none" stroke="#231f20" stroke-dasharray="2" stroke-miterlimit="10" stroke-width=".5"/></g><g transform="translate(673.78 398.92)"><path d="m0 0c0-3.914-3.172-7.087-7.086-7.087s-7.088 3.173-7.088 7.087 3.174 7.086 7.088 7.086 7.086-3.172 7.086-7.086" fill="#006838"/></g><g transform="translate(673.78 398.92)"><path d="m0 0c0-3.914-3.172-7.087-7.086-7.087s-7.088 3.173-7.088 7.087 3.174 7.086 7.088 7.086 7.086-3.172 7.086-7.086z" fill="none" stroke="#231f20" stroke-miterlimit="10" stroke-width=".5"/></g><g transform="translate(673.78 313.88)"><path d="m0 0c0-3.914-3.172-7.086-7.086-7.086s-7.088 3.172-7.088 7.086 3.174 7.087 7.088 7.087 7.086-3.173 7.086-7.087" fill="#bf1e2d"/></g><g transform="translate(673.78 313.88)"><path d="m0 0c0-3.914-3.172-7.086-7.086-7.086s-7.088 3.172-7.088 7.086 3.174 7.087 7.088 7.087 7.086-3.173 7.086-7.087z" fill="none" stroke="#231f20" stroke-miterlimit="10" stroke-width=".5"/></g><g transform="translate(666.69 398.92)"><path d="m0 0-47.995-14.033" fill="#231f20"/></g><g transform="translate(666.29 400.37)"><path d="m0 0c-15.999-4.678-31.997-9.355-47.995-14.033-1.854-0.542-1.065-3.437 0.797-2.893 15.999 4.678 31.997 9.356 47.995 14.033 1.853 0.542 1.064 3.437-0.797 2.893" fill="#231f20"/></g><g transform="translate(667.75 312.82)"><path d="m0 0c11.887 11.68 23.773 23.359 35.66 35.04 1.382 1.357-0.74 3.477-2.121 2.121-11.887-11.68-23.773-23.36-35.66-35.04-1.382-1.357 0.74-3.477 2.121-2.121" fill="#231f20"/></g><g transform="translate(583.1 314.28)"><path d="m0 0c-5.036 15.892-10.072 31.783-15.108 47.674-0.582 1.837-3.479 1.052-2.893-0.798l15.108-47.673c0.582-1.838 3.479-1.052 2.893 0.797" fill="#231f20"/></g><g transform="translate(460.16 228.84)"><path d="m0 0c0-27.614-22.386-50-50-50s-50 22.386-50 50 22.386 50 50 50 50-22.386 50-50z" fill="none" stroke="#231f20" stroke-dasharray="1.988, 1.988" stroke-miterlimit="10" stroke-width=".5"/></g><g transform="translate(545.2 228.84)"><path d="m0 0c0-27.614-22.387-50-50-50-27.615 0-50 22.386-50 50s22.385 50 50 50c27.613 0 50-22.386 50-50z" fill="none" stroke="#231f20" stroke-dasharray="1.988, 1.988" stroke-miterlimit="10" stroke-width=".5"/></g><g transform="translate(460.16 143.8)"><path d="m0 0c0-27.614-22.386-50-50-50s-50 22.386-50 50 22.386 50 50 50 50-22.386 50-50z" fill="none" stroke="#231f20" stroke-dasharray="1.988, 1.988" stroke-miterlimit="10" stroke-width=".5"/></g><g transform="translate(545.2 143.8)"><path d="m0 0c0-27.614-22.387-50-50-50-27.615 0-50 22.386-50 50s22.385 50 50 50c27.613 0 50-22.386 50-50z" fill="none" stroke="#231f20" stroke-dasharray="1.988, 1.988" stroke-miterlimit="10" stroke-width=".5"/></g><g transform="translate(410.16 228.84)"><path d="m0 0z" fill="none" stroke="#231f20" stroke-dasharray="2" stroke-miterlimit="10" stroke-width=".5"/></g><g transform="translate(417.24 228.84)"><path d="m0 0c0-3.914-3.174-7.087-7.088-7.087-3.913 0-7.086 3.173-7.086 7.087 0 3.913 3.173 7.086 7.086 7.086 3.914 0 7.088-3.173 7.088-7.086" fill="#bf1e2d"/></g><g transform="translate(417.24 228.84)"><path d="m0 0c0-3.914-3.174-7.087-7.088-7.087-3.913 0-7.086 3.173-7.086 7.087 0 3.913 3.173 7.086 7.086 7.086 3.914 0 7.088-3.173 7.088-7.086z" fill="none" stroke="#231f20" stroke-miterlimit="10" stroke-width=".5"/></g><g transform="translate(417.24 143.8)"><path d="m0 0c0-3.914-3.174-7.087-7.088-7.087-3.913 0-7.086 3.173-7.086 7.087 0 3.913 3.173 7.086 7.086 7.086 3.914 0 7.088-3.173 7.088-7.086" fill="#006838"/></g><g transform="translate(417.24 143.8)"><path d="m0 0c0-3.914-3.174-7.087-7.088-7.087-3.913 0-7.086 3.173-7.086 7.087 0 3.913 3.173 7.086 7.086 7.086 3.914 0 7.088-3.173 7.088-7.086z" fill="none" stroke="#231f20" stroke-miterlimit="10" stroke-width=".5"/></g><g transform="translate(409.76 227.4)"><path d="m0 0c16.669-2.362 33.338-4.725 50.008-7.087 1.89-0.268 2.706 2.622 0.797 2.893-16.669 2.362-33.338 4.724-50.008 7.087-1.891 0.268-2.706-2.622-0.797-2.893" fill="#231f20"/></g><g transform="translate(495.2 228.84)"><path d="m0 0z" fill="none" stroke="#231f20" stroke-dasharray="2" stroke-miterlimit="10" stroke-width=".5"/></g><g transform="translate(502.28 228.84)"><path d="m0 0c0-3.914-3.173-7.087-7.087-7.087-3.913 0-7.087 3.173-7.087 7.087 0 3.913 3.174 7.086 7.087 7.086 3.914 0 7.087-3.173 7.087-7.086" fill="#006838"/></g><g transform="translate(502.28 228.84)"><path d="m0 0c0-3.914-3.173-7.087-7.087-7.087-3.913 0-7.087 3.173-7.087 7.087 0 3.913 3.174 7.086 7.087 7.086 3.914 0 7.087-3.173 7.087-7.086z" fill="none" stroke="#231f20" stroke-miterlimit="10" stroke-width=".5"/></g><g transform="translate(502.28 143.8)"><path d="m0 0c0-3.914-3.173-7.087-7.087-7.087-3.913 0-7.087 3.173-7.087 7.087 0 3.913 3.174 7.086 7.087 7.086 3.914 0 7.087-3.173 7.087-7.086" fill="#bf1e2d"/></g><g transform="translate(502.28 143.8)"><path d="m0 0c0-3.914-3.173-7.087-7.087-7.087-3.913 0-7.087 3.173-7.087 7.087 0 3.913 3.174 7.086 7.087 7.086 3.914 0 7.087-3.173 7.087-7.086z" fill="none" stroke="#231f20" stroke-miterlimit="10" stroke-width=".5"/></g><g transform="translate(495.2 228.84)"><path d="m0 0-46.023-19.57" fill="#231f20"/></g><g transform="translate(494.44 230.14)"><path d="m0 0c-15.342-6.523-30.683-13.047-46.023-19.57-1.776-0.755-0.246-3.338 1.513-2.59 15.342 6.523 30.683 13.047 46.024 19.57 1.775 0.755 0.245 3.338-1.514 2.59" fill="#231f20"/></g><g transform="translate(496.26 142.74)"><path d="m0 0c11.887 11.68 23.773 23.36 35.659 35.04 1.382 1.357-0.741 3.478-2.121 2.121-11.887-11.68-23.772-23.36-35.659-35.04-1.382-1.357 0.741-3.477 2.121-2.121" fill="#231f20"/></g><g transform="translate(411.6 144.2)"><path d="m0 0c-5.036 15.892-10.072 31.783-15.108 47.674-0.582 1.838-3.479 1.053-2.893-0.797 5.036-15.892 10.072-31.783 15.108-47.674 0.582-1.838 3.479-1.053 2.893 0.797" fill="#231f20"/></g><g transform="translate(631.65 228.84)"><path d="m0 0c0-27.614-22.387-50-50.001-50s-50 22.386-50 50 22.386 50 50 50 50.001-22.386 50.001-50z" fill="none" stroke="#231f20" stroke-dasharray="1.988, 1.988" stroke-miterlimit="10" stroke-width=".5"/></g><g transform="translate(716.69 228.84)"><path d="m0 0c0-27.614-22.387-50-50-50-27.615 0-50 22.386-50 50s22.385 50 50 50c27.613 0 50-22.386 50-50z" fill="none" stroke="#231f20" stroke-dasharray="1.988, 1.988" stroke-miterlimit="10" stroke-width=".5"/></g><g transform="translate(631.65 143.8)"><path d="m0 0c0-27.614-22.387-50-50.001-50s-50 22.386-50 50 22.386 50 50 50 50.001-22.386 50.001-50z" fill="none" stroke="#231f20" stroke-dasharray="1.988, 1.988" stroke-miterlimit="10" stroke-width=".5"/></g><g transform="translate(716.69 143.8)"><path d="m0 0c0-27.614-22.387-50-50-50-27.615 0-50 22.386-50 50s22.385 50 50 50c27.613 0 50-22.386 50-50z" fill="none" stroke="#231f20" stroke-dasharray="1.988, 1.988" stroke-miterlimit="10" stroke-width=".5"/></g><g transform="translate(581.65 228.84)"><path d="m0 0z" fill="none" stroke="#231f20" stroke-dasharray="2" stroke-miterlimit="10" stroke-width=".5"/></g><g transform="translate(588.74 228.84)"><path d="m0 0c0-3.914-3.174-7.087-7.088-7.087-3.913 0-7.086 3.173-7.086 7.087 0 3.913 3.173 7.086 7.086 7.086 3.914 0 7.088-3.173 7.088-7.086" fill="#bf1e2d"/></g><g transform="translate(588.74 228.84)"><path d="m0 0c0-3.914-3.174-7.087-7.088-7.087-3.913 0-7.086 3.173-7.086 7.087 0 3.913 3.173 7.086 7.086 7.086 3.914 0 7.088-3.173 7.088-7.086z" fill="none" stroke="#231f20" stroke-miterlimit="10" stroke-width=".5"/></g><g transform="translate(588.74 143.8)"><path d="m0 0c0-3.914-3.174-7.087-7.088-7.087-3.913 0-7.086 3.173-7.086 7.087 0 3.913 3.173 7.086 7.086 7.086 3.914 0 7.088-3.173 7.088-7.086" fill="#006838"/></g><g transform="translate(588.74 143.8)"><path d="m0 0c0-3.914-3.174-7.087-7.088-7.087-3.913 0-7.086 3.173-7.086 7.087 0 3.913 3.173 7.086 7.086 7.086 3.914 0 7.088-3.173 7.088-7.086z" fill="none" stroke="#231f20" stroke-miterlimit="10" stroke-width=".5"/></g><g transform="translate(531.25 233.49)"><path d="m0 0 50.007-7.087c1.89-0.268 2.706 2.622 0.797 2.893l-50.007 7.087c-1.891 0.268-2.706-2.622-0.797-2.893" fill="#231f20"/></g><g transform="translate(666.69 228.84)"><path d="m0 0z" fill="none" stroke="#231f20" stroke-dasharray="2" stroke-miterlimit="10" stroke-width=".5"/></g><g transform="translate(673.78 228.84)"><path d="m0 0c0-3.914-3.172-7.087-7.086-7.087s-7.088 3.173-7.088 7.087c0 3.913 3.174 7.086 7.088 7.086s7.086-3.173 7.086-7.086" fill="#006838"/></g><g transform="translate(673.78 228.84)"><path d="m0 0c0-3.914-3.172-7.087-7.086-7.087s-7.088 3.173-7.088 7.087c0 3.913 3.174 7.086 7.088 7.086s7.086-3.173 7.086-7.086z" fill="none" stroke="#231f20" stroke-miterlimit="10" stroke-width=".5"/></g><g transform="translate(673.78 143.8)"><path d="m0 0c0-3.914-3.172-7.087-7.086-7.087s-7.088 3.173-7.088 7.087c0 3.913 3.174 7.086 7.088 7.086s7.086-3.173 7.086-7.086" fill="#bf1e2d"/></g><g transform="translate(673.78 143.8)"><path d="m0 0c0-3.914-3.172-7.087-7.086-7.087s-7.088 3.173-7.088 7.087c0 3.913 3.174 7.086 7.088 7.086s7.086-3.173 7.086-7.086z" fill="none" stroke="#231f20" stroke-miterlimit="10" stroke-width=".5"/></g><g transform="translate(666.69 228.84)"><path d="m0 0-47.995-14.033" fill="#231f20"/></g><g transform="translate(666.29 230.29)"><path d="m0 0c-15.999-4.678-31.997-9.355-47.995-14.033-1.854-0.542-1.065-3.437 0.797-2.893 15.999 4.678 31.997 9.356 47.995 14.033 1.853 0.542 1.064 3.437-0.797 2.893" fill="#231f20"/></g><g transform="translate(667.75 142.74)"><path d="m0 0c11.887 11.68 23.773 23.36 35.66 35.04 1.382 1.357-0.741 3.478-2.121 2.121-11.887-11.68-23.773-23.36-35.66-35.04-1.382-1.357 0.741-3.477 2.121-2.121" fill="#231f20"/></g><g transform="translate(583.1 144.2)"><path d="m0 0c-5.036 15.892-10.072 31.783-15.108 47.674-0.582 1.838-3.479 1.053-2.893-0.797 5.036-15.892 10.072-31.783 15.108-47.674 0.582-1.838 3.479-1.053 2.893 0.797" fill="#231f20"/></g><g transform="translate(460.16 58.764)"><path d="m0 0c0-27.614-22.386-49.999-50-49.999s-50 22.385-50 49.999 22.386 50 50 50 50-22.386 50-50z" fill="none" stroke="#231f20" stroke-dasharray="1.988, 1.988" stroke-miterlimit="10" stroke-width=".5"/></g><g transform="translate(545.2 58.764)"><path d="m0 0c0-27.614-22.387-49.999-50-49.999-27.615 0-50 22.385-50 49.999s22.385 50 50 50c27.613 0 50-22.386 50-50z" fill="none" stroke="#231f20" stroke-dasharray="1.988, 1.988" stroke-miterlimit="10" stroke-width=".5"/></g><g transform="translate(410.16 58.764)"><path d="m0 0z" fill="none" stroke="#231f20" stroke-dasharray="2" stroke-miterlimit="10" stroke-width=".5"/></g><g transform="translate(417.24 58.764)"><path d="m0 0c0-3.914-3.174-7.087-7.088-7.087-3.913 0-7.086 3.173-7.086 7.087s3.173 7.087 7.086 7.087c3.914 0 7.088-3.173 7.088-7.087" fill="#bf1e2d"/></g><g transform="translate(417.24 58.764)"><path d="m0 0c0-3.914-3.174-7.087-7.088-7.087-3.913 0-7.086 3.173-7.086 7.087s3.173 7.087 7.086 7.087c3.914 0 7.088-3.173 7.088-7.087z" fill="none" stroke="#231f20" stroke-miterlimit="10" stroke-width=".5"/></g><g transform="translate(409.76 57.317)"><path d="m0 0c16.669-2.362 33.338-4.725 50.008-7.087 1.89-0.268 2.706 2.622 0.797 2.893-16.669 2.362-33.338 4.724-50.008 7.087-1.891 0.268-2.706-2.622-0.797-2.893" fill="#231f20"/></g><g transform="translate(495.2 58.764)"><path d="m0 0z" fill="none" stroke="#231f20" stroke-dasharray="2" stroke-miterlimit="10" stroke-width=".5"/></g><g transform="translate(502.28 58.764)"><path d="m0 0c0-3.914-3.173-7.087-7.087-7.087-3.913 0-7.087 3.173-7.087 7.087s3.174 7.087 7.087 7.087c3.914 0 7.087-3.173 7.087-7.087" fill="#006838"/></g><g transform="translate(502.28 58.764)"><path d="m0 0c0-3.914-3.173-7.087-7.087-7.087-3.913 0-7.087 3.173-7.087 7.087s3.174 7.087 7.087 7.087c3.914 0 7.087-3.173 7.087-7.087z" fill="none" stroke="#231f20" stroke-miterlimit="10" stroke-width=".5"/></g><g transform="translate(495.2 58.764)"><path d="m0 0-46.023-19.569" fill="#231f20"/></g><g transform="translate(494.44 60.059)"><path d="m0 0c-15.342-6.522-30.683-13.046-46.023-19.569-1.776-0.755-0.246-3.338 1.513-2.59 15.342 6.522 30.683 13.046 46.024 19.569 1.775 0.755 0.245 3.338-1.514 2.59" fill="#231f20"/></g><g transform="translate(631.65 58.764)"><path d="m0 0c0-27.614-22.387-49.999-50.001-49.999s-50 22.385-50 49.999 22.386 50 50 50 50.001-22.386 50.001-50z" fill="none" stroke="#231f20" stroke-dasharray="1.988, 1.988" stroke-miterlimit="10" stroke-width=".5"/></g><g transform="translate(716.69 58.764)"><path d="m0 0c0-27.614-22.387-49.999-50-49.999-27.615 0-50 22.385-50 49.999s22.385 50 50 50c27.613 0 50-22.386 50-50z" fill="none" stroke="#231f20" stroke-dasharray="1.988, 1.988" stroke-miterlimit="10" stroke-width=".5"/></g><g transform="translate(581.65 58.764)"><path d="m0 0z" fill="none" stroke="#231f20" stroke-dasharray="2" stroke-miterlimit="10" stroke-width=".5"/></g><g transform="translate(588.74 58.764)"><path d="m0 0c0-3.914-3.174-7.087-7.088-7.087-3.913 0-7.086 3.173-7.086 7.087s3.173 7.087 7.086 7.087c3.914 0 7.088-3.173 7.088-7.087" fill="#bf1e2d"/></g><g transform="translate(588.74 58.764)"><path d="m0 0c0-3.914-3.174-7.087-7.088-7.087-3.913 0-7.086 3.173-7.086 7.087s3.173 7.087 7.086 7.087c3.914 0 7.088-3.173 7.088-7.087z" fill="none" stroke="#231f20" stroke-miterlimit="10" stroke-width=".5"/></g><g transform="translate(531.25 63.407)"><path d="m0 0 50.007-7.087c1.89-0.268 2.706 2.622 0.797 2.893l-50.007 7.087c-1.891 0.268-2.706-2.622-0.797-2.893" fill="#231f20"/></g><g transform="translate(666.69 58.764)"><path d="m0 0z" fill="none" stroke="#231f20" stroke-dasharray="2" stroke-miterlimit="10" stroke-width=".5"/></g><g transform="translate(673.78 58.764)"><path d="m0 0c0-3.914-3.172-7.087-7.086-7.087s-7.088 3.173-7.088 7.087 3.174 7.087 7.088 7.087 7.086-3.173 7.086-7.087" fill="#006838"/></g><g transform="translate(673.78 58.764)"><path d="m0 0c0-3.914-3.172-7.087-7.086-7.087s-7.088 3.173-7.088 7.087 3.174 7.087 7.088 7.087 7.086-3.173 7.086-7.087z" fill="none" stroke="#231f20" stroke-miterlimit="10" stroke-width=".5"/></g><g transform="translate(666.69 58.764)"><path d="m0 0-47.995-14.032" fill="#231f20"/></g><g transform="translate(666.29 60.21)"><path d="m0 0c-15.999-4.678-31.997-9.354-47.995-14.032-1.854-0.542-1.065-3.437 0.797-2.893 15.999 4.678 31.997 9.355 47.995 14.032 1.853 0.542 1.064 3.437-0.797 2.893" fill="#231f20"/></g><g transform="translate(800.32 569)"><path d="m0 0c0-27.614-22.386-50-50-50s-50 22.386-50 50 22.386 50 50 50 50-22.386 50-50z" fill="none" stroke="#231f20" stroke-dasharray="1.988, 1.988" stroke-miterlimit="10" stroke-width=".5"/></g><g transform="translate(885.36 569)"><path d="m0 0c0-27.614-22.387-50-50-50-27.615 0-50 22.386-50 50s22.385 50 50 50c27.613 0 50-22.386 50-50z" fill="none" stroke="#231f20" stroke-dasharray="1.988, 1.988" stroke-miterlimit="10" stroke-width=".5"/></g><g transform="translate(800.32 483.96)"><path d="m0 0c0-27.614-22.386-50-50-50s-50 22.386-50 50 22.386 50 50 50 50-22.386 50-50z" fill="none" stroke="#231f20" stroke-dasharray="1.988, 1.988" stroke-miterlimit="10" stroke-width=".5"/></g><g transform="translate(885.36 483.96)"><path d="m0 0c0-27.614-22.387-50-50-50-27.615 0-50 22.386-50 50s22.385 50 50 50c27.613 0 50-22.386 50-50z" fill="none" stroke="#231f20" stroke-dasharray="1.988, 1.988" stroke-miterlimit="10" stroke-width=".5"/></g><g transform="translate(750.32 569)"><path d="m0 0z" fill="none" stroke="#231f20" stroke-dasharray="2" stroke-miterlimit="10" stroke-width=".5"/></g><g transform="translate(757.4 569)"><path d="m0 0c0-3.914-3.174-7.087-7.088-7.087-3.913 0-7.086 3.173-7.086 7.087s3.173 7.086 7.086 7.086c3.914 0 7.088-3.172 7.088-7.086" fill="#bf1e2d"/></g><g transform="translate(757.4 569)"><path d="m0 0c0-3.914-3.174-7.087-7.088-7.087-3.913 0-7.086 3.173-7.086 7.087s3.173 7.086 7.086 7.086c3.914 0 7.088-3.172 7.088-7.086z" fill="none" stroke="#231f20" stroke-miterlimit="10" stroke-width=".5"/></g><g transform="translate(757.4 483.96)"><path d="m0 0c0-3.914-3.174-7.087-7.088-7.087-3.913 0-7.086 3.173-7.086 7.087s3.173 7.086 7.086 7.086c3.914 0 7.088-3.172 7.088-7.086" fill="#006838"/></g><g transform="translate(757.4 483.96)"><path d="m0 0c0-3.914-3.174-7.087-7.088-7.087-3.913 0-7.086 3.173-7.086 7.087s3.173 7.086 7.086 7.086c3.914 0 7.088-3.172 7.088-7.086z" fill="none" stroke="#231f20" stroke-miterlimit="10" stroke-width=".5"/></g><g transform="translate(749.92 567.55)"><path d="m0 0c16.669-2.362 33.338-4.725 50.008-7.087 1.89-0.268 2.706 2.622 0.797 2.893-16.669 2.362-33.338 4.724-50.008 7.087-1.891 0.268-2.706-2.622-0.797-2.893" fill="#231f20"/></g><g transform="translate(835.36 569)"><path d="m0 0z" fill="none" stroke="#231f20" stroke-dasharray="2" stroke-miterlimit="10" stroke-width=".5"/></g><g transform="translate(842.44 569)"><path d="m0 0c0-3.914-3.173-7.087-7.087-7.087-3.913 0-7.087 3.173-7.087 7.087s3.174 7.086 7.087 7.086c3.914 0 7.087-3.172 7.087-7.086" fill="#006838"/></g><g transform="translate(842.44 569)"><path d="m0 0c0-3.914-3.173-7.087-7.087-7.087-3.913 0-7.087 3.173-7.087 7.087s3.174 7.086 7.087 7.086c3.914 0 7.087-3.172 7.087-7.086z" fill="none" stroke="#231f20" stroke-miterlimit="10" stroke-width=".5"/></g><g transform="translate(842.44 483.96)"><path d="m0 0c0-3.914-3.173-7.087-7.087-7.087-3.913 0-7.087 3.173-7.087 7.087s3.174 7.086 7.087 7.086c3.914 0 7.087-3.172 7.087-7.086" fill="#bf1e2d"/></g><g transform="translate(842.44 483.96)"><path d="m0 0c0-3.914-3.173-7.087-7.087-7.087-3.913 0-7.087 3.173-7.087 7.087s3.174 7.086 7.087 7.086c3.914 0 7.087-3.172 7.087-7.086z" fill="none" stroke="#231f20" stroke-miterlimit="10" stroke-width=".5"/></g><g transform="translate(835.36 569)"><path d="m0 0-46.023-19.57" fill="#231f20"/></g><g transform="translate(834.6 570.29)"><path d="m0 0c-15.342-6.523-30.683-13.047-46.023-19.57-1.776-0.755-0.246-3.339 1.513-2.591 15.342 6.523 30.683 13.047 46.024 19.57 1.775 0.755 0.245 3.339-1.514 2.591" fill="#231f20"/></g><g transform="translate(836.42 482.9)"><path d="m0 0c11.887 11.68 23.773 23.359 35.659 35.04 1.382 1.357-0.741 3.477-2.121 2.121-11.887-11.68-23.772-23.36-35.659-35.04-1.382-1.357 0.741-3.477 2.121-2.121" fill="#231f20"/></g><g transform="translate(751.76 484.36)"><path d="m0 0c-5.036 15.891-10.072 31.782-15.108 47.674-0.582 1.837-3.479 1.052-2.893-0.798 5.036-15.891 10.072-31.782 15.108-47.674 0.582-1.837 3.479-1.052 2.893 0.798" fill="#231f20"/></g><g transform="translate(971.81 569)"><path d="m0 0c0-27.614-22.387-50-50.001-50s-50 22.386-50 50 22.386 50 50 50 50.001-22.386 50.001-50z" fill="none" stroke="#231f20" stroke-dasharray="1.988, 1.988" stroke-miterlimit="10" stroke-width=".5"/></g><g transform="translate(1056.9 569)"><path d="m0 0c0-27.614-22.387-50-50-50-27.615 0-50 22.386-50 50s22.385 50 50 50c27.613 0 50-22.386 50-50z" fill="none" stroke="#231f20" stroke-dasharray="1.988, 1.988" stroke-miterlimit="10" stroke-width=".5"/></g><g transform="translate(971.81 483.96)"><path d="m0 0c0-27.614-22.387-50-50.001-50s-50 22.386-50 50 22.386 50 50 50 50.001-22.386 50.001-50z" fill="none" stroke="#231f20" stroke-dasharray="1.988, 1.988" stroke-miterlimit="10" stroke-width=".5"/></g><g transform="translate(1056.9 483.96)"><path d="m0 0c0-27.614-22.387-50-50-50-27.615 0-50 22.386-50 50s22.385 50 50 50c27.613 0 50-22.386 50-50z" fill="none" stroke="#231f20" stroke-dasharray="1.988, 1.988" stroke-miterlimit="10" stroke-width=".5"/></g><g transform="translate(921.81 569)"><path d="m0 0z" fill="none" stroke="#231f20" stroke-dasharray="2" stroke-miterlimit="10" stroke-width=".5"/></g><g transform="translate(928.9 569)"><path d="m0 0c0-3.914-3.174-7.087-7.088-7.087-3.913 0-7.086 3.173-7.086 7.087s3.173 7.086 7.086 7.086c3.914 0 7.088-3.172 7.088-7.086" fill="#bf1e2d"/></g><g transform="translate(928.9 569)"><path d="m0 0c0-3.914-3.174-7.087-7.088-7.087-3.913 0-7.086 3.173-7.086 7.087s3.173 7.086 7.086 7.086c3.914 0 7.088-3.172 7.088-7.086z" fill="none" stroke="#231f20" stroke-miterlimit="10" stroke-width=".5"/></g><g transform="translate(928.9 483.96)"><path d="m0 0c0-3.914-3.174-7.087-7.088-7.087-3.913 0-7.086 3.173-7.086 7.087s3.173 7.086 7.086 7.086c3.914 0 7.088-3.172 7.088-7.086" fill="#006838"/></g><g transform="translate(928.9 483.96)"><path d="m0 0c0-3.914-3.174-7.087-7.088-7.087-3.913 0-7.086 3.173-7.086 7.087s3.173 7.086 7.086 7.086c3.914 0 7.088-3.172 7.088-7.086z" fill="none" stroke="#231f20" stroke-miterlimit="10" stroke-width=".5"/></g><g transform="translate(871.41 573.64)"><path d="m0 0 50.007-7.087c1.89-0.268 2.706 2.622 0.797 2.893l-50.007 7.087c-1.891 0.268-2.706-2.622-0.797-2.893" fill="#231f20"/></g><g transform="translate(1006.9 569)"><path d="m0 0z" fill="none" stroke="#231f20" stroke-dasharray="2" stroke-miterlimit="10" stroke-width=".5"/></g><g transform="translate(1013.9 569)"><path d="m0 0c0-3.914-3.172-7.087-7.086-7.087s-7.088 3.173-7.088 7.087 3.174 7.086 7.088 7.086 7.086-3.172 7.086-7.086" fill="#006838"/></g><g transform="translate(1013.9 569)"><path d="m0 0c0-3.914-3.172-7.087-7.086-7.087s-7.088 3.173-7.088 7.087 3.174 7.086 7.088 7.086 7.086-3.172 7.086-7.086z" fill="none" stroke="#231f20" stroke-miterlimit="10" stroke-width=".5"/></g><g transform="translate(1013.9 483.96)"><path d="m0 0c0-3.914-3.172-7.087-7.086-7.087s-7.088 3.173-7.088 7.087 3.174 7.086 7.088 7.086 7.086-3.172 7.086-7.086" fill="#bf1e2d"/></g><g transform="translate(1013.9 483.96)"><path d="m0 0c0-3.914-3.172-7.087-7.086-7.087s-7.088 3.173-7.088 7.087 3.174 7.086 7.088 7.086 7.086-3.172 7.086-7.086z" fill="none" stroke="#231f20" stroke-miterlimit="10" stroke-width=".5"/></g><g transform="translate(1006.9 569)"><path d="m0 0-47.995-14.033" fill="#231f20"/></g><g transform="translate(1006.5 570.45)"><path d="m0 0c-15.999-4.678-31.997-9.355-47.995-14.033-1.854-0.542-1.065-3.437 0.797-2.893 15.999 4.678 31.997 9.356 47.995 14.033 1.853 0.542 1.064 3.437-0.797 2.893" fill="#231f20"/></g><g transform="translate(1007.9 482.9)"><path d="m0 0c11.887 11.68 23.773 23.359 35.66 35.04 1.382 1.357-0.74 3.477-2.121 2.121-11.887-11.68-23.773-23.36-35.66-35.04-1.382-1.357 0.74-3.477 2.121-2.121" fill="#231f20"/></g><g transform="translate(923.26 484.36)"><path d="m0 0c-5.036 15.891-10.072 31.782-15.108 47.674-0.582 1.837-3.479 1.052-2.893-0.798 5.036-15.891 10.072-31.782 15.108-47.674 0.582-1.837 3.479-1.052 2.893 0.798" fill="#231f20"/></g><g transform="translate(800.32 398.92)"><path d="m0 0c0-27.614-22.386-50-50-50s-50 22.386-50 50 22.386 50 50 50 50-22.386 50-50z" fill="none" stroke="#231f20" stroke-dasharray="1.988, 1.988" stroke-miterlimit="10" stroke-width=".5"/></g><g transform="translate(885.36 398.92)"><path d="m0 0c0-27.614-22.387-50-50-50-27.615 0-50 22.386-50 50s22.385 50 50 50c27.613 0 50-22.386 50-50z" fill="none" stroke="#231f20" stroke-dasharray="1.988, 1.988" stroke-miterlimit="10" stroke-width=".5"/></g><g transform="translate(800.32 313.88)"><path d="m0 0c0-27.613-22.386-50-50-50s-50 22.387-50 50c0 27.615 22.386 50 50 50s50-22.385 50-50z" fill="none" stroke="#231f20" stroke-dasharray="1.988, 1.988" stroke-miterlimit="10" stroke-width=".5"/></g><g transform="translate(885.36 313.88)"><path d="m0 0c0-27.613-22.387-50-50-50-27.615 0-50 22.387-50 50 0 27.615 22.385 50 50 50 27.613 0 50-22.385 50-50z" fill="none" stroke="#231f20" stroke-dasharray="1.988, 1.988" stroke-miterlimit="10" stroke-width=".5"/></g><g transform="translate(750.32 398.92)"><path d="m0 0z" fill="none" stroke="#231f20" stroke-dasharray="2" stroke-miterlimit="10" stroke-width=".5"/></g><g transform="translate(757.4 398.92)"><path d="m0 0c0-3.914-3.174-7.087-7.088-7.087-3.913 0-7.086 3.173-7.086 7.087s3.173 7.086 7.086 7.086c3.914 0 7.088-3.172 7.088-7.086" fill="#bf1e2d"/></g><g transform="translate(757.4 398.92)"><path d="m0 0c0-3.914-3.174-7.087-7.088-7.087-3.913 0-7.086 3.173-7.086 7.087s3.173 7.086 7.086 7.086c3.914 0 7.088-3.172 7.088-7.086z" fill="none" stroke="#231f20" stroke-miterlimit="10" stroke-width=".5"/></g><g transform="translate(757.4 313.88)"><path d="m0 0c0-3.914-3.174-7.086-7.088-7.086-3.913 0-7.086 3.172-7.086 7.086s3.173 7.088 7.086 7.088c3.914 0 7.088-3.174 7.088-7.088" fill="#006838"/></g><g transform="translate(757.4 313.88)"><path d="m0 0c0-3.914-3.174-7.086-7.088-7.086-3.913 0-7.086 3.172-7.086 7.086s3.173 7.088 7.086 7.088c3.914 0 7.088-3.174 7.088-7.088z" fill="none" stroke="#231f20" stroke-miterlimit="10" stroke-width=".5"/></g><g transform="translate(749.92 397.47)"><path d="m0 0c16.669-2.362 33.338-4.725 50.008-7.087 1.89-0.268 2.706 2.622 0.797 2.893-16.669 2.362-33.338 4.724-50.008 7.087-1.891 0.268-2.706-2.622-0.797-2.893" fill="#231f20"/></g><g transform="translate(835.36 398.92)"><path d="m0 0z" fill="none" stroke="#231f20" stroke-dasharray="2" stroke-miterlimit="10" stroke-width=".5"/></g><g transform="translate(842.44 398.92)"><path d="m0 0c0-3.914-3.173-7.087-7.087-7.087-3.913 0-7.087 3.173-7.087 7.087s3.174 7.086 7.087 7.086c3.914 0 7.087-3.172 7.087-7.086" fill="#006838"/></g><g transform="translate(842.44 398.92)"><path d="m0 0c0-3.914-3.173-7.087-7.087-7.087-3.913 0-7.087 3.173-7.087 7.087s3.174 7.086 7.087 7.086c3.914 0 7.087-3.172 7.087-7.086z" fill="none" stroke="#231f20" stroke-miterlimit="10" stroke-width=".5"/></g><g transform="translate(842.44 313.88)"><path d="m0 0c0-3.914-3.173-7.086-7.087-7.086-3.913 0-7.087 3.172-7.087 7.086s3.174 7.088 7.087 7.088c3.914 0 7.087-3.174 7.087-7.088" fill="#bf1e2d"/></g><g transform="translate(842.44 313.88)"><path d="m0 0c0-3.914-3.173-7.086-7.087-7.086-3.913 0-7.087 3.172-7.087 7.086s3.174 7.088 7.087 7.088c3.914 0 7.087-3.174 7.087-7.088z" fill="none" stroke="#231f20" stroke-miterlimit="10" stroke-width=".5"/></g><g transform="translate(835.36 398.92)"><path d="m0 0-46.023-19.57" fill="#231f20"/></g><g transform="translate(834.6 400.22)"><path d="m0 0c-15.342-6.523-30.683-13.047-46.023-19.57-1.776-0.755-0.246-3.339 1.513-2.591 15.342 6.523 30.683 13.047 46.024 19.57 1.775 0.755 0.245 3.339-1.514 2.591" fill="#231f20"/></g><g transform="translate(836.42 312.82)"><path d="m0 0c11.887 11.68 23.773 23.36 35.659 35.04 1.382 1.357-0.741 3.478-2.121 2.121-11.887-11.68-23.772-23.36-35.659-35.04-1.382-1.357 0.741-3.477 2.121-2.121" fill="#231f20"/></g><g transform="translate(751.76 314.28)"><path d="m0 0-15.108 47.675c-0.582 1.837-3.479 1.052-2.893-0.798 5.036-15.891 10.072-31.783 15.108-47.674 0.582-1.838 3.479-1.053 2.893 0.797" fill="#231f20"/></g><g transform="translate(971.81 398.92)"><path d="m0 0c0-27.614-22.387-50-50.001-50s-50 22.386-50 50 22.386 50 50 50 50.001-22.386 50.001-50z" fill="none" stroke="#231f20" stroke-dasharray="1.988, 1.988" stroke-miterlimit="10" stroke-width=".5"/></g><g transform="translate(1056.9 398.92)"><path d="m0 0c0-27.614-22.387-50-50-50-27.615 0-50 22.386-50 50s22.385 50 50 50c27.613 0 50-22.386 50-50z" fill="none" stroke="#231f20" stroke-dasharray="1.988, 1.988" stroke-miterlimit="10" stroke-width=".5"/></g><g transform="translate(971.81 313.88)"><path d="m0 0c0-27.613-22.387-50-50.001-50s-50 22.387-50 50c0 27.615 22.386 50 50 50s50.001-22.385 50.001-50z" fill="none" stroke="#231f20" stroke-dasharray="1.988, 1.988" stroke-miterlimit="10" stroke-width=".5"/></g><g transform="translate(1056.9 313.88)"><path d="m0 0c0-27.613-22.387-50-50-50-27.615 0-50 22.387-50 50 0 27.615 22.385 50 50 50 27.613 0 50-22.385 50-50z" fill="none" stroke="#231f20" stroke-dasharray="1.988, 1.988" stroke-miterlimit="10" stroke-width=".5"/></g><g transform="translate(921.81 398.92)"><path d="m0 0z" fill="none" stroke="#231f20" stroke-dasharray="2" stroke-miterlimit="10" stroke-width=".5"/></g><g transform="translate(928.9 398.92)"><path d="m0 0c0-3.914-3.174-7.087-7.088-7.087-3.913 0-7.086 3.173-7.086 7.087s3.173 7.086 7.086 7.086c3.914 0 7.088-3.172 7.088-7.086" fill="#bf1e2d"/></g><g transform="translate(928.9 398.92)"><path d="m0 0c0-3.914-3.174-7.087-7.088-7.087-3.913 0-7.086 3.173-7.086 7.087s3.173 7.086 7.086 7.086c3.914 0 7.088-3.172 7.088-7.086z" fill="none" stroke="#231f20" stroke-miterlimit="10" stroke-width=".5"/></g><g transform="translate(928.9 313.88)"><path d="m0 0c0-3.914-3.174-7.086-7.088-7.086-3.913 0-7.086 3.172-7.086 7.086s3.173 7.088 7.086 7.088c3.914 0 7.088-3.174 7.088-7.088" fill="#006838"/></g><g transform="translate(928.9 313.88)"><path d="m0 0c0-3.914-3.174-7.086-7.088-7.086-3.913 0-7.086 3.172-7.086 7.086s3.173 7.088 7.086 7.088c3.914 0 7.088-3.174 7.088-7.088z" fill="none" stroke="#231f20" stroke-miterlimit="10" stroke-width=".5"/></g><g transform="translate(871.41 403.56)"><path d="m0 0 50.007-7.087c1.89-0.268 2.706 2.622 0.797 2.893l-50.007 7.087c-1.891 0.268-2.706-2.622-0.797-2.893" fill="#231f20"/></g><g transform="translate(1006.9 398.92)"><path d="m0 0z" fill="none" stroke="#231f20" stroke-dasharray="2" stroke-miterlimit="10" stroke-width=".5"/></g><g transform="translate(1013.9 398.92)"><path d="m0 0c0-3.914-3.172-7.087-7.086-7.087s-7.088 3.173-7.088 7.087 3.174 7.086 7.088 7.086 7.086-3.172 7.086-7.086" fill="#006838"/></g><g transform="translate(1013.9 398.92)"><path d="m0 0c0-3.914-3.172-7.087-7.086-7.087s-7.088 3.173-7.088 7.087 3.174 7.086 7.088 7.086 7.086-3.172 7.086-7.086z" fill="none" stroke="#231f20" stroke-miterlimit="10" stroke-width=".5"/></g><g transform="translate(1013.9 313.88)"><path d="m0 0c0-3.914-3.172-7.086-7.086-7.086s-7.088 3.172-7.088 7.086 3.174 7.088 7.088 7.088 7.086-3.174 7.086-7.088" fill="#bf1e2d"/></g><g transform="translate(1013.9 313.88)"><path d="m0 0c0-3.914-3.172-7.086-7.086-7.086s-7.088 3.172-7.088 7.086 3.174 7.088 7.088 7.088 7.086-3.174 7.086-7.088z" fill="none" stroke="#231f20" stroke-miterlimit="10" stroke-width=".5"/></g><g transform="translate(1006.9 398.92)"><path d="m0 0-47.995-14.033" fill="#231f20"/></g><g transform="translate(1006.5 400.37)"><path d="m0 0c-15.999-4.678-31.997-9.355-47.995-14.033-1.854-0.542-1.065-3.437 0.797-2.893 15.999 4.678 31.997 9.356 47.995 14.033 1.853 0.542 1.064 3.437-0.797 2.893" fill="#231f20"/></g><g transform="translate(1007.9 312.82)"><path d="m0 0c11.887 11.68 23.773 23.36 35.66 35.04 1.382 1.357-0.741 3.478-2.121 2.121-11.887-11.68-23.773-23.36-35.66-35.04-1.382-1.357 0.741-3.477 2.121-2.121" fill="#231f20"/></g><g transform="translate(923.26 314.28)"><path d="m0 0-15.108 47.675c-0.582 1.837-3.479 1.052-2.893-0.798 5.036-15.891 10.072-31.783 15.108-47.674 0.582-1.838 3.479-1.053 2.893 0.797" fill="#231f20"/></g><g transform="translate(800.32 228.84)"><path d="m0 0c0-27.613-22.386-50-50-50s-50 22.387-50 50c0 27.615 22.386 50 50 50s50-22.385 50-50z" fill="none" stroke="#231f20" stroke-dasharray="1.988, 1.988" stroke-miterlimit="10" stroke-width=".5"/></g><g transform="translate(885.36 228.84)"><path d="m0 0c0-27.613-22.387-50-50-50-27.615 0-50 22.387-50 50 0 27.615 22.385 50 50 50 27.613 0 50-22.385 50-50z" fill="none" stroke="#231f20" stroke-dasharray="1.988, 1.988" stroke-miterlimit="10" stroke-width=".5"/></g><g transform="translate(800.32 143.8)"><path d="m0 0c0-27.615-22.386-50-50-50s-50 22.385-50 50c0 27.613 22.386 50 50 50s50-22.387 50-50z" fill="none" stroke="#231f20" stroke-dasharray="1.988, 1.988" stroke-miterlimit="10" stroke-width=".5"/></g><g transform="translate(885.36 143.8)"><path d="m0 0c0-27.615-22.387-50-50-50-27.615 0-50 22.385-50 50 0 27.613 22.385 50 50 50 27.613 0 50-22.387 50-50z" fill="none" stroke="#231f20" stroke-dasharray="1.988, 1.988" stroke-miterlimit="10" stroke-width=".5"/></g><g transform="translate(750.32 228.84)"><path d="m0 0z" fill="none" stroke="#231f20" stroke-dasharray="2" stroke-miterlimit="10" stroke-width=".5"/></g><g transform="translate(757.4 228.84)"><path d="m0 0c0-3.914-3.174-7.086-7.088-7.086-3.913 0-7.086 3.172-7.086 7.086s3.173 7.086 7.086 7.086c3.914 0 7.088-3.172 7.088-7.086" fill="#bf1e2d"/></g><g transform="translate(757.4 228.84)"><path d="m0 0c0-3.914-3.174-7.086-7.088-7.086-3.913 0-7.086 3.172-7.086 7.086s3.173 7.086 7.086 7.086c3.914 0 7.088-3.172 7.088-7.086z" fill="none" stroke="#231f20" stroke-miterlimit="10" stroke-width=".5"/></g><g transform="translate(757.4 143.8)"><path d="m0 0c0-3.914-3.174-7.086-7.088-7.086-3.913 0-7.086 3.172-7.086 7.086s3.173 7.086 7.086 7.086c3.914 0 7.088-3.172 7.088-7.086" fill="#006838"/></g><g transform="translate(757.4 143.8)"><path d="m0 0c0-3.914-3.174-7.086-7.088-7.086-3.913 0-7.086 3.172-7.086 7.086s3.173 7.086 7.086 7.086c3.914 0 7.088-3.172 7.088-7.086z" fill="none" stroke="#231f20" stroke-miterlimit="10" stroke-width=".5"/></g><g transform="translate(749.92 227.4)"><path d="m0 0c16.669-2.362 33.338-4.724 50.008-7.086 1.89-0.268 2.706 2.622 0.797 2.893-16.669 2.362-33.338 4.723-50.008 7.086-1.891 0.268-2.706-2.622-0.797-2.893" fill="#231f20"/></g><g transform="translate(835.36 228.84)"><path d="m0 0z" fill="none" stroke="#231f20" stroke-dasharray="2" stroke-miterlimit="10" stroke-width=".5"/></g><g transform="translate(842.44 228.84)"><path d="m0 0c0-3.914-3.173-7.086-7.087-7.086-3.913 0-7.087 3.172-7.087 7.086s3.174 7.086 7.087 7.086c3.914 0 7.087-3.172 7.087-7.086" fill="#006838"/></g><g transform="translate(842.44 228.84)"><path d="m0 0c0-3.914-3.173-7.086-7.087-7.086-3.913 0-7.087 3.172-7.087 7.086s3.174 7.086 7.087 7.086c3.914 0 7.087-3.172 7.087-7.086z" fill="none" stroke="#231f20" stroke-miterlimit="10" stroke-width=".5"/></g><g transform="translate(842.44 143.8)"><path d="m0 0c0-3.914-3.173-7.086-7.087-7.086-3.913 0-7.087 3.172-7.087 7.086s3.174 7.086 7.087 7.086c3.914 0 7.087-3.172 7.087-7.086" fill="#bf1e2d"/></g><g transform="translate(842.44 143.8)"><path d="m0 0c0-3.914-3.173-7.086-7.087-7.086-3.913 0-7.087 3.172-7.087 7.086s3.174 7.086 7.087 7.086c3.914 0 7.087-3.172 7.087-7.086z" fill="none" stroke="#231f20" stroke-miterlimit="10" stroke-width=".5"/></g><g transform="translate(835.36 228.84)"><path d="m0 0-46.023-19.57" fill="#231f20"/></g><g transform="translate(834.6 230.14)"><path d="m0 0c-15.342-6.523-30.683-13.047-46.023-19.57-1.776-0.755-0.246-3.338 1.513-2.59 15.342 6.523 30.683 13.047 46.024 19.57 1.775 0.755 0.245 3.338-1.514 2.59" fill="#231f20"/></g><g transform="translate(836.42 142.74)"><path d="m 0,0 c 11.887,11.68 23.773,23.359 35.659,35.039 1.382,1.357 -0.741,3.478 -2.121,2.121 C 21.651,25.48 9.766,13.801 -2.121,2.121 -3.503,0.764 -1.38,-1.356 0,0" fill="#231f20"/></g><g transform="translate(751.76 144.2)"><path d="m0 0c-5.036 15.892-10.072 31.783-15.108 47.674-0.582 1.838-3.479 1.053-2.893-0.797 5.036-15.892 10.072-31.783 15.108-47.674 0.582-1.838 3.479-1.053 2.893 0.797" fill="#231f20"/></g><g transform="translate(971.81 228.84)"><path d="m0 0c0-27.613-22.387-50-50.001-50s-50 22.387-50 50c0 27.615 22.386 50 50 50s50.001-22.385 50.001-50z" fill="none" stroke="#231f20" stroke-dasharray="1.988, 1.988" stroke-miterlimit="10" stroke-width=".5"/></g><g transform="translate(1056.9 228.84)"><path d="m0 0c0-27.613-22.387-50-50-50-27.615 0-50 22.387-50 50 0 27.615 22.385 50 50 50 27.613 0 50-22.385 50-50z" fill="none" stroke="#231f20" stroke-dasharray="1.988, 1.988" stroke-miterlimit="10" stroke-width=".5"/></g><g transform="translate(971.81 143.8)"><path d="m0 0c0-27.615-22.387-50-50.001-50s-50 22.385-50 50c0 27.613 22.386 50 50 50s50.001-22.387 50.001-50z" fill="none" stroke="#231f20" stroke-dasharray="1.988, 1.988" stroke-miterlimit="10" stroke-width=".5"/></g><g transform="translate(1056.9 143.8)"><path d="m0 0c0-27.615-22.387-50-50-50-27.615 0-50 22.385-50 50 0 27.613 22.385 50 50 50 27.613 0 50-22.387 50-50z" fill="none" stroke="#231f20" stroke-dasharray="1.988, 1.988" stroke-miterlimit="10" stroke-width=".5"/></g><g transform="translate(921.81 228.84)"><path d="m0 0z" fill="none" stroke="#231f20" stroke-dasharray="2" stroke-miterlimit="10" stroke-width=".5"/></g><g transform="translate(928.9 228.84)"><path d="m0 0c0-3.914-3.174-7.086-7.088-7.086-3.913 0-7.086 3.172-7.086 7.086s3.173 7.086 7.086 7.086c3.914 0 7.088-3.172 7.088-7.086" fill="#bf1e2d"/></g><g transform="translate(928.9 228.84)"><path d="m0 0c0-3.914-3.174-7.086-7.088-7.086-3.913 0-7.086 3.172-7.086 7.086s3.173 7.086 7.086 7.086c3.914 0 7.088-3.172 7.088-7.086z" fill="none" stroke="#231f20" stroke-miterlimit="10" stroke-width=".5"/></g><g transform="translate(928.9 143.8)"><path d="m0 0c0-3.914-3.174-7.086-7.088-7.086-3.913 0-7.086 3.172-7.086 7.086s3.173 7.086 7.086 7.086c3.914 0 7.088-3.172 7.088-7.086" fill="#006838"/></g><g transform="translate(928.9 143.8)"><path d="m0 0c0-3.914-3.174-7.086-7.088-7.086-3.913 0-7.086 3.172-7.086 7.086s3.173 7.086 7.086 7.086c3.914 0 7.088-3.172 7.088-7.086z" fill="none" stroke="#231f20" stroke-miterlimit="10" stroke-width=".5"/></g><g transform="translate(871.41 233.49)"><path d="m0 0l50.007-7.086c1.89-0.268 2.706 2.622 0.797 2.893-16.669 2.362-33.338 4.723-50.007 7.086-1.891 0.268-2.706-2.622-0.797-2.893" fill="#231f20"/></g><g transform="translate(1006.9 228.84)"><path d="m0 0z" fill="none" stroke="#231f20" stroke-dasharray="2" stroke-miterlimit="10" stroke-width=".5"/></g><g transform="translate(1013.9 228.84)"><path d="m0 0c0-3.914-3.172-7.086-7.086-7.086s-7.088 3.172-7.088 7.086 3.174 7.086 7.088 7.086 7.086-3.172 7.086-7.086" fill="#006838"/></g><g transform="translate(1013.9 228.84)"><path d="m0 0c0-3.914-3.172-7.086-7.086-7.086s-7.088 3.172-7.088 7.086 3.174 7.086 7.088 7.086 7.086-3.172 7.086-7.086z" fill="none" stroke="#231f20" stroke-miterlimit="10" stroke-width=".5"/></g><g transform="translate(1013.9 143.8)"><path d="m0 0c0-3.914-3.172-7.086-7.086-7.086s-7.088 3.172-7.088 7.086 3.174 7.086 7.088 7.086 7.086-3.172 7.086-7.086" fill="#bf1e2d"/></g><g transform="translate(1013.9 143.8)"><path d="m0 0c0-3.914-3.172-7.086-7.086-7.086s-7.088 3.172-7.088 7.086 3.174 7.086 7.088 7.086 7.086-3.172 7.086-7.086z" fill="none" stroke="#231f20" stroke-miterlimit="10" stroke-width=".5"/></g><g transform="translate(1006.9 228.84)"><path d="m0 0-47.995-14.033" fill="#231f20"/></g><g transform="translate(1006.5 230.29)"><path d="m0 0c-15.999-4.678-31.997-9.355-47.995-14.033-1.854-0.542-1.065-3.437 0.797-2.893 15.999 4.678 31.997 9.356 47.995 14.033 1.853 0.542 1.064 3.437-0.797 2.893" fill="#231f20"/></g><g transform="translate(1007.9 142.74)"><path d="m0 0 35.66 35.039c1.382 1.357-0.74 3.478-2.121 2.121l-35.66-35.039c-1.382-1.357 0.74-3.477 2.121-2.121" fill="#231f20"/></g><g transform="translate(923.26 144.2)"><path d="m0 0c-5.036 15.892-10.072 31.783-15.108 47.674-0.582 1.838-3.479 1.053-2.893-0.797 5.036-15.892 10.072-31.783 15.108-47.674 0.582-1.838 3.479-1.053 2.893 0.797" fill="#231f20"/></g><g transform="translate(800.32 58.764)"><path d="m0 0c0-27.615-22.386-50-50-50s-50 22.385-50 50c0 27.613 22.386 50 50 50s50-22.387 50-50z" fill="none" stroke="#231f20" stroke-dasharray="1.988, 1.988" stroke-miterlimit="10" stroke-width=".5"/></g><g transform="translate(885.36 58.764)"><path d="m0 0c0-27.615-22.387-50-50-50-27.615 0-50 22.385-50 50 0 27.613 22.385 50 50 50 27.613 0 50-22.387 50-50z" fill="none" stroke="#231f20" stroke-dasharray="1.988, 1.988" stroke-miterlimit="10" stroke-width=".5"/></g><g transform="translate(750.32 58.764)"><path d="m0 0z" fill="none" stroke="#231f20" stroke-dasharray="2" stroke-miterlimit="10" stroke-width=".5"/></g><g transform="translate(757.4 58.764)"><path d="m0 0c0-3.914-3.174-7.088-7.088-7.088-3.913 0-7.086 3.174-7.086 7.088s3.173 7.086 7.086 7.086c3.914 0 7.088-3.172 7.088-7.086" fill="#bf1e2d"/></g><g transform="translate(757.4 58.764)"><path d="m0 0c0-3.914-3.174-7.088-7.088-7.088-3.913 0-7.086 3.174-7.086 7.088s3.173 7.086 7.086 7.086c3.914 0 7.088-3.172 7.088-7.086z" fill="none" stroke="#231f20" stroke-miterlimit="10" stroke-width=".5"/></g><g transform="translate(749.92 57.317)"><path d="m0 0c16.669-2.362 33.338-4.726 50.008-7.088 1.89-0.268 2.706 2.622 0.797 2.893-16.669 2.362-33.338 4.725-50.008 7.088-1.891 0.268-2.706-2.622-0.797-2.893" fill="#231f20"/></g><g transform="translate(835.36 58.764)"><path d="m0 0z" fill="none" stroke="#231f20" stroke-dasharray="2" stroke-miterlimit="10" stroke-width=".5"/></g><g transform="translate(842.44 58.764)"><path d="m0 0c0-3.914-3.173-7.088-7.087-7.088-3.913 0-7.087 3.174-7.087 7.088s3.174 7.086 7.087 7.086c3.914 0 7.087-3.172 7.087-7.086" fill="#006838"/></g><g transform="translate(842.44 58.764)"><path d="m0 0c0-3.914-3.173-7.088-7.087-7.088-3.913 0-7.087 3.174-7.087 7.088s3.174 7.086 7.087 7.086c3.914 0 7.087-3.172 7.087-7.086z" fill="none" stroke="#231f20" stroke-miterlimit="10" stroke-width=".5"/></g><g transform="translate(835.36 58.764)"><path d="m0 0-46.023-19.57" fill="#231f20"/></g><g transform="translate(834.6 60.059)"><path d="m0 0c-15.342-6.523-30.683-13.047-46.023-19.57-1.776-0.755-0.246-3.338 1.513-2.59 15.342 6.523 30.683 13.047 46.024 19.57 1.775 0.755 0.245 3.338-1.514 2.59" fill="#231f20"/></g><g transform="translate(971.81 58.764)"><path d="m0 0c0-27.615-22.387-50-50.001-50s-50 22.385-50 50c0 27.613 22.386 50 50 50s50.001-22.387 50.001-50z" fill="none" stroke="#231f20" stroke-dasharray="1.988, 1.988" stroke-miterlimit="10" stroke-width=".5"/></g><g transform="translate(1056.9 58.764)"><path d="m0 0c0-27.615-22.387-50-50-50-27.615 0-50 22.385-50 50 0 27.613 22.385 50 50 50 27.613 0 50-22.387 50-50z" fill="none" stroke="#231f20" stroke-dasharray="1.988, 1.988" stroke-miterlimit="10" stroke-width=".5"/></g><g transform="translate(921.81 58.764)"><path d="m0 0z" fill="none" stroke="#231f20" stroke-dasharray="2" stroke-miterlimit="10" stroke-width=".5"/></g><g transform="translate(928.9 58.764)"><path d="m0 0c0-3.914-3.174-7.088-7.088-7.088-3.913 0-7.086 3.174-7.086 7.088s3.173 7.086 7.086 7.086c3.914 0 7.088-3.172 7.088-7.086" fill="#bf1e2d"/></g><g transform="translate(928.9 58.764)"><path d="m0 0c0-3.914-3.174-7.088-7.088-7.088-3.913 0-7.086 3.174-7.086 7.088s3.173 7.086 7.086 7.086c3.914 0 7.088-3.172 7.088-7.086z" fill="none" stroke="#231f20" stroke-miterlimit="10" stroke-width=".5"/></g><g transform="translate(871.41 63.407)"><path d="m0 0c16.669-2.362 33.338-4.726 50.007-7.088 1.89-0.268 2.706 2.622 0.797 2.893-16.669 2.362-33.338 4.725-50.007 7.088-1.891 0.268-2.706-2.622-0.797-2.893" fill="#231f20"/></g><g transform="translate(1006.9 58.764)"><path d="m0 0z" fill="none" stroke="#231f20" stroke-dasharray="2" stroke-miterlimit="10" stroke-width=".5"/></g><g transform="translate(1013.9 58.764)"><path d="m0 0c0-3.914-3.172-7.088-7.086-7.088s-7.088 3.174-7.088 7.088 3.174 7.086 7.088 7.086 7.086-3.172 7.086-7.086" fill="#006838"/></g><g transform="translate(1013.9 58.764)"><path d="m0 0c0-3.914-3.172-7.088-7.086-7.088s-7.088 3.174-7.088 7.088 3.174 7.086 7.088 7.086 7.086-3.172 7.086-7.086z" fill="none" stroke="#231f20" stroke-miterlimit="10" stroke-width=".5"/></g><g transform="translate(1006.9 58.764)"><path d="m0 0-47.995-14.033" fill="#231f20"/></g><g transform="translate(1006.5 60.21)"><path d="m0 0c-15.999-4.678-31.997-9.355-47.995-14.033-1.854-0.542-1.065-3.437 0.797-2.893 15.999 4.678 31.997 9.356 47.995 14.033 1.853 0.542 1.064 3.437-0.797 2.893" fill="#231f20"/></g></g></g></svg>
