<?xml version="1.0" encoding="UTF-8"?>
<svg width="528.89" height="616.45" version="1.1" viewBox="0 0 528.88934 616.44531" xml:space="preserve" xmlns="http://www.w3.org/2000/svg"><defs><clipPath id="clipPath246"><path d="M 0,462.334 H 396.667 V 0 H 0 Z"/></clipPath><clipPath id="clipPath402"><path d="M 0,462.334 H 396.667 V 0 H 0 Z"/></clipPath><clipPath id="clipPath512"><path d="M 0,462.334 H 396.667 V 0 H 0 Z"/></clipPath></defs><g transform="matrix(1.3333 0 0 -1.3333 0 616.45)"><g clip-path="url(#clipPath246)"><g transform="translate(128.66 389.93)"><path d="m0 0c0-27.614-22.386-50-50-50s-50 22.386-50 50 22.386 50 50 50 50-22.386 50-50z" fill="none" stroke="#ec008c" stroke-dasharray="1.988, 1.988" stroke-miterlimit="10" stroke-width=".5"/></g><g transform="translate(213.7 389.93)"><path d="m0 0c0-27.614-22.387-50-50-50-27.615 0-50 22.386-50 50s22.385 50 50 50c27.613 0 50-22.386 50-50z" fill="none" stroke="#00a650" stroke-dasharray="1.988, 1.988" stroke-miterlimit="10" stroke-width=".5"/></g><g transform="translate(78.661 389.93)"><path d="m0 0z" fill="none" stroke="#ec008c" stroke-dasharray="2" stroke-miterlimit="10" stroke-width=".5"/></g><g transform="translate(85.748 389.93)"><path d="m0 0c0-3.914-3.174-7.087-7.088-7.087-3.913 0-7.086 3.173-7.086 7.087s3.173 7.086 7.086 7.086c3.914 0 7.088-3.172 7.088-7.086" fill="#bf1e2d"/></g><g transform="translate(85.748 389.93)"><path d="m0 0c0-3.914-3.174-7.087-7.088-7.087-3.913 0-7.086 3.173-7.086 7.087s3.173 7.086 7.086 7.086c3.914 0 7.088-3.172 7.088-7.086z" fill="none" stroke="#ec008c" stroke-miterlimit="10" stroke-width=".5"/></g><g transform="translate(78.262 388.48)"><path d="m0 0 50.007-7.087c1.891-0.268 2.706 2.622 0.798 2.893l-50.007 7.087c-1.892 0.268-2.706-2.622-0.798-2.893" fill="#ec008c"/></g><g transform="translate(163.7 389.93)"><path d="m0 0z" fill="none" stroke="#ec008c" stroke-dasharray="2" stroke-miterlimit="10" stroke-width=".5"/></g><g transform="translate(170.79 389.93)"><path d="m0 0c0-3.914-3.173-7.087-7.087-7.087-3.913 0-7.087 3.173-7.087 7.087s3.174 7.086 7.087 7.086c3.914 0 7.087-3.172 7.087-7.086" fill="#006838"/></g><g transform="translate(170.79 389.93)"><path d="m0 0c0-3.914-3.173-7.087-7.087-7.087-3.913 0-7.087 3.173-7.087 7.087s3.174 7.086 7.087 7.086c3.914 0 7.087-3.172 7.087-7.086z" fill="none" stroke="#00a650" stroke-miterlimit="10" stroke-width=".5"/></g><g transform="translate(270.51 411.21)"><path d="m0 0c0-3.914-3.173-7.087-7.087-7.087-3.913 0-7.087 3.173-7.087 7.087s3.174 7.086 7.087 7.086c3.914 0 7.087-3.172 7.087-7.086" fill="#231f20"/></g><g transform="translate(270.51 411.21)"><path d="m0 0c0-3.914-3.173-7.087-7.087-7.087-3.913 0-7.087 3.173-7.087 7.087s3.174 7.086 7.087 7.086c3.914 0 7.087-3.172 7.087-7.086z" fill="none" stroke="#00a650" stroke-miterlimit="10" stroke-width=".5"/></g><g transform="translate(289.33 396.65)"><path d="m0 0-31.447-13.372" fill="#231f20"/></g><g transform="translate(288.58 397.95)"><path d="m0 0c-10.482-4.458-20.964-8.915-31.446-13.372-1.776-0.755-0.245-3.338 1.513-2.591 10.483 4.458 20.965 8.915 31.448 13.372 1.775 0.755 0.244 3.339-1.515 2.591" fill="#231f20"/></g><g transform="translate(156.15 398.51)"><path d="m0 0c21.299 5.865 19.473-15.747 11.185-18.977" fill="none" stroke="#00a650" stroke-miterlimit="10"/></g><g transform="translate(167.55 379.64)"><path d="m0 0c0.746-0.479 1.303-1.627 1.51-2.462-1.086 0.945-2.392 1.691-3.832 1.955 1.205 0.817 2.02 2.088 2.67 3.374 0.125-0.916 0.142-2.056-0.348-2.867" fill="#00a650"/></g><g transform="translate(70.56 381.75)"><path d="m0 0c-7.501 20.779 14.188 20.635 18.051 12.623" fill="none" stroke="#ec008c" stroke-miterlimit="10"/></g><g transform="translate(88.486 394.59)"><path d="m0 0c0.42 0.781 1.521 1.425 2.338 1.696-0.859-1.156-1.5-2.516-1.652-3.973-0.908 1.138-2.239 1.853-3.571 2.401 0.904 0.194 2.039 0.301 2.885-0.124" fill="#ec008c"/></g><g transform="translate(128.66 244.98)"><path d="m0 0c0-27.614-22.387-50-50-50-27.615 0-50 22.386-50 50s22.385 50 50 50c27.613 0 50-22.386 50-50z" fill="none" stroke="#ec008c" stroke-dasharray="1.988, 1.988" stroke-miterlimit="10" stroke-width=".5"/></g><g transform="translate(213.7 244.98)"><path d="m0 0c0-27.614-22.386-50-50-50s-50 22.386-50 50 22.386 50 50 50 50-22.386 50-50z" fill="none" stroke="#00a650" stroke-dasharray="1.988, 1.988" stroke-miterlimit="10" stroke-width=".5"/></g><g transform="translate(78.662 244.98)"><path d="m0 0z" fill="none" stroke="#ec008c" stroke-dasharray="2" stroke-miterlimit="10" stroke-width=".5"/></g><g transform="translate(85.748 244.98)"><path d="m0 0c0-3.914-3.173-7.087-7.087-7.087-3.913 0-7.087 3.173-7.087 7.087s3.174 7.086 7.087 7.086c3.914 0 7.087-3.172 7.087-7.086" fill="#bf1e2d"/></g><g transform="translate(85.748 244.98)"><path d="m0 0c0-3.914-3.173-7.087-7.087-7.087-3.913 0-7.087 3.173-7.087 7.087s3.174 7.086 7.087 7.086c3.914 0 7.087-3.172 7.087-7.086z" fill="none" stroke="#ec008c" stroke-miterlimit="10" stroke-width=".5"/></g><g transform="translate(78.262 243.53)"><path d="m0 0 50.007-7.087c1.891-0.268 2.706 2.622 0.798 2.893l-50.007 7.087c-1.892 0.268-2.707-2.622-0.798-2.893" fill="#ec008c"/></g><g transform="translate(163.7 244.98)"><path d="m0 0z" fill="none" stroke="#ec008c" stroke-dasharray="2" stroke-miterlimit="10" stroke-width=".5"/></g><g transform="translate(170.79 244.98)"><path d="m0 0c0-3.914-3.172-7.087-7.086-7.087s-7.087 3.173-7.087 7.087 3.173 7.086 7.087 7.086 7.086-3.172 7.086-7.086" fill="#006838"/></g><g transform="translate(170.79 244.98)"><path d="m0 0c0-3.914-3.172-7.087-7.086-7.087s-7.087 3.173-7.087 7.087 3.173 7.086 7.087 7.086 7.086-3.172 7.086-7.086z" fill="none" stroke="#00a650" stroke-miterlimit="10" stroke-width=".5"/></g><g transform="translate(163.7 244.98)"><path d="m0 0-48.002-14.033" fill="#231f20"/></g><g transform="translate(163.3 246.42)"><path d="m0 0c-16-4.678-32.001-9.355-48.002-14.033-1.852-0.542-1.063-3.437 0.798-2.893 16 4.678 32.001 9.356 48.002 14.033 1.852 0.542 1.063 3.437-0.798 2.893" fill="#00a650"/></g><g transform="translate(163.7 388.77)"><path d="m0 0-46.088-18.26" fill="#231f20"/></g><g transform="translate(163.3 390.22)"><path d="m0 0c-15.362-6.086-30.725-12.173-46.088-18.26-1.776-0.704-1.003-3.606 0.798-2.893 15.362 6.087 30.725 12.174 46.088 18.26 1.776 0.704 1.003 3.606-0.798 2.893" fill="#00a650"/></g><g transform="translate(156.15 253.56)"><path d="m0 0c21.299 5.865 19.472-15.747 11.184-18.977" fill="none" stroke="#00a650" stroke-miterlimit="10"/></g><g transform="translate(167.56 234.69)"><path d="m0 0c0.746-0.479 1.302-1.627 1.509-2.462-1.085 0.945-2.391 1.691-3.832 1.955 1.205 0.817 2.021 2.088 2.67 3.374 0.125-0.916 0.143-2.056-0.347-2.867" fill="#00a650"/></g><g transform="translate(70.561 236.8)"><path d="m0 0c-7.501 20.779 14.187 20.635 18.051 12.623" fill="none" stroke="#ec008c" stroke-miterlimit="10"/></g><g transform="translate(88.487 249.64)"><path d="m0 0c0.419 0.781 1.521 1.425 2.337 1.696-0.858-1.156-1.5-2.516-1.651-3.973-0.908 1.138-2.239 1.853-3.571 2.401 0.903 0.194 2.038 0.301 2.885-0.124" fill="#ec008c"/></g><g transform="translate(130.62 240.34)"><path d="m0 0-0.956 4.03-2.669 1.345-2.137 2.249-4.377 4.695 6.389 0.618 1.287 5.613l4.389-5.885 6.301-1.227-7.977-7.798z" fill="#fff200"/></g><g transform="translate(130.62 240.34)"><path d="m0 0-0.956 4.03-2.669 1.345-2.137 2.249-4.377 4.695 6.389 0.618 1.287 5.613l4.389-5.885 6.301-1.227-7.977-7.798z" fill="none" stroke="#fff200" stroke-miterlimit="10"/></g></g><text transform="matrix(1 0 0 -.65279 124.5 249.62)" fill="#231f20" font-family="'Heiti TC'" font-size="4.0981px" font-weight="bold"><tspan x="0 2.6514707 3.8849988 6.684001 8.2740641" y="0">crash</tspan></text>
<g clip-path="url(#clipPath402)"><g transform="translate(128.66 101.21)"><path d="m0 0c0-27.614-22.387-50-50-50-27.615 0-50 22.386-50 50s22.385 50 50 50c27.613 0 50-22.386 50-50z" fill="none" stroke="#ec008c" stroke-dasharray="1.988, 1.988" stroke-miterlimit="10" stroke-width=".5"/></g><g transform="translate(213.7 101.21)"><path d="m0 0c0-27.614-22.386-50-50-50s-50 22.386-50 50 22.386 50 50 50 50-22.386 50-50z" fill="none" stroke="#00a650" stroke-dasharray="1.988, 1.988" stroke-miterlimit="10" stroke-width=".5"/></g><g transform="translate(78.662 101.21)"><path d="m0 0z" fill="none" stroke="#ec008c" stroke-dasharray="2" stroke-miterlimit="10" stroke-width=".5"/></g><g transform="translate(85.748 101.21)"><path d="m0 0c0-3.914-3.173-7.087-7.087-7.087-3.913 0-7.087 3.173-7.087 7.087s3.174 7.086 7.087 7.086c3.914 0 7.087-3.172 7.087-7.086" fill="#bf1e2d"/></g><g transform="translate(85.748 101.21)"><path d="m0 0c0-3.914-3.173-7.087-7.087-7.087-3.913 0-7.087 3.173-7.087 7.087s3.174 7.086 7.087 7.086c3.914 0 7.087-3.172 7.087-7.086z" fill="none" stroke="#ec008c" stroke-miterlimit="10" stroke-width=".5"/></g><g transform="translate(78.661 99.713)"><path d="m 0,0 c 16.669,1.579 33.338,3.159 50.007,4.738 1.909,0.181 1.926,3.183 0,3 C 33.338,6.159 16.669,4.579 0,3 -1.909,2.819 -1.926,-0.183 0,0" fill="#ec008c"/></g><g transform="translate(163.7 101.21)"><path d="m0 0z" fill="none" stroke="#ec008c" stroke-dasharray="2" stroke-miterlimit="10" stroke-width=".5"/></g><g transform="translate(170.79 101.21)"><path d="m0 0c0-3.914-3.172-7.087-7.086-7.087s-7.087 3.173-7.087 7.087 3.173 7.086 7.087 7.086 7.086-3.172 7.086-7.086" fill="#006838"/></g><g transform="translate(170.79 101.21)"><path d="m0 0c0-3.914-3.172-7.087-7.086-7.087s-7.087 3.173-7.087 7.087 3.173 7.086 7.087 7.086 7.086-3.172 7.086-7.086z" fill="none" stroke="#00a650" stroke-miterlimit="10" stroke-width=".5"/></g><g transform="translate(163.7 101.21)"><path d="m0 0-46.033-19.548" fill="#231f20"/></g><g transform="translate(162.94 102.51)"><path d="m0 0c-15.344-6.516-30.688-13.031-46.033-19.548-1.776-0.754-0.245-3.337 1.514-2.59 15.345 6.516 30.689 13.032 46.034 19.548 1.775 0.754 0.244 3.337-1.515 2.59" fill="#00a650"/></g><g transform="translate(171.4 94.594)"><path d="m0 0c6.982 18.039-14.146 18.038-18.177 11.228" fill="none" stroke="#00a650" stroke-miterlimit="10"/></g><g transform="translate(153.36 106.03)"><path d="m0 0c0.797 0.388 2.067 0.267 2.888 0.01-1.372-0.437-2.688-1.164-3.663-2.258-0.071 1.454-0.732 2.811-1.493 4.035 0.847-0.37 1.83-0.947 2.268-1.787" fill="#00a650"/></g><g transform="translate(89.71 105.07)"><path d="m0 0c-14.322 16.791-24.84-1.846-19.795-9.152" fill="none" stroke="#ec008c" stroke-miterlimit="10"/></g><g transform="translate(69.792 96.128)"><path d="m0 0c0.023 0.886 0.717 1.956 1.324 2.566-0.246-1.418-0.208-2.921 0.313-4.291-1.323 0.608-2.832 0.647-4.269 0.537 0.719 0.581 1.685 1.187 2.632 1.188" fill="#ec008c"/></g></g><g fill="#231f20" font-family="'Heiti TC'" font-weight="bold"><text transform="matrix(1 0 0 -1 46 328.73)" font-size="6px"><tspan x="0 5.6279998 9.5579996 11.592 15.522 17.327999 18.827999" y="0">motor A</tspan><tspan x="23.268 24.768 26.573999 30.504 32.537998 36.636002 38.669998 42.57 44.07 47.952 49.152 53.082001 56.964001 59.976002 64.961998 66.162003 68.489998 72.389999 73.889999 75.552002 77.052002 79.085999 80.891998 82.092003 86.129997 90.167999 94.068001 95.874001 99.774002 103.884 105.384 109.476 112.692 114.192 116.226 119.886 123.786 125.286" y="0"> rotate clockwise , triggered by the N</tspan></text>
<text transform="matrix(1 0 0 -1 175.72 328.73)" font-size="3px"><tspan x="0" y="0">1</tspan></text>
<text transform="matrix(1 0 0 -1 177.39 328.73)" font-size="6px"><tspan x="0" y="0">-</tspan></text>
<text transform="matrix(1 0 0 -1 179.38 328.73)" font-size="4px"><tspan x="0 1.3559999" y="0">th</tspan></text>
<text transform="matrix(1 0 0 -1 184.67 328.73)" font-size="6px"><tspan x="0 1.806 5.7059999 6.9060001 11.004 14.22" y="0">relay </tspan><tspan x="-138.672 -133.04401 -129.114 -127.08 -123.15 -121.344 -119.844" y="7.1999998">motor B</tspan><tspan x="-116.4 -114.9 -113.094 -109.164 -107.13 -103.032 -100.998 -97.098 -95.598 -91.716003 -87.786003 -84.138 -80.477997 -78.444 -74.543999 -72.737999 -70.746002 -66.863998 -65.664001 -61.734001 -57.852001 -54.84 -49.854 -48.653999 -46.326 -42.425999 -40.764 -39.264 -37.23 -35.424 -34.223999 -30.186001 -26.148001 -22.247999 -20.441999 -16.542 -12.432 -10.932 -6.8400002 -3.6240001 -2.1240001" y="7.1999998"> rotate counter-clockwise, triggered by N</tspan></text>
<text transform="matrix(1 0 0 -1 186.99 321.53)" font-size="3px"><tspan x="0" y="0">2</tspan></text>
<text transform="matrix(1 0 0 -1 189.15 321.53)" font-size="5px"><tspan x="0 1.66 3.355" y="0">-th</tspan></text>
<text transform="matrix(1 0 0 -1 196.55 321.53)" font-size="6px"><tspan x="0 1.806 5.7059999 6.9060001 11.004" y="0">relay</tspan><tspan x="-150.552 -146.62199 -142.74001 -138.858 -134.75999 -132.43201 -131.23199 -127.302 -123.642 -119.544 -118.344 -117.144 -113.928 -112.266 -110.766 -108.732 -105.072 -101.172 -99.671997 -97.344002 -95.309998 -93.503998 -92.304001 -88.211998 -85.884003 -84.384003 -80.286003 -78.251999 -76.218002 -72.120003 -68.237999 -64.578003 -60.678001 -56.568001 -55.068001 -51.138 -47.478001 -45.978001 -43.944 -40.284 -36.383999 -34.883999 -29.256001 -25.326 -23.292 -19.362 -17.556 -15.228 -13.728 -8.7419996 -7.5419998 -6.342 -5.1420002 -3.642 -1.608 2.322 5.9699998 9.8520002 13.512 15.012 18.912001 23.01 26.892 30.552 32.051998 35.981998 38.015999 41.675999 45.576" y="149.298">occasionally, the strips attached on the motors will touch each other</tspan><tspan x="-150.552 -146.45399 -144.57001 -142.536 -138.636 -136.83 -135.33 -131.42999 -127.77 -123.888 -119.958 -116.31 -112.65 -110.616 -106.716 -104.91 -101.01 -96.900002 -95.400002 -91.302002 -89.802002 -86.141998 -82.241997 -78.143997 -74.82 -71.603996 -70.103996 -68.903999 -64.973999 -60.875999 -56.765999 -55.104 -53.604 -51.57 -47.91 -44.009998 -42.509998 -36.882 -32.952 -30.917999 -26.988001 -25.181999 -23.681999 -18.695999 -17.496 -16.296 -15.096 -13.596 -11.79 -7.8899999 -4.566 -0.66600001 1.14 3.4679999 7.368 8.868 10.068 12.102 14.43 15.93 17.736 21.666 23.700001 27.798 29.832001 31.032 34.692001 38.73 40.23 44.34 45.540001 47.346001 51.245998 55.127998 57.161999 58.362 62.292" y="290.79599">after encountered a heavy load, the motor will reverse its rotating direction</tspan></text>
</g><g clip-path="url(#clipPath512)"><g transform="translate(257.33 369.77)"><path d="m0 0h33" fill="#231f20"/></g><g transform="translate(257.33 369.77)"><path d="m0 0h1" fill="none" stroke="#231f20" stroke-miterlimit="10" stroke-width=".5"/></g><g transform="translate(260.4 369.77)"><path d="m0 0h27.9" fill="none" stroke="#231f20" stroke-dasharray="2.067, 2.067" stroke-miterlimit="10" stroke-width=".5"/></g><g transform="translate(289.33 369.77)"><path d="m0 0h1" fill="none" stroke="#231f20" stroke-miterlimit="10" stroke-width=".5"/></g></g><text transform="matrix(1 0 0 -1 278 409.36)" fill="#231f20" font-family="'Heiti TC'" font-size="5px" font-weight="bold"><tspan x="0 3.7 7.7649999 9.0150003 11.505 14.185 17.235001 20.469999 23.52 25.025 28.299999 31.35 34.625 37.665001 39.605 42.105 46.794998 50.07 51.764999 55.040001" y="0">AC Synchronous motor</tspan><tspan x="16.665001 19.155001 20.85 22.355 23.355" y="22">Strip</tspan><tspan x="22.665001 23.665001 26.940001 30.174999 33.215 35.154999 36.404999 39.68 41.25 42.5 44.195 47.244999 50.494999 51.744999 53.439999 54.439999 57.849998 59.099998 62.375 63.945 65.195 67.135002 68.830002 70.334999 71.334999" y="41.264999">locus of the tip of strip</tspan></text>
<text transform="matrix(1 0 0 -1 9 437.33)" fill="#231f20" font-family="'Heiti TC'" font-size="12px" font-weight="bold"><tspan x="0" y="0">1</tspan><tspan x="0" y="146.496">2</tspan><tspan x="0" y="286.116">3</tspan></text>
</g></svg>
