<?xml version="1.0" encoding="UTF-8"?>
<svg width="527.93" height="753.93" version="1.1" viewBox="0 0 527.93414 753.92615" xmlns="http://www.w3.org/2000/svg">
 <path d="m59.812 723.32c0.72187-0.28887 1.5844-0.25335 1.9167 0.0789 0.33229 0.33229-0.25834 0.56864-1.3125 0.52522-1.165-0.048-1.4019-0.28494-0.60417-0.60416zm227.19-7.3169c0-0.55 0.45-1 1-1s1 0.45 1 1-0.45 1-1 1-1-0.45-1-1zm-219.31-4.6636c-7.5777-0.91012-14.773-2.4904-20.075-4.4089-9.2218-3.3368-15.835-8.0211-13.995-9.9137 0.84192-0.86619 2.0162-0.77553 4.75 0.36673l3.6316 1.5174v-2.872c0-1.8578 1.0594-3.9314 3-5.872 2.7225-2.7225 4.1116-7.1538 2.2426-7.1538-0.91309 0-0.95287-1.4683-1.0702-39.5-0.08371-27.131-1.3758-62.218-2.8154-76.452-0.42021-4.1549-0.778-5.0471-1.5039-3.75-0.52387 0.9361-1.3801 1.702-1.9028 1.702-1.5325 0-1.0903-3.6389 0.61404-5.0534 1.1401-0.94616 1.4951-2.7929 1.3091-6.8088-0.34017-7.3436 1.7783-8.1437 2.5017-0.94476 1.9531 19.435 3.0094 46.527 3.131 80.307 0.14155 39.302 0.61298 46.5 3.0455 46.5 0.73101 0 4.3934-1.0662 8.1387-2.3692 17.024-5.9229 22.31-6.6546 22.31-3.0882 0 1.098 0.56448 1.1932 2.5651 0.43261 1.4108-0.53639 3.3233-0.96094 4.25-0.94345 1.5466 0.0292 1.5408 0.14115-0.0695 1.3635-1.5649 1.1878-1.2948 1.3857 2.5 1.8321 2.3399 0.27524 6.9133 0.22418 10.163-0.11347l5.9087-0.61392-3.7206-1.7633c-3.3499-1.5876-3.9359-1.6126-5.8812-0.25-1.1883 0.83234-3.0156 1.5133-4.0606 1.5133-2.8701 0-0.31641-2.6266 3.9097-4.0214 2.9478-0.97286 3.9437-0.82079 7.42 1.133 2.2084 1.2412 4.0152 2.6185 4.0152 3.0607 0 0.44223 1.8418 1.0986 4.0928 1.4585s5.2885 1.6483 6.75 2.863c1.4615 1.2147 3.9791 2.6411 5.5947 3.1698 4.341 1.4207 4.1201 2.7658-0.67446 4.1076-2.5414 0.71121-5.0308 2.2657-6.164 3.8491-1.6661 2.328-1.747 3.0817-0.65481 6.1021 1.1384 3.1482 1.0439 3.6612-1.0928 5.9357-2.126 2.263-2.1851 2.5757-0.64957 3.435 0.92913 0.51997 2.6444 2.2867 3.8118 3.9261l2.1225 2.9807-20.818-0.12249c-11.45-0.0674-26.133-0.76086-32.629-1.5411zm39.322-1.8234c-0.68383-0.82397-0.96455-2.561-0.62956-3.8958 0.72015-2.8693-0.68652-3.6241-6.713-3.6019-3.0596 0.0112-3.7693 0.27314-2.6682 0.98469 0.825 0.53316 2.7109 0.97627 4.191 0.98469 1.48 8e-3 2.9691 0.46531 3.309 1.0153 0.80146 1.2968-0.15159 1.262-11.5-0.4192-5.225-0.77407-14.569-1.424-20.765-1.4444-6.1958-0.0203-11.708-0.3109-12.25-0.64572-1.8362-1.1348-1.0042-3.49 1.265-3.5809 1.7907-0.0718 1.6123-0.27509-0.87424-0.996-2.9207-0.84681-6.6728-3.9294-4.7482-3.9009 0.47984 7e-3 3.7974 0.93338 7.3724 2.0584 7.3428 2.3107 20.11 5.152 20.663 4.5986 0.20091-0.20091-2.6787-1.1493-6.3991-2.1076-3.7204-0.95826-10.674-2.8268-15.453-4.1523-4.7785-1.3255-9.2785-2.4077-10-2.4048-0.83738 3e-3 -1.3994 1.5404-1.5539 4.25-0.14252 2.4995-0.89962 4.7288-1.8414 5.4219-1.3992 1.0298-1.2187 1.3739 1.4424 2.75 1.6729 0.86512 5.0891 1.5729 7.5914 1.5729 4.2546 0 6.1192 1.2834 3.2997 2.2713-2.3928 0.83835 17.849 2.4423 32.622 2.585 13.059 0.12616 14.722-0.0376 13.638-1.3433zm-29.011-0.24549c0-1.6688 4.9446-3.2675 10.106-3.2675 6.4686 0 5.5146 1.6005-1.3376 2.2441-2.8976 0.27215-6.056 0.82671-7.0185 1.2324s-1.75 0.31161-1.75-0.20895zm35.478-1.2918c-1.8433-2.0368-3.6417-2.2612-3.612-0.45067 0.0131 0.80108 1.5102 1.5068 5.039 2.3753 0.22274 0.0548-0.41941-0.81127-1.427-1.9246zm-68.982-4.9828c-0.84617-1.3691-6.5587-4.2632-7.1829-3.6389-0.27579 0.27579 1.2285 1.4141 3.3429 2.5295 4.5216 2.3854 4.6518 2.423 3.84 1.1094zm70.473-3.8653c-0.0267-1.3673-0.26656-1.3172-1.5 0.31357-1.911 2.5265-1.8908 4.1544 0.0318 2.5589 0.825-0.68469 1.4857-1.9773 1.4682-2.8724zm-2.7479-2.8598c1.4567-3.1527 2.4868-5.894 2.2891-6.0917-0.86465-0.86465-3.0094 1.5043-3.0094 3.3239 0 1.7954-0.6352 1.9903-6.21 1.9056-3.4155-0.0519-6.7905-0.54296-7.5-1.0912-0.71116-0.54954-2.4117-0.66409-3.79-0.25528-2.3252 0.68966-2.2705 0.74849 0.78138 0.8412 2.0193 0.0613 3.518 0.71632 3.8966 1.703 0.56254 1.466 7.3965 5.1582 9.8579 5.3261 0.56974 0.0389 2.2277-2.5089 3.6844-5.6616zm-64.255 2.798c1.6795-3.1381 1.3152-7.2675-0.60763-6.8891-2.4396 0.48014-3.7392 3.1653-2.9854 6.1685 0.78676 3.1347 2.1542 3.4089 3.593 0.72052zm50.035 1.5146c0-0.2308-2.2346-1.1618-4.9658-2.069-5.7868-1.9221-14.358-2.8439-13.497-1.4516 0.31962 0.51715 1.3686 0.94027 2.331 0.94027s2.6234 0.66069 3.691 1.4682c1.7097 1.2932 12.441 2.2525 12.441 1.1122zm-20.833-5.488c0.18333-0.49922 2.5833-1.1693 5.3333-1.489s7.7-0.99954 11-1.5107c3.3-0.51116 8.025-1.231 10.5-1.5995s6.6375-1.3415 9.25-2.162c3.8602-1.2124 4.75-1.9234 4.75-3.7954 0-4.0768-7.9575-6.2826-25-6.9299l-14.5-0.55077-7.6841 3.6664c-4.3157 2.0592-7.8835 4.4291-8.1391 5.4063-0.27786 1.0625-1.8652 2.0045-4.077 2.4195-3.8977 0.73122-5.8785 2.4278-2.9089 2.4916 0.99496 0.0214 5.409 1.1222 9.809 2.4464 8.794 2.6465 11.165 2.9731 11.667 1.6071zm31.595-1.7794c-0.95609-0.25029-2.7561-0.25937-4-0.0202-1.2439 0.23919-0.46166 0.44398 1.7383 0.45508s3.2178-0.18461 2.2617-0.4349zm-52.262-6.2255l6-1.8831-3.6453-0.69381c-3.6185-0.68872-8.8547 1.4428-8.8547 3.6045 0 1.1022-0.57588 1.1932 6.5-1.0276zm-4.0589-3.6192c1.0676-0.80751 3.6452-1.4682 5.7278-1.4682 3.6874 0 14.831-4.646 14.831-6.1833 0-0.42167-1.4625-0.48217-3.25-0.13443-3.0392 0.59124-4.075 1.3579-5.1576 3.8178-0.26707 0.6068-0.78239 0.51786-1.3106-0.22619-0.66342-0.93457-1.8112-0.96779-4.8261-0.13968-5.1038 1.4019-9.4557 3.6532-9.4557 4.8916 0 1.3552 1.161 1.1671 3.4411-0.55748zm25.288-10.072c-0.3323-0.33229-1.1948-0.36781-1.9167-0.0789-0.79773 0.31922-0.56078 0.55618 0.60417 0.60416 1.0542 0.0434 1.6448-0.19293 1.3125-0.52522zm163.27 22.477c-2.475-0.39851-6.8359-0.75793-9.691-0.7987-2.855-0.0408-5.5082-0.58729-5.8958-1.2145-0.52327-0.84665 1.7153-0.91105 8.691-0.25 12.686 1.2022 20.945 0.94454 29.896-0.93276 4.125-0.86513 14.475-2.2902 23-3.1669s17.075-2.0279 19-2.5584 9.5158-1.6696 16.869-2.5313c15.033-1.7619 35.139-7.7378 52.131-15.495 8.7703-4.0036 10.345-4.3873 20.5-4.9958 9.285-0.55633 13.261-1.3904 25.5-5.3494 18.006-5.8243 20.398-7.1364 20.816-11.414 0.28535-2.9229 0.0913-3.1886-2-2.7378-1.2738 0.27456-6.141 1.2422-10.816 2.1504s-13 2.9221-18.5 4.4755c-16.6 4.6884-21.338 5.2779-37.747 4.6962-15.769-0.55892-22.253-0.0256-39.753 3.2697-5.775 1.0875-19.5 2.8805-30.5 3.9845-28.785 2.889-29.402 2.9673-36 4.5704-5.6566 1.3743-21.62 2.8107-45.536 4.0976-9.4447 0.50821-11.077 0.33456-15.75-1.6758-2.8674-1.2335-5.2135-2.8624-5.2135-3.6196 0-1.8796 0.67719-1.7435 4.3456 0.87314 2.7663 1.9732 4.3846 2.2499 13.154 2.2492 5.5-4.2e-4 14.05-0.34539 19-0.76661s12.375-1.0064 16.5-1.3005c4.125-0.29405 9.975-1.1619 13-1.9285s12.7-2.0841 21.5-2.9277c25.238-2.4195 34.899-3.6431 51.5-6.523 13.68-2.3732 17.551-2.6491 32.967-2.3493 17.833 0.34683 28.821-0.89892 37.033-4.1989 4.2323-1.7006 14.822-4.1557 25-5.796 7.3561-1.1855 7.5022-1.2663 7.6153-4.2087 0.21276-5.5362 0.38097-6.5 1.1347-6.5013 0.4125-7.1e-4 0.75 1.9118 0.75 4.25 0 3.7291 0.27539 4.2548 2.2419 4.2797 2.9287 0.0371 3.3979 1.8805 0.58075 2.2817-1.8708 0.26638-2.1013 0.77913-1.6368 3.6415 0.50096 3.087 0.22052 3.519-3.8226 5.8881-8.7104 5.1038-34.7 12.66-43.544 12.66-8.3996 0-15.068 1.5532-23.641 5.5066-10.322 4.7598-33.468 12.293-41.395 13.473-22.236 3.3096-29.653 4.3462-46.783 6.5376-10.45 1.3369-20.8 2.8666-23 3.3992-5.5731 1.3494-16.14 1.8193-21.5 0.95627zm-68.755-20.735c-7.2989-1.9111-12.856-5.9617-14.904-10.865-2.0797-4.9775-7.598-27.349-6.9146-28.033 1.0454-1.0454 1.6932 0.49017 3.126 7.4098 2.5139 12.141 5.546 19.958 9.3546 24.119 3.1288 3.4176 4.6188 4.1527 11.528 5.6873 4.384 0.97376 9.8853 1.5425 12.294 1.271 2.9829-0.33622 4.2416-0.13389 3.9861 0.64074-0.57567 1.7454-11.442 1.61-18.47-0.23006zm-41.432-0.82092c0.72187-0.28887 1.5844-0.25335 1.9167 0.0789 0.33229 0.33229-0.25834 0.56864-1.3125 0.52522-1.165-0.048-1.4019-0.28494-0.60417-0.60416zm-75.206-5.8987c-0.33384-0.86998-0.61508-7.0575-0.62497-13.75-0.02292-15.513-1.6038-49.28-3.1104-66.438-1.0331-11.766-0.87992-15.572 0.56858-14.123 0.24213 0.24213 0.53951 2.9046 0.66084 5.9167 0.27335 6.7857 0.68444 7.996 2.4817 7.3063 1.0356-0.39739 1.4172 0.29285 1.4172 2.5631 0 2.1124-0.48626 3.107-1.5191 3.107-1.0452 0-1.3753 0.70188-1.0582 2.25 0.70716 3.4527 1.6934 25.112 2.1287 46.75 0.21577 10.725 0.65754 21.412 0.9817 23.75 0.5766 4.1577-0.68432 5.9044-1.9262 2.6682zm133.38-26.701c-5.6872-5.4748-7.4708-6.5559-14-8.4852-7.7967-2.3039-10.813-3.7348-9.8675-4.6805 0.30633-0.30633 3.1762 0.34421 6.3776 1.4456 6.7259 2.3141 6.8287 2.3312 6.0075 1.0026-0.33992-0.55-0.14148-1 0.44098-1s1.059 0.56515 1.059 1.2559 1.2375 1.8043 2.75 2.4746c2.4953 1.1059 15.25 12.637 15.25 13.787 0 1.4072-2.1365-0.13837-8.0176-5.7998zm278.52-9.7175c-0.33992-0.55-0.14148-1 0.44098-1s1.059 0.45 1.059 1-0.19844 1-0.44098 1-0.7191-0.45-1.059-1zm-311.83-5.6667c-0.36667-0.36666-0.66667-5.7667-0.66667-12 0-10 0.23529-11.569 2-13.333 1.3783-1.3783 1.576-2 0.63601-2-1.0084 0-0.74184-1.2382 1.0228-4.75 3.2653-6.4984 4.3244-7.0953 11.622-6.5502 5.8592 0.43774 6.5674 0.24343 12.22-3.353l6-3.8176 16.5-0.082c9.075-0.0451 17.962-0.42496 19.75-0.84408 1.9535-0.45803 3.25-0.3758 3.25 0.20613 0 1.678-7.0143 2.3934-22.243 2.2685l-14.743-0.12097-7.1804 4.0689c-6.5258 3.6979-7.7594 4.0501-13.531 3.8632-5.2294-0.16929-6.6061 0.13143-7.7953 1.7028-2.7284 3.6052-0.91245 4.2139 3.6509 1.2239 2.5062-1.6422 8.3144-1.3901 7.2605 0.31511-0.3066 0.49608-0.95687 0.65511-1.4451 0.35339-1.2745-0.7877-10.974 4.4852-10.974 5.9657 0 0.68211-0.93926 2.0902-2.0872 3.1291-1.9118 1.7301-2.0606 2.7888-1.7702 12.592 0.30343 10.244-0.0116 12.627-1.4759 11.163zm19.833-1.3333c-0.33992-0.55-0.14148-1 0.44098-1s1.059 0.45 1.059 1-0.19844 1-0.44098 1-0.7191-0.45-1.059-1zm264.54-2.452c-1.329-1.6014-0.51506-5.548 1.1442-5.548 0.57708 0 0.814 0.89955 0.52649 1.999-0.28751 1.0995-0.115 2.251 0.38337 2.559 1.1593 0.7165 1.1795 2.442 0.0286 2.442-0.48265 0-1.4198-0.65341-2.0826-1.452zm-134.17-15.235c-1.2194-1.499-1.1496-1.6035 0.62587-0.9361 1.65 0.6202 1.5307 0.26065-0.68451-2.0628-1.4756-1.5476-3.9587-5.9984-5.5182-9.8906s-3.3334-6.9107-3.9423-6.7077c-0.60882 0.20294-1.3733-0.32503-1.6988-1.1733-0.3255-0.84824-0.1253-1.5423 0.44489-1.5423s0.1699-1.2375-0.88954-2.75c-2.3802-3.3981-10.21-27.451-10.21-31.365 0-1.0368-0.47656-1.8852-1.059-1.8852s-0.83546-0.36172-0.56222-0.80383 0.12101-2.5796-0.33829-4.75c-0.45929-2.1704-1.1205-14.521-1.4693-27.446-0.74031-27.431-2.2882-60.136-3.1348-66.236-0.32553-2.3455-1.0387-5.1944-1.5849-6.331-0.79947-1.6637-0.44322-2.7291 1.8278-5.4659 6.9408-8.3644 9.0694-9.8479 14.587-10.166l5.2336-0.30169 0.53314-8.5c0.29323-4.675 0.44055-8.6527 0.32737-8.8393-0.11318-0.18662-3.1068-0.43385-6.6525-0.54939-3.9384-0.12835-7.408-0.83993-8.9173-1.8289-1.3588-0.89034-5.2716-2.1699-8.6952-2.8434-3.9904-0.78506-7.5474-2.264-9.91-4.1204-5.4104-4.2511-13.988-9.8186-15.126-9.8186-2.2432 0-3.3063-4.4323-2.6799-11.173 0.50609-5.4453 0.35514-6.8274-0.7457-6.8274-1.0966 0-1.3022-1.7788-1.0006-8.6553 0.20883-4.7604 0.88547-9.2647 1.5036-10.01 0.62924-0.75818 0.8985-3.0352 0.61175-5.1731-0.2917-2.1748 0.0827-5.2336 0.86961-7.1052 0.86365-2.054 1.3883-7.0871 1.399-13.422 0.011-6.5238 0.66686-12.636 1.8406-17.153 2.4033-9.2496 3.6232-11.431 6.0396-10.799 1.2107 0.3166 4.5022-1.1803 8.8818-4.0392 3.827-2.4982 10.73-6.4581 15.34-8.7997 4.6097-2.3416 8.5313-4.6146 8.7147-5.051 0.18334-0.43643 0.86831-0.79351 1.5222-0.79351s2.7538-1.2864 4.6667-2.8586c1.9128-1.5722 4.5963-3.2112 5.9634-3.6421 1.367-0.43095 4.1625-2.1312 6.2122-3.7784 3.4436-2.7673 3.9587-2.8987 6.7811-1.7297 1.7082 0.70755 4.9942 1.0465 7.4555 0.7691 4.2003-0.47343 4.6217-0.27196 9.2334 4.4141 5.1961 5.2799 16.994 13.471 27.082 18.801 3.4375 1.8165 6.25 3.8544 6.25 4.5286s0.93508 2.4146 2.078 3.8675c1.5636 1.9879 1.9109 3.4024 1.4029 5.7152-0.37128 1.6904-0.70068 9.1123-0.732 16.493-0.0313 7.3808-0.32512 13.419-0.6529 13.419-0.32778-2.8e-4 -0.51195 4.1622-0.40926 9.25 0.17922 8.8802 0.13918 9.0671-1 4.6689l-1.1867-4.5816-3.0084 1.2359c-1.6546 0.67972-3.8344 2.1486-4.844 3.2641-1.0096 1.1156-2.3962 1.8131-3.0814 1.5502-1.8692-0.71726-32.895 20.421-33.929 23.116-0.31585 0.8231-1.29 1.4966-2.1647 1.4966s-1.3085 0.45616-0.96391 1.0137c0.36832 0.59597 2.4498-0.33121 5.0512-2.25 2.4336-1.795 7.0157-5.1778 10.183-7.5172 12.159-8.9826 20.633-14.272 21.49-13.415 0.50766 0.50766-0.28499 2.2661-1.8712 4.1512l-2.752 3.2705 3.146-1.6268c3.6565-1.8909 5.2453-2.0591 5.2453-0.55541 0 1.3038-1.5822 2.8666-5.3368 5.2714-3.3231 2.1284-3.0179 3.1227 0.54289 1.7689 3.9103-1.4867 5.7939-3.973 5.7939-7.648 0-2.3274 0.6055-3.7174 1.9276-4.425 2.0307-1.0868 5.0724-0.4462 5.0724 1.0682 0 0.49115 0.62254 0.89301 1.3834 0.89301 1.9608 0 2.7168 5.0427 1.0116 6.7478-0.76728 0.76728-1.395 2.2261-1.395 3.2418s-0.26055 2.5258-0.57899 3.3556c-0.86028 2.2418 3.3768 0.90103 4.6458-1.4702 1.2421-2.3209 2.9332-2.4452 2.9332-0.2155 0 1.4941-5.3811 7.9679-14.277 17.176-1.7726 1.8348-4.6087 3.9463-6.3025 4.6922-1.6938 0.74588-3.6614 2.0572-4.3724 2.9139-0.71106 0.85678-2.4752 1.5644-3.9204 1.5724-1.4452 8e-3 -5.7776 1.5555-9.6276 3.4388-4.0909 2.0012-7.3734 3.0554-7.8986 2.5368-0.52583-0.51931-3.1861 0.75057-6.4128 3.0612-3.0328 2.1717-6.1156 3.9486-6.8508 3.9486-1.4021 0-1.528 2.5248-0.64828 13l0.46192 5.5 5.5119 0.2744c6.0557 0.30146 12.381 3.0228 14.691 6.3206 0.81739 1.167 1.9753 1.8195 2.5732 1.45 0.59783-0.36949 1.3783 0.0874 1.7344 1.0154 0.40244 1.0487 0.0214 2.0375-1.0071 2.6131-0.90997 0.50925-1.6545 1.8035-1.6545 2.8762s-0.48196 1.9503-1.071 1.9503c-0.73335 0-0.94626 5.067-0.67531 16.072 0.21764 8.8394 3e-3 18.852-0.47723 22.25-0.48012 3.3981-1.0122 19.678-1.1824 36.178-0.31711 30.748-0.9439 39.249-3.0229 41-1.6638 1.4014-4.7287 9.4361-4.0304 10.566 0.31751 0.51374 0.13106 0.93408-0.41434 0.93408-0.54539 0-1.2788 1.0125-1.6297 2.25-0.68263 2.407-7.6614 20.823-10.209 26.938-0.88825 2.1327-1.2649 4.7685-0.89307 6.25 0.55604 2.2154 0.31888 2.5619-1.7536 2.5619-1.3181 0-3.0142-0.75925-3.7691-1.6872zm5.1276-11.524c0-0.49582 2.1884-5.9386 4.8631-12.095 4.4544-10.253 7.3999-19.629 9.0137-28.694 0.86893-4.8805 0.67058-17.992-0.31769-21-0.79491-2.4196-0.76085-2.4426 1.0598-0.71429 1.5506 1.472 1.8811 3.2624 1.8811 10.19 0 5.9449 0.26389 7.7636 0.90167 6.2143 0.49592-1.2047 0.78775-6.9153 0.64852-12.69-0.30408-12.612-0.32613-10.563 0.33903-31.5 0.29704-9.35 0.94072-21.95 1.4304-28s0.75335-13.25 0.58595-16c-0.16741-2.75-0.32714-7.5875-0.35497-10.75-0.0288-3.2774-0.49731-5.75-1.0894-5.75-0.57134 0-4.6439 1.6479-9.0502 3.6621l-8.0114 3.6621-12.81-1.0193c-8.0202-0.63815-14.042-1.6336-16.103-2.6621-1.8112-0.90355-3.5157-1.6428-3.7877-1.6428-0.27201 0-0.16852 3.7125 0.22999 8.25s0.92843 16.125 1.1776 25.75c0.3712 14.338 0.78097 18.132 2.2682 21 2.7628 5.3272 5.31 13.682 4.9469 16.227-0.20908 1.4652-1.2124-0.57044-2.8226-5.7266l-2.4982-8-0.27324 18.427c-0.17202 11.601 0.10582 18.806 0.75 19.45 0.56278 0.56278 1.0232 1.849 1.0232 2.8582 0 3.2364 6.2569 16.604 7.5411 16.111 0.82027-0.31477 1.0434 0.37648 0.70061 2.17-0.41258 2.1582-0.16466 2.5736 1.3776 2.308 1.4256-0.24548 1.9603 0.3729 2.2096 2.5554 0.18089 1.5836 2.0139 5.0109 4.0733 7.6162 4.1998 5.3132 6.759 10.704 5.5956 11.787-0.42433 0.39487-0.98461 0.11882-1.2451-0.61343s-2.7864-4.7066-5.6131-8.832c-2.8268-4.1253-5.7785-8.697-6.5594-10.159-0.78091-1.4622-1.5827-2.17-1.7817-1.5728-0.55942 1.6782 8.8128 20.395 10.213 20.395 0.68148 0 1.5043 1.3261 1.8284 2.9468s1.2849 4.6114 2.135 6.646c1.5089 3.6113 1.5928 3.6564 3.5356 1.8982 1.0945-0.99052 1.99-2.2066 1.99-2.7024zm-1.0841-20.539c-0.0463-2.6125-0.25016-7.675-0.45313-11.25-1.0656-18.77-0.75467-22.916 1.609-21.456 0.56013 0.34618 0.48042 1.4238-0.19925 2.6938-0.73618 1.3756-0.90007 4.5933-0.46804 9.1893 1.4343 15.258 1.6932 25.573 0.64194 25.573-0.57555 0-1.0843-2.1375-1.1305-4.75zm-9.2551-13.691c-0.33261-0.86674-0.21014-2.6138 0.27215-3.8823s1.1965-4.8646 1.5872-7.9913c0.39066-3.1267 1.1585-5.6849 1.7064-5.6849 0.58062 0 0.74492 1.3555 0.39392 3.25-0.33119 1.7875-0.86748 5.725-1.1918 8.75-0.62697 5.8485-1.7732 8.1504-2.7678 5.5585zm19.559-2.4796c0.15392-2.2418 0.61736-4.0767 1.0299-4.0775 1.1458-2e-3 0.89287 6.7922-0.27986 7.517-0.65754 0.40639-0.92868-0.83706-0.75-3.4395zm-5.8097-2.3289c0.35401-1.2375 0.89845-5.4 1.2098-9.25 0.31141-3.85 1.2265-8.4754 2.0334-10.279 0.85563-1.9119 1.3765-5.6636 1.2496-9-0.21763-5.72 1.3708-16.182 3.179-20.938 0.52753-1.3875 1.0088-4.7288 1.0696-7.4252 0.0607-2.6964 0.50143-5.1442 0.9793-5.4395 1.6035-0.99099 0.88897 10.183-1.1619 18.171-1.7362 6.7627-1.8813 8.8805-1 14.602 1.2247 7.9503 1.2424 22.489 0.0308 25.308-0.56445 1.3136-0.90531-1.4322-0.9931-8-0.15045-11.255-1.1492-10.549-2.9451 2.0842-1.5525 10.92-1.9376 12.416-3.1975 12.416-0.66228 0-0.8423-0.89235-0.45391-2.25zm-24.41-4.191c0-1.9575 0.45-3.559 1-3.559s1 1.3234 1 2.941-0.45 3.2191-1 3.559c-0.59512 0.3678-1-0.82295-1-2.941zm9.5869 2.3341c-0.81796-2.4764-1.1607-9.8931-0.45719-9.8931 0.87609 0 2.2651 9.9385 1.4964 10.707-0.31851 0.31851-0.78617-0.0478-1.0392-0.81402zm-5.508-11.476c0.048-1.165 0.28494-1.4019 0.60416-0.60417 0.28887 0.72187 0.25335 1.5844-0.0789 1.9167-0.33229 0.33229-0.56864-0.25834-0.52522-1.3125zm3.921-1.9167c0-1.375 0.45-2.5 1-2.5s1 1.125 1 2.5-0.45 2.5-1 2.5-1-1.125-1-2.5zm5.6667 0.83333c-0.36667-0.36666-0.66667-2.3154-0.66667-4.3306 0-2.0152-0.89317-8.5777-1.9848-14.583-2.3259-12.796-2.3543-13.159-0.91897-11.723 1.2565 1.2565 3.4008 12.757 4.4336 23.779 0.68187 7.2766 0.55595 8.277-0.8632 6.8579zm-9.6667-4.7153c0-0.825 0.45-1.7781 1-2.118s1 0.057 1 0.88197c0 0.825-0.45 1.7781-1 2.118s-1-0.057-1-0.88197zm-4-2.4194c0-1.0557-0.23322-4.1198-0.51826-6.809-0.37233-3.5128-0.25133-4.3264 0.42971-2.8896 0.78419 1.6544 0.97108 1.3089 1.0816-2 0.12538-3.7518 0.19859-3.8448 1.1797-1.5 0.57529 1.375 1.0105 3.9625 0.96706 5.75-0.0434 1.7875 0.37711 3.25 0.93447 3.25s0.94034-0.5625 0.85106-1.25c-0.34344-2.6448 0.11415-4.75 1.0325-4.75 0.52682 0 0.86432 1.6875 0.75 3.75-0.18104 3.2663-0.55551 3.7901-2.903 4.0611-1.7655 0.20381-2.5181 0.77258-2.1818 1.6488 0.28233 0.73575 0.0326 1.6348-0.55485 1.9979-0.61585 0.38062-1.0682-0.15263-1.0682-1.2593zm6.079-15.782c0.048-1.165 0.28494-1.4019 0.60416-0.60417 0.28887 0.72187 0.25335 1.5844-0.0789 1.9167-0.33229 0.33229-0.56864-0.25834-0.52522-1.3125zm4-14c0.048-1.165 0.28494-1.4019 0.60416-0.60417 0.28887 0.72187 0.25335 1.5844-0.0789 1.9167-0.33229 0.33229-0.56864-0.25834-0.52522-1.3125zm8.9998-6.9167c-0.0264-4.95 0.39597-9.675 0.93869-10.5 0.68165-1.0362 0.86841 0.66444 0.604 5.5-0.21052 3.85-0.18295 5.7625 0.0613 4.25 0.67377-4.1728 2.3173-3.2863 2.3173 1.25 0 2.2-0.4645 4-1.0322 4-0.56773 0-1.4392 1.0125-1.9366 2.25-0.64278 1.5992-0.91829-0.35337-0.95246-6.75zm-8.6495 0.25c1.9975-9.6177 2.5295-16.291 1.7124-21.478-0.50006-3.1747-0.68954-7.2066-0.42106-8.9598 0.28472-1.8593-0.18041-4.5278-1.1162-6.4036-2.0445-4.0983-2.0553-5.7882-0.024-3.757 1.8284 1.8284 3.3394 11.985 3.387 22.766 0.0376 8.5276-1.7397 20.082-3.089 20.082-0.50402 0-0.70611-1.0125-0.4491-2.25zm-4.92-6.7081c-0.35734-1.627-2.1182-4.2475-3.9131-5.8234-2.703-2.3732-3.4439-3.9689-4.3146-9.2919-1.1145-6.813-1.0437-7.5157 0.65197-6.4678 0.58659 0.36254 1.0665 2.7326 1.0665 5.2668 0 2.5342 0.24176 4.3659 0.53724 4.0704 0.29549-0.29548 0.56521-4.758 0.59939-9.9167 0.0439-6.632-0.42351-10.51-1.5958-13.238-1.6409-3.8184-1.286-6.4508 0.48706-3.613 1.9353 3.0975 3.2008 12.786 2.7068 20.723-0.49478 7.9502-0.40801 8.3844 2.3759 11.888 1.5892 1.9997 2.8894 4.2122 2.8894 4.9166s0.27314 1.9925 0.60699 2.8625c0.33384 0.86999 0.1446 1.5818-0.42055 1.5818-0.56514 0-1.3199-1.3311-1.6772-2.9581zm-6.5092-2.6009c0-1.9575 0.35167-3.3417 0.7815-3.076 1.187 0.73361 1.3955 6.635 0.23438 6.635-0.55873 0-1.0159-1.6016-1.0159-3.559zm24.079-2.0243c0.048-1.165 0.28494-1.4019 0.60416-0.60417 0.28887 0.72187 0.25335 1.5844-0.0789 1.9167-0.33229 0.33229-0.56864-0.25834-0.52522-1.3125zm9.921-2.9757c0-0.85746 0.45734-1.2764 1.0163-0.9309s0.75742 1.047 0.44098 1.559c-0.85723 1.387-1.4573 1.1284-1.4573-0.62812zm-0.95745-6.941c-0.0634-0.55-1.3717-5.8587-2.9072-11.797s-2.4669-10.998-2.0697-11.243c0.39719-0.24548 1.4667 2.8132 2.3768 6.7971 0.91004 3.9839 2.1376 8.8789 2.728 10.878 0.59037 1.9989 0.82907 4.2489 0.53045 5-0.29861 0.75111-0.59484 0.91566-0.65828 0.36566zm-9.802-19.486c-0.6823-1.0925-1.2406-2.4976-1.2406-3.1224 0-1.7684 2.6825 0.78664 3.2983 3.1416 0.66392 2.5388-0.46685 2.5283-2.0578-0.0192zm9.5153-12.666c4.5407-2.0179 8.057-3.8678 7.814-4.1108-0.24301-0.243-3 0.72936-6.1267 2.1608-3.5906 1.6438-7.44 2.6026-10.449 2.6026-2.6204 0-6.2785 0.65739-8.1292 1.4609l-3.3648 1.4609 6 0.0473c4.8081 0.0379 7.64-0.68154 14.256-3.6217zm-14.762-1.3071c1.9214-0.57213 5.1705-1.0402 7.2204-1.0402s6.1865-1.125 9.1925-2.5c3.006-1.375 6.1694-2.5 7.0296-2.5 5.1996 0-3.3043-5.6389-10.763-7.1368-3.1464-0.63189-5.9464-0.92331-6.2221-0.64759-0.27572 0.27571-0.56473 2.2525-0.64225 4.3928-0.15704 4.3356-1.9772 6.3113-5.8588 6.3597-1.4025 0.0175-3.1219 0.5943-3.821 1.2818-1.9821 1.9494-5.129-2.5669-5.129-7.3608v-3.8892h-5.1548c-4.7221 0-5.4776 0.33935-9 4.0421-4.4367 4.6639-4.7432 6.3234-1.554 8.413 4.942 3.2381 14.993 3.4762 24.702 0.58512zm-20.493-5.0402c-0.39915-0.64585-0.27574-1.6243 0.27426-2.1743 0.66667-0.66667 1.2419-0.60858 1.7257 0.17426 0.39915 0.64585 0.27574 1.6243-0.27426 2.1743-0.66667 0.66667-1.2419 0.60858-1.7257-0.17426zm21.5-5v-4h-4.019c-3.877 0-3.9958 0.0972-3.3621 2.75 0.92101 3.8554 2.2501 5.25 5.0036 5.25 2.1072 0 2.3776-0.45493 2.3776-4zm2.7057-6.25c-0.23835-1.2375-0.43337-0.225-0.43337 2.25s0.19502 3.4875 0.43337 2.25c0.23836-1.2375 0.23836-3.2625 0-4.5zm-2.697-4.5c5e-3 -2.0625 0.28811-6.225 0.62961-9.25l0.62092-5.5-2.1775 2.2596c-1.7093 1.7738-2.583 2.0425-4.0639 1.25-1.0375-0.55527-2.0285-1.0093-2.2021-1.009s-0.4627 3.6003-0.64233 8l-0.32659 7.9995h4.0766c4.0425 0 4.0767-0.0313 4.0853-3.75zm-2.8602-23.5c-0.43571-10.844 1.3324-11.798 2.1374-1.1531 0.6006 7.9413 1.2523 9.7684 2.6676 7.4784 1.0027-1.6224 2.4459-14.009 1.7171-14.738-1.3707-1.3707-8.3267-1.4565-9.4389-0.1164-1.4794 1.7826-4.4552 15.608-3.6425 16.923 0.32922 0.53269 2.0188 0.83066 3.7547 0.66216l3.1562-0.30636zm-17.148 5.691c0-0.79254 0.64249-1.441 1.4278-1.441 1.133 0 1.3181-1.1869 0.89664-5.75-0.65588-7.1008-2.9295-9.3552-11.147-11.052-3.1792-0.65666-7.9114-2.5453-10.516-4.197-2.6045-1.6517-7.3064-4.0891-10.449-5.4164-4.8052-2.0298-5.8422-2.1852-6.5247-0.97768-0.4463 0.7896-1.2999 1.1338-1.8969 0.76477-0.74862-0.46267-0.92018 0.79571-0.55281 4.055 0.61079 5.419 3.212 8.6603 11.57 14.417 6.8256 4.7014 9.1234 5.9232 12.192 6.4832 5.93 1.0819 10.853 2.7933 11.996 4.1696 1.3906 1.6756 3.0032 1.109 3.0032-1.0552zm9.6083-5.6286c1.4196-7.4162 1.2241-10.445-0.60122-9.3168-0.55388 0.34232-1.0071 2.8458-1.0071 5.5634 0 2.9287-0.44828 4.941-1.1007 4.941-0.68918 0-0.96827-1.665-0.7465-4.4535 0.2331-2.9308 0.0166-4.1159-0.63309-3.4662-1.3264 1.3264-0.6735 13.207 0.77493 14.102 1.6378 1.0122 1.7621 0.73582 3.3136-7.3697zm18.383 3.6986c0.67967-0.81894 1.6038-1.2615 2.0537-0.98348 0.44986 0.27804 2.4867-0.62692 4.5262-2.011 2.0396-1.3841 4.5678-2.5165 5.6184-2.5165 2.7489 0 7.2392-2.4921 16.012-8.8866 4.2357-3.0874 9.9369-7.1756 12.669-9.085 5.1143-3.5737 6.1294-5.6491 6.1294-12.531 0-1.7889-0.675-3.8128-1.5-4.4974-1.7261-1.4325-2.0591 0.0409-0.38713 1.7129 1.3457 1.3457 0.3347 3.2871-1.7117 3.2871-2.5628 0-9.643 4.0857-16.87 9.7352-3.833 2.9962-8.7075 6.3346-10.832 7.4185-2.1247 1.0839-4.6136 3.3054-5.5308 4.9365s-2.6477 3.2187-3.8454 3.528c-1.1977 0.30927-2.4211 1.1967-2.7186 1.9721-0.75053 1.9559-3.2979 1.7643-4.5236-0.34025-0.89466-1.536-1.0367-1.4444-1.1615 0.75-0.0782 1.375-0.31143 3.9625-0.51828 5.75-0.40331 3.4854 0.59576 4.1645 2.5905 1.761zm33.9-13.011c4.2614-2.5868 10.068-7.0822 10.088-7.809 0.024-0.90912 0.0608-0.92904-9.2286 4.9929-3.7125 2.3667-6.75 4.7718-6.75 5.3448 0 0.64583 0.8064 0.55331 2.1219-0.24345 1.167-0.70685 2.8632-1.7352 3.7692-2.2852zm-26.835-0.72286c1.619-1.7726 2.9436-3.8489 2.9436-4.6141s1.9125-3.1603 4.25-5.3225l4.25-3.9312-7.3114 4.7329c-6.2507 4.0463-7.2294 5.0595-6.7463 6.9841 0.31076 1.2382 0.11337 2.5304-0.43865 2.8715-1.0612 0.65586-1.3913 2.5023-0.4473 2.5023 0.306 0 1.881-1.4503 3.5-3.2229zm-28.556 0.22286c-0.33992-0.55-1.068-1-1.618-1s-0.72189 0.45-0.38197 1 1.068 1 1.618 1 0.72189-0.45 0.38197-1zm16.198-2.25c7.8072 0.83905 4.4136-0.57279-5.0002-2.0802-8.1918-1.3118-8.698-1.2893-8.698 0.38535 0 2.256 1.6538 2.8068 5.6982 1.8977 1.759-0.39539 5.359-0.48667 8-0.20284zm-22.198-2.7445c0-0.7996-4.3757-2.7956-11-5.0178-6.05-2.0295-13.8-5.107-17.221-6.8389-3.4218-1.7319-6.7968-3.1204-7.5-3.0855-0.70319 0.0349-0.26602 0.47036 0.97148 0.96777 1.2375 0.49742 2.25 1.3659 2.25 1.93s2.5875 2.3114 5.75 3.8828c3.1625 1.5715 8.1103 4.0494 10.995 5.5066 2.8848 1.4572 6.2598 2.681 7.5 2.7197 1.2402 0.0387 3.1549 0.45526 4.2549 0.92578 2.5255 1.0803 4 0.71516 4-0.99051zm5.3034-1.8597c-1.4926-0.56945-2.1084 0.62565-1.3196 2.561 0.6816 1.6723 0.782 1.6583 1.4894-0.20687 0.41718-1.1 0.34076-2.1594-0.16983-2.3542zm38.357-8.7832c10.579-7.0484 15.63-10.973 14.971-11.631-1.0511-1.0511-11.827 6.0124-24.328 15.947-6.6632 5.2952-9.5107 6.6073-8.4735 3.9045 0.73529-1.9161-1.2664-2.5369-10.227-3.172-4.1814-0.29632-8.615-0.74354-9.8525-0.99383-2.6504-0.53604-3.0349-2.4088-0.5-2.4351 0.9625-0.01-3.65-2.8553-10.25-6.3228-12.209-6.4142-27.15-15.754-31.285-19.558-2.6391-2.4269-3.2308-2.5857-3.1733-0.85152 0.06 1.8119 16.468 13.393 27.568 19.459 5.2429 2.8648 11.036 6.5285 12.873 8.1415 2.6358 2.3142 4.6769 3.0777 9.6789 3.6206 8.1589 0.88539 13.839 2.3497 13.839 3.5676 0 2.397 4.2971 0.22694 19.16-9.676zm-42.743 5.7711c0.86499-1.3996-1.3196-2.9042-14.227-9.7991-3.6795-1.9655-11.078-6.6498-16.44-10.41-7.7606-5.4412-9.75-6.454-9.75-4.9638 0 1.0297-0.43981 2.0222-0.97736 2.2055-0.53754 0.18333-1.2839 1.8714-1.6586 3.7512-0.56796 2.8496-0.4211 3.318 0.8834 2.8174 0.91033-0.34933 2.3357 0.25387 3.4086 1.4425 2.7284 3.0228 14.486 8.6557 25.844 12.381 11.031 3.6183 12.136 3.8386 12.917 2.5747zm-14.417-4.6204c-5.225-1.7717-11.293-4.1869-13.485-5.3672-2.1919-1.1803-4.4419-2.161-5-2.1793-1.6332-0.0535-5.8638-3.9511-5.1085-4.7064 0.3793-0.3793 1.4555-0.15196 2.3917 0.50519 2.6736 1.8769 12.166 6.2532 18.202 8.3916 3.025 1.0717 6.2814 2.3748 7.2364 2.8957 0.95504 0.52094 2.391 0.94717 3.191 0.94717 1.3812 0 3.1673 1.7943 2.4227 2.4338-0.19258 0.16539-4.6251-1.1488-9.8501-2.9205zm63.114 2.4836c1.862-1.6517 4.8449-4.0142 6.6287-5.25s3.2462-2.622 3.25-3.0804c4e-3 -0.45837-1.2307 0.12716-2.7432 1.3012-1.5125 1.174-4.8875 3.7288-7.5 5.6772s-4.75 3.7254-4.75 3.9488c0 1.1473 2.0897 0.0863 5.1145-2.5969zm-24.114-0.92955c0-1.3792-3.7501-2.3237-8.4025-2.1161-2.2536 0.10054-4.9521 0.17555-5.9966 0.16669-3.73-0.0316-0.0547 1.7598 4.3991 2.1442 8.7297 0.75352 10 0.72878 10-0.19477zm1-7.0322c0-4.1719 1.8032-6.0352 5.8406-6.0352 1.3821 0 1.8382-0.52358 1.5244-1.75-0.51145-1.9993 6.666-7.074 20.635-14.59 8.9762-4.8294 16-10.558 16-13.05 0-2.3558 2.1788-3.0859 3.5624-1.1938 1.1698 1.5998 1.3057 1.5746 1.9183-0.35544 0.72006-2.2687 0.96253-23.951 0.27552-24.638-0.23317-0.23317-2.4076 2.5013-4.8321 6.0766s-5.0224 6.5005-5.7731 6.5005c-0.83445 0-1.1288-0.61546-0.75727-1.5836 0.33422-0.87096 0.25827-1.4335-0.16877-1.25-1.4996 0.64423-12.48 7.3905-21.059 12.938-17.546 11.347-20.179 13.106-20.583 13.761-0.22727 0.36774 0.0165 4.4859 0.54162 9.1516 0.84567 7.513 0.40293 16.844-0.74476 15.696-0.23181-0.2318-0.63675-4.4246-0.89987-9.3174-0.68176-12.677-0.7224-12.812-3.8181-12.696-1.4641 0.055-3.7567 0.145-5.0946 0.2-3.153 0.12961-3.5922 1.7008-4.0651 14.54l-0.38735 10.517 5.6925-0.5686c3.1309-0.31272 6.8175-0.10664 8.1925 0.45796 3.8184 1.5679 4 1.4402 4-2.8115zm45.5-51.035c0.33992-0.55 0.81648-1 1.059-1s0.44098 0.45 0.44098 1-0.47656 1-1.059 1-0.7809-0.45-0.44098-1zm-30.5 45.973c0.275-0.29618 2.8625-2.0331 5.75-3.8599s5.25-3.5382 5.25-3.8032c0-1.0348-13.626 7.0267-15.702 9.2899-1.2111 1.3202-2.5257 2.4004-2.9213 2.4004-1.063 0-4.3767 3.1704-4.3767 4.1874 0 0.71154 10.187-6.2619 12-8.2145zm-40 3.1876c0-2.1457-0.67194-3.127-2.75-4.0163-2.5393-1.0866-2.6024-1.0614-0.823 0.32916 4.4532 3.4801 0.17648 2.096-11.322-3.664-9.8336-4.9262-13.08-7.107-16.345-10.978-4.4022-5.2207-5.887-6.0309-5.0273-2.7432 0.67546 2.583 11.978 10.576 25.536 18.059 5.6272 3.1059 10.344 5.6934 10.481 5.75 0.1375 0.0566 0.25-1.1748 0.25-2.7365zm5 0.83948c0-1.1111-0.66667-2-1.5-2-1.8275 0-1.8914 0.63991-0.25 2.5042 1.6476 1.8713 1.75 1.8418 1.75-0.50417zm0.11588-5.75c0.0637-0.9625 0.0805-3.4523 0.0373-5.533s0.34349-4.8931 0.85937-6.25c0.8502-2.2362 0.69118-2.467-1.6994-2.467-1.4506 0-4.7019-1.1935-7.2252-2.6522-4.7156-2.7261-19.027-13.275-22.588-16.65-1.1-1.0424-4.5875-3.9022-7.75-6.3552l-5.75-4.4598 0.11831 7.8084c0.16833 11.109 0.69007 12.527 7.3087 19.867 6.4574 7.1613 11.573 10.683 11.573 7.967 0-2.2494 0.72714-1.9358 5.7373 2.4743 2.7764 2.4439 5.5593 4.0102 7.1534 4.0262 1.4351 0.0144 4.4092 0.878 6.6092 1.9191 5.0827 2.4052 5.4754 2.4265 5.6159 0.30472zm39.884-7.9452c0-0.49414-5.1228 2.3571-7.25 4.0352-3.7649 2.97-1.4943 2.6007 2.75-0.44734 2.475-1.7774 4.5-3.3919 4.5-3.5878zm11.139-3.8984c2.937-1.9764 6.4697-4.2084 7.8505-4.96 1.3808-0.75152 1.9008-1.3844 1.1555-1.4064-0.74523-0.022-3.3553 1.31-5.8001 2.96-2.4448 1.65-4.8726 3-5.395 3s-0.94987 0.38123-0.94987 0.84719c0 0.46595-1.0125 1.3355-2.25 1.9323-1.2375 0.59682-1.7327 1.1156-1.1005 1.1528 0.63223 0.0372 3.5525-1.5494 6.4895-3.5259zm17.665-8.5956c0.40416-3.3963-2.2956-4.3896-5.695-2.0954-2.5954 1.7516-2.5973 1.7626-0.3591 2.0922 2.5732 0.37897 2.9626 1.7048 0.75 2.5539-0.825 0.31658-1.5 1.041-1.5 1.6098 0 0.65378 1.1956 0.54876 3.25-0.28547 2.2967-0.93263 3.3392-2.0692 3.5541-3.8751zm-63.216 2.6402c5.3708-0.37337 7.3314-1.0068 10.275-3.3192 2.0006-1.5718 5.1587-3.707 7.018-4.7448 5.0282-2.8067 7.2227-4.2094 27.533-17.599 6.7825-4.4712 9.1261-5.5669 9.8018-4.5823 0.69191 1.0083 1.1525 0.87559 2.0862-0.60109 0.65903-1.0423 2.6536-3.8493 4.4324-6.2378 2.8429-3.8175 3.0953-4.6475 2.0864-6.8618-0.69211-1.519-4.3294-4.3542-9.1621-7.1417-10.673-6.156-17.179-10.766-22.854-16.192-4.5008-4.3034-5.0061-4.515-12.186-5.1022-8.4293-0.68947-9.6187-0.50231-9.6187 1.5135 0 0.77917-0.5625 1.4224-1.25 1.4293-1.5633 0.0158-12.986 5.7622-13.714 6.8987-0.29499 0.46091-4.5863 2.9222-9.5363 5.4695-10.224 5.2612-12.689 6.6729-20.769 11.892-3.1732 2.0497-6.1409 3.7268-6.595 3.7268-2.138 0-4.4931 4.3481-4.6712 8.6245-0.17577 4.2194 0.15 4.9006 4.0729 8.5166 2.3452 2.1617 5.8525 5.1518 7.7941 6.6446s7.0795 5.4847 11.418 8.8708c7.8108 6.0967 15.076 10.342 16.476 9.6264 0.3989-0.20373 3.7121-0.57805 7.3626-0.83183zm-5.5879-8.3287c0-2.622 2.6499-4.5387 6.6265-4.7931 2.8207-0.18045 3.3735 0.12551 3.3735 1.8672 0 2.7775-2.7658 4.7327-6.75 4.7717-2.524 0.0247-3.25-0.38763-3.25-1.8458zm5.5265-0.92931c-0.30789-0.30789-1.1148-6.4e-4 -1.7931 0.68278-0.98026 0.98762-0.8654 1.1025 0.5598 0.5598 0.98622-0.37553 1.5412-0.93469 1.2333-1.2426zm4.9735-21.046c-3.9605-1.2945-8.5-4.2241-8.5-5.4855 0-1.8039 4.949-6.326 8.3151-7.5978 1.5483-0.58499 4.7781-1.0636 7.1774-1.0636 3.5073 0 4.7634 0.50983 6.4083 2.6011 1.8987 2.4138 1.9364 2.813 0.52403 5.5442-2.6915 5.2048-8.5878 7.7461-13.925 6.0016zm9.5-4.0797c2.959-2.0925 3.6883-5.2511 1.6107-6.9754-2.3944-1.9872-10.338-0.30744-13.994 2.9591-3.503 3.1299-3.3352 3.5772 2.0586 5.4892 4.2357 1.5014 6.5944 1.1649 10.324-1.4728zm-58.75 2.2143c-2.0851-0.74763-1.4199-2.7246 2.0476-6.0854 3.5763-3.4663 5.7024-4.0856 5.7024-1.661 0 3.63-5.0771 8.7048-7.75 7.7464zm85-6.9438c-1.3663-0.5513-1.7419-3.3377-0.45-3.3377 0.44 0 1.3529 0.55293 2.0287 1.2287 0.97165 0.97165 1.1704 0.71994 0.95-1.2031-0.24617-2.1476 0.15945-2.4685 3.4713-2.7458 4.6742-0.39146 5.0472 1.6603 0.84563 4.6521-2.8837 2.0534-4.4458 2.3742-6.8456 1.4058zm-30.098-23.223c-2.631-1.6673-0.75364-4.3454 4.1396-5.9052 7.2036-2.2962 9.1697 1.3148 2.7732 5.0933-3.19 1.8844-4.903 2.0856-6.9127 0.81194zm7.428-3.8686c-0.70629-0.70628-4.5796 0.81585-4.5796 1.7997 0 0.50114 1.1269 0.39772 2.5042-0.22983 1.3773-0.62755 2.3112-1.334 2.0754-1.5699zm103.56 325.82c-1.6367-5.4628-10.101-12.068-15.464-12.068-1.3511 0-4.3767-0.8597-6.7236-1.9104-3.5693-1.598-5.7676-1.8209-13.443-1.363-7.6738 0.45782-10.226 0.19919-15.592-1.5802-3.5291-1.1702-8.4416-2.5582-10.917-3.0846-2.475-0.5263-8.2299-1.9572-12.789-3.1798-8.0813-2.1673-8.426-2.1796-13.779-0.49213-3.0198 0.95191-6.0356 2.6036-6.7019 3.6704-1.2064 1.9318-3.7303 2.6855-3.7303 1.114 0-1.0854 3.9165-4.6237 6.7132-6.0648 3.2114-1.6548 16.048-1.5198 21.287 0.22393 7.1344 2.3746 17.25 4.7502 17.816 4.1841 0.28464-0.28464-0.18433-0.51752-1.0422-0.51752-1.7205 0-3.162-2.642-1.8754-3.4372 0.98097-0.60627 5.3552 3.8504 4.5598 4.6457-0.6107 0.6107 5.0072 2.7914 7.1911 2.7914 0.74293 0 1.2975-0.3375 1.2324-0.75-0.3081-1.9513 0.24674-2.3884 1.603-1.2628 1.536 1.2748 13.226 1.5568 16.85 0.40654 1.5098-0.4792 1.8267-0.25721 1.3619 0.95411-0.46564 1.2134 0.25118 1.7097 3.0987 2.1452 10.916 1.6695 18.461 6.139 21.765 12.893 2.2328 4.5646 2.3998 6.6143 0.53877 6.6143-0.43048 0-1.3128-1.7692-1.9606-3.9315zm-244.64 0.93151c-0.33992-0.55 0.0835-1 0.94098-1 0.85746 0 1.559 0.45 1.559 1s-0.42344 1-0.94098 1-1.2191-0.45-1.559-1zm114.92-12.615c-1.4595-3.7154-2.019-4.1116-8.7392-6.1874-8.875-2.7414-10.593-2.7463-16.485-0.0468-7.1022 3.2539-10.562 3.7467-18.686 2.6612-5.9226-0.79141-8.8288-0.67255-14.37 0.58771-6.1978 1.4096-7.4003 1.4193-11.168 0.0899-2.3225-0.81945-5.2912-1.4899-6.5971-1.4899s-2.3743-0.45-2.3743-1c0-1.4454 3.8305-1.204 8.8985 0.56078 3.9852 1.3878 5.0135 1.3774 10.945-0.11015 4.9162-1.2329 8.1792-1.4438 13.102-0.84681 8.8174 1.0694 12.3 0.6563 18.397-2.1828 5.5429-2.5808 10.246-3.0144 15.414-1.421 1.7839 0.55 4.5455 1.4048 6.1369 1.8997l2.8935 0.89966-3.0371-8.1497c-4.5175-12.122-6.1172-18.26-5.2942-20.313 0.52762-1.3159 1.3871 0.574 3.0303 6.663 2.2828 8.4597 4.1874 14.118 6.8232 20.271 2.3987 5.5996 3.8967 10.856 3.2717 11.481-0.33141 0.3314-1.3042-1.1838-2.1618-3.367zm-108.87-1.2998c-0.31089-0.50302 5e-5 -1.1048 0.69098-1.3372 1.726-0.58073 4.7562 0.29112 4.7562 1.3685 0 1.1689-4.7222 1.1418-5.4472-0.0312zm233.45-20.085c0-0.55 0.45-1 1-1s1 0.45 1 1-0.45 1-1 1-1-0.45-1-1zm-2.1875-19.683c0.72187-0.28887 1.5844-0.25335 1.9167 0.0789 0.33229 0.33229-0.25834 0.56864-1.3125 0.52522-1.165-0.048-1.4019-0.28494-0.60417-0.60416zm-53.812-3.3169c0-0.55 0.47656-1 1.059-1s0.7809 0.45 0.44098 1-0.81648 1-1.059 1-0.44098-0.45-0.44098-1zm-317.5-3.8314c-1.2166-1.2166 0.10882-2.5897 10.248-10.618 5.9125-4.6813 12.406-10.151 14.431-12.156 3.1442-3.1129 3.5101-3.9175 2.5095-5.5197-1.4231-2.2787-3.0176-2.3912-4.7254-0.33327-0.85548 1.0308-1.6126 1.2099-2.2825 0.53992s-0.29757-1.5962 1.1227-2.7924c1.1688-0.98446 3.4451-4.3361 5.0583-7.448l2.9332-5.6581-2.3982-2.0853c-2.4753-2.1522-3.0045-4.5933-1.508-6.9552 1.0736-1.6943 2.3518 0.0623 1.5554 2.1376-0.30841 0.80372 0.1878 2.2099 1.1027 3.1248 1.3456 1.3456 1.9492 1.4263 3.1592 0.42214 2.9349-2.4358 12.011-17.528 17.787-29.578 3.2298-6.7375 6.1299-12.25 6.4446-12.25 0.31469 0 1.2164-1.4555 2.0039-3.2345 0.78745-1.779 5.2848-7.0666 9.9941-11.75 9.4047-9.3536 13.279-12.608 17.062-14.334 1.375-0.62719 2.725-1.3869 3-1.6883 0.275-0.30137 2.525-1.416 5-2.4769s7.2656-3.8297 10.646-6.1528c8.1317-5.5887 14.972-8.9387 19.773-9.6839 2.1555-0.33456 4.1805-0.96246 4.5-1.3953 1.1672-1.5812 5.985-3.5346 7.389-2.9959 0.86484 0.33187 1.8421-0.31606 2.4392-1.6171 0.54788-1.194 2.3588-2.6773 4.0244-3.2962 2.8823-1.0711 3.0559-0.98682 3.6033 1.75 0.63398 3.1699 2.2903 3.852 2.8094 1.157 0.28647-1.4875 0.63218-1.395 2.5733 0.68856 3.1242 3.3535 2.8073 4.2264-1.2576 3.4638-1.925-0.36113-3.5-0.31754-3.5 0.0969 0 1.5126 9.1942 11.467 10.084 10.917 0.50402-0.3115 0.9164-1.6648 0.9164-3.0074 0-1.5031 0.57634-2.441 1.5-2.441 1.7774 0 1.8911 1.5796 0.41805 5.8052-1.2746 3.6562 0.33704 6.2023 3.4163 5.3971 1.6018-0.41887 1.778-0.12604 1.1446 1.9013-0.41183 1.318-2.0353 3.8714-3.6077 5.6742-1.5724 1.8028-3.8182 5.1778-4.9906 7.5-1.1724 2.3222-3.695 6.3685-5.6056 8.9917-1.9683 2.7024-3.2239 5.421-2.8971 6.2727 0.31725 0.82674-0.30158 2.3816-1.3752 3.4552-1.0736 1.0736-3.5934 5.2114-5.5996 9.1952-4.2767 8.4923-11.486 19.668-14.374 22.281-1.116 1.01-2.0291 2.3058-2.0291 2.8797s2.7596-1.8584 6.1325-5.405c3.3729-3.5466 9.4016-9.8234 13.397-13.948 7.7689-8.0205 7.4696-7.3617 11.474-25.25 1.5878-7.0924 2.5965-9.75 3.7006-9.75 1.8009 0 1.1745 4.9304-1.2419 9.7742-0.81641 1.6366-1.9642 5.6193-2.5507 8.8507-0.58647 3.2313-2.1447 7.6751-3.4628 9.8751-2.7302 4.557-24.228 26.834-32.365 33.538-2.9785 2.454-5.9035 4.9183-6.5 5.4762-1.6156 1.5111-9.6277 7.7667-12.149 9.4856-1.2101 0.825-4.9943 3.4187-8.4092 5.7637-7.8905 5.4184-10.026 6.5609-10.026 5.3633 0-0.51885 2.0242-2.2222 4.4982-3.7852 2.474-1.563 4.499-3.1793 4.5-3.5918 9.9e-4 -0.4125 0.47273-0.75 1.0483-0.75 1.238 0 16.01-11.277 15.474-11.813-0.20214-0.20215-2.8054 1.473-5.7849 3.7226s-5.8783 4.0902-6.4416 4.0902-2.2365 0.95356-3.7182 2.119c-1.4816 1.1655-6.0696 3.8975-10.195 6.0712-4.1258 2.1737-9.1617 5.0792-11.191 6.4566-3.0379 2.0621-4.4244 2.3943-7.8508 1.8808-2.5014-0.37484-4.4197-0.20555-4.809 0.42439-0.94748 1.533-3.616 1.2798-5.6196-0.53338-1.602-1.4498-1.9205-1.4082-3.8287 0.5-2.6578 2.6578-5.1083 2.6346-8.5606-0.081-2.4617-1.9364-2.9851-2.0148-5.0078-0.75-3.344 2.0909-9.3871 6.9942-12.912 10.476-5.8624 5.7918-9.7951 7.915-14.844 8.0136-2.6144 0.0511-4.9793-0.13294-5.2553-0.40899zm16.078-7.4309c8.7376-7.7664 15.114-12.738 16.339-12.738 1.9387 0 1.1382-1.8473-1.1097-2.5608-1.6798-0.53317-2.7557-0.0237-4.6089 2.1826-5.1932 6.1828-11.877 12.844-15.6 15.547-2.145 1.5574-3.2342 2.8316-2.4204 2.8316s4.1438-2.368 7.4-5.2623zm29.42-11.738c0.7257-1.356 0.73703-2 0.0352-2-1.706 0-1.1685-1.7264 0.71482-2.2959 5.0924-1.5399 14.379-5.1564 19.042-7.4157 5.614-2.7201 8.7328-5.3683 13.906-11.808 2.0042-2.495 3.217-3.3844 3.25-2.3834 0.0289 0.87834-0.84737 2.6347-1.9474 3.903-2.7253 3.1424-2.5117 3.5589 0.75 1.4622 6.487-4.17 11.167-8.1731 28.699-24.547 3.8778-3.6216 8.793-8.1216 10.923-10s6.6214-6.7902 9.9818-10.915c3.3604-4.125 7.6477-9.182 9.5273-11.238 4.024-4.4011 9.8346-13.781 10.719-17.303 0.34204-1.3628 1.022-2.7251 1.5111-3.0274 1.5829-0.97828 0.9441-4.0726-1.2442-6.0265-1.1734-1.0478-3.8112-4.1642-5.862-6.9255-2.6506-3.569-4.4913-5.0836-6.3666-5.2388-1.4509-0.12008-2.638 0.22663-2.638 0.77047s-0.60526 0.9888-1.345 0.9888c-2.1421 0-4.9439 3.7383-5.054 6.7434-0.0739 2.0175-0.56016 2.6802-1.8135 2.4714-1.0982-0.1829-2.6837 1.252-4.4197 4-1.489 2.3569-3.8683 6.0719-5.2875 8.2555-1.4192 2.1837-10.568 11.968-20.33 21.743-9.7625 9.7752-17.75 18.507-17.75 19.404 0 1.9032-7.1925 8.4692-14.061 12.836-2.6357 1.6757-9.2127 6.0198-14.616 9.6536-5.403 3.6337-11.736 7.5804-14.074 8.7703-2.3375 1.1899-4.25 2.8294-4.25 3.6432 0 0.92076-0.96662 1.4797-2.559 1.4797-1.4514 0-2.2915 0.43284-1.941 1 1.1399 1.8444 3.2865 1.0276 8.5414-3.25 7.4221-6.0418 12.041-9.0053 12.802-8.2142 0.36127 0.37555-0.46815 1.4198-1.8432 2.3206-1.375 0.90074-4.525 3.4887-7 5.751-5.2455 4.7947-8.0152 6.3927-11.08 6.3927-2.1528 0-2.1399 0.0666 0.48578 2.5 3.1806 2.9477 3.4034 2.9829 5.7028 0.90204 0.97115-0.87888 2.2441-1.3023 2.8287-0.94098 1.6687 1.0313 1.2504 2.2567-0.96839 2.8369-1.9693 0.51499-1.9541 0.61469 0.5 3.2627 1.3923 1.5023 2.5314 3.1157 2.5314 3.5854 0 1.667 2.9463 0.82281 4-1.146zm10.5-1c0.33992-0.55-0.28197-1-1.382-1s-2.2781 0.45-2.618 1 0.28197 1 1.382 1 2.2781-0.45 2.618-1zm11-1c1.65-1.0928 2.55-1.9868 2-1.9868s-2.35 0.89407-4 1.9868-2.55 1.9868-2 1.9868 2.35-0.89407 4-1.9868zm-3.2246-1.8423c0.97646-0.38594 2.4368-1.9766 3.2453-3.5349 1.3575-2.6167 1.3365-2.7782-0.27539-2.114-0.95989 0.39557-3.8044 1.4662-6.3212 2.3792-3.4044 1.235-4.3005 1.961-3.5 2.8359 1.1998 1.3113 4.1572 1.4985 6.8514 0.43368zm11.861-3.2275c2.2314-1.1384 3.8414-2.2854 3.5778-2.549-0.40187-0.40188-7.3081 2.9797-8.6312 4.2262-1.0731 1.011 1.3801 0.19676 5.0534-1.6772zm-1.0724-3.6273c2.608-1.5406 4.4912-4.0807 3.6495-4.9224-0.77958-0.77958-7.2421 3.4956-7.5372 4.9861-0.40867 2.0645 0.30468 2.0528 3.8877-0.0637zm19.852-7.9384c1.3723-1.2007-1.8825-0.0856-3.4755 1.1906-1.8303 1.4664-1.7984 1.4872 0.55887 0.36454 1.375-0.65484 2.6875-1.3547 2.9167-1.5552zm-2.5605-2.9104c2.5541-1.9502 4.6438-3.9686 4.6438-4.4853 0-1.4589-8.9366 4.3848-10.37 6.7811-1.3489 2.2547 1.0003 1.3129 5.7264-2.2958zm-58.372-2.2632c-0.0132-1.4573-0.14929-1.4837-0.98469-0.19098-1.2656 1.9584-1.2656 3.2822 0 2.5 0.55-0.33992 0.99311-1.379 0.98469-2.309zm7.097-0.99709c-0.61097-0.20365-0.81533-1.407-0.47155-2.7766 0.35932-1.4316 0.16909-2.4172-0.46654-2.4172-1.1209 0-2.4744 2.1098-4.105 6.3985l-0.9631 2.5331 3.5422-1.6892c1.9482-0.92904 3.057-1.8509 2.464-2.0486zm63.918-3.8038c2.475-2.3194 7.425-6.7252 11-9.7908 8.0709-6.9208 7.028-5.8807 13.636-13.599 5.1782-6.0488 10.817-15.881 9.7307-16.967-0.26132-0.26133-0.78817-0.0114-1.1708 0.55532-5.2924 7.8399-17.284 21.114-21.757 24.083-3.8938 2.5854-5.1372 3.9045-4.2276 4.4852 0.92896 0.59314-0.55712 2.5697-5.3253 7.0828-7.0614 6.6837-10.645 10.89-7.8862 9.2556 0.825-0.4886 3.525-2.786 6-5.1054zm-53.38-2.1588c8.0596-5.3554 12.573-8.722 20.13-15.014 5.4797-4.563 7.2699-7.7504 2.5-4.4511-1.5125 1.0462-5.9 3.3541-9.75 5.1287-11.716 5.4002-16.338 8.853-19.07 14.244-1.3549 2.6738-2.1184 4.8531-1.6967 4.8429 0.42177-0.0103 3.971-2.1478 7.8873-4.75zm61.88-1.2313c0.33992-0.55 0.14148-1-0.44098-1s-1.059 0.45-1.059 1 0.19844 1 0.44098 1 0.7191-0.45 1.059-1zm8.5-3c0-0.55-0.19844-1-0.44098-1s-0.7191 0.45-1.059 1-0.14148 1 0.44098 1 1.059-0.45 1.059-1zm-73.031-6.5c0-0.55-0.43621-0.325-0.96937 0.5s-0.96937 1.95-0.96937 2.5 0.43621 0.325 0.96937-0.5 0.96937-1.95 0.96937-2.5zm17.242-7.0453c7.269-3.58 11.67-6.6212 17.5-12.092 4.2837-4.0201 10.768-9.9088 14.41-13.086 3.6419-3.1771 9.2669-9.5728 12.5-14.213 3.2331-4.6398 7.5658-10.315 9.6283-12.612 5.4336-6.0505 5.0616-6.8147-3.0351-6.2354-5.9234 0.42381-13.708 2.8898-15.215 4.8195-0.275 0.35227-2.913 2.2882-5.8622 4.3021-2.9492 2.0139-4.6471 3.6616-3.7731 3.6616 0.87404 0 2.3398 1.1456 3.2572 2.5457 1.4442 2.2041 1.4994 3.1099 0.41137 6.75-2.1913 7.3312-7.2033 15.78-12.7 21.41-1.1918 1.2206-2.7668 3.044-3.5 4.0519-0.73316 1.008-2.9902 3.0801-5.0156 4.6048-3.5304 2.6576-3.7864 2.7041-6.1949 1.126l-2.5124-1.6462 3.3269-2.9211c4.1058-3.6049 6.8626-3.9334 3.5666-0.42502-1.2897 1.3728-2.0061 2.8349-1.5919 3.2491 1.1559 1.1559 15.112-14.544 18.441-20.745 5.6983-10.614 5.9409-16 0.72074-16-2.1558 0-7.3541 4.6941-9.3296 8.4249-0.56061 1.0587-1.7511 2.0323-2.6454 2.1635-2.4778 0.36366-7.7427 5.2485-12.838 11.912-4.1148 5.3807-12.313 21.146-14.248 27.4l-0.74256 2.4 2.865-2.0311c1.5758-1.1171 7.2352-4.1835 12.576-6.8141zm7.7967-19.205c7e-3 -0.68003 1.5771-3.4025 7.4918-12.994 1.9502-3.1625 3.5-4.1941 3.5-2.3298 0 1.3561-9.3674 16.026-10.25 16.052-0.4125 0.0122-0.74633-0.31541-0.74184-0.72791zm11.992-19.25c0-0.55 0.675-1 1.5-1s1.5 0.45 1.5 1-0.675 1-1.5 1-1.5-0.45-1.5-1zm-35.618 42.448c0.34149-0.88992 0.17385-1.2913-0.39301-0.94098-0.5437 0.33602-0.98855 1.0344-0.98855 1.5519 0 1.4384 0.71677 1.1215 1.3816-0.61096zm3.2813-7.6981c0.76366-1.5125 1.1635-2.75 0.88847-2.75-0.78495 0-3.5602 5.7548-3.4724 7.2003 0.053 0.87303 0.2622 0.80727 0.6372-0.20034 0.30704-0.825 1.1831-2.7375 1.9467-4.25zm7.6676-15.5c1.11-1.2375 1.6022-2.2251 1.0939-2.1947-1.1692 0.07-5.2063 5.1457-6.0402 7.5942-0.40018 1.175 0.0192 0.93796 1.149-0.64948 0.97854-1.375 2.6874-3.5125 3.7974-4.75zm-1.2029-4c1.2439-1.5861 1.2085-1.6214-0.37756-0.37756-0.9625 0.75485-1.75 1.5424-1.75 1.75 0 0.82304 0.82119 0.29331 2.1276-1.3724zm10.357-12.281c1.592-1.9807 1.3448-1.8881-1.25 0.46822-1.7789 1.6154-3.2344 3.335-3.2344 3.8214 0 0.93531 1.232-0.24324 4.4844-4.2896zm10.964-5.3347c2.7785-2.6762 5.9247-5.4784 6.9915-6.227 1.0668-0.74863 1.7091-1.5918 1.4272-1.8736-0.28184-0.28184-1.4734 0.38281-2.6478 1.477s-2.5432 1.9894-3.0415 1.9894c-1.2775 0-10.919 9.6352-12.302 12.294-1.0822 2.0808-0.98633 2.064 1.6864-0.29382 1.5586-1.375 5.1072-4.6896 7.8857-7.3658zm77.552-13.575c0-0.51754-0.45-1.2191-1-1.559s-1 0.0835-1 0.94098c0 0.85746 0.45 1.559 1 1.559s1-0.42344 1-0.94098zm-4.036-3.309c-0.0198-0.6875-1.1315-2.5908-2.4705-4.2295-1.9188-2.3483-2.6936-2.7204-3.6574-1.7566s-0.6127 1.8598 1.6576 4.2295c3.0741 3.2086 4.5286 3.7802 4.4704 1.7566zm-33.214-3.7495c-1.5125-0.45516-3.9875-0.45516-5.5 0-2.2257 0.66978-1.7013 0.82756 2.75 0.82756s4.9757-0.15778 2.75-0.82756zm-5.1696-4.7535c-0.45746-0.45746-6.5804 2.5782-6.5804 3.2625 0 0.25198 1.5694-0.29023 3.4874-1.2049 1.9181-0.91468 3.3099-1.8406 3.0929-2.0576zm13.22 2.553c2.1394-2.1394 1.2797-2.9039-2.55-2.2674-6.0402 1.0038-7.1082 1.6334-4.25 2.5054 3.7615 1.1475 5.4745 1.0876 6.8-0.23797zm17.2-2.3c0-0.825-0.43588-1.5-0.96862-1.5-0.53273 0-0.70959 0.675-0.39301 1.5 0.31659 0.825 0.75246 1.5 0.96862 1.5 0.21615 0 0.39301-0.675 0.39301-1.5zm-24.289-2.1228c-0.60845-0.60844-4.7106 0.88762-4.7106 1.718 0 0.47406 1.1269 0.34848 2.5042-0.27907 1.3773-0.62755 2.3702-1.275 2.2063-1.4389zm22.06-2.5647c-0.21771-0.65313-0.93051-1.3657-1.584-1.5836-0.73075-0.24358-0.95424 0.21359-0.58051 1.1875 0.69752 1.8177 2.7645 2.1959 2.1645 0.39606zm-8.7708-1.8125c0-1.2644-2.0435-1.2644-4 0-1.1689 0.75538-0.89294 0.97275 1.25 0.98469 1.5125 0.00842 2.75-0.43469 2.75-0.98469zm29.154 76.448c0.19002-0.98026 0.95098-1.9839 1.691-2.2303 0.86063-0.28658 1.221 0.19425 1 1.3343-0.19002 0.98026-0.95098 1.9839-1.691 2.2303-0.86063 0.28658-1.221-0.19425-1-1.3343zm43.037-27.882c-1.6584-1.8889-3.2915-4.3044-3.629-5.3679-0.83638-2.6352 1.0321-7.1978 2.9476-7.1978 1.2324 0 1.3426 0.40615 0.52475 1.9343-2.0658 3.8599-1.1913 6.7763 3.1448 10.488 3.4422 2.9464 3.8135 3.5779 2.1036 3.5779-1.142 0-3.4333-1.5454-5.0918-3.4343zm103.81-5.5657c0-0.55 0.45-1 1-1s1 0.45 1 1-0.45 1-1 1-1-0.45-1-1zm-95.694-2.4394c-2.2686-1.9724-2.6006-2.7746-1.7343-4.1905 1.8637-3.0458 3.8034-2.9996 3.0324 0.0723-0.59217 2.3594-0.29222 2.8489 2.3589 3.8496 1.6705 0.63055 3.0373 1.4978 3.0373 1.9272 0 1.6616-4.0214 0.6652-6.6942-1.6586zm89.694-8.3381c0-2.9914-2.9286-6.2225-5.64-6.2225-1.5766 0-2.3701-0.47-2.1104-1.25 0.77588-2.3302 3.7049-1.902 6.3613 0.92998l2.6451 2.82-0.73291-2.5c-1.4801-5.0486-4.1558-8.4088-8.5361-10.72-4.5513-2.4012-6.2471-4.2938-3.8204-4.2638 0.73333 9e-3 3.1242 1.0307 5.313 2.2704 5.4562 3.0902 8.4824 8.7244 8.3052 15.462-0.076 2.8879-0.50865 5.2508-0.96148 5.2508-0.45282 0-0.82332-0.79987-0.82332-1.7775zm-106-147.22c0-2.1358 1.5816-2.7552 2.2113-0.86607 0.40853 1.2256 3.7887-1.5852 3.7887-3.1506 0-0.48058-2.1375-1.0109-4.75-1.1786-4.3786-0.28096-4.7752-0.52486-5.0727-3.1194-0.17746-1.548 0.39541-3.9105 1.273-5.25 1.7422-2.6589 5.5496-3.3222 5.5496-0.96674 0 0.85942-0.5904 1.242-1.4233 0.92244-1.682-0.64547-3.9844 3.1041-3.1851 5.1871 0.72173 1.8808 4.2395 1.8255 4.97-0.0781 0.31658-0.825 1.2166-1.5 2-1.5 1.6711 0 2.8016-2.4111 2.0495-4.3711-0.54093-1.4097 2.0047-4.6289 3.6603-4.6289 0.51071 0 0.92857 0.675 0.92857 1.5s-0.45 1.5-1 1.5-1 0.48032-1 1.0674c0 1.4641 3.8576 0.14316 6.3424-2.1717 4.072-3.7937 5.9012 2.7002 2.0233 7.1831-2.9898 3.4563-0.36897 4.0968 3.1003 0.75773 1.9683-1.8944 2.136-2.6615 1.3483-6.1676-1.1284-5.0222-0.64918-6.2761 2.639-6.9047 3.746-0.71609 4.8217 1.8366 2.5914 6.1495-1.3339 2.5795-1.559 4.2786-0.92706 6.9966 0.45908 1.9744 0.84542 4.1522 0.85854 4.8398 0.0437 2.2903-2.0111 1.2881-3.0756-1.5-0.96537-2.5285-1.1535-2.609-2.3355-1-1.3588 1.8497-6.1085 2.3252-8.4448 0.84547-0.87387-0.55348-1.2137-2.0056-0.92675-3.9604 0.39309-2.6783 0.24492-2.9288-1.1202-1.8938-0.86529 0.65603-1.6736 1.2329-1.7962 1.282-0.79737 0.31909 2.1812 8.2092 3.4793 9.2164 1.8269 1.4176 1.0492 2.7834-1.1126 1.9539-0.79336-0.30444-1.9921-2.2725-2.6639-4.3735-1.7959-5.6165-3.2081-6.6076-2.4243-1.7015 0.5721 3.581 0.35399 4.3314-1.6713 5.75-3.2297 2.2621-5.8843 2.0959-5.8843-0.36854zm17.655-12.543c0.93028-2.4243-0.36778-2.8619-1.6091-0.54252-0.77398 1.4462-0.7892 2.0856-0.0496 2.0856 0.58661 0 1.333-0.69441 1.6587-1.5431zm9.0282-6.6444c-0.31922-0.79773-0.55618-0.56078-0.60416 0.60417-0.0434 1.0542 0.19293 1.6448 0.52522 1.3125s0.36781-1.1948 0.0789-1.9167zm83.596 19.381c-0.80672-0.51257-1.0101-2.0756-0.59939-4.6065 0.50628-3.1199 1.6122-4.5966 5.96-7.9589 2.9361-2.2705 4.9095-4.2728 4.3854-4.4496-1.4575-0.49146-7.8691 4.9208-10.154 8.5713-2.0321 3.2467-4.871 4.3924-4.871 1.9658 0-2.205 10.28-11.528 15-13.603 2.475-1.0882 9-2.9077 14.5-4.0433 5.5-1.1356 11.012-2.3433 12.25-2.6837 1.6607-0.45681 2.25-0.19549 2.25 0.99773 0 1.1312 0.90488 1.6166 3.0136 1.6166 1.6575 0 3.8894 0.54694 4.9598 1.2154 1.5346 0.95841 2.6936 0.94516 5.4806-0.0626 3.414-1.2345 5.546-0.92894 5.546 0.79492 0 0.45633-1.6875 1.1237-3.75 1.4831-4.4532 0.77592-28.313 7.5348-29.75 8.4275-0.55 0.3416-2.8 1.3061-5 2.1433-5.144 1.9575-9.9633 4.7909-14.03 8.2484-3.601 3.0618-3.4942 3.0218-5.1913 1.9436zm4.221-7.1936c0.33992-0.55 0.14148-1-0.44098-1s-1.059 0.45-1.059 1 0.19844 1 0.44098 1 0.7191-0.45 1.059-1zm12.6-8c0.49473 0 0.89951-0.44035 0.89951-0.97856 0-1.2767-4.5323 0.64819-8.75 3.7162-5.2812 3.8416-3.7051 4.4333 1.8505 0.6947 2.8053-1.8878 5.5053-3.4324 6-3.4324zm16.376-2.5616c1.9281-0.36171 3.2834-1.0173 3.0117-1.4568-0.70942-1.1479-9.1023 1.2671-15.239 4.3848-2.8875 1.467-5.25 2.8357-5.25 3.0414 0 0.2057 3.1435-0.90528 6.9856-2.4688s8.5632-3.1388 10.491-3.5005zm-12.729-3.0237c-0.60097-0.60097-7.6353 1.5941-8.2391 2.571-0.30985 0.50136 1.4983 0.20908 4.0181-0.6495 2.5198-0.85857 4.4192-1.7232 4.221-1.9215zm22.827-0.53535c0.84582-1.3686-0.98367-1.0352-3.1335 0.57097-1.8727 1.3992-1.8613 1.4302 0.32445 0.8793 1.2461-0.31404 2.5101-0.96666 2.809-1.4503zm-10.231-0.94342c6.9128-1.9453 3.3458-1.814-4.3438 0.15992-4.125 1.0589-5.7 1.6995-3.5 1.4235 2.2-0.27597 5.7297-0.9885 7.8438-1.5834zm-109.93 14.314c-0.37163-2.0625-1.0906-4.2745-1.5977-4.9156-0.50712-0.64109-0.78594-3.7911-0.61961-7l0.30242-5.8344 3.25 0.14745c1.8534 0.0841 3.2596-0.34566 3.2722-1 0.0122-0.6311 0.90891-2.2724 1.9926-3.6474 1.6779-2.1289 2.124-2.2773 3.0049-1 1.4187 2.0571 0.36659 6.9598-2.0443 9.5261-2.0094 2.139-1.7516 3.4739 0.67087 3.4739 1.9663 0 5.6167-7.8159 4.9294-10.554-0.68811-2.7417 0.91598-4.2126 1.8733-1.7178 0.53223 1.387 0.82075 1.4538 1.5039 0.34854 0.88107-1.4256 4.0471-0.81875 4.0471 0.77572 0 0.50312-0.9 1.1501-2 1.4378-1.6698 0.43666-2 1.364-2 5.6166 0 5.1752-1.6854 7.0127-2.7385 2.9856-0.49994-1.9118-0.67293-1.8187-1.8581 1-0.96684 2.2994-1.9569 3.108-3.8054 3.108-1.3742 0-2.9166-0.74696-3.4275-1.6599-1.6881-3.0165-3.4376 2.0818-2.6585 7.7471 0.80746 5.8709-1.062 6.9075-2.0971 1.1628zm2.5851-13.191c0-0.51754-0.45-1.2191-1-1.559s-1 0.0835-1 0.94098c0 0.85746 0.45 1.559 1 1.559s1-0.42344 1-0.94098zm5.3816-5.611c0.34149-0.88992 0.17385-1.2913-0.39301-0.94098-0.5437 0.33602-0.98855 1.0344-0.98855 1.5519 0 1.4384 0.71677 1.1215 1.3816-0.61096zm18.618-1.4481c0-3.3333 0.44444-6 1-6 0.55 0 1.0189 0.5625 1.0419 1.25 0.0231 0.6875 0.88919-0.325 1.9248-2.25l1.8828-3.5 1.3792 3.2365 1.3792 3.2365 1.2607-3.4865c1.649-4.5601 3.1134-4.4396 3.2016 0.26351 0.0794 4.2347 1.3077 8.0939 2.1273 6.6836 0.29841-0.51349 1.1563-3.375 1.9064-6.3588 1.109-4.4112 1.8809-5.6203 4.1299-6.4692 1.5763-0.59498 2.7661-1.8001 2.7661-2.8018 0-2.0529 4.43-5.2742 5.956-4.331 1.7638 1.0901 1.166 3.286-1.456 5.3485-2.7678 2.1772-3.2275 5.7932-1.4022 11.029 1.6121 4.6244 3.2746 3.9628 2.6041-1.0363-0.66454-4.9545 1.4228-9.8144 4.2153-9.8144 3.9337 0 3.1006 11.225-0.92808 12.503-1.0717 0.34015-1.9044 0.92853-1.8505 1.3075 0.2834 1.9904-0.2865 3.1891-1.5163 3.1891-2.1236 0-3.4462-2.1516-4.9623-8.0724l-1.3898-5.4276-0.73091 3.3243c-0.81578 3.7103-5.9878 10.176-8.1401 10.176-0.76645 0-2.0331-1.4625-2.8148-3.25l-1.4213-3.25-0.0969 3c-0.22402 6.9366-4.0134 7.1111-4.1475 0.19098l-0.0812-4.191-1.3737 3c-0.75553 1.65-1.394 4.2375-1.4188 5.75-0.0288 1.7577-0.58634 2.75-1.5451 2.75-1.1667 0-1.5-1.3333-1.5-6zm19.807-6.5265c-0.30789-0.30789-0.86705 0.24711-1.2426 1.2333-0.54268 1.4252-0.42782 1.5401 0.5598 0.5598 0.68342-0.67834 0.99067-1.4852 0.68278-1.7931zm14.163-1.7235c-0.0258-2.7617-0.18865-2.978-1.0837-1.4393-0.5793 0.9959-0.80474 2.4584-0.50098 3.25 0.92433 2.4088 1.6167 1.6176 1.5847-1.8107zm92.03 13.25c0-0.55 0.47656-1 1.059-1s0.7809 0.45 0.44098 1-0.81648 1-1.059 1-0.44098-0.45-0.44098-1zm-85.45-12.25c-1.5326-4.9437-1.261-7.2883 1.0976-9.4741 2.3865-2.2118 5.3526-3.0521 5.3526-1.5164 0 0.4177-0.9 1.3215-2 2.0085-1.5178 0.94785-2 2.332-2 5.7405 0 4.1361-1.541 6.1747-2.4503 3.2415zm13.627-1.4171c0.48655-2.5088 2.8233-2.8532 2.8233-0.4162 0 1.2283-0.64569 2.0833-1.5733 2.0833-0.93124 0-1.4414-0.68037-1.25-1.6671zm-192.32-7.8329c-0.32736-0.55-0.88492-2.6087-1.239-4.575-0.59345-3.2953-0.87755-3.5407-3.6313-3.1365-2.3596 0.34633-2.9875 0.94004-2.9875 2.825 0 1.4129-0.58876 2.3865-1.4432 2.3865-1.0061 0-1.3775-0.98433-1.2261-3.25 0.11939-1.7875 0.48474-3.7 0.81188-4.25s0.88771-2.6257 1.2457-4.6127c0.56889-3.1575 4.048-7.9364 4.9489-6.7978 0.89344 1.1291 4.7826 19.044 4.4733 20.606-0.19656 0.99277-0.62522 1.355-0.95258 0.80504zm-3.2832-13.953c-0.69947-3.7285-2.5747-4.9145-2.5747-1.6284 0 1.055-0.25804 2.5907-0.57343 3.4125-0.3575 0.93164 0.11318 1.6462 1.25 1.8977 2.5328 0.56033 2.651 0.33108 1.8982-3.6818zm120.91 4.2034c-0.24806-0.6875-0.57143-5.2637-0.71861-10.169-0.29672-9.89-1.6712-11.933-3.7634-5.5934-1.2793 3.8763-3.5444 6.8058-4.5132 5.837-0.25339-0.2534 0.39817-2.1454 1.4479-4.2044 1.0497-2.059 2.3695-5.0658 2.9329-6.6818 0.56333-1.616 1.7226-2.9381 2.5763-2.9381 0.91162 0 1.552-0.86939 1.552-2.107 0-1.6227-0.40222-1.9364-1.75-1.3648-2.6243 1.113-5.1551 1.0994-5.2699-0.0282-0.056-0.55 1.5315-1.3895 3.5278-1.8656 2.5323-0.60391 3.9587-1.662 4.7182-3.5 0.87379-2.1144 1.1708-2.289 1.5046-0.88441 0.25471 1.0716 1.3566 1.75 2.8426 1.75 3.4159 0 3.0238 1.7099-0.57332 2.5-2.2904 0.50305-3 1.2121-3 2.9977 0 1.2863-0.28471 3.0807-0.63269 3.9875-0.44411 1.1574 0.95226 3.1135 4.6852 6.5633 6.4036 5.9179 6.069 7.4539-0.52694 2.4191l-4.7298-3.6104 0.60861 9.0714c0.55761 8.3112 0.23875 11.028-0.91809 7.8214zm-23.346-4.3331c1.115-2.5207 1.7647-4.8457 1.4438-5.1667-0.32096-0.32095-0.58356-0.032-0.58356 0.64213s-0.425 0.96302-0.94444 0.64199c-1.2193-0.75359-1.2379-15.304-0.0205-16.056 0.53844-0.33277 0.42067-1.3769-0.28225-2.5025-1.1743-1.8804-1.2389-1.8726-2.4441 0.29636-0.68083 1.2253-1.2538 3.2403-1.2733 4.4778-0.0195 1.2375-0.45888 2.25-0.97642 2.25-1.837 0-2.026-1.8347-0.55238-5.3616 1.8566-4.4436 1.8534-4.6384-0.07801-4.6384-1.3207 0-1.5132-1.1902-1.2066-7.4601-2.1684-15.425 16.963-3.9247 14.253-1.519-1.3626 1.1309-1.3497 1.4598 0.12128 3.0852 0.90558 1.0006 1.3979 2.4671 1.0941 3.2588-0.74709 1.9469 0.33702 2.8573 1.8788 1.5778 0.87674-0.72763 1.4683-0.69145 1.9701 0.12048 1.0172 1.6458-1.5762 3.0749-4.5891 2.5289-1.7884-0.32411-2.9152 0.12255-3.7726 1.4954-1.12 1.7934-1.0567 1.854 0.75456 0.72286 2.792-1.7436 3.4206-0.63676 3.8983 6.8644 0.30067 4.7219 0.1002 6.4003-0.70505 5.9026-0.61885-0.38247-1.1252-1.7673-1.1252-3.0774 0-2.8626-1.3211-3.8502-4.009-2.9972-2.6988 0.85657-2.5363 2.7006 0.20362 2.31 3.6229-0.51647 3.7424 3.4572 0.32401 10.775-3.4745 7.4381-6.6111 9.1358-3.3789 1.8287zm0.84242-31.45c-1.7151-3.2047-2.4054-1.5485-0.84145 2.0188 0.81995 1.8703 1.4835 2.509 1.6725 1.6098 0.17228-0.81981-0.20168-2.4527-0.83102-3.6286zm-4.2991 0.84574c-0.31922-0.79773-0.55618-0.56078-0.60416 0.60417-0.0434 1.0542 0.19293 1.6448 0.52522 1.3125 0.33229-0.3323 0.36781-1.1948 0.0789-1.9167zm13.352 30.253c-2.0959-3.9162-0.12965-4.385 2.3729-0.56574 1.406 2.1459 1.4273 2.5 0.1502 2.5-0.81833 0-1.9537-0.87042-2.5231-1.9343zm-62.807-1.1051c-1.2497-0.50193-2.5341-1.5952-2.8542-2.4295-0.37953-0.98903-1.3505-1.324-2.7902-0.9627-1.823 0.45754-2.7641-0.34017-5.3957-4.5736-3.5006-5.6314-3.6351-5.9949-2.2175-5.9949 0.53358 0 1.9961 1.7965 3.25 3.9923 2.3422 4.1015 6.2487 5.6806 5.5898 2.2595-0.18561-0.96381-1.2281-1.749-2.3233-1.75-2.8153-3e-3 -2.592-3.737 0.29919-5.0018 2.7532-1.2044 2.723-5.1694-0.0358-4.7062-2.1351 0.35849-2.3395-1.6304-0.25-2.4322 2.398-0.92023 1.7607-3.3616-0.8776-3.3616-2.6636 0-5.1371-2.3582-4.1495-3.9562 0.35481-0.57409 1.9686-1.0438 3.5861-1.0438 2.9834 0 3.4107-0.61241 2.352-3.3712-0.46134-1.2022-0.97424-1.2941-2.3675-0.42397-1.965 1.2272-5.9463 0.24432-4.4608-1.1012 1.6168-1.4643 6.8181-2.6437 10.167-2.3053 3.503 0.35389 4.552 2.2016 1.25 2.2016-1.2959 0-2 0.66667-2 1.8937 0 1.7013 0.41817 1.7998 4.115 0.96912 4.9614-1.1147 7.885-0.35479 7.885 2.0496 0 2.1196-3.2502 5.2962-5.152 5.0354-0.74138-0.10165-2.5855-0.1315-4.098-0.0663-3.0766 0.13255-3.8466 2.1185-0.82143 2.1185 1.0607 0 2.6036 0.675 3.4286 1.5s1.934 1.5 2.4644 1.5c3.6635 0-0.29595 12.469-4.4624 14.054-3.969 1.509-1.8783 4.1055 3.0175 3.7478l4.1233-0.30134-0.25587-4c-0.25283-3.9524-0.23839-3.9703 1.2146-1.5 2.3071 3.9225 1.9268 6.9029-1.0238 8.0248-3.0471 1.1585-4.1883 1.1484-7.2071-0.0641zm2.3928-11.595c1.8536-4.4363 1.742-5.2731-0.62066-4.6552-1.2943 0.33846-2 1.364-2 2.9064 0 1.3108-0.45 2.3834-1 2.3834s-1 0.6-1 1.3333c0 2.6506 3.2734 1.2565 4.6207-1.9679zm-2.1526-6.7184c1.7413-1.2733 1.6937-1.3829-0.80887-1.8613-2.1086-0.40308-2.6592-0.12291-2.6592 1.353 0 2.2085 0.95212 2.348 3.4681 0.50834zm5.4207-10.078c0.61119-0.37774 1.1113-1.099 1.1113-1.6028 0-1.0399-5.9292-0.12921-7.592 1.1661-0.6006 0.46783-1.3881 0.55451-1.75 0.19262-0.36189-0.3619-0.65799-0.16998-0.65799 0.42648 0 1.1565 6.9533 1.0138 8.8887-0.18238zm14.264 27.184c-1.7763-1.7763-1.3682-2.9562 0.7859-2.2725 2.2821 0.7243 4.0609-1.9177 4.0609-6.0315 0-2.3556-0.31954-2.6212-2.6237-2.1808-1.9825 0.37897-2.7442 0.0409-3.1166-1.3834-0.27111-1.0367-0.89045-1.885-1.3763-1.885-1.7978 0-0.79585-2.2028 2.1166-4.6534 3.6707-3.0887 3.7839-4.6684 0.44361-6.1903-2.7752-1.2645-2.4731-3.4582 0.33842-2.4574 2.8597 1.018 4.218 2.4468 4.218 4.4371 0 1.9748-1.8898 5.918-3.3464 6.9826-0.83 0.60661 5.1031 3.3122 6.6172 3.0176 0.90194-0.17552 8e-3 4.0158-1.8192 8.5334-1.5381 3.802-4.5969 5.7852-6.2984 4.0837zm77.513 0.58013c-0.36667-0.36666-0.67281-2.7292-0.68032-5.25-8e-3 -2.5208-0.29209-5.6229-0.63239-6.8936l-0.61874-2.3102-2.7864 2.6695c-2.792 2.6749-6.1817 2.6415-3.9572-0.039 0.59886-0.72158 1.253-4.7315 1.4536-8.911 0.28961-6.0329 0.0752-7.599-1.0403-7.599-0.7728 0-1.4051-0.675-1.4051-1.5 0-1.164 1.3228-1.5 5.9048-1.5h5.9048l-0.45411 4.25c-0.24976 2.3375-0.59454 5.2625-0.76617 6.5-0.45814 3.3032 1.3611 2.7474 2.0349-0.62169 0.39589-1.9794 1.7636-3.5401 4.4018-5.0229 4.529-2.5454 5.5073-1.6266 3.4672 3.2562-2.1003 5.0267-1.8693 7.1975 1.0066 9.4597 1.375 1.0816 2.5 2.5176 2.5 3.1913 0 0.69645-1.4763 0.0987-3.4224-1.3856l-3.4224-2.6104-0.65457 2.9802c-0.77418 3.5248-2.3766 4.8083-3.5972 2.8813-1.2552-1.9817-1.1032-2.8781 0.48808-2.8781 1.7697 0 3.0658-4.9426 1.6638-6.3446-0.74048-0.74048-1.0554-0.73212-1.0554 0.028 0 0.59585-0.9 1.3187-2 1.6064-2.2326 0.58383-2.5926 4.6967-1.0907 12.46 0.7663 3.9612 0.34632 5.1723-1.2426 3.5833zm-0.79719-23.333c-0.0874-6.2085-0.69405-7.1212-2.9369-4.4188-1.0754 1.2958-1.0788 1.9551-0.0189 3.6523 1.0938 1.7514 1.0459 2.2096-0.31016 2.9685-2.0279 1.1348-2.116 3.2086-0.10358 2.4364 0.825-0.31658 1.5-0.13972 1.5 0.39301 0 0.53274 0.43964 0.96862 0.97697 0.96862s0.93896-2.7 0.89251-6zm9.1305 1.3185c0-1.2712-0.27832-1.3324-1.489-0.32768-0.81894 0.67967-1.2378 1.6421-0.9309 2.1388 0.7889 1.2765 2.4199 0.0558 2.4199-1.8111zm-65.515 17.772c0.57228-3.3873 0.38365-3.9974-1.4121-4.5674-1.634-0.5186-2.0726-1.4902-2.0726-4.5904 0-2.829 0.42095-3.9326 1.5-3.9326 2.0234 0 1.9133-2.6274-0.14313-3.4166-0.90372-0.34679-1.809-0.46464-2.0118-0.26189-0.90397 0.90396-1.8593 16.764-1.0581 17.565 0.5163 0.5163 0.42977 1.1699-0.20697 1.5635-2.0679 1.278-2.4134-2.789-1.2143-14.293 1.3195-12.659 2.6102-16.508 5.6835-16.95 1.7431-0.25068 2.2465 0.64196 3.5551 6.3038 1.4503 6.2749 1.4269 6.7878-0.48007 10.543-1.9459 3.8316-1.9503 3.9866-0.15193 5.3016 1.232 0.90085 1.6276 1.9893 1.1811 3.2492-0.3693 1.042 0.67048 0.31961 2.3106-1.6054 4.5127-5.2965 3.96-0.96432-0.58458 4.5817-4.4951 5.4857-5.7578 5.6169-4.8948 0.50874zm0.47633-22.226c-0.49464-1.7247-1.1627-3.3992-1.4846-3.721-0.87957-0.87957-2.4438 2.0483-2.4612 4.6068-0.0117 1.7203 0.55681 2.25 2.4149 2.25 2.2481 0 2.3628-0.23492 1.5309-3.1358zm76.33 19.432c1.9845-9.9227 1.9469-12.771-0.19419-14.708-1.1532-1.0436-2.0944-2.8402-2.0917-3.9925 4e-3 -1.8826 0.25426-1.7909 2.464 0.90499l2.4591 3 0.036-5.191c0.0198-2.855 0.45487-5.4499 0.96686-5.7663 1.635-1.0105 2.2009 1.3204 1.2004 4.9438-1.3124 4.753 0.27017 4.4665 2.218-0.40151 1.7055-4.2624 3.1557-5.695 4.1448-4.0945 0.34778 0.56273-0.29613 2.327-1.4309 3.9207-1.1348 1.5937-2.0632 3.2491-2.0632 3.6787s-0.85976 1.7102-1.9106 2.8456-2.0633 3.1894-2.25 4.5644c-0.29513 2.1737 0.50896 2.9521 6.1606 5.964 7.102 3.7848 6.1453 5.6813-1.0215 2.025-4.8551-2.4768-6.9785-2.0446-6.9785 1.4206 0 1.3598-0.52024 2.7939-1.1561 3.1869-0.8215 0.50772-0.98156-0.15816-0.55304-2.3008zm-166.75-10.227c-0.31644-0.512-0.11799-1.2136 0.44098-1.559s1.0163 0.0734 1.0163 0.9309c0 1.7565-0.60006 2.0152-1.4573 0.62812zm35.494-1.472c-0.50246-1.3216-1.3913-2.6981-1.9752-3.059-1.5629-0.9659-1.2913-2.5381 0.43832-2.5381 0.825 0 1.5 0.17004 1.5 0.37788 0 0.20783 0.68104 2.0078 1.5134 4 0.91853 2.1984 1.1053 3.6221 0.47525 3.6221-0.57099 0-1.4493-1.0813-1.9517-2.4029zm-127.37-129.26c-1.7557-1.7557-0.06397-2.3333 6.8333-2.3333 6 0 7.5 0.3 7.5 1.5 0 1.187-1.4259 1.5-6.8333 1.5-3.7583 0-7.1333-0.3-7.5-0.66667zm19.742-2.4813c-0.33484-0.54179-0.37947-1.2144-0.0992-1.4947 0.28029-0.28029 25.863-0.64888 56.85-0.81908 68.604-0.37682 258.76-1.5269 260.84-1.5776 0.825-0.0201 14.1-0.04 29.5-0.04421 15.4-0.0042 36.408-0.21614 46.685-0.47096 12.726-0.31554 18.897-0.12031 19.35 0.61216 0.36557 0.5915 0.50536 1.2348 0.31065 1.4295-0.19472 0.19471-19.027 0.60781-41.85 0.91798-38.53 0.52365-57.931 0.6189-112.5 0.55227-11.55-0.0141-45.3 0.23323-75 0.54962-113.22 1.2062-183.48 1.3378-184.09 0.34504zm100.69-5.6653c-1.1154-2.0842 0.54734-6.2472 2.7912-6.9881 1.0735-0.35447 1.2286 0.19828 0.67924 2.421-0.57641 2.3322-0.46858 2.641 0.56659 1.6227 0.70316-0.69174 1.2975-3.6167 1.3208-6.5 0.0387-4.7941-0.14087-5.2171-2.1-4.9477-2.2388 0.30788-6.3577-3.8576-6.3577-6.4295 0-1.7238 4.988-1.838 5.0318-0.11514 0.0196 0.76854 0.53928 0.5817 1.3494-0.4851 0.72465-0.9543 2.3978-1.8543 3.7182-2 2.3712-0.26165 2.4042-0.1452 2.6868 9.4767 0.25712 8.7545 0.0607 10.046-1.9381 12.75-2.5254 3.4157-6.252 3.9905-7.7482 1.195zm-152.59-5.1798c-1.6072-1.7759-1.4212-2.4202 0.62475-2.1649 0.34701 0.0433 1.4036-0.77505 2.348-1.8186 1.9247-2.1268 1.294-4.0233-1.3379-4.0233-2.0543 0-4.141-1.8645-4.141-3.7 0-0.715 0.71076-1.3 1.5795-1.3 1.2188 0 1.4355-0.65532 0.94909-2.8701-0.51606-2.3496-0.25482-2.9683 1.4406-3.4116 1.5565-0.40704 2.4386 0.16937 3.5509 2.3204 0.81399 1.5741 1.48 3.5369 1.48 4.3619s0.74506 1.9169 1.6557 2.4265c2.427 1.3582 1.953 6.6646-0.8397 9.4008-3.0638 3.0018-5.1016 3.2189-7.3098 0.77888zm59.836 0.44157c-0.43593-1.136-1.376-1.3802-3.5096-0.91155-1.7332 0.38067-3.5054 0.14934-4.3732-0.57084-1.1768-0.97662-1.459-0.897-1.459 0.41155 0 0.89234-0.42448 1.6224-0.9433 1.6224-1.8495 0-4.0567-4.5075-4.0567-8.2846 0-4.7701 2.8364-13.704 4.3651-13.749 0.6242-0.0183 0.0193-0.96143-1.3443-2.0959-2.4047-2.0007-2.4219-2.1045-0.57167-3.4574 1.6814-1.2295 2.2625-1.121 4.9036 0.91573 1.6479 1.2708 3.6475 3.2916 4.4436 4.4906 1.3535 2.0385 1.2902 2.1801-0.97443 2.1801-1.3321 0-2.8876-0.46562-3.4567-1.0347-0.71294-0.71294-1.0842 0.22813-1.1938 3.0262-0.14728 3.7587 0.0637 4.1055 2.8347 4.6597 2.0779 0.41558 2.9938 1.1863 2.9938 2.5191 0 1.653-0.48713 1.8289-3.5 1.2637-3.3768-0.63348-3.5-0.5495-3.5 2.3849 0 2.871 0.16032 2.9955 2.8606 2.2211 1.5733-0.45123 3.7907-1.3182 4.9276-1.9266 1.1368-0.60841 2.7708-0.83612 3.631-0.50603 2.5955 0.996 2.9368-2.2987 0.58087-5.6073-2.2491-3.1586-2.1072-6 0.29964-6 0.74932 0 1.9785 1.1512 2.7315 2.5582 1.0827 2.023 1.8786 2.4303 3.8046 1.9469 2.2852-0.57355 2.396-0.41404 1.7962 2.585-0.36916 1.8458-0.16793 3.7642 0.47625 4.5404 0.61353 0.73926 0.83079 2.0861 0.48279 2.993-0.5791 1.5091-0.80099 1.4966-2.618-0.1478-1.0919-0.98816-2.1282-1.6119-2.303-1.3861s-1.3276 1.873-2.562 3.6605c-2.4666 3.572-3.8571 4.0675-4.7662 1.6984zm19.399-3.6946c-2.171-1.6484-3.7413-6.0239-3.7413-10.425 0-2.5896-0.67428-4.0714-2.5095-5.515-3.0665-2.4121-2.2907-4.1485 1.4831-3.3197 2.3965 0.52636 2.8745 0.24743 3.4405-2.0079 0.44638-1.7785 1.2076-2.5052 2.3716-2.2642 1.3024 0.26971 1.6605 1.2541 1.4907 4.0967-0.20385 3.4111 0.0365 3.7937 2.7204 4.3305 1.6192 0.32384 3.1781 1.3227 3.4642 2.2197 0.8456 2.6512 6.5994 2.3239 8.8222-0.50194 2.1335-2.7123 5.2182-3.1088 6.1098-0.78535 1.1481 2.9918 0.6032 5.2846-1.4075 5.9228-2.5781 0.81826-1.4956 2.6869 1.3285 2.2932 3.154-0.43965 3.4392 2.7963 0.31555 3.5803-3.0328 0.76118-5.7079-0.16058-7.4362-2.5623-1.7238-2.3955-2.9847-2.2905-5.212 0.43415-2.1818 2.6689-3.8126 1.6312-5.5698-3.5441-1.4785-4.3544-4.4115-4.9158-4.4115-0.84435 0 1.6545 0.46672 4.2358 1.0372 5.7362 1.2334 3.244 0.0188 4.9135-2.2959 3.156zm223.33-3.3886c-1.1399-1.4492-2.0726-3.0242-2.0726-3.5 0-1.4391 1.7459-0.96972 2.3616 0.63486 1.0597 2.7616 3.3052 1.5394 4.6483-2.53 1.4116-4.2773 0.89744-5.5316-2.5099-6.1229-4.2663-0.74034-6.9862-11.847-2.9012-11.847 1.5167 0 1.7997 0.53142 2.8731 5.3946 0.66933 3.0326 2.0703 2.5675 2.6948-0.89464 0.21784-1.2077 1.1477-2 2.3471-2 1.7463 0 2.0237 0.78539 2.2955 6.5 0.39512 8.3059-0.42501 12.616-2.865 15.056-2.6253 2.6253-4.404 2.4465-6.8716-0.69064zm-160.74 0.07138c-0.32998-0.85991-0.20336-5.6974 0.28138-10.75 0.78921-8.2261 1.0904-9.1865 2.8814-9.1865 1.7366 0 1.9708 0.59275 1.7782 4.5-0.12197 2.475-0.34697 7.3124-0.5 10.75-0.23255 5.2233-0.57084 6.2499-2.0596 6.25-0.97977 9.4e-5 -2.0514-0.70339-2.3814-1.5633zm-18.137-1.6365c-0.66-0.66-1.2-1.785-1.2-2.5s-0.45-1.3-1-1.3-1 0.45-1 1c0 1.5634-3.9968 1.1719-4.6202-0.45255-0.43089-1.1229-1.0688-0.85794-2.811 1.1675-3.4068 3.9607-5.6098 2.5655-5.4221-3.4341 0.0823-2.6295-0.0296-5.4452-0.24857-6.2571-0.66154-2.4528 3.81-2.5187 4.588-0.06752 0.36183 1.14 1.0828 1.8102 1.6022 1.4892 0.51937-0.32099 0.6886-0.99737 0.37606-1.5031-0.31253-0.5057 0.19021-0.6284 1.1172-0.27268 0.92701 0.35572 3.5379 0.68807 5.8019 0.73855 3.9422 0.08789 4.1596 0.26115 5.1344 4.0918 0.55985 2.2 1.5882 5.0125 2.2852 6.25 1.1562 2.0528 1.0626 2.25-1.0679 2.25-1.2844 4e-6 -2.8752-0.54-3.5352-1.2zm10.277 0.45573c-1.3215-0.97612-4.4769-5.9324-4.4769-7.032 0-1.8454 4.2166-5.2237 6.5199-5.2237 2.7548 0 3.4949 1.9807 3.1758 8.5-0.1551 3.1693-0.6111 4.0531-2.1958 4.2557-1.1 0.14065-2.4604-0.08435-3.0231-0.5zm62.015-3.6383c-1.7585-1.2858-3.4304-7.2656-3.4676-12.403-0.02163-2.9778 0.16327-3.185 1.9761-2.2148 1.3331 0.71346 2.0234 2.1423 2.0703 4.2852 0.0387 1.7681 0.4284 4.1148 0.8661 5.2148 0.70162 1.7633 0.98919 1.5417 2.4297-1.8721 0.89865-2.1297 1.6339-4.2985 1.6339-4.8196s1.0125-0.80317 2.25-0.62686c1.815 0.2586 2.2081 0.89221 2.0333 3.2776-0.11921 1.6263 0.50454 3.754 1.3861 4.7281 1.4718 1.6264 1.4679 1.8229-0.0482 2.4047-0.90809 0.34846-2.5443 0.39998-3.6361 0.11447-1.2223-0.31965-1.9851-0.023538-1.9851 0.77064 0 1.8056-3.5841 2.5476-5.5085 1.1405zm17.45-2.464c-2.5242-2.044-2.0788-5.804 0.56728-4.7886 2.2125 0.84901 1.8492-2.0782-0.50843-4.0969-2.7327-2.3398-2.5212-3.6516 1.0767-6.6791 3.4591-2.9107 7.4026-3.3882 8.3163-1.0071 0.8455 2.2033 0.93208 2.1032-2.393 2.7682-2.929 0.5858-4.0393 2.8896-2 4.15 1.663 1.0278 1.1233 6.5278-0.89209 9.0899-1.8566 2.3603-1.9348 2.3709-4.1668 0.56349zm26.843-3.5686c0.4212-5.0791 0.30284-5.4359-1.9075-5.75-1.3202-0.1876-2.5103-1.1411-2.7062-2.1681-0.28293-1.4838 0.18748-1.7697 2.4677-1.5 2.6826 0.31734 2.8266 0.12655 3.0106-3.9904 0.25611-5.7278 0.90454-7.1763 3.2124-7.1763 2.0769 0 3.9382 3.2334 2.1956 3.8143-0.58148 0.19382-1.0572 2.2911-1.0572 4.6607 0 3.8084 0.30242 4.3842 2.6063 4.9624 1.8525 0.46495 2.9655 0.16289 3.8483-1.0444 1.5926-2.178 3.5454-0.98492 3.5454 2.1661 0 3.3899 1.3319 3.0494 2.7481-0.70266 1.1061-2.9305 1.3313-3.0476 3.3201-1.7271 1.1734 0.77913 2.7206 3.1242 3.4381 5.2113 1.1314 3.291 1.1004 3.8731-0.23333 4.3849-0.84584 0.32458-2.3383 0.0903-3.3165-0.52061-1.3801-0.8619-1.9035-0.78524-2.3362 0.34218-0.89573 2.3342-3.5976 1.6845-6.4332-1.5471-3.9702-4.5246-6.693-4.0193-8.0828 1.5-0.82277 3.2675-1.631 4.5-2.951 4.5-1.5886 0-1.7612-0.68282-1.3688-5.4151zm28.882 3.7485c-1.0086-1.0085-0.76858-20.624 0.27243-22.269 0.76297-1.2058 1.1672-1.2209 2.5242-0.09472 1.3512 1.1214 1.5178 2.7484 1.0174 9.9357-0.87353 12.546-1.5363 14.706-3.814 12.428zm-42.489-1.1634c-0.72727-0.48256-1.7042-2.5704-2.1709-4.6397-0.75862-3.3636-0.5655-4.0116 1.8223-6.1147 1.469-1.2938 3.428-2.3666 4.3535-2.384 1.9257-0.03617 3.1625 2.9055 2.2363 5.3191-0.3868 1.008-0.0129 1.8679 0.97733 2.2479 1.8848 0.72328 2.1768 5.0101 0.35375 5.1946-0.6875 0.06956-2.375 0.38021-3.75 0.69034s-3.095 0.16905-3.8223-0.31351zm62.541-0.80962c-1.495-0.78332-2.7182-2.0848-2.7182-2.8923 0-1.7373 1.168-1.9001 2.6926-0.37542 0.79019 0.79019 1.7452 0.73787 3.45-0.189 2.3159-1.2591 2.2884-1.2963-1.5643-2.1127-4.8529-1.0284-6.5103-2.335-5.9038-4.6542 0.5652-2.1613 5.3323-5.1367 8.2298-5.1367 2.9505 0 2.6185 2.6622-0.53835 4.3162l-2.6341 1.3801 3.2888 0.65775c5.6802 1.136 7.5968 4.1714 4.5547 7.2134-2.6473 2.6473-5.9503 3.3158-8.8571 1.7928zm41.304 0.65314c-0.83471-0.51588-1.5545-3.2295-1.8162-6.8472-0.34849-4.8178-0.80324-6.0893-2.3196-6.4858-1.0973-0.28695-1.8861-1.3768-1.8861-2.6059 0-1.6902 0.44998-2.0007 2.25-1.5528 1.8064 0.44953 2.5172-0.04908 3.6052-2.5292 1.5895-3.6233 3.5119-3.461 3.9612 0.33453 0.24603 2.0783 0.8578 2.6729 2.75 2.6729 1.9754 0 2.4434 0.51772 2.486 2.75l0.0524 2.75 1.5695-2.25c2.0758-2.9758 5.0897-2.8619 6.5057 0.24594 0.92574 2.0318 0.82836 2.8372-0.52362 4.3312-1.985 2.1934-1.1238 3.4934 1.4143 2.135 2.0946-1.121 3.2345 0.07883 2.3255 2.4476-0.38934 1.0147-1.8197 1.5902-3.9523 1.5902-2.611 0-3.8678-0.71096-5.7451-3.25-1.3216-1.7875-2.6804-4.0375-3.0195-5-0.33908-0.9625-1.522-1.75-2.6288-1.75-2.4832 0-3.5377 3.5514-2.6685 8.9869 0.66055 4.1309-0.0978 5.4248-2.3601 4.0266zm-14.616-2.1652c-0.39148-0.63344 0.14446-1.7975 1.191-2.5869 1.8528-1.3975 1.8436-1.4755-0.34722-2.9703-2.4742-1.6881-3.1126-6.2912-0.87244-6.2912 0.75765 0 1.9378-0.675 2.6224-1.5s1.8648-1.5 2.6224-1.5c1.8772 0 1.7435 3.4514-0.19601 5.0611-1.3989 1.161-1.2879 1.4556 1 2.6544 3.7471 1.9633 3.3412 5.0659-0.89431 6.8356-4.1759 1.7448-4.2293 1.7479-5.1259 0.29727zm37.21-3.3751c-1.8387-1.8387-2.2443-9.9669-0.54954-11.014 0.5866-0.36254 1.6228 0.10154 2.3026 1.0313 1.1266 1.5407 1.353 1.5496 2.5559 0.10014 1.7874-2.1536 4.7989-2.0052 6.2433 0.30772 0.95826 1.5344 1.5324 1.6813 2.9972 0.7665 1.4552-0.90877 2.194-0.74105 3.7529 0.85198 2.5275 2.5827 3.9048 9.4835 1.8928 9.4835-1.9544 0-3.8113-2.0462-3.8113-4.2 0-2.5747-1.4367-2.221-3.0237 0.7443-0.90256 1.6865-2.0553 2.4449-3.419 2.2494-1.688-0.24197-2.007-0.9136-1.7768-3.7415 0.32052-3.9376-0.77897-3.3717-2.3494 1.2092-1.2854 3.7493-2.6505 4.3764-4.815 2.2118z"/>
</svg>
