<?xml version="1.0" encoding="UTF-8"?>
<svg width="1691.4" height="743.03" version="1.1" viewBox="0 0 1691.4408 743.03137" xmlns="http://www.w3.org/2000/svg">
 <path d="m1455.5 711.41c-1.4226-1.4227-2.2387-5.4286-1.1059-5.4286 0.6552 0 6.5345 5.8179 6.5345 6.4663 0 1.187-3.9611 0.42976-5.4286-1.0377zm-9.44-1.7887c-3.8246-4.0711-7.9666-17.646-5.3814-17.637 0.4125 1e-3 2.0218 3.6036 3.5762 8.0048s3.4669 8.6429 4.25 9.426 1.4238 1.681 1.4238 1.9952c0 1.2621-1.7724 0.44263-3.8686-1.7887zm122.79-11.039c-0.3167-0.32192-4.5917-1.2774-9.5-2.1234-21.968-3.7862-44.249-12.914-54.028-22.134l-4.4092-4.1572-6.9013 4.6572c-3.7958 2.5614-11.672 8.1768-17.503 12.479-5.9375 4.3804-11.364 7.6746-12.334 7.4878-4.5761-0.88127-6.3174-11.723-6.0724-37.809 0.2244-23.903 1.5818-36.345 4.0153-36.805 2.6209-0.49497 6.7234 2.7158 8.8857 6.9543 1.0787 2.1144 5.8902 8.7466 10.692 14.738 4.8022 5.9918 9.9372 12.934 11.411 15.428 1.9648 3.3239 3.1656 4.408 4.5 4.0631 1.2921-0.33395 3.5916 1.5008 7.9272 6.3253 7.9278 8.8216 21.231 16.415 34.677 19.793 35.561 8.9337 49.061 9.0955 74.716 0.89569 4.8765-1.5587 5.3317-1.7471 15-6.2114 9.3379-4.3117 18.096-12.956 20.956-20.681 2.4525-6.6267 4.4262-17.063 3.6228-19.156-0.2836-0.73904-1.9279-1.3437-3.654-1.3437-2.4021 0-3.001-0.35789-2.553-1.5254 0.3428-0.89339-0.338-2.3019-1.643-3.3995-1.2256-1.0307-4.2846-3.6252-6.7977-5.7656-2.5132-2.1403-9.0382-6.4397-14.5-9.5542-8.3485-4.7605-10.993-5.7704-16.597-6.3385-9.8712-1.0008-11.441-0.34946-12.85 5.3318-0.6481 2.6132-1.2471 6.1014-1.3313 7.7514-0.132 2.5877 0.2321 3.0442 2.6489 3.3214 3.7112 0.42575 5.7242 4.9551 3.066 6.8988-2.2319 1.632-18.308 1.7198-21.821 0.1192-5.1622-2.352-2.4762-6.8395 4.0939-6.8395 4.62 0 5.1652-0.43823 5.8118-4.6713 0.2376-1.5558 0.8738-4.5748 1.4137-6.709l0.9817-3.8803-4.7944 0.56782c-2.6368 0.3123-8.415 1.9641-12.84 3.6707-6.8008 2.6227-8.2064 3.563-9.0823 6.0757-0.57 1.635-1.7493 3.2464-2.6208 3.5808-0.8714 0.3344-2.231 1.8585-3.0214 3.3869-2.0926 4.0467-9.5772 10.965-12.553 11.604-1.4104 0.30273-3.1195 1.4394-3.798 2.5258-1.0645 1.7045-0.8215 2.445 1.7722 5.399 1.6533 1.883 3.4922 5.2295 4.0866 7.4367 0.5943 2.2072 1.5132 4.0694 2.042 4.1381 0.5288 0.0688 1.299 0.20513 1.7115 0.30306 4.5916 1.0901 16.006 1.5847 23.336 1.0113l9.1349-0.71462-0.645-4.8624c-0.3597-2.7119-0.2445-4.8624 0.2606-4.8624 1.3438 0 2.4679 10.095 1.2588 11.304-0.6119 0.61192-8.067 0.98855-18.853 0.95248l-17.841-0.0597-1.2944 2.9243c-2.8595 6.4601-12.517 8.0008-22.281 3.5545-7.6329-3.4758-8.138-7.1036-2.1388-15.359 2.6157-3.5996 2.8697-4.9417 1.0632-5.6181-0.8419-0.31524-0.3738-1.3745 1.4337-3.2443 2.2998-2.3791 3.5493-2.8004 8.7331-2.945 4.0572-0.11313 6.6572-0.71876 7.895-1.839 1.0151-0.91866 2.5577-1.6703 3.428-1.6703 1.6576 0 6.7602-5.4138 6.7602-7.1724 0-0.5604 0.9491-2.3518 2.1091-3.9808s1.9187-3.1523 1.6861-3.3849c-0.5118-0.51182-17.608 8.1067-23.546 11.87-2.3378 1.4816-8.261 6.4946-13.163 11.14-8.0539 7.6327-13.149 10.799-14.769 9.1794-1.7977-1.7977 12.742-16.731 22.373-22.979 3.955-2.5656 13.176-7.617 20.492-11.225 7.3156-3.6084 13.59-7.0976 13.943-7.7539s0.9363-10.418 1.2966-21.693c0.3604-11.275 0.9754-22.75 1.3666-25.5s0.6352-9.6125 0.5423-15.25c-0.1323-8.0198 0.1246-10.25 1.1804-10.25 0.7422 0 1.5174 1.0125 1.7227 2.25s0.3865-2.925 0.4028-9.25c0.023-8.9903-0.1269-10.3-0.6875-6-0.4793 3.6768-0.553 2.5166-0.2224-3.5 0.2721-4.95 0.4985-9.9 0.5031-11 0-1.1 0.6073-8.3 1.3391-16s1.6135-19.175 1.9594-25.5c0.3458-6.325 1.0397-15.325 1.5419-20s0.9364-12.55 0.9648-17.5c0.028-4.95 0.4915-11.025 1.0289-13.5 2.596-11.956 3.6819-22.317 2.9869-28.5-0.1237-1.1 0.1309-5.6 0.5657-10 0.7275-7.3612 0.8152-15.366 0.2439-22.25-0.1256-1.5125 0.2726-6.125 0.8848-10.25 1.0552-7.1094 0.4972-18.995-1.3019-27.733-0.6941-3.3712 1.6474-17.473 4.1739-25.138 0.7924-2.4038 1.1569-5.2648 0.8101-6.3576-0.6525-2.0557 1.1222-16.085 2.6754-21.151 0.5963-1.9446 0.4712-3.7294-0.3854-5.5-1.0072-2.0818-1.0184-3.4444-0.054-6.6213 2.5952-8.5514 3.6474-16.475 3.7401-28.166 0.088-11.132-0.095-12.425-2.1534-15.21-1.2375-1.6738-2.2542-4.0739-2.2594-5.3337-0.015-3.7546-5.5309-12.37-8.6763-13.553-1.5479-0.58202-6.1893-1.839-10.314-2.7933-4.125-0.95431-11.55-2.7944-16.5-4.089s-11.025-2.3699-13.5-2.3895c-2.475-0.0196-8.1-0.71362-12.5-1.5423-4.4-0.82869-11.15-1.7221-15-1.9854-9.5955-0.65623-22.378-2.35-26-3.445-1.65-0.49891-8.1042-1.1784-14.343-1.5101-6.2384-0.33163-12.313-0.97031-13.5-1.4193-2.3666-0.8955-9.8272-1.77-22.157-2.5973-4.4-0.29521-10.304-0.99066-13.12-1.5454-2.8158-0.55477-10.241-1.4202-16.5-1.9232-6.2592-0.50298-14.08-1.4252-17.38-2.0494-6.1835-1.1696-25.068-0.7409-45.5 1.033-5.775 0.50139-17.456 1.1848-25.958 1.5186-8.5016 0.33385-17.952 1.243-21 2.0202s-7.3425 1.7817-9.5425 2.232l-4 0.81875-1.196 13.465c-0.6577 7.4055-1.6546 18.865-2.2152 25.465-0.5607 6.6-1.2263 12.9-1.4793 14-0.2529 1.1-1.0218 6.6534-1.7085 12.341-1.165 9.6486-1.421 10.411-3.8248 11.386-2.8327 1.1496-63.813 3.1753-73.836 2.4528-8.9187-0.64288-9.2403-1.0884-9.2403-12.802v-9.8776h-5.5c-3.025 0-5.5081 0.3375-5.5179 0.75-0.1914 8.0004-10.808 63.25-12.154 63.25-1.1882 0-1.3895-22.242-0.2187-24.167 0.453-0.74469 2.4859-11.524 5.4378-28.833 1.8422-10.802 1.858-11.576 0.2605-12.754-2.4425-1.8006-0.4439-3.3998 4.864-3.8919 12.865-1.1928 12.513-1.0442 13.359-5.6475 0.4249-2.3138 0.8582-5.7819 0.9629-7.7069 0.1046-1.925 0.5087-6.0074 0.898-9.072l0.7077-5.5721-16.3-0.10236c-20.007-0.12565-22.198-0.64183-22.58-5.3194-0.1543-1.8887-0.7778-4.4184-1.3855-5.6216-1.1519-2.2805-0.6996-11.665 1.0996-22.813 0.5326-3.3 1.0558-9.251 1.1627-13.224 0.2413-8.9648 1.4734-17.068 3.0448-20.024 0.6575-1.2367 1.0072-2.4128 0.7772-2.6136s-6.4932-0.65269-13.918-1.0042c-15.607-0.73881-33.046-2.1742-44.5-3.6629-13.646-1.7735-38.718-2.3135-50.242-1.0822-9.5363 1.0189-30.443 1.9557-46.257 2.0728l-5.5 0.0407-2.7274 14.749c-4.0611 21.961-4.2309 23.978-2.0714 24.607 3.9185 1.1403 13.462 1.8343 16.748 1.2178 2.9883-0.56062 3.5652-1.1361 4.1238-4.1137 0.4023-2.1444 1.2274-3.4618 2.1682-3.4618 1.2042 0 1.4157 0.91449 1.0213 4.4141l-0.4976 4.4141 5.4231-0.55971 5.4231-0.55971-0.664 2.6456c-0.6781 2.7016 0.01 3.175 2.9653 2.0409 0.8668-0.33264 1.3586-0.95665 1.0928-1.3867s0.1868-1.338 1.0057-2.0177c2.5643-2.1282 1.6968-3.2863-2.011-2.6846-3.5363 0.57386-4.8377-0.579-1.9182-1.6993 2.514-0.96473 4.1654-0.71691 5.7444 0.86202 1.292 1.292 2.2343 1.216 7.8214-0.63107 7.358-2.4325 9.4212-3.8379 5.6342-3.8379-3.3628 0-5.7818-0.93662-5.7818-2.2387 0-1.3461 7.607-0.33236 9.5392 1.2712 2.3571 1.9562 1.7014 4.7917-1.4895 6.4418-3.7251 1.9263-4.6334 1.934-3.0497 0.0257 0.6847-0.825 0.9776-1.5 0.651-1.5-1.7504 0-12.247 5.314-12.939 6.5505-0.4462 0.79727-2.11 2.1212-3.6975 2.9421-2.567 1.3274-3.0546 1.3242-4.4078-0.029-0.8368-0.83683-1.2587-2.2064-0.9375-3.0434 0.473-1.2326 0.037-1.3893-2.2925-0.82463-7.4197 1.7984-7.3765 1.7436-7.3765 9.3796v7.0248l8.75-0.0354c5.6932-0.0231 9.6234-0.53469 11.25-1.4646 2.7319-1.5617 11.709-1.9709 13.824-0.63018 2.2955 1.4554 3.3408 9.2222 2.7092 20.13-0.9825 16.969-0.8157 16.499-6.2938 17.753-3.188 0.72952-5.1287 0.75396-5.947 0.0749-0.8162-0.67743-2.2932-0.67699-4.5033 1e-3 -1.8088 0.55515-5.5387 1.3149-8.2887 1.6884-2.75 0.37344-5.315 1.1875-5.7 1.8091-0.385 0.62155-2.185 1.6279-4 2.2364-3.1289 1.049-3.3159 1.3872-3.6073 6.5219-0.3381 5.9588-2.1927 9.4397-2.1927 4.1155 0-1.76-0.4611-3.2-1.0248-3.2-0.5636 0-1.4714-1.1749-2.0174-2.6109-0.9335-2.4554-1.2691-2.5695-5.6338-1.9149-2.5526 0.38279-5.7437 1.1152-7.0912 1.6275-2.0329 0.77291-2.2391 1.1858-1.2108 2.4247 1.7326 2.0876 0.55604 18.573-3.1026 43.474-0.52529 3.575-1.1373 8.3-1.36 10.5-0.2227 2.2-0.73442 5.7547-1.1372 7.8994l-0.73222 3.8994 5.4051-0.72464c5.1867-0.69534 94.522-0.85899 100.13-0.1834 1.4972 0.18045 2.4832-0.0587 2.191-0.53134-0.7983-1.2917 1.0131-1.0332 2.3869 0.34057 0.9333 0.93333 1.2 0.92229 1.2-0.0497 0-0.86269 0.5059-0.96657 1.6336-0.33545 0.8986 0.50283 3.179 0.56571 5.0677 0.13974 7.9298-1.7885 57.824-1.5719 60.049 0.2606 1.0522 0.86677 1.799 4.5274 1 4.902-0.1375 0.0645-38.725 0.28666-85.75 0.49378s-88.875 0.76973-93 1.2502c-18.833 2.1938-44.877 0.89543-49.475-2.4664-4.0636-2.9714-0.28528-3.5688 23.614-3.7336l23.361-0.1608 0.70251-20.5c0.38638-11.275 0.88816-22.075 1.1151-24s0.75851-7.3575 1.1814-12.072l0.76879-8.5721-2.7865-2.1919c-1.5326-1.2055-2.5394-2.439-2.2373-2.7411 1.0723-1.0723 10.723-3.2165 17.575-3.9045l6.953-0.69826 0.612-11.16c0.92-16.775 1.0412-21.572 0.5565-22.02-0.9316-0.862-33.732-1.4476-34.563-0.61709-0.48253 0.4824-7.1773 0.99376-14.877 1.1364-12.219 0.22629-14.355 0.0241-16.787-1.589-1.5328-1.0165-2.622-2.3481-2.4204-2.959 0.62541-1.8951 13.113-2.4789 41.957-1.9616l27.75 0.49767v-3.4339c0-1.8886 0.2717-5.4092 0.6039-7.8234l0.6039-4.3896-9.7242 0.32145c-10.515 0.34757-15.014-0.76719-16.031-3.9719-0.58489-1.8428 0.22879-15.87 1.1759-20.271 1.287-5.981 2.5958-19.687 1.9416-20.334-0.41443-0.40974-8.9247-0.74498-18.912-0.74498-17.28 0-18.339-0.11276-21.908-2.3316-3.9678-2.467-4.5346-3.5617-2.5-4.829 0.6875-0.42825 21.05-0.81994 45.25-0.87041 24.2-0.0505 53.45-0.46649 65-0.92448 19.61-0.77759 25.053-0.5543 47.5 1.9486 12.4 1.3827 33.797 2.6077 44.093 2.5244 9.8501-0.0796 12.854 0.21267 13.791 1.3422 0.6591 0.79422 2.305 1.7218 3.6574 2.0612 3.5647 0.89468 3.5303 5.5791-0.041 5.5791-2.2807 0-2.5 0.37877-2.5 4.3185 0 2.3752-0.648 6.5377-1.44 9.25-0.792 2.7123-1.6917 8.5315-1.9993 12.932s-1.0155 12.5-1.5731 18c-0.5577 5.5-1.237 12.362-1.5095 15.25l-0.4956 5.25 5.2588 0.0534c2.8923 0.0294 10.964 0.28523 17.937 0.56855l12.678 0.51511 0.536-4.3185c1.8818-15.163 1.8785-16.035-0.059-15.5-4.9776 1.3753-9.3524 1.6247-11.849 0.67546-3.9213-1.4909-2.7217-2.046 5.4689-2.5309 3.9463-0.23361 7.5335-0.64629 7.9716-0.91708 0.4382-0.27078 1.0814-3.317 1.4293-6.7693 1.554-15.418 1.8606-16.908 3.3599-16.333 0.797 0.30586 1.8275 0.5561 2.2898 0.5561 1.5699 0 3.1057 6.5806 2.133 9.1391-0.5075 1.3349-1.0835 4.4373-1.28 6.894l-0.3574 4.4669 6.7573 0.29586c6.3997 0.28019 6.8073 0.16432 7.7021-2.1892 1.7498-4.6021 6.7405-5.9186 9.837-2.5948 1.8693 2.0065 1.9034 1.9979 12.789-3.2288 10.597-5.0884 10.805-5.2504 7.1437-5.5735-5.1556-0.45495-3.6775-2.2095 1.8613-2.2095 5.5215 0 6.2518 1.4288 3.4937 6.8352-2.7474 5.3853-4.4955 6.4216-3.8916 2.3068 0.2536-1.7281 0.3486-3.142 0.2111-3.142s-3.7371 1.8809-7.9991 4.1798c-4.262 2.2989-8.5539 4.2391-9.5375 4.3116-0.9836 0.0725-2.9188 1.3515-4.3004 2.8423-2.4891 2.6858-2.6014 2.705-12.289 2.1056-5.3775-0.33275-10.307-0.76593-10.954-0.96262-0.7803-0.23714-1.3904 1.8966-1.8108 6.3329-0.3488 3.6798-0.8762 7.9676-1.1721 9.5286-0.5108 2.6949-0.4223 2.7762 1.755 1.611 1.6156-0.86466 5.6149-1.0635 13.54-0.67316 10.97 0.54028 11.255 0.50057 11.556-1.611 0.403-2.8288 3.2175-2.8037 3.621 0.0323l0.3127 2.1972 3.1873-1.9435c4.4721-2.7268 7.1036-2.4334 10.098 1.1258 2.8395 3.3746 3.041 4.9536 1.6599 13.006-0.511 2.9792-1.4357 9.6918-2.0548 14.917-0.6192 5.225-1.5934 10.708-2.1649 12.184-1.0219 2.6392-1.1584 2.6754-8.1953 2.169-3.9358-0.28325-8.506-1.041-10.156-1.6839-3.0218-1.1774-20.71-1.3352-25.136-0.22413-2.6201 0.65762-2.9835 1.8325-3.8084 12.316l-0.5713 7.2604 36.258-0.65508c19.942-0.3603 37.205-1.004 38.363-1.4305 1.7901-0.65947 2.2067-1.8999 2.7864-8.2963 0.3748-4.1365 1.3291-11.204 2.1205-15.706 0.7915-4.5016 1.6775-11.166 1.9688-14.809 1.5182-18.984 2.4467-34.53 2.0841-34.893-0.2247-0.2247-3.548-0.4465-7.385-0.49289-5.2709-0.0637-7.3855 0.32465-8.6495 1.5886-0.9201 0.92014-2.717 1.673-3.9931 1.673-3.1405 0-4.5155-4.8113-1.9178-6.7108 2.1725-1.5886 6.0215-1.6796 6.9578-0.16457 0.6799 1.1 13.86 0.77219 15.005-0.37327 0.599-0.59906-1.3225-16.825-2.0825-17.585-0.6841-0.68414-1.9293-0.6782-38.163 0.18196-23.771 0.5643-31.339 0.45615-31.903-0.45587-1.9691-3.1862 2.4767-3.7868 29.938-4.0447 36.408-0.34189 38.237-0.25876 41.965 1.9073 3.362 1.9535 3.9192 3.7139 5.2218 16.495 0.6656 6.5311 1.2343 6.8088 8.5664 4.1829 2.9813-1.0677 12.343-2.0122 29.376-2.9637 13.75-0.76811 31.75-1.914 40-2.5464 10.879-0.83393 17.06-0.85443 22.5-0.0746 4.125 0.59134 10.65 1.3496 14.5 1.6851s12.175 1.2454 18.5 2.022c6.325 0.77666 14.2 1.6564 17.5 1.9549 9.7855 0.88519 22.8 2.5572 23.56 3.0267 1.0027 0.61973 6.0744 1.243 16.288 2.0017 4.8665 0.36148 10.266 1.081 12 1.5988s9.317 1.346 16.852 1.8403c7.5352 0.4943 14.562 1.36 15.616 1.9237 1.669 0.8932 9.8528 2.0902 23.684 3.4641 10.397 1.0328 37.558 7.8889 41.911 10.58 3.6144 2.2338 9.5887 11.585 9.5887 15.009 0 1.0914 0.924 3.757 2.0533 5.9237 1.8472 3.544 2.0059 5.2282 1.5815 16.781-0.4886 13.3-1.1767 19.41-2.5723 22.841-2.7219 6.692-2.8212 7.1798-1.8246 8.9607 0.7063 1.262 0.6568 5.9225-0.1587 14.967-0.6514 7.224-0.9019 13.871-0.5567 14.77s-0.046 4.2605-0.8688 7.4688c-3.6184 14.104-4.0452 18.044-3.7732 34.833 0.1514 9.35-0.1781 19.025-0.7323 21.5-0.5934 2.6505-0.6693 6.3087-0.1846 8.9007 0.794 4.2458 0.5077 7.3987-1.8951 20.868-0.7483 4.1948-0.7907 6.8814-0.128 8.1197 0.6456 1.2063 0.6572 3.9195 0.033 7.7936-0.5264 3.2687-1.1609 15.14-1.41 26.38s-0.8849 22.687-1.4128 25.437-1.2474 12.2-1.5989 21-1.0614 18.925-1.5776 22.5c-0.5163 3.575-1.1665 10.55-1.4451 15.5-0.2785 4.95-0.7418 11.925-1.0295 15.5s-0.7781 10.1-1.0898 14.5c-0.3116 4.4-0.7119 9.35-0.8895 11-0.767 7.1277-2.747 55.607-2.2898 56.064 0.2773 0.27722 4.2959-0.59479 8.9303-1.9378 4.6345-1.343 10.486-2.7506 13.002-3.1281 4.3043-0.64547 4.6497-0.93147 5.8126-4.8127 0.68-2.2696 1.414-5.1065 1.6312-6.3042 0.2172-1.1978 1.2679-5.036 2.335-8.5295 3.2568-10.663 5.1828-19.837 6.5823-31.352 1.7423-14.336 4.5931-32.872 5.1477-33.471 1.3318-1.4373 2.3387 3.3218 1.8979 8.971-1.2713 16.297-5.8449 45.042-9.041 56.822-1.3911 5.1272-2.5292 11.09-2.5292 13.25v3.9278l5.75 0.0211c3.4174 0.0125 8.3869 0.9589 12.25 2.3328 6.6458 2.3636 25.006 13.661 28.368 17.456 1.0272 1.1594 4.1772 2.861 7 3.7815 6.566 2.1411 7.2879 2.7594 8.0661 6.9075 0.8353 4.4523-2.7301 20.311-6.1374 27.299-4.002 8.2077-12.539 15.168-25.246 20.584-19.276 8.2154-26.412 9.8764-44.55 10.369-8.8 0.23915-16.259 0.17143-16.576-0.15049zm-101.92-10.1c0.6847-0.825 1.6189-1.5 2.0761-1.5 0.4571 0 4.7895-2.8286 9.6275-6.2858s11.18-7.7928 14.094-9.6346c3.4424-2.1762 5.1798-3.9145 4.9617-4.9642-0.1847-0.88844-1.0924-1.5551-2.0173-1.4815-0.9249 0.0736-2.909-1.5014-4.4091-3.5-1.5002-1.9986-5.1489-6.5589-8.1083-10.134s-6.0646-7.3441-6.9004-8.3757c-0.8359-1.0316-3.5288-5.185-5.9844-9.2296-4.5707-7.5285-5.8547-9.0052-6.6611-7.661-0.7763 1.2939-1.9399 22.924-2.1125 39.266-0.2258 21.383 1.3903 28.372 5.434 23.5zm73.562-16.096c3.0684-1.4561 4.2985-3.2393 5.1069-7.4035 0.3996-2.0583-2.668-11.754-4.093-12.937-2.2157-1.8389-7.2697-2.1371-8.6212-0.50865-1.0485 1.2634-0.9823 2.1648 0.3667 4.9936 1.9227 4.032 2.835 4.2936 4.1914 1.202 0.5503-1.2543 1.8722-2.25 2.9871-2.25 1.685 0 2.0489 0.77016 2.3105 4.8895 0.1708 2.6892-0.1592 5.3592-0.7333 5.9333-1.4167 1.4167-1.9709 0.65521-2.2572-3.1014l-0.2418-3.1738-2.3777 2.2262-2.3777 2.2262-2.4064-3c-2.6816-3.3429-2.7568-3.2084-2.4405 4.3667 0.1723 4.1271-0.088 5.264-1.1259 4.9223-0.7921-0.26074-1.4794-2.2719-1.6631-4.8667-0.5301-7.4863-3.0182-7.1166-4.4889 0.66705-0.536 2.8368-0.241 3.2648 3.6091 5.2361 5.0035 2.5618 9.6752 2.7513 14.255 0.57804zm-8.9452-23.12c-0.6925-0.6925-4.6169 1.666-4.6169 2.7747 0 0.54332 1.139 0.24154 2.5312-0.67065 1.3922-0.91218 2.3307-1.859 2.0857-2.1041zm-298.49-420.78c0.8005-4.8608 0.4636-5.3475-2.0971-3.0301-1.4168 1.2822-2.8532 1.6161-5.0559 1.1756-1.6922-0.33846-2.8823-0.28465-2.6445 0.11957 0.6731 1.1443-1.144 5.2349-2.3254 5.2349-2.5232 0-2.8386-5.0283-1.1562-18.436 0.943-7.5157 1.5123-13.867 1.265-14.115-0.7042-0.70421-20.326-0.33051-23.116 0.44026-2.878 0.79492-3.2374 2.0591-5.2408 18.435-0.7284 5.954-0.9661 11.047-0.5283 11.317 0.4379 0.27061 6.0139 0.88552 12.391 1.3665 6.3773 0.48095 11.863 1.1429 12.192 1.471s3.9854 0.46678 8.1274 0.30817l7.5308-0.28837zm-211.83-5.0828c4.8197 0.13114 8.187-0.11811 7.4828-0.55389-1.4451-0.89419-1.7546-17.236-0.4684-24.732 0.6491-3.7836 0.5335-4.2859-0.8631-3.75-0.8869 0.34034-4.9304 0.61881-8.9855 0.61881h-7.3729l-0.5081 3.25c-0.2795 1.7875-0.6652 8.508-0.8572 14.934-0.3106 10.401-0.1755 11.592 1.2301 10.839 0.8685-0.46479 5.5225-0.73779 10.342-0.60664zm209.17-1.1024c2.2708-1.0829 3.5699-2.4232 3.6346-3.75 0.055-1.1356 0.3542-4.5398 0.664-7.5648 0.9152-8.9371 0.8053-13.292-0.3456-13.685-0.5945-0.20291-2.3808 0.65365-3.9697 1.9035l-2.8889 2.2724 2.9576 0.51229c1.8535 0.32105 3.0932 1.2171 3.3211 2.4005 0.2732 1.4183-0.053 1.7284-1.3102 1.2459-3.0591-1.1739-7.4834 2.1309-7.5137 5.6123-0.013 1.5075 0.5842 1.666 4.1378 1.0977 5.0897-0.81387 4.5819 0.71472-1.2209 3.6751-2.8647 1.4614-3.9322 2.634-3.9322 4.319 0 4.0822 1.2336 4.4563 6.4661 1.9611zm-189.34-1.927c1.0318-0.93376 1.876-2.8314 1.876-4.2171v-2.5193l-2.25 2.0849c-2.0826 1.9297-4.3992 2.6646-7.5 2.3789-1.9335-0.17811-1.4795-2.6002 0.8829-4.7102 2.1193-1.8929 2.1282-1.8899 1.3929 0.47024-0.8012 2.5715-0.4929 2.503 4.6069-1.0238 2.2389-1.5483 2.7998-2.9821 3.7497-9.586 0.6577-4.572 0.771-8.9992 0.2755-10.765-0.7464-2.6612-1.2521-2.9873-4.4777-2.8879-2.537 0.0782-4.2216 0.83402-5.5722 2.5-1.0647 1.3133-1.8187 2.5063-1.6755 2.651s1.8157-0.38672 3.7166-1.181c3.9091-1.6333 6.5018-0.72072 5.4845 1.9304-0.4457 1.1614-1.3427 1.5353-2.7809 1.1592-2.8253-0.73883-7.8527 4.2237-7.8527 7.7514 0 3.0965 0.081 3.1076 4.2258 0.58066 6.4077-3.9068 9.0416-1.6 4.2139 3.6905-2.1303 2.3344-2.3763 2.4278-1.4649 0.55576 1.5022-3.0851 0.1733-2.8208-4.2821 0.85173-2.8624 2.3595-3.6093 3.5856-3.1212 5.1236 0.7696 2.4248 1.2481 4.7801 1.352 6.6555 0.1037 1.8713 6.6583 0.80764 9.2005-1.4931zm213.59-44.006c-0.9589-0.95892-3.8104 1.6547-3.0853 2.828 0.3613 0.58453 1.2443 0.34569 2.1795-0.5895 0.8647-0.86468 1.2723-1.872 0.9058-2.2385zm-37.215-0.38131c0.3399-0.55 0.168-1-0.382-1s-1.2781 0.45-1.618 1-0.168 1 0.382 1 1.2781-0.45 1.618-1zm-78.103-45.833c0.2833-0.45834-0.1402-0.83334-0.941-0.83334s-1.456 0.375-1.456 0.83334c0 0.45833 0.4234 0.83333 0.941 0.83333 0.5175 0 1.1727-0.375 1.456-0.83333zm443.07 521.12c-13.432-1.3011-21.769-3.0005-20.98-4.2765 0.7721-1.2493 13.756-1.9058 18.509-0.93588 2.475 0.50515 10.125 1.0317 17 1.1701 11.272 0.2269 12.471 0.42347 12.206 2.0016-0.2346 1.3972 0.4324 1.75 3.309 1.75 2.3179 0 3.3656 0.38392 2.9375 1.0765-0.8117 1.3134-14.735 0.98169-32.981-0.78575zm40.997-6.326c-1.0131-1.1194-2.4328-1.8085-3.155-1.5314-2.4342 0.9341-1.3373-2.1724 1.8767-5.3147 2.5478-2.491 4.0359-3.1187 7.393-3.1187 4.4497 0 5.4172 0.99693 5.4172 5.5818 0 5.5651-7.7845 8.5237-11.532 4.3829zm-180.38-14.059c-5.227-8.5952 1.5029-33.866 7.9566-29.878 1.1451 0.70768 1.185 1.1414 0.1961 2.1302-0.9888 0.98885-1.2416 0.9634-1.2416-0.12503 0-1.877-1.3285-0.4035-1.5661 1.737-0.1056 0.9513-0.9214 4.4117-1.8129 7.6897-1.9059 7.0077-2.1269 16.634-0.421 18.34 1.7027 1.7026 4.5406 1.486 5.6119-0.42842 0.5682-1.0153 1.1551-1.2339 1.5589-0.58062 1.0355 1.6755-2.2492 4.209-5.4569 4.209-2.2181 0-3.4069-0.76233-4.825-3.0942zm7.5369-9.4385c-1.0794-2.813-0.6152-8.8623 0.88-11.467 1.3246-2.3077 1.3876-2.0173 0.8196 3.7742-0.5585 5.6941-0.4539 6.2123 1.131 5.6041 1.3362-0.51274 1.6612-0.22751 1.3835 1.2143-0.4635 2.4072-3.3927 3.0152-4.2141 0.87469zm157.45-103.05c0.048-1.165 0.285-1.4019 0.6042-0.60417 0.2889 0.72187 0.2534 1.5844-0.079 1.9167-0.3323 0.33229-0.5687-0.25834-0.5253-1.3125zm0-14c0.048-1.165 0.285-1.4019 0.6042-0.60417 0.2889 0.72187 0.2534 1.5844-0.079 1.9167-0.3323 0.33229-0.5687-0.25834-0.5253-1.3125zm0.2412-9.4167c0-3.575 0.1815-5.0375 0.4033-3.25s0.2218 4.7125 0 6.5-0.4033 0.325-0.4033-3.25zm-0.1252-10.5c0.02-1.65 0.2445-2.2039 0.4981-1.231 0.2535 0.97297 0.2369 2.323-0.037 3s-0.4813-0.11903-0.461-1.769zm-0.1949-5.441c0-2.4146 0.5561-2.6582 1.3493-0.59105 0.3099 0.80739 0.133 1.734-0.393 2.059-0.526 0.32508-0.9563-0.33551-0.9563-1.468zm-424.87-73.422c-8.4488-2.2595-15.278-12.144-13.617-19.708 0.3508-1.5968 2.572-4.8936 4.9361-7.3261 2.8645-2.9473 4.2984-5.3043 4.2984-7.0654 0-7.7588 17.384-15.503 34.851-15.526 5.0054-7e-3 10.405 0.38471 12 0.86942 11.474 3.4879 14.895 4.9029 17.96 7.4293 4.4202 3.6435 6.7902 8.1551 5.9799 11.383-0.7419 2.956-9.2344 12.306-11.177 12.306-0.7498 0-1.3638 0.3375-1.3645 0.75 0 1.3303-29.583 15.724-34.268 16.674-5.7268 1.1618-15.647 1.2695-19.598 0.2128zm19.867-3.2598c3.025-0.90557 11.093-4.3249 17.929-7.5986 10.294-4.9293 13.516-7.0382 18.75-12.273 5.3637-5.3637 6.3206-6.8529 6.3206-9.8363 0-5.1793-4.4141-9.1182-13.319-11.885-14.092-4.3789-30.669-2.3123-43.376 5.4074-3.4478 2.0946-6.7269 3.8084-7.2868 3.8084-0.56 0-1.0181 0.45-1.0181 1 0 1.3804 0.6727 1.2606 3.5664-0.63546 4.4994-2.9481 3.6863-0.63451-0.8814 2.5082-5.5845 3.8422-10.392 10.992-11.253 16.735-0.5721 3.8151-0.2979 4.8789 2.0523 7.9601 3.1331 4.1077 5.864 5.3935 13.516 6.3637 6.3408 0.80391 7.5361 0.68005 15-1.5543zm-13.126-13.377c-0.5245-3.3904 1.1914-14 2.2642-14 1.2962 0 0.8917 9.0083-0.5838 13-1.221 3.3034-1.3154 3.3596-1.6804 1zm12.431-1.6475c-0.3477-0.90611-0.139-2.9538 0.4636-4.5505 0.9938-2.6329 0.8695-2.9891-1.3364-3.8278-1.3377-0.5086-2.4322-1.3859-2.4322-1.9495 0-1.5194 5.321-1.2417 7.5586 0.39445 1.6928 1.2378 1.7922 1.813 0.778 4.5-1.0989 2.9112-1.03 3.0808 1.2503 3.0808 3.1451 0 3.0802 1.375-0.134 2.8395-3.5162 1.6021-5.4036 1.4526-6.1479-0.48694zm16.67-5.3988c-1.4797-2.7648-0.8432-8.0219 1.1199-9.2502 3.866-2.4189 9.7606 2.0247 8.3947 6.3283-1.568 4.9404-7.4652 6.7514-9.5146 2.9219zm5.3719-3.7849c1.8084-1.9983 1.2888-3.1688-1.4069-3.1688-1.8318 0-3.3272 2.565-2.3845 4.0902 0.8491 1.3739 1.9581 1.1044 3.7914-0.92139zm-815.12-19.844c-0.70118-0.27956-1.8945-1.9914-2.6519-3.804-1.4562-3.4852-2.0454-3.5942-12.543-2.3206-1.9474 0.23624-2.804-0.39868-4.0491-3.0011-1.5738-3.2894-1.5855-3.2938-3.4181-1.2688-1.5064 1.6645-1.611 2.3066-0.57843 3.5507 1.0628 1.2806 0.91301 1.5188-0.9556 1.5188-1.3751 0-2.4146-0.75901-2.7391-2-0.36913-1.4116-1.364-2-3.3814-2-2.6634 0-2.8161 0.21156-2.2381 3.1013 0.53234 2.6617 0.35333 3.0499-1.2629 2.7386-1.4424-0.27778-2.0657-1.6313-2.6632-5.7833-0.91868-6.3835 0.0216-7.8616 3.2307-5.0784 3.1259 2.7111 5.4645 2.5477 6.8432-0.47817 1.2354-2.7115 3.0872-3.1947 4.982-1.3 0.93333 0.93333 1.2 0.82222 1.2-0.5 0-0.935 0.66643-1.7 1.481-1.7 1.7954 0 2.9637 4.0921 2.1238 7.4387-0.33665 1.3413-0.16043 2.7179 0.39159 3.059 0.58453 0.36126 1.0037-0.60604 1.0037-2.3163 0-3.9022 2.3232-5.8425 5.2841-4.4132 3.2755 1.5812 8.7159 2.3345 8.7159 1.2068 0-1.5291 3.8082-1.1402 4.7158 0.48156 1.0757 1.9222 0.0671 12.817-1.2158 13.131-0.55 0.13497-1.5737 0.0167-2.2749-0.26289zm1198.5-1.575c-0.7112-3.0841-0.9185-20.304-0.2362-19.622 0.6992 0.69923 1.9057 21.872 1.2463 21.872-0.2702 0-0.7248-1.0125-1.0101-2.25zm-1016.4-1.355c-0.36774-0.95831 0.0821-3.0327 1.0071-4.6444 1.6857-2.9371 2.2004-6.8884 1.0475-8.0414-0.34328-0.34328-1.468 0.36922-2.4993 1.5833-1.743 2.0518-1.9687 2.0875-3.2011 0.50539-1.469-1.8858-5.0484-1.4868-7.7808 0.86723-1.2112 1.0435-4.7992 1.0273-4.9097-0.0221-8e-3 -0.0786-0.66353-1.943-1.4561-4.143-1.3006-3.6101-1.4453-3.7289-1.485-1.2186-0.0559 3.542-1.8922 4.2267-6.3456 2.3659-3.9656-1.657-4.6983-1.3421-4.6983 2.0193 0 2.8571-2.5139 3.1101-3.9648 0.39907-2.033-3.7986-1.0147-9.712 1.2776-7.4196 1.2522 1.2522 7.2055 1.1628 8.6872-0.13046 0.825-0.72005 2.3716-1.4688 3.4368-1.664 1.2075-0.22117 2.2538-1.5781 2.7786-3.6032 1.2622-4.871 4.7513-3.8901 3.8738 1.0891-1.9817 11.244 1.2581 16.01 4.36 6.4132 1.0335-3.1973 4.2704-4.6807 3.8203-1.7507-0.35451 2.3074 4.2121 4.0898 5.9713 2.3306 1.8838-1.8838 4.4356-0.75629 5.2023 2.2985 0.48071 1.9153 1.0741 2.3415 2.5902 1.8603 2.6872-0.85289 2.5085-0.32718-1.5333 4.5106-1.925 2.3041-3.5 4.7951-3.5 5.5356 0 2.1396-1.9476 2.7644-2.6787 0.85937zm416.35-0.0616c-1.3779-1.3779-0.5894-3.2056 1.516-3.5138 3.1349-0.45896 4.3648-5.5099 1.8752-7.7008-2.0971-1.8455-3.479-7.7404-2.0251-8.6389 0.5319-0.32879 0.9672-1.6924 0.9672-3.0304 0-2.1648 0.3578-2.3859 3.25-2.0085 1.7875 0.23325 3.7822 0.45446 4.4326 0.49158 2.1657 0.12359 2.2883 3.4955 0.3932 10.817l-1.8764 7.25 3.1503 0.0153c6.3905 0.0311 6.5242 1.7083 0.3538 4.4371-5.5692 2.463-10.659 3.2584-12.037 1.8809zm-658.96-0.95532c-0.39127-0.39126-0.71139-3.8239-0.71139-7.628 0-5.0864 0.33078-6.8077 1.25-6.5047 0.71853 0.23679 1.3754 2.5219 1.545 5.3745 0.30628 5.1521-0.84606 9.9958-2.0836 8.7582zm385.03-0.504c-2.3483-1.3142-2.1892-2.7801 0.63177-5.8193 2.4837-2.676 4.3234-8.0547 2.7548-8.0547-0.50163 0-1.1894 0.72273-1.5284 1.6061-0.42965 1.1196-1.3391 1.4247-3.0027 1.0071-1.6124-0.40467-2.5722-0.11471-2.9593 0.89394-0.77169 2.011-4.2654 1.9-5.0562-0.16062-0.56674-1.4769-0.76507-1.4897-1.857-0.11994-1.4469 1.8151-5.7817 2.9869-7.3311 1.9818-3.1388-2.0362-5.1347-14.865-2.6927-17.307 2.313-2.313 3.4479 0.21352 3.1224 6.9517-0.33508 6.9366 0.82875 9.0882 2.8131 5.2007 2.1616-4.2347 3.1615-4.5942 5.8233-2.0936 1.8845 1.7704 2.8052 2.0669 3.8153 1.2286 0.73224-0.6077 2.3228-0.84564 3.5346-0.52874 1.2118 0.31689 2.8702 0.0227 3.6852-0.65373 2.153-1.7869 4.3145-0.54829 4.6853 2.6848 0.21853 1.9057 0.8045 2.6889 1.8221 2.4354 10.499-2.6151 11.357-2.2608 3.6631 1.5128-3.7498 1.839-5.9522 3.6446-6.7267 5.5144-1.5899 3.8384-3.08 4.9051-5.197 3.7204zm2.2606-2.374c0-0.825-0.17686-1.5-0.39301-1.5-0.21616 0-0.65203 0.675-0.96862 1.5-0.31658 0.825-0.13972 1.5 0.39301 1.5 0.53274 0 0.96862-0.675 0.96862-1.5zm344 0.6653c0-1.889 1.0008-3.7265 3-5.5077 3.8042-3.3896 3.7697-4.2536-0.2017-5.0479-2.3203-0.46408-3.4351-0.22323-4.0497 0.875-0.9754 1.743-5.7486 2.0741-5.7486 0.39875 0-1.0737-1.7224-0.91031-6.6764 0.63323-1.5332 0.47771-2.6857 0.0834-3.8995-1.3344-1.419-1.6572-2.0621-1.8068-3.6434-0.84739-1.6287 0.98824-2.2568 0.74765-4.138-1.5849-2.6679-3.308-6.1785-3.6332-6.96-0.64464-0.9197 3.5169-3.16 1.5508-3.4968-3.0689-0.3928-5.3867 1.3498-7.5018 3.5314-4.2864 1.7701 2.6088 5.7846 2.9904 6.6881 0.6358 0.4192-1.0922 1.4239-1.4604 3.107-1.1387 1.8855 0.36043 2.4876 0.0509 2.4876-1.2788 0-1.6186 1.8592-2.9683 4.0888-2.9683 0.5407 0 0.6548 2.9085 0.2746 7-0.618 6.6493-0.5455 7 1.4477 7 1.6074 0 2.2523-0.82104 2.7566-3.5093 0.4789-2.5526 1.2936-3.6688 2.9885-4.0941 3.0409-0.76322 4.6708 0.31275 3.9438 2.6035-0.6373 2.008 0.9814 3.6482 1.9899 2.0163 1.0388-1.6807 10.495-1.2665 11.042 0.48369 0.2577 0.825 0.6658 2.1393 0.9068 2.9207 0.3786 1.2276 1.0798 1.2276 5.1589 0 7.2317-2.1764 7.4551-1.6768 0.9248 2.0681-3.288 1.8856-7.6575 5.2469-9.7099 7.4697-4.4062 4.7718-5.812 5.0637-5.812 1.2067zm186-1.7277c0-1.792 1.1783-3.8128 3.5-6.0024 1.925-1.8155 3.5-3.6062 3.5-3.9794 0-0.37314-1.6202-0.3745-3.6004-3e-3 -2.5394 0.47641-4.0865 0.24112-5.25-0.79845-2.0193-1.8042-4.1064-2.2082-6.3412-1.2276-3.7375 1.6401-5.3084 0.28705-5.3084-4.5723 0-3.654-0.3095-4.4979-1.5-4.0901-0.9522 0.32614-0.7151-0.31175 0.6491-1.7467 3.1803-3.345 4.644-1.7843 3.8361 4.0901-0.5493 3.9939-0.3955 4.8922 0.8376 4.8922 0.8307 0 2.3831-1.198 3.4497-2.6623 1.8908-2.5956 2.5924-2.6453 6.2275-0.44078 0.825 0.50032 3.4603 1.491 5.8563 2.2015 2.3959 0.71051 4.5816 1.879 4.857 2.5967s1.3525 1.3049 2.3937 1.3049c1.0411 0 1.893 0.45 1.893 1s-0.6118 1-1.3595 1-3.1193 2.3625-5.2702 5.25c-4.5608 6.1228-8.3703 7.5736-8.3703 3.1876zm21.574-2.1048c-0.7532-1.9629 0.777-3.8518 2.3387-2.8866 1.576 0.97403 1.3355 4.5538-0.3059 4.5538-0.7662 0-1.6809-0.75025-2.0328-1.6672zm-309.57-5.1777c0-3.2953-0.25322-6.6514-0.56271-7.4579-0.45064-1.1744 0.49535-1.4686 4.75-1.4777 2.922-6e-3 5.8752 0.44697 6.5627 1.0071 1.7437 1.4206 1.5935 9.2435-0.2062 10.737-2.2444 1.8627-3.471 0.36266-2.8471-3.482 0.8535-5.2596-1.3931-4.316-3.02 1.2683-0.83116 2.8531-2.0413 4.8791-3.0303 5.0733-1.3814 0.27128-1.6465-0.64124-1.6465-5.6682zm-281.96 2.9106c-0.56935-1.0638-1.0352-4.4247-1.0352-7.4686 0-4.5086 0.27802-5.4277 1.5-4.9588 0.825 0.31659 1.5 1.1537 1.5 1.8602s1.2335 1.5942 2.7412 1.9726c2.1399 0.53707 3.0441 0.2318 4.122-1.3916 1.6272-2.4507 3.4133-2.6563 5.128-0.59031 0.98346 1.185 0.96387 2.4109-0.0959 6-0.73249 2.4809-1.8764 4.5107-2.5421 4.5107-1.6596 0-4.3531-2.8286-4.3531-4.5714 0-1.9433-3.6364-1.8183-4.3921 0.15089-0.33335 0.86871-0.33271 2.6687 1e-3 4 0.73322 2.9214-1.0869 3.2652-2.5741 0.48628zm-177.57-1.3548c-0.31598-1.259-0.10558-3.5224 0.46755-5.0298 0.93725-2.4652 0.7838-2.839-1.5258-3.7171-3.4201-1.3003-2.5621-3.563 1.1819-3.1169 5.3001 0.63154 6.4881 3.4616 3.9472 9.4029-1.0489 2.4527 1.5206 2.2811 4.8307-0.32258 3.3235-2.6142 3.4581-0.65973 0.18031 2.618-3.2877 3.2877-8.2754 3.3786-9.0819 0.16552zm147.54 1.789c0-0.275 0.9-1.4 2-2.5 2.2966-2.2966 2.591-4 0.69113-4-0.71988 0-2.1616-0.62357-3.2039-1.3857-1.8189-1.33-1.7613-1.538 1.4311-5.174 3.155-3.5934 3.2313-3.8577 1.4826-5.1364-1.014-0.74142-2.419-1.1272-3.1222-0.85736-0.70328 0.26987-1.2787-0.1702-1.2787-0.97793 0-1.9472 3.945-1.8959 6.7775 0.0881 2.8923 2.0258 2.8131 5.431-0.18456 7.9433l-2.3864 2 2.5226 2.0562c2.4646 2.009 2.4847 2.1296 0.87106 5.25-1.0113 1.9556-2.417 3.1937-3.6259 3.1937-1.0859 0-1.9743-0.225-1.9743-0.5zm-309.91-5.8332c-1.4992-2.8013-0.63114-6.6668 1.4972-6.6668 1.0361 0 1.2779 0.69242 0.84456 2.4189-0.49981 1.9914-0.19387 2.4774 1.7309 2.75 3.1744 0.44952 3.0063 3.2532-0.21746 3.6288-1.8605 0.2167-2.909-0.36282-3.8552-2.1308zm636.37 1.2666c-0.65012-1.0519 0.0755-2.3712 1.3744-2.4991 0.36667-0.0361 3.0847-0.81582 6.0401-1.7327 2.9554-0.91693 5.7678-1.4233 6.25-1.1254 1.8712 1.1564 0.6936 2.5732-3.7063 4.4593-5.0766 2.1761-8.9522 2.5256-9.9582 0.89793zm-625.46-2.9335c0-1.3333-0.66667-2-2-2-1.1 0-2-0.41968-2-0.93261 0-0.51294 0.9-1.2183 2-1.5674 1.1227-0.35633 2-1.513 2-2.6369 0-1.5046 0.55912-1.9225 2.25-1.6816 1.8229 0.25971 2.2084 0.8899 2.0309 3.3196-0.39155 5.3594-4.2809 10.355-4.2809 5.499zm183.92-0.15064c-1.2621-2.3583-1.4647-9.158-0.32763-10.998 0.44573-0.72122 0.28021-0.89045-0.43724-0.44704-0.63498 0.39244-1.1545 1.4868-1.1545 2.432s-0.73648 2.77-1.6366 4.0551c-1.4323 2.0448-2.249 2.2778-6.5413 1.8653-4.0525-0.38939-5.0773-0.14861-5.8986 1.3859-0.54666 1.0214-1.5406 1.8422-2.2087 1.8239-2.1909-0.06-5.9541-3.9008-5.3541-5.4644 0.66771-1.74 2.7752-1.9664 4.2816-0.45996 0.72318 0.72318 1.4344 0.57006 2.3224-0.5 1.6183-1.9499 3.4393-1.9652 5.0352-0.0424 1.7374 2.0934 3.9173 1.8997 3.3428-0.29701-0.3116-1.1916 0.3828-2.2534 2.061-3.1515 1.392-0.74498 3.677-3.0863 5.0777-5.203s2.9818-3.8485 3.5136-3.8485c1.7478 0 2.2346 4.8739 1.0006 10.018-0.66674 2.7793-1.0165 6.3872-0.77717 8.0176 0.50931 3.4702-0.65663 3.8829-2.2992 0.81378zm692.29-0.0369c-0.6669-0.66684-1.2125-1.7975-1.2125-2.5125s-0.9431-1.3-2.0957-1.3-3.4217-0.78327-5.0423-1.7406c-2.581-1.5246-3.0635-1.5556-3.889-0.25-0.5183 0.81982-0.9493 2.5406-0.9577 3.8239-0.022 3.3836-2.0633 2.2166-4.6377-2.6519-2.0717-3.9175-2.0955-4.1815-0.3778-4.1815 1.0085 0 2.004 0.51131 2.2123 1.1362 0.2719 0.81572 0.9768 0.76272 2.499-0.18789 1.7543-1.0956 2.8068-1.0976 6.098-0.0113 4.4328 1.463 6.1909 0.89612 6.1909-1.996 0-1.4268 0.6932-1.941 2.6166-1.941 2.2887 0 2.5393 0.3132 2 2.5-1.9146 7.763-1.9186 7.8047-0.6655 7.0302 0.8432-0.5211 1.1302-0.19451 0.895 1.0185-0.4388 2.2638-2.0672 2.8302-3.6336 1.2638zm363.17-7.0625c-0.2618-7.4531 2.2195-55.971 3.2347-63.25 1.2132-8.6989 1.4907-10.238 3.0289-16.807 0.9137-3.9023 1.3863-8.968 1.1074-11.871-0.2676-2.7849 0.096-8.42 0.8088-12.522 0.7124-4.1024 1.3436-10.461 1.4027-14.129 0.059-3.6688 0.2155-7.7954 0.3475-9.1704 0.1319-1.375-0.3219-5.8195-1.0085-9.8768s-1.511-9.6822-1.8321-12.5c-0.7132-6.2596-3.9024-11.919-9.7595-17.318-3.5997-3.3181-5.7832-4.3881-11.701-5.734-4.0013-0.91007-8.46-2.2674-9.9083-3.0164s-4.8773-1.6479-7.6201-1.9977c-2.7427-0.34978-8.5868-1.2697-12.987-2.0443-13.628-2.399-34.147-5.1985-48-6.5489-11.031-1.0753-19.812-2.5509-22.204-3.7312-0.988-0.48765-3.3713-0.96814-5.2963-1.0678-3.5906-0.18581-17.676-1.3698-38-3.1942-6.325-0.56776-15.715-1.2496-20.867-1.5153-5.152-0.26564-9.7307-0.70763-10.175-0.98219-0.4442-0.27456-6.354-0.77892-13.133-1.1208-6.7787-0.34188-13.083-1.0112-14.009-1.4874-0.9263-0.47617-4.0763-0.86936-7-0.87375-5.8214-9e-3 -28.446-2.6453-29.781-3.4705-0.4581-0.28308-7.1897-0.73151-14.959-0.99651-7.7695-0.26501-14.911-0.90189-15.871-1.4153s-14.335-1.1786-29.724-1.4782c-28.671-0.55824-36.402-1.206-49.48-4.1462-6.5801-1.4793-8.9105-1.5375-19-0.47501-12.783 1.3462-21.654 3.1139-30.209 6.0196-3.1399 1.0665-6.3381 1.6976-7.1071 1.4025-2.2175-0.85094-3.4083 3.7775-5.1629 20.068-2.4969 23.182-3.6017 29.5-5.1583 29.5-1.6102 0-1.8269-4.6491-0.3926-8.4217 0.9338-2.4561 1.9143-9.0298 4.5594-30.568 0.6824-5.5567 3.2271-11.744 5.6473-13.73 2.2487-1.8459 14.834-5.2145 25.323-6.7778 11.497-1.7136 25.451-1.9503 30.45-0.51664 2.9368 0.84227 15.489 2.3988 28.05 3.4784 1.925 0.16545 12.275 0.5868 23 0.93633 25.372 0.82689 36.032 1.4644 44 2.6312 3.575 0.52353 12.575 1.3952 20 1.937s15.975 1.4354 19 1.9858 11.125 1.4564 18 2.0135 15.875 1.4514 20 1.9875c4.125 0.53606 14.925 1.6774 24 2.5364s20.775 1.9816 26 2.4948 12.65 1.2366 16.5 1.6075c3.85 0.37094 8.0503 1.0673 9.3339 1.5474 1.2837 0.4801 2.6759 0.66157 3.0939 0.40326 0.4179-0.25832 2.2927-0.0465 4.166 0.4706 1.8734 0.51714 9.2562 1.6252 16.406 2.4624 7.15 0.83719 17.5 2.1893 23 3.0047 5.5 0.8154 11.8 1.7163 14 2.002 2.2 0.28569 6.25 0.92597 9 1.4228s8.375 1.4228 12.5 2.0577c18.243 2.8076 28.6 6.647 34.478 12.781 6.3834 6.6617 9.3736 12.82 10.64 21.913 1.6907 12.142 2.1184 15.717 2.0746 17.341-0.022 0.825-0.092 5.55-0.1551 10.5-0.063 4.95-0.7491 12.15-1.5246 16s-1.6275 10.825-1.8933 15.5-1.3851 12.325-2.4874 17c-1.1022 4.675-2.2627 12.325-2.5788 17-0.5432 8.0348-0.8682 11.992-2.0534 25-0.2756 3.025-0.5276 11.238-0.56 18.25-0.032 7.0125-0.3696 12.75-0.7493 12.75-0.3798 0-0.7419-1.4625-0.8046-3.25zm-581.08 0.29657c-0.2809-1.0744-1.5888-2.6598-2.9064-3.523-3.0976-2.0296-3.0534-3.5235 0.1045-3.5235 2.0215 0 2.5-0.49444 2.5-2.5833 0-3.505 2.3446-2.6035 3.0322 1.1658l0.5321 2.9175 1.8329-2.75c2.1445-3.2177 4.5739-3.5764 5.3044-0.78312 0.2829 1.0818 1.3915 2.2453 2.4637 2.5856 1.9023 0.60378 3.8347 4.1376 3.8347 7.0126 0 2.5032-1.7094 1.5507-3.0574-1.7036l-1.2999-3.1385-1.7317 2.1385c-2.0835 2.573-2.8144 2.6528-4.4027 0.48064-1.0787-1.4751-1.2858-1.3649-1.8793 1-0.7772 3.0964-3.5821 3.553-4.3271 0.70439zm-880.08-1.1639c-1.5099-2.8666-1.9936-7.893-2.1255-22.087l-0.0995-10.705-3.4614-0.64937c-4.6287-0.86834-9.3929-4.6429-15.363-12.171-4.0945-5.1635-5.0584-7.1747-5.6296-11.747-0.72766-5.824 0.69962-15.108 3.017-19.625 0.73419-1.431 1.3182-3.456 1.2979-4.5-0.17784-9.1254 7.6093-20.243 17.18-24.528l3.8487-1.7231 0.24526-11.324c0.13489-6.2279 0.27214-19.086 0.30499-28.574 0.0537-15.509 0.23039-17.25 1.7507-17.25 0.93004 1.7e-4 1.9327-0.39072 2.228-0.86865 0.57539-0.93099 8.8709-1.7396 28.081-2.7374 6.6-0.34279 12.24-0.76278 12.533-0.93332 0.29311-0.17055 6.3681-0.5984 13.5-0.95079 12.883-0.63658 19.13-1.1793 45.967-3.9941 20.514-2.1516 23.736-2.5217 26.5-3.0446 1.375-0.2601 6.2782-0.70992 10.896-0.99961s10.243-0.95322 12.5-1.4745c2.2572-0.5213 8.3791-0.96031 13.604-0.9756 12.257-0.0358 49.537-2.529 67.5-4.5141 23.834-2.634 54.808-4.1292 103.5-4.9962 16.225-0.2889 35.35-0.73834 42.5-0.99876 31.772-1.1572 45.208-1.7317 48-2.0524 3.0108-0.34593 32.435-2.0032 53-2.9852 19.249-0.91909 29.913-1.568 33-2.0079 1.65-0.23514 18.975-0.66551 38.5-0.95638s40-0.77402 45.5-1.0737 13.473-0.49736 17.718-0.43935c10.463 0.14298 14.471-0.70239 15.122-3.1894 0.50794-1.9424 1.1102-1.9869 19.47-1.4404 19.915 0.59285 24.19 1.4669 24.19 4.945 0 1.9427-0.46121 1.9742-18.925 1.2942-15.57-0.57342-19.071-0.45248-19.75 0.68226-1.0618 1.7751-11.121 3.7119-18.825 3.6247-28.401-0.32142-107.1 1.4737-118 2.6916l-5 0.55869 0.88891 20.918 0.8889 20.918h4.3021c2.3661 0 4.5041-0.3375 4.7511-0.75 0.24697-0.4125 0.74678-5.025 1.1107-10.25 0.69799-10.022 1.5422-12.131 4.1878-10.462 1.8342 1.157 2.7092 8.9606 1.2999 11.594-0.59558 1.1128-0.57096 1.9717 0.0678 2.3665 0.55148 0.34084 1.0027 2.227 1.0027 4.1915 0 3.4901 0.0763 3.5594 3.3358 3.0305 1.8347-0.29774 3.9051-0.18951 4.6008 0.24049 0.77962 0.48183-0.50037 1.0466-3.3358 1.4718l-4.6008 0.68994-0.12762 6.6887c-0.0702 3.6788-0.23375 7.7012-0.36347 8.9387-0.27556 2.629 0.93949 2.7691 11.3 1.3031 3.6804-0.5208 9.729-1.2316 13.442-1.5796l6.75-0.63268v-3.3614c0-3.9108 1.874-5.6774 2.6944-2.5401 0.51754 1.979 0.69313 2.0199 2.3268 0.5415 1.2344-1.1172 3.2304-1.5059 6.6229-1.29 4.8526 0.30891 4.8567 0.31217 5.9669 4.8091 1.6052 6.5021 2.5993 27.317 1.4491 30.342-0.80914 2.1282-1.5862 2.5253-4.8528 2.4802-2.1392-0.0295-6.24 0.26961-9.113 0.66474-4.2207 0.58049-5.4511 0.40916-6.4089-0.89243-1.0815-1.4697-2.5211-1.3717-16.432 1.1183l-15.246 2.7291-0.64191 3.4217c-0.65106 3.4704 0.3345 24.17 1.1916 25.027 0.25678 0.25677 2.8239-0.25283 5.7047-1.1325 2.8808-0.87962 8.1629-1.8955 11.738-2.2575s11.225-1.4818 17-2.4886 14.775-2.5707 20-3.4755 12.82-2.2596 16.877-3.0108c4.0574-0.75115 8.0687-1.1003 8.914-0.7759 1.008 0.38681 1.2882 0.18714 0.81398-0.58012-0.39769-0.64347-1.3715-1.1699-2.164-1.1699-1.6367 0-1.8758-1.1453-0.53242-2.55 1.2503-1.3073 3.0359-28.509 3.1685-48.268 0.13109-19.531-0.32771-20.626-8.3491-19.928-4.805 0.41807-7.122-0.50453-4.1404-1.6487 0.86683-0.33263 3.2267-0.61909 5.2443-0.63658 2.0175-0.0175 4.4955-0.65868 5.5066-1.4249 1.5681-1.1882 3.558-6.6854 3.6378-10.049 0.0732-3.088-67.378 1.9746-74.077 5.5599-0.97225 0.52034-2.5598 0.94607-3.5278 0.94607-4.2846 0 4.9586-4.6896 12.29-6.2354 8.007-1.6882 35.092-3.597 57.124-4.0256 14.112-0.27453 14.4-0.11456 13.575 7.5361l-0.52282 4.846 3.8312-0.70051c2.1072-0.38528 4.7312-1.0242 5.8312-1.4199 1.1-0.39567 5.2367-0.8057 9.1926-0.91119 5.477-0.14604 8.2915 0.30881 11.8 1.907 5.563 2.5343 6.2495 3.9856 4.1654 8.8073-0.8787 2.0329-2.0629 6.3962-2.6316 9.6962-0.56868 3.3-1.2313 7.0125-1.4726 8.25-0.43105 2.2112-0.26798 2.25 9.4449 2.25 6.173 0 10.142 0.41741 10.571 1.1118 1.1673 1.8888-1.4152 2.6196-11.877 3.3614-13.111 0.92956-13.114 0.92657-12.298-13.473 0.32724-5.775 0.87506-11.512 1.2174-12.75 0.54948-1.9864 0.25598-2.25-2.505-2.25-4.7653 0-22.18 2.9693-24.408 4.1616-1.77 0.94729-1.9096 1.7742-1.3752 8.1487 0.32712 3.9019 0.14444 16.974-0.40597 29.05-0.69172 15.176-0.67899 22.277 0.0412 22.998 1.3268 1.3268 1.3541 5.331 0.042 6.142-1.416 0.87517-1.2425 4.2349 0.25 4.8405 2.7669 1.1227-1.6762 2.3945-10.579 3.0282-7.7515 0.55177-16.464 1.9879-31.415 5.1781-2.8552 0.60923-9.9746 1.5689-26.248 3.5381-5.2207 0.63176-10.52 1.5394-11.776 2.017-2.2882 0.86997-5.4011 1.6463-10.409 2.596-2.3405 0.44384-2.9492-0.0254-4.8395-3.7308-1.45-2.8421-1.8064-4.4585-1.0819-4.9062 0.98488-0.60868 1.3433-20.417 0.40278-22.257-0.19582-0.38307-2.2009-0.0456-4.4558 0.75-2.2549 0.79557-5.5296 1.4465-7.2771 1.4465h-3.1773l0.22146 30.463c0.1218 16.755 0.49052 30.899 0.81937 31.431s0.201 1.2127-0.28411 1.5126c-0.49842 0.30804-0.37717 3.0563 0.27879 6.3191l1.1608 5.774 10.955-0.0212c6.0252-0.0117 21.53-0.56939 34.455-1.2394s36.55-1.4519 52.5-1.7374c15.95-0.28559 32.165-0.78406 36.033-1.1077 6.9063-0.57789 14.594 0.67559 17.19 2.8028 0.95392 0.78174 0.91216 1.3115-0.19027 2.4139-1.1425 1.1425-10.07 1.6119-46.722 2.4568-24.92 0.57439-51.835 1.4185-59.81 1.8757-20.832 1.1944-53.323 1.2116-69 0.0364-7.425-0.55659-19.413-1.1173-26.64-1.2459-7.4361-0.13239-12.645-0.60046-12-1.0783 0.65377-0.48421 0.28696-0.53033-0.85999-0.10814-4.818 1.7735-73.563 3.9452-157.5 4.9755-47.475 0.58275-60.755 1.1058-75 2.9541-16.854 2.1868-30.897 2.7-37.024 1.3531-6.9031-1.5174-12.484-1.5248-21.976-0.0293-21.946 3.4578-34.174 4.4217-61.5 4.8479-15.95 0.24879-31.939 0.86843-35.532 1.377s-13.272 1.2204-21.51 1.582l-14.978 0.65739zm26.775-3.8531c7.425-0.52931 25.425-1.185 40-1.457 37.779-0.70518 77.392-4.7355 79.255-8.0634 0.55753-0.99626 1.5617-1.1352 3.7232-0.51533 3.3115 0.94972 7.7194 1.2463 16.397 1.1032l5.875-0.0969-0.69428-3.25c-1.8206-8.5222-3.1671-30.745-2.7721-45.75 0.23891-9.075 0.57642-16.654 0.75003-16.841 0.17361-0.18771 1.2222-0.0536 2.3301 0.29806 2.8156 0.89363 4.0851 8.1907 4.0445 23.248-0.0288 10.692 0.79117 21.978 2.7 37.161l0.54877 4.365 11.671-0.81019c6.4193-0.4456 24.496-0.9023 40.171-1.0149 45.641-0.32785 95.127-1.1983 95.61-1.6818 0.24517-0.24518-0.0548-1.7457-0.66651-3.3345-0.73999-1.9218-0.87182-6.4031-0.39387-13.389 0.39513-5.775 0.99557-16.575 1.3343-24l0.61589-13.5 2.6827-0.30993c4.5429-0.52483 4.9763 1.7788 4.3437 23.085-0.31397 10.574-0.62466 20.35-0.69042 21.725-0.0658 1.375-0.0558 4.0119 0.0222 5.8598l0.14182 3.3598 25.75-0.64819c14.162-0.35651 31.6-0.87493 38.75-1.152 21.631-0.83836 57.744-0.65698 62 0.31141 2.2 0.50058 8.661 1.028 14.358 1.1721l10.358 0.26195-0.71821-6.3325c-0.39502-3.4828-1.3276-7.812-2.0725-9.6202-0.75695-1.8376-1.4127-7.3512-1.4868-12.5-0.18051-12.554 1.0327-48.856 1.667-49.882 0.28214-0.45653 2.1162-0.83005 4.0756-0.83005 1.9595 0 6.6579-1.209 10.441-2.6866l6.8783-2.6866v-19.309l-20.25-0.65756c-11.138-0.36166-21.22-0.92453-22.406-1.2508-1.4312-0.39383-2.3519-1.6548-2.7388-3.7512-0.60062-3.2542 0.67487-16.902 1.8485-19.779 0.83088-2.0368-1.4847-3.0228-5.3048-2.2588l-2.8292 0.56584 0.29228 28.157c0.16076 15.486 0.37046 31.982 0.46601 36.657 0.24766 12.118 0.0154 16.304-0.99272 17.896-0.61369 0.9692-3.5907 1.5147-9.7347 1.7837-4.8679 0.21315-10.651 0.80604-12.851 1.3175-4.8417 1.1257-17.01 2.6251-32.5 4.0047-15.229 1.3564-18.906 1.8524-22.597 3.0486-3.3616 1.0893-6.7016 0.34634-6.1316-1.3639 0.65122-1.9537 14.287-5.475 25.327-6.5407 5.9959-0.57878 16.741-1.765 23.879-2.636 7.1375-0.87104 16.137-1.7591 20-1.9735 3.8625-0.21439 7.5634-0.42281 8.2241-0.46316 0.92279-0.0563 1.0798-9.0585 0.67698-38.823-0.2884-21.312-0.7112-39.335-0.93953-40.051-0.63471-1.989-12.474-0.4292-14.523 1.9134-3.5464 4.0544-10.248 5.0048-12.014 1.704-1.0342-1.9325-0.74004-2.5764 2.5579-5.5988 3.0342-2.7807 4.2202-3.285 6.3835-2.7146 5.2147 1.3749 12.987 1.6581 15.06 0.54881 2.345-1.255 2.7235-4.5821 0.96126-8.4497-1.4432-3.1676-2.561-3.5641-12.125-4.3016-7.9624-0.61401-16.373 0.29884-35.24 3.8247-12.083 2.258-22.5 2.5049-22.5 0.5332 0-1.2323 3.5585-2.4993 15.5-5.519 2.2-0.55632 7.7461-1.5469 12.325-2.2014 10.326-1.476 40.672-0.84473 43.922 0.9137 1.5058 0.81461 2.8232 3.1703 3.9933 7.1404l1.7461 5.9248 5.5067 0.59982c10.348 1.1272 11.496 2.5947 8.5934 10.983-0.76132 2.2-1.5423 6.475-1.7354 9.5l-0.35123 5.5 19.251 0.2183c10.588 0.12007 19.925-0.0406 20.75-0.35699 1.1675-0.448 1.4992-2.4324 1.4992-8.9683v-8.393l-2.75-0.011c-5.4507-0.0218-10.142-1.2625-10.815-2.86-0.37711-0.89594-0.87448-8.829-1.1053-17.629-0.45757-17.448-1.4205-26.074-2.8877-25.867-0.51837 0.073-8.3675 0.43716-17.442 0.80927-9.075 0.3721-20.55 1.0702-25.5 1.5513-4.95 0.48109-17.775 1.19-28.5 1.5752-10.725 0.38528-20.625 0.82749-22 0.98267-1.375 0.15519-9.2809 0.31966-17.569 0.3655l-15.069 0.0833-1.7643 9.25c-3.3953 17.801-4.7065 25.281-5.1018 29.102l-0.39841 3.8521 3.7008-0.75268c2.0355-0.41398 4.804-0.79741 6.1523-0.85207 2.1709-0.088 2.6287-0.84332 4-6.5994 1.3715-5.7569 1.822-6.5 3.9406-6.5 1.4154 0 3.1895 1.068 4.3451 2.6158 1.8154 2.4316 1.8435 2.8276 0.3978 5.6232-0.85535 1.6541-1.2731 3.2894-0.9284 3.6342 0.34473 0.34473 2.75 0.62678 5.3451 0.62678 3.9756 0 4.986-0.40854 6.4188-2.5953 1.4412-2.1996 2.2-2.5016 4.9765-1.9807 2.1876 0.41039 3.6524 0.16112 4.4088-0.75028 0.623-0.75067 2.9186-2.1702 5.1014-3.1545 3.2864-1.482 3.8066-2.0924 3.0258-3.5512-0.85949-1.606-0.35549-1.7486 5.7044-1.6149 3.6559 0.0807 6.798 0.60012 6.9824 1.1543 0.3999 1.2017-4.3083 6.4925-5.7776 6.4925-0.57184 0-0.74562-0.88629-0.39214-2 0.96847-3.0514-0.6077-2.453-7.9026 3-3.6789 2.75-7.0336 5-7.4551 5-0.42143 0-1.7643 1.35-2.9842 3-2.6786 3.623-7.0445 4.1505-7.8809 0.95222-0.46516-1.7788-1.2038-2.0087-5.6235-1.75-4.9036 0.28699-5.1187 0.4246-5.9344 3.7978-0.4655 1.925-1.2198 4.9434-1.6763 6.7076-0.77715 3.0037-0.63009 3.2682 2.3135 4.1597 4.2491 1.287 15.953 2.184 17.287 1.3249 0.59106-0.38073 1.7006-2.4922 2.4656-4.6922s1.9213-4.5625 2.5695-5.25c2.843-3.0154 10.774-0.13893 13.816 5.0107 3.3241 5.6272 4.9612 25.117 3.2959 39.239-1.0034 8.5093-2.0028 10.688-3.9908 8.7-1.7151-1.7151-3.618-1.4883-6.4937 0.77372-3.1946 2.5128-9.0556 3.677-10.623 2.1099-0.88926-0.88926-0.81888-1.382 0.29574-2.0709 3.3289-2.0574-0.36935-2.2218-4.5281-0.20134-2.4776 1.2037-5.1694 2.1886-5.9817 2.1886s-3.1561 0.9-5.2084 2c-2.0524 1.1-4.5257 2-5.4964 2-1.9537 0-2.0043 0.22336-1.7737 7.8339 0.12499 4.1245-0.24998 5.6349-1.6537 6.6613-2.5213 1.8436-3.0417 1.246-4.3332-4.975l-1.1304-5.4449-3.1869 0.71238c-5.6235 1.257-20.957 0.72356-24.113-0.83895-5.5244-2.735-3.9353-3.4487 7.6786-3.4487 6.8425 0 12.423-0.49682 14.248-1.2685l3-1.2686 0.10821-20.731 0.1082-20.731-12.608 0.73034c-14.755 0.85468-34.097 0.18109-35.515-1.2368-0.65246-0.65246-0.56592-2.7778 0.25413-6.2414 0.68391-2.8886 1.5014-6.5058 1.8167-8.0381l0.57321-2.786-15.369 0.28601c-8.4528 0.15731-16.636-0.0676-18.185-0.49976l-2.8166-0.78577 0.53202 4.2858c0.79596 6.4121 1.7574 36.752 1.5619 49.286-0.23189 14.863 0.33852 20.83 2.2152 23.172 0.617 0.76994 0.33641 1.8752-0.81848 3.224-1.5358 1.7937-1.9562 1.8725-3.3347 0.62491-1.3698-1.2396-3.1533-1.1615-13.55 0.59329-6.5849 1.1114-19.173 2.4413-27.973 2.9553s-19.938 1.2151-24.75 1.5581l-8.75 0.62362-0.13624-7.8754c-0.20431-11.81-0.39007-13.542-1.8902-17.629-0.94001-2.5608-1.8695-3.6171-2.9257-3.3247-7.2351 2.0033-26.468 2.9488-29.298 1.4403-4.3183-2.3017 0.20606-4.1766 12.75-5.2837 3.85-0.33977 9.3029-1.1172 12.117-1.7277l5.1175-1.11 0.62541-6.6205c0.60777-6.4339 0.89524-25.121 0.38644-25.121-0.13925 0-3.4003 0.9-7.2468 2s-8.7704 2-10.942 2c-2.7822 0-4.7031 0.70526-6.5032 2.3877-3.8158 3.5663-6.5821 4.085-8.9827 1.6843-1.5159-1.5159-1.8772-2.7958-1.4262-5.0512 0.38581-1.929 0.19756-3.0208-0.52083-3.0208-1.4844 0-1.4444-3.2806 0.0583-4.7833 0.65084-0.65084 0.9601-1.4066 0.68724-1.6794-0.27285-0.27285-2.4841 1.303-4.9139 3.502-2.4298 2.1989-5.8872 4.5294-7.6831 5.1788s-3.5378 2.0391-3.8707 3.0882c-0.70176 2.2111-3.5069 5.6937-4.5861 5.6937-0.40634 0-1.6187-0.94447-2.6942-2.0988-1.7634-1.8928-2.4282-1.998-6.7725-1.0714-3.3988 0.7249-5.2017 0.70831-6.123-0.0563-1.5889-1.3187-1.4955-22.739 0.19456-44.597l1.1075-14.323-5.0145 0.4819c-6.1134 0.58749-26.425 3.5833-28.554 4.2116-0.84652 0.2498-11.197 1.1323-23 1.9611-11.803 0.82883-29.415 2.1403-39.137 2.9144-9.7216 0.77407-19.509 1.1615-21.75 0.86092-2.7502-0.36891-4.0743-0.16729-4.0743 0.62033 0 0.87295-0.52533 0.88571-2.0856 0.0506-1.1471-0.61391-2.2379-0.96393-2.424-0.77782-0.18611 0.1861-0.48507 12.035-0.66435 26.331l-0.32598 25.993 7.1709 0.0839c8.685 0.10165 15.545 2.5064 18.338 6.4279 6.4659 9.0805 7.4069 26.601 2.0593 38.34-1.1372 2.4964-2.0677 5.0276-2.0677 5.6251s-0.70086 1.3552-1.5575 1.6839-1.3384 1.1685-1.0707 1.8663-0.71889 2.4138-2.1925 3.8134c-1.4736 1.3997-4.0293 4.3722-5.6793 6.6058-1.65 2.2335-5.7458 5.879-9.1019 8.101l-6.1019 4.04 0.22156 12.707c0.12186 6.9886 0.28021 13.719 0.35189 14.957 0.15534 2.6819 2.0146 2.7848 23.13 1.2795zm300.73-8.6337c-0.33229-0.33229-1.1948-0.36781-1.9167-0.0789-0.79773 0.31922-0.56078 0.55618 0.60417 0.60416 1.0542 0.0434 1.6448-0.19293 1.3125-0.52522zm27.54-2.0518c-0.67703-0.27392-2.027-0.29059-3-0.0371-0.97297 0.25354-0.41903 0.47766 1.231 0.49804 1.65 0.0204 2.4461-0.18706 1.769-0.46099zm20.46 0.0518c-0.33229-0.33229-1.1948-0.36781-1.9167-0.0789-0.79773 0.31922-0.56078 0.55618 0.60417 0.60416 1.0542 0.0434 1.6448-0.19293 1.3125-0.52522zm10.271-0.39586c0.825-0.53316 1.05-0.96937 0.5-0.96937s-1.675 0.43621-2.5 0.96937-1.05 0.96937-0.5 0.96937 1.675-0.43621 2.5-0.96937zm93.264 0.29607c-1.2299-0.23736-3.4799-0.24351-5-0.0136-1.5201 0.22985-0.51375 0.42406 2.2362 0.43157 2.75 7e-3 3.9937-0.18056 2.7638-0.41792zm-88.535-0.90024c-0.33229-0.33229-1.1948-0.36781-1.9167-0.0789-0.79773 0.31922-0.56078 0.55618 0.60417 0.60416 1.0542 0.0434 1.6448-0.19293 1.3125-0.52522zm4 0c-0.33229-0.33229-1.1948-0.36781-1.9167-0.0789-0.79773 0.31922-0.56078 0.55618 0.60417 0.60416 1.0542 0.0434 1.6448-0.19293 1.3125-0.52522zm7.5208-0.10156c-1.2375-0.23836-3.2625-0.23836-4.5 0-1.2375 0.23835-0.225 0.43337 2.25 0.43337s3.4875-0.19502 2.25-0.43337zm11.479 0.10156c-0.33229-0.33229-1.1948-0.36781-1.9167-0.0789-0.79773 0.31922-0.56078 0.55618 0.60417 0.60416 1.0542 0.0434 1.6448-0.19293 1.3125-0.52522zm5.5399-0.0518c-0.67703-0.27392-2.027-0.29059-3-0.0371-0.97297 0.25354-0.41903 0.47766 1.231 0.49804 1.65 0.0204 2.4461-0.18706 1.769-0.46099zm-421.77-24.844c0-3.4552 0.3251-4.046 2.3869-4.3375 2.667-0.3771 4.0749 1.2078 4.0978 4.6132 0.0146 2.1667 0.14699 2.2063 2.7653 0.82593 3.1566-1.6641 11.25-8.846 11.25-9.983 0-0.4188 0.5625-1.3887 1.25-2.1553 2.7691-3.0878 3.39-4.1637 5.1733-8.9633 1.0218-2.75 2.169-5.45 2.5494-6 1.8094-2.6162 3.2589-12.938 2.838-20.209-0.39799-6.875-0.88199-8.5343-3.6723-12.59-1.7676-2.5692-3.9844-5.0646-4.9262-5.5454-3.0557-1.56-8.4641-2.1913-13.289-1.5513-4.2017 0.55737-4.7827 0.94249-5.2963 3.5107-0.6228 3.114-3.03 3.8827-4.0265 1.2859-0.50021-1.3035-1.1858-0.98609-3.7126 1.7188-5.2863 5.659-11.86 15.489-12.501 18.694-0.33641 1.6821-1.1893 3.28-1.8954 3.5509-1.8314 0.70276-4.6022 9.6858-4.3994 14.262 0.45232 10.204 5.9568 20.471 13.383 24.962 5.8026 3.5089 8.0247 2.9304 8.0247-2.0891zm-2.9362-6.6285c-2.924-2.3-3.2361-4.0687-1.0396-5.8916 0.83829-0.69572 1.2951-1.494 1.0151-1.774-0.72238-0.72238 4.3272-3.206 6.5183-3.206 3.7147 0 6.5484-7.4805 3.6924-9.7472-0.6875-0.54567-2.934-1.5345-4.9923-2.1974-2.0582-0.66293-4.1429-1.9212-4.6326-2.7962-0.99753-1.7825 0.0546-6.3582 2.223-9.6675 1.2545-1.9146 1.201-2.4302-0.46539-4.4881-2.3239-2.87-2.3398-4.977-0.058-7.7066 4.1526-4.9676 8.957-5.3662 10.987-0.91147 1.2398 2.7211-0.41938 8.1145-3.2083 10.429-1.4714 1.2212-6.6031 9.3815-6.6031 10.5 0 0.30718 1.671 1.2567 3.7134 2.1101 5.4298 2.2687 7.2866 4.3316 7.2866 8.0955 0 2.3034-0.9809 4.4274-3.2248 6.9831-2.2407 2.552-3.1387 4.4944-2.9425 6.3646 0.48613 4.6345-4.4045 6.9433-8.2689 3.9036zm8.4007-46.322c0.064-1.7171-1.7114 0.84164-2.3939 3.45l-0.65411 2.5 1.5063-2.5c0.82845-1.375 1.5222-2.9275 1.5417-3.45zm230.54 34.547c13.453-0.72479 21.692-1.859 41.151-5.665 2.0016-0.39148 2.2014-1.2281 2.8774-12.046 0.3995-6.3938 0.33155-22.934-0.15099-36.756-0.87509-25.066-0.8832-25.132-3.1472-25.453-1.3514-0.19179-3.5219 0.73135-5.3639 2.2812-4.2968 3.6155-8.9864 2.1826-10.326-3.1552-0.78119-3.1125 0.60509-4.2667 5.1509-4.2885 1.755-8e-3 3.5166-0.54225 3.9147-1.1863 0.48636-0.78695 0.9677-0.5114 1.4677 0.84021 0.58391 1.5785 1.4091 1.9136 3.8353 1.5575 3.085-0.45279 3.0913-0.46668 3.0913-6.8402v-6.3865l-6.75 0.0844c-3.7125 0.0464-9.225 0.44935-12.25 0.89542-22.856 3.3705-42.436 5.8594-50 6.356-2.2101 0.14512-2.5365 0.67445-2.8149 4.565-0.35055 4.8995 0.75908 6.196 4.7678 5.5706 1.4009-0.21855 5.1346-0.67142 8.2971-1.0064 4.6596-0.49352 5.75-0.95249 5.75-2.4204 0-2.4297 3.7839-3.299 7.1185-1.6354 2.422 1.2083 3.1321 1.0725 7.3861-1.412 2.7473-1.6045 4.2463-3.0332 3.6009-3.432-2.2939-1.4177-0.94758-2.0691 3.6444-1.7634 7.3761 0.49113 7.7035 0.75254 5.2529 4.194-2.2623 3.1771-5.6885 4.2331-4.6092 1.4206 0.71143-1.854 0.89727-1.9213-7.1318 2.5836-3.431 1.925-6.2435 3.9928-6.25 4.595-0.0179 1.6517-3.1773 4.1657-6.1752 4.9137-1.9992 0.49884-3.2118 0.1161-4.8627-1.5348-2.0932-2.0932-2.487-2.1384-8.157-0.93509-5.2774 1.1199-5.9003 1.5039-5.4556 3.3627 0.27615 1.1541 0.81463 3.8218 1.1966 5.9283s1.2002 4.0062 1.8183 4.2218c2.5735 0.8977 21.67 2.3678 23.188 1.7852 1.2589-0.48309 1.5162-1.451 1.0877-4.0916-0.53865-3.3194-0.45223-3.4377 2.1432-2.935 4.0629 0.78701 12.256 3.5709 16.204 5.5064 3.0908 1.5149 3.4749 2.1228 3.285 5.1994-0.11825 1.9162-0.63183 10.619-1.1413 19.34-0.64876 11.105-1.3333 16.224-2.285 17.086-1.8302 1.6574-13.036 4.8606-15.437 4.4126-1.3139-0.24514-2.2046-1.6229-2.8166-4.3564l-0.89496-3.9978-12.855-0.094-12.855-0.094-0.12259 3.094c-0.0674 1.7017-0.18203 7.7531-0.25468 13.448l-0.13209 10.354 5.0047-0.62401c2.7526-0.34314 12.205-1.0119 21.005-1.486zm9.9589-67.164c-0.36253-0.58659-0.41903-1.3066-0.12555-1.6001 0.71632-0.71631 2.6667 0.54583 2.6667 1.7257 0 1.278-1.7264 1.1927-2.5411-0.12555zm-1.4589-4.9335c0-0.55 0.42344-1 0.94098-1s1.2191 0.45 1.559 1-0.0835 1-0.94098 1c-0.85746 0-1.559-0.45-1.559-1zm0.21817-7.1545c0.51903-1.5571 2.7562-1.8298 2.8346-0.3455 0.029 0.55-0.69777 1.1555-1.6152 1.3455-1.0427 0.21599-1.4999-0.15888-1.2195-1zm0.35326 56.583c-2.1475-2.1475-2.0194-2.8274 1.4286-7.5873 3.9475-5.4494 4.0368-7.4162 0.25-5.5042-1.5125 0.76367-3.3299 1.1819-4.0386 0.92948-0.98377-0.35041-1.2462 1.2198-1.1095 6.6372 0.1716 6.7998 0.28063 7.0962 2.61 7.0962 2.21 0 2.2881-0.14286 0.85953-1.5714zm6.4486-0.95274c1.9324-2.3284 0.55355-2.7672-1.5145-0.48196-0.99854 1.1034-1.3509 2.0061-0.78298 2.0061s1.6018-0.68587 2.2975-1.5242zm136.02-4.5555 6.9635-2.1151v-34.805h-7.875c-4.3312 0-9.2154-0.26808-10.854-0.59572-2.8192-0.56383-3.0129-0.38983-3.6187 3.25-1.3798 8.2901-2.9508 31.022-2.3181 33.543 1.082 4.3111 5.3198 4.4843 17.702 0.72333zm-150.24-7.7672c0.20037-5.7274-0.11346-8.8383-1-9.9126-1.024-1.2409-1.0327-1.653-0.042-1.9864 1.353-0.4554 1.6784-5.0618 0.48469-6.8621-0.40408-0.60941-4.1097-1.4127-8.2347-1.7851-4.125-0.37241-9.6375-1.04-12.25-1.4834l-4.75-0.80634-0.0255 4.5915c-0.014 2.5253-0.29111 8.9202-0.61571 14.211-0.4624 7.5366-0.29448 9.8053 0.77552 10.478 1.4198 0.89237 15.765 2.2154 21.866 2.0167l3.5-0.11401 0.29201-8.3469zm13.379 7.1919c1.2401-1.1223 1.802-2.9731 1.7455-5.75l-0.0832-4.095-2.3554 5c-3.2809 6.9647-3.0939 8.2722 0.69312 4.845zm157.58-1.3181 4.25-1.9292 0.13468-6.7989c0.29677-14.981-0.44473-25.299-1.8182-25.299-0.32607 0-2.5456 1.8-4.9324 4-2.3867 2.2-5.0727 4-5.9688 4-1.0749 0-1.4228 0.53826-1.0223 1.5818 0.33385 0.86998 0.60699 2.2984 0.60699 3.1743 0 1.2458 0.55631 1.0699 2.5555-0.80826 1.5369-1.4438 2.317-1.7792 1.957-0.8412-0.48103 1.2535-1e-3 1.4719 2.4445 1.113 1.6736-0.24563 3.0399-0.058 3.0361 0.41689-8e-3 1.0641-5.7517 4.9402-8.542 5.765-1.6733 0.49459-1.974 1.2464-1.6406 4.1021 0.2245 1.9231 0.65692 3.4965 0.96093 3.4965 0.304 0 2.5401-1.1647 4.9691-2.5882s4.6893-2.3152 5.0229-1.9816c0.96868 0.96867-6.9843 8.5698-8.9665 8.5698-1.838 0-2.27 1.604-1.1901 4.4182 0.79479 2.0712 2.9458 1.9678 8.143-0.39128zm-157.89-11.027c2.4013 0 3.1874-1.9319 2.6127-6.4207-0.24483-1.9123-8.6e-4 -3.7515 0.54217-4.0871 1.278-0.78986 1.2775-2.4922-7.7e-4 -2.4922-0.54345 0-3.4684 1.6705-6.5 3.7122-5.1305 3.4553-5.5119 3.9863-5.5119 7.6743v3.9621l2.5-2.3486c2.8505-2.6779 3.3864-1.6905 0.75 1.382-1.7399 2.0277-1.7343 2.0296 0.96482 0.32874 1.4932-0.94091 3.5825-1.7108 4.643-1.7108zm275.93-3.5788c2.9064-0.7313 7.9751-1.6341 11.264-2.0061 4.9646-0.56168 6.0677-1.0361 6.5001-2.7958 0.71856-2.9245 2.2287-19.98 1.8348-20.723-0.17605-0.33195-2.6968-0.23507-5.6016 0.2153-4.5121 0.69956-15.974 1.6512-22.091 1.8342-0.99496 0.0298-1.541 0.48769-1.2135 1.0176 0.32752 0.52993-0.32092 1.8799-1.441 3-1.7401 1.7401-2.0365 3.3173-2.0365 10.836 0 5.4075 0.45301 9.253 1.1751 9.9751 1.1834 1.1834 1.8202 1.1092 11.609-1.3539zm35.534-3.3975c0.45002-0.41807 0.67502-2.3863 0.5-4.3739l-0.31822-3.6138-5 3.9714c-2.75 2.1843-5.4542 3.9762-6.0094 3.982-0.5552 6e-3 -1.5397 0.85971-2.1878 1.8975-1.1442 1.8321-0.98422 1.8434 5.5095 0.3919 3.6783-0.82221 7.056-1.837 7.506-2.2551zm-7.3182-5.5237c2.8605-1.925 5.8308-3.5 6.6005-3.5 1.7492 0 1.8125-3.8734 0.2331-14.25-1.1322-7.4387-1.287-7.75-3.8516-7.75-1.4696 0-3.4376 0.846-4.3734 1.88-1.63 1.8011-1.5526 1.9079 1.845 2.5453 4.8679 0.91323 4.4693 3.0568-0.95361 5.1278-3.7779 1.4428-4.4916 2.1381-4.4476 4.3327l0.0525 2.6141 1.5695-2.25c0.86324-1.2375 2.0197-2.25 2.57-2.25 0.55866 0 0.45073 0.6624-0.24442 1.5-0.78502 0.94589-0.85205 1.5-0.18146 1.5 0.58488 0 1.3415-0.45 1.6815-1 0.71502-1.1569 4.5025-1.3676 4.4949-0.25-0.0116 1.6943-4.7124 8.2043-7.7449 10.726-2.7947 2.3237-4.1813 4.5244-2.8505 4.5244 0.21973 0 2.74-1.575 5.6005-3.5zm-308.65-0.25c1.7349-0.9625 3.3793-2.0201 3.6543-2.3503 0.275-0.33016 1.5919-1.176 2.9264-1.8796l2.4264-1.2793-2.4264-1.2671c-3.2853-1.7156-10.138-2.2645-10.623-0.85104-0.21195 0.61747 0.53305 1.3628 1.6555 1.6564 2.6138 0.68352 2.6384 2.7519 0.0409 3.4312-1.1069 0.28947-2 1.364-2 2.4064 0 2.3188 0.38522 2.3306 4.3457 0.13337zm-72.174-1.905c3.0126-2.7263 2.376-4.3779-1.1713-3.0389-2.8748 1.0851-3.7555 2.6051-2.3333 4.0272 0.98216 0.98217 1.4834 0.8408 3.5046-0.98832zm381.79-4.2634c0.87748-1.6396 0.64172-1.6964-3.002-0.72387-3.4386 0.91781-3.9543 1.4287-3.9543 3.917v2.8615l3.002-2.1376c1.6511-1.1757 3.4306-2.9383 3.9543-3.917zm-407.67 0.93399c0.34393-1.3152 0.0384-2.0156-0.87929-2.0156-0.84212 0-1.4064 1.0267-1.4064 2.559 0 2.8827 1.4819 2.5304 2.2857-0.54344zm-5.1672 0.73442c0.0652-0.6875 0.0592-1.7525-0.0132-2.3666-0.25295-2.1449 2.8351-3.6094 6.631-3.1446 3.0979 0.37926 5.0728-0.30051 11.163-3.8423 7.3767-4.2899 7.3913-4.3068 4.75-5.5103-3.4952-1.5925-3.4245-3.3101 0.10058-2.4421 1.5125 0.37245 3.9604 0.922 5.4397 1.2212s3.442 1.3754 4.3616 2.3914c1.5767 1.7422 1.5133 1.9837-1.1141 4.2437-3.3131 2.8498-4.3695 7.4661-1.2007 5.2465 2.1339-1.4946 5.8578-0.90805 7.0632 1.1126 1.0858 1.8202 6.6732 1.6244 15.7-0.55016l7.5-1.8067v-8.8026l-8.2005-0.53387c-4.5103-0.29363-8.4926-0.82597-8.8496-1.183-0.35702-0.35701-0.71678-9.6418-0.79947-20.633-0.0827-10.991-0.39438-20.228-0.69266-20.526-0.98648-0.98633-13.363-1.3716-18.958-0.59023-3.025 0.42249-10.32 1.3269-16.21 2.0098l-10.71 1.2417-0.46309 4.1072c-2.1778 19.315-2.6347 25.785-2.6263 37.191 5e-3 7.1958 0.30965 13.383 0.67632 13.75 1.1768 1.1768 6.3291 0.71092 6.4518-0.58333zm262.82-6.8995c2.7866-1.7322 5.0648-3.4197 5.0627-3.75-0.011-1.7686-4.1539-7.0158-6.0026-7.6025-2.8288-0.89781-2.9938-0.65595-4.5712 6.698-2.031 9.4689-2.1169 9.3963 5.5111 4.6545zm-49.819-1.1116 8.6147-0.23893 1.7035-7c2.7706-11.385 2.7458-10.972 0.53806-8.9738-2.5105 2.272-9.9235 3.0419-12.277 1.275-2.2228-1.669-2.4275-5.5891-0.8771-16.801 0.64644-4.675 1.3529-10.3 1.57-12.5 0.21706-2.2 0.72042-6.1416 1.1186-8.7591 1.2102-7.9562 0.85255-8.0983-18.481-7.3432-51.405 2.0076-77.834 3.4335-93.025 5.0188-28.66 2.9909-34.648 3.5421-44.487 4.0955-5.4928 0.30894-10.372 0.94682-10.843 1.4175-0.47441 0.47441-0.31881 1.8592 0.34916 3.1073 0.72856 1.3613 0.95886 3.8749 0.58249 6.3574-0.34236 2.2582-0.90063 8.6401-1.2406 14.182-0.81973 13.363-0.2552 14.424 7.6736 14.424h5.9648v-5.893c0-4.6409-0.37182-6.063-1.75-6.6931-1.2128-0.55448 0.2455-1.0503 4.75-1.615 9.2205-1.156 22.323-2.5432 30.5-3.229 3.85-0.3229 10.542-1.0967 14.871-1.7195 4.3288-0.62281 13.104-1.1814 19.5-1.2414l11.629-0.109 0.33956 6.5c0.18675 3.575 0.56437 6.725 0.83914 7s9.122 0.52279 19.66 0.55065c10.538 0.0279 19.723 0.14035 20.411 0.25 2.0444 0.32604 1.4262 5.5701-1.25 10.603-1.375 2.586-2.5 5.3306-2.5 6.099 0 1.6674 7.4467 2.3665 19.5 1.8306 4.4-0.19563 11.877-0.46322 16.615-0.59463zm-125.94-10.394c1.9297-1.7463 2.5303-6.345 0.82874-6.345-0.55 0-1 0.68614-1 1.5248s-1.125 1.9525-2.5 2.4752c-2.4886 0.94617-3.1032 2.0635-1.8333 3.3333 1.0912 1.0912 2.5637 0.76819 4.5046-0.98832zm39.864-2.8874c0.89457-1.0779 0.96364-1.8588 0.22935-2.5931-1.2405-1.2405-6.5869 1.8048-5.6969 3.2449 0.87459 1.4151 4.0682 1.0344 5.4676-0.65176zm123.16-4.2076c2.1335-2.4841 2.8922-5.0793 1.7003-5.8159-1.5639-0.96654-4.8933 2.5858-4.8933 5.2209 0 2.7874 1.1293 2.9979 3.193 0.59501zm36.352-2.7046c2.9757-2.9757 3.1327-4.5454 0.45455-4.5454-2.2133 0-2.7096 1.547-0.75 2.3377 0.87947 0.35487 0.90065 0.52779 0.0714 0.58333-0.64822 0.0434-1.8403-0.58275-2.649-1.3915-1.2939-1.2939-1.5463-1.1684-2.102 1.046-1.2137 4.8359 1.1666 5.7784 4.9751 1.9699zm628.67 142.55c0.2591-2.6968 0.069-5.6218-0.4225-6.5-0.6923-1.2371-0.4248-1.5968 1.1875-1.5968 1.1446 0 2.3401 0.675 2.6567 1.5s1.5977 1.5 2.847 1.5c1.8311 0 2.4774 0.81194 3.3348 4.1896 1.7057 6.72-1.1597 8.2198-3.3433 1.75l-1.1609-3.4396-1.3589 3.75c-2.0552 5.6716-4.3288 4.9706-3.7404-1.1532zm-521.55 3.2366c-0.36667-0.36666-0.66667-1.9927-0.66667-3.6135 0-2.6625 0.26534-2.9013 2.75-2.4748 1.5125 0.25964 3.5371 0.80871 4.4992 1.2202 1.2532 0.53598 2.5502-0.10942 4.5743-2.2762 3.3462-3.5821 4.9771-3.0075 6.1436 2.1647 0.6484 2.8749 0.52068 3.6463-0.60371 3.6463-0.78434 0-1.6902-0.68823-2.013-1.5294-0.51397-1.3394-0.73955-1.3206-1.8157 0.15113-1.0395 1.4217-1.7322 1.505-4.4966 0.54136-3.5643-1.2425-5.038-0.83419-5.038 1.3959 0 1.4751-2.1363 1.9713-3.3333 0.77431zm-555.57-6.2499c-1.0709-0.67802-1.2411-2.2318-0.72536-6.6201 0.37066-3.1538 0.9144-6.1232 1.2083-6.5987 0.93305-1.5097 3.7113-0.93615 6.0337 1.2456l2.2462 2.1102 1.1068-4.1102c0.96237-3.574 2.8263-5.5724 3.134-3.3602 0.51031 3.6683 0.63534 9.0747 0.24282 10.5-0.66391 2.4108-4.2448 2.1947-7.0327-0.42431l-2.3144-2.1743v3.5925c0 3.8377-0.80664 6.7658-1.857 6.7408-0.35365-8e-3 -1.2727-0.414-2.0423-0.90128zm1101.1-1.2652c-1.6261-0.81224-2.25-2.0057-2.25-4.3044 0-1.7493-0.2847-3.4653-0.6328-3.8133-0.7239-0.72395-3.6552 2.8252-4.7897 5.7994-0.7464 1.9568-0.7959 1.9514-2.2922-0.25-0.8411-1.2375-2.3744-2.25-3.4073-2.25-2.9432 0-2.2202-2.8269 0.8142-3.1836 2.0888-0.2455 2.8797-1.0448 3.5286-3.5664 0.9926-3.857 2.7792-4.3165 2.7792-0.71482 0 2.1936 0.2598 2.3962 1.9276 1.5036 2.4995-1.3377 5.0724-0.32081 5.0724 2.0049 0 1.3226 0.8793 1.9165 3.173 2.143 2.4589 0.24284 3.3825 0.94629 4.1042 3.1259 0.5121 1.5469 0.7389 3.0047 0.5041 3.2396-1.1032 1.1032-6.5173 1.2721-8.5313 0.26614zm5.75-2.3182c0-0.825-0.675-1.5-1.5-1.5s-1.5 0.675-1.5 1.5 0.675 1.5 1.5 1.5 1.5-0.675 1.5-1.5zm-1159.4-9.0322c-1.6896-1.6896-2.3513-4.7662-3.0927-14.38-0.72272-9.3711 2.2461-11.682 8.3786-6.5219l3.05 2.5664 4.7767-3.263c2.6272-1.7946 5.2489-3.8881 5.826-4.6522 0.6038-0.79941 2.2967-1.2467 3.9873-1.0535l2.938 0.33579-2.3044 2.1368c-1.78 1.6506-2.2322 2.9984-1.9873 5.9227 0.17441 2.0822 0.88524 3.9725 1.5796 4.2006s2.8919-1.2146 4.8833-3.206c1.9915-1.9915 3.8287-3.413 4.0827-3.159 1.2627 1.2627-1.2086 6.8105-3.8816 8.7139-4.4447 3.1649-8.7858 1.6951-10.743-3.6376-0.8018-2.1842-1.5641-4.1198-1.6939-4.3013-0.12985-0.18145-1.3742 0.41582-2.7652 1.3273-2.2384 1.4666-2.5198 2.3158-2.4479 7.3862 0.09624 6.7878-1.5217 10.526-4.2473 9.8134-1.2448-0.32553-2.083 0.14923-2.4818 1.4058-0.72911 2.2972-1.8212 2.4006-3.8567 0.36513zm3.5893-16.668c-0.93333-0.93333-1.2-0.66667-1.2 1.2s0.26667 2.1333 1.2 1.2 0.93333-1.4667 0-2.4zm723.54 15.439c-3.3808-2.096-2.9959-3.8118 0.79106-3.5262 3.2296 0.24354 6.0229 2.5743 5.0234 4.1916-0.9401 1.5211-2.5928 1.332-5.8144-0.66536zm20.89-2.3113c-3.1653-2.4898-3.3736-3.9274-0.56912-3.9274 3.1921 0 5.9343 1.8646 5.9343 4.0352 0 2.5396-2.052 2.4984-5.3651-0.10776zm24.365-2.9274c-0.89696-1.676-0.76049-2 0.84237-2 2.1143 0 4.5177 2.3066 3.4823 3.342-1.2632 1.2632-3.2624 0.64277-4.3247-1.342zm32.456-2.0459c-2.3974-2.5023-2.5476-2.9818-1.1071-3.5345 1.9816-0.76042 6.6511 2.0453 6.6511 3.9965 0 2.6396-2.7957 2.4066-5.544-0.46196zm26.817-1.595-2.7734-2.7786 3.293-0.94724c3.7451-1.0773 5.0117-0.29633 5.4282 3.347 0.40463 3.5388-2.6027 3.7303-5.9479 0.3788zm18.949-2.9158c-2.84-1.9892-2.8001-2.8591 0.19343-4.223 2.6031-1.1861 3.5841-0.12916 3.5841 3.8615 0 2.3252-0.8568 2.4072-3.7775 0.36151zm-865.79-12.556c-0.37826-0.61203-0.37767-5.337 0.0013-10.5 0.58195-7.9277 0.4592-9.3872-0.78946-9.3872-2.5894 0-4.6421 1.1684-4.6421 2.6422 0 1.1093-0.43828 1.1936-1.9628 0.37776-3.9038-2.0892 1.5683-7.0199 7.7907-7.0199 4.5319 0 5.5117 2.01 4.9316 10.117l-0.50733 7.0906 2.1239-2.3538c1.1681-1.2946 3.4295-4.1005 5.0252-6.2354l2.9013-3.8816-2.4013-1.8264c-1.9545-1.4866-2.1965-2.1598-1.3004-3.6184 1.3237-2.1547 5.9681-2.8946 7.9331-1.2638 0.77719 0.645 1.7079 2.7446 2.0683 4.6657l0.65528 3.4929 2.016-2.016c1.1088-1.1088 2.2939-3.7384 2.6335-5.8434 0.60574-3.7547 0.70752-3.8332 5.359-4.1323 4.2672-0.27444 4.8365-0.0552 5.6905 2.191 1.9459 5.1181-4.1737 12.351-9.3508 11.051-1.9753-0.49577-2.6059-0.27582-2.6059 0.90892 0 2.2252-4.8851 6.8223-6.8496 6.4458-0.90772-0.17398-2.1206-1.7654-2.6952-3.5365l-1.0448-3.2202-1.5762 2.7324c-0.86692 1.5028-2.1263 4.4415-2.7986 6.5304s-2.1652 4.6764-3.3175 5.75c-2.2981 2.141-6.2051 2.5909-7.2877 0.83912zm31.697-21.637c1.2439-1.5861 1.2085-1.6214-0.37756-0.37756-0.9625 0.75485-1.75 1.5424-1.75 1.75 0 0.82304 0.82119 0.29331 2.1276-1.3724zm11.83 1.6714c-1.8402-3.4384-4.091-11.897-3.4442-12.944 0.95351-1.5428 4.2102-1.1397 4.8793 0.60395 0.33385 0.86998 0.60699 2.67 0.60699 4 0 3.9703 1.3674 2.7809 4.2181-3.6691 3.2731-7.4058 5.2627-7.1986 4.2762 0.44513-0.98191 7.6083-4.0994 13.642-7.0484 13.642-1.3821 0-2.8409-0.8693-3.488-2.0786zm961.86-14.432c-0.2051-0.20509-13.154-0.61426-28.776-0.90926-16.435-0.31035-28.816-0.94907-29.382-1.5158-0.6393-0.63927-0.4943-1.564 0.4173-2.6625 1.2736-1.5346 3.7797-1.62 28.408-0.9688 26.29 0.69518 31.304 1.3477 32.229 4.1938 0.3478 1.0704-2.1083 2.65-2.8958 1.8625zm5.7555-9.0046c-2.5968-2.2332-2.7447-2.6503-1.329-3.7487 1.2455-0.96643 1.6986-3.8526 2.0777-13.236 0.5567-13.777 3.2196-40.102 4.6533-46 1.5694-6.4572 1.54-6.5-4.4801-6.5-3.025 0-5.5 0.43417-5.5 0.96482s-0.9302 1.4626-2.0671 2.0711c-1.6079 0.86054-2.6074 0.75218-4.5-0.48787-3.0341-1.988-3.1233-4.951-0.2104-6.9913 2.7367-1.9168 4.6407-1.9712 6.6988-0.19137 0.8683 0.75093 3.7679 1.6494 6.4435 1.9966l4.8648 0.63128-0.6953-5.7466c-0.3824-3.1606-1.2573-6.3288-1.9442-7.0403-2.5575-2.6491-32.877-1.8397-49.383 1.3183-7.8457 1.5011-11.61 1.2054-10.939-0.85948 1.1999-3.6899 17.82-6.6695 37.112-6.6533 15.799 0.0133 23.599 1.5137 27.346 5.2604 2.8862 2.8862 4.3735 13.907 3.0469 22.576-1.5962 10.43-1.7484 11.601-3.3993 26.152-0.9048 7.975-1.9216 19.864-2.2597 26.42-0.3381 6.5561-1.0647 12.068-1.6147 12.249-0.55 0.18071-2.3149-0.80217-3.9219-2.1842zm-6.1851-70.066c0.9959-2.5953 0.7066-3.4182-1.2019-3.4182-2.5556 0-5.6334 2.4754-4.7849 3.8483 1.0521 1.7022 5.2853 1.3981 5.9868-0.43009zm-938.66 37.832c-0.86878-0.9625-2.2362-4.5967-3.0387-8.076-1.2745-5.5259-1.2756-6.3964-8e-3 -6.8828 2.2183-0.85124 3.4905 1.0732 4.0622 6.1448 0.65445 5.8063 1.9466 6.6231 4.9512 3.13 2.4811-2.8845 5.3031-2.8837 5.3031 1e-3 0 2.1095-5.6942 7.4326-7.9508 7.4326-0.95659 0-2.4501-0.7875-3.3189-1.75zm688.5-9.8005c-2.1946-1.5372-3.1254-5.4495-1.2965-5.4495 0.5142 0 2.1204 0.45073 3.5693 1.0016 1.9163 0.72858 2.5474 1.5932 2.3151 3.1717-0.41503 2.8203-1.8239 3.2122-4.588 1.2762zm17.435-1.1162c-0.96058-0.96057-0.82177-4.3333 0.17834-4.3333 0.96803 0 4.155 3.3202 4.155 4.3287 0 0.86989-3.4644 0.87356-4.3333 5e-3zm17.827-3.3518c-0.37221-1.1727-0.4492-2.3598-0.17108-2.6379 0.89495-0.89496 4.8124 1.75 4.4048 2.9741-0.70133 2.1065-3.5298 1.8819-4.2338-0.33619zm71.578-3.6164c-2.3189-2.9481-2.5392-3.9588-1.0615-4.872 1.3192-0.81534 7.3111 5.1765 6.4958 6.4958-1.0873 1.7592-3.2912 1.1007-5.4343-1.6238zm-47.093 0.11069c-0.69572-0.83829-0.95423-1.8349-0.57448-2.2146 0.83409-0.83408 3.8203 0.9161 4.3684 2.5602 0.56969 1.7091-2.3061 1.4471-3.7939-0.34561zm27.105-1.6145c-2.6495-2.844-1.3359-4.4448 2.5771-3.1405 1.7912 0.59709 2.8375 1.6475 2.8375 2.8488 0 2.7496-2.9753 2.9099-5.4146 0.29169zm-228.42-8.528c-2.4086-2.4086 1.859-9.0833 5.8076-9.0833 1.3892 0 2.5257 0.55154 2.5257 1.2257 0 1.5606 7.9209 0.42338 13.57-1.9483 3.376-1.4174 3.6835-1.7896 2.1803-2.6384-3.3929-1.9161-1.9343-3.1436 2.8778-2.422 8.8983 1.3344 9.328 2.4527 3.3722 8.7756-3.8658 4.1041-5.7831 3.4972-2.5318-0.80142 0.8075-1.0676 1.4825-2.5554 1.5-3.3061 0.0262-1.1264-0.36158-1.111-2.2182 0.0877-3.4285 2.2135-11.708 4.7773-15.428 4.7773-2.2281 0-3.3219 0.47522-3.3219 1.4433 0 2.7914-6.4303 5.7931-8.3333 3.89zm5.263-3.2018c0.55-1.0277 0.71485-2.1537 0.36634-2.5022-0.71507-0.71507-4.296 2.2238-4.296 3.5257 0 1.6037 2.9324 0.83994 3.9296-1.0235zm41.737-0.79815c-2.4692-2.4692 1.4865-7.629 5.1202-6.6788 2.2015 0.5757 2.7885 2.6824 1.6061 5.7637-0.603 1.5714-5.4154 2.2261-6.7263 0.91512zm4.1458-3.2708c0.25-0.75-0.125-1.125-0.875-0.875-0.72187 0.24062-1.5094 1.0281-1.75 1.75-0.25 0.75 0.125 1.125 0.875 0.875 0.72187-0.24063 1.5094-1.0281 1.75-1.75zm115.22-43.997c-1.5298-2.8585-1.268-4.0657 0.88149-4.0657 2.1284 0 2.9927 1.5944 2.3039 4.25-0.5956 2.2965-1.8981 2.2211-3.1854-0.18426zm18.997-5e-3c-0.7191-1.3437-0.71646-2.138 9e-3 -2.5861 1.3073-0.80798 3.9589 1.3004 3.9589 3.1478 0 2.056-2.777 1.6628-3.9675-0.56175zm13.978 0.45204c-1.313-1.5821-0.72764-4.5128 0.90134-4.5128 1.0315 0 4.0881 3.9048 4.0881 5.2225 0 1.3623-3.7075 0.83486-4.9894-0.70978zm38.546-0.73524c-2.0672-2.9514-1.9632-3.7775 0.47552-3.7775 1.1889 0 2.3851 0.93373 2.8826 2.25 1.5481 4.0961-0.80825 5.1679-3.3581 1.5275zm-16.741-1.2817c-0.62755-1.3773-0.88144-2.7638-0.56421-3.081 1.1062-1.1062 4.7481 1.6707 4.7481 3.6204 0 2.8018-2.8276 2.4373-4.1839-0.53941zm-859.46-36.01c-1.106-2.8821 1.3704-3.8001 12.358-4.5814 5.9321-0.42181 14.567-1.0286 19.188-1.3485s10.471-0.78904 13-1.0426c16.551-1.6594 26.868-2.801 28.598-3.1643 1.1-0.23107 10.151-0.69644 20.113-1.0341l18.113-0.61402-1.3569-2.6004c-1.6208-3.1062-1.7104-4.1004-0.36926-4.1004 0.55 0 1 0.65917 1 1.4648 0 1.6179 2.971 3.5352 5.4781 3.5352 1.3584 0 1.5637-1.1312 1.3157-7.25-0.19003-4.6893-0.70588-7.25-1.4605-7.25-0.64166 0-1.5042-0.3375-1.9167-0.75-1.4484-1.4484-2.1347-0.72563-1.6614 1.75 0.64078 3.352-1.3083 3.1996-3.1972-0.25-1.492-2.7248-1.5116-2.7294-2.1486-0.5-0.35354 1.2375-1.4215 2.25-2.3734 2.25-0.9518 0-2.1828-1.0125-2.7356-2.25l-1.0051-2.25-0.7326 2.305c-1.0789 3.3947-3.1098 2.0363-2.7823-1.8611 0.15431-1.8361 0.41128-3.4691 0.57105-3.6289 0.15977-0.15977 2.0585-0.49516 4.2194-0.74531 2.1609-0.25015 5.1665-0.75814 6.679-1.1289 2.3992-0.58807 2.75-0.38021 2.75 1.6296v2.3037l2.8047-2.6871c1.5426-1.4779 3.7345-2.6871 4.8708-2.6871 1.9556 0 2.0739 0.59486 2.2112 11.121 0.0798 6.1167 0.41711 11.561 0.74952 12.099 0.36749 0.59461 4.3789 0.74938 10.234 0.39484 5.2963-0.3207 16.605-0.83452 25.13-1.1418 14.277-0.51465 41.681-2.1355 50-2.9575 1.925-0.19019 11.6-0.64585 21.5-1.0126 21.382-0.79206 37.616-1.9042 58-3.9733 21.792-2.2121 38.956-3.0222 84.5-3.9882 18.263-0.38737 33.356-1.2111 39.623-2.1625 10.71-1.6259 15.497-1.5684 16.074 0.19319 0.21716 0.663-1.6973 1.1266-5.0126 1.2138-2.9502 0.07762-6.6736 0.68008-8.2742 1.3388-1.9213 0.79066-11.236 1.2858-27.41 1.4569-13.475 0.14258-28.325 0.52824-33 0.85702s-18.625 1.0443-31 1.5901c-12.375 0.54576-23.85 1.1806-25.5 1.4108s-6.375 0.68886-10.5 1.0193-9.075 0.80528-11 1.0552c-4.1811 0.54288-36.458 2.3651-54 3.0487-6.875 0.26789-13.4 0.67469-14.5 0.904s-8.525 0.72418-16.5 1.0997c-7.975 0.37554-14.786 0.8463-15.135 1.0461s-7.7745 0.59438-16.5 0.87677c-16.087 0.52063-34.173 1.3659-42.365 1.98-2.475 0.18554-11.7 0.63638-20.5 1.0019-15.241 0.63298-40.727 2.9616-42.273 3.8625-0.39959 0.23279-4.5515 0.71505-9.2265 1.0717-10.727 0.81833-16.311 1.4757-22 2.5899-2.475 0.48472-8.4425 1.1578-13.261 1.4958-7.519 0.5274-8.8492 0.38482-9.3828-1.0058zm8.1111-10.251c-2.5701-1.8284-5.9406-24.095-3.9488-26.086 1.266-1.266 3.9999 1.7385 4.2963 4.7216 0.17313 1.7425 0.73047 2.9112 1.2385 2.5972 0.50807-0.31401 0.66856 0.09415 0.35664 0.90701-0.39833 1.038 0.22462 1.5744 2.0929 1.8019 2.2871 0.27858 3.054 1.3393 5.4704 7.5661 1.5457 3.9832 2.409 6.9941 1.9185 6.691-0.49047-0.30313-0.89176-0.0887-0.89176 0.47649 0 2.5035-3.093-0.48806-4.1492-4.0131-1.4181-4.7332-3.0706-5.1112-2.8262-0.64652 0.36705 6.7043-0.49867 8.1607-3.5574 5.9847zm12.733-5.4347c-1.2788-1.2788-1.5575-5.8647-0.57838-9.5169 1.17-4.3643 7.565-3.6544 9.2999 1.0323 0.74068 2.0008 0.87035 1.9042 1.5415-1.1492 0.6379-2.9023 1.0437-3.2558 3.1349-2.7309 1.4723 0.36952 2.4021 0.16647 2.4021-0.52456 0-0.69572 0.93385-0.89308 2.4387-0.51538 1.3413 0.33664 2.7178 0.16043 3.059-0.39159 0.34117-0.55202 1.4515-1.0037 2.4674-1.0037 1.4545 0 1.9911-1.047 2.5245-4.9251 0.40929-2.9759 1.2737-5.1539 2.1841-5.5032 2.9656-1.138 3.6107 0.51578 2.8546 7.3186-0.40402 3.6353-0.78168 8.5074-0.83924 10.827-0.0969 3.9048-0.23062 4.103-1.8063 2.677-1.5444-1.3976-1.7598-1.3569-2.3303 0.44063-0.92732 2.9217-3.3245 3.3934-5.6133 1.1046-1.5776-1.5776-1.8744-2.7676-1.366-5.4773 0.42435-2.262 0.26427-3.4618-0.46184-3.4618-0.61121 0-1.1113 1.264-1.1113 2.8089 0 3.3864-2.2519 6.7715-3.8483 5.7849-0.63344-0.39149-1.1517-1.6118-1.1517-2.7118 0-1.1455-0.44978-1.722-1.0528-1.3493-0.57903 0.35786-0.86484 1.1719-0.63513 1.809 0.69922 1.9392-1.3429 4.8605-2.9631 4.2388-0.82368-0.31608-2.1713 0.09902-2.9947 0.92244-1.8086 1.8086-3.5428 1.9086-5.1543 0.29713zm41.112-4.7488c-1.6135-1.8844-3.9355-1.8694-2.7691 0.01787 0.86896 1.406-2.1454 1.1166-3.3239-0.3191-1.6973-2.0677-2.6203-12.384-1.1873-13.27 0.72777-0.44979 1.6074-0.09007 2.1498 0.87911 0.50491 0.90222 1.8069 1.6404 2.8933 1.6404 1.3978 0 2.1519 0.88316 2.5795 3.0208 0.89792 4.4896 2.0136 4.4581 2.7389-0.07725 0.40846-2.5544 1.2743-4.2151 2.3749-4.5548 0.95263-0.2941 2.5135-0.95188 3.4685-1.4617 2.4443-1.3049 4.7474-1.1517 4.8538 0.323 0.0496 0.6875 0.51247-0.2125 1.0286-2 1.0125-3.5066 3.3954-4.3355 4.3123-1.5 0.68208 2.1094 5.3144 4.4708 6.1423 3.1312 0.31613-0.5115 0.29008-2.2262-0.0579-3.8104-0.39547-1.8006-0.17893-3.1608 0.57761-3.6284 1.5647-0.96703 3.9068 2.215 3.9068 5.3077 0 1.3023 0.39901 2.1213 0.88669 1.8199 1.485-0.91776 3.6052 2.3381 2.344 3.5993-1.2356 1.2357 0.11071 5.7916 2.0819 7.045 0.85482 0.54354 0.78933 0.75933-0.23382 0.77035-0.78169 0.0084-2.2635-0.74691-3.2929-1.6785-1.7726-1.6042-1.9026-1.5756-2.4561 0.54089-0.73212 2.7996-2.5896 2.2884-3.3472-0.92119-0.36476-1.5453-1.2823-2.4259-2.5276-2.4259-1.5372 0-2.0212 0.80134-2.2653 3.75-0.34791 4.2037-2.8453 5.2403-3.6138 1.5-0.25427-1.2375-0.89133-4.05-1.4157-6.25l-0.95339-4-0.22177 4.5c-0.12197 2.475-0.16848 4.8375-0.10335 5.25 0.22602 1.4315-5.7868 0.74182-6.6273-0.76016-0.65213-1.1653-1.135-0.70858-2.1144 2-1.4239 3.9378-3.3512 4.4541-5.828 1.5614zm75.271-8.1646c-2.0533-1.6151-2.4037-2.6715-2.2067-6.6533 0.29408-5.9459 2.5172-10.644 5.2206-11.032 2.6702-0.38323 4.6201 1.8498 3.3459 3.8318-0.82809 1.288-1.0578 1.2875-1.8884-0.0046-1.4164-2.2033-2.1148-0.84331-2.7557 5.3658-0.48203 4.6705-0.31693 5.6053 0.98996 5.6053 2.2603 0 4.7113-2.7827 4.7113-5.3489 0-1.2133 0.67491-3.1696 1.4998-4.3473 0.82489-1.1777 1.2494-2.7937 0.94345-3.5911-0.35672-0.92958 0.25565-1.6622 1.7065-2.0416 2.8882-0.75529 3.2703-0.3245 1.9312 2.1775-0.59456 1.1109-1.081 4.802-1.081 8.2023 0 5.7034-0.15595 6.1416-2.0131 5.6559-1.2992-0.33975-2.3518 0.10652-2.9683 1.2585-1.4435 2.6972-4.6698 3.0969-7.4356 0.9213zm89.667-0.60504c-2.763-0.99071-1.2502-3.9288 2.5-4.8552 3.5878-0.88629 3.7629-1.1248 4.0482-5.514 0.20841-3.2067-0.16785-4.9743-1.25-5.8724-2.2226-1.8446-1.9329-3.1833 1.362-6.2932 3.9125-3.6928 6.5475-3.7066 5.6246-0.02951-0.37509 1.4945-0.87435 4.307-1.1095 6.25-0.23512 1.943-0.68776 4.7703-1.0059 6.2828s-0.14511 2.75 0.38448 2.75c0.52958 0 1.1736 1.1025 1.4312 2.4499 0.50759 2.6553-0.72314 3.5501-4.8827 3.5501-1.3662 0-3.2419 0.38919-4.1682 0.86487-0.92634 0.47568-2.2468 0.66318-2.9343 0.41667zm28.786-0.73773c-1.4565-1.755-0.39162-3.8941 1.5648-3.1434 2.832 1.0867 4.0537-0.39976 3.8668-4.7047-0.22628-5.2109-1.3319-8.8979-2.4593-8.2011-0.46606 0.28804-1.5951-0.224-2.509-1.1379-1.5488-1.5488-1.4246-1.8985 1.8281-5.1512 5.5924-5.5924 6.6723-4.2739 6.6723 8.1464 0 9.9356 0.10271 10.442 2.2328 10.999 3.0322 0.79293 1.3736 2.1097-4.4256 3.5134-5.7899 1.4015-5.3236 1.4236-6.7708-0.32024zm-101.1-2.1242c-0.7601-0.91586-1.4944-3.343-1.6317-5.3937-0.21006-3.137 0.15032-3.9107 2.2714-4.8772 1.3866-0.63178 3.8234-1.1487 5.415-1.1487 1.5917 0 3.172-0.45 3.512-1 1.0594-1.7141 3.6622-1.0959 4.2102 1 0.72026 2.7543 2.1475 2.5045 3.3206-0.58128 1.2146-3.1947 3.3608-2.6797 3.7855 0.9084 0.37719 3.1862 1.2567 3.3867 2.9515 0.67288 1.4976-2.3981 3.7859-2.605 4.6251-0.41821 0.33385 0.86998 0.60699 3.57 0.60699 6 0 5.0923-2.3306 6.2104-3.4776 1.6682l-0.69443-2.75-1.4459 2.75c-1.647 3.1324-3.831 3.557-5.2504 1.0208-0.91718-1.6389-1.0674-1.6389-2.8784 0-1.0509 0.95105-2.6524 1.7292-3.5589 1.7292-2.2383 0-5.0516-4.5255-4.3889-7.06 0.39896-1.5256 0.11406-1.9749-1.1038-1.7403-1.0606 0.20426-1.9489 1.9058-2.51 4.8082-1.0666 5.5175-1.9653 6.5723-3.7584 4.4117zm13.524-5.3505c0.31644-0.512 0.11799-1.2136-0.44098-1.559-0.55897-0.34546-1.0163 0.07344-1.0163 0.9309 0 1.7565 0.60006 2.0152 1.4573 0.62812zm27.816 4.2251c-1.0074-1.5375-1.8017-4.6888-1.8395-7.2985-0.0366-2.526-0.37832-5.0971-0.75933-5.7136-0.38101-0.61649-0.0136-1.8 0.81645-2.6301 0.83005-0.83006 1.5092-2.4413 1.5092-3.5806 0-3.2092 3.5834-2.6128 5.3294 0.88696 1.2373 2.4802 1.257 3.14 0.12225 4.0818-1.5847 1.3152-2.9635 9.1836-2.0338 11.606 0.55815 1.4545 1.0009 1.3265 3.4164-0.98772 3.9512-3.7855 4.456-3.3098 1.9535 1.8412-2.6185 5.3897-5.7292 6.0452-8.5146 1.7942zm52.173 0.28099c-1.8552-1.3653-1.8612-1.4653-0.12903-2.1365 2.2162-0.85881 4.5547 1.0894 3.079 2.5651-0.67166 0.67166-1.6476 0.52987-2.95-0.42858zm-61.44-4.059c-0.55338-1.4555-1.0062-4.1921-1.0062-6.0813 0-2.7572 0.39083-3.4349 1.981-3.4349 2.2752 0 3.3352 2.9961 2.8427 8.0346-0.40665 4.1602-2.4915 4.9693-3.8175 1.4816zm-89.594 0.11486c-0.75056-1.9559 0.27206-3.631 2.2167-3.631 0.98176 0 1.3987 0.7602 1.191 2.1717-0.38802 2.637-2.5933 3.5815-3.4076 1.4594zm207.82-0.67041c-3.276-1.3158-3.6291-3.2536-1.2915-7.088 2.3949-3.9283 2.6221-5.8727 0.68609-5.8727-0.75765 0-1.9662-0.7093-2.6857-1.5762-1.7923-2.1596 0.39148-3.5331 5.0632-3.1848 3.1575 0.23546 3.5308 0.58067 3.8146 3.5282 0.17306 1.797-0.38944 4.6786-1.25 6.4036-2.1238 4.2574-2.0619 4.3201 1.9354 1.9616 1.925-1.1358 3.5-1.6932 3.5-1.2387 0 0.81416-6.5659 8.1661-7.1828 8.0428-0.17443-0.03486-1.3396-0.47405-2.5893-0.97598zm-13.688-2.2601c-0.9223-1.4076-1.5644-4.9629-1.6556-9.1665-0.12148-5.6023 0.18696-7.1126 1.6747-8.2005 2.6691-1.9517 4.8191-1.7233 3.9203 0.41652-0.40428 0.9625-0.93964 4.7181-1.1897 8.3459-0.34824 5.0521-0.0953 6.9552 1.0804 8.131 0.8443 0.84429 1.2565 1.8137 0.91603 2.1541-1.2654 1.2654-3.2845 0.55058-4.7463-1.6804zm96.461 1.8338c0-0.31084 1.6125-2.9938 3.5834-5.9622 4.2556-6.4094 5.4002-12.33 3.0362-15.705-0.89079-1.2718-1.6196-2.8872-1.6196-3.5898 0-1.4871 3.5984-1.7363 4.4798-0.31025 0.32878 0.53198 2.0428 0.75266 3.809 0.4904l3.2112-0.47685-2.6962 1.2877c-2.0209 0.96516-2.463 1.6563-1.7653 2.7596 2.8084 4.4408-0.47479 12.491-7.4523 18.272-2.5224 2.0899-4.5862 3.5455-4.5862 3.2346zm-172.75-1.1967c-0.6875-0.27741-1.25-1.0868-1.25-1.7986s-0.59832-1.7908-1.3296-2.3977c-1.5832-1.314-0.99499-7.1414 0.72085-7.1414 0.64034 0 1.9349-0.9 2.8767-2 1.0392-1.2137 2.9499-2 4.8602-2h3.1477l-0.70039 7.7291c-0.38522 4.251-0.93408 7.9628-1.2197 8.2484-0.28562 0.28561-1.0946-0.2675-1.7978-1.2291-1.5684-2.1449-2.558-2.241-2.558-0.24843 0 1.541-0.57392 1.7158-2.75 0.83772zm143.95-0.53772c-0.66-0.66-1.2-2.5454-1.2-4.1898 0-2.5909 0.44654-5.5457 2.6235-17.36 0.22803-1.2375 0.97487-2.25 1.6596-2.25 1.2793 0 4.7168 6.8854 4.7168 9.4478 0 0.78877 0.39831 1.6803 0.88513 1.9812 1.6658 1.0295 6.8381-1.5262 7.9275-3.9171 2.238-4.9119 7.7069-5.2224 7.0249-0.39884-0.22366 1.5818-1.0964 2.4947-2.5875 2.7065-2.3731 0.33704-3.0455 3.376-1.3421 6.0657 1.1256 1.7774 6.3795 0.10872 9.9348-3.1554 2.1831-2.0043 2.3156-2.0276 1.3099-0.22987-1.8908 3.38-3.5222 5.0494-6.8219 6.9808-2.9577 1.7312-3.3357 1.746-5.6631 0.22101-1.3716-0.89872-2.7937-2.9993-3.1602-4.6679-0.77581-3.5323-1.5479-3.7516-3.9322-1.1171-1.4321 1.5824-1.5265 2.3057-0.5415 4.1463 1.1083 2.0708 1.025 2.1773-1.1703 1.4955-4.8358-1.5018-6.3477-1.1765-6.6982 1.4414-0.44046 3.2902-1.4869 4.2784-2.9653 2.8zm-41.649-3.6387c-0.36203-1.1406-0.36874-3.617-0.0149-5.5031 0.38993-2.0785 0.21407-3.6945-0.44648-4.1027-1.6684-1.0311-1.3051-2.3699 0.97411-3.5897 3.5226-1.8852 5.2002 0.47801 4.4114 6.214-0.73799 5.3659-0.19183 5.7592 4.5744 3.2945 1.9805-1.0242 2.9503-2.2881 2.9503-3.845 0-2.8035 3.3529-6.0916 5.4076-5.3031 0.81514 0.3128 1.776 2.1357 2.1353 4.0509 1.0639 5.6711-4.378 12.822-6.1813 8.1229-0.7443-1.9396-2.3401-1.9116-3.7865 0.06633-0.62993 0.86148-2.9949 1.8144-5.2555 2.1176-3.5406 0.47489-4.2014 0.26386-4.7684-1.5226zm28.468-2.371c-2.6173-4.3037-3.5083-8.7051-2.0526-10.139 0.88374-0.87064 1.5272-0.66497 2.6406 0.84397 1.2623 1.7107 1.6069 1.782 2.4174 0.5 0.51986-0.82232 0.9521-1.8326 0.96052-2.2451 8e-3 -0.4125 0.83463-0.75 1.836-0.75 1.6003 0 1.7389 0.57516 1.145 4.75-0.82069 5.7691-2.55 10.25-3.9557 10.25-0.57169 0-1.9178-1.4443-2.9913-3.2096zm-157.88-5.6807c-0.95436-0.60471-1.0259-1.0642-0.24105-1.5492 1.385-0.856 5.0978 0.24151 5.0978 1.5069 0 1.1648-3.0435 1.1913-4.8568 0.0423z"/>
</svg>
