<?xml version="1.0" encoding="UTF-8"?>
<svg width="655" height="740" version="1.1" viewBox="0 0 655 740" xmlns="http://www.w3.org/2000/svg">
 <path d="m260.88 708.13c-181.36 71.256-90.682 35.628 0 0zm-8.1656-48.384c-1.0108-1.1929-3.6714-1.6164-9.7893-1.5585-4.6207 0.0434-13.366-0.67249-19.434-1.5917-6.0679-0.91925-13.762-2.023-17.099-2.4529-3.3366-0.42988-7.1153-1.1119-8.3972-1.5155-1.9586-0.61675-2.4335-0.1912-2.9744 2.6652-0.46009 2.4297-1.2687 3.4055-2.8353 3.4216-4.2022 0.0431-4.8853-3.698-5.5207-30.236-0.59632-24.904-2.6368-61.018-4.0277-71.284-0.59743-4.4095-1.0773-5.2213-3.0745-5.2008-1.3016 0.0133-3.5138-0.7619-4.916-1.7228l-2.5494-1.747 3.9603-3.7029c3.7303-3.4878 3.9423-4.0584 3.6497-9.8257-0.17081-3.3676 0.0164-6.4567 0.41624-6.8647 0.39976-0.40803 1.9738-0.18908 3.4979 0.48658 2.0671 0.91637 2.7798 2.074 2.8052 4.5564 0.0188 1.8303 0.49516 3.3232 1.0587 3.3174 0.56352-6e-3 4.1693-1.5054 8.0129-3.3324s8.2351-3.8107 9.7591-4.408c10.582-4.1477 29.153-13.328 30.327-14.991 0.78033-1.1054 2.6298-2.0223 4.1099-2.0374 2.5681-0.0263 2.6879-0.34372 2.6203-6.9418-0.0816-7.9636-2.1144-11.79-6.2413-11.747-2.486 0.0255-2.6869 0.43696-2.6361 5.3999 0.0707 6.8977-1.8025 8.7416-5.7737 5.6832-1.5737-1.212-3.0305-3.507-3.2372-5.1l-0.3759-2.8964-11.197 0.01c-10.588 0.01-11.452-0.16713-15.901-3.2464-2.5873-1.791-6.2578-5.1462-8.1567-7.4559-3.2792-3.9886-3.4543-4.6781-3.4877-13.734-0.0505-13.646 3.7123-20.811 9.7494-18.565 1.3358 0.49696 1.1374 1.5446-1.1376 6.0062-5.3914 10.573-4.4927 21.465 2.361 28.617 5.4534 5.6906 9.0308 7.0694 16.204 6.2453 3.4159-0.39247 7.0338-1.0392 8.0399-1.4371 2.1494-0.85018 2.4439-4.9003 0.3548-4.8789-0.78742 8e-3 -3.4813-1.2847-5.9864-2.8728-7.7692-4.9253-11.722-14.751-8.8151-21.913 1.1023-2.7161 2.1662-3.7786 3.53-3.5252 1.6613 0.30857 1.9069 1.3562 1.648 7.0308-0.19305 4.2318 0.31618 8.1112 1.3937 10.618 1.8037 4.1954 6.5681 8.0392 8.4723 6.8352 0.62842-0.39735 1.1079-4.2866 1.0654-8.6428-0.0426-4.3562 0.17595-15.054 0.48529-23.773 0.50075-14.114 0.78391-15.913 2.5817-16.403 3.0293-0.82544 2.3978-4.2179-1.315-7.0639-3.6153-2.7713-10.096-14.176-10.134-17.833-0.0322-3.1368 2.9319-7.2336 5.2507-7.2573 1.0424-0.0107 2.88 0.65007 4.0834 1.4683 2.6841 1.8251 12.401 3.8704 18.11 3.8119 3.4492-0.0353 4.3396-0.49861 4.8589-2.5283 0.34975-1.3668 0.8171-13.392 1.0386-26.723 0.35964-21.649 0.13829-25.647-2.0721-37.431-4.4215-23.571-5.2998-30.594-5.3658-42.905-0.0571-10.644 0.27552-12.878 2.7372-18.386 6.0822-13.608 18.618-26.957 31.371-33.407 3.9177-1.9813 8.3539-4.4257 9.8582-5.432 10.267-6.8679 21.834-14.232 24.575-15.645 8.9345-4.6064 22.954-21.233 29.903-35.463 10.852-22.224 13.346-37.4 11.441-69.61-0.61302-10.363-0.58072-10.539 2.9766-16.216 4.9479-7.8963 10.18-10.333 25.963-12.09 28.993-3.2277 41.917-5.8122 45.346-9.0683 3.312-3.1456 3.0968-6.1554-0.53604-7.4941-4.0786-1.503-7.8222-6.0725-8.7311-10.657-1.0068-5.0792 1.8666-9.085 7.985-11.132 4.2085-1.4079 5.0233-1.3371 9.8245 0.85302 2.8794 1.3135 5.5893 2.9381 6.0219 3.6102 0.52244 0.81167 1.8114 0.2682 3.8388-1.6186 4.5822-4.2643 7.7572-5.9533 16.212-8.6241 10.774-8.4242 50.582-3.2357 36.748 8.3583l-4.607 3.7198 12.788 0.51012c7.0334 0.28057 14.344 1.1359 16.245 1.9007 4.2227 1.6986 5.6468 5.7903 3.0392 8.7318-1.7942 2.0239-13.016 6.1804-20.387 7.5516-2.1164 0.39367-5.5618 1.5047-7.6563 2.469l-3.8082 1.7532 5.0266 1.41c6.0802 1.7055 9.236 4.7457 8.2545 7.9519-0.38547 1.2591-1.1836 2.2942-1.7736 2.3002-1.8011 0.01846-11.899 5.0236-11.914 5.9052-8e-3 0.45446 0.48172 0.82121 1.0875 0.815 0.60579-6e-3 1.1116 0.98 1.124 2.1916 0.0124 1.2116-0.47307 2.2079-1.0788 2.2141-0.60578 6e-3 -1.1059-0.42789-1.1114-0.96464-0.0155-1.5111-7.1682-4.4582-10.732-4.4217-1.7561 0.018-3.7343 0.58533-4.396 1.2607-0.80034 0.8169-1.8403 0.87994-3.1065 0.18831-1.7618-0.9624-1.7399-1.1567 0.29468-2.6131 1.5459-1.1066 2.082-2.539 1.807-4.8279-0.37366-3.1097 0.96621-6.0796 2.7511-6.0979 1.4784-0.01515 2.1082 5.981 0.8001 7.6182-1.0515 1.3162-0.80324 1.4477 1.4826 0.78529 1.5101-0.43758 5.0754-1.287 7.9227-1.8877 5.3598-1.1306 9.649-3.2844 9.633-4.8373-0.0118-1.1561-7.5743-4.2289-10.784-4.3818-2.9075-0.13849-3.3924-1.7251-0.57069-1.8674 1.7063-0.08606 1.6864-0.18862-0.17446-0.89676-1.3028-0.49577-3.5838-0.02441-6.0033 1.2405-2.1462 1.122-4.9125 2.058-6.1473 2.08-3.1095 0.05523-4.8548 1.3742-6.7341 5.0892-0.88526 1.75-1.2715 2.8367-0.85825 2.4149 1.1026-1.1254 5.1936 4.3847 4.3243 5.8241-0.40641 0.67292-1.8769 1.018-3.2678 0.76687-1.6097-0.29066-2.3465 4e-3 -2.0271 0.81184 0.27595 0.69764-0.74781 1.9537-2.275 2.7913-1.5272 0.83759-2.77 2.1826-2.7617 2.9889 8e-3 0.80631-0.44521 1.4707-1.0077 1.4765-1.571 0.0161-4.5179-3.2252-4.536-4.9891-9e-3 -0.87257-1.0641-1.5627-2.3687-1.5494-2.141 0.0219-2.2866 0.4445-1.6191 4.6982 0.40342 2.5707 1.0785 5.9097 1.5003 7.42 0.76379 2.7354 0.75748 2.738-1.6305 0.67215-1.3185-1.1406-2.408-2.8644-2.4211-3.8306-0.0129-0.9662-0.92026-3.1993-2.0159-4.9624-1.7844-2.8714-2.6718-3.2383-8.5106-3.5192-8.0091-0.38525-12.665-2.8904-15.258-8.2106-1.714-3.5159-2.482-4.0521-5.7559-4.0185-2.0779 0.02129-6.8992 0.78441-10.714 1.6958-3.8148 0.9114-10.803 1.9201-15.53 2.2415s-8.8928 0.88963-9.2584 1.2627c-0.36552 0.3731-2.0503 0.69256-3.744 0.70992-8.0001 0.08199-16.323 5.3397-21.269 13.436-0.55867 0.91449-0.9472 12.072-0.8634 24.794 0.13238 20.099-0.16076 24.474-2.2366 33.38-3.9146 16.795-14.992 37.604-25.618 48.123-6.509 6.4436-8.1152 7.6068-19.094 13.828-13.074 7.408-13.554 7.689-14.142 8.2892-1.5926 1.6256-7.7134 5.5868-8.6474 5.5963-1.669 0.0171-8.7798 4.4357-15.431 9.5887-11.426 8.8526-19.993 20.361-23.9 32.108-3.0352 9.1249-2.6534 23.21 1.2695 46.828 2.823 16.996 3.2413 22.531 3.5962 47.581 0.22089 15.591 0.61576 28.545 0.87754 28.785 0.26176 0.2402 4.0521 0.71153 8.423 1.0474 9.279 0.71302 16.736 3.5077 19.913 7.4627 2.5199 3.1368 2.5077 1.1443 0.25365 41.451-0.69495 12.427-1.1702 24.555-1.0561 26.95 0.20119 4.225 0.0243 4.4521-5.8925 7.5674-4.0568 2.1359-8.6549 3.4906-13.728 4.0444l-7.6279 0.83276 0.0395 3.855c0.0369 3.6009 0.29355 3.8765 3.8938 4.1809 2.1199 0.17923 4.4074 0.77545 5.0835 1.3249 0.67605 0.54947 4.2728 0.64935 7.9929 0.22193 4.3486-0.4996 6.7678-0.37364 6.7753 0.35278 6e-3 0.62144-1.0268 1.4128-2.2959 1.7586-1.2706 0.34621-1.9756 1.1537-1.5689 1.7969 0.49002 0.775 9.7056 1.0819 27.383 0.91192 14.655-0.14118 27.341 0.17475 28.192 0.70146 0.90386 0.55943 1.2548 1.7438 0.84394 2.8482-0.6809 1.8302-5.5292 1.9831-18.869 0.59485-1.213-0.12624-13.684-0.0235-27.713 0.22831l-25.508 0.4578-2.2524 4.777c-1.2388 2.6274-2.2489 5.1162-2.2447 5.5307 0.0114 1.1109 4.0276 0.87889 10.997-0.6353 6.2312-1.3538 12.12-0.79496 12.14 1.1519 6e-3 0.5827-1.3492 1.3626-3.0115 1.7331-10.823 2.4125-16.753 4.4645-16.739 5.7928 0.0112 1.0904-1.8263 1.511-6.8685 1.5723-3.7861 0.0468-9.6023 0.84325-12.925 1.7717-10.635 2.9718-17.6 1.9539-14.312-2.0916 1.0256-1.2618 0.98262-1.6883-0.20103-1.9972-0.82774-0.21607-3.3383-0.96048-5.579-1.6543-3.8414-1.1894-4.6436-0.96799-14.053 3.8791-8.7708 4.5181-12.288 7.4384-10.761 8.9345 1.0016 0.9813 23.063 3.9102 23.798 3.1595 0.43153-0.44048-0.0588-2.2362-1.0897-3.9906-3.0423-5.1773-0.0553-5.1992 4.4873-0.0328l4.057 4.6141 11.558-0.50195c9.8514-0.42782 12.068-0.87322 15.007-3.0158 2.4853-1.8115 5.0062-2.5298 9.0229-2.5709 3.0657-0.0314 7.6905-0.78987 10.277-1.6855 2.5868-0.89556 15.086-4.2569 27.776-7.4696 12.69-3.2127 24.723-6.31 26.741-6.8828 2.0177-0.57286 4.3701-0.78059 5.2276-0.46159 2.2599 0.84073 1.9519 4.486-0.44566 5.2741-2.2748 0.74774-3.3022 6.7346-3.322 19.359-6e-3 3.9381-0.75197 16.231-1.6573 27.317s-1.3642 23.483-1.0196 27.549c0.61329 7.2359 0.68825 7.3843 3.5468 7.0218 3.4764-0.44089 5.1182 1.55 3.027 3.6706-0.82046 0.83198-8.0247 4.5612-16.009 8.2872-17.346 8.0942-47.149 23.209-49.215 24.96-2.4375 2.0655-1.6884 2.897 3.2341 3.5899 6.1053 0.8594 7.9676 2.0472 7.0552 4.4998-0.55436 1.4902-1.0362 1.6525-2.0261 0.68271-1.8604-1.8226-9.1478-1.4996-10.754 0.47678-0.74483 0.91641-2.2241 1.6751-3.2874 1.686-1.0632 0.0109-2.5578-0.71732-3.3212-1.6183zm-9.9868-7.1139c-7e-3 -0.63668 1.7154-1.9002 3.8266-2.8078 4.5141-1.9407 4.4135-0.72602 2.459-29.696-1.8772-27.823-2.5854-33.571-4.1344-33.555-2.5803 0.0264-4.2917-5.3505-4.5036-14.149-0.2344-9.7319 0.75813-11.826 5.1091-10.782 1.8573 0.44596 3.1336 1.8251 3.9148 4.2303 1.4717 4.5312 3.3122 22.137 5.0324 48.141 1.5625 23.62 2.4052 30.819 3.6061 30.806 0.47472-5e-3 9.6805-4.1032 20.457-9.1074 10.777-5.0042 22.114-10.265 25.193-11.691 3.2034-1.4834 6.8719-4.2977 8.5742-6.5775 2.9075-3.894 2.9795-4.3804 3.1635-21.37 0.10359-9.562 0.64115-23.586 1.1946-31.165 1.5142-20.736 1.2765-29.684-0.80934-30.459-1.733-0.64473-11.288 1.792-39.492 10.071-17.078 5.0132-20.313 6.3744-20.291 8.5371 0.0117 1.1384-1.3537 1.329-5.9744 0.83385-4.1574-0.44549-8.1336-0.0378-12.999 1.3329-6.7982 1.9152-7.2288 1.9095-14.276-0.1882-4.5065-1.3415-12.393-2.4101-20.765-2.8138l-13.499-0.65084 0.75416 11.999c0.41478 6.5993 1.4261 25.128 2.2474 41.174 0.8213 16.047 1.8026 32.27 2.1808 36.053l0.68753 6.8776 4.2739-0.0438c2.3506-0.0241 9.1387 1.1136 15.084 2.5281 13.58 3.2307 14.92 3.4403 22.662 3.5443 3.7889 0.051 6.33-0.38014 6.3229-1.0726zm-12.271-122.49c-8e-3 -0.82699 1.0187-2.8464 2.2827-4.4876 1.264-1.6412 2.0153-3.261 1.6698-3.5996-0.89581-0.87765-14.989 6.061-14.975 7.3731 0.01 0.96063 2.5061 1.5255 9.1088 2.0611 1.0611 0.086 1.9224-0.52009 1.9139-1.3471zm11.001-1.3628c-9e-3 -0.90868-0.51257-1.6471-1.1184-1.6408-0.60578 6e-3 -1.0938 0.75475-1.0845 1.6634 9e-3 0.90868 0.51257 1.6471 1.1184 1.6409 0.60579-6e-3 1.0938-0.75475 1.0845-1.6634zm28.053-38.191c5.1786-2.7092 6.0456-6.1673 2.3645-9.4306-1.1882-1.0533-2.4892-3.4714-2.8912-5.3734-1.3244-6.2667-1.7961-7.1829-4.0535-7.874-1.4934-0.45721-2.7275-7e-3 -3.7206 1.3587-1.8529 2.5473-5.0531 1.0175-6.2131-2.9699-1.4883-5.1162-1.2352-15.305 0.38057-15.321 0.996-0.0102 1.8503 2.2611 2.5479 6.7736 0.57719 3.7339 1.6711 6.986 2.4309 7.2269 1.3762 0.43629 1.7609-4.719 1.6665-22.33-0.0303-5.6734 0.23789-6.5659 1.8954-6.305 1.487 0.23404 1.9229-0.46675 1.8965-3.0487-0.0403-3.9299-1.0221-4.088-9.9303-1.5988-3.3226 0.92844-9.6345 1.7308-14.026 1.783l-7.9852 0.0949 7e-3 18.451c4e-3 10.148 0.0536 20.354 0.11055 22.681 0.12103 4.9399 3.5656 13.045 5.2947 12.459 1.9019-0.64475 1.9928-6.1749 0.1635-9.9536-2.1684-4.4792-4.4407-16.392-3.572-18.726 1.3799-3.7091 3.6026-1.7577 4.5614 4.0046 0.85292 5.1256 1.1403 4.8313 1.9187-1.9645 0.38532-3.3638 1.1028-6.1202 1.5943-6.1252 1.0578-0.0108 2.2558 3.8794 2.3143 7.5148 0.0269 1.6472 0.84073 2.7814 2.2502 3.1347 2.6166 0.65568 2.8864 2.781 0.59913 4.7192-2.1518 1.8234-2.0631 10.885 0.14692 15.019 0.92272 1.7259 1.6913 4.1705 1.708 5.4325 0.0159 1.262 0.40596 2.6733 0.86509 3.1363 1.4828 1.495 12.964-0.30258 17.676-2.7675zm-38.906 0.29892c0.3682-0.60963 0.14455-1.103-0.49699-1.0965-0.64154 7e-3 -1.1614 0.5076-1.1552 1.1134 6e-3 0.60579 0.22986 1.0992 0.497 1.0964 0.26714-3e-3 0.78695-0.50375 1.1551-1.1134zm-2.2102-23.936c-0.26943-1.6633-0.46195-0.29819-0.42781 3.0336 0.0342 3.3318 0.25461 4.6927 0.48989 3.0242 0.23529-1.6685 0.20736-4.3945-0.0621-6.0578zm46.607-19.368c1.0976-19.026 0.58806-21.835-3.4841-19.208-1.0367 0.66889-1.8578 1.6576-1.8246 2.197 0.0331 0.53947 0.55728 9.065 1.1647 18.946 0.67386 10.962 1.4961 17.565 2.1093 16.939 0.55277-0.56421 1.4684-9.0575 2.0347-18.874zm-46.711 11.679c-0.29024-1.0688-0.53084-0.45613-0.53467 1.3615-4e-3 1.8176 0.23365 2.692 0.52773 1.9432 0.29406-0.74879 0.29718-2.2359 7e-3 -3.3047zm24.53-31.017c1.6541-1.0319 0.71922-3.6802-1.8891-5.3513-1.4729-0.94366-3.4546-3.6002-4.4036-5.9035-1.9721-4.786-2.8483-5.1204-15.916-6.0751l-9.0945-0.66438 0.0569 3.187c0.066 3.7003 3.4079 11.352 5.8068 13.295 2.8293 2.2921 10.013 3.4024 17.465 2.6991 3.9342-0.3713 7.5225-0.90552 7.974-1.1872zm18.952-5.6316c7.5057-5.0286-2.7086-11.469-15.247-9.6139-5.6056 0.82958-8.2457 2.8014-3.6884 2.7547 3.7562-0.0385 4.7412 1.9827 1.9426 3.986-3.1399 2.2476-2.9001 3.0697 1.3033 4.4665 4.5933 1.5264 12.183 0.75563 15.689-1.5933zm173.4-328.42c4.8521-6.1662 3.4986-7.385-7.4768-6.7327-8.9868 0.53408-10.701 1.4157-11.788 6.0627-0.58559 2.5029-0.2311 2.976 2.8705 3.8312 1.9462 0.53664 5.6514 1.0358 8.2338 1.1093 4.2395 0.12058 5.0316-0.29391 8.1607-4.2704zm13.163 0.14923c0.59418-1.1381 0.73768-2.405 0.31887-2.8153-0.41882-0.41031 0.0571-0.44149 1.0576-0.06929 1.2132 0.45135 2.4148-0.25318 3.6079-2.1154 1.1276-1.76 2.4183-2.5579 3.4916-2.1586 1.3575 0.50501 1.537 0.09876 0.88541-2.0032-0.44957-1.4502-1.4992-4.0183-2.3324-5.7069-2.0577-4.1699-1.2151-5.6996 3.2157-5.838 3.04-0.09496 3.6691 0.25739 3.3722 1.8887-0.20651 1.1348 0.54845 2.4823 1.7391 3.1039 1.8334 0.95716 2.246 0.5639 3.2082-3.0577 0.60732-2.2859 2.2656-5.271 3.6852-6.6337 1.6558-1.5895 2.4613-3.4733 2.2472-5.2554-0.18356-1.5277 0.13098-2.7825 0.69898-2.7883 0.568-0.0058 0.26339-1.4616-0.67689-3.2352-1.8227-3.4379-0.83551-5.195 2.2696-4.0398 2.8444 1.0582 7.0137-0.59192 6.9914-2.7671-0.0164-1.5999-1.2273-2.1424-6.0027-2.6894-6.813-0.78041-8.7242-0.04822-7.7343 2.9631 0.38026 1.1568 0.28681 2.164-0.20764 2.2381-0.49446 0.07414-2.3843 0.31283-4.1996 0.5304-1.8153 0.21758-4.6609 0.67352-6.3235 1.0132-1.6626 0.33969-3.0273 0.19218-3.0326-0.32781-0.0126-1.2284-3.8936-2.1985-5.1605-1.29-0.53777 0.38564-0.93697 1.4443-0.88712 2.3525 0.0498 0.90826-0.18267 1.902-0.51673 2.2084-0.33406 0.30635-1.4608 1.9289-2.5038 3.6057l-1.8964 3.0487 3.2647-0.03346c1.7956-0.0184 3.6093 0.51162 4.0306 1.1778 0.54112 0.85581 1.0162 0.79684 1.6188-0.20095 0.49592-0.82112 2.7136-1.3584 5.2982-1.2837 2.4449 0.07071 4.7486-0.37371 5.1194-0.98762s1.1384-0.83576 1.7059-0.49302c0.5675 0.34275 1.0264 0.09828 1.0199-0.54326-7e-3 -0.64154 0.73152-1.174 1.6402-1.1834 3.8652-0.03961 0.20218 3.8304-4.6931 4.9583-1.9301 0.44471-3.5046 1.2648-3.4989 1.8225 6e-3 0.55765-0.62366 1.0204-1.3986 1.0284-0.77494 0.0079-2.1133 1.013-2.9741 2.2336-1.7718 2.5122-3.9464 2.9152-4.7185 0.87451-0.41514-1.0973-0.80799-1.0933-1.9642 0.02013-2.1674 2.0871-4.0578 1.7206-6.746-1.3078-2.9291-3.2999-3.7998-3.3969-4.5246-0.5044-0.32376 1.292-1.4798 2.2182-2.7852 2.2316-2.0185 0.02069-3.7912 2.7579-3.3368 5.1524 0.43776 2.3067-0.16757 3.5837-1.4692 3.0995-1.6302-0.60647-6.0636 2.355-5.0347 3.3631 0.37718 0.36953 5.0887 0.67775 10.47 0.68494 7.7217 0.01031 10.174 0.40984 11.634 1.8953 2.5328 2.5774 2.0706 5.6609-1.1977 7.9903-2.6886 1.9162-2.6935 1.9482-0.29435 1.9307 1.3418-0.0098 2.9257-0.94894 3.5199-2.0871zm27.171-14.307c-0.36974-0.36224-1.3201-0.39164-2.112-0.06532-0.87504 0.36061-0.61138 0.61892 0.67227 0.65863 1.1616 0.03593 1.8094-0.23106 1.4397-0.59331zm7.4713-3.7724c23.825-5.4703 29.816-9.3352 16.47-10.626-6.7641-0.65434-11.667 0.64526-11.642 3.086 5e-3 0.46006-1.8501 0.85829-4.1217 0.88495-4.8725 0.05724-12.023 1.9662-12.919 3.4489-0.53386 0.88393 1.2177 5.4772 2.0852 5.4683 0.15849-0.0016 4.7158-1.0195 10.127-2.262zm-56.807-6.1099c5.1711-5.3996 3.7948-10.257-3.6875-13.014-3.4549-1.2732-7.732 0.4711-11.684 4.765-2.1537 2.3401-2.2776 3.0027-1.0514 5.6224 3.0687 6.5561 11.386 7.8863 16.423 2.6267zm-137.89 417.1c-1.5082-0.99534-2.9195-1.9417-3.1362-2.103-0.21674-0.16131 1.3785-1.8821 3.545-3.824 2.1665-1.9419 4.7199-5.2206 5.6742-7.2861 1.818-3.9347 4.4019-4.9394 5.5084-2.1417 0.35802 0.90511 1.2486 1.6395 1.9792 1.632 2.29-0.0235 7.1847-6.1277 7.1734-8.9461-0.0164-4.1044 1.4672-5.6787 5.0052-5.3116 2.2177 0.23017 3.2935 1.0146 3.5334 2.5763 0.31079 2.0232-1.1085 4.3842-8.4078 13.986-2.0529 2.7006-2.0936 3.1021-0.4747 4.6882 2.7983 2.7415 1.5316 5.3868-3.3031 6.8979-6.4345 2.0111-13.906 1.9376-17.097-0.16819zm5.7778-30.347c3.489-1.9719 8.2549-6.808 9.9092-10.055 2.4981-4.9036 1.8335-7.7523-2.6952-11.552-4.8707-4.0867-3.805-4.5828 2.4339-1.1332 5.3401 2.9527 7.8722 6.9509 6.9181 10.924-1.384 5.7637-10.47 13.079-16.223 13.062-2.4459-7e-3 -2.4578-0.0501-0.34285-1.2455zm19.906-2.0648c-0.40779-0.64497 0.49001-3.6659 1.9951-6.7131 1.5357-3.1092 2.7173-7.4218 2.6926-9.8277-0.0439-4.2875-1.1121-5.8582-12.03-17.69-2.8038-3.0385-1.5838-4.3067 1.8678-1.9415 1.2254 0.83972 5.2943 4.9245 9.042 9.0774 6.7972 7.532 6.813 7.5651 6.3932 13.419-0.36436 5.0808-1.0113 6.4713-4.8199 10.359-2.6537 2.7086-4.6932 4.0248-5.1405 3.3174zm-19.636-25.296c-6e-3 -0.60578-0.54258-1.096-1.1919-1.0893-1.6722 0.0171-11.201-5.5526-10.581-6.185 0.41961-0.4283 13.399 6.4153 14.992 7.9048 0.25488 0.2383-0.36266 0.44174-1.3723 0.45208-1.0096 0.0104-1.8408-0.47683-1.847-1.0826zm-13.991-21.649c-2.4329-0.92966-4.6742-1.9704-4.9806-2.3128-0.30644-0.34238-1.554-1.1586-2.7724-1.8138-3.8544-2.0728-3.3886-5.4384 1.193-8.6208 4.5462-3.1578 14.381-6.9034 15.43-5.8764 0.36445 0.35707-0.52191 1.6467-1.9697 2.8658-1.4478 1.2191-3.2573 2.7576-4.0212 3.4189-2.3241 2.0119-0.64752 2.8947 7.9638 4.1934 8.6096 1.2985 15.264 4.616 15.941 7.9471 0.55384 2.7252-2.6255 2.3834-4.6926-0.50435-2.8393-3.9665-9.9315-6.0969-15.44-4.638-5.0164 1.3286-6.4635 3.236-2.8552 3.7635 2.2417 0.32772 3.0096 1.7894 1.4488 2.7581-0.45152 0.28026-2.8115-0.25107-5.2444-1.1807zm-121.22-55.937c-1.5083-1.0097-3.1119-2.3564-3.5635-2.9927-1.4578-2.0541-1.0272-12.615 1.165-28.567 2.3086-16.799 4.083-22.773 6.7724-22.8 2.1684-0.0222 2.2372 3.4149 0.21078 10.538-4.0548 14.253-6.2694 40.061-3.6572 42.62 2.0268 1.9856 8.0608-0.52477 13.094-5.4478 2.7557-2.6951 5.4174-4.9044 5.9148-4.9095 2.3062-0.0236 0.49674 3.8042-3.9381 8.3309-4.0663 4.1505-5.5733 4.9851-9.0666 5.0209-2.3043 0.0236-5.4237-0.78315-6.932-1.7928zm173.85-10.658c-0.36317-2.4954 0.35685-8.6187 1.0699-9.0987 1.1521-0.77557 1.0823-11.912-0.10179-16.247-0.79255-2.9014-0.65357-3.5733 0.74211-3.5876 4.5619-0.0467 5.9225 7.551 3.3609 18.767-1.77 7.75-4.5976 13.419-5.071 10.166zm-161.02-8.1974c-1.9177-4.3737-1.7469-14.12 0.37732-21.536 1.4626-5.1061 2.3542-6.4792 4.5866-7.0639 1.5241-0.39917 3.0465-0.45592 3.3832-0.12607 0.33664 0.3298-0.64197 3.8298-2.1747 7.7778-2.0741 5.3425-2.7665 9.1557-2.7075 14.911 0.0863 8.416-1.3357 10.894-3.4649 6.0374zm121.86-7.157c0.51025-0.88169 3.0378-4.432 5.6168-7.8896 5.6187-7.533 6.8656-10.629 6.8015-16.887-0.0562-5.4871-3.0002-9.8936-7.2996-10.926-1.5528-0.37286-2.5309-1.1621-2.1735-1.7538 1.3302-2.2024 6.1626-1.0386 10.003 2.4089 7.2584 6.5163 6.1708 16.195-3.032 26.983-4.1532 4.8684-11.546 10.881-9.916 8.0646zm213.99-187.19c1.084-1.2228 2.4136-2.2278 2.9546-2.2334 1.6974-0.0174 13.379-7.9587 15.226-10.352 2.2523-2.9166 5.3539-1.888 5.3916 1.788 0.0183 1.7905-1.1961 3.6816-3.5238 5.487-4.4013 3.4138-14.543 7.4552-18.82 7.4998-3.1299 0.0326-3.1566-0.0152-1.2286-2.1899zm-14.33-10.587c-1.4605-1.4309-0.36995-2.4169 6.1783-5.5857 7.7592-3.7549 12.453-8.0625 14.669-13.463 1.3774-3.356 1.3062-4.0944-0.76908-7.9783l-2.287-4.28 2.2471-0.02303c3.321-0.03403 7.0212 8.6005 6.1208 14.283-0.75885 4.7899-6.1439 10.552-13.294 14.225-4.4303 2.2759-11.778 3.8874-12.865 2.8217zm-171.59-2.7821c-2.7282-3.121-4.7258-12.761-3.9535-19.079 0.83183-6.8048 3.5752-12.55 8.5794-17.966 3.3739-3.6516 4.2711-4.0496 8.5366-3.7866 5.0893 0.31378 6.7509 2.9454 2.6025 4.1218-4.3678 1.2386-7.9224 4.6736-10.723 10.362-3.5873 7.2864-4.5589 14.669-2.8076 21.335 1.5063 5.7332 0.45559 8.0902-2.2345 5.0128zm126.82-6.3575c-1.1963-1.4118-1.1062-1.6877 0.55686-1.7047 1.0913-0.0112 3.6021-0.6242 5.5796-1.3623 2.6326-0.98256 3.5286-1.9505 3.3458-3.6143-0.18798-1.7112 0.36256-2.257 2.2295-2.2103 1.8864 0.0472 2.4728-0.55128 2.4528-2.5036-0.0273-2.6637 0.72015-3.1124 2.913-1.7485 1.8856 1.1728 0.0712 10.24-2.422 12.103-1.2129 0.90646-3.8815 1.364-6.6705 1.1436-2.5568-0.20205-5.0783 0.0709-5.6032 0.60687-0.54589 0.55719-1.5655 0.2532-2.3818-0.71012zm19.701-8.5447c-6e-3 -0.58677 0.73253-1.0745 1.6412-1.0838 0.90868-9e-3 1.6541 0.17787 1.6566 0.41595 2e-3 0.23808-0.73611 0.72578-1.6412 1.0838s-1.6506 0.17083-1.6566-0.41594zm-159.19-1.2533c-3.9261-5.8601 0.20361-20.066 8.2083-28.237 4.4289-4.5206 4.9242-4.7361 7.3865-3.2133 1.2914 0.79868 0.73237 1.9503-2.8991 5.972-5.9402 6.5784-10.041 15.049-9.9844 20.622 0.025 2.4433 0.54116 4.4372 1.147 4.431 0.60579-6e-3 1.109 0.73218 1.1184 1.6409 0.0271 2.6449-2.863 1.9387-4.9766-1.216zm154.57-73.163c-323.3 519.3-161.65 259.65 0 0z" stroke-width="1.1015"/>
</svg>
