<?xml version="1.0" encoding="UTF-8"?>
<!-- Created with Inkscape (http://www.inkscape.org/) -->
<svg width="1275" height="1210.6" version="1.1" viewBox="0 0 1274.9966 1210.6004" xmlns="http://www.w3.org/2000/svg" xmlns:cc="http://creativecommons.org/ns#" xmlns:dc="http://purl.org/dc/elements/1.1/" xmlns:rdf="http://www.w3.org/1999/02/22-rdf-syntax-ns#" xmlns:xlink="http://www.w3.org/1999/xlink">
 <metadata>
  <rdf:RDF>
   <cc:Work rdf:about="">
    <dc:format>image/svg+xml</dc:format>
    <dc:type rdf:resource="http://purl.org/dc/dcmitype/StillImage"/>
    <dc:title/>
   </cc:Work>
  </rdf:RDF>
 </metadata>
 <image x="-292.02" y="1589.7" width="3285.3" height="1621.3" preserveAspectRatio="none" />
 <path d="m395.54 1188.2c-3.7285-4.12-2.874-12.709 1.7933-18.025 5.5599-6.3324 5.4523-11.805-0.1328-6.7503-2.3893 2.1623-7.8672 1.5519-7.8672-0.8766 0-0.6839-0.6-1.2435-1.3333-1.2435s-1.3333 0.8789-1.3333 1.9531c0 3.5638-4.8756 5.0188-9.2456 2.7589-2.4776-1.2812-4.2406-1.5432-4.7574-0.7071-0.45156 0.7307-2.5702 1.3284-4.7081 1.3284-2.9155 0-4.3367-0.9165-5.6859-3.6666-2.0199-4.1174-1.7689-6.7608 1.329-14 1.9102-4.4638 2.6542-4.9975 6.9372-4.977 3.3665 0.016 5.7416 1.0183 7.9627 3.3595 1.9912 2.0989 3.7221 2.91 4.6667 2.1864 3.0134-2.308 24.638 0.3677 25.718 3.1823 0.61308 1.5977 1.4493 5.3526 1.681 7.5488 0.0561 0.5317 1.902 0.6066 4.102 0.1666 4.9844-0.9969 5.4208 1.6098 0.63469 3.7906-1.8509 0.8433-3.6463 2.7804-3.9898 4.3046-0.34349 1.5243-1.214 5.5427-1.9344 8.9296-2.3603 11.096-3.5916 13.175-7.8041 13.175-2.1045 0-4.8194-1.0972-6.033-2.4382zm-65.446-15.147c-1.4632-1.7089-2.8294-5.9914-3.2963-10.333-0.73571-6.8408-1.0777-7.4471-4.4176-7.8323-2.9781-0.3433-3.7805 0.2216-4.5242 3.1848-0.49725 1.9812-0.96817 4.804-1.0465 6.2731-0.0784 1.4689-1.2288 3.3359-2.5565 4.1485-1.9891 1.2176-2.9868 0.8191-5.6667-2.2633-2.711-3.1181-3.2526-5.1457-3.2526-12.178 0-7.9348 0.19787-8.4746 3.3249-9.0724 1.8287-0.3496 3.9421 0.108 4.6966 1.0172 0.75443 0.9091 3.0882 1.9962 5.1862 2.4158s5.2942 1.1342 7.1027 1.5881c2.7631 0.6935 3.56 0.1688 4.991-3.2859 1.8652-4.503 7.0422-6.6878 10.572-4.4616 1.6342 1.031 2.127 3.6248 2.127 11.196v9.8547l-4.3333-0.3384c-3.7995-0.2967-4.3333 0.063-4.3333 2.9213 0 4.0783 1.8506 5.3403 4.0122 2.7358 2.0159-2.4291 6.6545-2.6256 6.6545-0.282 0 7.0506-10.466 10.286-15.24 4.7114zm8.4588-22.415c-0.0483-1.3188-0.46362-1.0916-1.2192 0.6667-1.5751 3.6655-1.5751 5.7707 0 3.3333 0.71088-1.1 1.2595-2.9 1.2192-4zm14.211 20.574c-3.0824-3.0824-3.5855-6.4708-3.1537-21.24l0.3898-13.333 4.4992-0.4301 4.4992-0.4303-0.96633 15.466c-0.70112 11.221-0.53219 15.989 0.61553 17.372 3.3514 4.038-2.0559 6.4242-5.8838 2.5963zm108.47-3.0461c0.79044-1.477 1.4372-4.2248 1.4372-6.1064 0-2.208 0.73625-3.421 2.0767-3.421 1.6186 0 1.9862 1.25 1.6667 5.6667-0.34527 4.772-0.90007 5.7361-3.5138 6.1064-2.7372 0.3877-2.934 0.1227-1.6667-2.2457zm-33.02-3.8607c-0.66971-1.2833-0.9106-8.4833-0.53532-16l0.68233-13.667h3.9088c3.5936 0 4.3146 0.879 8.9418 10.9l5.033 10.9 0.71908-6.5663c0.39548-3.6116 0.48121-10.092 0.19052-14.402-0.34259-5.0789 0.0659-8.553 1.1609-9.8741 1.5134-1.8259-3.9372-1.9309-52.311-1.0089-29.7 0.5661-66.6 1.1978-82 1.4038s-35.5 1.0944-44.667 1.9743c-10.742 1.0311-34.205 1.4352-66 1.1369-27.133-0.2545-55.483 0.073-63 0.7279-9.3047 0.8105-13.667 0.7497-13.667-0.1908 0-5.0487 33.689-6.9707 92.667-5.2864 18.115 0.5173 35.305 0.33 42-0.4577 6.2333-0.7335 32.933-1.9106 59.333-2.6159 103.43-2.7632 135.38-3.0716 158.42-1.5296 12.6 0.8429 44.509 1.8815 70.909 2.3076 48.039 0.7756 71.739 1.8728 73.255 3.3913 0.4442 0.4451 0.3989 1.8744-0.1007 3.1764-0.9747 2.54-1.4167 2.5343-43.154-0.5562-7.7-0.5703-31.246-1.1616-52.325-1.3142s-43.579-0.8302-50-1.506c-15.116-1.5905-26.948-1.6188-24.484-0.059 1.5 0.9498 1.7271 4.8174 1.1787 20.068-0.38069 10.586-1.3012 19.513-2.0938 20.305-3.0155 3.0155-8.0217-0.1552-12.512-7.9246l-4.4306-7.6656-0.41356 7.3042c-0.49346 8.7154-3.944 12.33-6.7103 7.0291zm680.12 1.4503c-2.4546-0.9904-2.0318-2.8278 1.0276-4.4651 3.438-1.8399 5.2494-0.7248 4.3584 2.6828-0.6872 2.6279-2.1175 3.1012-5.386 1.7823zm53.967-16.326c-7.204-0.8946-8.9892-3.2275-2.9915-3.909 4.7115-0.5353 14.024 2.0138 14.024 3.8386 0 1.343-0.7462 1.3477-11.033 0.071zm-1111.9-5.7142c-1.8934-2.8517-2.0583-2.8681-6.6975-0.6666-5.568 2.6421-9.4041 2.8488-13.441 0.724-4.0137-2.1127-4.8729-3.7267-4.8626-9.1338 0.0204-10.704 10.177-23.722 17.161-21.996 1.9006 0.4698 5.1046 2.647 7.1201 4.8383 3.549 3.8587 7.2418 4.1093 5.8163 0.3948-1.1043-2.8779 3.1105-6.2117 6.7108-5.3081 2.4789 0.6222 3.1417 0.2512 3.1417-1.759 0-2.9837 6.0236-5.0302 8.5745-2.9132 0.90901 0.7544 2.4576 3.8104 3.4413 6.791 2.6752 8.106 3.9652 7.7012 4.1509-1.3024 0.0917-4.4432 0.2646-8.5287 0.3843-9.0787 1.985-9.121 6.0482-12.972 9.765-9.2554 1.5614 1.5614 2.8615 1.7062 5.8779 0.6547 8.2586-2.879 18.293 2.6239 20.291 11.128 1.6031 6.8226-5.9141 17.964-13.811 20.471-1.4706 0.4668-2.6739 1.4083-2.6739 2.0922 0 1.8393-3.6155 1.5108-7.9307-0.7207-3.6425-1.8836-3.8322-1.8289-4.6258 1.3333-1.201 4.785-5.6157 4.1948-10.953-1.4641-2.4699-2.6189-4.4908-5.3189-4.4908-6s-0.6-1.2384-1.3333-1.2384c-0.73869 0-1.3333 3.5192-1.3333 7.8909 0 4.34-0.36419 8.84-0.80932 10-1.134 2.9552-5.2722 2.6256-8.3369-0.664l-2.5834-2.7729-0.91903 5.4396c-1.0565 6.2533-4.4171 7.3609-7.6339 2.5161zm-11.115-6.9634c2.4841-1.038 5.1859-3.138 6.0041-4.6667 1.3558-2.5335 1.1292-2.7796-2.5593-2.7796-3.1237 0-4.0469-0.5932-4.0469-2.6004 0-1.4303 1.05-3.1963 2.3333-3.9245 2.1192-1.2026 2.1416-1.5184 0.24422-3.4411-1.9076-1.9331-2.2681-1.9107-4.1492 0.2579-2.7592 3.1808-6.4906 14.661-5.5565 17.095 0.92957 2.4224 2.0531 2.431 7.7303 0.059zm53.794-20.264c0.21783-2.9025-0.19415-6.7559-0.91548-8.5631-1.23-3.0814-1.3168-2.9853-1.396 1.5478-0.0465 2.6582-0.47559 6.7886-0.95357 9.1785-0.67714 3.3857-0.4563 4.2093 1 3.7297 1.0832-0.3566 2.0356-2.8345 2.2651-5.8929zm15.893-6.0851c0.49484-4.3902 0.11387-6.3229-1.5125-7.6726-1.1957-0.9924-2.4961-1.4822-2.8898-1.0884-1.1472 1.1472-3.16 17.349-2.3235 18.702 1.5464 2.5022 6.0782-4.1962 6.7258-9.9412zm679.54 28.292c-0.3971-0.3971-20.164-0.7438-43.926-0.7702-32.044-0.036-43.622-0.4662-44.822-1.6666-1.1767-1.1767-1.2183-2.0188-0.1525-3.0846 1.5604-1.5604 1.6539-1.563 19.067-0.5388 13.425 0.7898 55.123 1.7354 108.67 2.4646 33.614 0.4576 40.932 0.181 56-2.117 39.812-6.0712 178-3.1398 180.29 3.8244 0.6995 2.1331-5.5827 3.0407-11.635 1.681-12.179-2.7366-40.063-3.8923-94.238-3.9062-31.836-0.013-58.34 0.2674-58.898 0.612-0.5577 0.3447-6.6769 1.5104-13.598 2.5904-9.3087 1.4527-23.444 1.9207-54.306 1.7984-22.947-0.091-42.047-0.4904-42.444-0.8874zm449.66 0.2066c-1.3293-2.151 5.3816-5.5953 10.902-5.5953 7.3601 0 7.9588 1.5872 1.3075 3.4672-3.1378 0.8868-6.9874 2.0217-8.5546 2.5221-1.5673 0.5003-3.2121 0.3231-3.6553-0.394zm-599.94-6.4842c-3.0096-3.0095 1.9594-7.0602 5.2801-4.3042 2.8642 2.3771 2.17 5.1931-1.2801 5.1931-1.7112 0-3.5112-0.4-4-0.8889zm54.153-1.4047c-1.2063-0.4212-1.429-4.2336-0.8646-14.793 0.4484-8.3869 0.1577-17.103-0.7083-21.236-0.8079-3.8557-2.1176-10.46-2.9104-14.677-0.7929-4.2167-1.924-9.8963-2.5134-12.621-0.7603-3.5145-0.5474-5.6462 0.7325-7.3334 2.5554-3.3686 2.4264-3.6693-2.7775-6.4718-2.5667-1.3822-4.6667-3.2645-4.6667-4.1828 0-2.0462 9.5026-7.0573 13.383-7.0573 1.5523 0 4.5509 1.7287 6.6637 3.8414 5.2688 5.2688 8.9148 5.8812 23.422 3.9343 9.9247-1.332 12.45-2.1041 12.191-3.7278-0.1974-1.239 0.8587-2.2162 2.6737-2.4739 2.6202-0.3722 3.0022-1.2163 3.0172-6.6667 0.01-3.4323 1.2885-10.141 2.8422-14.907 2.9343-9.0022 3.9116-25.762 1.6349-28.039-0.6721-0.6721-9.3083-1.3134-19.192-1.4251-9.8832-0.1118-22.415-0.7254-27.848-1.3636-9.0839-1.0672-10.028-0.9465-11.742 1.5003-2.5577 3.6516-5.2408 3.3375-9.7158-1.1374-3.463-3.4631-4.8951-3.8727-16.231-4.6429-14.378-0.9768-25.676-3.9682-39.766-10.529-5.5-2.561-11.05-5.0216-12.333-5.468-3.444-1.198-2.8339-4.7189 0.98374-5.6771 2.3943-0.6009 7.3089 1.037 17.667 5.8878 15.166 7.1026 20.877 8.9283 31.683 10.127 12.506 1.3877 17.332 1.2315 20.338-0.6583 3.4944-2.1969 6.8701-0.7611 8.9525 3.8077 1.492 3.2733 4.6389 3.756 32.89 5.0447 12.472 0.5689 19.066 0.3556 21-0.6793 2.6988-1.4443 2.819-2.4682 2.819-23.998v-22.489l-8.3333-0.9078c-12.934-1.409-17.96-3.3515-24.548-9.4867l-6.0928-5.6738 0.7506-18.43c0.4129-10.137 1.3321-33.13 2.0427-51.097s1.7253-42.651 2.2549-54.854c0.9257-21.33 0.86-22.243-1.7017-23.614-1.8657-0.9984-11.417-1.0508-31.852-0.1745-16.053 0.6884-52.069 1.2541-80.036 1.2573-27.967 0-66.667 0.6512-86 1.4402l-35.151 1.4345-4.6504 4.5943c-3.943 3.8956-4.415 4.9713-3.103 7.0721 3.1865 5.1024 2.1838 32.765-1.8912 52.177-1.6441 7.8317-3.0079 10.91-6.2899 14.196-4.2136 4.219-11.658 7.1162-18.32 7.13-1.9734 0-3.9483 0.5905-4.3887 1.303-0.44037 0.7126-1.1635 12.915-1.607 27.117l-0.80628 25.822 19.419 0.8823c19.48 0.8851 23.638 1.5253 23.638 3.6392 0 0.6257-8.9092 0.772-19.798 0.325-15.902-0.6528-20.018-0.4565-20.917 0.9973-0.61527 0.9956-1.5515 11.254-2.0805 22.797-0.529 11.543-1.3418 21.602-1.8062 22.353-0.4644 0.7514-0.89988 21.881-0.96772 46.955-0.11026 40.746 0.10814 45.758 2.0565 47.183 2.814 2.0576 2.7568 2.6275-0.73758 7.3539-3.4407 4.6538-7.7493 5.2961-7.7493 1.1552 0-2.7435-0.32214-2.7757-19-1.8962-10.45 0.492-21.4 1.0673-24.333 1.2783-2.9333 0.2111-13.243-0.1074-22.911-0.7077-18.45-1.1456-30.557-4.2069-43.089-10.895-8.131-4.3396-8.2208-6.5711-0.37733-9.3824 7.1613-2.5668 8.3773-2.7405 8.3773-1.1967 0 0.5918-1.65 1.6665-3.6667 2.3884l-3.6667 1.3124 3.494 2.3185c5.8972 3.9132 18.089 7.5794 32.245 9.696 13.325 1.9924 30.715 1.9176 61.594-0.265l12-0.8482 0.33537-44.969c0.23515-31.53 0.9301-48.915 2.3255-58.172 1.0946-7.262 1.9936-18.158 1.998-24.213l8e-3 -11.009-9.6667 0.7396c-14.671 1.1226-17.275 1.739-20.619 4.8808l-3.0807 2.8941-3.6501-2.7226c-4.0191-2.9978-5.4358-6.9243-3.0338-8.4088 0.84992-0.5253 6.9576-0.9976 13.573-1.0495 6.615-0.052 14.979-0.5004 18.586-0.9965l6.5587-0.9021v-17.674c0-9.7205 0.37541-22.114 0.83426-27.542l0.83427-9.8679-13.168 0.3026c-7.2422 0.1664-15.123 0.6853-17.513 1.1531-6.9385 1.3581-10.34-3.7314-6.542-9.789 1.6728-2.6681 9.932-1.9601 14.234 1.2202 4.5921 3.3951 16.797 4.8674 21.129 2.5488 2.5544-1.3671 2.8579-2.6572 2.8579-12.149 0-10.118-0.14176-10.621-3-10.641-1.65-0.012-9.9-0.5971-18.333-1.301-46.745-3.902-64.115-5.6859-72.462-7.4418-5.1045-1.0738-10.441-1.5842-11.859-1.1342-3.7303 1.1839-11.951-0.6199-11.329-2.4859 1.2057-3.6171 10.421-4.0401 25.526-1.1718 8.1345 1.5447 22.89 3.4519 32.79 4.2383s22.076 2.0547 27.058 2.8186 15.782 1.4886 24 1.6105l14.942 0.2217-0.35828 3.3334c-0.19705 1.8333-0.72414 7.9833-1.1713 13.667l-0.81302 10.333h4.8911c5.0942 0 13.784-3.7173 16.588-7.096 1.7312-2.086 3.4775-10.943 5.5676-28.237 1.4673-12.141-0.8721-44.262-3.2782-45.009-0.78416-0.2437-18.526-0.028-39.426 0.4804-20.9 0.5079-52.889 0.9847-71.086 1.0596l-33.086 0.1361-3.3276 3.9547c-1.8988 2.2565-5.2 4.3059-7.6879 4.7726l-4.3603 0.818-1.6188 12.159c-0.89036 6.6873-2.4823 14.89-3.5376 18.227-5.7271 18.114-4.3975 53.402 2.0122 53.402 0.53969 0 1.2891-6.4954 1.6654-14.434 0.74068-15.627 2.2389-20.232 6.5815-20.232 2.4953 0 2.7007 0.5348 1.9204 5-0.48057 2.75-1.241 11-1.6897 18.333l-0.81593 13.333 5.1819 1.8307c2.85 1.0068 6.0819 2.5797 7.1819 3.4953 5.1896 4.3196 7.6957 4.761 12.252 2.1581 7.2796-4.1589 13.553-4.6447 19.671-1.5233 2.9435 1.5016 9.6812 3.641 14.973 4.7541 10.594 2.2285 11.558 2.6987 9.5808 4.6753-1.3492 1.3492-16.352-1.3094-22.759-4.033-2.4094-1.0242-3.6521-0.5508-6.7898 2.587-3.3707 3.3706-4.7848 3.8322-11.555 3.7713-6.1795-0.056-7.8356-0.532-8.3227-2.3945-0.58784-2.248-15.087-10.654-18.377-10.654-1.7905 0-2.898 9.3299-4.2121 35.485l-0.81152 16.152 5.1293 0.9623c2.8212 0.5292 6.7703 1.8108 8.7759 2.8479 4.8191 2.4921 8.2832 2.4562 7.3116-0.076-1.3532-3.5263 2.7423-5.8963 9.9069-5.7331 7.2822 0.1658 7.1874-0.03 4.4552 9.2104-0.4817 1.6291 0.46416 2.3561 3.73 2.8669 5.861 0.9168 29.639 9.4944 33.705 12.159 1.7837 1.1687 5.6224 2.1249 8.5306 2.1249 4.4427 0 5.3556-0.4722 5.7136-2.9555 0.54434-3.7759 7.9887-6.2873 11.066-3.7332 2.6697 2.2157 2.5575 4.4042-0.41406 8.0739-2.1408 2.6438-3.5413 2.9837-11.401 2.7674-6.1836-0.1701-11.249-1.2584-16.343-3.5113-4.0603-1.7956-11.38-4.4661-16.265-5.9344s-10.906-3.9138-13.379-5.4344l-4.4962-2.7647-2.9231 2.7461c-3.6772 3.4545-6.3431 3.477-9.4179 0.079-1.3273-1.4666-3.9868-2.6666-5.91-2.6666-1.9232 0-4.6802-0.8234-6.1267-1.8297-1.4465-1.0063-4.5199-2.2407-6.8298-2.7432l-4.1998-0.9137-0.77919 14.41c-0.42856 7.9254-1.4395 22.935-2.2466 33.354-0.80708 10.419-1.066 19.594-0.57546 20.388s1.8915 1.1374 3.1131 0.7637c1.2216-0.3738 7.9211 0.125 14.888 1.1084 6.9667 0.9834 12.967 1.6234 13.333 1.4222 0.36666-0.2011 0.46337-4.0243 0.2149-8.496-0.3092-5.5645-1.0005-8.1302-2.1907-8.1302-0.95641 0-2.0843 0.9-2.5064 2-0.8728 2.2745-4.2766 2.6751-5.5278 0.6506-0.45871-0.7422 1.0059-4.5653 3.2546-8.4957 2.2488-3.9304 4.0886-7.5231 4.0886-7.9839 0-0.4607-1.85-0.8377-4.1111-0.8377-5.4871 0-4.4545-3.1913 1.2138-3.7511 3.4802-0.3437 4.2306-0.9942 4.2306-3.6667 0-2.7286-0.6474-3.2488-4.0428-3.2488-2.2236 0-6.2736-0.9715-9-2.1589-2.7264-1.1874-6.7572-2.5727-8.9572-3.0785l-4-0.9197 3.1215-1.7001c2.6572-1.4472 4.0822-1.2867 9.5805 1.0786 5.6013 2.4096 9.1428 2.7786 26.67 2.7786 19.057 0 20.251-0.1515 20.905-2.6539 0.74744-2.8582 3.4511-2.6829 11.75 0.7621 6.605 2.7417 9.1784 6.4277 7.6163 10.909-1.7515 5.0244 0.52449 18.453 3.9514 23.314 2.7372 3.8825 3.5384 10.09 1.6886 13.083-0.61135 0.9892-1.2997 3.6256-1.5296 5.8588-0.51959 5.0464-4.7754 8.727-10.091 8.727-4.2609 0-22.056-4.872-24.329-6.6609-0.73334-0.5771-4.7833-1.4437-9-1.9258-6.4104-0.7329-7.6667-0.5382-7.6667 1.1884 0 1.1357-0.6 2.0649-1.3333 2.0649h-2.3333c-0.55 0-1-0.731-1-1.6245 0-0.8934-2.4-2.0304-5.3333-2.5266-18.584-3.1433-22.962-3.9378-25.447-4.6178-2.6842-0.7343-2.8348-0.052-4.342 19.671-1.8611 24.355-1.94 41.321-0.24669 53.037 1.258 8.7039-0.1132 13.778-2.9551 10.937-2.1071-2.1071-3.4079-38.427-2.201-61.453 0.63167-12.051 0.94707-22.112 0.70089-22.358-0.24618-0.2461-4.8864-0.4834-10.312-0.5271-5.4252-0.044-14.824-1.0166-20.886-2.1619-9.9869-1.8868-11.239-1.887-13.333 0-2.0265 1.824-2.8571 1.8501-6.7388 0.2116-2.435-1.0279-4.0496-2.48-3.588-3.227 1.0306-1.6677 18.118-1.7348 25.168-0.099 2.834 0.6576 10.541 1.3662 17.127 1.5747 9.9853 0.3161 12.179 0.015 13.202-1.8137 0.67492-1.206 1.6074-10.553 2.0722-20.771l0.84511-18.578-4.792-0.5594c-2.6356-0.3077-6.0904-0.079-7.6772 0.5078-1.5868 0.587-5.0702 0.5154-7.741-0.1592-10.195-2.5752-22.489-4.3873-30.093-4.436-6.7065-0.043-8.0533 0.3526-8.8884 2.6101-2.1213 5.7344-6.4895 4.6367-11.099-2.789-1.9872-3.2013-2.0802-4.1048-0.57337-5.5732 2.4386-2.3763 15.034-2.9001 17.645-0.7337 1.1297 0.9376 4.6264 1.942 7.7705 2.2321 3.1441 0.2901 6.9165 1.096 8.3832 1.7908 3.7869 1.794 18.479 3.5924 28.667 3.509l8.6667-0.071 0.38468-11.628c0.37979-11.48 0.34148-11.639-3.0082-12.48-5.5864-1.4021-14.843-12.921-17.89-22.262-6.8147-20.892-7.4943-27.992-7.3678-76.983 0.12334-47.759 0.65855-52.668 5.6378-51.708 2.0565 0.3966 2.2434 4.7623 2.2434 52.414v51.981l4.8388 14c4.8262 13.964 11.285 26.708 13.993 27.61 0.91852 0.3062 1.7378-4.4179 2.2951-13.234 0.47668-7.5405 1.2524-19.494 1.7238-26.563 0.81321-12.194 0.71164-12.931-1.9829-14.373-4.3873-2.3481-6.4318-7.8053-7.283-19.441-0.86046-11.761 0.62762-25.391 4.44-40.667 1.3726-5.5 2.8992-14.65 3.3922-20.333l0.89655-10.333h4.2133c5.3095 0 11.271-3.7971 8.6092-5.4837-2.109-1.3364-89.944-1.412-97.802-0.084-4.0497 0.6843-5.3764 1.543-5.5123 3.5678-0.0984 1.4667-0.83965 7.7667-1.6472 14-1.8007 13.9-7.7021 86.636-8.8459 109.03-1.1734 22.971 0.42983 28.073 12.217 38.874 4.879 4.4707 8.5051 8.4943 8.0581 8.9413-3.1224 3.1224-19.621-9.215-24.604-18.398-3.4327-6.3269-3.825-16.656-1.6876-44.443 0.67689-8.8 1.5588-21.1 1.9597-27.333 0.40093-6.2333 1.1172-16.433 1.5918-22.667 0.47459-6.2333 0.9797-13.133 1.1225-15.333 1.592-24.529 3.9946-41.314 6.2346-43.554 3.4618-3.4619 3.17-3.7791-3.4756-3.7791-3.2567 0-6.2921-0.6-6.7454-1.3334-0.47408-0.767-8.0104-1.3736-17.745-1.4282-19.344-0.1084-36.941-1.4802-38.459-2.9979-2.3789-2.3789 1.8635-5.5735 7.0303-5.2939 2.8455 0.154 16.274 0.8988 29.84 1.6552 16.086 0.8968 25.988 0.9236 28.464 0.077 2.3753-0.812 5.8708-0.8413 9.3333-0.078 4.0947 0.9023 99.145 2.2738 105.13 1.517 2.5758-0.3255-2.5187-8.0722-8.3318-12.669-7.7373-6.1187-7.6619-5.5816-4.6309-32.988 1.3813-12.49 1.8781-29.519 1.6667-57.127-0.19333-25.242 0.28847-43.871 1.3448-52 0.90537-6.9667 2.3047-22.867 3.1097-35.333 1.672-25.896 3.4176-39.132 5.4899-41.629 0.79077-0.95284 1.3604-5.088 1.2659-9.1893-0.0945-4.1013 0.71894-18.645 1.8078-32.319 2.7595-34.656 6.7547-49.219 25.294-92.196 7.9799-18.499 9.6656-22.687 14.723-36.575 2.652-7.2828 7.4806-18.818 10.73-25.635 3.2497-6.8163 6.5005-14.958 7.2241-18.092 0.72358-3.1342 4.0182-13.447 7.3214-22.917 7.4868-21.464 11.439-39.834 12.645-58.782 0.96213-15.109 0.87428-23.788-0.63441-62.667-0.48378-12.467-0.49528-22.29-0.0256-21.83 1.5291 1.4975 2.1057 7.4339 3.2439 33.397 1.364 31.113 0.59548 60.343-1.8694 71.1-1.0083 4.4-2.5224 11.6-3.3648 16s-2.9135 11.6-4.6025 16c-3.4681 9.0346-9.3235 27.334-10.649 33.28-0.48382 2.1706-3.245 8.9024-6.136 14.96-4.893 10.252-11.085 25.867-15.237 38.427-2.2389 6.7721-7.2198 19.032-14.626 36-12.608 28.886-15.229 36.947-19.351 59.512-0.62072 3.3983-1.8358 19.298-2.7002 35.333-0.94413 17.514-2.2635 30.752-3.3046 33.155-1.3636 3.1475-4.4636 42.403-4.5099 57.11-4e-3 1.3438-0.77789 7.0438-1.7192 12.667-1.182 7.0603-1.6218 22.599-1.4217 50.223 0.20976 28.946-0.3122 46.168-1.8887 62.32l-2.1786 22.32 7.5257 7.231c4.1391 3.9771 7.6007 7.8829 7.6924 8.6795 0.0917 0.7967 0.24167 2.1985 0.33334 3.1152 0.23472 2.3472 15.467 3.6336 34.833 2.9418 8.8-0.3143 36.352-0.9072 61.226-1.3176 24.874-0.4103 45.613-0.9856 46.087-1.2784 0.47374-0.2928 0.32732-5.2154-0.32537-10.939-0.75748-6.6427-0.67315-14.988 0.23319-23.073 0.78093-6.9667 1.6943-23.786 2.0297-37.376 0.3354-13.59 0.89576-25.59 1.2452-26.667 0.34947-1.0766 1.0153-9.3482 1.4797-18.381s1.0646-17.133 1.3339-18c0.26928-0.86687 0.86317-13.276 1.3197-27.576 0.78708-24.651 1.8297-35.273 4.6379-47.248 0.95268-4.0627 0.80496-5.5685-0.65398-6.6667-1.438-1.0824-1.9333-5.6051-2.0901-19.085-0.18557-15.96-1.2802-21.674-2.9373-15.333-0.48408 1.8524-0.64165 1.7483-0.76444-0.50491-0.0979-1.7967-1.5784-3.428-4.0345-4.4453-5.1761-2.144-18.4-15.398-21.577-21.626-3.4038-6.672-3.2688-16.012 0.33575-23.229l2.8786-5.7638-5.5381-12.578c-6.6995-15.217-13.963-42.698-16.788-63.52-5.5941-41.231-6.0566-47.447-8.8285-118.67-1.5004-38.549-2.8871-63.818-7.4268-135.33-0.55863-8.8-0.9208-18.179-0.80486-20.842 0.19246-4.4198-0.15268-4.9145-3.9598-5.6759-2.2938-0.45877-4.4636-0.54114-4.8217-0.18304-0.79424 0.79425-0.50105 23.69 0.44436 34.701 0.66116 7.7002-0.77111 13.041-2.9209 10.891-0.56752-0.56752-1.3902-11.31-1.8281-23.872-0.70796-20.308-1.069-22.998-3.257-24.263-7.43-4.2952-20.603-26.384-20.665-34.651-0.0161-2.1422-0.96843-4.9328-2.1163-6.2011-3.1848-3.5191-0.25243-12.684 5.9414-18.571 5.5522-5.2764 12.841-7.642 27.316-8.8656 8.2479-0.6972 10.401-0.40012 15.332 2.1153 10.092 5.1486 18.862 12.264 21.889 17.758 1.6181 2.9377 3.8115 6.9127 4.8742 8.8333 1.0627 1.9206 1.9627 6.792 2 10.825 0.0584 6.3157-0.64663 8.4331-5.0809 15.258-7.4819 11.516-14.31 16.616-22.355 16.694-8.2604 0.0807-8.49 1.1443-5.9907 27.747 1.2212 12.999 2.0575 28.434 1.8586 34.3-0.199 5.8667 0.3889 23.267 1.3065 38.667 0.91755 15.4 1.9427 35.8 2.278 45.333s0.92907 24.833 1.3194 34 1.0444 25.067 1.4536 35.333c0.40921 10.267 1.5638 24.667 2.5657 32 1.0019 7.3333 2.5257 19.633 3.3862 27.333s3.0411 19.7 4.8459 26.667c1.8048 6.9667 4.1182 16.304 5.1411 20.749 1.0228 4.4453 3.6926 12.042 5.9328 16.882 2.2402 4.84 4.0731 9.6529 4.0731 10.695 0 3.7883 1.7316 3.4409 6.1382-1.2315 3.9164-4.1526 5.0537-4.6568 8.8094-3.9057 2.3718 0.47437 6.2699 2.7598 8.6624 5.0787 2.3925 2.3189 4.7172 3.849 5.166 3.4002 0.44878-0.44878 0.8756-3.1078 0.94846-5.9089 0.0729-2.8011 0.91467-5.8857 1.8707-6.8548 0.956-0.96904 1.7464-3.669 1.7564-6 0.0516-12.02 5.7798-15.221 10.969-6.1308 1.4277 2.5009 2.926 3.6915 3.8932 3.0937 1.063-0.65694 1.2965-0.25297 0.72095 1.247-0.99588 2.5952-0.39847 2.7389 3.256 0.78314 1.5219-0.8145 2.3674-2.2566 1.9542-3.3333-0.40052-1.0438-0.28933-1.8977 0.24709-1.8977s1.5676-1.3009 2.2915-2.8909c1.5587-3.4236 5.4457-6.0906 6.8419-4.6945 0.54282 0.54283 0.34592 4.1162-0.43756 7.9409-0.78346 3.8246-1.1346 7.7093-0.78033 8.6326 1.2853 3.3494 5.2573 1.5788 8.1986-3.6547 4.3316-7.7071 7.6012-6.4723 4.1833 1.5799-3.9402 9.2825-7.6293 13.759-11.671 14.162-4.618 0.46033-8.3519-3.4313-8.3519-8.7049 0-3.2473-0.91218-3.6849-3.8294-1.837-1.5395 0.97522-1.549 2.253-0.0593 8.0649 1.5209 5.9341 1.4969 7.0844-0.17063 8.1729-1.456 0.95044-3.211-0.13716-7.0282-4.3556-5.641-6.2339-6.6918-5.8325-8.1204 3.102-0.45289 2.8322-1.3466 5.1495-1.986 5.1495s0.21894 3.45 1.9075 7.6667c5.9433 14.842 5.8824 28.136-0.16976 37.054-5.4704 8.0612-8.0996 36.569-3.6046 39.085 1.97 1.1025 2.0466 1.767 0.57578 4.9951-2.1462 4.7104-4.1173 28.562-4.2566 51.507-0.0591 9.7304-0.73217 25.492-1.4958 35.025-1.439 17.965-1.6791 21.259-3.0135 41.333-0.68895 10.365-1.3342 25.967-2.4802 59.971l-0.26863 7.9709 5.0678 0.8303c6.7403 1.1042 7.8546 2.4816 8.6427 10.684l0.66744 6.9462 23.478-0.8645c12.913-0.4755 44.478-1.1612 70.144-1.5238 137.27-1.9394 164.41-2.3708 168.67-2.6811 2.5667-0.187 7.8167-0.4133 11.667-0.503 5.9668-0.139 7-0.5424 7-2.733 0-3.9423-6.2495-8.0968-12.18-8.0968-5.1269 0-6.8993-1.7114-3.2304-3.1193 4.2915-1.6468 11.475 0.841 15.428 5.343 2.1904 2.4947 3.9825 5.3942 3.9825 6.4435 0 1.5738 2.7415 1.8231 15.667 1.4246 8.6166-0.2656 30.817-0.545 49.333-0.6207l33.667-0.1377v-3.0367c0-4.1272-3.5953-8.9633-6.6636-8.9633-1.3818 0-2.9078-0.6398-3.3911-1.4218-0.5791-0.937 0.8688-1.278 4.2465-1 4.8495 0.3991 5.2575 0.791 7.5856 7.2879 2.9473 8.225 2.0473 7.9857 31.556 8.39 33.482 0.4586 49.665 1.2092 50.813 2.3567 0.5919 0.5919 0.5584 1.9138-0.074 2.9376-1.3138 2.1257-13.464 2.2743-48.738 0.5959-29.612-1.4089-30.974-1.309-35.13 2.5786-1.9454 1.8198-4.9214 3.7276-6.6134 4.2394-4.7171 1.4268-5.5903 5.8262-5.5903 28.164 0 16.652 0.367 20.763 1.9067 21.353 1.0486 0.4024 11.699 0.1298 23.667-0.6057 19.874-1.2213 26.474-0.7108 22.507 1.7408-2.3526 1.454-29.184 4.6929-38.977 4.7051l-8.8966 0.011-1.5696 4.7557c-0.9077 2.7505-2.919 5.3707-4.77 6.2141-2.2565 1.0281-3.2006 2.5469-3.2006 5.149 0 4.3078-3.4919 8.3614-6.2809 7.2912-1.0654-0.4084-2.1664-0.7429-2.4467-0.7429-0.2802 0-2.0013-2.1953-3.8245-4.8785-2.5292-3.722-3.0036-5.4603-2.0012-7.3333 1.3977-2.6116 5.962-3.21 9.1412-1.1985 2.6056 1.6486 8.9652-1.7476 10.127-5.4082 1.2706-4.0032-1.2221-5.1356-11.382-5.1705-4.7667-0.016-14.367-0.9486-21.333-2.0714-6.9667-1.1228-20.167-2.6262-29.333-3.3409-18.11-1.412-25.038-2.7673-24-4.6947 0.8334-1.5467 27.874-0.797 36 0.9981 6.828 1.5083 39.458 5.0284 47 5.0702l5 0.028v-22.5c0-26.88 0.5755-30.826 4.5-30.854 3.6411-0.026 7.073-2.1854 5.6802-3.5737-0.5918-0.5899-22.174-0.9113-47.961-0.7142l-46.885 0.3584-3.9014 4.1537c-2.1457 2.2846-6.4063 5.2619-9.468 6.6162l-5.5666 2.4624-0.8558 11.134c-0.4707 6.1236-1.7704 16.185-2.8882 22.359s-2.409 17.314-2.8694 24.755c-0.7714 12.47-0.6043 13.906 2.1316 18.333 5.0954 8.2446 5.808 6.3211 5.1616-13.933-0.3351-10.503-0.066-19.065 0.612-19.484 3.1065-1.9199 4.3419 3.1968 4.9775 20.616l0.6667 18.27 5.3333-0.303c7.9109-0.4494 11.333-1.5295 11.333-3.5766 0-1.1108 1.9061-2.0512 4.8558-2.3956 3.8581-0.4504 4.9858-0.069 5.4888 1.8542 0.437 1.6711 1.9271 2.4391 4.8109 2.4795 2.2978 0.032 6.5779 0.9827 9.5112 2.1123 2.9333 1.1295 8.6118 2.6317 12.619 3.338 8.2459 1.4537 9.1262 1.9462 7.1 3.9724-1.0268 1.0268-4.5105 0.64-12.209-1.3556-13.987-3.6256-20.943-3.6634-23.152-0.1256-2.3056 3.692-6.3925 3.3329-9.7319-0.8551-2.6428-3.3145-3.1952-3.4511-9.3834-2.3212l-6.5752 1.2005-0.3588 30.478-0.3588 30.478 8.6167-0.5487c5.6239-0.3581 9.4897-1.3388 11.13-2.8236 3.5457-3.2089 3.9554-2.95 4.9861 3.1512 0.5509 3.2603 1.7951 5.7208 3.1172 6.1644 1.2103 0.406 6.4005 2.6996 11.534 5.0969 5.1334 2.3973 10.383 4.7045 11.667 5.1271s2.3333 1.3872 2.3333 2.1436c0 2.5514-6.0121 1.3993-11.242-2.1542-6.9477-4.721-16.275-7.49-19.47-5.78-3.8604 2.066-7.1689 1.5414-9.0253-1.4311-1.3661-2.1876-2.8372-2.6584-7.2905-2.3334-5.477 0.3998-5.599 0.5171-6.6612 6.4072-0.5987 3.3196-0.4219 18.283 0.3958 33.495 0.8128 15.122 1.0694 29.672 0.5702 32.333-1.0686 5.6963 0.408 6.1932 6.1833 2.0808 4.9241-3.5063 5.2468-6.9716 0.5391-5.79-1.8934 0.4752-3.3333 0.2598-3.3333-0.4987 0-1.6719 3.2298-2.9538 7.4424-2.9538 2.8073 0 3.2243-0.6148 3.2243-4.7543 0-2.6149 0.6211-5.9149 1.3802-7.3334 1.1457-2.1407 0.9376-2.579-1.2243-2.579-3.4705 0-6.8226-1.3506-6.8226-2.7489 0-2.6096 9.9521-2.8767 19.412-0.521 8.4852 2.1129 10.428 2.1962 15.119 0.6479 3.9453-1.3021 8.1543-1.4837 15.759-0.6799 5.7069 0.6032 13.27 0.995 16.806 0.8708 7.6014-0.267 11.57 1.512 11.57 5.1865 0 3.5878-3.5506 4.7313-6.4746 2.0851-2.2101-2.0002-2.5774-1.8761-5.2837 1.7843-1.5996 2.1636-2.9084 5.0847-2.9084 6.4912 0 1.4066-0.8563 3.2681-1.9028 4.1366-1.2483 1.036-1.662 3.0626-1.2029 5.8918 0.49 3.0197 0.046 4.8556-1.4824 6.1237-1.9879 1.6498-1.8548 2.1528 1.4955 5.6498 3.2305 3.3719 3.469 4.1732 1.9608 6.5882-1.4358 2.299-1.3745 3.1278 0.3741 5.0599 6.9725 7.7046-2.2988 12.4-25.242 12.784-28.734 0.4808-48.836 2.2054-49.623 4.2573-0.4021 1.0479-0.051 2.5849 0.7793 3.4156 0.8307 0.8307 1.5104 3.755 1.5104 6.4984s0.5718 5.3414 1.2707 5.7733 6.3527 1.4414 12.564 2.2432c9.8912 1.2768 13.416 1.0939 28.396-1.4735 9.4065-1.6123 18.903-3.5194 21.103-4.238 4.0009-1.3069 29.143-3.2733 58-4.5363l15.333-0.6712-0.1005-4.3094c-0.055-2.3702-1.4564-10.309-3.1135-17.643-3.8173-16.893-5.1752-62.281-2.852-95.333 0.8504-12.1 2.0831-35.8 2.7392-52.667 1.127-28.972 3.0066-49.991 4.718-52.76 1.1703-1.8936 4.6019-1.476 5.4214 0.6598 0.401 1.0447-0.2295 6.8947-1.4009 13-1.2306 6.4132-2.6659 24.894-3.3993 43.767-0.6981 17.967-1.9727 43.637-2.8325 57.046-0.8597 13.408-1.2471 36.208-0.8608 50.667 0.6461 24.18 1.0277 27.41 4.7603 40.288 3.7691 13.004 4.7518 18.444 4.3952 24.333-0.1883 3.1111-3.8407 2.9661-6.5942-0.2617-2.8525-3.3438-7.5519-3.6514-35.547-2.327-16.086 0.7611-26.538 1.99-36 4.2332-22.463 5.3248-40.262 8.692-45.59 8.6245-2.7923-0.035-10.177-1.1443-16.41-2.4641-9.8309-2.0817-11.339-2.7707-11.373-5.1979-0.022-1.539-0.4429-3.201-0.9352-3.6933s-0.5537-2.6022-0.1364-4.6887c0.4173-2.0864 0.3601-5.3817-0.1271-7.3229-0.8733-3.4795-1.0119-3.5186-9.8235-2.7694-28.046 2.3845-30.622 2.4636-33.314 1.0229-1.5641-0.8371-3.1182-0.974-3.5281-0.3108-0.403 0.652 0.5238 1.514 2.0595 1.9155 3.8136 0.9973 2.4716 4.1415-1.9924 4.6681-3.5152 0.4147-3.6044 0.6278-2.7906 6.6667 0.4623 3.431 1.6421 8.9383 2.6217 12.238 3.444 11.602 4.8007 23.464 4.1938 36.667-0.3372 7.3334-0.6674 13.419-0.7338 13.524-0.4861 0.7674-3.7505 1.3131-5.0791 0.8491zm-2.3751-81.706c-0.6451-1.0438-1.4121-1.1212-2.301-0.2324-0.7333 0.7334-0.8978 2.0379-0.3656 2.8991 0.6451 1.0437 1.4121 1.1212 2.301 0.2323 0.7333-0.7333 0.8978-2.0379 0.3656-2.899zm68.974-0.8515c2.7354-0.4522 4.6337-1.3719 4.2185-2.0437-0.4152-0.6719-0.071-2.0453 0.7641-3.052 1.5044-1.8126 1.6102-14.258 0.1402-16.485-0.4197-0.6357-2.863-1.4975-5.4297-1.9152-2.5667-0.4176-5.6751-1.1587-6.9077-1.6467-2.8779-1.1395-5.0743 6.153-5.0849 16.883-0.01 9.1922 1.3079 10.077 12.3 8.2596zm35.693-2.3867c9.9-0.067 18.75-0.6016 19.667-1.1874 3.3822-2.1615 1.7208-4.7423-3.3223-5.1606-6.9008-0.5724-7.6346-4.4166-1.0778-5.6466 8.9956-1.6876 4.6978-6.8971-7.08-8.5819-4.5536-0.6513-6.2813-1.5333-6.6387-3.3891-0.4385-2.277 0.1336-2.4269 6.1932-1.6231 5.2762 0.6999 7.1398 0.4221 8.8866-1.3247 3.013-3.0129 1.2556-4.2795-6.6157-4.7684-5.0779-0.3154-6.7597-0.9662-7.0978-2.7467-0.3786-1.9937 0.6271-2.3333 6.9093-2.3333 4.0439 0 7.7233-0.6 8.1765-1.3333 0.4999-0.8088-1.399-1.3334-4.8267-1.3334-7.5498 0-14.507-2.6177-14.507-5.4585 0-3.2075 2.1647-3.6433 12-2.4156 9.6053 1.1989 13.333 0.6062 13.333-2.1198 0-2.4033-12.3-3.9246-23.882-2.9536-5.3393 0.4477-11.858 0.038-16.476-1.0356l-7.6415-1.7763v7.1876c0 6.634 0.2678 7.2549 3.4768 8.0603 2.295 0.576 4.1344 2.4465 5.4115 5.5029 1.064 2.5466 1.6046 4.9601 1.2014 5.3634-0.4033 0.4033-0.087 1.5121 0.7033 2.4641 2.3071 2.7799 0.123 4.5145-5.6845 4.5145h-5.4008l0.7713 9c0.4242 4.95 0.79 10.414 0.8128 12.143 0.033 2.4921 0.5245 2.9286 2.3749 2.1087 1.2833-0.5687 10.433-1.089 20.333-1.1562zm-30.525-25.395c0.098-2.1742-2.1033-2.1838-4.8621-0.021-2.512 1.9692-2.4698 2.0341 1.0954 1.6846 2.0395-0.1999 3.7345-0.9485 3.7667-1.6635zm13.192-0.6531c0-1.6761-4.7322-4.2037-5.8247-3.1111-1.9823 1.9823-0.614 4.3975 2.4913 4.3975 1.8334 0 3.3334-0.5789 3.3334-1.2864zm-404.97-0.9215c-0.90271-0.3653-2.7027-0.3875-4-0.05-1.2973 0.3381-0.55871 0.6369 1.6413 0.6641 2.2 0.027 3.2614-0.2495 2.3587-0.6147zm-29.025-7.1254c2.8768-1.4667 6.0036-2.6667 6.9486-2.6667 2.2116 0 2.261 2.6391 0.0515 2.7512-0.91667 0.047-0.1833 0.6765 1.6297 1.4 2.3005 0.918 4.1944 0.8349 6.2688-0.2753 1.9778-1.0585 6.0052-1.3017 12.037-0.727l9.0646 0.8637-4.2259-3.673c-2.3242-2.0201-5.5758-4.616-7.2256-5.7686-3.6757-2.568-2.3986-5.2266 2.5302-5.2673l3.588-0.03-3.2676-2.5113c-2.829-2.1742-3.0242-2.8046-1.4544-4.6961 1.5642-1.8847 1.4178-2.4619-1.0657-4.2014-2.8324-1.9839-3.9776-5.8653-1.7306-5.8653 0.63164 0 0.8617-1.5 0.51123-3.3333-0.58311-3.0504-0.23447-3.3334 4.1062-3.3334 2.6089 0 5.1034-0.5824 5.5433-1.2942 1.2706-2.056-5.498-3.1193-13.048-2.0499-3.8102 0.5397-9.9277 1.1543-13.594 1.3657-3.6667 0.2115-7.2667 0.5319-8 0.7122-0.73333 0.1802-2.5333 0.3889-4 0.4636-1.7835 0.091-2.7166 1.1255-2.8174 3.1237-0.1184 2.3473 0.88192 3.2746 4.6667 4.3259 2.6495 0.736 6.4674 1.3415 8.484 1.3456 2.4632 0.01 3.6667 0.7049 3.6667 2.1325 0 1.7836-1.0717 1.9778-6.6667 1.2083-3.8313-0.527-6.6667-0.3955-6.6667 0.3091 0 1.6333 5.3799 6.4071 8.4442 7.4929 4.807 1.7032 1.5246 4.2144-4.9078 3.7546l-6.203-0.4433v7.8878c0 6.4491 0.64567 9.6655 1.9403 9.6655 0.0893 0 2.5163-1.2 5.393-2.6666zm430.14-0.395c-1.7114-1.7113-3.4468-0.3886-2.1798 1.6613 0.4908 0.7941 1.5031 1.0663 2.2497 0.6049 0.9106-0.5628 0.8876-1.3086-0.07-2.2662zm-391.42-7.5163c-0.48339-0.7822-1.5169-1.4221-2.2968-1.4221-0.88413 0-0.78297 0.7651 0.2687 2.0323 1.8287 2.2034 3.4631 1.7117 2.0281-0.6102zm363.28-100.77v-28.171l-3.4336-2.9855c-5.0924-4.4277-8.5071-13.05-8.5132-21.495-0.01-7.3069 1.854-21.138 5.7361-42.667 1.124-6.2334 1.9994-13.808 1.9453-16.833-0.1142-6.3954 0.8773-8.4982 4.0107-8.5052 1.2401 0 4.2848-1.2426 6.766-2.7553 6.8867-4.1984 3.8389-5.8097-7.6248-4.0311-5.1685 0.802-13.332 1.4581-18.142 1.4581h-8.7446v6.7705c0 3.7238-0.5794 13.774-1.2874 22.333-0.7081 8.5595-1.6023 31.163-1.9873 50.229-0.3849 19.067-1.213 40.367-1.8403 47.333-1.7094 18.985-0.9079 23.352 4.9548 26.998 6.1946 3.8523 23.869 5.4703 26.494 2.4254 1.2197-1.415 1.6667-9.4878 1.6667-30.105zm-271.06-129.14c0.15138-0.1513 0.42507-2.5001 0.60822-5.2194 0.38934-5.7814-0.75807-7.2298-6.2113-7.8406l-4-0.448 0.442 6.6365c0.2431 3.6501 0.75856 7.1487 1.1455 7.7747 0.56418 0.9129 6.9152 0.1973 8.0156-0.9032zm-3.6031-259.36c0-1.3854-1.2418-3.9354-2.7596-5.6667l-2.7596-3.1477 0.86679 3.9926c0.78857 3.6323 2.8846 7.3408 4.149 7.3408 0.27688 0 0.50342-1.1335 0.50342-2.519zm-6.6701-2.1568c-2.3129-6.0833-5.0208-10.631-7.86-13.201-1.7167-1.5536-2.8032-4.1621-2.8032-6.7302 0-3.9919-1.9629-7.3933-4.2667-7.3933-0.58667 0-1.0667 0.96997-1.0667 2.1555 0 1.4991-0.81211 1.9431-2.6667 1.4582-6.0777-1.5893-2.0636 7.9155 8 18.943 7.8204 8.5695 12.987 10.88 10.663 4.7674zm14.754-3.6364c1.851-6.8739 1.0668-22.638-1.1631-23.381-0.87321-0.29108-1.5876-1.8892-1.5876-3.5514 0-5.4084-13.268-20.756-17.944-20.756-0.9567 0-3.3545 2.1174-5.3285 4.7054-4.2367 5.5546-3.8023 10.527 1.3417 15.36 1.7953 1.6866 3.2642 4.4917 3.2642 6.2336 0 5.594 3.6145 10.591 9.3091 12.869 2.9763 1.1909 6.2257 2.1653 7.2208 2.1653 1.3556 0 1.6396 1.5045 1.133 6-0.87576 7.7698 1.6926 8.0123 3.7546 0.35449zm-62.993-400.92c10.098-1.9518 21.538-16.586 21.563-27.584 0.0196-8.5731-7.122-21.12-15.988-28.088-8.2435-6.4794-8.8002-6.57-22.625-3.6859-17.759 3.7049-24.23 9.4193-26.037 22.993-0.84854 6.3747-0.50293 7.9272 3.5038 15.739 6.2875 12.259 11.194 17.855 15.655 17.855 2 0 4.2063 0.5492 4.9029 1.2204 2.5518 2.4587 10.834 3.1337 19.024 1.5506zm-26.948-8.8801c-0.44513-1.16-0.80932-3.1678-0.80932-4.4618 0-1.294-0.97248-4.3022-2.1611-6.6848-1.732-3.472-1.9756-6.4577-1.227-15.039 1.1794-13.521 1.5376-14.372 6.0494-14.372 3.312 0 4.229 1.0943 8.5603 10.215l4.851 10.215 4.0858-3.8814c2.2472-2.1348 5.2623-6.169 6.7002-8.965 2.0014-3.8918 3.3013-4.9858 5.5446-4.6667 2.8564 0.40642 2.9182 0.80342 2.453 15.75-0.4098 13.167-0.86095 15.751-3.1938 18.292-3.4878 3.7989-4.9905 2.7891-5.0161-3.3709-0.0264-6.3471-1.7668-9.311-4.255-7.246-0.99658 0.8271-3.4764 2.1366-5.5106 2.91-3.6007 1.369-3.792 1.2032-7.2219-6.2562l-3.5232-7.6624-0.89216 4.2981c-0.49068 2.3639-0.34553 7.3055 0.32255 10.981 0.81477 4.4828 0.74151 7.5673-0.22252 9.3686-1.7267 3.2264-3.4339 3.4434-4.5341 0.57641zm288.12 1028.6c-1.9016-1.1043-2.0773-1.7955-0.8367-3.2903 2.5592-3.0837 6.8384-2.4062 6.3367 1.0032-0.5095 3.4626-2.2381 4.1815-5.5 2.2871zm-16.926-1.2284c-1.7311-1.1584-1.652-1.6037 0.5882-3.3129 3.291-2.511 4.2644-2.484 5.2735 0.1456 1.5663 4.0817-1.7872 5.8936-5.8617 3.1673zm-440.56-14.504c-1.3016-1.4383-2.0148-3.1843-1.5848-3.8802 0.43003-0.6957 0.20668-17.306-0.49631-36.912-1.3384-37.327-1.0016-40.657 4.1124-40.657 2.244 0 2.5223 0.5155 1.6198 3-1.3448 3.7018-1.3127 8.8103 0.24099 38.333 2.199 41.785 1.7554 46.357-3.8921 40.116zm-193.38-7.5782c-2.1993-2.1993-2.1283-7.3396 0.18481-13.367 0.59573-1.5525 0.0107-1.7857-2.7448-1.0941-3.2314 0.811-3.502 0.5508-3.502-3.3682 0-4.8921 6.1755-12.042 10.401-12.042 5.0692 0 6.1217 3.2286 3.912 12.001-2.1981 8.7259-1.3912 9.7947 4.1673 5.5198 2.7698-2.1302 2.9384-2.7537 1.4076-5.2049-1.3738-2.1998-1.4046-3.5189-0.14674-6.2796 0.8758-1.9222 1.5924-5.2455 1.5924-7.3852 0-4.4266 3.8694-7.2952 8.0504-5.9682 1.692 0.537 2.6235 0.2098 2.6367-0.9262 0.0411-3.5331 2.2524-5.3945 5.2706-4.4366 2.5614 0.813 2.84 1.5636 2.0814 5.6073-0.59134 3.1521-0.41512 4.3839 0.54252 3.7921 0.78011-0.4822 1.4184-1.5948 1.4184-2.4725 0-2.0838 7.5078-5.3876 10.037-4.4169 1.0794 0.4142 1.9718 2.4219 1.983 4.4616 0.0425 7.7278 2.0282 6.8813 7.1369-3.0426 3.7466-7.2781 5.807-9.9155 7.7461-9.9155 2.2827 0 2.5152 0.589 1.7103 4.3333-1.2944 6.0211-7.0074 21.05-9.3765 24.667-1.0964 1.6735-3.3228 3-5.0355 3-3.5148 0-8.8684-5.0825-8.8684-8.4193 0-2.905-1.6334-2.8449-5.3918 0.1985-2.6127 2.1157-2.987 3.5639-2.7721 10.726 0.13664 4.5538-0.124 8.8823-0.57917 9.6188-1.3864 2.2432-4.4451-1.3276-5.3727-6.2724-1.1344-6.0467-2.6875-6.7318-5.0514-2.2283-2.0676 3.9392-12.118 13.71-14.102 13.71-0.64857 0-2.0509 0.3345-3.1163 0.7433-1.0654 0.4088-2.964-0.2834-4.219-1.5384zm24.75-28.958c1.3245-4.9526-0.89088-4.5175-2.6469 0.5198-1.0713 3.0732-1.0387 3.9694 0.13027 3.5798 0.85763-0.2859 1.9902-2.1307 2.5167-4.0996zm43.822 7.6668c-1.8637-4.9018-1.5682-20.652 0.46113-24.58 2.1796-4.2187 9.0436-4.254 13.498-0.069l3.029 2.8455 2.1126-3.2242c2.4522-3.7425 8.8365-5.8644 10.337-3.4358 0.54524 0.8823-0.14038 3.4671-1.5236 5.744-3.5496 5.8432-5.409 10.39-4.5855 11.214 0.94671 0.9467 9.9116-9.2983 9.9818-11.407 0.0756-2.2703 3.5974-2.1168 4.4848 0.1955 1.2043 3.1383-6.6135 17.975-10.374 19.689-4.2722 1.9465-9.6414-0.2008-11.228-4.4907l-1.0955-2.9614-1.6951 3.2839c-2.3945 4.6389-8.2046 10.617-10.318 10.617-0.98095 0-2.3687-1.539-3.0839-3.4201zm8.033-18.18c0-3.1014-0.40029-3.8663-1.4658-2.8009-0.80617 0.8062-1.0657 2.7262-0.57681 4.2667 1.2731 4.0112 2.0426 3.459 2.0426-1.4658zm117.38-50.312c-2.2101-4.1296-1.7114-5.1145 4.4036-8.6981 7.8392-4.5941 13.338-4.378 8.6212 0.3388-1.2378 1.2377-1.0138 2.0442 1 3.6009 2.5492 1.9705 2.5395 2.0528-0.55271 4.6716-4.1456 3.5109-11.614 3.559-13.472 0.087zm770.95-15.532c-4.5396-3.5778-5.5495-5.8886-2.5734-5.8886 1.8446 0 10.24 6.9296 10.24 8.4523 0 1.8792-3.5249 0.7005-7.6667-2.5637zm73.672 1.6137c-2.4091-1.7616-2.3884-1.8678 0.546-2.7991 3.3337-1.0581 6.28 0.8726 4.8536 3.1806-1.1823 1.9128-2.3775 1.8283-5.3996-0.3815zm-105.05-30.917c-6.673-4.8953-7.4664-8.1422-1.4287-5.8466 4.2399 1.612 11.225 8.0526 10.32 9.5161-1.0671 1.7266-2.1389 1.2842-8.8914-3.6695zm-133.52-8.0138c-3.0572-3.0571-2.565-7.6652 1.196-11.199l3.2913-3.092 4.9169 4.7759c4.8279 4.6893 4.8764 4.8377 2.678 8.1929-2.6043 3.9746-8.7564 4.6477-12.082 1.3218zm7.2381-3.2381c0-0.7333-0.9-1.3333-2-1.3333s-2 0.6-2 1.3333c0 0.7334 0.9 1.3334 2 1.3334s2-0.6 2-1.3334zm-252-1.3333c0-0.7333 0.86459-1.3333 1.9213-1.3333s2.2921 0.6 2.7454 1.3333c0.45322 0.7333-0.41136 1.3333-1.9213 1.3333s-2.7454-0.6-2.7454-1.3333zm-15.913-2.5047c-1.6243-3.0351-0.12187-4.6035 3.1918-3.3319 2.4171 0.9276 2.2891 4.649-0.1882 5.4738-0.86702 0.2887-2.2186-0.6752-3.0036-2.1419zm-16.585-7.4258c-2.4867-3.7951-0.86615-5.5603 3.1376-3.4176 3.0392 1.6265 3.6804 6.6814 0.84757 6.6814-1.0156 0-2.809-1.4687-3.9852-3.2638zm380.5-9.1962c0-0.9863-1.2-2.8793-2.6667-4.2066-3.1053-2.8103-3.508-6-0.7575-6 2.2733 0 7.4242 6.8495 7.4242 9.8725 0 1.1701-0.9 2.1275-2 2.1275s-2-0.8071-2-1.7934zm-399.77-1.765c0.56522-2.9349 5.767-3.3333 5.767-0.4416 0 1.1-1.4034 2.1987-3.1186 2.4416-2.4184 0.3424-3.0131-0.1066-2.6484-2zm-12.631 0.049c-2.0996-2.0996-0.8534-4.6644 2.065-4.2499 1.65 0.2343 3 1.3178 3 2.4078 0 2.1183-3.5116 3.3955-5.065 1.8421zm-24.01-5.3432c-1.5112-1.5112 0.47461-3.1473 3.8202-3.1473 2.0041 0 3.2546 0.7684 3.2546 2 0 1.9956-5.3577 2.8645-7.0749 1.1473zm400.59-2.6094c-1.1567-1.328-1.3578-2.5575-0.5504-3.3648 1.7408-1.7409 8.751 1.0204 8.0437 3.1684-0.813 2.4687-5.4092 2.5892-7.4933 0.1964zm-67.176-1.4568c-3.0012-0.7844-4.4627-6.5165-2.3199-9.0984 2.3856-2.8745 8.867-2.4347 12.124 0.8228 2.0259 2.026 3.8348 2.5997 6.5093 2.0648 4.7086-0.9417 5.536-0.067 3.7153 3.9294-1.6618 3.6473-3.9606 4.0956-6.3343 1.2354-1.4366-1.731-2.0831-1.731-5.4304 0-3.9163 2.0252-4.3215 2.0765-8.2645 1.046zm5.6657-5.9052c0-0.7333-0.6-0.9625-1.3333-0.5093-0.7333 0.4533-1.3333 1.4241-1.3333 2.1574s0.6 0.9625 1.3333 0.5093 1.3333-1.424 1.3333-2.1574zm35.556 5.9352c-1.9795-1.9795-0.7029-4.4445 2.3018-4.4445 3.0614 0 5.4887 2.8761 3.8285 4.5363-1.0723 1.0724-5.0253 1.0132-6.1303-0.092zm-476.52-20.778c-3.2441-4.1926-2.9076-6.2962 1.5512-9.6972 3.3205-2.5326 5.3815-3.1939 7.9475-2.5499 4.162 1.0446 4.3885 3.7152 0.81234 9.5804-2.7838 4.5659-7.8314 5.8713-10.311 2.6667zm436.05-11.381c-0.8707-0.5537-2.2367-2.7255-3.0354-4.8262-1.1509-3.0272-1.0236-4.4736 0.614-6.9729 2.5611-3.9087 5.8937-4.0065 10.592-0.3109 2.8863 2.2704 3.4376 3.5435 2.7393 6.3259-0.4809 1.9159-1.4995 4.2368-2.2637 5.1575-1.5374 1.8525-6.1882 2.1895-8.6462 0.6266zm4.9166-7.7765c0-1.1-0.6-1.6292-1.3333-1.1759-0.7333 0.4532-1.3333 1.724-1.3333 2.824s0.6 1.6292 1.3333 1.176c0.7333-0.4533 1.3333-1.7241 1.3333-2.8241zm-668.49-93.94c-1.9322-1.5199-3.5132-3.3603-3.5132-4.0898 0-1.7276 5.3131-0.1011 8.3333 2.551 5.2383 4.5998 0.8516 6.0003-4.8202 1.5388zm-93.389-2.7969c-1.1684-1.6681-2.1244-3.7641-2.1244-4.6576 0-3.0571-2.5962-3.2178-17.256-1.0678-8.0713 1.1836-15.291 1.7718-16.043 1.3069-2.3434-1.4483-1.5162-4.781 2.4396-9.8293 4.631-5.91 7.0005-10.273 6.0792-11.194-0.37757-0.3776-2.9065-0.107-5.6198 0.6011-9.9441 2.5955-11.723 2.6633-13.506 0.515-5.7776-6.9616 19.363-11.316 27.301-4.729 1.7298 1.4356 1.4653 2.5713-2.0492 8.7986l-4.0353 7.1502 5.6781 0.015c3.1229 0.01 7.8123 0.3677 10.421 0.7993l4.7427 0.7847-0.74268-6.3269c-0.71736-6.1113-1.7946-7.5018-7.076-9.1338-2.8215-0.8718-3.2514-7.4713-0.48668-7.4713 1.0156 0 2.8295-1.5 4.0307-3.3334 3.3911-5.1754 9.624-4.0506 10.779 1.9451 0.793 4.1177 0.84686 4.1498 7.4033 4.4113 4.9756 0.1984 6.0529 0.8114 8.3915 4.775l2.683 4.5474 1.5336-5.1727c2.6564-8.9597 4.3905-11.173 8.7546-11.173 5.3575 0 6.1146 2.7157 2.8881 10.36-1.4642 3.4687-3.0812 9.2335-3.5934 12.811-1.2872 8.9893-1.9014 10.163-5.3194 10.163-3.4101 0-6.0724-2.6455-9.3925-9.3333-3.1849-6.4153-7.3104-10.667-10.351-10.667-2.3777 0-2.4793 0.6907-1.5202 10.333 1.4468 14.547 1.4048 16.669-0.34253 17.273-0.84826 0.2932-2.4983-0.8317-3.6667-2.4999zm952.59-5.0186c-2.3415-4.3752-1.5788-5.421 3.9531-5.421 5.9201 0 6.9716 2.104 2.8951 5.7933-3.1976 2.8938-5.1572 2.7872-6.8482-0.3723zm39.258-5.4525c-3.6949-4.0828-0.9427-5.3245 6.6952-3.0206 3.6667 1.1061 7.4547 2.241 8.4179 2.5221 3.8212 1.1153-0.2742 3.1966-6.2899 3.1966-4.7129 0-7.0199-0.7054-8.8232-2.6981zm61.354-1.31c-3.5885-3.9653-1.4798-4.7505 6.952-2.5887 9.8588 2.5275 10.919 5.2635 2.0398 5.2635-4.8846 0-7.1924-0.6866-8.9918-2.6748zm-135.06-1.5919c-1.8754-1.8754-2.0361-4.9803-0.392-7.5762 0.992-1.5662 1.7897-1.5674 5.313-0.01 4.8982 2.1682 5.2464 4.2619 1.1823 7.1085-3.5626 2.4953-4.0459 2.533-6.1033 0.4756zm-865.93-6.6195c-3.9551-4.4394-4.4727-6.4411-2.2424-8.6714 0.78336-0.7834 1.2334-3.7534 1-6.6-0.3584-4.372-0.94193-5.245-3.7576-5.622-4.6381-0.6209-6.0962-2.3613-4.0469-4.8306 3.4881-4.2029 18.73-1.716 24.025 3.92 3.0903 3.2895 3.0957 3.3527 0.73149 8.5955-1.3099 2.9049-3.8054 6.6192-5.5455 8.2539-1.7401 1.6348-3.1638 4.3677-3.1638 6.0732 0 4.2282-2.6078 3.8115-7-1.1186zm9.6667-17.944c0-2.2812-0.74773-3.1701-2.6667-3.1701-2.7352 0-3.4899 2.97-1.8443 7.2583 1.1757 3.0639 4.511 0.041 4.511-4.0882zm22.435 12.49c-6.1725-3.7714-10.119-8.7768-10.862-13.775-0.45644-3.0718 0.42161-4.9312 4.1958-8.8848 5.1056-5.3484 10.585-6.5909 13.512-3.064 2.9658 3.5736 1.1006 6.7307-3.9763 6.7307-4.1872 0-4.6756 0.39228-5.0333 4.0419-0.55029 5.6157 4.8639 10.625 11.484 10.625 3.7077 0 4.9876 0.5991 5.3564 2.5069 1.0439 5.4011-7.152 6.4172-14.677 1.8196zm581.1-6.0048c-3.5949-5.8166-5.2513-99.799-2.2147-125.66 0.8182-6.9667 2.0272-25.267 2.6866-40.667 1.398-32.649 5.8731-58.779 14.663-85.617 2.9332-8.9559 5.3331-17.759 5.3331-19.562s2.7534-7.3758 6.1186-12.383c9.3962-13.982 16.548-30.074 16.548-37.234 0-1.6752 0.6809-3.4668 1.5132-3.9811 1.094-0.67614 1.2627 0.87174 0.609 5.588-0.8568 6.1808-9.471 25.106-18.141 39.857-2.1553 3.6667-3.9327 7.6402-3.9499 8.8301-0.017 1.1899-2.3646 9.5899-5.2167 18.667-8.799 28.003-13.24 52.865-14.262 79.837-0.3472 9.1667-1.4733 28.067-2.5025 42-2.5813 34.945-2.6216 87.353-0.086 111.41 1.1165 10.592 2.0313 19.408 2.0328 19.591 0.01 0.7963-2.5647 0.2395-3.1319-0.6783zm114.54-16.655c-0.511-2.3833-1.2041-24.369-1.5403-48.858-0.597-43.484 0.078-53.476 3.6147-53.476 2.0218 0 3.0729 4.1684 1.3237 5.2495-1.1921 0.73676-1.4888 13.459-1.1943 51.199 0.2156 27.62 0.017 50.219-0.4413 50.218-0.4584-2e-4 -1.2515-1.9504-1.7625-4.3337zm-4.0709-104.75c-10.546-3.6997-18.481-10.474-23.364-19.947-2.4524-4.7577-2.7905-6.9542-2.0523-13.333 1.191-10.292 7.4114-22.731 14.749-29.495 3.3-3.0419 6.0001-6.3958 6.0001-7.4532 0-5.0772-6.2827-17.595-14.173-28.238-10.437-14.079-10.639-14.55-13.249-30.922-1.1279-7.0745-2.9995-18.263-4.1591-24.863-2.4902-14.173-2.926-46.692-0.6562-48.962 1.1084-1.1084 1.3035 2.4626 0.75 13.732-0.583 11.872-0.1129 19.346 2.1321 33.897 1.584 10.267 3.3635 21.967 3.9543 26 1.7511 11.953 3.8214 17.651 8.7193 24 11.992 15.544 16.752 24.445 18.715 35 0.7497 4.0299 0.5286 5-1.1395 5-1.1383 0-2.4174 0.56256-2.8423 1.2501-0.4331 0.70076 1.5236 1.2185 4.4526 1.178 9.9986-0.13799 17.294 7.696 22.188 23.825 4.0521 13.355 1.2363 32.881-5.3655 37.207-3.6195 2.3716-10.933 3.4309-14.66 2.1234zm11.423-2.9653c4.4069-2.3585 6.9062-10.341 7.0816-22.619 0.1409-9.8611-0.3152-12.305-3.5107-18.812-7.0186-14.292-13.103-18.015-22.509-13.773-7.9863 3.6013-13.329 15.251-6.9945 15.251 1.1 0 1.6292 0.6 1.176 1.3333s-2.2244 1.3333-3.936 1.3333-3.4762 0.94907-3.9213 2.1091c-1.267 3.3016-0.9501 12.014 0.5836 16.048 1.8472 4.8586 14.175 16.385 18.508 17.305 1.8881 0.40068 4.6329 1.2451 6.0995 1.8765 3.6138 1.5557 4.4283 1.5499 7.4232-0.0529zm-12.679-11.652c-0.4091-0.40913-0.6743-2.2939-0.5892-4.1883 0.1015-2.2594 0.3645-2.6417 0.7644-1.1111 0.3354 1.2833 1.2053 2.3333 1.933 2.3333 1.1585 0 6.3173-2.3207 7.6154-3.4258 0.2571-0.2189-1.9929-2.9585-5-6.088-5.225-5.4376-6.1142-7.3429-5.5163-11.819 0.4186-3.1338 8.2906-10.667 11.147-10.667 2.1083 0 1.5778 1.0818-2.9283 5.9702-3.0267 3.2836-5.5031 6.4726-5.5031 7.0867 0 0.61405 2.993 4.0774 6.6512 7.6965 7.8408 7.7569 8.3683 10.53 2.3488 12.35-7.03 2.1251-10.132 2.6541-10.923 1.863zm-385.32-193.06c-2.7221-2.7221-2.6431-3.6623 0.55046-6.5524 3.4241-3.0988 8.0259-10.903 7.0213-11.908-1.7396-1.7396-4.3337-0.60911-4.3337 1.8885 0 1.4667-0.48454 2.6667-1.0767 2.6667-0.99912 0-5.5899-9.1281-5.5899-11.115 0-1.7926 7.5028-0.74987 13.199 1.8343 6.2346 2.8287 8.2255 2.6028 5.5434-0.62901-2.9784-3.5887-0.336-4.6843 6.0499-2.5084 7.6329 2.6008 9.7783 6.479 7.3298 13.25-2.127 5.882-1.24 6.9201 2.4972 2.9225 1.933-2.0677 2.6748-4.1896 2.245-6.4215-0.38191-1.983 0.43741-5.0888 2.0225-7.6667 3.1539-5.1294 8.6476-5.865 12.447-1.6667 1.3288 1.4683 4.1066 2.6667 6.1812 2.6667 2.9072 0 3.9591 0.76151 4.6046 3.3333 1.2139 4.8367 2.8656 4.1221 6.1639-2.6667 3.1482-6.48 4.2882-7.2425 5.6239-3.7618 0.96125 2.505-8.2674 21.933-10.805 22.747-0.86084 0.27624-3.1678-2.2325-5.1267-5.575s-3.9545-6.0542-4.4348-6.0259c-0.48032 0.0283-2.097 1.9782-3.5927 4.3333-2.0993 3.3055-3.6195 4.259-6.6667 4.181-2.171-0.0555-4.8473 0.89415-5.9473 2.1104-1.1 1.2162-3.6723 3.2953-5.7162 4.6201-3.6408 2.3599-3.7814 2.3476-6.9214-0.60229l-3.2052-3.0111-3.5917 2.8253c-4.2406 3.3356-11.498 3.7018-14.47 0.73001zm14.485-6.6754c3.5151-3.5151 4.6736-6.5441 3.3024-8.6345-1.0595-1.6153-1.5302-1.4954-2.9009 0.73851-5.018 8.1786-5.2503 12.745-0.40156 7.896zm8.7063-4.475c2.1797-4.0728 1.7358-8.353-0.81427-7.8521-1.5382 0.30216-2.236 1.9267-2.3333 5.4319-0.15261 5.4975 1.0187 6.3981 3.1476 2.4202zm20.047-8.245c0-0.73334-0.6-0.96252-1.3333-0.5093-0.73333 0.45323-1.3333 1.424-1.3333 2.1574 0 0.73333 0.6 0.96252 1.3333 0.50929s1.3333-1.424 1.3333-2.1574zm301.11-1.179c-0.2435-5.135 0.01-9.335 0.5573-9.3333 0.55 1e-3 1 4.203 1 9.3363 0 5.1333-0.2508 9.3333-0.5573 9.3333s-0.7565-4.2014-1-9.3363zm-21.004-15.441c0.064-1.5533 0.3799-1.8692 0.8055-0.80556 0.3852 0.96249 0.3378 2.1125-0.1052 2.5556-0.443 0.44305-0.7582-0.34446-0.7003-1.75zm18.216-2.3313c-0.5434-1.3433-0.9499-4.0433-0.9034-6l0.084-3.5576 1.306 3.2709c0.7184 1.799 1.1249 4.499 0.9035 6-0.3737 2.533-0.4736 2.5536-1.3906 0.28674zm-18.012-8.891c0-2.5667 0.2744-3.6167 0.6098-2.3333 0.3354 1.2833 0.3354 3.3833 0 4.6667-0.3354 1.2833-0.6098 0.23334-0.6098-2.3333zm16.58-6.2222c-0.4889-0.48888-0.8889-9.2889-0.8889-19.556 0-10.267 0.2894-18.377 0.6432-18.023 0.5045 0.50453 1.7459 38.468 1.2579 38.468-0.068 0-0.5233-0.4-1.0122-0.8889zm-17.324-27.778c-1.4874-28.101-2.574-68.023-1.8327-67.331 0.9369 0.87444 4.1036 79.172 3.2972 81.527-0.3397 0.99231-0.9987-5.3958-1.4645-14.196zm16.695-53.333c0.027-2.2 0.326-2.9386 0.6641-1.6413 0.338 1.2973 0.3158 3.0973-0.05 4-0.3652 0.9027-0.6418-0.15871-0.6146-2.3587zm-19.391-19.006c-0.9168-1.4835-1.0516-99.621-0.1356-98.705 0.7945 0.79445 1.9718 99.711 1.1868 99.711-0.2363 0-0.7094-0.45251-1.0512-1.0056zm19.236-2.4388c0.064-1.5533 0.3799-1.8692 0.8055-0.80556 0.3852 0.96249 0.3378 2.1125-0.1052 2.5556s-0.7582-0.34445-0.7003-1.75zm-19.216-100.22c-0.331-0.55-0.1354-3.4 0.4346-6.3333l1.0364-5.3333 0.1533 6.3333c0.1464 6.0458-0.3046 7.5265-1.6243 5.3333zm0.599-30.667c-0.085-8.25 0.3231-15 0.907-15s0.8515 5.85 0.5948 13c-0.6667 18.569-1.3219 19.442-1.5018 2zm0.8134-23.333c0.8465-10.277 1.4737-10.802 1.5933-1.3333 0.058 4.5833-0.4066 8.3333-1.0323 8.3333s-0.8781-3.15-0.561-7zm0.951-20.555c0.06-7.5281 0.5735-10.386 1.95-10.845 1.4571-0.4858 1.6775 0.33463 1 3.7221-0.478 2.3899-0.8691 7.2702-0.8691 10.845 0 3.575-0.4864 6.5-1.0809 6.5-0.5946 0-1.0446-4.5999-1-10.222zm-7.5453-16.146c-2.7278-1.2641-8.7298-5.9264-13.338-10.361-6.6536-6.4027-8.8575-9.583-10.707-15.451-4.1587-13.193-3.1797-15.99 9.1772-26.219 14.753-12.213 23.161-13.703 37.382-6.6253 11.93 5.9373 19.68 14.46 21.812 23.985 2.7448 12.265 0.994 18.852-7.1855 27.032-6.6411 6.641-7.3599 6.9934-17.276 8.4683-13.179 1.9602-13.911 1.9296-19.864-0.82937zm26.692-4.8384c9.4665-4.9254 14.2-14.918 12.911-27.256-0.7558-7.2364-1.5892-9.243-5.7536-13.853-5.4772-6.0626-14.185-10.352-21.015-10.352-6.9649 0-16.102 4.9945-22.296 12.188-3.0681 3.5627-6.255 6.478-7.0818 6.4784-3.7218 1e-3 -4.4439 3.4854-2.2912 11.053 1.7706 6.2239 3.588 8.914 10.519 15.569l8.3784 8.0453h11.515c7.2922 0 12.835-0.687 15.115-1.8733zm-28.818-11.828c-1.5056-1.8141-4.2428-24.526-3.0943-25.675 0.8663-0.86634 6.9124-0.74871 10.464 0.20358 1.6233 0.4352 3.7197 2.527 4.6588 4.6485 2.3877 5.3943 4.8735 4.8035 5.8645-1.3938 0.9779-6.1156 2.4938-7.0462 7.8867-4.8418 3.5631 1.4564 3.9436 2.2179 4.0886 8.1827 0.088 3.6173 0.604 9.7268 1.1467 13.577 0.6968 4.9429 0.5382 7-0.5397 7-1.902 0-5.3904-8.1187-5.3904-12.545 0-1.8136-0.6-3.6683-1.3334-4.1215-0.7333-0.45322-1.3333-0.23149-1.3333 0.49274 0 0.72424-0.9483 2.265-2.1073 3.424-1.9208 1.9208-2.4416 1.9097-5.8863-0.1252-2.0786-1.2278-4.459-3.7245-5.2899-5.5482-2.3256-5.1041-4.1118-1.8709-4.7144 8.5335-0.5373 9.2771-1.7118 11.453-4.4208 8.1884z" stroke-width="1.3333"/>
</svg>
