<?xml version="1.0" encoding="UTF-8"?>
<svg width="1658.7" height="1662.5" version="1.1" viewBox="0 0 1658.6667 1662.5131" xmlns="http://www.w3.org/2000/svg">
 <path d="m708.71 1631.2c-4.3407-1.7324-12.04-7.6482-12.04-9.2511 0-2.5112 4.9652-1.1847 10.096 2.6975 2.8806 2.1796 6.2875 3.9796 7.5708 4 1.2833 0.02 2.3333 0.937 2.3333 2.037 0 2.2602-3.0891 2.4606-7.9602 0.5166zm-40.04-21.656c-3.3733-2.4772-7.5662-7.2857-9.5776-10.984-1.9676-3.6176-5.4027-7.9268-7.6334-9.576-2.488-1.8395-5.9184-6.9872-8.8741-13.317-5.2158-11.169-11.595-29.749-10.567-30.777 1.6536-1.6536 6.1601 4.9747 8.803 12.948 1.6126 4.8648 4.2304 10.945 5.8174 13.512 1.587 2.5667 4.1993 7.4185 5.8052 10.782 1.6058 3.3633 4.3741 6.8934 6.1518 7.8449 1.7776 0.9513 3.8989 3.2995 4.714 5.2181 1.8999 4.4726 6.2116 9.3606 11.694 13.257 2.3833 1.6938 4.3333 3.6388 4.3333 4.3222 0 2.5184-4.8312 1.0556-10.667-3.2297zm-312.44-24.417c-1.9502-1.9501-0.59774-2.7741 5.7969-3.5314 8.0799-0.957 17.564-5.5508 28.272-13.694 7.5746-5.7605 12.559-6.9837 10.906-2.6765-1.2376 3.2252-13.973 12.061-21.863 15.169-11.089 4.3675-21.371 6.4735-23.111 4.7333zm74.441-34.165c-3.6687-1.6206-7.4187-3.4319-8.3333-4.0251-2.2568-1.464-2.106-5.7993 0.23296-6.6969 1.0427-0.4 3.5442-3.6143 5.5589-7.1426 5.2881-9.261 7.1642-11.082 11.419-11.082 4.5723 0 4.8694 2.2825 0.77541 5.9576-3.8303 3.4382-10.315 13.401-10.315 15.847 0 1.1304 3.6771 3.0438 9.3641 4.8723 5.1503 1.656 9.6857 3.5313 10.079 4.1672 1.4566 2.3568-12.294 0.9676-18.78-1.8973zm6.0296-9.9464c0.0141-0.55 4.8926-3.5916 10.841-6.7592 7.5711-4.0318 11.236-5.3382 12.219-4.3556 1.6932 1.6933 2.1713 1.2685-8.1567 7.2484-7.686 4.4502-14.967 6.339-14.903 3.8664zm183.53-17.222c-0.48889-0.4888-0.88889-2.0305-0.88889-3.426 0-3.8052 5.8695-2.6041 6.4261 1.3149 0.31378 2.2094-0.24261 3-2.1111 3-1.3955 0-2.9372-0.4-3.4261-0.8889zm-9.6638-26.306c-2.7582-6.0246-3.0451-7.7414-1.7637-10.554 0.84165-1.8474 2.609-3.6408 3.9274-3.9855 2.0728-0.5421 2.4756 0.48 2.9767 7.5536 0.31874 4.4993 1.0369 9.5305 1.5958 11.18 0.786 2.3202 0.51112 3-1.213 3-1.4011 0-3.453-2.6729-5.5233-7.195zm-123.88 4.5406c-0.94988-1.5369 8.1862-6.2628 9.523-4.9261 1.3531 1.3532-3.6021 6.2472-6.3253 6.2472-1.3097 0-2.7487-0.5944-3.1978-1.3211zm226.8-2.885c-2.3472-3.3511-1.518-5.4468 4.3082-10.89 11.547-10.787 11.03-10.444 13.114-8.7149 1.6619 1.3792 4.1168-0.5608 15.158-11.979l13.175-13.624-7.4462-3.293c-4.0954-1.8112-8.0569-3.2931-8.8033-3.2931-0.74644 0-6.2218-2.0349-12.167-4.5221-6.9282-2.8982-15.088-5.0832-22.722-6.0844-6.5516-0.8592-12.893-2.0874-14.092-2.7292-1.1992-0.6419-8.7388-1.8734-16.755-2.7367-8.0158-0.8635-17.574-2.6981-21.241-4.0772-8.7563-3.2932-38.913-6.6301-40.68-4.5013-0.69275 0.8346-1.9737 4.7726-2.8467 8.7509-1.9135 8.7211-3.0081 10.223-5.7762 7.9255-2.5055-2.0794-1.6515-8.617 2.1792-16.684 2.3816-5.0152 2.3955-5.4222 0.23786-7-2.6821-1.9612-4.4163-2.0764-6.9644-0.4626-1.1295 0.7152-3.4558 0.4962-5.9738-0.5626-3.4686-1.4584-4.7325-1.4193-7.9534 0.2463-11.963 6.1865-20.912 6.2109-20.869 0.057 0.0283-4.0954 1.4677-5.9838 6.7536-8.8602 4.8426-2.6351 5.0894-3.6724 2.4412-10.261-3.3394-8.3086 2.3222-15.014 16.785-19.88 8.435-2.8379 11.681-6.1019 10.55-10.608-0.46498-1.8527-1.2857-3.6405-1.8238-3.9731-1.6041-0.9914-14.679 4.4692-20.823 8.6968-8.3174 5.7224-9.5138 5.2952-10.456-3.7336-1.0042-9.6201-0.99893-22.74 0.0133-32.567l0.77916-7.567-6.049-0.9071c-4.9552-0.7431-6.762-0.3995-9.9918 1.9004-6.4686 4.6054-13.531 3.1306-13.531-2.8259 0-1.3664-1.4569-2.9869-3.3233-3.6965-4.5255-1.7206-30.4-8.7249-46.677-12.636-7.3333-1.7619-39.733-9.9063-72-18.098s-67.235-16.842-77.707-19.221c-13.861-3.1491-19.911-5.1442-22.243-7.3344-2.5967-2.4395-5.3609-3.1765-14.612-3.8958-9.7454-0.7577-13.047-0.4233-22.636 2.2932-10.771 3.0512-11.261 3.3584-12.05 7.5668-0.4526 2.4126-2.2246 6.452-3.9377 8.9764-2.7218 4.0108-2.8561 4.7531-1.0643 5.8833 4.2013 2.6501 0.31462 4.3097-8.7797 3.7488-4.9339-0.3042-9.4206-0.5683-9.9706-0.5868-1.676-0.056-1.0344-4.5427 1.0424-7.2884 4.9176-6.5017 0.15589-5.6754-12.186 2.1146-9.5917 6.0539-12.279 6.3272-16.624 1.6906-2.7743-2.9607-3.2037-4.6392-3.03-11.843 0.24685-10.236 2.0408-14.041 6.6205-14.041 1.8677 0 7.6966-1.4313 12.953-3.1806 5.2565-1.7493 12.557-3.9448 16.224-4.8788 3.6667-0.934 6.919-1.9051 7.2275-2.158 0.30845-0.2529-0.84615-1.9574-2.5658-3.7879-3.975-4.2312-8.0168-4.2294-11.995 0.01-3.4108 3.6305-6.5662 4.2338-9.0667 1.7333-2.4211-2.4211-1.9416-4.8463 1.6727-8.4606 2.1659-2.166 4.7761-3.2728 7.7181-3.2728 5.35 0 13.924 4.1417 16.66 8.048 2.4935 3.5599 3.9784 3.2134 24.763-5.7787 16.831-7.2817 17.388-8.4818 4.0827-8.8031-5.9085-0.1427-8.9983-2.5385-8.2565-6.4022 0.35136-1.8298 1.8767-2.4628 6.4434-2.6738 3.2907-0.1521 7.1831 0.2751 8.6498 0.9493 3.8711 1.7794 17.969 4.4301 22.897 4.305 2.3268-0.059 5.6268-0.8688 7.3333-1.7994l3.1028-1.6922-4-0.9764c-12.429-3.0339-19.38-4.0291-25.333-3.6269-5.9542 0.4022-6.7099 0.1471-7.0714-2.3871-0.74509-5.2232 5.286-5.1479 26.882 0.3359l19.849 5.0402 4.8372-2.7207c2.6604-1.4963 7.6872-3.4955 11.171-4.4425 3.4833-0.9471 6.3333-2.1446 6.3333-2.6611 0-0.5166-5.579-2.5867-12.398-4.6004-9.7928-2.8919-13.587-4.7594-18.058-8.8876-6.353-5.8661-6.8776-6.1027-6.8776-3.1015 0 1.1687-1.1966 2.4377-2.6592 2.8202-1.6675 0.4361-3.2379 2.627-4.211 5.8752-0.88855 2.9657-2.39 5.1798-3.5126 5.1798-1.5819 0-1.7898-1.2881-1.0764-6.6667 0.56691-4.2735 0.38924-6.6667-0.49489-6.6667-0.75859 0-1.3793-0.9-1.3793-2 0-1.8938 2.9239-2.6199 8.3333-2.0697 1.3421 0.1365 2.3333-0.6619 2.3333-1.8794 0-3.7284 6.3914-4.9129 21.273-3.9423 8.668 0.5653 16.568 1.8945 20.599 3.4658 8.2239 3.2056 23.35 6.4256 30.184 6.4256 7.2555 0 21.067-5.4808 26.418-10.484 3.0585-2.8595 8.1018-5.2897 15.936-7.6793 17.633-5.3786 22.641-7.8433 23.183-11.411 0.30288-1.9935 1.1692-2.8801 2.4382-2.4949 1.0826 0.3285 4.286 0.4872 7.1188 0.3527 4.5338-0.2154 5.0676 0.072 4.4585 2.4013-0.38056 1.4552-0.17447 2.9657 0.458 3.3566 0.63245 0.3909 0.84883 1.4954 0.48081 2.4544-0.36801 0.959 0.25819 2.5133 1.3916 3.4539 1.1334 0.9406 2.0607 2.1544 2.0607 2.6972 0 0.9668-7.611 4.851-25.72 13.126-15.165 6.9296-35.937 19.103-34.703 20.337 0.63544 0.6355 4.5962 1.3563 8.8017 1.6018 4.2055 0.2455 8.3608 1.1608 9.234 2.034 0.87321 0.8732 2.2642 1.5877 3.0911 1.5877s5.2026 1.5031 9.7239 3.3402c4.5212 1.8372 16.349 5.117 26.285 7.2886 9.9354 2.1715 18.507 4.2216 19.047 4.5557 0.54053 0.334 6.0441 1.3004 12.23 2.1473 6.186 0.847 20.869 4.518 32.629 8.1578 27.595 8.5408 61.101 18.475 62.382 18.495 0.55 0.01 1-2.9843 1-6.651 0-4.7737 0.52154-6.6667 1.8367-6.6667 3.2297 0 5.0397 3.6858 4.5953 9.3573l-0.43201 5.513 16.738 6.2315c9.2061 3.4274 18.335 7.2816 20.286 8.5649 1.9515 1.2833 4.441 2.3333 5.5323 2.3333 2.0139 0 2.7662-0.2608 15.013-5.2042 8.0564-3.252 11.097-2.5958 11.097 2.3949 0 2.6212-1.4842 4.7127-5.5757 7.8573-3.0667 2.357-6.2932 4.2854-7.1701 4.2854-3.6616 0-4.7477 3.5736-2.5115 8.2631 3.2174 6.7469 0.81262 14.198-7.1491 22.15-3.4432 3.4393-7.3481 6.8532-8.6775 7.5866-1.9571 1.0795-2.6712 4.0872-3.7523 15.803-0.73435 7.9584-1.0393 14.766-0.67768 15.127s5.9502 1.1343 12.419 1.7172c6.4688 0.5828 14.888 1.7702 18.71 2.6387 6.7643 1.5371 7.1001 1.4703 12.667-2.5208 3.145-2.2549 7.9523-5.9917 10.683-8.3041 8.1923-6.9375 22.195-5.6123 18.267 1.7286-0.68704 1.2838-4.9448 5.1779-9.4618 8.6536-9.7165 7.4766-10.893 6.5025 15.858 13.136 19.798 4.9092 37.26 10.301 49.706 15.349 4.0333 1.6357 11.058 3.7694 15.611 4.7414 4.5525 0.9722 9.9525 3.0006 12 4.5079 4.3716 3.218 17.655 8.0889 22.059 8.0889 1.6885 0 7.2535-3.0517 12.367-6.7817 5.1132-3.7299 16.797-10.537 25.963-15.126 9.1667-4.5896 21.319-10.838 27.004-13.885 5.6856-3.0472 11.254-5.5403 12.375-5.5403 2.9353 0 4.1134 4.0985 1.6879 5.872-1.299 0.9499-1.8365 2.9259-1.489 5.4739 0.776 5.69-8.9856 19.321-13.836 19.321-3.1371 0-12.558 4.358-20.408 9.4412-14.309 9.2644-17.269 11.325-17.299 12.044-0.0189 0.4504 2.6183 1.832 5.8606 3.0703 8.8705 3.3876 9.793 5.2185 4.8896 9.7047-3.735 3.4172-4.163 4.6905-4.9635 14.769-0.85127 10.717-0.99323 11.082-5.0152 12.894-7.9618 3.5861-9.4877 3.6058-12.483 0.1612-1.9219-2.2103-4.0386-3.1778-6.5334-2.986-3.0504 0.2345-3.8622 1.0888-4.6808 4.9257-0.54472 2.5532-0.66748 5.7209-0.27281 7.0395 1.9181 6.4081-8.6974 8.7482-13.453 2.9656-2.0281-2.4663-4.7446-3.6148-10.717-4.5308-5.2435-0.8042-8.5692-0.7623-9.6521 0.1213-0.90862 0.7417-3.7013 0.9641-6.206 0.4943-4.9588-0.9304-2.4861-2.525-36.497 23.537-17.787 13.63-29.831 17.674-34.172 11.476zm8.2777-5.0439c0.33333-1-0.16667-1.5-1.1667-1.1667-0.96249 0.3208-2.0125 1.3708-2.3333 2.3334-0.33334 1 0.16666 1.5 1.1667 1.1666 0.9625-0.3208 2.0125-1.3708 2.3333-2.3333zm15.962-6.4167c1.9899-1.2833 8.89-6.3474 15.334-11.254 6.4435-4.9061 13.794-10.205 16.335-11.775 5.4971-3.3975 5.7789-4.7243 1.2451-5.8622-4.526-1.136-12.524 4.432-27.959 19.466-11.247 10.955-13.259 14.781-4.9548 9.4256zm76.288-24.306c0-0.7184-2.345-2.5026-5.211-3.9647-6.1941-3.16-16.122-5.0333-16.122-3.0421 0 1.634 3.1426 2.9666 7.1091 3.0146 1.59 0.019 5.2909 1.1707 8.2243 2.5588 2.9333 1.388 5.4833 2.5723 5.6667 2.6318 0.18334 0.059 0.33334-0.48 0.33334-1.1984zm6.2209-11.362c2.2495-8.6782 2.3794-8.093-2.2196-9.9979-3.7557-1.5556-4.4465-1.3181-11.369 3.9083-7.114 5.371-8.2739 8.0301-3.5539 8.147 1.24 0.031 4.3546 1.2135 6.9213 2.6282 6.6243 3.6512 8.2535 2.9044 10.221-4.6856zm-31.928 0.5192c6.4688-3.6136 16.427-10.893 19.409-14.188 2.2105-2.4426 2.1951-2.6771-0.32584-4.9586-2.5754-2.3306-2.9586-2.1705-14.344 5.997-15.774 11.315-18.154 13.519-16.046 14.857 2.7627 1.7538 5.9802 1.2679 11.307-1.7078zm58.495-3.1819c1.629-2.4861 1.9548-4.8492 1.2846-9.3181-0.77356-5.1586-0.42543-6.6067 2.5149-10.462 4.2876-5.6214 4.2862-7.2899-8e-3 -8.9224-6.9799-2.6538-13.732-0.5856-10.064 3.0825 1.8812 1.8812 1.908 13.369 0.0469 20.072-0.78212 2.8167-1.0976 5.9667-0.70108 7 1.1235 2.9278 4.5229 2.2151 6.9257-1.4521zm-63.551-11.336c5.9075-4.0334 10.556-7.904 10.33-8.6015-0.55462-1.7101-23.493-8.5277-58.233-17.308-31.944-8.0736-38.744-9.4172-58-11.46-15.856-1.6816-25.397-4.1621-35.333-9.1852-7.9602-4.0242-16.746-7.032-27.587-9.4448-5.8685-1.306-8.149-1.1756-15 0.8583-4.4436 1.3191-8.0793 3.0608-8.0793 3.8704s-1.5 2.8813-3.3333 4.6036c-7.017 6.5921-2.6961 8.9299 5.9409 3.2141 3.5334-2.3382 7.1141-3.481 11.095-3.5413 10.557-0.1596 11.812 3.1807 3.6303 9.6605-2.9333 2.3232-5.3295 4.6236-5.3249 5.112 0.0149 1.5663 8.5051 6.1079 13.325 7.1278 2.5667 0.5432 10.742 1.8861 18.166 2.9845 7.4248 1.0984 15.825 2.8715 18.667 3.9403 4.4707 1.6813 16.95 3.6568 23.167 3.6673 1.1 0 5.9 0.8231 10.667 1.8249 4.7667 1.0019 13.467 2.5391 19.333 3.4159 5.8667 0.8769 13.967 2.9767 18 4.6664 4.0333 1.6896 14.833 6.0489 24 9.6873 19.063 7.5667 15.192 8.137 34.57-5.093zm50.764 6.7453c0-2.1567 0.6244-4.3072 1.3876-4.7788 0.76316-0.4717 1.0479-1.9279 0.63271-3.236-0.41518-1.308-0.19242-3.8576 0.49501-5.6657 0.68743-1.808 0.74763-4.1 0.13377-5.0934-0.88526-1.4322-2.2518-1.0188-6.6076 1.9999-7.3718 5.1087-7.7213 6.0051-3.6176 9.2773 1.9364 1.544 3.9082 4.7447 4.3818 7.1127 1.0763 5.3817 3.1944 5.6364 3.1944 0.384zm-10-19.34c3.9161-3.3223 3.9448-3.4361 1.3716-5.4287-2.9723-2.3013-4.6891-1.899-10.098 2.3667-4.3938 3.4648-4.877 5.6668-1.6408 7.4777 2.5618 1.4338 4.3915 0.6544 10.368-4.4157zm-14.948-7.3235 5.615-5.2517-6.5741-2.9171c-10.314-4.5765-35.348-13.408-43.426-15.319-4.0333-0.9543-11.825-2.7157-17.314-3.9144-10.9-2.38-24.331-7.3389-32.686-12.069-2.9333-1.6605-11.918-4.8702-19.965-7.1326l-14.632-4.1135-13.035 6.2433c-7.169 3.4339-13.035 6.6906-13.035 7.2371s5.25 2.5508 11.667 4.454 13.167 4.0975 15 4.876c5.0093 2.1272 15.061 3.7544 30.915 5.0041 12.687 1.0002 14.927 1.5728 20.446 5.2286 5.8278 3.8601 26.281 11.173 36.639 13.1 2.5667 0.4774 5.2667 1.2782 6 1.7797 1.4969 1.0235 24.248 7.5293 27.718 7.9261 0.5784 0.067 3.5784-2.243 6.6667-5.1316zm42.282-12.792c5.5-3.8189 13.581-8.9529 17.959-11.409 4.3774-2.4559 9.0274-5.5337 10.333-6.8397 1.306-1.306 3.2055-2.3746 4.2212-2.3746 1.0157 0 2.9205-1.65 4.2329-3.6666 2.051-3.1516 2.075-3.4116 0.17032-1.8508-1.2187 0.9986-3.1632 1.4522-4.321 1.008-1.8861-0.7238-10.074 3.1652-33.262 15.798-9.1992 5.0116-19.363 12.918-18.469 14.366 1.0759 1.7409 6.2435 3.4892 7.802 2.6397 0.73333-0.3999 5.8333-3.8515 11.333-7.6704zm-126-4.6231c-1.4667-0.6302-4.1667-1.1789-6-1.2192-2.6272-0.057-2.9096 0.2006-1.3333 1.2192 1.1 0.711 3.8 1.2595 6 1.2192 3.4343-0.063 3.6228-0.2353 1.3333-1.2192zm-54-9.1906c0-1.4072-3.3052-2.8268-6.4424-2.767-1.9187 0.036-1.8687 0.3114 0.36389 2 2.8894 2.1855 6.0785 2.5879 6.0785 0.767zm5.6667 0.3076c-0.91666-0.3699-2.4167-0.3699-3.3333 0-0.91667 0.3698-0.16667 0.6725 1.6667 0.6725 1.8333 0 2.5833-0.3027 1.6667-0.6725zm-21-3.117c-0.45322-0.7333-1.724-1.3333-2.824-1.3333s-1.6292 0.6-1.176 1.3333c0.45323 0.7334 1.724 1.3334 2.824 1.3334s1.6292-0.6 1.176-1.3334zm-19.66-8.3333c-0.3019-0.9167-2.0019-1.8343-3.7778-2.0392-3.1268-0.3608-3.1471-0.3081-0.64072 1.6667 3.134 2.4692 5.1654 2.6405 4.4185 0.3725zm14.299-3.5803c0.46449-1.4634 3.3888-3.5616 6.7565-4.8477 3.2657-1.2472 5.9376-2.7493 5.9376-3.3381 0-1.7255-12.22-3.0804-14.558-1.6142-2.6922 1.6891-4.7607 7.4255-3.6867 10.224 1.14 2.9708 4.5556 2.7097 5.5503-0.4243zm-14.765-8.2644c1.0199-6.3783 0.31432-7.9105-1.8127-3.9361-0.81856 1.5295-2.5525 2.7808-3.8532 2.7808-3.3689 0-7.457 3.3123-6.333 5.1311 0.52199 0.8445 3.237 1.5356 6.0333 1.5356 4.928 0 5.1113-0.1695 5.9655-5.5114zm-23.087-1.873c-0.9562-4.5801-0.8224-19.566 0.28229-31.616 0.66706-7.2763 0.58991-11.667-0.20502-11.667-0.70103 0-1.6384 6.45-2.083 14.333-1.9254 34.14-1.9454 32.499 0.39184 32.013 1.3561-0.2819 1.9567-1.4223 1.6138-3.0644zm11.914-4.7898c3.6411-1.8978 5.2034-3.484 4.7066-4.7785-0.40897-1.0658-1.1464-6.2374-1.6388-11.493-0.77994-8.3238-1.0443-9.0394-2.0516-5.5547-0.63597 2.2-0.80935 6.8696-0.38525 10.377 0.85877 7.1025-9e-3 9.8274-2.4787 7.7782-1.1118-0.9227-2.236-0.1568-3.8193 2.6019-2.6712 4.6543-1.5999 4.8565 5.667 1.0687zm-32.969-1.978c2.3469-1.1838 5.9555-3.7327 8.019-5.6645 2.5992-2.4332 3.4771-2.796 2.8574-1.1811-0.49652 1.2939-0.28051 2.3311 0.48552 2.3311 1.298 0 1.6649-2.2579 3.5473-21.83 0.73764-7.6698 0.69096-7.8109-2.2778-6.886-1.667 0.5194-7.8934 1.2637-13.836 1.654l-10.806 0.7095-1.5278 12.432c-2.0999 17.087-2.1744 16.588 2.4722 16.588 2.6667 0 4 0.6666 4 2 0 2.5634 1.7571 2.5255 7.0662-0.1522zm-3.3772-16.644c-1.6774-0.952-1.9783-1.9366-1.0973-3.5911 0.66754-1.2538 1.5486-3.3555 1.9579-4.6704 0.61169-1.9652 1.234-2.1288 3.4947-0.9188 2.0223 1.0823 2.5192 2.2448 1.8767 4.3908-1.3804 4.6108-3.5751 6.2975-6.232 4.7895zm47.618 8.0463c-0.86233-2.7169-1.0862-2.7888-2.244-0.7199-0.70737 1.264-0.91624 3.2621-0.46417 4.4402 1.2964 3.3783 3.8485-0.1275 2.7082-3.7203zm-18.264-9.2503c0.0224-4.2104-0.0796-4.3408-1.0427-1.3334-0.58713 1.8334-1.0563 5.7334-1.0427 8.6667 0.0236 5.0734 0.0744 5.1384 1.0427 1.3333 0.5598-2.2 1.029-6.1 1.0427-8.6666zm18.124-1.5c1.1912-5.956 1.0287-11.555-0.3603-12.414-1.7659-1.0914-2.8064 2.6246-2.8064 10.023 0 7.345 1.8904 8.7723 3.1667 2.391zm-57.833-11.245c0-1.1433-0.6-1.7079-1.3333-1.2546-0.73333 0.4532-1.3333 1.3886-1.3333 2.0787 0 0.69 0.6 1.2546 1.3333 1.2546s1.3333-0.9354 1.3333-2.0787zm48.911-2.1713c-0.42563-1.0636-0.74158-0.7477-0.80555 0.8056-0.0579 1.4055 0.25724 2.193 0.70029 1.75 0.44306-0.4431 0.49042-1.5931 0.1052-2.5556zm-30.911-9.4737c5.0159-2.8337 5.3571-3.4199 5.7318-9.8479 0.38213-6.554 0.21785-6.9249-4-9.0312-2.4192-1.2081-6.4985-2.7148-9.0652-3.3483-2.5667-0.6334-13.067-3.5798-23.333-6.5475-10.267-2.9676-27.967-6.9039-39.333-8.7472s-27.267-4.8815-35.333-6.7515c-8.0667-1.8701-18.567-4.2586-23.333-5.308-4.7667-1.0493-26.667-6.39-48.667-11.868s-49.3-12.093-60.667-14.7c-25.667-5.8865-28.968-6.744-34.185-8.8834-3.6451-1.4946-5.2791-1.3454-12.667 1.1569-18.568 6.2894-31.971 11.728-39.815 16.158-1.9342 1.0921-2.0537 5.1188-0.20928 7.0548 1.7226 1.8082 46.308-11.405 57.742-17.112 2.9538-1.4744 3.782-1.4627 5.0552 0.072 2.101 2.5315-3.3403 6.2152-14.921 10.101-4.95 1.6611-9 3.4244-9 3.9184 0 1.3566 18.37 6.3904 26.36 7.2234 3.8648 0.4029 10.315 1.6594 14.333 2.7922 4.0185 1.1328 10.735 3.0308 14.925 4.2178 10.691 3.0284 109.05 27.779 132.38 33.312 10.633 2.5217 24.133 6.0041 30 7.7388 15.48 4.5768 16.405 4.7124 18.114 2.6531 0.85008-1.0243 2.5065-1.8624 3.681-1.8624s7.0438-3.3 13.043-7.3333c5.9992-4.0334 11.313-7.3334 11.807-7.3334 0.49482 0 0.50431 1.8 0.0211 4-0.86315 3.9299-0.78404 4 4.5138 4 4.0461 0 5.7524 0.6727 6.8343 2.6943 1.806 3.3745 0.6876 5.2999-3.0934 5.3254-4.175 0.028-9.588 3.0502-9.588 5.353 0 1.1948 1.8228 2.2827 4.6667 2.7851 8.7404 1.5442 12.662 1.1343 18-1.8814zm32.667-6.6763c0-5.4394-1.7296-8.9333-4.4221-8.9333-0.67214 0-0.93261 1.5143-0.57881 3.3651 0.35381 1.8509 0.12373 3.6863-0.51123 4.0787-1.5484 0.957-1.4806 5.8895 0.0811 5.8895 0.67956 0 1.51-1.05 1.8453-2.3333 0.45887-1.7559 0.64805-1.5909 0.76444 0.6666 0.28509 5.5297 2.8213 3.0726 2.8213-2.7333zm9.9451-0.7603c0.48519-1.5287-0.60139-4.621-2.8079-7.9912-3.6854-5.6289-5.919-6.7129-3.1426-1.5252 0.84923 1.5868 1.2 3.7817 0.77948 4.8775-0.85512 2.2284 1.3334 7.1325 3.183 7.1325 0.6581 0 1.5527-1.1221 1.988-2.4936zm-19.346-4.7126c2.2312-4.169 0.43693-7.5922-2.1355-4.0742-1.9888 2.7197-2.42 7.2804-0.68846 7.2804 0.60942 0 1.8802-1.4427 2.8239-3.2062zm10.674-4.908c-0.81854-1.5294-1.8252-2.4439-2.2369-2.0322-0.41176 0.4118 0.0107 1.6632 0.93794 2.7809 2.3971 2.8883 3.0454 2.5146 1.299-0.7487zm13.374-0.8858c-0.0265-3.0252-2.242-6.5153-3.4005-5.3568-1.253 1.253 0.51574 7.6902 2.113 7.6902 0.71936 0 1.2988-1.05 1.2875-2.3334zm-13.722-6.6471c-1.1343-1.1343-3.0287-1.6756-4.2388-1.2113-3.064 1.1758-1.626 2.8199 2.6767 3.0603 3.2514 0.1817 3.4077 0 1.5621-1.849zm3.1368-2.9053c-0.81856-1.5295-2.081-2.7809-2.8054-2.7809-0.72443 0-0.32205 1.5187 0.8942 3.375 2.5855 3.9459 4.0906 3.478 1.9112-0.5941zm-15.033-2.5309c0.32072-0.9621-0.88762-1.5833-3.0799-1.5833-3.0905 0-3.3645 0.2931-1.911 2.0444 1.8567 2.2371 4.1625 2.0241 4.9909-0.4611zm27.546-5.4322c1.1044-1.787-1.9067-3.7133-8.5733-5.4845-3.3-0.8767-6.6-2.0369-7.3333-2.5782-2.4616-1.817-24.709-7.9135-23.333-6.394 0.36667 0.4049 7.2351 3.2322 15.263 6.2828 8.0281 3.0507 16.128 6.3798 18 7.398 4.0672 2.2123 5.0132 2.3351 5.9768 0.7759zm-42.495-3.3892c3.0722-2.261 5.2267-1.304-21.36-9.4879-10.972-3.3773-22.071-7.0274-24.666-8.1114-6.0137-2.5127-28.988-8.6252-51.904-13.81-9.8181-2.2212-29.618-7.5555-44-11.854-25.383-7.5867-42.783-11.847-59.686-14.613-4.5122-0.7385-12.405-3.1863-17.539-5.4397l-9.3347-4.097-5.7946 2.6294c-3.187 1.4462-6.8744 2.6427-8.1941 2.6588-3.0437 0.037-10.267 3.7272-10.267 5.2449 0 2.1042 8.5708 5.1089 16.883 5.9186 4.5188 0.4402 12.24 2.315 17.159 4.1664 4.9185 1.8513 10.53 3.366 12.471 3.366 1.9406 0 12.819 2.3302 24.175 5.1783 27.598 6.9219 44.179 10.592 54.646 12.095 17.04 2.4469 29.317 5.3854 89.333 21.382 27.38 7.2978 33.59 8.0763 38.078 4.7732zm-340.57-5.892c1.6521-4.3453 0.84224-4.7984-4.0523-2.2673-4.625 2.3916-4.6835 2.527-2.6976 6.2378 1.187 2.2179 1.7696 2.3802 3.4722 0.9671 1.1253-0.9338 2.6002-3.1558 3.2777-4.9376zm-13.51-6.8125c1.1-0.6789 4.9087-2.2735 8.4638-3.5435 6.6952-2.3919 8.9346-4.9822 6.4528-7.4639-1.5548-1.5548-7.8154-0.2637-21.902 4.5167-4.2089 1.4283-8.8621 2.688-10.34 2.7993-2.3126 0.1742-2.5793 0.8611-1.9103 4.9182 1.3674 8.2922 1.2552 8.2451 9.5128 3.9887 4.248-2.1896 8.6237-4.5366 9.7237-5.2155zm281.17 7.3313c-0.62711-0.6271-7.4762-2.5533-28.5-8.015-12.534-3.2562-41.806-8.0118-42.856-6.9624-0.70654 0.7066 21.756 6.2085 47.522 11.64 16.95 3.573 25.228 4.7322 23.833 3.3376zm62.167-10.055c-0.45322-0.7333-1.5386-1.3241-2.412-1.3129-0.95415 0.012-0.7897 0.5363 0.41202 1.3129 2.5615 1.6554 3.0231 1.6554 2 0zm-60.623-19.525c-5.4759-1.7944-11.476-3.0852-13.333-2.8686-2.1238 0.2478 0.82891 1.4592 7.9562 3.2641 15.103 3.8248 17.678 3.6354 5.3772-0.3955zm-155.49-7.1163c-0.71959-0.7195-3.3896-1.6272-5.9333-2.0171l-4.625-0.7087 4.6667 1.9156c5.6584 2.3228 7.6826 2.6012 5.8917 0.8102zm28.775-25.358c0-3.68-2.4723-4.5892-5.3636-1.9726-2.4425 2.2104-4.8601 2.1613-11.513-0.2341-1.4429-0.5196-2.0014-0.3844-1.3529 0.3276 1.4013 1.5385 15.893 5.7033 17.229 4.9513 0.55-0.3096 1-1.6921 1-3.0722zm11.402-10.415c4.3625-2.7951 11.372-6.5451 15.576-8.3333 4.6774-1.9896 7.6527-4.0701 7.6667-5.361 0.0133-1.1804 1.9315-2.7542 4.3561-3.5731 20.018-6.7603 24.931-9.38 24.98-13.317 0.0325-2.6608-3.376-1.9534-10.323 2.1425-3.5532 2.095-8.6842 4.543-11.402 5.4401-2.7181 0.897-5.5585 2.7829-6.312 4.1909-0.75351 1.4079-2.3989 2.5787-3.6564 2.6017-1.2575 0.023-5.8711 1.823-10.252 4-4.3813 2.177-8.8341 3.9581-9.895 3.9581-1.0609 0-2.8869 0.8669-4.0576 1.9265-1.1708 1.0595-4.218 2.2899-6.7716 2.7341-2.5536 0.4443-5.4648 1.6206-6.4692 2.6141-1.5428 1.526-1.2323 2.1281 2 3.8791 5.3101 2.8767 5.6457 2.8098 14.561-2.9024zm-34.068-0.2322c0-2.587-16.785-9.7218-28.616-12.164-14.327-2.957-19.84-3.2047-19.036-0.8555 0.34481 1.0076 2.3661 1.5123 5.1111 1.2764 2.4974-0.2147 9.3334 1.1353 15.191 3 5.8578 1.8647 11.647 3.3903 12.864 3.3903 1.2174 0 4.8246 1.4928 8.0162 3.3173 6.6922 3.8257 6.4694 3.7556 6.4694 2.0352zm6.5394-5.4312c-0.95995-0.5933-2.2881-0.7433-2.9514-0.3333-0.6633 0.4099-0.4206 1.2308 0.53935 1.824 0.95995 0.5933 2.2881 0.7433 2.9514 0.3334 0.66331-0.41 0.4206-1.2308-0.53934-1.8241zm111.7 293.87c-0.47886-0.4788 1.5008-3.4433 4.3993-6.5879 2.8985-3.1444 5.6635-7.2854 6.1446-9.2021 0.70409-2.8053 1.5558-3.4059 4.3671-3.0788 5.8735 0.6831 4.9693 4.4593-2.9685 12.397-6.9018 6.9018-9.892 8.5222-11.943 6.4717zm104.02-21.389c-0.76112-1.2443-1.2858-6.4511-1.0727-10.645 0.17379-3.4204 3.482-7.0952 6.3874-7.0952 1.6075 0 1.8174 0.7905 0.97354 3.6666-0.59168 2.0167-1.1206 6.0611-1.1753 8.9876-0.0713 3.8108-0.71776 5.4402-2.2778 5.7406-1.198 0.2308-2.4738-0.064-2.8351-0.6543zm-74.884-20.34c-0.43049-0.6965 0.41528-1.9076 1.8795-2.6912 1.4642-0.7836 4.2583-4.1482 6.209-7.477 2.3599-4.0268 4.1952-5.8035 5.4842-5.3088 1.0656 0.4089 2.1883 0.7434 2.495 0.7434 2.0137 0-0.24865 4.5406-4.889 9.8123-5.154 5.8553-9.4363 7.7405-11.179 4.9213zm398.76-34.121c-3.5634-3.5633 1.2356-17.729 6.7191-19.834 2.5584-0.9817 7.2418 3.6846 9.732 9.6966 0.9549 2.3052 2.4704 4.1913 3.3677 4.1913 2.7245 0 6.0449-4.6581 6.0449-8.4801 0-3.8864 3.2699-6.1167 5.5803-3.8063 0.7705 0.7705 3.4196 1.0735 5.8867 0.6731 3.3694-0.5468 4.6923-0.1896 5.3158 1.435 1.3631 3.5522 3.2172 1.0482 3.2172-4.3449 0-6.7717 1.4343-7.7772 3.6334-2.5469l1.8113 4.3077 3.206-3.9521c2.9707-3.662 3.04-4.0788 0.9444-5.6783-1.244-0.9493-3.6537-1.3773-5.355-0.9512-2.7416 0.6868-3.0448 0.3539-2.6667-2.9291 0.5735-4.9792 4.1441-5.4293 9.2157-1.1618 2.2452 1.8892 4.9007 3.4349 5.9012 3.4349 3.3195 0 3.6603 2.8708 0.8001 6.7395-3.6235 4.9009-3.5535 5.4945 0.5269 4.4704 4.4943-1.128 7.3161 1.4742 7.3161 6.7468 0 4.2417-3.3029 8.71-6.4384 8.71-2.2378 0-1.9287-4.7023 0.4384-6.6667 1.8117-1.5036 2.8794-6.6667 1.3785-6.6667-0.3418 0-2.7719 1.0255-5.4003 2.279-3.8624 1.8417-5.274 1.9696-7.3605 0.6666-3.5805-2.2361-3.9511-2.0746-3.9511 1.7211 0 3.7452-3.2332 4.5879-4.5398 1.1832-0.6398-1.6673-1.2403-1.8056-2.6739-0.6159-1.0168 0.844-4.047 1.3864-6.7337 1.2055-4.6586-0.3137-7.2992 1.4388-7.3739 4.8939-0.016 0.7333-1.9751 2.5188-4.3538 3.9676-6.2725 3.8206-6.3249 3.829-6.3249 1.0168 0-1.4142-1.254-3.706-2.7867-5.0931-2.751-2.4896-2.821-2.4749-5.4596 1.1473-3.8805 5.3272-7.1078 6.7502-9.6174 4.2404zm7.1971-12.467c0-2.8185-2.1596-0.2589-3.2526 3.8548-0.851 3.2035-0.8049 3.2326 1.1835 0.7452 1.138-1.4236 2.0691-3.4936 2.0691-4.6zm-379.21-2.6146c-1.2916-2.0899 3.8058-10.248 6.1243-9.8012 3.4602 0.6664 3.8418 3.7992 0.91587 7.5189-2.6953 3.4265-5.7258 4.4089-7.0402 2.2823zm353.07-23.063c0.50112-3.1906 1.4872-7.6013 2.1912-9.8013 0.70407-2.2 1.901-6.5404 2.6598-9.6454 0.75886-3.105 2.7756-7.2682 4.4817-9.2516 3.0184-3.5092 3.2386-3.5542 8.1816-1.6729 8.0323 3.0571 7.5671 4.778-3.8656 14.302-4.9668 4.1375-4.1814 7.6014 1.7234 7.6014 3.9111 0 4.7277-0.5857 5.9817-4.2903 1.8127-5.355 4.408-7.9448 9.119-9.0998 3.547-0.8696 3.6667-0.7218 3.6667 4.5325 0 4.1531-0.9569 6.5212-4.0654 10.062-3.7628 4.2856-4.5491 4.5942-10.568 4.146-3.5766-0.2662-7.7986-1.1776-9.3822-2.025-3.4591-1.8514-3.3274-1.978-4.8554 4.666-0.81216 3.5313-2.0589 5.4849-3.702 5.8014-2.2145 0.4264-2.3807-0.1385-1.5663-5.3244zm28.786-14.213c-0.018-1.943-0.199-1.9782-1.3129-0.2547-1.6875 2.6112-1.6875 4.3763 0 3.3334 0.7333-0.4532 1.3241-1.8387 1.3129-3.0787zm-14.313-8.7774c2.8393-2.1554 3.0492-4.8106 0.3803-4.8106-1.7065 0-4.7136 3.7719-4.7136 5.9124 0 1.249 1.8592 0.7763 4.3333-1.1018zm29.93 21.657c-9.3985-5.2596-7.1725-28.08 3.612-37.03 2.8639-2.3767 4.6505-0.6725 5.6313 5.3717 0.6842 4.2159 0.3691 4.7569-3.9776 6.8296-5.1999 2.4797-6.7489 6.7452-5.959 16.409 0.5165 6.3197 3.035 7.2913 8.2554 3.1849 3.334-2.6225 3.4695-3.0652 1.5776-5.1557-3.0067-3.3223-2.5641-5.7707 1.7987-9.9505 4.7442-4.5452 8.6367-4.1716 9.2203 0.8851 0.4879 4.2269 2.8782 4.7086 6.0382 1.217 2.5718-2.8419 2.8282-5.7402 0.6962-7.8721-0.8307-0.8307-1.1396-2.4766-0.6864-3.6575 0.6435-1.677 1.393-1.8426 3.4227-0.7563 4.1609 2.2268 6.7218 1.6311 8.3501-1.9425 1.8852-4.1377 7.0488-4.7356 5.7574-0.6667-0.4656 1.4667-0.3301 2.6667 0.301 2.6667s1.7216-1.95 2.4232-4.3333c1.3273-4.5085 6.1797-6.6294 8.9134-3.8958 2.0293 2.0294-0.1095 4.7173-2.3043 2.8958-2.5672-2.1306-3.5462 0.1592-4.3501 10.175-0.7297 9.0896-1.9004 11.05-5.0416 8.4431-1.5614-1.2958-1.9416-1.1966-1.9416 0.5066 0 3.4158-4.345 11.542-6.1714 11.542-2.2223 0-5.8286-5.2612-5.8286-8.5033 0-2.4117-0.1561-2.4354-2.4384-0.37-1.341 1.2137-3.4544 2.2067-4.6964 2.2067s-4.8311 2.3716-7.9758 5.2702c-6.776 6.246-11.425 8.3218-14.626 6.5304zm39.544-19.172c2.376-6.9733 0.4478-6.7476-2.4935 0.2919-2.2612 5.4117-2.5176 7.569-0.7713 6.4897 0.6647-0.4108 2.1339-3.4625 3.2648-6.7816zm15.193 1.3534c-2.0167-1.8829-3.6667-3.729-3.6667-4.1024 0-2.2293 4.331-8.4993 5.4102-7.8323 0.7132 0.4408 4.5667 0.07 8.5635-0.8249 5.7192-1.2799 7.6845-1.2796 9.228 0 1.2939 1.0738 2.784 1.2137 4.3797 0.4111 1.3302-0.6691 3.9186-0.8368 5.7519-0.3727 2.7988 0.7084 3.3991 1.744 3.7434 6.4573 0.4555 6.2374-0.9615 7.0568-4.8976 2.8319-2.1013-2.2554-3.1034-2.5076-5.2977-1.3333-4.193 2.244-6.32 1.7411-7.9721-1.8851-1.6269-3.5705-2.5509-3.9422-5.3655-2.1583-1.4937 0.9467-1.4953 1.6055-0.01 3.9842 1.3256 2.1227 1.4073 3.4443 0.3201 5.1787-2.2344 3.5644-6.1348 3.4282-10.188-0.3557zm-449.44-6.8711c-1.2149-1.2149-1.125-4.4445 0.1237-4.4445 0.55694 0 1.762 1.2 2.678 2.6667 1.3547 2.1692 1.3316 2.6667-0.12374 2.6667-0.98398 0-2.1891-0.4-2.678-0.8889zm96.444-3.7778c0-1.5516 0.96958-2.0559 3.3748-1.7552 1.8561 0.232 3.3748 1.0219 3.3748 1.7552s-1.5186 1.5232-3.3748 1.7552c-2.4052 0.3007-3.3748-0.2036-3.3748-1.7552zm20.265-17.478c-0.98316-1.7569-0.63213-4.2089 1.3068-9.1285 3.2101-8.1451 3.2265-8.1634 5.5843-6.2066 1.6158 1.341 1.5099 2.5685-0.73582 8.5234-3.231 8.5678-4.43 9.8946-6.1553 6.8117zm20.243-29.119c-1.2075-3.1468 3.7202-10.23 6.809-9.7868 2.1227 0.3042 2.5919 1.2156 2.2488 4.3686-0.23847 2.1913-1.0619 4.7413-1.8299 5.6666-1.8933 2.2813-6.3154 2.1293-7.2279-0.2484zm22.178-17.736c0.0273-4.9011 1.7066-7.2769 4.41-6.2395 1.628 0.6247 1.9936 1.7883 1.3757 4.3785-1.1458 4.803-1.655 5.5276-3.8849 5.5276-1.212 0-1.9138-1.3536-1.9009-3.6666zm23.98-16.333c0-1.7777 0.88889-2.6666 2.6667-2.6666 1.7778 0 2.6667 0.8889 2.6667 2.6666 0 1.7778-0.88889 2.6667-2.6667 2.6667-1.7778 0-2.6667-0.8889-2.6667-2.6667zm12-1.1009c0-2.4908 3.6705-6.2637 8.9819-9.2324 7.1788-4.0124 7.5135-0.9092 0.68476 6.3483-5.3237 5.658-9.6667 6.9537-9.6667 2.8841zm52.889-23.788c-1.6751-1.6751-0.88619-4.243 2.563-8.3421 6.4439-7.6582 9.7871-4.036 4.2148 4.5666-2.9066 4.4873-4.9357 5.6176-6.7778 3.7755zm-203.35-12.373c-0.0436-5.6342 0.27773-6.4784 2.2053-5.7931 6.0114 2.1374 7.3307 6.3996 3.1515 10.182-4.0354 3.652-5.3026 2.6139-5.3568-4.3886zm365.14 3.9637c-1.4227-0.8995-1.5794-1.6668-0.5504-2.6958 1.8002-1.8002 9.1055 0.6659 7.8742 2.6582-1.0343 1.6734-4.7066 1.6923-7.3238 0.038zm-105.92-10.391c-1.0889-1.0889 1.9564-4.311 4.0745-4.311 2.8061 0 2.1859 3.5977-0.75272 4.3662-1.4242 0.3724-2.919 0.3476-3.3218-0.055zm60.578-1.631c-1.7778-1.197-1.7778-1.4925 0-2.6595 2.6597-1.746 7.6242-1.7072 8.7214 0.068 1.113 1.8009 0.7047 2.1802-3.3908 3.1495-1.8319 0.4336-4.2306 0.1824-5.3306-0.5583zm-27.339-2.6894c-1.0494-1.6979 0.91563-2.3131 9.6725-3.0278 4.955-0.4044 7-0.093 7 1.0663 0 2.871-15.018 4.6379-16.672 1.9615zm-335.8-30.446c-1.6207-1.7908-2.416-5.1286-2.5971-10.899-0.24045-7.6626 0.0281-8.5352 3.4093-11.078 4.7086-3.5413 7.2304-1.6698 4.8348 3.5879-1.4612 3.2069-1.248 3.9522 2.1421 7.4907 3.3261 3.4718 3.6193 4.4396 2.5163 8.3083-1.5202 5.3325-6.6556 6.6233-10.305 2.5903zm3.6702-4.9985c0.9068-2.3631-0.025-4.5464-1.9404-4.5464-0.69005 0-1.2546 1.5-1.2546 3.3334 0 3.7297 1.9458 4.4685 3.195 1.213zm-58.41 0.9174c-2.1817-2.4107-2.1233-2.8754 1.1809-9.3959 1.9119-3.7729 4.3106-7.18 5.3304-7.5714 1.0199-0.3913 3.6955 0.6497 5.9458 2.3134 3.3562 2.4814 4.0915 3.9643 4.0915 8.2521 0 4.7765-0.26228 5.1613-3.0424 4.4635-2.1395-0.5369-3.5277 0.014-4.678 1.8555-2.0725 3.3186-5.8678 3.3542-8.8283 0.083zm7.1256-11.464c3e-3 -0.7333-0.87608-0.1686-1.9527 1.2549-1.0767 1.4235-1.9363 3.5235-1.9104 4.6666 0.0515 2.2628 3.8546-3.5668 3.8631-5.9215zm20.019 11.914c-1.0784-1.2993-2.8686-1.8002-4.7482-1.3284-3.8546 0.9674-5.4998-1.5711-2.4591-3.7945 1.8285-1.337 2.1239-2.7537 1.3899-6.666-0.87557-4.6672-0.77072-4.8819 1.7306-3.5432 1.9213 1.0283 2.9222 1.0051 3.5948-0.083 1.3976-2.2613 3.5669 2.3383 2.5757 5.4612-0.44917 1.4153 0.11427 4.3734 1.252 6.5736 1.1378 2.2002 2.0687 4.3302 2.0687 4.7333 0 1.5673-3.7626 0.6255-5.4045-1.3528zm69.353 1.7524c-0.0281-0.1833-0.24839-4.2333-0.4893-9-0.2409-4.7667-0.88781-10.017-1.4376-11.667-0.7488-2.2473-0.48309-3 1.0592-3 3.1268 0 7.5856 6.5158 7.5856 11.085 0 5.5354-2.8196 12.915-4.9345 12.915-0.95268 0-1.7552-0.15-1.7834-0.3333zm-59.097-4.3389c-1.8826-1.8825-1.8375-9.088 0.0705-11.281 1.3818-1.588 5.1204 2.6429 5.4793 6.2009 0.52571 5.2112-2.5778 8.0518-5.5498 5.0797zm6.1364-17.743c-4.9851-4.1124-5.4294-5.5847-1.6854-5.5847 2.7136 0 7.3056 5.5728 6.4894 7.8754-0.25227 0.7117-2.4141-0.3191-4.804-2.2907zm14.297-7.643c-1.3092-1.5775-1.4061-4.0802-0.41497-10.712 1.0106-6.7621 0.9111-8.9712-0.45498-10.105-2.629-2.1819-2.1017-5.1245 0.91838-5.1245 1.697 0 2.6667-0.8888 2.6667-2.4444 0-4.0243 1.2463-4.1226 6.732-0.5309 4.0668 2.6626 4.8979 3.8147 3.7498 5.1981-0.81125 0.9775-2.2783 1.7772-3.2601 1.7772-2.1822 0-5.8884 11.901-5.8884 18.909 0 5.4213-1.2741 6.3759-4.0484 3.033zm-74.488-2.275c-0.67076-1.7702-0.52059-6.3436 0.36633-11.157 1.2489-6.7775 2.4595-9.1408 7.1593-13.976l5.6562-5.8187 4.6491 2.5037c6.9053 3.7188 7.2355 6.7756 1.3799 12.772-5.1768 5.3015-5.1931 7.705-0.0809 11.948 3.0142 2.5016 2.5434 4.0604-1.2263 4.0604-2.3171 0-3.9148-1.1906-5.3676-4-1.1377-2.2-2.3409-4-2.6738-4-0.33292 0-1.8297 2.4-3.3262 5.3334-3.0818 6.0407-4.8871 6.6852-6.536 2.3333zm15.869-19.667c0.78493-1.4666 0.92604-2.6666 0.31357-2.6666-1.4176 0-4.3136 2.8644-4.3136 4.2666 0 2.0696 2.5907 1.0333 4-1.6zm29.851 21.093c-0.53506-0.8658-0.9132-5.5058-0.84034-10.311 0.0729-4.8054-0.54642-9.5551-1.3762-10.555-1.1574-1.3945-0.97999-2.1137 0.76164-3.0884 1.2487-0.6988 2.2704-2.4407 2.2704-3.871 0-3.3535 1.5777-3.317 3.7027 0.086 1.2189 1.9517 2.5472 2.4679 4.8584 1.8878 2.0751-0.5208 3.5733-0.1157 4.3098 1.1652 0.62096 1.0799 2.2647 2.1804 3.6528 2.4455 1.3881 0.2651 2.9685 1.382 3.5121 2.482 5.5023 11.134 6.4297 19.706 1.708 15.787-1.3866-1.1507-2.6592-1.0815-5.2095 0.2833-6.9062 3.6961-10.418-2.7538-6.64-12.196 2.6371-6.5907 2.6409-6.5417-0.51418-6.5417-3.6424 0-5.0104 3.2186-6.1096 14.374-0.91204 9.2558-2.0076 11.415-4.086 8.0516zm16.149-10.426c0.45323-0.7333 0.18864-1.3333-0.58797-1.3333-0.77662 0-1.412 0.6-1.412 1.3333s0.26459 1.3333 0.58797 1.3333c0.32339 0 0.9588-0.6 1.412-1.3333zm64.342 9c-0.33521-0.9167-0.21389-5.152 0.26959-9.4119 0.48349-4.2598 0.44825-8.0115-0.0783-8.3369-1.5844-0.9792-7.5766 7.0573-8.5431 11.458-0.62935 2.8654-1.57 3.9723-3.113 3.6634-1.7244-0.3453-2.2111-1.9935-2.2111-7.489 0-5.2237-0.58274-7.3755-2.253-8.3194-1.9785-1.1181-2.1608-0.7052-1.4964 3.3889 0.8997 5.5445-2.3057 11.38-6.2507 11.38-3.6063 0-7.2313-5.7596-5.6083-8.9105 0.68636-1.3325 0.97699-3.1788 0.64584-4.1029-0.35307-0.9852 1.7375-2.7276 5.0546-4.2127 5.2731-2.3608 5.959-2.3884 10.114-0.4069 4.1996 2.0027 4.7468 1.9659 9.4589-0.6348 6.6327-3.6609 11.001-1.9736 11.001 4.2492 0 11.784-4.7523 23.807-6.9908 17.685zm-22.548-11.707c0.40283-2.7634 0.19129-2.9409-1.6667-1.399-2.516 2.0882-2.8603 5.903-0.46138 5.113 0.91666-0.3019 1.8743-1.9732 2.128-3.714zm-76.287 10.333c-1.959-1.4325-2.1604-2.748-1.2508-8.1734 1.358-8.1 4.9815-11.171 9.4711-8.0261 3.9309 2.7533 3.753 7.9201-0.46303 13.448-3.7918 4.9713-4.4182 5.1935-7.7573 2.7519zm5.8251-10.659c0-1.3876-0.71729-2.2838-1.594-1.9916-1.826 0.6086-3.8794 7.1064-2.6381 8.3477 1.1894 1.1894 4.2321-3.3804 4.2321-6.3561zm52.867 9.0744c-1.3103-3.4146 0.69144-15.375 2.5732-15.375 2.8736 0 3.4583 2.3454 2.4991 10.023-0.88983 7.1219-3.3834 9.753-5.0722 5.3519zm7.8523-22.505c-1.669-1.2204-1.9733-2.0953-0.94906-2.7284 1.7472-1.0798 6.8962 1.3381 6.8962 3.2384 0 1.8484-3.0834 1.584-5.9472-0.51zm6.4401-31.87c0.44218-1.65 0.81217-5.5638 0.82218-8.6974l0.0181-5.6974 3.3333 2.1841c3.6565 2.3958 4.2596 6.3855 1.786 11.815-2.0282 4.4514-7.1375 4.7909-5.9597 0.3961zm-20.481-24.323c-3.7092-3.2944-9.1092-7.1963-12-8.671-4.6547-2.3747-8.0117-6.0417-8.0117-8.7517 0-1.8674 8.2576 0.8065 12.512 4.0516 6.9302 5.2859 8.792-0.2629 2.7473-8.1879-3.3827-4.435-3.3858-7.118-8e-3 -7.118 2.1888 0 11.415 11.082 11.415 13.711 0 1.061-1.2106 3.4681-2.6901 5.3491-1.8101 2.3011-2.2094 3.717-1.2208 4.328 1.5778 0.9751 7.1239-4.9694 12.147-13.019 6.3184-10.126 8.5349-4.6676 3.2504 8.0043-1.7492 4.1946-3.5969 9.5765-4.1059 11.96-1.3401 6.2746-5.6826 5.7621-14.035-1.6563zm-32.678-51.09c-2.9333-1.9726-5.5616-4.1215-5.8407-4.7754-0.27905-0.6538-2.5989-3.5038-5.1551-6.3333-5.2776-5.8417-5.227-5.9251 1.833-3.0205 5.9903 2.4644 11.93 7.6708 14.615 12.81 3.2904 6.2983 2.3058 6.5365-5.4524 1.3194zm-34.52-25.71c-3.4498-2.7136-8.1746-11.626-6.8601-12.941 1.1526-1.1525 12.682 3.8763 16.767 7.3128 4.7147 3.9672 5.0293 6.4835 0.94734 7.5774-5.0186 1.3449-7.1529 0.9616-10.854-1.9495zm327.19-305.95c0-0.40482 1.8-1.3635 4-2.1304 2.2-0.76693 4-1.87 4-2.4512s-4.95-2.3589-11-3.9503c-17.097-4.4973-23.496-6.7214-35-12.164-11.958-5.6575-18.638-10.981-17.501-13.946 1.1379-2.9654 4.2672-2.359 9.1212 1.7674 5.0871 4.3246 24.907 13.176 31.713 14.163 2.5667 0.37214 8.2106 1.9 12.542 3.3952 10.634 3.671 11.087 3.4988 6.0011-2.2814l-4.3997-5 3.218-0.46404c1.8628-0.26863 3.4667 0.29287 3.8084 1.3333 0.99763 3.0371 9.8009 10.401 14.438 12.078 2.4155 0.87345 4.3858 1.9176 4.3784 2.3202-0.0156 0.84934-21.182 8.0655-23.658 8.0655-0.91405 0-1.6619-0.33121-1.6619-0.73602zm-290.51-19.748c-1.2164-1.4657 0.0628-2.3899 6.6138-4.7785 4.467-1.6288 8.4846-2.5986 8.928-2.1552 1.3144 1.3143-8.1146 8.6378-11.197 8.6967-1.5602 0.0299-3.5154-0.76353-4.3448-1.763zm-19.818-1.7326c-3.6617-1.4775-1.6577-4.4503 3-4.4503 5.1379 0 6.0934 1.8093 2.0877 3.9531-1.4184 0.75913-2.7685 1.3329-3 1.275-0.23155-0.0579-1.171-0.40789-2.0877-0.77777zm-45.049-1.8623c-0.52783-0.85403-0.1328-2.0765 0.8778-2.7166 2.8184-1.7852 4.0766-1.4295 3.6019 1.0182-0.53659 2.7668-3.1963 3.7752-4.4797 1.6985zm91.4-1.8992c-1.3618-1.6409-1.034-2.2089 1.9236-3.3333 4.3274-1.6453 10.058-1.7756 10.058-0.22874 0 2.0316-4.8182 5.54-7.6084 5.54-1.5024 0-3.4704-0.89005-4.3733-1.9779zm-63.352-10.022c-1.2311-1.9919 0.48183-4 3.412-4 1.6991 0 2.588 0.91592 2.588 2.6667 0 2.8281-4.4632 3.8199-6 1.3333zm-49.667-1.6667c0.84004-2.5229 5.0006-2.8816 5.0006-0.4311 0 1.2368-1.14 2.0978-2.7778 2.0978-1.6293 0-2.5483-0.68909-2.2228-1.6667zm148.33-1c-1.2311-1.9919 0.48183-4 3.412-4 1.6991 0 2.588 0.91592 2.588 2.6667 0 2.8281-4.4632 3.8199-6 1.3333zm197.58-2.1944c-0.50416-0.50418-0.91667-2.8813-0.91667-5.2824s-0.6-4.7366-1.3333-5.1898-1.3333 0.0903-1.3333 1.2077c0 2.4635-3.9126 4.6794-6.6667 3.7757-2.8607-0.93858-8-5.8414-8-7.6318 0-1.7013 7.1319-7.3516 9.2794-7.3516 0.76302 0 1.3873 0.82653 1.3873 1.8368 0 3.1544 4.0671 5.3964 9.4737 5.2225 5.1188-0.16465 6.679 1.5447 3.9622 4.3408-0.67691 0.69667-1.4269 3.0204-1.6667 5.1638-0.43046 3.8483-2.4037 5.6906-4.1859 3.9084zm-8.9167-10.394c0-2.1521-1.8884-3.7458-3.0555-2.5788-1.0405 1.0405 0.39313 4.5001 1.8648 4.5001 0.65487 0 1.1907-0.86459 1.1907-1.9213zm-356.44 3.6991c-1.6904-1.6904-0.87855-3.1111 1.7778-3.1111 1.4815 0 2.6667 0.88889 2.6667 2 0 2.0299-2.8205 2.735-4.4444 1.1111zm200.06-2.6104c-2.5788-2.5788-0.61405-5.9182 4.9817-8.4674 7.291-3.3214 7.4065-3.322 7.4065-0.0333 0 1.7457-0.88889 2.6667-2.5739 2.6667-1.6541 0-2.7262 1.0721-3 3-0.42067 2.9619-4.8459 4.8024-6.8143 2.834zm993.72-6.5007c0-1.8333 0.6-3.3333 1.3334-3.3333 0.7333 0 1.3333 1.5 1.3333 3.3333 0 1.8333-0.6 3.3333-1.3333 3.3333-0.7334 0-1.3334-1.5-1.3334-3.3333zm-794-0.65362c-12.278-1.2224-18.174-3.0746-28.828-9.0565-10.686-6.0001-15.382-9.9218-21.539-17.988-2.5769-3.376-5.0485-5.7749-5.4924-5.331-0.44389 0.4439-0.80708 3.9717-0.80708 7.8395 0 7.4087-1.8102 10.562-3.1617 5.5081-0.43903-1.6418-1.1914-7.6095-1.6719-13.262-0.86925-10.225-0.85545-10.285 2.7317-11.919 3.1149-1.4192 5.2252-1.1096 15.514 2.2767 6.55 2.1557 11.912 4.3694 11.915 4.9194 9e-3 1.5556-2.5893 1.2136-12.661-1.6667-11.204-3.2041-11.333-3.2109-11.333-0.59731 0 1.1382 1.65 2.6606 3.6667 3.3833s5.0687 3.5829 6.7823 6.3561c4.2769 6.9216 9.6455 10.895 22.63 16.75 9.0961 4.1014 13.508 5.2239 24.654 6.2726 7.4666 0.70255 14.082 1.7835 14.7 2.4022 1.2058 1.2058-4.1158 5.5634-6.3966 5.2379-0.7535-0.1076-5.57-0.61368-10.703-1.1248zm-419-7.013c0.84004-2.5229 5.0006-2.8816 5.0006-0.43109 0 1.2368-1.14 2.0978-2.7778 2.0978-1.6293 0-2.5484-0.6891-2.2229-1.6667zm234.06-2.3124c3.481-6.0984 8.2713-6.8643 8.2713-1.3224 0 2.809-3.6909 5.3016-7.8503 5.3016-2.6068 0-2.6202-0.1264-0.42098-3.9791zm345.27-6.2733c-2.3058-0.60255-3.2692-2.9386-1.3334-3.2329 10.256-1.5592 13.542-0.91092 10.987 2.1678-1.605 1.934-4.9265 2.3004-9.6535 1.0651zm-593.41-6.6002c-1.3901-1.3901 0.37059-3.1474 3.1536-3.1474 1.4234 0 2.588 0.9 2.588 2 0 1.9777-4.0933 2.7956-5.7415 1.1474zm520.55-0.59386c-4.0666-1.6267-3.5565-1.9924 4.1936-3.0068 4.8846-0.63938 6.3333-0.40998 6.3333 1.0028 0 3.2848-4.9629 4.2296-10.527 2.004zm26.659-1.1106c-1.4111-0.89342-0.4822-1.8901 3.7958-4.0726 6.836-3.4874 8.8219-2.3622 3.6648 2.0765-4.1296 3.5544-4.7411 3.718-7.4606 1.9961zm-54.753-1.3531c-1.5671-1.0182-1.1834-1.5633 1.935-2.7489 4.2012-1.5973 12.779-0.29684 13.142 1.9924 0.27784 1.7515-12.554 2.3954-15.077 0.75649zm116.23-0.93881c1.2324-1.2324 3.1347-1.8169 4.3702-1.3428 3.1412 1.2054 1.1589 3.5251-3.0121 3.5251-3.2785 0-3.379-0.16145-1.3581-2.1823zm-142.28-0.99927c-2.204-1.6218-2.3192-2.0921-0.66546-2.7168 2.6019-0.98284 9.2632 0.84472 9.3494 2.565 0.10867 2.17-5.8007 2.2733-8.684 0.15174zm-202-5.2628c0-2.5078 1.2831-3.4911 3.4637-2.6544 2.8361 1.0883 2.2348 4.4321-0.79703 4.4321-1.4667 0-2.6667-0.8-2.6667-1.7778zm184.33-1.7719c-2.3358-0.94251-2.0796-4.3755 0.39739-5.326 1.1952-0.45865 2.8292 0.25433 3.8818 1.6938 2.7453 3.7544 0.57954 5.5928-4.2792 3.6322zm-454.56-4.117c0.20189-2.6709 1.0854-3.7824 3.2534-4.0927 3.3414-0.47834 4.1948 3.3409 1.3763 6.1594-2.776 2.776-4.9233 1.8174-4.6297-2.0667zm650.41 1.137c-1.4725-0.93287-1.2798-1.6997 1-3.9796 4.9588-4.9588 8.5664-3.2377 5.4438 2.597-1.4866 2.7778-3.5445 3.2193-6.4438 1.3826zm-855.59-2.0283c-2.4838-1.8162-2.4371-1.9288 1.1761-2.8357 4.0065-1.0056 7.1553 0.82452 5.6392 3.2775-1.2241 1.9806-3.7242 1.8185-6.8153-0.44184zm21.744-0.88212c-3.7284-2.1716-2.7047-4.1221 2-3.8107 2.3833 0.15773 5.4092-0.17041 6.7242-0.72923 3.36-1.4278 3.8903-0.34794 1.5029 3.0605-2.1745 3.1045-6.39 3.7143-10.227 1.4794zm-43.787-2.4796c-2.7384-2.2947-2.9178-2.8909-1.2134-4.0328 2.8908-1.9368 3.7268-1.716 5.41 1.429 2.2627 4.228-0.33495 5.8397-4.1965 2.6038zm63.593-2.5206c-0.51201-0.82844 1.9108-1.705 6.1754-2.2344 11.733-1.4563 16.041-1.3983 16.615 0.22386 0.37257 1.0545-1.7108 1.5332-6.5246 1.4991-3.8896-0.0275-8.9509 0.38304-11.247 0.91234-2.4746 0.57033-4.5186 0.407-5.018-0.40096zm160.82-3.1142c0.32245-0.97837 1.9561-1.9794 3.6303-2.2244 2.0684-0.30272 2.8562 0.12467 2.4578 1.3333-0.32245 0.97838-1.9561 1.9794-3.6304 2.2244-2.0683 0.30272-2.8561-0.12466-2.4578-1.3333zm436.56-1.209c-3.8092-2.9963-4.4946-5.8184-1.8225-7.5036 2.2517-1.4201 14.238-19.845 26.281-40.4 11.497-19.622 13.38-22.109 14.91-19.698 0.59276 0.93398 1.1553 1.0982 1.2502 0.36484 0.0948-0.73334 0.36992-3.0073 0.61129-5.0533 0.48012-4.0698 5.4652-12.947 7.2706-12.947 1.5558 0 5.3198-3.8967 5.3198-5.5073 0-0.72423-0.6-0.94596-1.3333-0.49273-2.1467 1.3267-1.5466-0.48624 1.5454-4.6683 1.5833-2.1415 3.3153-3.6238 3.8489-3.294 0.53362 0.32978 1.7496-0.3395 2.7022-1.4873 1.2575-1.5152 1.32-2.3416 0.22795-3.0165-0.99663-0.61596 0.71915-4.4145 5.0857-11.259 3.6244-5.6814 6.5898-10.666 6.5898-11.076 0-0.88736 18.856-32.22 23.991-39.865 1.9702-2.9333 8.2669-13.433 13.993-23.333 5.7257-9.9 17.105-28.2 25.288-40.667 8.1827-12.467 15.275-23.717 15.761-25 0.4858-1.2833 1.8021-2.3333 2.9251-2.3333 2.7196 0 2.5766-0.79856-0.7359-4.1111-4.5396-4.5396-1.999-4.3346 4.7335 0.38183 13.308 9.3234 13.103 9.2324 19.376 8.5933 4.917-0.50103 6.801-1.535 10.454-5.7376 7.2823-8.3784 8.5507-11.841 7.9875-21.808-0.3798-6.7216-1.3116-10.12-3.7512-13.68-9.8743-14.411-27.255-15.487-40.158-2.4874-4.6445 4.6792-6.3477 7.5422-7.0035 11.773-0.4766 3.0746-1.5593 6.0183-2.4061 6.5417-1.9199 1.1866-0.4575-11.328 1.5595-13.345 0.7262-0.72629 1.3205-2.6384 1.3205-4.2491 0-3.8262 7.8518-10.668 14.297-12.458 9.9575-2.7652 18.5-1.0006 30.103 6.2185 14.379 8.9463 17.354 29.039 6.3294 42.757-7.4531 9.2744-17.324 12.934-25.995 9.6367-3.206-1.2189-3.3837-1.087-2.6219 1.9484 0.6199 2.4699-0.3045 4.6363-3.8296 8.9742-5.4927 6.7592-32.895 47.774-36.162 54.126-1.2469 2.4245-8.4402 14.124-15.985 26-7.5448 11.876-16.834 26.692-20.643 32.925-8.3592 13.679-7.8242 12.827-19.826 31.585-5.3167 8.3091-9.6667 15.429-9.6667 15.822 0 0.39279-2.9011 5.0371-6.447 10.321-3.5458 5.2835-8.7396 13.806-11.542 18.94-6.8107 12.477-17.163 30.11-23.679 40.333-4.0203 6.3072-6.065 8.3333-8.4098 8.3333-1.7039 0-3.4688 0.6-3.9221 1.3333-1.2844 2.0783-3.9887 1.5838-7.8202-1.4301zm45.516-76.652c-0.44693-0.44693-1.5313 0.58879-2.4097 2.3016-1.5268 2.9771-1.4911 3.0129 0.8126 0.81261 1.3254-1.2659 2.044-2.6673 1.5971-3.1142zm-611.7 76.082c1.7887-2.1552 6.6667-2.7568 6.6667-0.82217 0 0.6478-1.35 1.5396-3 1.9818-4.6701 1.2515-5.4603 1.0016-3.6667-1.1596zm-119.92-1.0813c-3.7338-1.9038-3.8363-4.0962-0.21818-4.6663 1.5663-0.24677 3.2063 0.66387 4.0564 2.2524 1.8189 3.3987 0.15077 4.4478-3.8382 2.4139zm938.92-0.4684c-2.8681-1.1573-1.8202-3.117 1.6667-3.117 2.074 0 3.3333 0.75556 3.3333 2 0 1.9907-1.8246 2.3983-5 1.117zm-796-1.408c-2.6312-0.94383-1.9414-3.0423 1-3.0423 1.4667 0 2.6667 0.56459 2.6667 1.2546 0 1.7067-1.6499 2.5111-3.6667 1.7877zm808.56-1.2645c-0.4888-0.48888-0.8888-1.3262-0.8888-1.8607 0-1.0939 16.385-9.2504 18.583-9.2504 3.1468 0 1.1168 2.4994-3.5826 4.411-2.75 1.1186-6.0442 3.2838-7.3203 4.8114-2.3224 2.78-5.1211 3.5585-6.7909 1.8887zm-973.99-11.53c-3.6945-3.9326-3.6506-4.9141 0.22022-4.9141 1.9988 0 3.6431 1.1496 4.5775 3.2003 2.4707 5.4225-0.36272 6.4346-4.7977 1.7138zm191.09 1.7377c-1.1352-1.8368-0.72889-2.2709 2.6759-2.8584 1.6769-0.28933 2.6667 0.27543 2.6667 1.5216 0 2.4076-4.0538 3.4219-5.3425 1.3367zm488.3-0.76848c-4.1607-2.2564-3.7011-4.55 0.9116-4.55 2.7852 0 7.4613 3.6172 7.4613 5.7716 0 1.5355-4.4994 0.87898-8.3729-1.2217zm-408.81-0.42708c-1.4808-0.93781-1.2987-1.4629 0.91908-2.6498 2.9149-1.56 5.1494 0.0107 3.5944 2.527-1.0042 1.6249-2.0949 1.6546-4.5135 0.12293zm283.85-0.12289c0-0.73333 0.56459-1.3333 1.2546-1.3333s1.6255 0.6 2.0787 1.3333c0.45323 0.73333-0.11133 1.3333-1.2546 1.3333-1.1433 0-2.0787-0.6-2.0787-1.3333zm457.81-4.8347c-1.0316-0.42314-0.6022-2.3264 1.3333-5.9105 3.4077-6.31 7.099-6.6353 6.3921-0.56344-0.7223 6.205-3.2392 8.3142-7.7254 6.4739zm-804.83-3.9624c-1.2975-1.2975 0.48399-4.5363 2.4952-4.5363 1.0215 0 1.8574 1.2 1.8574 2.6667 0 2.5101-2.5967 3.6255-4.3526 1.8696zm351.62-0.63501c-0.48678-0.78761 0.50626-2.913 2.2068-4.7231 2.6071-2.7752 2.838-3.6974 1.473-5.8832-2.3267-3.7256-2.0037-5.295 1.0897-5.295 1.4897 0 2.9311-0.75 3.2031-1.6667 0.27198-0.91667 1.2311-4.5167 2.1314-8 0.90029-3.4833 2.1777-6.3333 2.8388-6.3333 2.8032 0 2.4877 4.6806-1.0823 16.058-4.5076 14.365-9.0358 20.414-11.861 15.844zm-127.27-2.2438c-1.1-0.38191-6.3053-3.9111-11.567-7.8426-5.262-3.9315-9.938-7.1482-10.391-7.1482-0.45306 0-0.6478 2.071-0.43272 4.6022 0.21507 2.5312-0.20896 4.6312-0.94229 4.6667-0.77955 0.0377-1.3333-4.2199-1.3333-10.251 0-11.724 1.2427-12.947 9.2827-9.1317 2.4495 1.1624 6.313 2.1134 8.5855 2.1134s4.1318 0.53496 4.1318 1.1888c0 1.4437-5.7665 3.024-8.2274 2.2547-11.509-3.5978-12.301-0.20137-1.6103 6.9064 12.36 8.2178 14.091 8.8793 24.504 9.3682 9.1766 0.43089 10.638 0.12067 17.745-3.767 16.462-9.0048 26.255-23.699 26.255-39.397 0-10.086-2.106-19.793-5.3274-24.554-1.2405-1.8333-3.6432-6.1584-5.3393-9.6112-3.314-6.7462-9.35-12.302-18.356-16.897-13.37-6.8209-28.754-4.8324-38.413 4.9653-3.2437 3.2902-5.8977 6.4705-5.8977 7.0672 0 1.1728 5.7082-1.0027 9.9634-3.7972 3.1224-2.0506 4.7033-2.2019 4.7033-0.45008 0 1.874-11.089 8.0562-14.45 8.0562-2.283 0-2.8829-0.79355-2.8829-3.8139 0-2.0976-0.38156-6.5976-0.84789-10-0.71053-5.1838-0.49451-6.1861 1.3333-6.1861 1.604 0 2.1812 1.2351 2.1812 4.6667 0 2.5667 0.26297 4.6667 0.58437 4.6667 0.32142 0 2.5078-1.7568 4.8586-3.9039 2.5984-2.3733 7.5764-4.7977 12.697-6.1838 7.1383-1.9322 9.6327-2.0418 16.36-0.71829 17.063 3.3569 26.356 11.048 35.926 29.73 5.558 10.85 5.7676 11.706 6 24.493 0.22169 12.199-0.0628 13.849-3.5884 20.806-4.7557 9.385-12.509 16.887-24.368 23.581-8.3306 4.7015-10.017 5.1586-19.136 5.1853-5.5 0.0161-10.9-0.28313-12-0.66505zm225.5-9.1411c-3.7765-3.6961-5.5556-6.4417-5.0418-7.7807 0.43669-1.138 1.2858-2.0691 1.8868-2.0691 1.4367 0 10.991 11.453 10.991 13.175 0 3.0523-2.3293 2.0638-7.8358-3.3255zm-679.16 0.71011c-3.2981-1.921-2.8979-4.1592 0.65304-3.6526 1.6425 0.23433 3.1865 1.4761 3.4311 2.7594 0.50102 2.6287-0.66618 2.884-4.0841 0.8932zm243.57-1.3756c-1.1362-1.8384 1.8711-3.8521 4.3386-2.9052 1.3927 0.53445 1.4612 1.1332 0.29099 2.5433-1.8503 2.2294-3.4005 2.3506-4.6296 0.36189zm47.759-2.8509c0.30556-0.91667 1.3556-1.6667 2.3333-1.6667s2.0278 0.75 2.3333 1.6667c0.33048 0.99145-0.61481 1.6667-2.3333 1.6667s-2.6638-0.67521-2.3333-1.6667zm-37.773-6.872c2.0881-2.516 5.903-2.8603 5.113-0.46139-0.30189 0.91667-1.9732 1.8743-3.714 2.1281-2.7634 0.40282-2.9409 0.19129-1.399-1.6667zm816.81-0.72783c-0.903-1.4612 3.8566-4.3912 5.1051-3.1427 0.9497 0.94965-1.5854 4.4091-3.231 4.4091-0.6002 0-1.4436-0.56989-1.8741-1.2664zm-614.11-3.2094c-6.3499-2.2708-19.678-11.22-21.343-14.33-4.3379-8.1054-51.298-21.597-84.592-24.302-4.4-0.35759-14.3-1.8617-22-3.3425-7.7-1.4808-16.47-3.0744-19.488-3.5412-5.3491-0.82738-6.9087-2.3746-8.9763-8.9048-0.38832-1.2265-2.0927-2.4298-3.7876-2.6741-2.9421-0.4241-2.8897-0.55996 1.1568-3.0014 2.3311-1.4065 4.5456-3.7324 4.9212-5.1686 0.52453-2.0058 1.397-2.4076 3.7617-1.7326 6.3816 1.8215 38.089 8.6134 46.412 9.9417 18.103 2.8892 41.453 8.3086 56.115 13.024 8.3699 2.6918 17.057 5.1599 19.305 5.4847 3.757 0.54283 4.2131 0.17715 5.6461-4.5266 1.9652-6.4507 6.4286-13.784 8.3898-13.784 0.82257 0 1.1502 0.9 0.7281 2-1.0025 2.6124-0.4665 2.5382 6.1889-0.85715 7.7072-3.9319 16.797-3.7011 27.554 0.69967 10.708 4.3809 13.598 7.071 17.827 16.597 3.226 7.2669 4.1886 12.547 3.7731 20.694-0.32535 6.3785-7.4341 12.089-19.983 16.054-12.34 3.8984-14.839 4.0915-21.609 1.6705zm22.335-4.9333c11.346-3.8315 13.08-6.1299 12.991-17.211-0.0631-7.828-0.6806-10.03-4.7236-16.844-6.7389-11.358-18.199-17.896-28.112-16.036-6.4348 1.2072-17.23 11.352-16.214 15.238 0.61096 2.3364 0.19436 2.9301-2.0559 2.9301-3.1732 0-3.8023 2.0052-0.97011 3.0921 1.0186 0.39088 2.924 3.5175 4.2341 6.948 1.9477 5.1 2.0815 6.7185 0.73398 8.8763-2.427 3.8863 1.1857 8.5878 9.615 12.512 8.4606 3.9392 13.973 4.0507 24.501 0.49539zm-21.965-10.924c-0.74522-0.91667-2.0072-7.6667-2.8045-15-1.3001-11.959-1.2198-13.505 0.77987-15 1.2262-0.91667 2.6719-1.6667 3.2127-1.6667 1.9324 0 5.1737 4.2363 5.1737 6.7619 0 3.6801 1.7352 3.1749 4.3607-1.2696 2.3746-4.0199 8.6082-6.2904 10.968-3.9948 1.4613 1.4218 4.5263 26.126 3.5863 28.906-0.32302 0.95544-1.8363 1.5554-3.3629 1.3333-3.1304-0.45544-4.5519-4.242-4.752-12.658-0.16257-6.8351-1.7982-8.1389-4.6845-3.7339-1.1971 1.827-3.4168 3.3219-4.9326 3.3219-2.4004 0-2.7174 0.73116-2.4569 5.6667 0.41849 7.9272 0.19252 9-1.8957 9-1.0102 0-2.4465-0.75-3.1917-1.6667zm-155.29 10.491c-5.3032-6.3444-5.2204-7.4905 0.54151-7.4905h3.7778v-12.709c0-10.309 0.39459-12.86 2.0896-13.51 2.9701-1.1397 5.6038 1.7255 3.5104 3.8189-2.3007 2.3007-2.0191 15.875 0.40108 19.33 1.6743 2.3905 1.7458 3.9629 0.43767 9.63-1.9686 8.5284-4.2424 8.7251-10.758 0.93025zm-321.01 0.50948c-2.8111-2.8111-2.5598-5.3333 0.53133-5.3333 2.1755 0 5.1506 6.2938 3.467 7.3343-0.67892 0.41962-2.4782-0.48085-3.9984-2.001zm308.94 1.8247c-1.3185-1.3185 1.6041-5.8247 3.7778-5.8247 2.6282 0 2.4994 4.8384-0.15596 5.8574-2.6004 0.99786-2.5912 0.99796-3.6218-0.0327zm-22.677-2.6773c-1.5112-1.5113 0.47462-3.1474 3.8202-3.1474 2.0041 0 3.2546 0.76845 3.2546 2 0 1.9957-5.3577 2.8645-7.0749 1.1474zm385.41-3.2542c-2.7007-1.573-3.1411-5.2265-0.63001-5.2265 2.2521 0 7.63 3.8124 7.63 5.4089 0 1.6463-4.041 1.541-7-0.1824zm426.33-2.5599c-0.4532-0.73333-0.1886-1.3333 0.588-1.3333s1.412 0.6 1.412 1.3333c0 0.73334-0.2646 1.3333-0.588 1.3333s-0.9588-0.6-1.412-1.3333zm-486.81-8.8931c-2.0707-0.74971-0.61418-7.1069 1.6283-7.1069 1.0667 0 1.8446 1.3724 1.8446 3.2546 0 3.4841-1.1048 4.7096-3.4729 3.8523zm-301.1-2.9558c-1.1249-1.8201 2.9348-4.5535 5.3732-3.6178 1.756 0.67383 1.8547 1.2081 0.52038 2.8158-1.8348 2.2108-4.7755 2.611-5.8935 0.80197zm344.57-3.4844c0-1.1-1.2-3.2-2.6667-4.6667-2.431-2.431-3.5535-5.3333-2.0627-5.3333 0.33216 0 2.1466 0.70287 4.032 1.5619 3.4729 1.5824 5.6713 6.4503 4.0776 9.029-1.2845 2.0784-3.3802 1.7121-3.3802-0.59088zm457.57-0.0704c0.603-2.8962 2.9693-3.0734 3.5106-0.26291 0.281 1.4595-0.3729 2.3333-1.7462 2.3333-1.281 0-2.016-0.86246-1.7644-2.0704zm-817.24-0.9296c0.84004-2.5229 5.0006-2.8816 5.0006-0.43109 0 1.2368-1.14 2.0978-2.7778 2.0978-1.6293 0-2.5483-0.6891-2.2228-1.6667zm-312.1-1.8917c0.56521-2.9349 5.767-3.3332 5.767-0.44161 0 1.1-1.4034 2.1987-3.1186 2.4416-2.4184 0.34245-3.013-0.10653-2.6484-2zm329.1-9.6323c0-0.65488 0.94906-1.5549 2.109-2 2.9801-1.1436 3.2243-1.0534 3.2243 1.1907 0 1.1111-1.1852 2-2.6667 2-1.4667 0-2.6667-0.53582-2.6667-1.1907zm-6.6667-2.6667c0-1.3882 0.92271-2.8781 2.0505-3.3108 2.6766-1.0271 4.2772 3.0537 1.8105 4.6157-2.8466 1.8024-3.861 1.4596-3.861-1.3048zm-331.98-1.6982c0.026-3.9637 1.9454-7.035 3.7135-5.9422 1.7219 1.0642 0.0309 7.7984-2.1399 8.522-0.93603 0.31202-1.5856-0.75285-1.5736-2.5798zm1152.6 0.21281c-0.4564-0.73852 0.134-1.7126 1.3121-2.1647 2.5529-0.97963 3.9756 0.0999 2.7485 2.0854-1.1072 1.7914-2.9799 1.828-4.0606 0.0793zm-516.41-4.2212c0.52862-5.3527 3.368-6.4269 4.5491-1.721 0.6019 2.3982 0.28959 3.9554-0.95082 4.741-3.2032 2.0286-4.0285 1.336-3.5983-3.02zm669.67 0.99628c2.8948-2.3476 7.4119-2.8142 7.4119-0.76563 0 0.73334-0.75 1.3415-1.6667 1.3515-0.9167 0.0107-3.1667 0.35454-5 0.76562-3.2172 0.72139-3.2432 0.6743-0.7452-1.3515zm-644.49-4.2788c-2.7906-3.5476-3.785-9.8202-1.5568-9.8202 1.1148 0 8.1267 10.846 8.1267 12.571 0 2.0802-4.1302 0.35103-6.5699-2.7506zm617.69 1.9245c2.6848-0.97793 4.214-0.94736 5.2667 0.1052 1.0889 1.0889 0.083 1.4554-3.7834 1.3781-5.2081-0.10413-5.2246-0.12053-1.4833-1.4833zm-29.686-5.9245c-1.5199-1.9322-2.7635-4.3322-2.7635-5.3333 0-3.5395 3.5711-1.7519 7.0181 3.5132 3.1764 4.8515 3.2668 5.3333 1.0003 5.3333-1.3703 0-3.7351-1.5809-5.2549-3.5131zm95.236-1.1479c5.0219-2.367 7.7171-2.4973 7.008-0.33894-0.3011 0.91667-2.9011 1.7921-5.7777 1.9455l-5.2303 0.27879zm-1351.3-10.672c0-1.1 0.9-2 2-2s2 0.9 2 2-0.9 2-2 2-2-0.9-2-2zm1234.3-1.3987c-2.7228-1.8502-4.9507-3.907-4.9507-4.5706 0-2.8273 2.7408-2.4717 6.8871 0.89352 2.4454 1.9847 4.7062 3.7988 5.024 4.0311s0 1.0047-0.716 1.7163c-0.8362 0.83613-3.0448 0.10387-6.2444-2.0703zm151.72 0.73206c2.5242-2.7893 6-3.5888 6-1.3802 0 1.4614-4.3354 4.0469-6.7856 4.0469-1.0195 0-0.7259-0.99651 0.7856-2.6667zm-746.5-5.5c-1.1713-5.8564-1.0719-6.5 1.0034-6.5 3.026 0 5.1942 3.7005 4.2868 7.316-1.1717 4.6685-4.2894 4.1876-5.2902-0.81602zm525.83 3.4443c0-1.4812 5.3359-6.3861 6.1077-5.6144 1.614 1.6141-1.0175 6.3368-3.5309 6.3368-1.4172 0-2.5768-0.32509-2.5768-0.72241zm-808.59-4.4852c-1.2914-2.0895 0.29871-8.4625 1.8693-7.4918 0.66116 0.40862 1.579 0.1332 2.0396-0.61214 0.96572-1.5626 4.6978-1.8479 4.6442-0.35508-0.0197 0.55-1.7283 3.0407-3.7968 5.5348-2.5857 3.1178-4.072 4.0316-4.7563 2.9242zm1051.1-0.60006c1.0006-1.2058 3.066-2.1923 4.5894-2.1923 3.382 0 1.5952 1.9545-3.0861 3.3758-2.9741 0.90297-3.1319 0.77876-1.5033-1.1835zm-1040.5-2.1446c-1.2961-2.0972 1.7485-10.516 6.2375-17.247 3.8747-5.8103 3.7699-6.907-0.81339-8.5166-2.9085-1.0214 2.0391-5.4182 8.6753-7.7095 7.8394-2.7067 11.361-3.1459 12.353-1.5407 0.94235 1.5248-3.5168 16.877-5.6448 19.434-3.9004 4.687-5.0457 2.1632-2.1787-4.801 1.6788-4.0781-1.5306-2.5225-5.4807 2.6564-2.0932 2.7443-4.8205 7.9943-6.0606 11.667-2.1716 6.4308-5.2373 9.0513-7.0872 6.058zm18.304-26.931c1.3906 0.22877 2.3333-0.45803 2.3333-1.7 0-1.1461-0.63944-2.0838-1.421-2.0838-2.337 0-6.579 2.6601-6.579 4.1256 0 0.76076 0.73787 0.90229 1.6667 0.3197 0.91667-0.57498 2.7167-0.87268 4-0.66154zm265.24 24.883c-0.91388-2.0058-2.6271-3.3333-4.3017-3.3333-3.977 0-7.9409-2.4114-7.9409-4.8308 0-1.694 1.0208-1.8978 5.6154-1.1216 7.2188 1.2196 10.038 3.0392 11.585 7.4782 2.0571 5.901-2.3593 7.5111-4.958 1.8075zm564.46-9.9243c-2.0851-4.0323-1.1095-5.9919 2.3266-4.6733 1.6336 0.62684 4.9676 5.9919 4.9676 7.9937 0 0.33216-1.1845 0.60393-2.6324 0.60393-1.565 0-3.4553-1.5912-4.6618-3.9243zm-851.07-5.409c-0.13134-5.765 0.19857-6.6667 2.4392-6.6667 1.8749 0 2.5911 0.92131 2.5911 3.3333 0 1.8333-0.5168 3.3333-1.1484 3.3333s-0.8617 1.5-0.51123 3.3333c0.44207 2.3125 0.0468 3.3333-1.2908 3.3333-1.4045 0-1.9692-1.8103-2.0799-6.6667zm268.58-2.6667c-2.347-3.9732-2.3422-4 0.72513-4 1.6984 0 3.8374 1.2 4.7534 2.6667 0.91594 1.4667 2.5603 2.6667 3.654 2.6667s1.9887 0.6 1.9887 1.3333c0 0.73333-1.9706 1.3333-4.3792 1.3333-3.4518 0-4.8796-0.84709-6.742-4zm541.79 1.4341c0-0.63185 0.9-1.4942 2-1.9163 1.1-0.42211 2-0.25049 2 0.38137s-0.9 1.4942-2 1.9163c-1.1 0.4221-2 0.25049-2-0.38138zm-1008.9-6.2209c-7.5171-3.6374-16.45-13.156-19.743-21.037-3.1989-7.6561-2.5352-16.52 1.8018-24.063 3.2898-5.722 4.6841-6.8527 10.989-8.9118 3.9717-1.2971 9.8596-2.398 13.084-2.4465 8.9521-0.13467 20.682 4.716 26.216 10.841 4.447 4.9223 4.9789 5.148 8.9907 3.8156 2.3452-0.77892 6.964-3.2126 10.264-5.4082s6.5292-3.9945 7.176-3.9977c0.64678-3e-3 7.146-2.7057 14.443-6.0057 7.2968-3.3 13.875-6 14.619-6s5.9443-2.1832 11.557-4.8515c5.6129-2.6683 14.705-6.7996 20.205-9.1806s13.9-6.1185 18.667-8.3057c4.7667-2.1872 13.167-5.6715 18.667-7.743 5.5-2.0715 11.503-4.7008 13.339-5.8428 1.8365-1.142 4.5365-2.7379 6-3.5463 1.9503-1.0774 2.7695-3.1248 3.0673-7.6667 0.34088-5.1979 0.84128-6.1968 3.1043-6.1968 2.3065 0 2.6344 0.72543 2.2603 5-0.37033 4.2314-0.0624 4.936 2.003 4.5836 3.5145-0.59964 8.4495 3.0571 9.163 6.7897 1.0092 5.2796-1.0672 8.5782-6.5111 10.344-2.8009 0.9083-8.9925 3.5899-13.759 5.9591-4.7667 2.3692-10.079 4.7464-11.804 5.2827-1.7256 0.53624-5.3067 2.447-7.958 4.2462-2.9107 1.9752-5.9151 2.9965-7.5834 2.5778-2.3819-0.59781-13.346 5.4392-20.154 11.097-2.808 2.3336-17.641 9.3978-30.754 14.646-20.106 8.0479-29.574 12.671-39.747 19.411-7.4517 4.9369-10.179 6.0584-13.526 5.5629-3.8999-0.57729-4.3448-0.22293-6.3669 5.0718-2.6433 6.9214-5.7377 9.884-15.961 15.281-9.4341 4.9804-12.674 5.0837-21.748 0.69303zm19.346-4.0125c11.996-6.6451 14.2-9.9811 13.84-20.945-0.4629-14.109-7.7231-24.575-19.19-27.663-10.482-2.8224-19.278 1.397-27.304 13.097-4.9461 7.21-5.1879 9.3906-1.9312 17.415 3.5345 8.7087 9.0882 14.821 16.676 18.354 8.6204 4.0139 10.238 3.9905 17.909-0.25865zm1.9559-12.073c-0.89872-0.3639-2.026-3.6165-2.5051-7.2281-0.96729-7.2918-0.88425-7.1989-4.4468-4.9741-1.9788 1.2358-3.341 1.2318-6.0837-0.0177l-3.5339-1.6102 0.38476 6.2568c0.26394 4.2922-0.17118 6.4421-1.3857 6.847-3.0194 1.0065-4.0871-2.6498-4.1083-14.068-0.0233-12.585 1.4968-13.94 7.9215-7.0622l3.6784 3.9378 3.8238-3.9911c2.2888-2.389 4.9073-3.8359 6.5232-3.6044 2.3999 0.34377 2.8003 1.7117 3.6084 12.328 1.068 14.03 0.76367 15.065-3.8764 13.187zm453.23 14.947c0-4.1504 0.40975-4.7419 3.2845-4.7419 2.9024 0 3.2359 0.50412 2.8667 4.3333-0.31377 3.2543-1.1316 4.4351-3.2845 4.7419-2.4726 0.35242-2.8667-0.24332-2.8667-4.3333zm565.61 2.7538c-1.0792-2.8122 0.4356-4.8291 3.6269-4.8291 2.0143 0 2.5748 0.7424 2.2547 2.9864-0.4973 3.4853-4.7411 4.8149-5.8816 1.8427zm-1219.2-0.72c0-2.6038 1.6689-5.3924 2.8064-4.6894 1.9798 1.2236 1.3402 5.9137-0.80638 5.9137-1.1 0-2-0.55094-2-1.2243zm649.33-12.729c0-2.1737 4.5061-5.0963 5.8247-3.7778 0.46308 0.46309 0.84197 1.942 0.84197 3.2864 0 1.7185-0.98989 2.4444-3.3333 2.4444-2.0385 0-3.3333-0.75868-3.3333-1.9531zm-16.693-2.0892c-0.51782-0.83784-0.31408-2.1507 0.45272-2.9175 1.7919-1.7919 5.9695-0.22892 5.2405 1.9606-0.74213 2.2289-4.5152 2.8631-5.6932 0.95695zm582.6-2.7734c-0.9669-1.5645 1.6112-3.796 4.4255-3.8305 2.4046-0.0295 2.0534 3.5459-0.4424 4.5036-2.7919 1.0714-2.9181 1.05-3.9831-0.67308zm254.43-0.80774c-2.6511-0.95238-1.9301-4.3765 0.9213-4.3765 1.4234 0 2.9168 0.53201 3.3187 1.1822 0.9809 1.5872-2.1493 3.9454-4.24 3.1943zm-1067-1.6464c0-2.0363 13.268-14.73 15.397-14.73 2.9789 0 2.4963 0.7363-5.6631 8.6392-7.4412 7.2074-9.7338 8.642-9.7338 6.0909zm248.78-3.0635c-2.1803-7.6901-3.4438-12.883-3.4438-14.155 0-2.5343 3.8135-1.6851 5.3533 1.192 0.79594 1.4872 1.9491 2.3938 2.5625 2.0147 2.5771-1.5927 3.8766 2.6731 2.3248 7.6311-1.5501 4.9524-5.7518 7.0029-6.7969 3.3169zm-270.72-4.632c-0.50612-2.7691-1.7896-6.3847-2.8523-8.0347-1.7624-2.7365-1.7096-3 0.60204-3 3.3602 0 5.4945 2.7648 6.3889 8.2762 0.50074 3.0858 0.10746 5.033-1.243 6.1537-1.6696 1.3856-2.118 0.85995-2.8957-3.3952zm-378.54 2.599c-0.35111-0.56812-0.22627-3.048 0.27743-5.5108 0.78063-3.8169 1.1627-4.1804 2.5884-2.4626 1.2091 1.4568 1.3043 2.984 0.34355 5.5108-1.3827 3.6368-2.1295 4.2098-3.2094 2.4626zm1214.6-2.8532c-0.4293-0.69462-0.2122-1.6142 0.4824-2.0435 0.6946-0.42931 1.6142-0.21223 2.0435 0.4824s0.2122 1.6142-0.4824 2.0435c-0.6947 0.42931-1.6142 0.21223-2.0435-0.4824zm353.26-0.11388c-0.4532-0.73333 0.4468-1.3333 2-1.3333s2.4532 0.6 2 1.3333c-0.4532 0.73334-1.3532 1.3333-2 1.3333s-1.5468-0.6-2-1.3333zm-945.33-1.3333c0.45323-0.73333 1.6886-1.3333 2.7454-1.3333s1.9213 0.6 1.9213 1.3333-1.2354 1.3333-2.7454 1.3333c-1.51 0-2.3745-0.6-1.9213-1.3333zm876 0c-1.088-1.7605 0.3692-4 2.6027-4 1.9502 0 3.6889 3.2639 2.4165 4.5363-1.2433 1.2433-4.1085 0.93718-5.0192-0.53631zm45.556-3.5556c-1.5343-1.5342-0.9711-3.1111 1.1111-3.1111 1.1 0 2 0.9 2 2 0 2.0821-1.577 2.6453-3.1111 1.1111zm-1121.6-4.4444c0.45322-0.73333 1.424-1.3333 2.1574-1.3333s0.96252 0.6 0.50929 1.3333c-0.45322 0.73333-1.424 1.3333-2.1574 1.3333s-0.96252-0.6-0.50929-1.3333zm783.33-1.2546c0-0.69005 0.6-1.6255 1.3334-2.0787 0.7333-0.45323 1.3333-2.2886 1.3333-4.0787 0-2.0041 0.7684-3.2546 2-3.2546 2.6763 0 2.6111 5.8651-0.095 8.5714-2.3405 2.3405-4.5715 2.7507-4.5715 0.8406zm-768.7-1.4702c-0.43344-0.70131-0.41724-1.8751 0.036-2.6084 1.2321-1.9935 4.6667-1.6079 4.6667 0.52401 0 2.2607-3.6059 3.859-4.7026 2.0844zm174.3-0.20844c-1.8146-1.8146-2.1494-5.0667-0.5215-5.0667 2.3245 0 5.9435 3.6796 5.0465 5.1311-1.2129 1.9625-2.5167 1.9439-4.525-0.0644zm861.81-2.7333c2.0496-6.6856 5.9267-7.8178 5.9267-1.7306 0 2.8473-2.2024 4.7306-5.5323 4.7306-0.7464 0-0.9168-1.296-0.3944-3zm-126.07-2.1642c-2.6044-0.8302-1.2922-1.2472 6-1.9069 25.181-2.278 31.456-4.6436 35.409-13.351 1.3929-3.068 2.5424-7.3782 2.5545-9.5782 0.031-5.675-2.6321-14.541-3.9531-13.16-0.6102 0.63792-1.8662 5.9598-2.7912 11.827-0.9249 5.8667-2.1634 11.222-2.7522 11.902-1.764 2.0355-6.5735-3.1935-5.276-5.7363 1.5997-3.1351 2.8181-12.166 1.6414-12.166-0.55 0-2.7245 1.8-4.8322 4-4.5443 4.7432-7.7642 5.0726-10.56 1.0804-2.4803-3.5412-2.6938-3.3284-4.2678 4.2529-1.0232 4.9291-1.7149 5.9179-3.8753 5.5399-1.4464-0.25305-2.8732-0.69641-3.1707-0.98524-0.2974-0.28884 0.3026-5.4818 1.3334-11.54 1.7512-10.293 2.1008-11.041 5.3305-11.416 2.6517-0.30812 4.3123 0.72064 7.1333 4.4193 3.283 4.3042 3.9128 4.6142 5.877 2.8926 1.21-1.0605 3.55-2.3396 5.2-2.8424s3-1.4334 3-2.0679c0-0.63449 1.2-1.5345 2.6666-2 4.0815-1.2954 3.2176-2.764-3-5.1005-8.0181-3.0131-19.934-3.2381-24.179-0.45665-3.514 2.3025-8.8211 3.0112-8.8211 1.178 0-0.57523 1.8368-2.1309 4.0816-3.457 5.9572-3.519 24.63-2.2529 33.984 2.3042 7.8341 3.8166 8.7075 4.7848 11.749 13.026 1.8347 4.9707 2.011 7.3339 0.9128 12.234-2.1694 9.6804-4.2237 12.963-9.9904 15.966-7.5293 3.9205-32.864 7.2262-39.404 5.1414zm-698.25-2.6258c-0.73676-0.48215-1.6761-2.9766-2.0874-5.5433-0.4113-2.5667-0.95407-5.531-1.2062-6.5875-0.25212-1.0564 0.51311-2.1353 1.7005-2.3975 1.5686-0.34633 2.7535 1.3412 4.3333 6.1714 1.196 3.6564 2.1745 6.9211 2.1745 7.2548 0 1.1667-3.5869 1.9711-4.9147 1.1021zm682.91-1.7696c-6.8972-3.5888-6.6666-3.3046-6.6666-8.2182v-4.2222l-32-0.40377c-17.6-0.22208-40.7 0.22648-51.333 0.9968-20.708 1.5002-24.828 1.1-25.978-2.5235-0.4031-1.2701-2.223-3.1067-4.0442-4.0813-4.0236-2.1534-4.2469-4.7269-0.5805-6.6891 1.8345-0.98174 2.4731-2.2733 1.9458-3.9347-0.4317-1.3603-0.1606-2.8592 0.6026-3.3308 0.7632-0.47166 1.3876-1.9487 1.3876-3.2823 0-1.3336 0.9-3.1716 2-4.0846 1.6304-1.3532 2-1.2806 2 0.39229 0 1.1287 0.75 2.3645 1.6666 2.7462 1.2128 0.50501 1.0313 1.2107-0.6666 2.5914-1.2834 1.0436-2.3334 2.3008-2.3334 2.7937 0 0.49297 4.95 0.42682 11-0.14699 11.616-1.1017 82.27-1.4177 97-0.43375l8.6667 0.57891 2.6667-4.924c1.4666-2.7082 3.4354-4.9256 4.3752-4.9276 3.1878-7e-3 3.229 3.91 0.095 8.9626-5.6197 9.0574-9.3408 18.269-9.5738 23.7-0.217 5.0558 0.081 5.4895 5.7204 8.3333 4.8097 2.4254 5.3204 2.9887 2.6666 2.9411-1.8053-0.0324-5.6825-1.3077-8.6158-2.834zm-958-0.44039c0-1.1111 1.1852-2 2.6667-2s2.6667 0.8889 2.6667 2c0 1.1111-1.1852 2-2.6667 2s-2.6667-0.88889-2.6667-2zm-372.69-3.3595c1.5988-7.471 3.2664-9.3854 3.3132-3.8038 0.0242 2.8856-0.8362 5.5644-2.1329 6.6405-1.9622 1.6285-2.0769 1.3529-1.1803-2.8368zm458.27 2.6095c0.32084-0.9625 1.3708-2.0125 2.3333-2.3333 1-0.33333 1.5 0.16667 1.1667 1.1667-0.32084 0.96249-1.3708 2.0125-2.3333 2.3333-1 0.33333-1.5-0.16667-1.1667-1.1667zm138.4-1.2753c-1.3748-2.5687-1.2172-2.8101 1.5764-2.4143 1.7071 0.24181 3.1038 1.2897 3.1038 2.3286 0 3.0989-3.0378 3.1546-4.6802 0.0857zm-156.65-1.308c0.45323-0.73333 1.0886-1.3333 1.412-1.3333s0.58797 0.6 0.58797 1.3333-0.63541 1.3333-1.412 1.3333c-0.77662 0-1.0412-0.6-0.58798-1.3333zm130.61-2.7554c-0.48338-0.78212-0.54467-1.7563-0.13619-2.1647 1.0968-1.0969 4.8577 0.61536 4.8577 2.2116 0 1.8097-3.5962 1.774-4.7215-0.0468zm-115.28-1.102c0-0.65488 0.9-1.536 2-1.9582 1.2183-0.46749 2-3e-3 2 1.1907 0 1.077-0.9 1.9582-2 1.9582s-2-0.53581-2-1.1907zm-296.11-2.9943c-3.6128-15.575-3.6827-18.482-0.44382-18.482 1.2384 0 1.8952 1.4922 1.9071 4.3333 0.0429 10.232 3.118 12.638 10.648 8.3333 3.937-2.2506 5.3333-2.4507 5.3333-0.76432 0 2.3186-16.951 8.7114-17.445 6.5794zm390.11-1.1484c-0.46736-0.75621 0.65283-1.3333 2.588-1.3333 1.8766 0 3.412 0.6 3.412 1.3333s-1.1646 1.3333-2.588 1.3333c-1.4234 0-2.9588-0.6-3.412-1.3333zm-339.54-0.64673c-0.35571-0.35571-3.4557-0.753-6.8889-0.88286-8.879-0.33584-7.7516-2.4347 1.4245-2.652 4.2167-0.0999 6.3167-0.4416 4.6667-0.7594-1.869-0.35999-3-1.5431-3-3.1382 0-3.4576-12.483-11.591-19.333-12.596-7.0914-1.0406-13.685 2.4452-17.039 9.0082-2.6226 5.1312-4.9608 6.547-4.9608 3.0038 0-3.7529 9.3828-12.581 14.971-14.086 6.3809-1.7182 16.543 0.26699 21.558 4.2111 1.7742 1.3956 4.1457 2.5374 5.2701 2.5374 1.1244 0 2.4152 0.6 2.8684 1.3333 1.6243 2.6282 3.3333 1.261 3.3333-2.6667 0-2.2 0.6-4 1.3333-4s1.3333 2.925 1.3333 6.5 0.375 8.375 0.83334 10.667c0.75254 3.7627 0.51556 4.1667-2.4444 4.1667-1.8028 0-3.5688-0.29103-3.9245-0.64673zm325.54-1.2106c0-2.2607 3.6059-3.859 4.7026-2.0844 0.43344 0.7013 0.41724 1.8751-0.036 2.6084-1.2321 1.9935-4.6667 1.6078-4.6667-0.52402zm-65.333-0.80932c0-0.73333 0.93542-1.3333 2.0787-1.3333s1.7079 0.6 1.2546 1.3333c-0.45323 0.73334-1.3886 1.3333-2.0787 1.3333-0.69005 0-1.2546-0.6-1.2546-1.3333zm-94.667-4c0-4.3746 1.4291-5.0978 3.9859-2.017 2.0094 2.4212 0.84764 6.017-1.9441 6.017-1.3798 0-2.0418-1.2969-2.0418-4zm110.67 2c0-1.1 0.97347-2 2.1633-2 1.7717 0 1.8628 0.36199 0.50341 2-0.91292 1.1-1.8864 2-2.1632 2-0.27688 0-0.50342-0.9-0.50342-2zm992.48-2.6584c0.47-1.2245 0.8544-2.4773 0.8544-2.784 0-0.30668 1.244-0.55762 2.7644-0.55762 3.9271 0 2.7749 4.5389-1.2991 5.1173-2.5026 0.35534-2.9933-0.0203-2.3197-1.7757zm-973.11-0.61962c-0.47844-0.77413 0.094-1.7774 1.2721-2.2295 2.9332-1.1256 3.8457 0.11146 1.5113 2.0489-1.3141 1.0906-2.186 1.1472-2.7834 0.18058zm16.096 0.29724c-1.605-1.605-0.72928-3.0192 1.8696-3.0192 1.4667 0 2.6667 0.53582 2.6667 1.1907 0 1.4987-3.4682 2.8967-4.5363 1.8286zm460.54-3.797c-1.8334-1.0173-5.5099-1.8585-8.1701-1.8693-2.6602-0.0107-5.5361-0.86227-6.3908-1.8921-3.7468-4.5146 3.1773-13.251 11.882-14.992 4.5475-0.90951 5.0408 0.18435 1.7319 3.8406-1.9672 2.1737-2.013 2.6888-0.3334 3.7512 3.4362 2.1734 6.1967 1.3742 10.573-3.061 8.1828-8.2926 13.892-24.261 15.958-44.636 1.2527-12.351 0.9028-15.172-3.1055-25.032-2.3904-5.88-10.342-11.74-17.814-13.128-13.407-2.4905-44.331 7.3368-44.331 14.088 0 2.0438-1.346 3.9277-3.8724 5.4201-6.488 3.8325-8.9591 3.0073-12.58-4.201-3.9893-7.9424-2.8336-11.81 2.1343-7.1432 3.8119 3.581 5.2482 3.6901 8.0356 0.61007 3.4556-3.8184 18.379-10.841 26.131-12.296 9.6644-1.8147 22.436-1.6065 28.214 0.4599 5.6632 2.0252 17.282 9.8184 17.867 11.984 0.2291 0.8473 1.5006 4.955 2.8258 9.1284 2.1455 6.7571 2.2495 9.2388 0.9496 22.667-2.413 24.926-8.6892 40.06-19.296 46.527-4.7634 2.9047-5.2106 3.6399-4.5939 7.5513 0.756 4.7946-0.3905 5.2327-5.8157 2.2223zm-614.14-9.1114c-1.1036-2.8759 0.4319-6.4587 2.476-5.7773 0.91628 0.30542 1.666 1.9553 1.666 3.6664 0 3.6544-2.969 5.1676-4.1419 2.1109zm277.17-11.111c-0.72772-3.4833-1.5572-7.2333-1.8434-8.3333-0.33087-1.272 0.42641-2 2.0804-2 3.6026 0 7.3673 11.492 4.7843 14.605-2.7077 3.2626-3.6072 2.4974-5.0213-4.2712zm-631.67 0.66667c0.49859-2.3833 1.7463-5.2119 2.7726-6.2857 1.626-1.7012 1.8661-1.5837 1.8661 0.9132 0 4.1118-2.3475 9.7058-4.0729 9.7058-0.9581 0-1.1557-1.5134-0.56575-4.3333zm1467.3-0.13437c0-3.7244 2.9954-10.199 4.7184-10.199 2.841 0 3.278 1.865 1.6674 7.1133-1.0138 3.3029-2.2916 4.8867-3.9428 4.8867-1.3436 0-2.443-0.81047-2.443-1.801zm-251.11-13.755c-1.8128-1.8128-0.7928-3.1111 2.4444-3.1111 2.0741 0 3.3333 0.75556 3.3333 2 0 1.9999-4.1005 2.7884-5.7777 1.1111zm-1208.2-1.7386c-0.988-1.5986 2.891-9.3725 4.6767-9.3725 1.7115 0 1.6512 0.57635-0.63287 6.0428-2.0333 4.8663-2.7364 5.4452-4.0438 3.3297zm932.35-2.9737c-0.8798-2.4298 0.4347-26.376 1.4546-26.501 0.4603-0.0561 1.9344-0.30999 3.2757-0.56416 1.6385-0.3105 3.3334 1.0541 5.1649 4.1582 3.1632 5.3612 4.722 5.2535 8.3964-0.58003 2.1482-3.4107 3.4442-4.17 6.6666-3.9062 2.8018 0.22941 3.8466 0.92665 3.488 2.3275-0.2817 1.1-0.8106 6.6814-1.1754 12.403-0.6162 9.6645-0.8638 10.374-3.4879 10-2.1879-0.31222-2.7417-1.2072-2.4566-3.9696 0.4413-4.276-1.4331-5.8334-3.7136-3.0855-2.1347 2.5722-7.85 2.5627-8.839-0.0147-1.4836-3.8662-3.0069-1.9353-3.4091 4.3214-0.2933 4.5623-1.009 6.4356-2.5719 6.7321-1.1911 0.22593-2.4478-0.36868-2.7927-1.3214zm263.97-15.399c1.0582-9.8514 2.8616-9.7304 3.9886 0.26747 0.6099 5.4113 0.3949 6.0659-1.9926 6.0659-2.3994 0-2.6059-0.65534-1.996-6.3333zm266.39 3.3333c-0.2866-0.91666-0.8835-3.8564-1.3267-6.5327-0.4433-2.6763-1.7296-5.6326-2.8585-6.5696-5.3347-4.4274-6.9043-13.231-2.359-13.231 1.945 0 2.3748 0.79256 3.6719 6.7706 0.4103 1.8905 2.2553 5.066 4.1003 7.0566 3.667 3.9569 5.4318 9.0352 4.2289 12.17-0.9303 2.4243-4.7311 2.6586-5.4569 0.33632zm-838.48-5.8611c-2.054-2.054-0.8632-5.8056 1.8427-5.8056 2.074 0 2.6536 0.7192 2.3333 2.8956-0.44248 3.0071-2.5856 4.5004-4.1761 2.91zm-308.7-6.535c-2.0228-4.4396-1.988-4.6039 0.97665-4.6039 2.4933 0 4.1426 2.4322 4.1426 6.1091 0 3.142-3.4663 2.1229-5.1193-1.5051zm-302.88 1.3084c0-0.41488 0.66449-1.9959 1.4766-3.5135 1.114-2.0815 1.7386-2.3353 2.5433-1.0332 1.4073 2.2771 0.17366 5.301-2.1626 5.301-1.0215 0-1.8573-0.33944-1.8573-0.75432zm1239.9-12.646c-2.2061-1.3634-0.6854-3.1923 3.7748-4.5398 2.0592-0.62213 3-0.35157 3 0.86275 0 2.587-4.5461 5.0545-6.7748 3.6771zm197.77-4.8162c-0.9166-0.36988-1.6666-1.2642-1.6666-1.9875 0-1.8762 5.6809-0.79747 6.34 1.2038 0.552 1.6761-1.577 2.033-4.6734 0.78363zm-252.3-1.4503c0.016-0.55 1.1791-2.4961 2.584-4.3246 2.2718-2.957 2.6529-3.0676 3.4463-1 1.3038 3.3978-0.247 6.3246-3.3514 6.3246-1.4897 0-2.6952-0.45-2.6789-1zm-895.16-2.7249c-1.7274-2.9441-2.194-9.4544-0.74195-10.352 2.0364-1.2586 5.2091 2.9169 5.2091 6.8556 0 2.8255-3.331 5.4326-4.4672 3.4962zm960.72-0.37511c0.2627-0.78833 0.9128-1.3883 1.4444-1.3333 0.5318 0.0549 1.9022 0.1 3.0454 0.1 1.1433 0 1.7078 0.6 1.2546 1.3333-1.1124 1.7999-6.3473 1.7087-5.7444-0.1zm-633.59-3.1222c0-1.1611 0.95-2.1111 2.1111-2.1111 1.1611 0 1.8736 0.7125 1.5833 1.5833-0.82409 2.4723-3.6944 2.8823-3.6944 0.52777zm-604-0.57112c0-2.0604 5.1415-5.8159 6.6695-4.8716 1.0489 0.64825 0.81 1.6967-0.7893 3.464-2.3433 2.5893-5.8802 3.436-5.8802 1.4076zm1256.9-7.706c-0.5198-0.51983-0.9451-1.485-0.9451-2.1448 0-1.6274 6.674-0.70091 7.0415 0.97745 0.344 1.5714-4.7223 2.5415-6.0964 1.1674zm-1240.7-1.9174c0.32083-0.96251 1.3708-2.0125 2.3333-2.3333 1-0.33334 1.5 0.16666 1.1667 1.1667-0.32084 0.9625-1.3708 2.0125-2.3333 2.3333-1 0.33333-1.5-0.16667-1.1667-1.1667zm1253.7-1.3252c-1.0199-1.6502 1.5261-3.8702 4.4776-3.9044 2.5133-0.0291 1.3169 4.5299-1.322 5.0381-1.2067 0.23236-2.6266-0.27783-3.1556-1.1338zm112.82-4.8013c-3.8227-2.6775-1.744-5.4278 2.4185-3.2 1.5455 0.82708 2.8099 2.0472 2.8099 2.7115 0 2.349-2.2695 2.5611-5.2284 0.48854zm-89.438-4.4568c0-2.0741 0.889-2.6667 4-2.6667 4.8983 0 5.2243 2.2672 0.5799 4.033-4.5377 1.7252-4.5799 1.7126-4.5799-1.3663zm-1269.3-3.9649c-1.4897-0.94184-1.6071-1.6392-0.46755-2.7787 1.9354-1.9354 7.1231-0.35742 7.1231 2.1668 0 2.1625-3.6694 2.4998-6.6555 0.61192zm233.32-1.4662c0-1.9081 0.71802-2.6262 2.318-2.318 3.4756 0.66934 3.8633 5.0824 0.4464 5.0824-1.9081 0-2.7644-0.85631-2.7644-2.7644zm356.8 1.6394c-0.4614-0.74656-0.1892-1.7589 0.60488-2.2497 2.05-1.267 3.3726 0.46847 1.6613 2.1798-0.95758 0.95757-1.7034 0.98057-2.2662 0.0699zm560.63-0.54164c0.051-0.91666 0.5573-2.8533 1.1239-4.3036 0.9989-2.5566 1.0791-2.5456 2.6346 0.3609 0.8824 1.6488 1.2412 3.5854 0.7974 4.3036-1.165 1.885-4.6666 1.6076-4.5559-0.3609zm175.24-0.29057c-2.5116-1.9508-2.3192-2.0502 3.3345-1.7232 3.3 0.19091 5.8687 0.9471 5.7082 1.6804-0.4863 2.2209-6.2035 2.248-9.0427 0.0428zm-30.666-3.3761c-1.2186-1.9719 0.4714-4 3.3334-4 3.2632 0 4.8617 2.6354 2.5041 4.1286-2.4548 1.5549-4.8293 1.5026-5.8375-0.12867zm-1259-13.596c0.66364-1.9909 12.603-5.9352 13.935-4.6035 1.7043 1.7043-2.8415 4.5277-8.7012 5.4043-4.3324 0.64812-5.6497 0.44657-5.234-0.80076zm177.14-2.7373c-1.2087-3.2139 0.0213-4.4097 3.2581-3.1676 2.609 1.0012 2.5362 6.1676-0.0869 6.1676-1.1236 0-2.5507-1.35-3.1712-3zm-150.45-2.7025c-4.955-2.2655-3.2935-5.4886 2.102-4.0777 2.7991 0.73199 3.9483 3.6804 1.898 4.8694-0.55 0.31898-2.35-0.0373-4-0.79173zm13.708-7.5638c-1.0194-1.6495 2.1606-3.1618 5.2845-2.5131 1.1816 0.24534 2.1353 1.0461 2.1193 1.7794-0.0403 1.8507-6.3284 2.4738-7.4038 0.73367zm117.87-2.1686c-1.4455-1.7417-1.4164-2.3088 0.17006-3.3116 2.7298-1.7256 4.5147-0.82805 5.007 2.5177 0.50691 3.445-2.5836 3.9189-5.1771 0.79393zm-86.944-3.3542c-3.0266-1.762-1.7382-3.8775 2.3614-3.8775 3.8129 0 5.736 2.5039 3.1708 4.1286-2.2953 1.4538-2.6297 1.4386-5.5322-0.25115zm14.028 0.57279c-2.8703-1.1582-1.8275-2.8698 2.3008-3.7765 4.6861-1.0292 6.8744-0.0152 5.8316 2.7022-0.73034 1.9032-4.7591 2.4354-8.1324 1.0742zm1031-6.1292c0.269-3.1099 0.5384-5.9544 0.5986-6.3211 0.06-0.36667 0.9904 0.49801 2.067 1.9215 2.6926 3.5598 2.4518 7.0536-0.5985 8.686-2.361 1.2636-2.5189 0.93621-2.0671-4.2864zm-1007.8 2.3919c-3.1593-2.3935-1.7327-4.7188 2.8789-4.6926 4.7985 0.0273 7.4929 1.9002 6.4908 4.5117-1.0033 2.6145-6.0293 2.7115-9.3697 0.18087zm28.687-0.54841c-1.335-0.84622-1.0274-1.3246 1.2314-1.9153 3.2551-0.85124 5.2146-0.16381 5.2146 1.8294 0 1.5537-4.0454 1.6076-6.446 0.0859zm442.45-23.498c0-1.8889 0.77038-3.3333 1.7778-3.3333 2.8157 0 3.5705 1.4807 2.1284 4.1753-1.8864 3.5247-3.9062 3.0893-3.9062-0.84198zm538.17-1.7267c-0.3628-0.587-0.1898-1.8274 0.3844-2.7565 0.5742-0.92907 0.7472-3.3004 0.3847-5.2697-0.6573-3.5697-0.6507-3.5729 2.2013-1.0405 1.5734 1.397 2.8607 3.6259 2.8607 4.9531 0 2.5725-4.7239 5.905-5.8311 4.1135zm-522.17-22.273c0-3.1743 0.61442-4.6667 1.9213-4.6667 2.7309 0 3.6267 2.0139 2.6416 5.9387-1.3044 5.197-4.5629 4.2887-4.5629-1.272zm522.73-7.9265c-1.9817-2.3879-0.8177-6.5477 1.6064-5.7405 2.118 0.7052 2.9736 4.8928 1.3345 6.5319-0.7754 0.7754-1.8893 0.47565-2.9409-0.79132zm-505.39-18.245c0-2.7621 8.1933-15.867 9.4389-15.097 2.1897 1.3533 1.311 4.6666-2.8363 10.695-3.9358 5.7206-6.6026 7.4987-6.6026 4.4025zm497.16-13.496c-0.094-0.18333-0.3173-1.5333-0.4971-3-0.1799-1.4667-0.5533-4.1109-0.8299-5.8761-0.7604-4.8533 2.3192-4.8423 4.0123 0.0144 2.0451 5.8666 1.8586 9.195-0.5151 9.195-1.1 0-2.0766-0.15-2.1702-0.33333zm-6.8378-23.119c-0.6717-0.67171 0.1749-9.8568 1.0058-10.912 1.1257-1.43 4.6688 1.9078 4.6688 4.3983 0 5.9018-2.9269 9.2617-5.6746 6.514zm-448.54-5.3006c-0.46498-1.2117 0.87618-4.401 3.1994-7.6081 7.3793-10.187 10.029-6.8998 2.9238 3.6275-4.5305 6.713-4.966 6.996-6.1232 3.9806zm438.22-18.58c0-4.728 1.5447-5.7586 5.1805-3.456 2.7792 1.7601 0.7903 8.1227-2.5392 8.1227-2.1297 0-2.6413-0.90385-2.6413-4.6667zm-407.26-12.546c-1.3519-2.1874 0.70636-5.1748 5.9616-8.6525 6.7149-4.4437 7.7507-2.488 2.2914 4.3264-4.2862 5.3501-6.8044 6.6701-8.253 4.3261zm399.26-4.1203c0-3.0404 2.9474-3.5416 5.1585-0.87732 1.7615 2.1225 0.6729 3.544-2.714 3.544-1.5556 0-2.4445-0.9697-2.4445-2.6667zm-376-13.688c0-1.7984 12.134-10.312 14.698-10.312 2.9291 0 0.41075 3.2253-5.9306 7.5953-6.9127 4.7638-8.7671 5.3384-8.7671 2.7166zm369.27-3.0579c-1.3188-1.5891-0.9903-1.9207 1.9025-1.9207 3.7475 0 4.7258 1.9097 1.5941 3.1114-1.0464 0.40154-2.6199-0.13427-3.4966-1.1907zm-14.564-6.543c-1.4534-1.7513-1.1795-2.0444 1.911-2.0444 2.1923 0 3.4007 0.62119 3.08 1.5833-0.8284 2.4852-3.1343 2.6982-4.991 0.46108z" stroke-width="1.3333"/>
</svg>
