<?xml version="1.0" encoding="UTF-8"?>
<svg width="467.48" height="419.69" version="1.1" viewBox="0 0 467.47946 419.69125" xmlns="http://www.w3.org/2000/svg">
 <g transform="translate(-995.96 -19.864)">
  <path d="m1419 414.26c-2.7315-2.9474-4.7147-3.4153-4.7147-1.1125 0 2.6962-4.6839 3.6213-12.901 2.5479-11.491-1.501-45.755-3.9086-72.099-5.066-12.925-0.5679-26.875-1.2898-31-1.6042-4.125-0.3145-18.525-0.961-32-1.4366s-28.1-1.3205-32.5-1.8775-37.475-1.2636-73.5-1.5701c-66.333-0.5645-79.032-1.0731-79.73-3.1936-0.6144-1.8663 6.187-4.6028 9.5851-3.8565 4.739 1.0409 4.6719-1.237-0.076-2.5879-10.462-2.9764-6.8029-4.9332 5.9883-3.2028 12.338 1.669 55.746 2.7122 68.168 1.6384l9.4357-0.81574-0.2213-11c-0.1353-6.7243 0.3743-14.04 1.3111-18.822 2.292-11.698 2.213-11.771-12.774-11.837-6.7028-0.0294-14.887-0.034-18.187-0.0103s-15.383 0.11569-26.852 0.20434c-21.182 0.16373-24.317-0.32072-21.789-3.3666 0.6462-0.7786 0.8695-2.2114 0.4963-3.184-0.6379-1.6625 0.2438-1.7256 14.733-1.054 9.7792 0.45327 16.384 0.34376 18.072-0.29965 2.5654-0.97773 2.6447-1.2394 2.2177-7.3227-0.2436-3.4698-0.6174-8.0478-0.8307-10.173-0.3169-3.157-0.036-3.9564 1.5323-4.3666 2.4882-0.65067 2.4248-1.0719-0.5798-3.8565-3.2093-2.9743-3.2263-6.1244-0.041-7.5757 3.2232-1.4686 8.1299 1.3481 6.947 3.9877-0.413 0.92156-0.6416 4.7139-0.508 8.4275 0.1337 3.7136-0.2753 9.2484-0.9087 12.3-0.8243 3.9704-0.8455 5.9167-0.075 6.8454 0.6983 0.84132 5.0348 1.5276 12.331 1.9514 6.1898 0.35953 14.934 0.94242 19.432 1.2953l8.1779 0.6416 0.6321-3.8927c0.3477-2.141 1.2872-5.0991 2.0879-6.5737 1.0834-1.9952 1.5511-7.4953 1.8284-21.5 0.2049-10.35 0.7112-22.756 1.1251-27.569 0.6244-7.2594 0.5098-8.75-0.6727-8.75-1.5528 0-4.8566 4.9315-4.8566 7.2493 0 0.7924-0.8569 2.2162-1.9042 3.164-1.5516 1.4041-2.2597 1.5013-3.8237 0.52454-2.8117-1.7559-26.919-0.29943-27.676 1.6721-0.299 0.77914 0.5695 4.5026 1.9301 8.2743 1.3605 3.7717 2.4737 7.3658 2.4737 7.9867 0 2.6505-2.1967 0.75644-4.7503-4.096-2.4536-4.6624-6.8474-9.7905-11.642-13.587-1.5246-1.2074-1.4753-1.5469 0.6174-4.2481 1.7151-2.2137 2.8894-2.8257 4.7745-2.488 1.375 0.24629 4.8568 0.89241 7.7374 1.4358 2.8806 0.54342 9.8556 1.1286 15.5 1.3003l10.263 0.31225 1.5-4.6221c1.8493-5.6984 3.3784-7.5696 7.9403-9.7167 3.4056-1.6028 3.5893-1.9564 4.2427-8.1683 0.3756-3.5711 0.9535-9.0194 1.2843-12.107 0.5876-5.486 0.5346-5.6421-2.3152-6.8226l-2.9166-1.2081-0.7198-15.358c-0.3959-8.4468-0.4859-15.736-0.2001-16.199 0.2858-0.46242-0.1088-10.281-0.8769-21.82-1.4375-21.595-0.6623-58.14 1.5972-75.301 0.5302-4.0273 0.9641-13.286 0.9641-20.576 0-12.755 0.092-13.339 2.4385-15.544 2.6746-2.5126 2.8733-2.5088 17.062 0.3332 4.4 0.88134 13.625 2.6317 20.5 3.8896l12.5 2.2872v9.4662c0 8.9647 0.1155 9.4826 2.1797 9.7765 1.8926 0.26947 2.2713-0.30067 2.8754-4.3295 0.8135-5.4242 2.9352-6.8285 5.511-3.6476 1.8803 2.3222 3.9339 2.8731 3.9339 1.0555 0-0.76331 1.1743-0.85445 3.75-0.29107 2.0625 0.45112 5.7684 0.8387 8.2353 0.86129 4.8873 0.0447 6.1245 1.6411 3.7686 4.8629-1.0124 1.3846-2.9747 1.8443-8.7789 2.0567-4.1112 0.15045-8.0178-0.13692-8.6812-0.6386-0.6634-0.50167-1.6759-0.62184-2.25-0.26703-2.1203 1.3104-0.9233 2.2717 3.6006 2.8918 6.1715 0.8459 17.435 4.2415 19.796 5.9679 1.553 1.1356 1.9725 3.0557 2.3536 10.775 0.2551 5.166 0.3991 10.293 0.32 11.393-0.079 1.1-0.3145 5.375-0.5229 9.5-0.2085 4.125-0.9038 9.075-1.5451 11s-1.3681 9.35-1.6152 16.5c-0.247 7.15-0.9014 18.85-1.454 26-0.5527 7.15-1.2013 17.725-1.4415 23.5-0.2401 5.775-0.745 12.638-1.1218 15.25-0.5637 3.9079-0.412 4.75 0.8556 4.75 1.2147 0 1.4297 0.82841 1.0157 3.9147-0.4744 3.5372-0.2965 3.947 1.8452 4.25 1.6007 0.22646 2.4782 1.0985 2.703 2.6861 0.2684 1.8962 0.805 2.2605 2.7752 1.8838 1.5276-0.29202 2.7582 0.0974 3.2855 1.0396 1.2557 2.2437 2.9126 0.65964 4.1615-3.9786 0.8015-2.9763 0.8075-4.6995 0.022-6.2078-2.0191-3.8754-3.0702-20.497-2.0609-32.588 1.0788-12.921 1.835-38.261 2.6562-89 0.6093-37.649 1.0656-40.785 5.7634-39.606 5.632 1.4135 16.799 2.568 25.065 2.5914 9.2714 0.0262 14.785 1.0398 17.851 3.2817 1.5565 1.1382 1.79 3.524 2.0318 20.759 0.1503 10.71 1.0561 28.698 2.013 39.973 1.7473 20.589 1.6692 24.475-1.0342 51.5-0.7713 7.7094-0.6978 36.693 0.1022 40.336 0.8496 3.868-0.927 6.8548-3.0361 5.1044-0.7188-0.59652-2.5716-0.93957-4.1173-0.76233l-2.8109 0.32226-0.1558 24c-0.2398 36.928-1.6928 70.249-3.1258 71.682-1.8403 1.8403-1.5033 5.3627 0.5316 5.5562 0.9625 0.0915 9.85 0.82751 19.75 1.6356 9.9 0.80803 21.6 1.929 26 2.491 10.878 1.3895 46.313 3.3692 47.473 2.6523 1.2225-0.75552 6.027 0.45963 6.027 1.5243 0 1.2628-3.8818 2.215-8.6401 2.1195-2.3583-0.0473-4.5177 0.28585-4.7987 0.74041-0.7202 1.1653 8.1415 2.0802 20.248 2.0904 22.894 1.3273-2.842 1.5894-6.6636 1.4125-8.6049-0.40895-16.77-0.71796-18.145-0.68671-1.375 0.0313-10.356-0.61689-19.959-1.4403-12.346-1.0588-17.951-1.1896-19.14-0.44689-1.1104 0.69346-3.8424 0.75459-8.0413 0.17993-8.5955-1.1764-28.278-1.5042-34.033-0.56685-2.9774 0.48494-9.3292 0.14958-17.5-0.92395-7.0545-0.92685-14.851-1.5353-17.326-1.3521l-4.5 0.33308-0.6012 13.5c-0.3307 7.425-0.9524 16.474-1.3816 20.11-0.5097 4.3184-0.4204 6.8321 0.2579 7.2512 0.5709 0.3529 10.009 0.8514 20.972 1.1078 18.08 0.4228 43.022 2.6527 45.28 4.0483 0.4944 0.3055 8.7728 0.7389 18.396 0.963 10.799 0.2515 18.345 0.8611 19.712 1.5925 1.4522 0.7772 5.2177 1.0137 10.942 0.6873 9.8271-0.5603 12.08 0.1173 10.244 3.0813-1.5291 2.4684 0.047 4.1589 3.8783 4.1589 3.1301 0 3.2673-0.2583 1.6968-3.193-0.8318-1.5541-0.7956-2.2516 0.1472-2.8342 1.7519-1.0828 13.094-0.9678 15.192 0.154-0.5434-2.8711-2.4176 9.5388-4.5209 7.5104zm-274.21-13.731 2-0.7798-2-0.2253c-1.1-0.1239-8.975-0.3654-17.5-0.5368-8.525-0.1713-17.525-0.3659-20-0.4324-2.475-0.066-5.1525-0.078-5.95-0.027-2.1215 0.138-0.044 1.8304 2.95 2.4033 4.0923 0.783 38.332 0.4427 40.5-0.4025zm121.22-4.611c0.3598-0.9375 0.6832-10.725 0.7187-21.75l0.064-20.046-7.5-0.078c-4.125-0.0429-8.85-0.38049-10.5-0.75024-1.65-0.36974-5.25-0.0875-8 0.62725-3.8255 0.99425-10.285 1.1264-27.5 0.56259-12.375-0.4053-23.4-0.87747-24.5-1.0493-1.4959-0.23368-2.0692 0.31731-2.2761 2.1876-0.1522 1.375-1.1742 8.35-2.2712 15.5-1.3727 8.9466-1.7462 14.4-1.1979 17.49l0.7966 4.49 5.4741 0.8189c3.0107 0.4505 7.0147 0.5831 8.8977 0.2948 1.883-0.2884 5.483-0.05 8 0.5289 4.9183 1.1319 28.229 2.4722 47.358 2.723 10.266 0.1346 11.866-0.065 12.435-1.55zm79.783-43.296c-1.65-0.41985-6.825-0.82735-11.5-0.90554-7.7333-0.12935-11.159-0.63961-17.75-2.6436-1.8297-0.55635-2.25-0.29696-2.25 1.3887 0 1.8748 0.6928 2.1058 7.25 2.4179 14.09 0.67069 27.345 0.52994 24.25-0.25749zm-39-1c0.3446-0.55763-0.4034-0.99323-1.691-0.98469-1.8576 0.0123-2.0158 0.20481-0.809 0.98469 1.8607 1.2025 1.7568 1.2025 2.5 0zm-156.04-3.9332c1.0547-1.7064-12.232-2.8584-16.054-1.3919-1.63 0.62547-1.6176 0.72553 0.1682 1.3672 2.7496 0.98786 15.278 1.0074 15.886 0.0248zm117.17-0.27028c0.2555-0.41338 0.9436-4.9242 1.5293-10.024 0.5856-5.0998 1.6483-10.622 2.3616-12.272 0.7257-1.6785 1.5452-8.9466 1.8605-16.5 0.31-7.425 1.0074-15.004 1.5499-16.843 0.5425-1.8384 1.2959-8.9124 1.6741-15.72l0.6877-12.377-2.8661-1.0897c-2.1001-0.79844-3.5419-0.78179-5.3945 0.0623-3.098 1.4116-3.5618 1.1305-3.1625-1.9166 0.2733-2.0854-0.016-2.3208-2.3121-1.8819-1.8912 0.36151-2.907-0.0261-3.6354-1.3871-0.5559-1.0388-0.7883-2.2488-0.5164-2.6888 0.272-0.43999-0.3548-2.1964-1.3927-3.9032-2.24-3.6833-2.9448-19.533-1.1228-25.249 1.3747-4.3125 1.4042-4.0066-0.3864-4.0066-0.825 0-1.5-0.8449-1.5-1.8776 0-1.0326 0.675-2.4378 1.5-3.1224 1.8221-1.5122 1.9888-8.2444 0.2723-10.993-1.0079-1.6138-0.9097-2.5043 0.548-4.972 1.2642-2.1402 1.5869-4.0127 1.1202-6.5007-0.4333-2.3093-0.047-5.1858 1.1374-8.4808 1.7281-4.8056 1.7272-5.0589-0.024-6.9942-1.6957-1.8737-1.7081-2.1746-0.1854-4.4985 1.9302-2.9458 2.1551-10.75 0.3913-13.574-0.9517-1.5238-0.9696-2.4204-0.077-3.8498 0.6657-1.0659 0.9316-3.5943 0.6213-5.9077-0.3467-2.5846 0-5.1272 0.9544-7.0448 1.2902-2.5863 1.3016-3.1957 0.082-4.4148-1.4262-1.4262-0.8891-4.7694 0.7662-4.7694 1.5601 0 0.9612-4.2297-0.7791-5.5022-1.5368-1.1238-1.4964-1.3731 0.5-3.0825 2.1364-1.8293 2.9401-4.4153 1.3721-4.4153-0.44 0-1.3209 0.52093-1.9576 1.1576-1.2962 1.2962-4.2424-0.46744-4.2424-2.5395 0-0.62535-0.9993-1.7611-2.2207-2.5238l-2.2207-1.3868 2.2207-0.82149c1.2214-0.45181 2.2207-1.286 2.2207-1.8537 0-1.5007-3.7594-1.2662-4.7003 0.29319-1.2689 2.103-4.0948 2.7126-7.0615 1.5232-1.506-0.60372-3.6382-1.4552-4.7382-1.8921-3.2001-1.2712-8.5-1.9767-8.5-1.1315 0 0.42625 0.5209 1.2959 1.1576 1.9326 0.8768 0.87682 0.8719 1.5019-0.02 2.5768-0.6564 0.79085-1.3871 6.012-1.6504 11.792-0.2599 5.7052-0.7199 15.773-1.0221 22.373s-0.8209 18.887-1.1526 27.305c-0.3317 8.4175-0.9688 14.939-1.4158 14.492-1.1106-1.1106-1.1325-3.9975-0.3183-41.898 0.4313-20.075 0.3465-33.327-0.2155-33.674-0.5097-0.315-7.4373-0.85875-15.395-1.2083-7.9574-0.34958-17.393-1.0497-20.968-1.5559s-6.8375-0.9292-7.25-0.94009c-0.4125-0.0109-0.7534 1.6677-0.7576 3.7302 0 2.0625-0.4291 6.45-0.9444 9.75-2.089 13.379-1.8409 76.04 0.3097 78.191 0.876 0.87604 19.909 3.131 32.382 3.8364 13.479 0.76236 12.553 1.1666 13.796-6.0274 0.6444-3.7314 0.7521-3.8382 1.6046-1.5909 0.9088 2.396 0.2139 39.71-0.7692 41.301-1.0581 1.7121-2.3703-0.46662-2.3703-3.9355 0-1.9842-0.2973-3.3104-0.6607-2.947-0.3633 0.36338-0.7811 5.7259-0.9282 11.917-0.487 20.484-1.3008 40.152-1.9762 47.756-0.6032 6.7926-1.0519 17.161-1.7609 40.693l-0.2469 8.1933 6.5365 0.61377c3.595 0.33757 8.1114 1.2123 10.036 1.9439 3.7651 1.4309 28.775 1.7282 29.626 0.35226zm-11.547-138.38c0.048-1.165 0.285-1.4019 0.6042-0.60417 0.2889 0.72187 0.2534 1.5844-0.079 1.9167-0.3323 0.33229-0.5687-0.25834-0.5253-1.3125zm52.343 124.92c0.07-11.712 1.0021-17.215 2.3006-13.578 0.2467 0.69093 0.8429 1.0125 1.3249 0.7146 0.4948-0.30578 0.4569-1.6451-0.087-3.0756-0.5299-1.3937-0.7013-3.7403-0.381-5.2146 0.4378-2.0146 0.3275-2.3151-0.4439-1.2096-0.5646 0.80907-1.3885 1.1098-1.8309 0.6682-0.9186-0.91678-0.9091-5.6126 0.072-35.805 0.4819-14.826 0.3717-21.871-0.3492-22.317-0.5794-0.35809-2.6964 1.1791-4.7045 3.416-3.2164 3.5828-4.1733 4.067-8.0367 4.067-2.4121 0-5.6577 0.65782-7.2125 1.4618-2.7332 1.4134-2.8628 1.8355-3.915 12.75-0.5985 6.2085-1.3496 15.338-1.6691 20.288s-0.9156 10.572-1.3248 12.493c-0.4091 1.9209-0.3266 6.3944 0.1834 9.9412 0.7104 4.9404 0.5618 8.0996-0.6354 13.507-2.4466 11.051-2.722 13.435-1.6299 14.11 2.1171 1.3084 10.341 1.9309 19.138 1.4487l9.1222-0.5 0.078-13.166zm-91.422 11.773c0-0.49116-0.7268-1.1719-1.6151-1.5128-1.3432-0.51541-1.5129-1.6702-1.0079-6.857 0.768-7.8887 1.8374-46.253 1.9992-71.72 0.1122-17.662-0.036-19.514-1.5905-19.816-1.1851-0.2307-1.9201 0.53568-2.3812 2.4827-0.3668 1.549-1.5582 3.7989-2.6474 4.9998-1.7582 1.9383-1.9428 3.3413-1.6452 12.5 0.2226 6.8486-0.1153 11.617-1.0052 14.186-1.3021 3.7585-1.2584 3.9352 1.5264 6.173 2.5249 2.0289 2.6566 2.3859 1.1046 2.9925-0.9692 0.37879-3.7817 0.38588-6.25 0.0157-2.9206-0.43798-4.4877-0.30238-4.4877 0.3883 0 0.5837-0.7301 1.0613-1.6224 1.0613-1.2889 0-1.38-0.29222-0.4429-1.4213 0.9631-1.1604 0.8227-1.328-0.7647-0.91288-2.205 0.57662-3.2231-0.65016-4.702-5.6658-2.7425-9.3006-4.2252-0.11601-4.2779 26.5-0.019 9.35 0.089 21.275 0.2398 26.5l0.2736 9.5 9.3983 0.55858c16.159 0.96042 19.898 0.96951 19.898 0.0484zm-13.014-67.857c-0.5006-1.5125-1.0397-7.4414-1.198-13.175l-0.2879-10.425-5.5-1.239c-3.025-0.68142-5.6206-1.1194-5.7681-0.97319-0.1474 0.14616-0.7492 4.1993-1.3373 9.007-1.0026 8.197-0.9434 8.8755 0.9515 10.899 1.1114 1.1866 2.4793 3.368 3.0398 4.8476 0.8483 2.2393 1.7393 2.7547 5.3166 3.0753 2.3636 0.21182 4.6116 0.46373 4.9955 0.55982 0.3839 0.0961 0.2884-1.0628-0.2121-2.5753zm94.514-22.25c0.3606-0.58342-0.6563-1-2.441-1-1.6824 0-3.059 0.45-3.059 1s1.0984 1 2.441 1c1.3425 0 2.7191-0.45 3.059-1zm-8.5-1c0-0.55-0.4234-1-0.941-1-0.5175 0-1.2191 0.45-1.559 1s0.083 1 0.941 1c0.8574 0 1.559-0.45 1.559-1zm-79.11-7.3673c0.8547-1.0299 0.8149-1.6328-0.1611-2.4428-1.7286-1.4346-4.1912 0.16274-3.4059 2.2092 0.7528 1.9618 2.0616 2.0475 3.567 0.2336zm-6.3899-1.6327c-0.3399-0.55-1.2665-1-2.059-1-0.7926 0-1.441 0.45-1.441 1s0.9266 1 2.059 1c1.1325 0 1.7809-0.45 1.441-1zm106 0c0.3399-0.55 0.1415-1-0.441-1-0.5824 0-1.059 0.45-1.059 1s0.1984 1 0.441 1c0.2425 0 0.7191-0.45 1.059-1zm14.918-4.607c1.1923-0.45751 1.5818-2.0436 1.5818-6.441 0-6.2844-0.8061-7.4685-4.46-6.5514-2.0133 0.50532-2.4061 1.3346-2.7683 5.8441-0.5178 6.4473 1.341 8.8004 5.6465 7.1483zm-124.99-1.2797c0.6532-1.057-2.213-3.6636-3.0777-2.7989-0.8332 0.8332 0.372 3.6856 1.5573 3.6856 0.5348 0 1.219-0.39901 1.5204-0.88669zm11.57-1.1133c0-2.2667-1.037-2.563-2.8-0.8s-1.4667 2.8 0.8 2.8c1.3333 0 2-0.66667 2-2zm88.5 1c0.3399-0.55-0.2717-1-1.3592-1-5.3155 0-6.896-4.3915-3.4651-9.6278 1.6381-2.5002 1.6237-2.5497-0.6437-2.2148-2.574 0.3802-3.4826 3.8305-2.5093 9.5294 0.4304 2.5204 1.1123 3.2732 3.2608 3.6002 1.4941 0.22735 3.0274 0.48079 3.4075 0.5632 0.38 0.0824 0.9691-0.30017 1.309-0.85017zm-105.5-5.5c0-3.8148-0.3939-5.5-1.2857-5.5s-1.2857 1.6852-1.2857 5.5 0.3939 5.5 1.2857 5.5 1.2857-1.6852 1.2857-5.5zm22.37 3.25c1.1157-4.1633 0.7132-7.75-0.8697-7.75-1.1333 0-1.5 1.2222-1.5 5 0 5.1711 1.3127 6.6944 2.3697 2.75zm96.67-8.1104c-1.8836-1.8836-3.1806 0.56645-2.4948 4.713 1.0438 6.3115 1.836 6.6572 2.6351 1.1499 0.3988-2.7486 0.3357-5.3869-0.1403-5.8629zm-13.449 2.6177c-0.6935-0.69349-2.5907 0.71555-2.5907 1.9241 0 0.6631 0.5738 0.58723 1.5242-0.20152 0.8383-0.69572 1.3182-1.4709 1.0665-1.7226zm7.4093-1.6939c0-1.631-2.8148-4.082-3.6866-3.2102-0.9818 0.98183 1.5608 5.8425 2.6909 5.1441 0.5476-0.33847 0.9957-1.2088 0.9957-1.9339zm-108-0.62245c0-0.51754-0.45-0.94098-1-0.94098s-1 0.70156-1 1.559 0.45 1.2809 1 0.94098 1-1.0415 1-1.559zm85.533-1.9235c2.5727 1.3769 4.1408 0.88123 3.0085-0.95091-0.7713-1.2481-9.5411-1.4624-9.5411-0.2332 0 1.6315 1.3371 2.1318 2.6921 1.0073 1.0387-0.86204 1.9803-0.81868 3.8405 0.17685zm-74.533-7.8174c0-3.19-0.54-6.34-1.2-7s-3.5249-1.2-6.3665-1.2h-5.1665l0.1607 6.25 0.1607 6.25 4.4558 0.59981c8.527 1.1478 7.9558 1.4996 7.9558-4.8998zm-16.178 2.4765c0.2752-1.4186-0.3361-1.5677-4.236-1.0331-3.073 0.4212-5.0646 0.20395-6.1139-0.66694-1.1789-0.97834-1.8372-1.0108-2.714-0.13402-1.8083 1.8083 0.1949 2.9971 5.7424 3.4079 6.5106 0.48211 6.9407 0.38966 7.3215-1.5738zm119.18 1.3826c0-1.1799-1.9504-2.442-2.6667-1.7257-0.7163 0.71632 0.5459 2.6667 1.7257 2.6667 0.5176 0 0.941-0.42344 0.941-0.94098zm12-2.5c0-1.8925-0.4094-3.694-0.9098-4.0032-1.8523-1.1448-4.0902 0.70696-4.0902 3.3846 0 3.2021 0.669 4.0597 3.1667 4.0597 1.4225 0 1.8333-0.77094 1.8333-3.441zm-19.192-1.809c-0.3044-4.207-0.353-4.2569-4.8075-4.9362-2.475-0.37741-5.7622-0.44873-7.3049-0.15848-2.5403 0.47794-2.7762 0.87286-2.5 4.1862 0.2859 3.4311 0.5535 3.6963 4.3049 4.2666 2.2 0.33446 5.4884 0.67196 7.3075 0.75 3.2915 0.14122 3.306 0.12139 3-4.1081zm-85.808-0.75c0-0.55-0.45-1-1-1s-1 0.45-1 1 0.45 1 1 1 1-0.45 1-1zm64 0.55902c0-1.0555-1.9191-1.4989-2.4899-0.57533-0.3455 0.55897 0.073 1.0163 0.9309 1.0163 0.8574 0 1.559-0.19844 1.559-0.44098zm-94.85-3.059c0-0.5225-0.4837-1.1112-1.075-1.3083-0.5912-0.19709-1.075 0.39166-1.075 1.3083s0.4838 1.5054 1.075 1.3083c0.5913-0.19708 1.075-0.78583 1.075-1.3083zm26.618-1.5c1.0934-1.7507 0.9987-2-0.7594-2-1.3418 0-2.0085 0.66385-2.0085 2 0 1.1 0.3418 2 0.7595 2s1.3215-0.9 2.0084-2zm9.8363-1.7292c-1.0165-1.0165-1.8553 0.51389-1.0213 1.8634 0.6301 1.0194 0.8656 1.0202 1.2044 4e-3 0.2315-0.69479 0.1492-1.5351-0.1831-1.8674zm-41.187-2.4045c-1.523-2.4643-4.6945 0.0812-3.6465 2.9268 0.3654 0.99216 0.9075 0.90286 2.3291-0.38365 1.019-0.92225 1.6119-2.0667 1.3174-2.5432zm141-3.1494c2.803-26.639 3.4885-53.133 1.5712-60.717-0.4867-1.925-1.1912-8.675-1.5656-15s-1.1561-12.098-1.7373-12.828c-0.7606-0.95633-3.3567-1.2489-9.269-1.0445-5.5141 0.19058-8.7117-0.13043-9.7317-0.97697-0.8476-0.70348-4.0966-1.2511-7.35-1.2389-3.207 0.012-7.9094-0.22868-10.45-0.53493-4.2311-0.51007-4.6659-0.36031-5.1776 1.7834-0.3073 1.2872-0.8289 19.89-1.1592 41.34-0.3302 21.45-0.8444 41.773-1.1426 45.163l-0.5422 6.1629 6.3202 0.5463c15.511 1.3407 26.818 2.1441 33.002 2.3449l6.6821 0.21696zm-63.413-90.717c0-0.55-0.4766-1-1.059-1-0.5825 0-0.7809 0.45-0.441 1s0.8165 1 1.059 1c0.2426 0 0.441-0.45 0.441-1zm62.818-4.8923c0.3073-3.1265-1.1281-6.1077-2.9406-6.1077-0.4827 0-0.8776 1.3234-0.8776 2.941s-0.5182 3.2612-1.1515 3.6526c-0.7967 0.49238-0.5781 1.131 0.7096 2.0725 2.638 1.929 3.8932 1.1751 4.2601-2.5585zm-11.5 2.2412c0.3581-0.35812-0.092-1.1946-1.0007-1.8589-1.0683-0.78122-1.6034-2.4939-1.5149-4.8489 0.198-5.2651-2.4233-4.8433-3.3321 0.53619-0.5751 3.4037-0.3708 4.4222 1.1032 5.5 1.972 1.442 3.7259 1.6902 4.7445 0.67163zm-86.892-2.0161c1.0622-2.7681-1.1089-3.9296-3.4258-1.8328-1.562 1.4136-1.7454 2.0444-0.7736 2.6611 2.0085 1.2747 3.5057 0.97944 4.1994-0.82828zm78.574-3.7976c0-5.2189-1.598-6.5352-7.9343-6.5352h-4.0657v4.9304c0 5.4211 0.3114 5.6451 8.25 5.9334l3.75 0.13618zm-97.625 0.33982c1.0355-5.1775 0.7093-9.5602-0.8052-10.817-0.7866-0.65283-3.1491-1.0454-5.25-0.87245l-3.8198 0.31453-0.304 5.888c-0.4138 8.0143-0.057 8.612 5.1476 8.612 4.1352 0 4.4449-0.19236 5.0314-3.125zm82.125 2.125c0.3399-0.55 0.1415-1-0.441-1-0.5824 0-1.059 0.45-1.059 1s0.1984 1 0.441 1c0.2425 0 0.7191-0.45 1.059-1zm-96.5-1c0-0.55-0.4234-1-0.941-1-0.5175 0-1.2191 0.45-1.559 1s0.083 1 0.941 1c0.8574 0 1.559-0.45 1.559-1zm-8-2c-0.5887-1.1-1.2795-2-1.5352-2-0.2556 0-0.4648 0.9-0.4648 2 0 1.1315 0.6667 2 1.5352 2 1.2253 0 1.3191-0.4037 0.4648-2zm40.801-6.2045c0.3262-1.6942 0.1745-1.7429-10.551-3.3877-1.7875-0.27413-3.25-0.0873-3.25 0.41523 0 0.5025 1.9125 1.1686 4.25 1.4802 2.3375 0.3116 4.7 1.2804 5.25 2.153 1.2501 1.9832 3.8692 1.5808 4.3009-0.66063zm98.199-5.2955c0-5.8333-0.2051-6.5-2-6.5-2.34 0-2.365 0.10475-0.829 3.476 0.9967 2.1875 0.8516 3.0022-0.9746 5.4722-2.2043 2.9814-1.7812 3.7999 2.0536 3.9729 1.4953 0.0675 1.75-0.86717 1.75-6.421zm-13.393 1.9182c-0.3339-0.86998-0.607-2.22-0.607-3 0-0.78001-0.45-1.4182-1-1.4182s-1 1.35-1 3c0 2.0888 0.4881 3 1.607 3 1.0545 0 1.3983-0.5438 1-1.5818zm-20.622-6.633c0.015-2.7424-2.2979-4.7852-5.419-4.7852-1.1544 0-1.5657 1.0288-1.5657 3.9167 0 3.3798 0.377 4.0446 2.75 4.85 3.1879 1.082 4.2116 0.11955 4.2347-3.9815zm26.165 3.7148c0-0.5225-0.4837-1.1112-1.075-1.3083-0.5912-0.19709-1.075 0.39166-1.075 1.3083s0.4838 1.5054 1.075 1.3083c0.5913-0.19708 1.075-0.78583 1.075-1.3083zm-89.757-1.0818c0.9642-2.5126 0.7043-7.4182-0.393-7.4182-0.55 0-1.0061 1.0125-1.0137 2.25-0.01 1.2375-0.2849 3.2625-0.6166 4.5-0.68 2.5375 1.0826 3.1196 2.0233 0.66821zm73.107 0.58179c0.3399-0.55 0.1415-1-0.441-1-0.5824 0-1.059 0.45-1.059 1s0.1984 1 0.441 1c0.2425 0 0.7191-0.45 1.059-1zm-106.12-5.125c1.3024-6.5118 0.8235-8.6108-2.125-9.3141-1.5125-0.36074-3.5375-0.88985-4.5-1.1758-1.5406-0.45768-1.75 0.25843-1.75 5.9841v6.504l3.25 0.40332c1.7875 0.22183 3.5313 0.47534 3.875 0.56336 0.3438 0.088 0.9063-1.2462 1.25-2.965zm6.0034 0.375c-0.9419-3.926-1.3784-4.0579-1.3784-0.41667 0 1.7417 0.4586 3.1667 1.0191 3.1667 0.6049 0 0.7509-1.1175 0.3593-2.75zm19.943-0.53939c-0.3059-0.49505-0.9874-0.44433-1.5468 0.11513-0.55 0.55-0.668 1.5372-0.2622 2.1939 0.5606 0.90708 0.9323 0.87942 1.5469-0.11512 0.445-0.71996 0.5629-1.7072 0.2621-2.1939zm76.679-0.26963c0-0.79254-0.45-1.441-1-1.441s-1 0.92656-1 2.059 0.45 1.7809 1 1.441 1-1.2665 1-2.059zm16 0.55902c0-0.55-0.9266-1-2.059-1-1.1325 0-1.7809 0.45-1.441 1s1.2665 1 2.059 1c0.7926 0 1.441-0.45 1.441-1zm-279.78 313.44c-3.0965-2.1689-2.9382-6.8186 0.3439-10.101l2.5665-2.5664 2.248 2.1119c2.5228 2.37 4.6498 2.6811 6.3955 0.9355 0.9018-0.9018 1.6087-0.7851 3.0287 0.5 2.4551 2.2218 2.8647 2.1283 3.6055-0.8236 0.8686-3.4608 3.5932-3.2704 3.5757 0.25-0.027 5.5167-1.0687 7.4674-3.7163 6.9612-2.4231-0.4632-7.6898 1.5409-8.8091 3.3521-0.9171 1.4839-6.7982 1.0891-9.2384-0.62zm5.3314-2.5305c1.0305-1.6674-1.2873-3.5795-2.6668-2.2-1.1539 1.154-0.4317 3.2872 1.1129 3.2872 0.4851 0 1.1843-0.4892 1.5539-1.0872zm340.72 0.394c0.973-0.2536 2.323-0.2369 3 0.037 0.6771 0.2739-0.119 0.4813-1.769 0.461-1.65-0.02-2.2039-0.2445-1.231-0.4981zm-321.51-1.057c-0.199-0.4125-0.338-3.2163-0.309-6.2307 0.067-6.936 2.0718-7.7003 7.0752-2.697 4.0256 4.0257 4.2038 4.9515 1.4776 7.6777-1.9339 1.9338-7.5063 2.7788-8.2438 1.25zm5.7011-5.1809c0.3164-0.512 0.118-1.2136-0.441-1.5591-0.559-0.3454-1.0163 0.073-1.0163 0.9309 0 1.7566 0.6001 2.0152 1.4573 0.6282zm-30.466-38.58c-0.6797-0.81894-1.8557-1.489-2.6134-1.489-2.0829 0-1.6497-2.784 0.6225-4 1.1-0.5887 2-1.9545 2-3.0352 0-2.5463 2.6786-2.5528 3.4861-9e-3 0.7068 2.2268-0.3204 8.8233-1.4862 9.5437-0.4253 0.26287-1.3294-0.1921-2.009-1.011zm9.1238 0.60303c-0.8942-0.56628-1.1636-1.7612-0.7597-3.3703 0.406-1.6178 0.1064-2.9239-0.8537-3.7206-2.1653-1.7971-0.7444-3.2134 2.5073-2.4992 2.2714 0.49888 2.9451 0.2192 3.4722-1.4415 0.7477-2.3557 4.6473-2.8159 6.3613-0.7507 1.2805 1.5429 1.3509 12.69 0.08 12.69-0.479 0-1.5409-1.2955-2.3596-2.8788-1.7737-3.43-5.0403-5.2015-4.0941-2.2203 0.3489 1.0994-0.072 2.5591-1.0061 3.4937-1.8684 1.8684-1.5903 1.8104-3.3478 0.69739zm16.676-3.8339c-1.5921-1.8249-3.7908-5.7066-3.7908-6.6924 0-0.31116 0.675-0.56574 1.5-0.56574s1.5 0.45 1.5 1c0 1.8336 2.1795 1.0294 2.7103-1 1.0821-4.138 9.2897-1.3052 9.2897 3.2063 0 2.189-2.6665 4.1356-4.6319 3.3815-0.9122-0.35007-2.4185 0.0528-3.3504 0.89622-1.5258 1.3808-1.8446 1.3585-3.2269-0.22589zm14.864-2.0868c-2.2513-2.4877-2.0822-6.4746 0.3686-8.6926 1.5279-1.3827 2.3061-1.5489 3.1764-0.67862s0.742 1.6066-0.5236 3.0051c-2.3409 2.5866-2.089 4.1949 0.6569 4.1949 3.0097 0 3.9358 0.9708 2.5356 2.658-1.5614 1.8813-4.2623 1.6698-6.2139-0.48673zm3.6337-17.861c-0.3621-0.94356-0.1274-1.8638 0.5314-2.0833 1.7042-0.56808 1.4575-2.0582-0.8201-4.9538-1.1-1.3984-2-2.9319-2-3.4077 0-1.4258 3.8882-4.8651 5.5-4.8651 1.7684 0 2.0433 4.0567 0.3871 5.7129-1.1509 1.1509-0.4331 3.2871 1.1045 3.2871 0.4805 0 1.1493-0.86873 1.4863-1.9305 0.337-1.0618 1.8957-2.2123 3.4637-2.5567 1.5681-0.3444 3.6551-1.5147 4.6379-2.6006 1.6588-1.833 1.6689-2.0924 0.1406-3.6207-1.3644-1.3644-2.0904-1.4438-4.2403-0.46428-3.8711 1.7638-6.4798-3e-3 -6.4798-4.3874 0-3.0776 0.3544-3.5607 3-4.0898 3.7134-0.74267 3.9887-3.4722 0.5758-5.7084-3.3069-2.1668-4.0971-5.1971-2.1357-8.1906 1.2466-1.9025 2.4721-2.451 5.476-2.451 2.5119 0 4.0713-0.52468 4.4437-1.4952 0.3903-1.0172 1.6143-1.3813 3.8284-1.1389 2.4674 0.27012 3.553 1.0551 4.4881 3.2452 2.0865 4.8867 1.7125 6.6964-1.2662 6.127-3.036-0.58038-8.6947 1.9409-8.103 3.6104 0.2245 0.63336 1.2597 0.99638 2.3005 0.80671 5.6396-1.0277 7.8943-0.64212 8.1864 1.4 0.1617 1.1304-0.6258 2.8876-1.75 3.905-2.4585 2.2249-2.5857 4.3215-0.4473 7.3744 2.1298 3.0408 6.7612 2.6659 7.2229-0.58459 0.1757-1.2375 0.7224-2.25 1.2148-2.25s1.4188 1.0125 2.0588 2.25c0.6399 1.2375 2.2121 3.15 3.4937 4.25 3.8824 3.3324 3.4618 4.7749-1.5028 5.1535-2.4287 0.1852-5.1287 0.92083-6 1.6348-3.9804 3.2615-6.7313 3.9862-9.2115 2.4265-2.1436-1.348-2.6621-1.3108-5.3726 0.38561-1.65 1.0327-3.675 2.1842-4.5 2.5588-0.825 0.37468-2.5732 1.5046-3.8849 2.511-2.9755 2.283-4.9855 2.3312-5.8264 0.13975zm15.824-22.597c-0.8167-0.81667-1.1125-0.70476-1.1125 0.42083 0 1.9879 1.3447 3.3326 1.8417 1.8417 0.2108-0.6325-0.1173-1.6506-0.7292-2.2625zm-5.1125-13.212c0-0.825-0.4234-1.5-0.941-1.5-1.261 0-2.1641 1.5616-1.3651 2.3605 1.1261 1.1262 2.3061 0.68589 2.3061-0.86052zm158-232.17c-749.22 388.17-374.61 194.08 0 0z" fill="#aeccd6"/>
  <path d="m121.28 425.67c-0.42807-0.9862-0.49771-2.0737-0.15476-2.4166 1.0155-1.0155 1.8341 0.4109 1.3667 2.3815-0.41435 1.7469-0.46826 1.7485-1.2119 0.035zm923.04-33.466c-378.92 59.118-189.46 29.559 0 0zm12.996 3.572c-1.2169-3.8507-1.5638-8.8133-0.6162-8.8133 0.5749 0 1.0453 1.1546 1.0453 2.5657 0 1.4112 0.4512 3.4089 1.0027 4.4393 0.6719 1.2555 0.6696 2.0795-0.01 2.4977-0.5553 0.3432-1.1965 0.033-1.4247-0.6894zm249.91-42.85c-0.6796-1.0996 0.4434-15.963 1.206-15.963 0.2466 0 1.3187 0.46583 2.3825 1.0352 2.1825 1.168 2.4929 4.0525 0.7806 7.252-0.6345 1.1856-1.0982 3.6311-1.0305 5.4343 0.1221 3.2471-1.8845 4.5944-3.3386 2.2416zm16.523 0.10066c-14.495-0.96129-6.4235-1.8126 12.225-1.2894 9.7488 0.27352 17.485 0.88621 17.191 1.3615-0.5633 0.91142-15.124 0.87573-29.416-0.0721zm-31.5-0.73699c-10.684-0.52551-18.5-1.4682-18.5-2.2313 0-0.40999 1.4625-0.77453 3.25-0.81008 1.7875-0.0356 4.375-0.1725 5.75-0.30431 4.2306-0.40554 19.222 2.2615 17.796 3.166-0.7129 0.45229-1.5213 0.74415-1.7963 0.64857-0.275-0.0956-3.2-0.30657-6.5-0.46889zm-27.39-1.694c-0.8575-1.0332-0.8023-1.6432 0.2258-2.4965 1.0417-0.86458 1.7577-0.6903 3.0555 0.74377 1.5527 1.7157 1.5585 1.9253 0.07 2.4965-2.1281 0.81661-2.0401 0.83613-3.3513-0.74376zm-16.61-1.6192c-1.3833-0.58513-0.2271-0.81732 3.75-0.75303 3.1625 0.0511 5.75 0.46343 5.75 0.91626 0 1.0596-6.8889 0.94123-9.5-0.16323zm-200.5-1.4544c0-0.79254 0.45-1.7191 1-2.059s1 0.30852 1 1.441-0.45 2.059-1 2.059-1-0.64844-1-1.441zm142 0.47088c0-0.53355-1.6875-0.87105-3.75-0.75-2.7645 0.16226-3.75-0.1741-3.75-1.2799 0-1.2756 1.9445-1.4439 13-1.1252 15.342 0.44228 21.398 1.9668 8.191 2.0618-5.6031 0.0403-8.5841 0.42733-8.191 1.0634 0.3606 0.58342-0.6563 1-2.441 1-1.6824 0-3.059-0.43654-3.059-0.9701zm-127.75-1.4541c-2.3086-1.0774-2.9566-3.0211-1.3402-4.02 1.3472-0.83266 3.8484 0.37165 4.5457 2.1888 0.8622 2.247-0.5661 3.063-3.2055 1.8312zm108.66-0.45124-2.3161-1.8755 3.3302-0.73144c3.6808-0.80844 5.7906 0.92167 3.9008 3.1988-1.4234 1.715-2.1782 1.6241-4.9149-0.59191zm45.258 1.0968c-0.7987-0.26626-0.8473-0.94442-0.1595-2.2295 1.2196-2.2788 0.2928-4.9918-1.7052-4.9918-1.2178 0-1.3568-0.94559-0.7681-5.2258 0.3953-2.8742 1.3494-6.1884 2.1203-7.365 1.1024-1.6824 1.2761-4.8768 0.8135-14.959-0.3236-7.051-0.6138-13.074-0.645-13.385-0.4009-3.9923 0.3966-9.0205 1.3981-8.8149 0.6783 0.13921 1.5289-1.301 1.9195-3.25 0.3858-1.925 0.5367 1.225 0.3353 7s-0.3498 11.062-0.3298 11.75c0.1805 6.188 0 12.867-0.6648 25.113l-0.7839 14.363 3.1528-0.69248c1.7341-0.38087 3.1529-0.31685 3.1529 0.14227 0 1.0336-6.2656 3.0689-7.8361 2.5455zm-120.16-3.0021c0-2.8622 2.7667-3.2694 17.293-2.5449 12.134 0.60515 12.946 0.52478 15.766-1.5596 2.6141-1.9327 3.0468-2.0037 3.5897-0.58898 0.3395 0.88474 0.22 1.9516-0.2655 2.3709-0.9224 0.79644-12.061 2.8369-16.383 3.0012-1.375 0.0523-6.4375 0.36778-11.25 0.70118-8.2662 0.57268-8.75 0.49639-8.75-1.3798zm58.5-0.21925c-1.4422-0.61974-0.4128-0.87903 3.691-0.92971 3.13-0.0387 5.9691 0.37971 6.309 0.92971 0.7597 1.2292-7.1395 1.2292-10 0zm-5.75-1.6623c0.6875-0.27741 1.8125-0.27741 2.5 0s0.125 0.50439-1.25 0.50439-1.9375-0.22698-1.25-0.50439zm159.33-9.921c0.048-1.165 0.285-1.4019 0.6042-0.60417 0.2889 0.72187 0.2534 1.5844-0.079 1.9167-0.3323 0.33229-0.5687-0.25834-0.5253-1.3125zm-229.08-4.8576c0-0.85746 0.45-1.559 1-1.559s1 0.42344 1 0.94098-0.45 1.2191-1 1.559-1-0.0835-1-0.94098zm4-4.059c0-1.7833 0.5733-2.543 2-2.65 1.1-0.0825 2.525-0.195 3.1667-0.25 2.5786-0.22102 1.7358 2.3022-1.2698 3.8016-4.0511 2.0209-3.8969 2.0566-3.8969-0.90156zm49.086-3.595c-0.061-3.2476-0.6725-5.1258-2.086-6.405-1.1-0.99549-2-2.3937-2-3.1072 0-2.105 4.6154 2.8069 5.3124 5.6537 0.3429 1.4005 0.2266 3.8755-0.2585 5.5-0.8197 2.7451-0.8881 2.6292-0.9679-1.6414zm-39.162 1.5028c-1.021-1.2302-1.0455-1.9827-0.1133-3.4754 0.6544-1.0479 1.1898-2.5863 1.1898-3.4188 0-1.9593 2.8876-1.9701 3.6384-0.0136 0.9492 2.4736 6.8485 1.9301 8.1411-0.75 0.8801-1.8249 1.0979-1.9147 1.1528-0.47525 0.037 0.97611 1.2198 2.2128 2.6279 2.7481 3.3566 1.2762 2.2069 2.9771-2.0122 2.9771-2.0411 0-3.5572 0.58171-3.9096 1.5-0.8575 2.2345-2.1709 1.8214-3.5028-1.1018-0.9772-2.1447-1.4446-2.3867-2.6605-1.3776-0.8113 0.67331-1.4751 1.8175-1.4751 2.5427 0 2.0999-1.6571 2.5547-3.0765 0.84436zm-17.924-1.1263c0-1.1899 0.4799-2.4601 1.0665-2.8226 1.886-1.1656 2.1854 0.34336 0.5355 2.699l-1.602 2.2872zm-960.5-3.2815c-1.0769-1.7424 0.51929-3.2289 2.078-1.9352 0.76998 0.63902 1.1534 1.5609 0.85196 2.0486-0.72948 1.1803-2.1648 1.1248-2.93-0.11331zm1199.5-5c-0.5946-13.98-1.3362-51.424-1.1822-59.69 0.1458-7.8194-0.089-9.3359-1.5762-10.168-1.6568-0.92718-1.6577-1.0772-0.018-2.8887 0.9511-1.0509 1.7292-2.8206 1.7292-3.9328s0.4973-3.4486 1.1051-5.1922c0.8289-2.3778 0.8074-3.5288-0.086-4.6054-1.4843-1.7879-0.5087-3.5229 1.9805-3.5229 2.5544 0 3.4524 1.75 1.874 3.6518-1.7421 2.0991-1.7391 10.419 0 12.579 0.964 1.1943 1.0855 2.1248 0.3918 3-0.592 0.74688-1.2899 14.431-1.6967 33.269-0.3802 17.6-1.0514 34.475-1.4916 37.5l-0.8005 5.5-0.234-5.5zm-228.8-2.9721c-0.7221-1.1562-1.8558-1.7325-2.7405-1.393-0.83 0.31848-1.509 0.17956-1.509-0.3087 0-0.48827 1.4052-1.4181 3.1226-2.0664 2.1442-0.80937 2.9412-1.6513 2.5436-2.6872-0.722-1.8815 1.1427-3.1638 2.5517-1.7547 0.7249 0.7249 0.6316 2.4393-0.3054 5.6129-1.5137 5.1266-1.9085 5.4065-3.663 2.5971zm6.9219-2.5511c-1.611-3.5358 0.2335-7.5006 2.4557-5.2784 1.2195 1.2196 1.2312 1.909 0.078 4.6507l-1.3535 3.2189-1.1806-2.5912zm48.288-10.543c-0.3626-0.58659-0.4447-1.281-0.1826-1.5431 0.2622-0.26213 0.7431 0.21781 1.0688 1.0665 0.6762 1.7621 0.1 2.0721-0.8862 0.4766zm-53.624-3.2208c-1.442-1.9158-1.9451-2.0438-3.75-0.95422-2.232 1.3475-2.8309 0.38783-0.9388-1.5043 0.6357-0.63572 2.4121-0.89259 3.9901-0.57698 2.1601 0.432 3.2724 0.0401 4.6241-1.6291l1.7798-2.198 2.7301 2.1475c3.4117 2.6836 3.6967 5.4553 0.4801 4.6696-1.2375-0.30228-3.1235 0.0989-4.1911 0.89159-2.4884 1.8475-2.7294 1.8043-4.7243-0.84611zm-945.83-3.7127c0-0.55 0.47656-1 1.059-1s0.7809 0.45 0.44098 1-0.81648 1-1.059 1-0.44098-0.45-0.44098-1zm993.79-0.64339c-1.6944-1.6944-1.664-1.8145 1.8205-7.1816 0.116-0.17876 2.3897 0.0217 5.0526 0.44545 4.4098 0.70173 4.5741 0.81992 1.8417 1.325-2.1612 0.3995-3.4 1.4633-4.4305 3.8046-1.6376 3.7206-2.025 3.8659-4.2843 1.6066zm34.22-5.1066c0.037-4.9427 5.6429-14.25 8.5833-14.25 1.9091 0 1.8367 0.25982-1.4487 5.1999-1.5729 2.3651-3.1564 5.5376-3.519 7.0501-0.5706 2.38-3.631 4.0729-3.6156 2zm22.601-1.8318c-0.3339-0.86998-0.607-2.2751-0.607-3.1224 0-1.2502 0.2804-1.308 1.4873-0.30634 0.818 0.67888 2.2006 0.96059 3.0724 0.62603 2.0503-0.78675 5.4403 1.0326 5.4403 2.9197 0 2.1491-8.5644 2.0424-9.393-0.11697zm-59.607-0.41821c0-0.55 0.4766-1 1.059-1 0.5825 0 0.7809 0.45 0.441 1s-0.8165 1-1.059 1c-0.2426 0-0.441-0.45-0.441-1zm70.645-13.275c-1.0151-8.4504-0.817-14.297 0.4418-13.038 1.4543 1.4542 2.4855 16.841 1.1827 17.647-0.5888 0.36392-1.2538-1.5226-1.6245-4.6086zm17.355 1.5237c0-2.9771-1.0577-5.3308-2.1048-4.6837-0.4924 0.3043-0.8952-0.17484-0.8952-1.0648s0.4553-1.3366 1.0117-0.99274c0.5623 0.34747 1.2843-0.73707 1.625-2.441 1.1104-5.5517 2.143-3.1974 1.6158 3.6837-0.4978 6.498-1.2525 9.8109-1.2525 5.4984zm53.25-10.911c-1.9415-0.7834-1.4773-3.0651 0.9725-4.781 3.2183-2.2542 3.7775-1.9666 3.7775 1.9433 0 3.5067-1.2465 4.2514-4.75 2.8377zm9.7696-0.27917c-2.2763-1.4782 4.6523-4.1652 7.4515-2.8898 3.0742 1.4007 7.0459-0.49429 8.9233-4.2575 1.6183-3.244 2.1588-9.0248 0.9562-10.227-1.027-1.027-1.0492-7.9896-0.032-10.094 0.8396-1.7371 1.0072-1.7597 1.8521-0.25 1.07 1.912 3.8295 2.2434 3.8295 0.4599 0-0.90893 0.2808-0.91921 1.1576-0.0424 0.8768 0.87682 0.8498 1.5286-0.1116 2.687-0.7118 0.85758-1.0049 2.583-0.6673 3.928 0.3823 1.5233 0.058 2.8499-0.8884 3.6354-1.8124 1.5042-1.9596 5.5796-0.2403 6.658 0.6875 0.43124 2.0375 0.65451 3 0.49616 0.9625-0.15834 1.75 0.19039 1.75 0.77496s-1.0967 1.0629-2.437 1.0629c-1.5163 0-3.7608 1.4031-5.9407 3.7137-2.9488 3.1255-4.1862 3.726-7.813 3.791-2.3701 0.0425-5.4343 0.40081-6.8093 0.79624s-3.1662 0.28635-3.9804-0.24239zm-17.659-1.5612c-0.3484-0.90778-1.697-2.0549-2.997-2.5492-1.3272-0.50461-2.3636-1.7224-2.3636-2.7774 0-1.0333-1.125-3.0926-2.5-4.5763-1.8877-2.0369-2.5-3.787-2.5-7.146 0-2.4467 0.219-4.4485 0.4866-4.4485 0.8809 0 3.5134 7.1952 3.5134 9.6031 0 1.6821 0.7172 2.5388 2.5 2.9863 1.7949 0.45048 2.5 1.302 2.5 3.019 0 2.4139 2.3024 3.3294 3.5 1.3916 1.2985-2.101 2.4684-0.86449 2.1289 2.25-0.3881 3.5595-3.1972 5.0386-4.2683 2.2473zm-48.679-3.1489c-0.3749-0.37493-0.6817-2.7667-0.6817-5.315 0-4.9475-1.263-7.0333-4.259-7.0333-1.0332 0-1.5733-0.46232-1.2159-1.0407 0.3538-0.57237 1.4779-0.77574 2.4982-0.45194 3.916 1.2429 5.2093-7.3199 2.6156-17.319-1.269-4.8921-1.2478-5.1446 0.3136-3.7316 1.2919 1.1691 1.946 1.2444 2.8612 0.3293 1.7283-1.7283 1.4513-4.5326-0.5637-5.7062-1.5839-0.92253-1.548-1.0222 0.3776-1.0497 3.2008-0.0457 4.7021 2.3985 3.9466 6.4257-0.5299 2.8245-0.2768 3.7126 1.3466 4.7265 1.6895 1.0551 1.7939 1.4861 0.6744 2.7829-1.5502 1.7958-2.8841 8.1239-2.7089 12.851 0.068 1.8242-0.5541 3.9939-1.3816 4.8214-0.8276 0.82755-1.5116 2.935-1.52 4.6832-0.017 3.4719-1.2236 6.1063-2.303 5.0269zm-14.152-2.2998c-0.863-1.3964 0.2367-3.0486 2.029-3.0486 1.8361 0 1.8506 1.4152 0.03 2.9261-0.9645 0.80051-1.616 0.83925-2.059 0.12245zm-17.53-11.108c0-0.58246 0.45-0.7809 1-0.44098s1 0.81648 1 1.059-0.45 0.44098-1 0.44098-1-0.47656-1-1.059zm16.968-1.5244c-0.7852-2.0652-0.5796-3.0952 1.0247-5.1349 2.5911-3.294 2.5331-4.7313-0.243-6.0231-2.0916-0.97335-2.1197-1.1-0.3991-1.7985 3.498-1.4202 5.8071 5.3095 3.2862 9.5771-0.904 1.5303-1.369 3.498-1.0333 4.3726 0.3362 0.87636 0.1021 1.5902-0.5216 1.5902-0.6224 0-1.5737-1.1625-2.1139-2.5834zm81.032 1.7014c0-0.55 0.45-1.2781 1-1.618s1-0.16803 1 0.38197-0.45 1.2781-1 1.618-1 0.16803-1-0.38197zm-101.58-5.6816c-0.4631-2.4687-0.1232-4.773 1.1066-7.5 1.8762-4.1608 3.4713-5.1425 3.4713-2.1364 0 0.99 0.4841 2.2841 1.0758 2.8758 0.7678 0.76777 0.3022 0.92794-1.6258 0.55937-2.5715-0.49156-2.6788-0.35305-2.2282 2.8742 0.2604 1.8648 0.8152 4.1781 1.2328 5.1406 0.5397 1.2438 0.3076 1.75-0.8023 1.75-0.9983 0-1.8028-1.2855-2.2302-3.5636zm94.578-2.4364c0-1.65 0.3975-3 0.8834-3 1.0622 0 2.2309 4.006 1.5093 5.1735-1.1215 1.8148-2.3927 0.66005-2.3927-2.1735zm-77.771-2.1875c0.2177-0.65313 0.9305-1.3657 1.584-1.5836 0.7307-0.24358 0.9542 0.21359 0.5805 1.1875-0.6975 1.8177-2.7645 2.1959-2.1645 0.39606zm57.235-1.0625c0.3836-1.2375 0.9385-3.2625 1.2332-4.5 0.6582-2.7636 2.3027-2.9758 2.3027-0.29705 0 2.5887-2.0733 7.047-3.2771 7.047-0.5315 0-0.6465-0.99927-0.2588-2.25zm39.762-1.3237c0.9494-0.99401 2.0004-1.533 2.3356-1.1978s-0.4415 1.1485-1.7262 1.8073c-2.2328 1.1451-2.2596 1.1183-0.6094-0.60945zm-85.226-2.4263c0-0.55 0.45-1 1-1s1 0.45 1 1-0.45 1-1 1-1-0.45-1-1zm-16.5-1c-0.3399-0.55 0.1101-1 1-1s1.3399 0.45 1 1-0.7899 1-1 1-0.6601-0.45-1-1zm112.97-0.0502c-0.9503-1.5375 0.3513-2.5295 1.6348-1.246 0.7182 0.71818 0.7354 1.2775 0.052 1.6996-0.5599 0.34605-1.3192 0.1419-1.6872-0.45366zm-19.469-2.4498c0-0.91667 0.4838-1.5054 1.075-1.3083 0.5913 0.19708 1.075 0.78583 1.075 1.3083s-0.4837 1.1112-1.075 1.3083c-0.5912 0.19709-1.075-0.39166-1.075-1.3083zm-12-3.6439c0-2.1208 0.45-3.8561 1-3.8561s1 1.125 1 2.5c0 2.1261 0.4611 2.5 3.0833 2.5 4.4827 0 3.1383 2.4744-1.4159 2.6061-3.6075 0.10434-3.6674 0.0431-3.6674-3.75zm39.71-0.85607c0.5348-2.0452 1.4443-2.5121 2.6144-1.342 0.7276 0.72765-1.1135 3.342-2.3535 3.342-0.4312 0-0.5486-0.9-0.2609-2zm-57.993 0.35174c-0.293-0.47398 0.07-3.1095 0.8075-5.8568l1.3401-4.995 0.052 4.5c0.052 4.4628-1.1761 8.0081-2.1998 6.3517zm-74.17-1.6017c-0.419-0.9625-0.419-2.5375 0-3.5 0.7254-1.6667 0.7816-1.6667 1.1803 0 0.2302 0.9625 0.2302 2.5375 0 3.5-0.3987 1.6667-0.4549 1.6667-1.1803 0zm7.4522-1.632c0-0.55 0.45-1.2781 1-1.618s1-0.16803 1 0.38197-0.45 1.2781-1 1.618-1 0.16803-1-0.38197zm120.69-0.75751c-1.1335-1.1334 0.3559-2.3605 2.8651-2.3605 1.5031 0 2.441 0.57634 2.441 1.5 0 1.4968-4.0183 2.1484-5.3061 0.86052zm-53.662-13.527c0.017-0.73333 0.7248-2.2333 1.5717-3.3333 1.4834-1.9266 1.5281-1.8928 1.2182 0.92288-0.3143 2.8559-2.8528 5.0492-2.7899 2.4104zm0.6522-10.536c-0.2745-0.44429 0.3986-1.9165 1.4959-3.2717l1.9952-2.4639-0.3376 2.8918c-0.329 2.8187-2.1526 4.4632-3.1535 2.8438zm1.6437-14.37c-0.8173-0.81736-0.7447-1.8189 0.2735-3.7704 1.5989-3.0645 1.8814-12.741 0.3988-13.657-1.3953-0.86237-1.2342-1.6374 0.9245-4.4462 1.8663-2.4283 1.8761-2.366 1.3363 8.5-0.6109 12.295-1.2226 15.084-2.9331 13.374zm2.851-31.722c0.324-4.4787 0.071-6.5842-0.8879-7.3798-1.1104-0.92155-1.0556-1.4288 0.3185-2.9471 1.2003-1.3263 1.4952-2.8481 1.0653-5.4972-0.327-2.0148-0.1805-4.4367 0.3254-5.382s0.6509-3.3766 0.3221-5.4027c-0.4989-3.0742-1.2681-4.0077-4.6478-5.6406-2.2275-1.0762-5.12-1.9567-6.4279-1.9567-1.3078 0-3.221-0.45122-4.2515-1.0027-2.2404-1.1991-4.0333 0.74289-1.902 2.0601 2.3256 1.4373 0.3934 1.9827-2.4161 0.68209-1.5845-0.7335-2.4683-1.7962-2.165-2.6031 0.3976-1.0577-0.2578-1.219-2.9216-0.71932-1.9895 0.37323-3.7013 0.21221-4.069-0.38275-0.4149-0.67139-1.6367-0.50888-3.5283 0.46932-3.4867 1.803-3.9929 1.8443-3.9929 0.32507 0-0.64419-0.7574-2.0082-1.6832-3.0311-1.557-1.7205-1.5608-1.9822-0.05-3.4928 1.1663-1.1664 2.0044-1.3384 2.9331-0.60193 0.7151 0.56708 3.7752 1.3411 6.8002 1.72 3.025 0.37891 9.325 1.5842 14 2.6784s9.5068 2.2012 10.737 2.46c4.2532 0.89452 5.3805 4.3053 5.1522 15.589-0.1151 5.6925-0.1216 13.319-0.014 16.948 0.1511 5.1156-0.1809 6.9104-1.4774 7.9864-1.5397 1.2778-1.6364 0.89075-1.2191-4.8787zm-36.179-30.706c0-0.91667 0.4838-1.5054 1.075-1.3083 0.5913 0.19708 1.075 0.78583 1.075 1.3083s-0.4837 1.1112-1.075 1.3083c-0.5912 0.19709-1.075-0.39166-1.075-1.3083zm-19-1.5c0-0.55 0.4234-1 0.941-1 0.5175 0 1.2191 0.45 1.559 1s-0.083 1-0.941 1c-0.8574 0-1.559-0.45-1.559-1zm109-4.559c0-0.85746 0.45-1.2809 1-0.94098s1 1.0415 1 1.559-0.45 0.94098-1 0.94098-1-0.70156-1-1.559zm-37.515-1.4654c-1.1395-1.8438 0.4923-6.5435 2.2975-6.6168 0.9447-0.0384 2.4084-0.37082 3.2527-0.73882 1.7513-0.76328 6.2806 2.9329 5.7061 4.6564-0.6847 2.054-2.7412 1.9091-2.7412-0.19313 0-3.3324-3.6065-2.6508-4.8502 0.91667-1.0621 3.0468-2.5178 3.8315-3.6649 1.9756zm-92.485-0.35897c0-0.21085 0.9006-0.61888 2.0014-0.90674 1.1007-0.28785 1.7492-0.11534 1.441 0.38337-0.5383 0.87091-3.4424 1.3124-3.4424 0.52337zm31-0.91663c0-1.9627-2.0565-2.2435-3.7833-0.51667-1.4816 1.4816-2.6644 0.42573-1.8629-1.6629 1.0263-2.6745 3.6192-2.9266 5.8188-0.56555 1.5173 1.6286 1.7662 2.5063 0.944 3.3285-0.8221 0.82217-1.1166 0.66834-1.1166-0.58337zm-34.374-4.232c-0.7474-1.9478 4.1538-4.0881 5.7367-2.5052 0.7163 0.71621 0.5014 1.0372-0.6942 1.0372-0.9522 0-1.9904 0.675-2.307 1.5-0.7414 1.9321-1.9874 1.9175-2.7355-0.032zm43.905-2.7611c-0.428-0.98622-0.4977-2.0737-0.1547-2.4167 1.0155-1.0155 1.834 0.41094 1.3667 2.3815-0.4144 1.747-0.4683 1.7485-1.212 0.0351zm28.969 0.29313c0.3399-0.55 1.0415-1 1.559-1 0.5176 0 0.941 0.45 0.941 1s-0.7016 1-1.559 1c-0.8575 0-1.2809-0.45-0.941-1zm32.5-0.44098c0-0.79254 0.399-1.6876 0.8867-1.989 1.1011-0.68055 3.3423 1.8676 2.438 2.772-1.1898 1.1898-3.3247 0.68698-3.3247-0.78299zm6.7378 0.75973c-2.68-0.71493-1.0168-2.3188 2.4046-2.3188 1.9747 0 2.8798 0.4338 2.6081 1.25-0.4613 1.3855-2.3311 1.7841-5.0127 1.0688zm-115.09-1.7833c-0.8223-2.1429-0.8566-15.839-0.045-17.954 0.3338-0.86999 1.0613-1.5818 1.6165-1.5818 0.6479 0 0.7584 2.3446 0.3085 6.5457-0.4035 3.768-0.2997 7.0568 0.2447 7.75 0.6051 0.7706 0.5102 2.2368-0.2635 4.0716-0.9899 2.3473-1.3275 2.5592-1.8612 1.1682zm70.16 0.7814c0.7219-0.28887 1.5844-0.25335 1.9167 0.0789 0.3323 0.33229-0.2584 0.56864-1.3125 0.52522-1.165-0.048-1.4019-0.28494-0.6042-0.60416zm29.188-2.3169c0-1.8667 0.2667-2.1333 1.2-1.2s0.9333 1.4667 0 2.4-1.2 0.66667-1.2-1.2zm-71.5 0c-0.3992-0.64585-0.2757-1.6243 0.2743-2.1743 0.6666-0.66667 1.2419-0.60858 1.7257 0.17426 0.3992 0.64585 0.2757 1.6243-0.2743 2.1743-0.6666 0.66667-1.2419 0.60858-1.7257-0.17426zm-14.378-1.353c-1.0621-1.2797-0.5777-2.647 0.9377-2.647 1.1213 0 1.9598 2.8699 1.0099 3.457-0.4636 0.28656-1.3401-0.0779-1.9476-0.80998zm20.545 0.68635c-1.3959-1.3959-0.5536-2.2175 2.5833-2.52 2.6516-0.25566 3.3053-0.78947 3.5506-2.899 0.1653-1.4221-0.3513-3.1265-1.1479-3.7876-1.1733-0.9738-1.8475-0.6946-3.5505 1.4704-1.721 2.1879-2.1022 2.3424-2.1022 0.85209 0-2.713 3.8007-6.3142 6.0447-5.7274 4.772 1.2479 2.5942 13.278-2.4037 13.278-1.2692 0-2.6077-0.3-2.9743-0.66667zm90.333-3.8333c0-0.825 0.45-1.5 1-1.5s1 0.675 1 1.5-0.45 1.5-1 1.5-1-0.675-1-1.5zm-101.44-0.40161c-0.2961-0.47906 0.3566-1.105 1.4504-1.3911 1.163-0.30412 1.9888-1.3649 1.9888-2.5547 0-3.1336-2.1052-3.741-4.162-1.201l-1.838 2.2699v-2.4108c0-1.3259 0.54-2.9508 1.2-3.6108 1.6697-1.6697 4.7477-1.4999 5.4384 0.3 0.3166 0.825 1.2024 1.5 1.9686 1.5 1.4833 0 1.9332 4.69 0.6277 6.5424-0.9217 1.3076-5.9504 1.7266-6.6739 0.55599zm95.006 4e-3c-1.2054-0.47202-1.5218-1.0117-0.8403-1.433 1.3142-0.8122 4.2739 0.18345 4.2739 1.4377 0 1.0408-0.7663 1.0398-3.4336-5e-3zm17.434-0.16141c0-0.58246 0.45-0.7809 1-0.44098s1 0.81648 1 1.059-0.45 0.44098-1 0.44098-1-0.47656-1-1.059zm-120.53-10.991c-0.9185-1.4861-0.188-2.0122 1.4167-1.0204 0.8598 0.53135 0.962 1.0467 0.2902 1.4619-0.5708 0.35272-1.3389 0.15403-1.7069-0.44153z" fill="#9b7369"/>
 </g>
 <path d="m324.93 388.5c-14.85-0.38151-31.275-1.1195-36.5-1.64-5.225-0.52048-14.9-1.0175-21.5-1.1045-6.6-0.087-16.5-0.63114-22-1.2092-5.6024-0.58884-39.024-1.1695-76-1.3204-45.316-0.18493-67.961-0.63809-72.257-1.446-4.2561-0.80046-7.377-0.86729-9.7611-0.20903-1.9274 0.53221-3.2796 0.60371-3.0046 0.15889 0.2749-0.44483-0.488-1.0671-1.6953-1.3828-1.2073-0.31571-1.8859-0.88319-1.508-1.2611 0.9366-0.93661 14.978-1.2001 16.226-0.30449 2.5914 1.861 23.123 2.5456 69.5 2.3176 27.775-0.13658 55.675 0.15407 62 0.64588 6.325 0.49182 16.45 1.1426 22.5 1.4462s19.1 0.98002 29 1.5031c51.515 2.7221 64.497 3.0547 64.515 1.6529 0.011-0.8353 0.2251-0.82356 0.7757 0.0425 0.5014 0.78881 3.816 1.1803 9.7347 1.1497 14.131-0.0729 17.474 0.10005 17.474 0.90424 1e-4 0.93317-12.78 0.94833-47.5 0.0564zm51 0.19365c-0.3399-0.55-0.1415-1 0.441-1 0.5824 0 1.059 0.45 1.059 1s-0.1984 1-0.441 1c-0.2425 0-0.7191-0.45-1.059-1zm8.2679-0.72473c1.7974-0.22256 4.4974-0.21797 6 0.0102 1.5027 0.22818 0.032 0.41027-3.2679 0.40466-3.3-6e-3 -4.5294-0.1923-2.7321-0.41486zm-314.1-3.9419c-0.3667-0.36666-0.6667-1.1317-0.6667-1.7 0-0.6266 0.4658-0.56756 1.1833 0.15 0.6509 0.65084 0.9509 1.4158 0.6667 1.7-0.2842 0.28417-0.8167 0.21667-1.1833-0.15zm-35.417-2.0067c-3.0997-2.1637-2.9667-6.7009 0.2921-9.9596 2.057-2.057 2.8202-2.3112 4-1.3321 0.8018 0.66548 1.4582 1.7174 1.4586 2.3375 4e-4 0.62016 1.1254 1.1925 2.5 1.2718 1.5396 0.0888 2.4993-0.39114 2.4993-1.25 0-2.2608 2.6946-1.5979 4.8997 1.2054l2.0448 2.5996 0.6617-4.1383c0.8917-5.5762 2.9978-4.7267 2.5536 1.03-0.4542 5.8868-1.5606 6.8206-4.6466 3.9215l-2.5132-2.3611v2.6743c0 2.7467-1.4658 3.6534-2.3026 1.4243-0.2778-0.73996-0.8537-0.27019-1.4114 1.1513-1.172 2.9872-6.6782 3.7692-10.036 1.4253zm6.4049-2.8698c0.3257-0.84872 0.3325-1.8028 0.015-2.1201-1.0759-1.0759-5.6701 0.69231-5.6701 2.1823 0 2.0004 4.884 1.9467 5.6549-0.0622zm281.85 2.5546c-0.3504-0.56686 0.051-0.7345 0.941-0.39301 1.7324 0.66479 2.0493 1.3816 0.6109 1.3816-0.5175 0-1.2159-0.44485-1.5519-0.98855zm-46.093-1.82c-4.0429-0.65165-4.7033-1.1384-3.5044-2.5829 0.8635-1.0405 0.711-2.1131-0.6373-4.4818-1.9105-3.3562-3.2726-4.0333-3.2726-1.6267 0 0.825-0.367 1.5-0.8154 1.5-0.4485 0-0.786-8.8875-0.75-19.75l0.065-19.75-9-0.19222c-4.95-0.10572-10.125-0.13816-11.5-0.0721-10.838 0.52075-53.378-0.24592-56.152-1.012l-3.4877-0.96299-2.2051 14.12c-1.2128 7.7658-2.145 17.131-2.0716 20.811l0.1335 6.6916 5.1415 0.55919c6.3351 0.689 18.824 1.4402 36.929 2.2215 7.583 0.3272 13.538 0.84393 13.234 1.1483-0.5722 0.57216-20.351 0.29836-23.596-0.32664-1.0074-0.19402-9.3678-0.63678-18.578-0.98393-9.2108-0.34715-17.068-0.82982-17.461-1.0726-0.3929-0.24279-0.9422 0.12387-1.2207 0.8148-0.2931 0.72693-0.5398 0.48293-0.5855-0.57909-0.073-1.6878-0.7016-1.7711-7.8289-1.0364-8.2368 0.84913-60.659 0.81732-70.75-0.0429-8.5189-0.72623-12.847-1.5904-14-2.7957-1.2039-1.258 13.751-0.35808 21.436 1.29 3.332 0.71458 16.125 0.87317 38.284 0.4746 18.304-0.32922 33.993-0.68502 34.864-0.79067 1.9333-0.23454 1.9579-0.33793 2.4356-10.264 0.2118-4.4 1.0817-11.292 1.9331-15.315 0.8514-4.0234 1.548-9.086 1.548-11.25 0-3.268-0.3389-3.9346-2-3.9346-1.226 0-2.0123 0.67727-2.0318 1.75-0.029 1.5835-0.1715 1.5653-1.5-0.19113-1.4534-1.9215-1.4682-1.9215-1.4699 0-0.01 8.6622-2.3646 35.147-3.1989 35.941-1.033 0.98387-0.8073-6.9421 0.8468-29.736l0.6339-8.7358-27.39 0.30026c-29.005 0.31796-52.664-0.70223-54.303-2.3416-0.6495-0.64947-0.011-0.9871 1.8659-0.9871h2.853l-2.2026-1.9103c-1.476-1.2801-1.8295-2.1409-1.0717-2.6093 0.622-0.38443 7.7877-0.37658 15.924 0.0174 18.783 0.90966 23.375 0.0556 19.767-3.6764-1.3896-1.4372-1.8277-19.82-0.4724-19.821 0.4125-3.6e-4 0.75 0.87279 0.75 1.9403s0.45 2.2191 1 2.559c0.5937 0.36695 1-0.80049 1-2.8736 0-2.5525-0.5112-3.6539-1.9006-4.0948-2.7528-0.87372-3.7198-5.6047-1.4802-7.2424 2.1148-1.5464 2.517-1.5681 5.8157-0.31395 2.4324 0.92481 3.4398 3.8167 1.8748 5.3817-0.3797 0.37967-0.7642 4.6172-0.8545 9.4167-0.09 4.7995-0.5057 10.864-0.9232 13.476l-0.7591 4.75h6.2816c3.4549 0 9.0185 0.43637 12.364 0.96971 3.345 0.53335 9.7833 1.0987 14.307 1.2563l8.2252 0.28657 0.6492-4.5063c0.8582-5.9576 1.5474-7.1608 3.4147-5.9609 1.2478 0.80181 1.265 1.0968 0.1075 1.8428-0.758 0.4885-1.0711 1.3849-0.6959 1.9921 0.3752 0.60713 0.257 1.8637-0.2627 2.7924-1.0206 1.8237 0.055 3.4543 3.0198 4.5762 2.0441 0.77363 2.6998-1.732 3.0128-11.513 0.1223-3.82 0.6377-6.6242 1.184-6.4421 0.973 0.32434 0.9778 12.692 0.01 15.957-0.3057 1.027 0.023 1.7845 0.7965 1.8336 0.7246 0.046 4.9174 0.25586 9.3174 0.46638 4.4 0.21053 10.138 0.6384 12.75 0.95084 4.101 0.49045 4.752 0.32426 4.7645-1.2164 0.01-0.98144 0.4421-9.4344 0.9646-18.784 0.5226-9.35 1.1885-31.738 1.4799-49.75 0.4663-28.829 0.3483-32.75-0.9861-32.75-0.8337 0-2.0431 1.2375-2.6877 2.75s-1.8233 3.5305-2.6194 4.4844c-1.0845 1.2995-1.5099 5.2948-1.6961 15.933-0.1954 11.157-0.565 14.43-1.7259 15.278-1.6451 1.2029-0.6796 2.607 2.6734 3.8878 3.645 1.3923 0.034 2.7327-9.0044 3.3424-4.902 0.3307-8.5607 0.22433-8.1303-0.23639s2.6804-0.73925 5-0.61897 4.8925-0.23319 5.7175-0.78549c1.081-0.72369-0.3156-1.0085-5-1.0195l-6.5-0.0153-0.06-3.25c-0.033-1.7875-0.4467-4.1113-0.9199-5.164-0.6105-1.3584-0.5245-1.7066 0.2962-1.1993 0.8277 0.51152 0.9199 0.0753 0.3244-1.5345-0.4576-1.2371-1.3952-2.4369-2.0836-2.6664-0.959-0.31965-0.9969 0.0586-0.1625 1.6178 0.6168 1.1524 0.6945 2.1784 0.1792 2.3657-0.9393 0.34136-3.0741 25.115-3.0741 35.674 0 5.4767-0.165 5.9258-2 5.446-1.2575-0.32885-2.0374-0.0157-2.1007 0.84362-0.563 7.6382-1.0423 11.339-1.5292 11.807-0.6174 0.59368 0.2039-29.834 1.2468-46.191 0.4172-6.5441 0.276-9.75-0.4295-9.75-1.4385 0-5.1874 5.4178-5.1874 7.4966 0 0.92835-0.8337 2.7477-1.8526 4.0431-1.4389 1.8293-2.1201 2.0878-3.0511 1.1577-0.8161-0.81538-5.6484-1.1974-15.146-1.1974-11.736 0-13.945 0.23775-13.934 1.5 0.016 1.8914 2.5943 9.3464 4.5202 13.071 1.9952 3.8583 1.8424 4.9294-0.7032 4.9294-1.1916 0-1.8937-0.27295-1.5601-0.60656 0.3336-0.3336 0.1644-1.1211-0.3761-1.75-1.7445-2.0262-7.9002-12.05-7.9002-12.86 0-0.43105-0.6251-0.78372-1.3892-0.78372-2.5611 0-5.9944-3.558-5.2657-5.4569 0.5527-1.4404 0.9545-1.5393 2.1667-0.53331 1.2532 1.0401 1.4882 0.82104 1.4882-1.3874 0-2.8396 2.4264-3.5294 5.7636-1.6386 2.7221 1.5423 17.129 2.8359 17.554 1.5762 0.2388-0.7085 0.8494-0.65411 1.8412 0.16402 0.9874 0.81458 3.2234 1.018 6.6839 0.60819 5.1665-0.6119 5.2073-0.64437 6.3099-5.0232 1.0682-4.2421 3.2391-6.5456 9.3476-9.9184 1.3014-0.71859 2.0592-2.2594 2.1695-4.4114 0.2765-5.3973 1.356-9.9793 2.3511-9.9793 0.5602 0 0.5401 1.0252-0.051 2.5785-1.3789 3.6269-0.9429 11.218 0.6801 11.841 1.581 0.60669 2.0172-1.1799 2.8208-11.554 0.5818-7.5098-0.6884-13.467-2.6172-12.275-0.4696 0.29022-0.8538-0.17389-0.8538-1.0314 0-0.85846-0.8437-1.559-1.8776-1.559-3.74 0-4.2166-2.2444-4.601-21.666-0.205-10.359-0.6843-31.659-1.065-47.334-0.5646-23.244-0.3669-32.28 1.072-49 1.7703-20.57 2.2705-29.072 2.4012-40.823 0.061-5.467 0.3074-6.2765 1.8204-5.9776 1.5103 0.29839 1.7024 1.3172 1.4026 7.4367l-0.3474 7.091 5.3474 0.52704c2.9411 0.28987 5.4045 0.46384 5.4743 0.38659 0.07-0.0772 0.4328-3.0826 0.8069-6.6786l0.68-6.5382-6.0569-1.251c-3.3313-0.68807-6.0569-1.6834-6.0569-2.2118 0-1.3165 0.8728-1.2463 12.94 1.04 5.808 1.1004 16.185 3.039 23.06 4.308 9.6879 1.7882 12.411 2.6316 12.106 3.7492-0.2165 0.7931-0.5409 5.1045-0.7208 9.581-0.3203 7.9669-0.2751 8.149 2.1373 8.6101 3.1899 0.60978 4.4475-1.0118 4.7403-6.1122 0.2013-3.5059 0.5665-4.1273 2.4279-4.1317 1.205-3e-3 2.4691 0.44482 2.809 0.99482s-0.057 1-0.882 1-1.8079 0.49821-2.1842 1.1071c-0.4563 0.73823 0 0.89128 1.3568 0.45933 4.3316-1.3748 3.7041 3.8653-0.677 5.6536l-2.6136 1.0668 3 0.80363c1.65 0.442 6.6 1.5416 11 2.4436 4.4 0.90197 9.125 2.2162 10.5 2.9204 1.375 0.70423 2.9697 1.1085 3.5438 0.89839 0.645-0.23608 1.1387 2.1899 1.2923 6.3497 0.1445 3.9132 0.7542 7.0531 1.4562 7.4993 0.9309 0.5916 0.9212 0.77104-0.042 0.78285-0.7635 9e-3 -1.25 1.4036-1.25 3.5827 0 3.2163 0.2214 3.5064 2.25 2.9482 2.0523-0.5648 2.013-0.43495-0.4478 1.478-2.6123 2.0307-2.6813 2.3416-2.1774 9.8018 0.3232 4.7852 0.074 8.8414-0.6572 10.705-1.1431 2.9119-1.7451 10.284-2.5314 31-0.2088 5.5-0.6044 11.35-0.8792 13s-0.7885 7.95-1.1415 14c-0.3531 6.05-0.8426 11.338-1.0877 11.75-0.2452 0.4125 0.3457 0.75 1.3132 0.75 1.3681 0 1.4923 0.26667 0.559 1.2-0.66 0.66-1.2 2.01-1.2 3s-0.5625 1.8069-1.25 1.8153c-0.8656 0.0106-0.8073 0.29543 0.1895 0.92615 0.7918 0.50096 1.5586 2.1816 1.7042 3.7347l0.2646 2.8238-1.409-3-1.4091-3-0.013 5c-0.012 4.5935 0.1052 4.8434 1.4446 3.073 1.9289-2.5496 2.6422-1.6415 1.8443 2.3479-0.4554 2.2771-0.8988 2.8448-1.4916 1.9097-0.6746-1.0641-0.8436-1.0302-0.8436 0.16934 0 0.825 0.4362 2.175 0.9694 3 0.8617 1.3333 0.9728 1.3333 1 0 0.027-1.3275 0.1391-1.3284 0.9737-8e-3 0.751 1.188 1.1958 1.2389 2.1847 0.25 1.9461-1.9462 3.0261-1.4549 1.8074 0.82228-1.3399 2.5036 0.615 5.7553 2.3918 3.9785 1.6485-1.6485 3.7589-1.2139 3.4362 0.70762-0.4971 2.9606 2.4749 1.9439 3.5248-1.2059 0.6734-2.0202 0.5826-6.3422-0.2869-13.654-1.0017-8.4233-1.0346-16.087-0.1547-36.044 0.6147-13.94 1.5926-45.596 2.1733-70.346 0.5806-24.75 1.2536-45.591 1.4956-46.313s0.9462-1.0005 1.5649-0.61815c0.7152 0.44202 0.9053 2.2973 0.522 5.0938-0.6443 4.7004-0.6885 4.6515 6.1172 6.7716 2.1441 0.66791 2.25 0.44401 2.25-4.7552 0-5.3895-0.041-5.4637-3.3263-6.0801-1.8294-0.34321-4.1919-1.279-5.25-2.0795-1.8731-1.4172-1.8663-1.4563 0.2612-1.4873 1.2017-0.0175 3.3928 0.42745 4.8692 0.98876 1.4763 0.56131 10.276 1.4034 19.555 1.8714 11.471 0.57849 17.516 1.2921 18.886 2.2294 1.8832 1.2883 2.0374 2.6562 2.3531 20.879 0.1858 10.725 1.125 28.05 2.087 38.5 1.5204 16.515 1.5905 21.093 0.5359 35-2.3617 31.143-2.5058 35.029-1.8328 49.44 0.3927 8.409 0.2958 14.961-0.2292 15.51-0.5573 0.58233-0.9092 0.0534-0.9092-1.3666 0-1.9144-0.3906-2.212-2.25-1.7137-1.2375 0.33164-3.15 0.61041-4.25 0.6195-1.9695 0.0163-2.0048 0.79396-2.3131 50.916-0.2122 34.495 0.022 51.106 0.7271 51.542 0.5722 0.3536 8.8131 1.0734 18.313 1.5996 9.5001 0.52615 21.323 1.3898 26.273 1.9191s17.775 1.2273 28.5 1.551 21.021 0.82128 22.88 1.1057c5.4376 0.83195 2.0451 2.8025-4.8943 2.8429-3.2911 0.0191-5.9842 0.42338-5.9849 0.89831-6e-4 0.47492-1.3652 0.66329-3.0325 0.41858-2.0959-0.30761-2.7109-0.12443-1.9929 0.59361 0.6075 0.60755 7.5716 1.1405 16.781 1.2842 22.476 0.35066 26.718 2.1511 5.2429 2.225-17.618 0.0606-41.303-1.3358-43.269-2.5512-0.6557-0.40522-5.4674-0.88515-10.693-1.0665-11.164-0.38748-11.18 0.88016-0.038 3.0403 4.125 0.79977 6.15 1.4924 4.5 1.5392-1.65 0.0468-6.6-0.80332-11-1.8891-9.9171-2.4472-40.205-4.6524-41.813-3.0443-1.5126 1.5127-8.1052 1.3557-17.349-0.41311-4.3109-0.8249-11.73-1.4999-16.487-1.5l-8.6493-1.7e-4 -0.6559 12.75c-0.3607 7.0125-0.9967 14.55-1.4133 16.75s-0.5743 5.8628-0.3503 8.1396l0.4071 4.1396 8.1555 0.66366c4.4855 0.36501 12.206 0.59976 17.156 0.52167 11.489-0.18125 26.386 0.58833 27.203 1.4053 0.3466 0.3466-2.2573 0.63655-5.7864 0.64433-3.5292 8e-3 -15.005 0.12028-25.502 0.25-10.497 0.12972-19.947 0.097-21-0.0727zm-2.4296-12.826c0.01-0.62424-1.1097-1.8721-2.4847-2.773-2.3826-1.5612-2.5-1.5431-2.5 0.38499 0 1.3784 0.6588 2.023 2.0674 2.023 1.6648 0 1.9441 0.43813 1.4345 2.25-0.4955 1.7614-0.4048 1.9242 0.4173 0.75 0.5776-0.825 1.0571-2.0108 1.0655-2.635zm0.048-5.615c0.018-1.2375 0.2927-5.9625 0.61-10.5 0.4594-6.5682 0.2997-8.2531-0.783-8.2653-1.1263-0.0127-1.1308-0.16069-0.026-0.86084 1.0692-0.67774 1.012-0.96905-0.2883-1.468-1.0698-0.41052-1.8728 0.0548-2.3581 1.3665-0.9341 2.5253-0.8402 9.7166 0.1695 12.978 0.5824 1.8809 0.5141 2.1286-0.2761 1-0.9023-1.2888-1.0523-1.2492-1.0655 0.28138-0.01 0.97977 0.6237 2.0266 1.4046 2.3263 0.8778 0.3368 1.2522 1.4704 0.9805 2.9686-0.2417 1.333 0.019 2.4237 0.58 2.4237 0.5608 0 1.0345-1.0125 1.0527-2.25zm0.9673-23.691c0-1.6557-1.4592-1.8932-2.7894-0.45406-1.0712 1.1589-0.9442 1.395 0.75 1.395 1.1217 0 2.0394-0.42344 2.0394-0.94098zm122.75-1.7484c-0.9625-0.25152-2.5375-0.25152-3.5 0-0.9625 0.25153-0.175 0.45733 1.75 0.45733s2.7125-0.2058 1.75-0.45733zm-8.75-0.70368c0-0.21616-0.675-0.65203-1.5-0.96862-0.825-0.31658-1.5-0.13972-1.5 0.39301 0 0.53274 0.675 0.96862 1.5 0.96862s1.5-0.17686 1.5-0.39301zm-31.051-4.0571c-0.5222-0.52256-9.3911-1.2166-19.709-1.5423-19.211-0.60642-22.218-1.1245-20.256-3.4892 0.7418-0.89384 0.7959-3.3015 0.172-7.661l-0.9098-6.3575-0.1235 5.7821c-0.068 3.1802-0.7984 7.3976-1.6234 9.3721-1.8844 4.51-1.9817 4.1575 1.25 4.5293 6.8804 0.79167 42.082 0.25022 41.199-0.6337zm7.78 0.84595c-0.3323-0.33229-1.1948-0.36781-1.9167-0.0789-0.7977 0.31922-0.5608 0.55618 0.6042 0.60416 1.0541 0.0434 1.6448-0.19293 1.3125-0.52522zm-127.81-0.79033c-0.2292-0.21698-6.2053-0.67198-13.28-1.0111-7.0749-0.33913-13.288-0.87897-13.807-1.1996-0.5189-0.32066-2.1553-0.24266-3.6365 0.17335l-2.6932 0.75638 3 0.71945c3.1021 0.74394 31.156 1.2619 30.417 0.56158zm-34.648-1.2614c-0.677-0.27392-2.027-0.29059-3-0.0371-0.9729 0.25354-0.419 0.47766 1.231 0.49804 1.65 0.0204 2.4461-0.18706 1.769-0.46099zm106.14-0.33943c-0.6421-0.64213-4.1732-0.69009-9.95-0.13515l-8.9546 0.86022 9.95 0.13515c6.6025 0.0897 9.6151-0.19973 8.9546-0.86022zm-115.65-0.69396c-0.9625-0.25152-2.5375-0.25152-3.5 0-0.9625 0.25153-0.175 0.45733 1.75 0.45733s2.7125-0.2058 1.75-0.45733zm91 0c-0.9625-0.25152-2.5375-0.25152-3.5 0-0.9625 0.25153-0.175 0.45733 1.75 0.45733s2.7125-0.2058 1.75-0.45733zm-158.83-0.68254c-0.2292-0.20453-2.6023-0.68931-5.2735-1.0773-3.3736-0.49-4.6534-0.37643-4.191 0.37186 0.3662 0.59251 2.7393 1.0773 5.2735 1.0773 2.5342 0 4.4201-0.16734 4.191-0.37187zm9.8855-1.1909c3.4807 1.1048 14.198 1.3207 14.198 0.28612 0-0.53252 0.7614-0.35062 1.692 0.40423 1.4142 1.1472 1.5572 1.1487 0.871 9e-3 -0.6756-1.1219 0.2868-1.2346 5.437-0.63685 4.4509 0.51659 6.062 0.4093 5.5794-0.37154-0.3732-0.60382-1.6687-1.0551-2.879-1.0028-1.2102 0.0523-6.8265-0.44753-12.48-1.1107-5.6541-0.6632-11.054-0.8669-12-0.45267-0.946 0.41423-2.2204 0.67669-2.8321 0.58324-0.6117-0.0935-2.3557 0.47523-3.8756 1.2637l-2.7633 1.4336 2.8755 0.32854c1.5816 0.1807 3.1569-0.0571 3.5008-0.52847 0.3438-0.47136 1.5484-0.56396 2.677-0.20578zm5.9478-1.0995c0.6875-0.27741 1.8125-0.27741 2.5 0s0.125 0.50439-1.25 0.50439-1.9375-0.22698-1.25-0.50439zm85.75 1.6623c-0.3399-0.55-1.154-0.99311-1.809-0.98469-0.7156 9e-3 -0.5923 0.40223 0.309 0.98469 1.9211 1.2415 2.2673 1.2415 1.5 0zm25.879 0.0263c-0.4836-0.45768-1.7792-1.0486-2.8792-1.3132-1.295-0.31149-0.8544-0.52196 1.25-0.59707 2.2738-0.0812 3.25 0.33456 3.25 1.384 0 1.0524 1.0621 1.5 3.559 1.5 1.9703 0 3.2993-0.42023 2.9772-0.94139-0.32-0.51776 1.3323-1.0803 3.6717-1.25l4.2534-0.30861 1.1155-10.31c1.2175-11.254 2.8929-14.705 5.9203-12.192 1.2691 1.0532 1.3308 1.4919 0.3002 2.1336-0.9772 0.60844-1.0255 1.2471-0.1958 2.5883 0.6307 1.0196 0.7676 2.6352 0.3203 3.7805-1.0452 2.6757-1.0975 4.5-0.1292 4.5 1.2024 0 3.2-8.4214 3.265-13.764 0.032-2.6046 0.3935-6.5356 0.8039-8.7356 0.6735-3.6102 0.8038-3.2113 1.337 4.092 0.3249 4.4506 0.1837 10.076-0.3137 12.5-0.4974 2.4244-1.137 5.983-1.4214 7.908s-0.7434 4.2342-1.02 5.1316c-0.2776 0.90037 0.1668 1.8886 0.9916 2.2051 3.0297 1.1626 16.537 1.8993 22.707 1.2384l6.3584-0.6811 0.1072-22.197c0.059-12.208 0.465-33.535 0.9025-47.393 0.773-24.484 0.7417-25.181-1.1071-24.666-1.0464 0.29189-3.221 2.1802-4.8324 4.1963-2.7066 3.3862-3.3405 3.6697-8.32 3.7198-3.2975 0.0332-19.25 45.387-6.1952 1.3568-0.6567 1.0626-0.9588 1.0536-1.6401-0.0488-1.4136-2.2872-3.2123 9.3142-4.5562 29.388-0.6904 10.312-1.5836 18.75-1.9848 18.75s-0.5422-2.3625-0.3135-5.25c1.5114-19.077 2.5368-38.986 2.0339-39.489-0.3269-0.32685-0.5943 1.0601-0.5943 3.0822 0 2.439-0.6732 4.2529-2 5.3889-1.1001 0.94191-1.9551 2.8499-1.9003 4.2402l0.1 2.5278 0.693-2.4899c0.43-1.5449 0.9627-2.0536 1.4035-1.3402 0.7551 1.2216-0.072 4.3297-1.1529 4.3309-0.3536 3.8e-4 -0.7077 1.1224-0.7868 2.4934-0.079 1.371 0.2584 2.2441 0.75 1.9403s0.8325 0.93665 0.7576 2.7566c-0.098 2.374-0.2592 2.6691-0.5715 1.0442-0.5618-2.9229-2.2923-1.879-2.2923 1.3829 0 1.671 0.4145 2.29 1.25 1.8668 0.6875-0.34825 0.4625 0.0123-0.5 0.80123-0.9625 0.78892-1.75 2.6973-1.75 4.2408s-0.2802 2.5262-0.6227 2.1838c-0.3424-0.34247-0.026-7.505 0.7042-15.917 0.7298-8.4117 1.493-14.506 1.696-13.544 0.4975 2.3584 1.7939 2.2294 1.7939-0.17857 0-1.0607-0.4516-1.8482-1.0037-1.75-0.552 0.0982-1.2431-1.3793-1.5357-3.2833-0.4597-2.9912-1.0014-3.5574-3.9839-4.165-2.6337-0.53648-3.7386-0.31111-4.6613 0.95083-0.6652 0.90968-0.9978 1.9964-0.7391 2.415 0.2587 0.41857 0.04 0.76103-0.4851 0.76103-1.7617 0-6.9385-6.7882-8.1327-10.664-0.65-2.1097-1.4305-4.5108-1.7345-5.3358-2.258-6.129-2.7122-30.949-0.847-46.289 0.9221-7.5838 1.6662-20.409 1.6535-28.5-0.013-8.0912 0.6342-19.178 1.4375-24.637 2.2771-15.477 1.7663-27.574-1.1647-27.574-1.9184 0-1.7222-1.9295 0.274-2.6955 1.1119-0.42668-0.2437-1.2322-4.1621-2.4732-3.1961-1.0122-6.0391-1.6124-6.3178-1.3336-0.2788 0.27872-1.3048-0.21541-2.2801-1.098s-2.3618-1.4066-3.0811-1.1644c-0.7194 0.24222-1.7579-0.10889-2.3079-0.78023-0.55-0.67135-2.9125-1.4555-5.25-1.7426-3.6953-0.45385-4.25-0.27335-4.25 1.3829 0 1.1354 0.7069 1.9177 1.75 1.9366 1.6005 0.0291 1.611 0.1376 0.1236 1.2698-1.4131 1.0757-1.7974 6.4546-2.9308 41.021-0.7317 22.318-1.6682 39.133-2.1331 38.302-0.4559-0.81451-0.487-18.815-0.069-40.001l0.7596-38.52-6.2777-0.67138c-3.4527-0.36926-7.5978-0.40737-9.2112-0.0847-1.6135 0.32269-3.1608 0.21907-3.4385-0.23026-0.2777-0.44934-5.5826-1.1035-11.789-1.4537-6.2062-0.35019-12.179-0.75531-13.273-0.90028-1.8543-0.24573-2.0713 0.68391-3.2055 13.736-1.397 16.075-1.6889 50.663-0.5694 67.458l0.7638 11.458 3.5 0.70008c6.906 1.3813 11.734 1.8253 27.25 2.5056l15.75 0.69059 0.015-4.9064c0.024-7.7404 1.7323-8.8045 2.1382-1.332 0.6391 11.767-0.2145 40.926-1.1981 40.926-0.5275 0-0.969-3.6946-0.9858-8.25-0.021-5.7435-0.3214-7.7518-0.988-6.6102-0.8923 1.528-1.9452 21.361-2.4347 45.86-0.1153 5.775-0.5459 13.111-0.9567 16.301-0.4108 3.1908-0.9444 11.066-1.1857 17.5-0.2413 6.4342-0.7685 17.662-1.1716 24.95s-0.3954 13.251 0.017 13.25c0.4125-5.5e-4 0.75-0.451 0.75-1.001 0-1.1931 9.8331-1.2295 15.5-0.0574 2.2408 0.46349 3.0104 0.87795 1.75 0.94237-1.2375 0.0632-2.246 0.4525-2.2411 0.865 0 0.4125 3.6631 0.83064 8.1292 0.9292 4.4662 0.0986 7.7247-0.19525 7.2411-0.65293zm21.312-31.776c-0.445-0.6875-0.5309-1.7-0.191-2.25s0.1842-1-0.346-1c-0.9769 0-0.6579-7.3756 0.3926-9.0754 1.1675-1.8891 2.4534-0.83224 2.4534 2.0163 0 1.6175 0.45 3.2191 1 3.559s1 1.0966 1 1.6815c0 0.69182-0.5016 0.6471-1.4355-0.12795-1.1988-0.99486-1.4874-0.56144-1.75 2.6276-0.197 2.3926-0.6167 3.3521-1.1235 2.5689zm-41.962 31.146c-0.3323-0.33229-1.1948-0.36781-1.9167-0.0789-0.7977 0.31922-0.5608 0.55618 0.6042 0.60416 1.0541 0.0434 1.6448-0.19293 1.3125-0.52522zm40.56-1.3958c0.2877-1.1 0.1152-2-0.3833-2s-0.9064 0.9-0.9064 2 0.1725 2 0.3834 2c0.2108 0 0.6187-0.9 0.9063-2zm-54.29-0.44098c0-0.79254-0.45-1.7191-1-2.059s-1 0.30852-1 1.441 0.45 2.059 1 2.059 1-0.64844 1-1.441zm53.683-4.7465c-0.3192-0.79773-0.5562-0.56078-0.6042 0.60417-0.043 1.0542 0.193 1.6448 0.5253 1.3125s0.3678-1.1948 0.079-1.9167zm4.607-0.81388c0.2879-1.1008 0.1153-1.7492-0.3834-1.441s-0.9067 1.2088-0.9067 2.0014c0 2.0698 0.6795 1.7746 1.2901-0.5604zm38.014-5.9697c-0.6961-0.79486-2.275 2.3518-2.2434 4.471 0.023 1.5163 0.3474 1.2744 1.3428-1 0.7222-1.65 1.1275-3.212 0.9006-3.471zm-40.147-3.8838-0.5257-2.6452-0.7159 2.5c-0.3937 1.375-0.7448 3.625-0.7801 5l-0.064 2.5 1.3058-2.3548c0.7182-1.2952 1.0693-3.5452 0.7801-5zm-56.181-9.3952c-0.616-2.5955-0.7714-1.941-0.7714 3.25s0.1554 5.8455 0.7714 3.25c0.4242-1.7875 0.4242-4.7125 0-6.5zm98.707 3.0625c-0.3192-0.79773-0.5562-0.56078-0.6042 0.60417-0.043 1.0542 0.193 1.6448 0.5253 1.3125s0.3678-1.1948 0.079-1.9167zm-5.158 0.22818c-0.3261-0.52763-0.057-1.818 0.5988-2.8675 0.728-1.1656 0.8681-2.6408 0.3602-3.7907-0.4573-1.0354-0.7082-3.8494-0.5575-6.2535 0.1869-2.9807-0.076-4.1547-0.8263-3.691-1.4578 0.90096-1.497 17.562-0.041 17.562 0.5825 0 0.7922-0.4317 0.4661-0.95932zm-126.86-12.221c-0.2617-1.0009-0.099-4.8573 0.3621-8.5699 0.4609-3.7125 1.1227-12.488 1.4707-19.5 0.5543-11.169 0.4388-12.75-0.9316-12.75-1.8672 0-2.085 1.6221-0.3143 2.3405 0.8379 0.33999 0.909 0.77955 0.2155 1.3333-0.569 0.45437-1.019 1.7261-1 2.8261s-0.2546 2.225-0.6079 2.5-0.898 6.125-1.2103 13c-0.3124 6.875-0.8697 14.188-1.2385 16.25-0.4782 2.6748-0.3156 3.75 0.5673 3.75 0.7369 0 0.983 0.66432 0.608 1.6414-0.5376 1.4008-0.3965 1.4477 0.9625 0.31986 0.8759-0.72687 1.3783-2.1405 1.1165-3.1414zm-0.5842-26.403c0.048-1.165 0.285-1.4019 0.6042-0.60417 0.2889 0.72187 0.2534 1.5844-0.079 1.9167-0.3323 0.33229-0.5687-0.25834-0.5253-1.3125zm-48.079 26.75c0-1.4072-1.1257-2.0556-2.592-1.493-0.7681 0.29473-1.1475 0.93873-0.8432 1.4311 0.6979 1.1293 3.4352 1.1786 3.4352 0.0619zm177-8.7257c0-0.79254-0.45-1.441-1-1.441s-1 0.92656-1 2.059 0.45 1.7809 1 1.441 1-1.2665 1-2.059zm-1.3169-4.6285c-0.3192-0.79773-0.5562-0.56078-0.6042 0.60417-0.043 1.0542 0.193 1.6448 0.5253 1.3125s0.3678-1.1948 0.079-1.9167zm1.5881-23.062c-0.5829-14.078-1.1805-14.619-1.1031-1 0.035 6.1875 0.3933 11.25 0.7958 11.25s0.5408-4.6125 0.3073-10.25zm-175.27 8.309c0-0.51754-0.45-1.2191-1-1.559s-1 0.0835-1 0.94098c0 0.85746 0.45 1.559 1 1.559s1-0.42344 1-0.94098zm66.64-5.309c-1.9659-3.1468-3.1534-24.378-1.4028-25.084 0.6943-0.2797 0.082-0.54406-1.3619-0.58748-1.4433-0.0434-4.4691-0.72987-6.724-1.5254-2.5041-0.88348-4.3301-1.0739-4.6914-0.4893-1.2304 1.9909-1.793 18.936-0.6286 18.936 1.3584 0 5.3453 7.4896 4.4588 8.3762-0.3431 0.3431 1.4762 0.62382 4.0428 0.62382 2.5667 0 4.6667 0.45 4.6667 1s0.6854 1 1.5231 1c1.3292 0 1.3442-0.28624 0.1173-2.25zm62.36-19.068c0-0.66024-0.8791-1.7495-1.9536-2.4205-2.6852-1.6769-3.7577 0.29553-1.5107 2.7784 1.7731 1.9593 3.4643 1.7846 3.4643-0.3579zm-59.307-5.4125c-0.2536-0.97297-0.4777-0.41903-0.4981 1.231-0.02 1.65 0.1871 2.4461 0.461 1.769 0.274-0.67703 0.2906-2.027 0.037-3zm16.237-4.6857c0.097-6.7609-0.5486-5.4458-1.1857 2.4167-0.3093 3.8168-0.1878 5.6744 0.2943 4.5 0.4516-1.1 0.8528-4.2125 0.8914-6.9167zm89.971-0.5c0.1524-6.7496-1.1109-4.0266-1.4501 3.1257-0.2044 4.3104-0.039 5.5039 0.5261 3.791 0.4534-1.375 0.8692-4.4875 0.924-6.9167zm-13.9 4.7942c0-1.4412-5.6596-0.99269-6.9399 0.55-0.9725 1.1718-0.6808 1.4907 1.6276 1.7798 2.8472 0.35656 5.3123-0.72454 5.3123-2.3298zm-9.312 0.2504c0.995-1.5932 0.8004-2.04-1.3065-3-3.2248-1.4693-3.0482-1.5778-3.0482 1.872 0 3.484 2.4819 4.1268 4.3547 1.128zm-29.921-2.1288c-1.4766-2.3643-2.1738-1.8549-1.2867 0.94004 0.3648 1.1494 1.0717 1.8375 1.5708 1.529 0.516-0.31891 0.3934-1.3841-0.2841-2.469zm-57.427-1.7491c0.2521-0.4125 0.6162-2.1 0.809-3.75l0.3506-3-6.7509-0.5-6.7509-0.5 9e-4 2.6667c8e-4 2.2343 0.69 2.9106 4.2509 4.171 4.8298 1.7096 7.4242 2.0022 8.0904 0.91228zm79.66-0.35965c1.2785-0.91965 1.2491-0.99876-0.1991-0.53561-1.2141 0.38832-1.5341 0.11345-1.1209-0.96314 0.3179-0.8286 1.195-1.2698 1.949-0.98046 0.7541 0.28935 1.371 0.0902 1.371-0.44252 0-0.53274-0.4359-0.96862-0.9686-0.96862-0.5328 0-0.7096-0.675-0.393-1.5 0.7073-1.8434-1.9493-2.0372-3.4273-0.25-1.0465 1.2654-0.5115 6.7629 0.6555 6.7347 0.3484-8e-3 1.3084-0.50087 2.1334-1.0943zm-71.554-4.6404c0.5898-1.9278 0.3208-2.25-1.879-2.25-1.9007 0-2.5674 0.51933-2.5674 2 0 1.1 0.45 2 1 2s1.0137 0.7875 1.0304 1.75c0.026 1.4728 0.1648 1.5124 0.879 0.25 0.4668-0.825 1.1584-2.5125 1.537-3.75zm89.83 1.4375c0.5128-1.5469 0.6857-3.0592 0.3842-3.3607-0.3015-0.30148-3.4368-0.78002-6.9673-1.0634-7.0857-0.56877-8.5224 0.29594-6.5894 3.9659 1.7386 3.3011 2.8908 3.8215 7.8183 3.5312 3.8585-0.22733 4.5407-0.61887 5.3542-3.073zm9.345-0.23495c0.9395-3.0018 0.8803-3.5017-0.3852-3.25-0.8903 0.17708-1.5982 1.6126-1.7494 3.5474-0.335 4.2883 0.7464 4.1376 2.1346-0.29745zm-98.014-7.0343c-0.3339-0.86998-0.607-3.795-0.607-6.5 0-3.7552-0.363-4.9182-1.5352-4.9182-1.2475 0-1.3255 0.39177-0.4162 2.0907 1.1856 2.2153-0.3765 7.9093-2.1699 7.9093-0.4833 0-0.8787 0.675-0.8787 1.5 0 1.0115 1.0119 1.5 3.107 1.5 2.4223 0 2.9732-0.34857 2.5-1.5818zm4.768-1.5432c0.3438-1.7188 0.625-4.6438 0.625-6.5 0-2.7655-0.3805-3.375-2.107-3.375-1.5104 0-1.9351 0.44784-1.5 1.5818 0.3339 0.86998 0.607 3.795 0.607 6.5 0 5.5087 1.4178 6.5792 2.375 1.7932zm91.772-1.0153-0.9668-3.3597-0.09 3.0833c-0.05 1.6958 0.2098 3.3833 0.5765 3.75 1.2568 1.2568 1.4467-0.11604 0.4805-3.4737zm4.3418 2.8903c0.2345-0.6875 0.6093-3.8375 0.8331-7 0.3644-5.1519 0.2062-5.75-1.5208-5.75-1.7494 0-1.8985 0.64612-1.6144 6.9955 0.2879 6.4316 1.2506 8.8381 2.3021 5.7545zm13.345-10.703c-0.3723-13.335-1.5485-16.391-4.7027-12.217-1.1133 1.4734-1.5984 3.4381-1.319 5.3423 0.3762 2.5629 0.8017 2.9431 2.8547 2.5506 1.4983-0.28642 2.2736-0.0372 2.0458 0.65771-0.2017 0.61539-1.5092 1.2555-2.9056 1.4224-2.3392 0.27963-2.5828 0.78807-3.0977 6.4671-0.3074 3.39-0.3412 6.5159-0.075 6.9465 0.2661 0.4306 2.07 0.78292 4.0086 0.78292h3.5247zm-124.5 9.9541c-4.2113-1.6982-4.2514-9.2939-0.058-10.981 1.9058-0.76685 1.6892-0.90229-1.5299-0.9567l-3.75-0.0634v6c0 3.3333-0.4444 6-1 6s-1-2.6667-1-6v-6h-3.059c-1.6916 0-2.7948 0.4275-2.468 0.95633 0.3251 0.52598 1.2516 0.70283 2.059 0.39301 0.8074-0.30983 1.468-0.0652 1.468 0.54367 0 0.60885-0.4538 1.107-1.0085 1.107-0.5972 0-0.4982 0.81704 0.2427 2.0035 1.5063 2.4119 0.29 4.8688-3.3324 6.7318-2.0693 1.0642-1.1558 1.2285 6.5982 1.1866 6.146-0.0332 8.3144-0.32512 6.8379-0.9205zm80.662 0.55765c0-0.24254-0.45-0.7191-1-1.059s-1-0.14148-1 0.44098 0.45 1.059 1 1.059 1-0.19844 1-0.44098zm6-6.9652v-7.4062l-5.064-0.69649c-2.7852-0.38306-5.2454-0.51517-5.467-0.29357s-0.053 1.7131 0.3758 3.3145c0.6167 2.306 0.9153 2.5555 1.4355 1.1997 0.7558-1.9693 4.7487-2.2828 6.5197-0.51181 2.0549 2.0549 1.4482 7.374-1.05 9.2058l-2.25 1.6497 2.25-0.59513c1.2997-0.34378 2.25-0.14433 2.25 0.47226 0 0.58707 0.225 1.0674 0.5 1.0674s0.5-3.3328 0.5-7.4062zm12.331 5.8256c-0.3902-1.0168-1.3414-1.3884-2.6666-1.0418-4.5757 1.1966-6.2172-4.1334-2.6641-8.6504 2.6288-3.342 2.5374-3.7271-0.8848-3.7271-2.7461 0-2.9177 0.26394-3.5706 5.4897-1.0407 8.3291-0.3586 9.5103 5.4914 9.5103 4.0568 0 4.7967-0.2723 4.2947-1.5806zm-118.75-4.5563c0.056-3.7975 0.5619-5.4908 1.9412-6.4993 1.745-1.276 1.6918-1.3639-0.826-1.3639-2.6455 0-2.6911 0.11023-2.6911 6.5 0 3.575 0.3375 6.4997 0.75 6.4993 0.4125-3.8e-4 0.7842-2.3116 0.8259-5.1361zm5.0959-2.62c-1.5624-1.5624-1.6718-1.5322-1.6718 0.46072 0 1.1729 0.3051 2.9275 0.6779 3.8991 0.6088 1.5864 0.7793 1.5394 1.6718-0.46071 0.762-1.7077 0.6038-2.6174-0.6779-3.8991zm16.828 3.7568c0.3399-0.55-0.1101-1-1-1s-1.3399 0.45-1 1 0.7899 1 1 1 0.6601-0.45 1-1zm95.311-1.039c2.2939-2.1371 2.6498-3.1665 1.4942-4.3221-0.3819-0.3819-1.7319 0.51309-3 1.9889-3.7512 4.3656-2.5963 6.155 1.5058 2.3332zm-14.186-3.4961c-0.5554-1.4474-0.8846-1.4945-2.2925-0.32754-1.5209 1.2607-1.5161 1.3876 0.065 1.6962 1.4197 0.27711 1.4976 0.61553 0.4605 2-1.156 1.5432-1.1128 1.5427 0.5836-6e-3 1.1147-1.0176 1.5781-2.3342 1.1834-3.3626zm22.375-1.5874c0-2.7717-0.1747-2.8761-4.75-2.8384l-4.75 0.0391 3.25 1.4126c2.5028 1.0878 3.25 2.0266 3.25 4.0833 0 2.2606 0.2303 2.4796 1.5 1.4258 0.825-0.68469 1.5-2.5398 1.5-4.1224zm-101.56 3.2272c0.3043-0.49236-0.075-1.1364-0.8432-1.4311-1.4663-0.56267-2.592 0.0857-2.592 1.493 0 1.1168 2.7373 1.0674 3.4352-0.0619zm51.565-7.6638c0-2.4425-0.45-4.441-1-4.441s-1 2.2766-1 5.059c0 3.118 0.3837 4.8219 1 4.441 0.55-0.33992 1-2.6165 1-5.059zm-40 0.98759c0-0.31428-0.675-1.2464-1.5-2.0714-1.9484-1.9484-1.9087-5.3286 0.096-8.1908 2.3086-3.296 7.4123-2.6678 9.2264 1.1355 1.0799 2.2642 1.0936 3.0944 0.071 4.3262-0.8447 1.0178-0.9209 1.7483-0.2293 2.1982 0.5696 0.37058 1.2927 1.3488 1.6067 2.1738 0.3141 0.825 0.6065-1.7036 0.65-5.6192l0.079-7.1192-3.75-0.61983c-2.0625-0.34091-5.4937-0.62479-7.625-0.63084-3.8082-0.0108-3.8642 0.0428-3.25 3.114 0.3438 1.7188 0.625 5.0938 0.625 7.5 0 3.7083 0.3048 4.375 2 4.375 1.1 0 2-0.25714 2-0.57143zm-6.5435-7.1786c-0.3865-3.7125-0.7599-6.8181-0.8296-6.9014-0.07-0.0833-3.1057-0.46689-6.7465-0.85253l-6.6196-0.70116 0.299 7.3525c0.1644 4.0439 0.3307 7.465 0.3696 7.6025 0.039 0.1375 3.2564 0.25 7.1502 0.25h7.0796zm103.54 5.75c0-0.55-0.9069-1.9068-2.0152-3.0152-1.4234-1.4234-1.8321-2.745-1.3916-4.5 0.3832-1.527 0.1964-2.4848-0.4848-2.4848-1.1947 0-1.5875 9.1876-0.4417 10.333 1.0373 1.0374 4.3333 0.78384 4.3333-0.33333zm-119.5-2c0.3491-1.1 0.3001-3.0125-0.109-4.25l-0.7439-2.25-0.6128 2.5c-0.4686 1.9114-1.3579 2.573-3.7774 2.8099-6.2629 0.61335-9.2805-3.6602-5.8741-8.3188 1.9039-2.6036 8.0927-2.5675 10.079 0.0589 1.5484 2.0475 1.9421 1.666 0.9497-0.92022-0.3582-0.93354-2.4128-1.7696-5.25-2.1364-2.5638-0.33142-5.6739-0.81159-6.9114-1.067-2.1735-0.44865-2.25-0.21117-2.25 6.9813 0 8.4119-0.1362 8.279 8.6826 8.4764 4.3611 0.0976 5.2832-0.20102 5.8174-1.884zm112.5-2.8692c0-4.8497-0.015-4.8716-3.75-5.489-2.0625-0.34091-5.8875-0.62479-8.5-0.63084l-4.75-0.011v4.481c0 5.0235 0.3197 5.2196 9.5 5.8275 2.75 0.18208 5.5625 0.41218 6.25 0.51131 0.8535 0.12308 1.25-1.3641 1.25-4.6889zm11 2.8101c0-0.51754-0.45-0.94098-1-0.94098s-1 0.70156-1 1.559 0.45 1.2809 1 0.94098 1-1.0415 1-1.559zm-30-4.441c0-3.5686-0.3519-4.5-1.7-4.5-1.3222 0-1.4333 0.26667-0.5 1.2 0.66 0.66 1.2 2.145 1.2 3.3s-0.54 2.64-1.2 3.3c-0.9333 0.93333-0.8222 1.2 0.5 1.2 1.3481 0 1.7-0.93137 1.7-4.5zm-67.793-0.69286c-1.6398-1.6398-3.7127 0.43301-2.8031 2.8032 0.6255 1.63 0.7794 1.6349 2.3399 0.0744 1.3047-1.3047 1.4061-1.9347 0.4632-2.8775zm64.548 1.4434c0.5972-1.8132-2.7799-2.8211-3.8404-1.1462-0.4861 0.76765-0.8907 1.7645-0.8991 2.2153-0.024 1.293 4.2815 0.32181 4.7395-1.069zm30.515-1.6073c-0.286-0.47122-0.9069-0.24622-1.3797 0.5-1.337 2.1101-1.0412 3.0751 0.5047 1.6462 0.7673-0.70919 1.1611-1.675 0.875-2.1462zm-125.59-0.24416c0.3379-0.88051-0.014-1.9986-0.7814-2.4847-2.2499-1.4246-2.8957-1.071-2.8957 1.5856 0 2.8325 2.6834 3.4886 3.6771 0.89908zm68.324-6.9147c0.4101-4.8872 0.2629-6.1557-0.6058-5.2202-1.665 1.793-2.8241 14.564-1.1719 12.912 0.6798-0.67981 1.4798-4.1412 1.7777-7.692zm24.999 4.2288c1.0238-0.37905 0.8197-0.58039-0.643-0.63427-1.1787-0.0434-2.4265 0.6597-2.7729 1.5625-0.4712 1.228-0.3092 1.3877 0.643 0.63428 0.7001-0.55395 1.9479-1.2571 2.7729-1.5625zm42.407-3.9632c0.2736-1.7875 0.733-6.4 1.0208-10.25 0.2877-3.85 1.0029-12.943 1.5893-20.207 0.7658-9.488 0.7555-16.387-0.037-24.5-0.6064-6.2111-1.2777-13.543-1.4918-16.293-0.214-2.75-0.6733-8.6693-1.0206-13.154l-0.6315-8.154-3.1682-0.49857c-1.7425-0.27421-5.5307-0.56463-8.4182-0.64538-5.1002-0.14263-5.2523-0.0669-5.3316 2.6526l-0.082 2.7994-1.3906-3.1746c-1.2564-2.8684-1.9343-3.2425-7.0296-3.8791-4.1524-0.51882-5.8495-0.36414-6.4371 0.58673-0.6304 1.02-1.1474 0.94201-2.4603-0.37088-0.9617-0.96267-3.2504-1.6622-5.4374-1.6622h-3.7761l-0.6855 17.25c-0.377 9.4875-0.8934 26.7-1.1477 38.25-0.2542 11.55-0.6619 25.573-0.9059 31.161l-0.4436 10.161 9.1889 0.6175c5.0539 0.33962 14.589 0.99065 21.189 1.4467s12.992 0.89315 14.205 0.97125c1.7594 0.11332 2.3051-0.51442 2.7021-3.108zm-66.54-14.75-0.103-3.5-0.7634 3c-0.4199 1.65-0.8097 3.9-0.8664 5-0.085 1.6456 0.069 1.7342 0.8664 0.5 0.5332-0.825 0.923-3.075 0.8664-5zm1.3665-12.75c0.2376-2.8875 0.057-5.25-0.4005-5.25-0.4578 0-0.8611 0.5625-0.8962 1.25-0.3918 7.675-0.3302 10.539 0.2143 9.9516 0.3578-0.38586 0.8449-3.0641 1.0824-5.9516zm0.7671-15.809c0-4.4849-0.3796-6.4417-1.25-6.4432-0.9129-2e-3 -1.1604 1.8884-0.9176 7.0081 0.4132 8.7155 2.1676 8.2583 2.1676-0.56487zm0.384-14.69c0.2543-2.0502 0.047-3.9844-0.4608-4.2982s-0.9232 0.29976-0.9232 1.3635-0.2845 3.4528-0.6322 5.309c-0.4526 2.416-0.3217 3.0878 0.4608 2.3642 0.6012-0.55595 1.3011-2.6883 1.5554-4.7385zm1.5163-12.001c0.055-0.9625-0.3503-1.75-0.9003-1.75s-0.9551 1.9125-0.9003 4.25c0.085 3.6104 0.2201 3.8738 0.9003 1.75 0.4404-1.375 0.8455-3.2875 0.9003-4.25zm0.2589-8.6221c0.2699-2.8305 0.027-3.7529-0.8944-3.3993-0.7245 0.27803-1.2648 2.1736-1.2648 4.4374 0 4.972 1.6623 4.1728 2.1592-1.0381zm0.8408-9.7855c0-2.0461-0.2839-2.2608-1.8681-1.413-1.3234 0.70828-1.7256 1.7454-1.3792 3.5574 0.3902 2.0413 0.7673 2.3265 1.8681 1.413 0.7586-0.62954 1.3792-2.2304 1.3792-3.5574zm-1.0084-4.316c2.1388-1.3521-0.1776-3.4195-2.8728-2.564-1.6929 0.53733-1.8521 0.92292-0.8507 2.0613 1.4766 1.6785 1.7956 1.7216 3.7235 0.50274zm61.604-11.764c-1.1738-1.1739-9.1439-2.0642-10.096-1.1277-0.6601 0.64939-0.4611 0.77885 0.5852 0.38083 0.8771-0.33364 2.6639 0.28195 4 1.3781 1.909 1.5661 2.1953 2.3405 1.3669 3.6969-1.6537 2.7077-4.9194 3.4709-7.4043 1.7304-1.6973-1.1889-2.1125-2.3404-1.8658-5.175 0.2729-3.1348 0-3.6907-1.9323-3.9655-2.1209-0.30126-2.2497 0.0279-2.2497 5.75v6.0696l6.75 0.0703c3.7125 0.0386 7.65 0.42385 8.75 0.85598 1.8165 0.71362 2.0281 0.33002 2.3061-4.1808 0.1683-2.7316 0.074-5.199-0.2104-5.483zm-68.28 8.5489 2.1843-1.1887-2.5-0.63882c-1.375-0.35135-3.5551-0.17477-4.8447 0.3924-2.1475 0.94445-2.1896 1.0923-0.5 1.7572 2.641 1.0394 3.2191 1.0065 5.6604-0.32212zm-29.316-3.3592c0-3.5172-1.8197-3.9386-4.5035-1.0427-2.9302 3.1617-6.1064 3.3058-9.182 0.41639l-2.3145-2.1743v2.129c0 2.2045 1.7776 2.823 10 3.4792 4.8931 0.39054 6-0.12741 6-2.8076zm77.8-3.202-0.2999-5.75-5.7542-0.91249c-3.1648-0.50187-6.0317-0.63494-6.3709-0.29573-0.3392 0.33922-0.3081 3.0869 0.069 6.106 0.6797 5.4402 0.7187 5.4927 4.3709 5.8776 8.9856 0.94705 8.3184 1.367 7.985-5.0254zm-96.8-3.25c0-6.0797-0.3266-8-1.3604-8-0.7483 0-3.4483-0.28617-6-0.63592l-4.6396-0.63593v7.9693c0 4.3831 0.3 8.2693 0.6667 8.6359 0.3666 0.36667 3.0666 0.66667 6 0.66667h5.3333zm-14 5c0-2.1587-0.4317-2.2889-3.5-1.0554-2.7529 1.1068-5.2662-0.4294-6.9331-4.2377l-1.4038-3.207-0.082 4.6866c-0.079 4.5585 0.01 4.6977 3.1684 5.09 7.7186 0.95787 8.75 0.80739 8.75-1.2766zm55.269 1.3441c-0.677-0.27392-2.027-0.29059-3-0.0371-0.9729 0.25354-0.419 0.47766 1.231 0.49804 1.65 0.0204 2.4461-0.18706 1.769-0.46099zm41.716-0.59406c-0.021-1.7418-1.9492-4.6576-1.9694-2.9786-0.026 2.1276-4.6861 3.7466-6.4857 2.2531-1.2659-1.0506-1.5296-0.98978-1.5296 0.35298 0 1.2803 1.0545 1.6224 5 1.6224 3.3415 0 4.9949-0.41462 4.9847-1.25zm-70.985-1.25c0.6944-0.83674 0.8027-1.5 0.2449-1.5-0.55 0-1.5602 0.675-2.2449 1.5-0.6944 0.83674-0.8027 1.5-0.2449 1.5 0.55 0 1.5602-0.675 2.2449-1.5zm22.25 0.83772c-0.6875-0.27741-1.8125-0.27741-2.5 0s-0.125 0.50439 1.25 0.50439 1.9375-0.22698 1.25-0.50439zm74.185-0.23294c0.3043-0.49236-0.1835-1.178-1.0841-1.5235-1.9468-0.74708-2.8089-0.13102-1.8922 1.3522 0.8037 1.3004 2.2279 1.3824 2.9763 0.17131zm-80.706-0.70895c-0.3323-0.33229-1.1948-0.36781-1.9167-0.0789-0.7977 0.31922-0.5608 0.55618 0.6042 0.60416 1.0541 0.0434 1.6448-0.19293 1.3125-0.52522zm-18.744-3.1458c-0.01-0.99868-0.3357-1.3207-0.7616-0.75-0.4105 0.55-1.1536 1.3375-1.6514 1.75s-0.155 0.75 0.7616 0.75c0.9265 0 1.6599-0.77721 1.6514-1.75zm69.849-1.1216c0.231-1.6252-0.078-2.201-1-1.8648-0.7337 0.26751-1.1978 1.0639-1.0313 1.7697s-0.2835 1.6863-1 2.1788c-0.9334 0.64147-0.7356 0.80636 0.6972 0.58142 1.2168-0.19102 2.1309-1.2347 2.3341-2.6651zm-96.99-1.6893c-0.5436-2.8042-2.8438-2.9572-2.8438-0.18909 0 1.3292 0.3075 2.7242 0.6833 3.1 1.0618 1.0618 2.5436-0.93467 2.1605-2.9109zm34.795 1.0609c-0.3583-0.93367 0.01-1.5 0.9663-1.5 0.9213 0 1.4083-0.69383 1.21-1.7238-0.3238-1.6814-1.1063-1.9136-12.065-3.5802l-3.75-0.5703 0.03 3.6871c0.024 2.9733 0.2264 3.3507 1.0428 1.9494 0.5569-0.95575 1.9614-2.2456 3.1213-2.8663 1.7476-0.9353 2.01-0.87115 1.5319 0.37455-0.4231 1.1026-0.061 1.3682 1.3603 0.99659 1.293-0.33812 2.6223 0.36454 3.9978 2.1132 2.2898 2.9111 3.4337 3.4126 2.5539 1.1197zm100.36-7.481c0-6.8028-0.07-6.9963-2.75-7.5835-1.5125-0.33142-3.2863-0.7658-3.9417-0.9653-0.6555-0.1995-6.5055-0.44324-13-0.54164l-11.808-0.17891-0.5278 5.1252c-0.583 5.6619 0.4672 6.9539 1.5703 1.9318 1.0442-4.7542 2.89-6.2001 6.3673-4.9879 2.0361 0.70977 3.2055 0.66597 4.0221-0.15064 0.8593-0.85926 1.3311-0.86251 1.8597-0.0128 1.0959 1.7614 4.7148 1.9993 6.601 0.43387 1.4824-1.2303 2.0456-1.1535 4.4036 0.60038 1.4871 1.1061 2.844 2.9508 3.0153 4.0993 0.4081 2.7359-3.1408 6.2112-6.3429 6.2112-2.66 0-3.585-1.3354-3.8242-5.5206-0.23-4.0257-3.0873-2.6453-3.448 1.6657l-0.3036 3.6285 7.8036 1.4879c4.292 0.81837 8.3661 1.5443 9.0536 1.6132 0.8926 0.0894 1.25-1.8708 1.25-6.8557zm-36.145 2.9441c-2.9802-1.6138-7.5214-2.0703-7.5212-0.75599 1e-4 0.84812 1.5268 1.3267 4.4381 1.3912 2.4408 0.0541 3.8282-0.23175 3.0831-0.63523zm-94.855-1.9631c0-1.7576-0.6667-2-5.5-2-4.2222 0-5.5 0.34848-5.5 1.5 0 1.7405 0.9216 1.8605 4.3314 0.56409 1.77-0.67295 2.9824-0.5414 4.3151 0.4682 2.3869 1.8082 2.3535 1.8158 2.3535-0.53229zm111-1.441c0-1.8925-0.5265-3.7664-1.1699-4.164-0.7677-0.47446-0.9668-0.1937-0.5792 0.81656 0.325 0.8468-0.022 2.7206-0.7707 4.164-1.2445 2.3988-1.1947 2.6244 0.5791 2.6244 1.5449 0 1.9407-0.70172 1.9407-3.441zm12.614 0.25726c0.6538-1.0578-2.6344-5.1287-3.4687-4.2944-0.2937 0.29375-0.6228 1.8167-0.7314 3.3842-0.163 2.3546 0.1344 2.7634 1.7102 2.3513 1.0492-0.27436 2.1696-0.92287 2.4899-1.4411zm-90.105-4.8803c0.7689-5.5908 0.8196-5.4338-2.0349-6.3081-1.8285-0.56004-1.9904-0.2466-1.6603 3.2147 0.2442 2.5605-0.1596 4.3606-1.215 5.416-1.1811 1.1811-1.267 1.7075-0.3397 2.0822 3.5997 1.4543 4.5542 0.65343 5.2499-4.4047zm73.491 2.564c0-0.83333-0.8889-1.5-2-1.5s-2 0.66667-2 1.5 0.8889 1.5 2 1.5 2-0.66667 2-1.5zm-92.459-0.56653c1.06-1.715 0.1108-1.8833-1.9838-0.35171-1.6221 1.1861-1.6724 1.4182-0.3074 1.4182 0.8976 0 1.9287-0.47994 2.2912-1.0665zm4.7072-1.415c-0.7116-3.7223 0.5476-7.5096 2.5208-7.5819 1.2333-0.0452 1.0423-0.33881-0.6643-1.0215-1.3173-0.52695-2.4985-0.83593-2.6248-0.68661-0.1263 0.14931-0.5433 2.859-0.9268 6.0215-0.5637 4.6498-0.4229 5.75 0.7362 5.75 0.9867 0 1.2855-0.77308 0.9589-2.4815zm-12.082-0.11454c-3.0407-2.1298-2.6742-7.3588 0.6306-8.9968 2.2588-1.1195 2.2437-1.1491-0.9097-1.7798-1.7636-0.35273-3.3058-0.5257-3.427-0.38438-0.1212 0.14131-0.4156 3.0694-0.6541 6.5069l-0.4337 6.25h3.5363c3.5231 0 3.5278-6e-3 1.2576-1.5961zm18.801-0.34325c1.2278-2.2941 0.2059-3.1803-2.7701-2.4021-1.7551 0.45897-1.964 0.90898-1.1383 2.4518 1.2929 2.4159 2.5977 2.3993 3.9084-0.0497zm-13.968-4.1197c0-1.0675-0.4766-1.941-1.059-1.941-0.5825 0-0.7809 0.45-0.441 1s0.1556 1-0.4096 1-0.7696 0.67242-0.4542 1.4943c0.7558 1.9696 2.3638 0.91303 2.3638-1.5533zm13.729-0.54515c-0.3323-0.33229-1.1948-0.36781-1.9167-0.0789-0.7977 0.31922-0.5608 0.55618 0.6042 0.60416 1.0541 0.0434 1.6448-0.19293 1.3125-0.52522zm149.77 313.5c-2.7392-0.41643-1.0658-0.65283 5.309-0.75 6.2522-0.0953 9.0969 0.2013 8.6631 0.90328-0.6477 1.048-6.4918 0.9839-13.972-0.15328zm-312.7-0.64195c-0.1753-0.4125-0.3144-3.2174-0.309-6.2332 0.012-6.719 1.9964-7.6841 6.5128-3.1677 3.4286 3.4286 3.7981 6.1158 1.1683 8.4958-1.8523 1.6763-6.7867 2.282-7.3721 0.90499zm6.2008-5.1866c0-1.0002-0.675-2.3787-1.5-3.0634-1.2758-1.0588-1.5-0.80309-1.5 1.7109 0 1.6257 0.2878 3.2435 0.6395 3.5953 1.0177 1.0177 2.3605-0.25806 2.3605-2.2427zm197 4.9366-5.5-0.67401 6.75-0.16299c3.942-0.0952 6.75 0.253 6.75 0.837 0 0.55-0.5625 0.92665-1.25 0.837-0.6875-0.0896-3.725-0.4663-6.75-0.837zm73.558 0.0933c-0.3082-0.49871 0.3403-0.67122 1.441-0.38337 2.335 0.61061 2.6302 1.2901 0.5604 1.2901-0.7925 0-1.6931-0.40803-2.0014-0.90674zm8.2549 0.22363c0.7219-0.28887 1.5844-0.25335 1.9167 0.0789 0.3323 0.33229-0.2584 0.56864-1.3125 0.52522-1.165-0.048-1.4019-0.28494-0.6042-0.60416zm-91.812-0.70994c0-0.94863 2.9934-1.4267 3.527-0.56332 0.3251 0.52598-0.3355 0.95633-1.468 0.95633-1.1324 0-2.059-0.17686-2.059-0.39301zm-11.188-1.2901c0.7219-0.28887 1.5844-0.25335 1.9167 0.0789 0.3323 0.33229-0.2584 0.56864-1.3125 0.52522-1.165-0.048-1.4019-0.28494-0.6042-0.60416zm157-33c0.7219-0.28887 1.5844-0.25335 1.9167 0.0789 0.3323 0.33229-0.2584 0.56864-1.3125 0.52522-1.165-0.048-1.4019-0.28494-0.6042-0.60416zm-10.562-1.0062c0.9625-0.25152 2.5375-0.25152 3.5 0 0.9625 0.25153 0.175 0.45733-1.75 0.45733s-2.7125-0.2058-1.75-0.45733zm-5.4375-0.99375c0.7219-0.28887 1.5844-0.25335 1.9167 0.0789 0.3323 0.33229-0.2584 0.56864-1.3125 0.52522-1.165-0.048-1.4019-0.28494-0.6042-0.60416zm-347.06-3.8888c-0.4125-0.41878-0.75-1.7693-0.75-3.0011 0-1.7027-0.4524-2.1214-1.8871-1.7462-2.9719 0.77716-3.5183-1.5389-0.66929-2.837 1.9043-0.86766 2.5564-1.9203 2.5564-4.1267 0-2.5194 0.2241-2.776 1.5-1.717 0.825 0.68469 1.5 1.8648 1.5 2.6224 0 0.75766 0.5625 1.3844 1.25 1.3929 0.8443 0.0104 0.9003 0.25377 0.1726 0.75-0.5926 0.40408-1.4926 2.6898-2 5.0794-0.5074 2.3896-1.2601 4.0021-1.6726 3.5833zm17.652-3.6182c-0.9073-1.7546-2.5754-3.9397-3.7067-4.8558-1.8372-1.4876-1.9229-1.9897-0.8016-4.6968 0.9398-2.2689 1.7437-2.9034 3.1967-2.5235 1.0676 0.27919 2.1753 0.88668 2.4617 1.35 0.5953 0.96331 1.3885 13.916 0.8521 13.916-0.1939 0-1.0949-1.4356-2.0022-3.1901zm-1.7186-7.9974c-0.3192-0.79773-0.5562-0.56078-0.6042 0.60417-0.043 1.0542 0.193 1.6448 0.5253 1.3125s0.3678-1.1948 0.079-1.9167zm129.13 9.5044c0.7219-0.28887 1.5844-0.25335 1.9167 0.0789 0.3323 0.33229-0.2584 0.56864-1.3125 0.52522-1.165-0.048-1.4019-0.28494-0.6042-0.60416zm-137.54-2.0669c0.2768-0.9625 0.8047-2.4784 1.1732-3.3686 0.476-1.15 0.01-1.7919-1.6193-2.2172-1.8414-0.48153-2.0427-0.84524-1.029-1.8589 1.7985-1.7985 4.6226 0.20446 5.0233 3.5626 0.1749 1.4664 0.7374 2.4069 1.25 2.0901 1.3475-0.83285 1.146 0.92796-0.2681 2.3421-1.9095 1.9095-5.125 1.5191-4.5301-0.55zm16.803-2.8849c-1.1399-1.4492-2.0726-2.9874-2.0726-3.4182 0-0.43085-0.2731-1.4952-0.607-2.3651-0.3383-0.88168-0.094-1.5818 0.552-1.5818 0.6375 0 1.6377 1.373 2.2226 3.051 1.2493 3.5836 1.9232 3.232 2.738-1.4286 0.59-3.3746 0.6194-3.3912 3.9985-2.261 4.7297 1.5819 6.0376 3.9405 3.6489 6.58-2.3904 2.6414-3.4181 2.5972-4.4503-0.19146-0.7827-2.1144-0.876-2.0541-1.5473 1-0.8657 3.9387-1.7708 4.0629-4.4828 0.61514zm15.582-1.1939c-2.1909-2.4209-2.0922-5.4146 0.274-8.3105 1.5936-1.9503 2.1587-2.1326 3.25-1.0485 1.094 1.0867 1.0202 1.482-0.429 2.2997-0.9625 0.54308-1.75 2.1463-1.75 3.5627 0 2.3281 0.288 2.5177 3 1.9753 3.1565-0.6313 3.8058 0.14422 1.8 2.15-1.7325 1.7325-4.2403 1.476-6.145-0.62874zm3.8061-17.234c-0.3614-0.58466 0.026-1.8222 0.8607-2.75 1.3637-1.5157 1.3229-1.9267-0.402-4.0478-2.4099-2.9635-2.439-5.3593-0.091-7.4842 3.8438-3.4786 5.2552-1.6516 2.6363 3.4126-1.4178 2.7418-1.3987 3.0186 0.25 3.6274 0.9818 0.36251 2.0663 1.0775 2.41 1.5888 0.3438 0.51134 0.625-0.26209 0.625-1.7187 0-3.2441 0.2424-3.5041 3.5196-3.7753 1.5439-0.12778 2.7997-0.94689 3.0769-2.007 0.3021-1.1551 1.0339-1.5741 2.061-1.18 2.2602 0.86734 1.9733-1.1702-0.4877-3.463-1.8393-1.7135-2.3803-1.7824-4.6697-0.59459-3.0806 1.5982-6.5088 0.26783-6.0772-2.3584 0.1524-0.9278-0.078-2.2526-0.5112-2.944-0.8589-1.3693 1.0618-2.4511 4.6763-2.6337 3.3721-0.17038 2.9437-4.7676-0.588-6.311-2.231-0.97492-2.75-1.8483-2.75-4.6276 0-4.4128 1.6945-5.7568 6.3132-5.0073 3.0104 0.48851 3.6868 0.2933 3.6868-1.0639 0-2.194 2.9564-3.2719 4.1009-1.4952 0.7633 1.1848 1.042 1.1735 1.8447-0.0753 1.2085-1.88 1.5274-1.4555 2.7998 3.7268 1.2262 4.9942 0.2487 6.1256-3.2894 3.8074-2.3442-1.536-2.456-1.5118-2.456 0.53044 0 1.6474-0.4602 2.0193-2 1.6167-1.2999-0.33992-2-0.0307-2 0.88337 0 0.77351-0.5625 1.4349-1.25 1.4698-0.6875 0.0349-0.245 0.46759 0.9833 0.96161 1.5829 0.63662 2.0471 1.4191 1.5937 2.6866-0.3644 1.0189 0.3194 0.60517 1.5893-0.96161 1.4744-1.8191 3.1803-2.75 5.0396-2.75 4.0829 0 4.5822 3.1273 0.8915 5.584-2.4235 1.6132-2.7786 2.377-2.2469 4.8324 0.8623 3.9824 3.3583 6.3652 6.6495 6.348 2.359-0.0123 2.75-0.42313 2.75-2.8894 0-1.8889 0.5145-2.875 1.5-2.875 1.0398 0 1.5 1.0452 1.5 3.4064 0 2.9071 0.2914 3.3302 1.9878 2.8866 1.3389-0.35013 2.2129 0.0885 2.6771 1.3436 0.3791 1.0249 1.159 2.1765 1.7332 2.5591 1.7928 1.1946-0.1233 2.0218-2.1593 0.93219-1.3569-0.7262-2.2632-0.70339-3.0432 0.0766-0.8144 0.81442-1.5224 0.76926-2.6532-0.16925-1.2797-1.062-1.5424-1.0097-1.5424 0.3072 0 2.2222-3.3628 3.8948-4.8468 2.4108-0.6344-0.63428-1.1533-1.9632-1.1533-2.9532s-0.45-1.8-1-1.8-1 1.3981-1 3.107c0 2.3509 0.365 2.9669 1.5 2.5314 0.825-0.31658 1.5-0.1256 1.5 0.4244 0 1.6766-3.1447 2.321-4.0645 0.83295-0.4744-0.76765-1.4415-1.3957-2.149-1.3957-0.7076 0-1.4289-1.2375-1.6029-2.75-0.1741-1.5125-0.7083-2.75-1.1872-2.75-0.4788 0-0.6151 1.575-0.3027 3.5 0.5234 3.2255 0.3701 3.5-1.9559 3.5-1.4186 0-2.7999 0.71954-3.1543 1.6431-0.3468 0.90372-0.9074 1.3663-1.2458 1.0279-0.3384-0.33838-1.9373 0.49721-3.5532 1.8569-3.2297 2.7176-4.3341 3.01-5.3234 1.4091zm17.574-19.871c-0.5694-1.0638-1.0352-2.8638-1.0352-4 0-2.1376-1.4378-2.7844-2.4716-1.1117-0.9965 1.6124 0.5651 5.9104 2.3162 6.3749 0.9105 0.24151 1.7837 0.49131 1.9406 0.55511 0.1568 0.0638-0.1807-0.75442-0.75-1.8183zm-8.2782-2.6421c-0.9842-0.98418-2.757 0.52669-2.757 2.3496 0 1.5265 0.1315 1.5237 1.6905-0.0352 0.9297-0.92977 1.4097-1.9713 1.0665-2.3144zm12.743-7.4237c0.3399-0.55-0.083-1-0.941-1-0.8574 0-1.559 0.45-1.559 1s0.4234 1 0.941 1c0.5175 0 1.2191-0.45 1.559-1zm-11-6.5137c0-2.7981-2.929-2.488-3.3312 0.35266-0.2569 1.8138 0.08 2.2598 1.5 1.9863 1.042-0.20067 1.8312-1.2087 1.8312-2.339zm32.5 24.514c0-0.55 0.45-1 1-1 0.55004 0 1 0.45 1 1s-0.45 1-1 1c-0.55 0-1-0.45-1-1zm63.979-70.013c-1.1436-0.70678-1.199-1.1677-0.2538-2.1128 0.9451-0.94514 1.352-0.83574 1.8652 0.50149 0.8355 2.1774 0.2507 2.7622-1.6114 1.6114zm61.597-151.74c0.7658-4.3084 2.1413-6.2954 3.2156-4.6454 0.9806 1.506 9.6531 2.5507 10.892 1.3121 1.6318-1.6318 3.2325 1.1974 2.2081 3.9028-0.6512 1.7197-1.3874 2.1579-2.8471 1.6946-1.0828-0.34367-2.9145-0.1187-4.0704 0.49993-1.4864 0.79548-2.4759 0.81424-3.3798 0.0641-0.703-0.5834-1.5742-0.76462-1.9361-0.40273-0.3619 0.3619-0.658-0.092-0.658-1.0087 0-0.91669-0.45-1.6667-1-1.6667s-1 0.9-1 2-0.4704 2-1.0453 2c-0.6598 0-0.7995-1.3832-0.3787-3.75zm-2.576-33.194c0-0.55503 2.2904-2.8196 5.0898-5.0324s4.6804-4.0232 4.1801-4.0232c-1.45 0-7.6829-5.9204-6.9765-6.6267 0.3517-0.35168 2.2452 0.77046 4.2078 2.4937 1.9626 1.7232 4.2277 3.1331 5.0336 3.1331s1.4652 0.675 1.4652 1.5-0.5216 1.5-1.1591 1.5c-0.6376 0-3.5626 1.8146-6.5 4.0324-2.9375 2.2178-5.3409 3.5783-5.3409 3.0233zm-15.5-8.1691c-13.23-0.99475-18.5-1.8794-18.5-3.1051 0-0.61041 1.2828-0.74039 3.25-0.3293 1.7875 0.37355 11.125 1.0372 20.75 1.4747s17.639 0.85801 17.809 0.93433c0.17 0.0763 0.031 0.58876-0.309 1.1388-0.6727 1.0885-7.4602 1.055-23-0.11345z"/>
</svg>
