<?xml version="1.0" encoding="UTF-8"?>
<!-- Created with Inkscape (http://www.inkscape.org/) -->
<svg width="300" height="231" version="1.1" viewBox="0 0 300 231" xmlns="http://www.w3.org/2000/svg" xmlns:cc="http://creativecommons.org/ns#" xmlns:dc="http://purl.org/dc/elements/1.1/" xmlns:rdf="http://www.w3.org/1999/02/22-rdf-syntax-ns#" xmlns:xlink="http://www.w3.org/1999/xlink">
 <metadata>
  <rdf:RDF>
   <cc:Work rdf:about="">
    <dc:format>image/svg+xml</dc:format>
    <dc:type rdf:resource="http://purl.org/dc/dcmitype/StillImage"/>
    <dc:title/>
   </cc:Work>
  </rdf:RDF>
 </metadata>
 <image x="565.64" y="100.64" width="300" height="231" preserveAspectRatio="none" xlink:href="file:///Users/wongchunhoi/Desktop/image%20for%20website/Dream-machine-conceptsketch-thumbnail.png"/>
 <path d="m48.02 228.84c1.8658-1.925 3.6173-3.5 3.8923-3.5s-1.0266 1.575-2.8923 3.5c-1.8658 1.925-3.6173 3.5-3.8923 3.5s1.0266-1.575 2.8923-3.5zm53.833 0.50067c-0.18333-0.54963-4.6083-1.8659-9.8333-2.925-5.225-1.0591-11.525-2.3928-14-2.9637l-4.5-1.038 4.1671 0.46159c3.8176 0.42287 4.2514 0.23102 5.171-2.287l1.0039-2.7486 0.0789 2.75c0.1421 4.9498 3.7185 2.7935 10.405-6.2736 1.8092-2.4532 1.8103-2.4484 0.11766 0.52364-0.9397 1.65-2.7692 4.4262-4.0656 6.1694l-2.3571 3.1694 5.0386 1.0806c6.2905 1.3491 9.2416 1.3772 8.4402 0.0806-0.33992-0.55-0.19255-1 0.32747-1 0.52004 0 1.1437 1.35 1.3858 3 0.40775 2.7782-0.62243 4.2718-1.38 2.0007zm-34.076-5.0007c-1.1056-3.7885-0.96995-5.6131 0.32129-4.3218 0.593 0.593 0.92745 2.3705 0.74323 3.95l-0.33495 2.8718zm43.069-0.31445c1.3791-1.468 2.2328-3.7537 2.3343-6.25 0.14684-3.6111 0.19295-3.6721 0.55933-0.7397 0.31108 2.4899 0.77272 3.0642 2.09 2.5997 0.93753-0.33056 0.1555 1.03-1.7555 3.0542-1.8954 2.0077-3.8863 3.6503-4.4243 3.6503-0.53797 0 3e-4 -1.0415 1.1962-2.3144zm45.332 0.31445c0-1.375 0.22698-1.9375 0.5044-1.25 0.2774 0.6875 0.2774 1.8125 0 2.5-0.27742 0.6875-0.5044 0.125-0.5044-1.25zm13.954-0.081c-2.4134-0.47403-4.6634-1.1441-5-1.4891-0.95938-0.98337 13.273 0.68621 14.338 1.682 1.164 1.0881-3.2836 0.99622-9.3381-0.19293zm44.138-0.56668c-2.4727-1.2189-3.2348-2.23-3.1866-4.2272 0.0606-2.5111 0.10159-2.5302 0.94359-0.44047 1.0792 2.6786 3.5285 4.0575 8.666 4.8791 2.8152 0.45017 4.2631 0.21817 5.1258-0.82125 0.66124-0.79676 1.4958-6.246 1.8545-12.109 0.35876-5.8634 0.86767-10.445 1.1309-10.182 0.97042 0.97043-0.29116 21.942-1.4309 23.786-0.84226 1.3628-9.7663 0.76011-13.103-0.88495zm-31.583-0.019c-0.36667-0.36666-0.61374-2.7292-0.54906-5.25l0.11762-4.5833 0.83072 4.9683c0.85006 5.084 0.7719 6.0362-0.39928 4.865zm-81.367-5.3333c0-3.025 0.18747-4.2625 0.41659-2.75 0.22914 1.5125 0.22914 3.9875 0 5.5-0.22912 1.5125-0.41659 0.275-0.41659-2.75zm51.95-1.6488c-4.0366-3.5683-5.25-5.3045-5.25-7.5119v-2.871l-12.75 0.45609c-12.034 0.43047-12.226 0.40857-3.4276-0.38985 5.1273-0.46527 9.5559-1.0795 9.8413-1.3649 0.28542-0.28542 0.22253-1.4529-0.13975-2.5943-0.60495-1.906-1.4235-2.0754-10.032-2.0754-5.1555 0-9.6329-0.41956-9.9498-0.93236-0.33924-0.54889 1.4872-0.76089 4.441-0.51545 3.9571 0.32881 5.0172 0.10322 5.0172-1.0676 0-1.7368 2.6553-2.0186 3.2145-0.34115 0.28463 0.8539 0.93291 0.84809 2.5604-0.0229 1.8197-0.9739 2.513-0.83257 4.2022 0.8566 1.1126 1.1126 2.0229 2.9229 2.0229 4.0229 0 1.4667 0.66666 2 2.5 2 2.25 0 2.5-0.4 2.5-4 0-2.2 0.34938-4 0.77643-4 0.42702 0 0.61163 1.728 0.41021 3.84-0.36076 3.7829-0.32029 3.8332 2.7236 3.3865 2.8933-0.42464 3.0898-0.72187 3.0898-4.6733 0-2.3209-0.33751-4.5574-0.75-4.9699-0.41251-0.41256-0.60634-3.3316-0.43073-6.4867 0.23743-4.2662-0.0799-6.0679-1.2382-7.0292-2.032-1.6864-2.4309-0.58165-2.8646 7.9327-0.2949 5.7889-0.3522 5.5453-0.52379-2.227-0.1789-8.1028-0.37149-8.8441-2.6927-10.365-2.1019-1.3772-2.5-2.4159-2.5-6.523 0-2.7937 0.45666-4.885 1.0667-4.885 0.5867 0 2.5859-1.1588 4.4428-2.575s3.638-2.5075 3.9583-2.425c0.32024 0.0825 1.1335-0.0436 1.8072-0.28022 0.67376-0.23665-0.125-0.45034-1.775-0.47488-1.8963-0.0282-4.0117 0.90714-5.75 2.5424-1.5125 1.4228-2.7978 2.1653-2.8563 1.6499-0.0585-0.5154-0.17096-1.8371-0.25-2.9371-0.12379-1.723-0.97084-2.0424-6.1158-2.3065-4.5549-0.23379-6.2473 0.0698-7.1317 1.2794-1.0459 1.4303-1.2184 1.4329-1.7581 0.0265-0.44332-1.1553-1.5755-1.4405-4.3683-1.1007-2.0734 0.25233-4.5574 0.49085-5.5198 0.53006-0.9625 0.0392-1.6967 0.40878-1.6316 0.82128 0.43626 2.763-0.29412 4.1013-2.0533 3.7625-1.112-0.21415-4.2691 1.2988-7.4231 3.5574-3.0185 2.1615-5.6353 3.9307-5.8151 3.9314s-0.17528-2.4299 0.01-5.4015c0.33134-5.3147 0.28682-5.4138-2.7282-6.076-1.6858-0.37026-5.4374-0.407-8.3368-0.0816-2.8995 0.32535-10.619 0.77843-17.154 1.0068-6.5352 0.22841-12.308 0.84079-12.828 1.3608-0.53669 0.53669-0.80384 7.0117-0.61783 14.974 0.18024 7.7158-0.01 13.819-0.42229 13.563-0.4125-0.25604-0.75-6.739-0.75-14.407 0-10.49-0.30943-13.939-1.25-13.934-0.6875 4e-3 -8 0.913-16.25 2.0201-8.25 1.1071-17.475 1.7894-20.5 1.5161-3.025-0.27328-8.425-0.73302-12-1.0216-3.575-0.28862-7.85-0.97175-9.5-1.5181-2.7074-0.89646-2.5459-0.95808 1.6568-0.63184 6.9812 0.54192 7.2931 0.0867 6.9684-10.17-0.2283-7.2119 7e-3 -9.0389 1.2236-9.5058 1.233-0.47314 1.3993 0.0916 0.91665 3.1128-0.65866 4.1229-0.63844 3.5759-0.42296 11.441 0.15579 5.6871 0.19027 5.7499 3.1575 5.7499 2.1722 0 3-0.47528 3-1.7225 0-1.4159 0.27712-1.3269 1.5567 0.5 1.2447 1.777 2.5285 2.2225 6.4052 2.2225h4.8485l-0.46847-6.25c-0.25766-3.4375-0.92975-8.3661-1.4935-10.953-0.56378-2.5864-0.73374-5.1739-0.37768-5.75 0.43361-0.7016-2.4578-1.0475-8.7567-1.0475-10.599 0-12.714 1.1254-12.714 6.7636 0 1.7084-0.52082 4.373-1.1574 5.9213-0.99839 2.4284-1.2196 2.5486-1.6099 0.87499-0.37571-1.6107-0.85745-1.2712-2.8375 2-1.3117 2.1671-2.3872 3.6531-2.3901 3.3024-5e-3 -0.64621 5.3884-12.946 7.0398-16.054 0.75687-1.4244 0.32347-1.74-2.7458-2-2.0045-0.16978-3.7995-0.78173-3.9889-1.3599-0.2102-0.64164 0.94809-0.90031 2.973-0.66391 2.7973 0.32657 3.5054-0.0255 4.5171-2.2459 0.65985-1.4482 1.1997-3.2646 1.1997-4.0364s0.56516-1.7631 1.2559-2.203c1.6405-1.0446 6.4542-7.5248 7.7858-10.481 1.3913-3.089 3.2689-6.2827 4.7255-8.0378 0.654-0.78802 2.3535-4.0656 3.7766-7.2836 3.3366-7.5447 0.62685-5.589-3.258 2.3515-1.8121 3.7038-2.8782 5.0293-3.1036 3.8589-0.31961-1.6596 7.2644-13.974 10.957-17.792 1.1802-1.2201 1.5453-3.0568 1.3032-6.5554-0.27794-4.0152-0.2127-4.2517 0.37515-1.3604l0.71159 3.5 1.7352-3.4036c0.95438-1.872 1.7885-5.472 1.8536-8 0.10716-4.1632 0.19026-4.3136 0.88169-1.5964 0.41985 1.65 0.81661 2.2125 0.88168 1.25 0.0651-0.9625 0.55676-1.75 1.0926-1.75 1.1362 0 4.4105-5.9485 3.6777-6.6813-0.27251-0.27251-1.1877 0.78181-2.0337 2.3429-0.84602 1.5611-1.5562 2.2743-1.5783 1.5848-0.0598-1.8733 3.8617-8.8084 4.7179-8.3434 1.5684 0.85161 5.1587-7.4192 5.073-11.687-0.0842-4.1931-0.13266-4.2534-2.0353-2.5315-1.3273 1.2012-1.558 1.8943-0.7231 2.1726 0.7717 0.25723 0.35167 1.0682-1.1335 2.1885-1.8031 1.3601-2.3364 2.6847-2.2616 5.6169 0.0614 2.4042-0.0845 2.9035-0.39056 1.3371-0.26871-1.375-1.0057-2.8306-1.6377-3.2347-0.6863-0.43875-0.73115-0.74085-0.11136-0.75 0.65092-0.01 1.0794-4.3958 1.1494-11.765 0.17995-18.944 0.54048-23.194 2.0756-24.468 1.2025-0.99801 1.323-0.49912 0.78991 3.2703-0.92007 6.5052-1.3532 26.948-0.57091 26.948 0.36821 0 1.6111-1.0125 2.7619-2.25 1.6028-1.7235 2.0885-3.5371 2.0757-7.75-9e-3 -3.025 0.0387-10.612 0.10647-16.861 0.0677-6.2483-0.16299-12.886-0.51272-14.75-0.39316-2.0957-0.23704-3.3895 0.409-3.3895 0.57468 0 1.207 1.2375 1.4052 2.75 0.3182 2.4284 0.4988 2.2237 1.5442-1.75l1.1839-4.5-0.48553 4.9457c-0.26704 2.7202-0.9801 5.2514-1.5846 5.625-0.79732 0.49277-0.7952 0.86705 8e-3 1.3633 0.60872 0.37621 1.0999 1.22 1.0914 1.875-0.0113 0.882-0.20591 0.89332-0.75 0.0436-0.40408-0.63105-0.87478 5.3818-1.046 13.362l-0.31134 14.509 3.063-2.181c2.2544-1.6053 2.9343-2.7567 2.5755-4.3618-0.75243-3.3658-1.3842-28.836-0.79205-31.931 1.1941-6.2403 1.7762-1.8445 1.7762 13.413 0 17.179 0.82295 19.981 4.0411 13.758 1.2162-2.3519 1.6661-5.902 1.6874-13.314l0.0289-10.107 1.2065 8c1.2153 8.0581 1.4366 8.137 3.3413 1.1898 0.84172-3.0701 0.76897-3.916-0.3745-4.3548-0.78053-0.29951-1.0959-1.0599-0.70082-1.6898 0.39507-0.62987 1.0074-3.1702 1.3606-5.6452 0.6221-4.3583 0.64654-4.3032 0.77594 1.75 0.17143 8.0189 1.4165 8.0601 7.5524 0.25 2.5926-3.3 4.9788-6 5.3025-6s-0.22835 0.90276-1.2269 2.0061c-0.99854 1.1034-1.5696 2.2521-1.269 2.5527 0.30059 0.3006 1.4978-0.66285 2.6605-2.141 1.1627-1.4781 2.114-2.2553 2.114-1.727 0 1.2668-4.5022 5.4736-5.1571 4.8187-0.27982-0.27981-1.9942 1.3397-3.8098 3.599-4.0712 5.066-3.0174 6.2214 4.967 5.4456 15.885-1.5435 32.084-1.6901 49.5-0.44809 10.45 0.74524 22.938 1.2381 27.75 1.0953 5.5003-0.16324 8.75 0.12255 8.75 0.7695 0 0.5943 2.6409 1.0351 6.25 1.0432 3.4375 8e-3 15.025 0.70573 25.75 1.5511 10.725 0.84541 34.8 1.6945 53.5 1.8869 35.48 0.36503 48.5 1.1188 48.5 2.808 0 0.62651-1.4044 0.71569-3.75 0.23814-2.0625-0.41993-18.6-0.89654-36.75-1.0591-18.15-0.1626-40.2-0.83987-49-1.505-24.417-1.8456-54.541-2.3106-55.889-0.86254-0.85099 0.91398-0.35064 1.051 2.1392 0.58577 1.8596-0.34746 3.25-0.19014 3.25 0.36776 0 0.53625-0.90001 0.975-2 0.975-1.1 0-2 0.42304-2 0.94009 0 1.4333 4.9623 0.7389 5.932-0.83006 0.50373-0.81505 0.63769 0.61951 0.32731 3.5051-0.61791 5.7448-1.2593 7.0444-1.2593 2.5515 0-1.7417-0.467-3.1667-1.0378-3.1667-0.62555 0-0.84497 1.5994-0.55241 4.0266 0.28949 2.4017 0.10297 3.7903-0.46224 3.441-0.52116-0.32211-0.94758-2.1341-0.94758-4.0266s-0.45001-3.441-1-3.441c-0.87931 0-1.3485 2.8094-1.3602 8.1449-3e-3 1.3396-0.3411 1.4341-1.8217 0.50945-1.2871-0.80381-1.8181-2.358-1.8181-5.3216 0-2.4453-0.51983-4.3709-1.25-4.6304-0.6875-0.24433-0.0125-0.28858 1.5-0.0983 3.4586 0.43505 3.6241-1.1679 0.20909-2.025-2.8419-0.71326-2.4078-2.5791 0.59992-2.5791 1.0675 0 1.941-0.45 1.941-1 0-0.61767-4.6836-0.96189-12.25-0.90032-7.2318 0.0589-11.226 0.4096-9.75 0.85621 1.375 0.4161-5.0152 0.72393-14.2 0.68407-14.953-0.0649-19.128 0.36509-17.673 1.82 0.84447 0.84447 41.806-0.75931 41.277-1.6161-0.28683-0.46409 1.4176-0.78456 3.7875-0.71216l4.309 0.13164-3.5 0.73672c-1.925 0.40519-2.825 0.87565-2 1.0455 0.82499 0.16981-6.375 0.66174-16 1.0932-21.586 0.96759-19.663 0.85294-24.814 1.4788-3.5986 0.43727-4.1171 0.76107-3.1276 1.9533 0.92933 1.1198 0.88899 1.4508-0.18634 1.5289-0.75484 0.0548-0.24743 0.45997 1.1276 0.90032 2.4824 0.79499 2.4836 0.80134 0.17667 0.90032-1.6462 0.0706-2.2267 0.60972-1.9917 1.8497 0.23178 1.223 1.4584 1.8435 4.0733 2.0604 2.0579 0.17071 3.7417 0.75293 3.7417 1.2938s-0.5625 0.91043-1.25 0.82115c-0.6875-0.0893-2.4251-0.109-3.8613-0.0438-2.19 0.0994-2.5378 0.50295-2.1558 2.5013 0.25052 1.3105-0.0369 2.6871-0.63868 3.059-0.70326 0.43464-1.1224-0.50596-1.1731-2.6328-0.0434-1.82-0.29309-2.785-0.55483-2.1445-0.32475 0.79468-1.4111 0.89624-3.421 0.3198l-2.9452-0.84466v4.7697c0 4.0644-0.35494 4.9314-2.4002 5.8633-1.3201 0.60149-2.6089 0.88491-2.864 0.62982-0.25509-0.25508-0.27632-5.2751-0.0472-11.156 0.44412-11.398-0.029-15.247-1.8743-15.247-0.63119 0-0.88436 0.26325-0.56261 0.58501 0.32176 0.32176 0.11089 1.9451-0.46859 3.6074-0.82173 2.3572-0.74874 3.2356 0.33165 3.9911 1.0694 0.74787 1.1003 1.0844 0.13527 1.4759-0.6875 0.27897-1.25 1.1713-1.25 1.9829s0.35626 1.2555 0.7917 0.98638 0.79406 1.3918 0.79692 3.691c3e-3 2.2992 0.35622 8.6803 0.78523 14.18s0.89807 12.965 1.0423 16.589c0.20683 5.1955 0.71937 7.0463 2.4231 8.75 2.4167 2.4167 4.153 2.7953 4.1761 0.91074 0.0106-0.86335 0.29774-0.80361 0.92838 0.19314 0.73921 1.1684 1.4028 1.22 3.4847 0.27144 2.1585-0.98346 2.5716-0.92333 2.5716 0.37425 0 1.1453 0.58308 1.3633 2.25 0.84133 5.4033-1.6921 5.3375-1.6812 3.8795-0.64102-1.0035 0.716-0.27417 1.0824 2.7239 1.3683 2.6566 0.25334 3.7524 0.0485 3.1205-0.58348-0.53567-0.53567-0.97393-1.8105-0.97393-2.833 0-1.1326-0.44372-1.5848-1.1355-1.1572-0.62451 0.38596-0.12756-0.66152 1.1043-2.3277 1.7154-2.3202 2.0797-3.7584 1.556-6.1427-0.37608-1.7123-1.3018-3.1132-2.0573-3.1132s-2.5197-0.52223-3.9206-1.1605c-2.1553-0.982-2.5316-1.7896-2.4466-5.25l0.10045-4.0895 0.92715 3.958c1.0677 4.5582 2.174 5.5054 6.4552 5.5266 4.3104 0.0214 14.417 2.1399 14.417 3.0221 0 0.40187-2.5875 0.12177-5.75-0.62243-3.1625-0.74421-6.0182-1.3601-6.3459-1.3687-0.32773-9e-3 -0.65068 1.8969-0.71764 4.2344-0.067 2.3375-0.24881 5.5793-0.40411 7.204-0.21988 2.3004 0.27083 3.2352 2.2176 4.2246 2.3903 1.2148 2.5329 1.1181 3.25-2.204 0.41249-1.911 1.1531-5.1621 1.6458-7.2246 0.86122-3.605 0.88334-3.5566 0.57218 1.25-0.17803 2.75-0.62208 5.7687-0.98679 6.7081-0.84196 2.1689 0.97128 2.5861 13.83 3.1819 9.3388 0.43273 9.8493 0.35086 10.608-1.7013l0.79751-2.1559 0.68048 2.144c0.65419 2.0612 1.2545 2.1466 15.538 2.2104 15.448 0.069 16.298-0.14622 17.341-4.3872 0.37163-1.5119 0.51992-1.3228 0.60761 0.77475 0.13517 3.2333 3.028 4.7252 9.162 4.7252 3.4558 0 3.9882-0.32307 4.532-2.75 0.33886-1.5125 1.0199-4.325 1.5135-6.25 0.49356-1.925 0.89989-3.8259 0.90295-4.2243 8e-3 -1.0635-5.5106-3.736-11.373-5.5072-2.817-0.85117-4.5918-1.7365-3.944-1.9673 0.64782-0.23085 4.4728 0.90635 8.5 2.5271 6.9813 2.8096 7.3153 3.0918 7.1747 6.0593-0.0811 1.7118 0.0721 3.1124 0.34051 3.1124 0.26838 0 2.9222-2.0797 5.8975-4.6215 2.9752-2.5418 5.3956-4.0043 5.3786-3.25-0.017 0.75431-1.9295 2.8362-4.25 4.6264-7.3789 5.6927-8.3754 6.7398-9.0778 9.5383-0.93528 3.7264 1.0063 4.3437 16.155 5.1361 6.72 0.35152 12.844 0.87939 13.61 1.173 0.76528 0.29367 1.6885 0.0533 2.0516-0.53424 0.3631-0.58749 0.18362-1.0682-0.39885-1.0682-0.58246 0-1.059-0.45-1.059-1 0-1.8336 2.1795-1.0294 2.7102 1 0.4927 1.8841 3.692 2.5415 11.04 2.2686 0.6875-0.0255 1.2509 0.24107 1.252 0.59246 1e-3 0.35139 1.3511 0.73327 3 0.84863 2.5039 0.17518 2.998-0.1608 2.998-2.0386 0-1.2366 0.89598-4.0057 1.9911-6.1537s2.257-5.3232 2.5822-7.0561c0.53793-2.8675 0.2915-3.262-2.7411-4.3887-6.2739-2.3308-6.2144-2.2397-5.935-9.0857 0.14324-3.5097 0.87639-8.205 1.6292-10.434 0.75282-2.2291 1.8032-7.5763 2.3342-11.883s1.2921-8.1313 1.6913-8.5c1.2563-1.1602-0.49472 13.001-2.5671 20.762-1.0916 4.0878-1.9847 9.3396-1.9847 11.671 0 3.9723 0.20386 4.2818 3.25 4.9331 1.7875 0.38221 3.8192 1.1536 4.515 1.7143 0.9977 0.804 1.2346-0.38247 1.1211-5.6155-0.0791-3.6492-0.59097-6.6349-1.1374-6.6349-0.54646 0-0.37595-0.76138 0.3789-1.692 1.1689-1.441 1.1641-1.5664-0.0321-0.84549-0.98783 0.59534-1.1776 0.47932-0.63967-0.39106 0.42066-0.68064 0.91415-5.5241 1.0966-10.763 0.34928-10.028 0.73914-11.417 2.6642-9.4915 0.65083 0.65083 0.75583 1.1839 0.23333 1.1846-0.54749 7.5e-4 -1.039 6.2502-1.16 14.75-0.13201 9.2705 0.12046 14.006 0.67972 12.749 1.1945-2.6851 1.2535-0.76508 0.10011 3.2566-0.51158 1.7839-0.55973 3.2434-0.10696 3.2434 1.0279 0 2.0123-2.4802 2.1161-5.3318 0.0434-1.1925 0.30685-1.6029 0.58541-0.91198 0.75223 1.8658 2.3379 0.45446 2.3203-2.0652-0.0125-1.7812-0.1966-1.9105-0.98469-0.69098-0.80408 1.2442-0.97461 1.159-1-0.5-0.0259-1.69-0.19628-1.7675-1.0995-0.5-0.81087 1.1379-0.92969 0.69444-0.49225-1.8372 0.31715-1.8355 0.10755-5.2105-0.46578-7.5-0.80821-3.2275-0.71242-5.0942 0.42639-8.3085 0.80785-2.2801 1.2955-6.1051 1.0837-8.5-0.21183-2.3949-0.12973-3.5015 0.18244-2.4592 0.45744 1.5273 0.73906 1.6244 1.451 0.5 0.60317-0.95258 0.88826-0.20557 0.89873 2.3548 8e-3 2.0625 0.4653 3.75 1.0153 3.75 0.54999 0 1 0.65982 1 1.4663 0 1.4703 4.9487 9.6828 11.469 19.034 23.407 33.567 22.956 32.989 26.036 33.396 2.7851 0.36865 2.8314 0.43922 0.65952 1.0063l-2.3356 0.60983 2.1996 2.7964c1.2098 1.538 1.9688 3.0272 1.6866 3.3094s-1.6994-1.0424-3.1494-2.9434l-2.6364-3.4565-10.668 0.1408c-10.476 0.13825-10.681 0.18591-11.365 2.6408l-0.69659 2.5-0.0997-2.7838c-0.0986-2.7538-0.16688-2.7822-6.3497-2.6378-3.4375 0.0803-6.7 0.0422-7.25-0.0846-2.5995-0.59945-2.9831 0.33016-2.6665 6.4633 0.27456 5.3191 0.67229 6.5687 2.25 7.0695 2.0168 0.6401 2.1714 1.4828 1.9348 10.548-0.16074 6.1593 1.2646 8.3107 5.1356 7.752 1.4127-0.20389 2.524-1.2668 2.9554-2.8268 0.67651-2.4465 0.69344-2.4506 0.79099-0.19098 0.0563 1.3044 0.54554 2.0335 1.1245 1.6757 0.56362-0.34834 0.90112-0.0374 0.75 0.69098-0.38563 1.8586 24.238 2.4056 25.407 0.56442 0.62482-0.98381 0.79075-0.98176 0.8029 0.01 8e-3 0.6875 0.46531 1.25 1.0153 1.25 0.5577 0 0.93724-2.3221 0.85809-5.25l-0.1419-5.25-0.71619 4c-1.2042 6.7259-1.0877 0.51203 0.15008-8 0.63982-4.4 1.5014-8.3861 1.9146-8.858 0.9701-1.1079 0.39879 27.799-0.58073 29.384-0.4071 0.65869-0.12002 1.5973 0.63794 2.0858 1.1174 0.72019 1.1328 1.0467 0.0815 1.726-0.87982 0.56851-1.362 3.7822-1.5 9.9978-0.11186 5.038-0.54088 9.161-0.95338 9.1622-0.4125 1e-3 -0.75-1.3337-0.75-2.9664 0-2.0702-0.40549-2.813-1.3398-2.4545-0.73688 0.28277-1.9416-0.21098-2.6771-1.0972-1.066-1.2844-1.0985-2.2717-0.16021-4.8665 0.64739-1.7903 1.1771-4.4158 1.1771-5.8345 0-2.4658-0.24212-2.5771-5.5-2.5298-4.9106 0.0442-5.4984 0.27458-5.4847 2.1503 0.0126 1.7229 0.18972 1.831 0.98469 0.60083 0.78609-1.2164 0.97227-1.0805 0.98469 0.71862 0.0108 1.5644-0.42702 2.0489-1.4847 1.643-0.825-0.31659-1.5-1.6108-1.5-2.8761 0-2.0833-0.52421-2.3328-5.5524-2.643-3.0538-0.1884-5.9788 0.085-6.5 0.60745-0.59813 0.59956-0.9476 0.50736-0.9476-0.25009 0-0.78536-1.8681-1.2-5.4064-1.2-4.8525 0-5.3546 0.19813-4.9006 1.9339 0.27817 1.0637 7e-3 3.4448-0.60236 5.2915-0.72755 2.2045-0.80602 4.9746-0.22845 8.0661 0.4838 2.5897 0.51806 4.7085 0.0761 4.7085-0.97992 0-1.5537-1.969-2.477-8.5-0.55207-3.9051-0.88357-4.562-1.5138-3-1.0518 2.6071-1.1486 16.635-0.12592 18.246 0.54936 0.86511 6.8823 1.5618 20.735 2.2811 19.911 1.0339 25.412 1.5834 26.413 2.6381 0.29171 0.30739-3.2946 0.26361-7.9696-0.0973-17.582-1.3573-19.729-1.4886-29-1.7731-8.5801-0.26335-9.4716-0.12227-9.2062 1.457 0.16161 0.96171-0.1759 1.7486-0.75 1.7486-0.57409 2e-5 -1.0438-0.47654-1.0438-1.059s-0.45001-0.7809-1-0.44098c-0.55001 0.33992-1-0.0393-1-0.8428 0-1.0466-1.7574-1.6648-6.1976-2.1801-5.995-0.69579-6.2743-0.62544-8.5446 2.1518-3.857 4.7182-9.2014 14.792-9.789 18.451-0.48891 3.0446-0.40756 3.2077 0.741 1.4856 3.0327-4.5469 9.4838-10.888 13.429-13.2 3.442-2.0172 4.6462-2.2833 6.3075-1.3942 2.8728 1.5375 2.5571 2.0793-0.81804 1.4043-2.1151-0.42302-3.9652 0.14958-7.0241 2.1738-4.4574 2.9498-11.603 11.836-10.696 13.302 0.30259 0.4896 1.9095 1.162 3.571 1.4943 2.7607 0.55213 3.0208 0.95078 3.0208 4.6292 0 2.2138-0.45 4.025-1 4.025-0.55001 0-1.0522 1.0125-1.116 2.25-0.0873 1.6932-0.22919 1.8169-0.57334 0.5-0.36753-1.4064-1.5717-1.7512-6.134-1.7562-3.1222-3e-3 -6.9656-0.67839-8.541-1.5-3.6757-1.917-3.4435-2.0212-3.9123 1.7562-0.34401 2.772-0.42686 2.6153-0.56336-1.0657-0.21139-5.7005 1.1464-7.9635 5.2387-8.7312 3.0091-0.56451 3.4607-1.0834 4.1712-4.793 1.1113-5.802 0.71978-8.3741-2.196-14.427-2.6222-5.4429-6.875-8.7459-9.8106-7.6194-0.85985 0.32995-1.5634 0.10176-1.5634-0.50708 0-0.70995-2.6637-1.107-7.4267-1.107-6.2321 0-7.5002 0.28148-7.884 1.75-0.43555 1.6667-0.46285 1.6667-0.57333 0-0.0789-1.1895-0.951-1.75-2.723-1.75-1.8388 0-2.4467 0.4176-2.0631 1.4172 0.44117 1.1497 0.0212 1.1173-2.2246-0.17161-2.6372-1.5136-6.7726-1.1343-5.7458 0.52694 0.26741 0.43269-0.69181 0.73514-2.1316 0.67211-1.4398-0.063-2.7926-0.63887-3.0062-1.2796-0.5793-1.7379-2.0118-1.407-2.5324 0.58495-0.43555 1.6667-0.46285 1.6667-0.57333 0-0.0965-1.4556-1.1075-1.75-6.009-1.75-6.4134 0-8.0413 1.3857-6.034 5.1364 0.69896 1.306 0.72904 2.3997 0.0874 3.1776-1.0381 1.2584-1.9109 9.2689-1.0984 10.081 0.26426 0.26425 0.36087 6.0209 0.21469 12.793-0.22617 10.477-0.0202 12.494 1.3823 13.535 1.5303 1.1351 1.5299 1.2678-5e-3 1.857-1.8745 0.7193-2.1381 4.0158-0.63693 7.9641 0.7797 2.0508 1.3217 2.4206 2.3261 1.587 1.6597-1.3778 12.657-6.2675 12.657-5.6279 0 0.26259-2.925 1.8037-6.5 3.4247s-6.5143 3.538-6.5318 4.26c-0.0214 0.88176-0.46419 0.74331-1.3489-0.42174-0.72439-0.95395-1.6101-1.4414-1.9682-1.0833-0.35811 0.35812-0.65111-1.6739-0.65111-4.5155 0-5.0978-0.0408-5.1667-3.0634-5.1667-2.8453 0-3.0411 0.22794-2.75 3.2023 0.24393 2.4928 1.46 4.099 5.489 7.25 4.8665 3.806 6.308 5.5529 4.5744 5.5438-0.41251-2e-3 -3.1125-2.0924-6-4.6449zm76.029-24.689c1.0657-3.1972 0.42811-4.12-3.4828-5.0408-1.7234-0.40574-3.1677-0.13977-3.9835 0.73355-0.90657 0.97048-1.7459 1.079-2.8779 0.3721-1.7664-1.1031-7.2131 0.99075-7.2124 2.7727 8.5e-4 2.0373 6.7313 4.4757 11.694 4.2368 4.4216-0.21292 5.0119-0.52245 5.8625-3.0743zm-8.5961-8.85c-0.31922-0.79773-0.55618-0.56078-0.60416 0.60417-0.0434 1.0542 0.19292 1.6448 0.52522 1.3125 0.33229-0.3323 0.36781-1.1948 0.0789-1.9167zm10.086-18.488c2.9739-4.1764 2.8395-4.6143-1.269-4.1346-1.925 0.22474-3.5 0.049-3.5-0.39059 0-0.43956-2.9479-0.7992-6.5509-0.7992h-6.5509l2.4797 3.2511c3.0152 3.9531 6.6137 12.121 6.6448 15.082 0.0153 1.4545 1.0901 0.18725 3.269-3.8541 1.7854-3.3117 4.2502-7.4311 5.4773-9.1544zm-8.6915 8.4256c0.10196-1.6444 3.7445-11.501 3.845-10.404 0.11603 1.2667-2.9977 11.654-3.4935 11.654-0.23597 0-0.39416-0.5625-0.35154-1.25zm-68.077 2.75c0.69443-0.83674 0.80271-1.5 0.24488-1.5-0.55 0-1.5602 0.675-2.2449 1.5-0.69444 0.83674-0.80273 1.5-0.2449 1.5 0.55001 0 1.5602-0.675 2.2449-1.5zm-3.5071-1.4886c0.36138-0.58472-0.12514-0.73669-1.191-0.37202-0.99107 0.33909-0.11443-0.82383 1.9481-2.5843 5.2328-4.4664 4.6965-5.8592-0.75-1.9478-4.7032 3.3776-5.3323 4.3901-3.25 5.2303 1.9706 0.79516 2.5882 0.73302 3.2429-0.32627zm4.5071-2.0114c0-0.55-0.19844-1-0.44099-1-0.24254 0-0.71909 0.45-1.059 1s-0.14148 1 0.44097 1c0.58246 0 1.059-0.45 1.059-1zm-7.1713-3.0974c0.72041-1.1536 1.5668-1.8404 1.8809-1.5264 0.84178 0.84178 6.2904-2.6098 6.2904-3.9849 0-0.64757-0.75279-1.4663-1.6729-1.8194-2.1687-0.83221-8.7149 4.3781-9.1467 7.2801-0.40737 2.7381 0.95364 2.7641 2.6483 0.0505zm3.6862-4.1838c0.9658-1.5297 2.0076-2.5297 2.315-2.2222 0.30745 0.30744-0.48276 1.559-1.756 2.7812l-2.315 2.2222zm-42.015-1.339c3.6907-3.3128 2.9995-3.1623-3.25 0.70793-2.1932 1.3582-3.0055 2.9273-1.5 2.8974 0.41249-8e-3 2.55-1.6306 4.75-3.6054zm1.0288-4.4263c0.92866-1.5026-1.8568-1.1124-4.3063 0.60326-1.2224 0.85619-2.2225 2.2368-2.2225 3.0681 0 1.2131 0.58611 1.094 2.9698-0.60327 1.6334-1.1631 3.2349-2.5437 3.559-3.0681zm-74.929 3.2812c0.60503-0.40408 1.357-1.4097 1.671-2.2347 0.45482-1.1948 0.58706-1.1439 0.64995 0.25 0.0434 0.9625 0.78427 1.75 1.6463 1.75 1.141 0 1.4001-0.61203 0.95225-2.25-0.53094-1.942-0.46493-2.0105 0.48231-0.5 0.61264 0.97693 2.3132 1.75 3.8496 1.75h2.7522l-0.75055-6.75c-0.4128-3.7125-0.72881-9-0.70222-11.75 0.0786-8.1306 1.6314-1.3887 1.7493 7.595 0.12642 9.6323 1.5147 11.348 7.8742 9.7343 3.5554-0.90247 4.2493-1.4893 4.3753-3.7009l0.14983-2.6284 0.41659 2.75c0.32305 2.1325 0.96301 2.75 2.8502 2.75 1.714 0 2.4336-0.55516 2.4336-1.8776 0-2.0866 2.3148-4.4742 3.342-3.4471 1.0409 1.0409 0.76542 3.3247-0.40102 3.3247-0.58246 0-0.73793-0.51953-0.34549-1.1545 0.44208-0.7153 0.27431-0.88306-0.44099-0.44098-0.63498 0.39244-1.1545 1.137-1.1545 1.6545 0 1.2658 14.716 1.2098 15.5-0.059 0.33991-0.55 0.14147-1-0.44099-1-0.69009 0-0.98611-3.5708-0.84973-10.25l0.20929-10.25 0.32693 9.75c0.1798 5.3625 0.64812 9.7357 1.0407 9.7182 0.39258-0.0175 1.5873-0.6925 2.6549-1.5 1.0676-0.80751 2.6426-1.4506 3.5-1.4291 0.85738 0.0215 0.0964 0.67481-1.6911 1.4517-4.4022 1.9134-4.4958 5.0083-0.125 4.1341 1.7188-0.34375 6.024-0.625 9.5671-0.625h6.4421l-0.23002-7.092-0.23002-7.092 5.8322-4.3623c3.2077-2.3993 6.2009-4.1345 6.6515-3.856 0.45056 0.27847 0.55887-0.17214 0.24066-1.0014-0.48265-1.2578-1.268-1.0796-4.7385 1.0754-2.288 1.4207-4.9276 3.2525-5.8658 4.0707-1.577 1.3754-1.6615 1.2147-1.1192-2.1273 0.53971-3.3258 0.39147-3.615-1.8531-3.615-1.3418 0-3.3132 0.70837-4.3808 1.5742-1.0676 0.86578-1.2661 1.2294-0.44113 0.80804 1.3333-0.68099 1.3333-0.55951 0 1.0934-1.4363 1.7806-1.5123 1.7569-1.7905-0.55804l-0.29048-2.4176-11.96 0.91653c-6.5777 0.50409-11.96 1.3182-11.96 1.809 0 0.49086-0.4801 0.59577-1.0669 0.23311-0.58952-0.36434-0.92813-0.0552-0.75678 0.69099 0.17055 0.74269-0.13685 1.3504-0.68312 1.3504s-0.88602-0.7875-0.75501-1.75c0.18096-1.3294-0.48-1.75-2.75-1.75h-2.9882l-0.20125 8.25-0.20124 8.25-0.34193-7.8112-0.34192-7.8112-10.207 0.55152c-5.6138 0.30333-11.332 0.74339-12.707 0.9779s-3.9453 0.46388-5.7118 0.50972l-3.2118 0.0833 0.53919 9.75c0.72835 13.17 2.2906 16.952 5.9845 14.485zm60.02-7.7816c-0.7434-1.9373 0.98243-5.459 2.6648-5.4378 0.76314 0.01 0.65711 0.37574-0.28517 0.98469-1 0.64625-1.0833 0.97448-0.25 0.98469 1.6747 0.0205 1.5908 2.4875-0.13322 3.9184-1.0702 0.88817-1.522 0.78634-1.9964-0.45zm2.3796-1.4531c0-0.55-0.45001-1-1-1-0.55001 0-1 0.45-1 1s0.44999 1 1 1c0.54999 0 1-0.45 1-1zm-29.264-5.5978c-0.32877-0.32877-0.35562-1.2288-0.0597-2 0.61225-1.5955 3.3241-1.9236 3.3241-0.40223 0 0.55-0.33751 0.94671-0.75 0.88158-1.9755-0.31192-2.5994 0.24636-1.25 1.1184 0.82499 0.53316 1.0125 0.97627 0.41666 0.98469-0.59583 8e-3 -1.3523-0.25368-1.6811-0.58246zm25.621-0.91496c-0.68199-1.7772 1.2903-4.4873 3.2657-4.4873 1.6954 0 1.8124 3.1651 0.17755 4.8-1.6135 1.6135-2.7434 1.5109-3.4433-0.31273zm3.4558-1.4248c0.25-0.75-0.125-1.125-0.875-0.875-0.72188 0.24062-1.5094 1.0281-1.75 1.75-0.25 0.75 0.125 1.125 0.875 0.875 0.72187-0.24063 1.5094-1.0281 1.75-1.75zm18.687 14.938c0.33992-0.55 0.14148-1-0.44099-1-0.58246 0-1.059 0.45-1.059 1s0.19844 1 0.44097 1c0.24254 0 0.71911-0.45 1.059-1zm30.957-0.9309c0.31645-0.512 0.11799-1.2136-0.44098-1.559s-1.0163 0.0734-1.0163 0.9309c0 1.7565 0.60005 2.0152 1.4573 0.62812zm100.1-5.3191c0.76463-5.6803 0.79325-20.734 0.0408-21.486-0.17109-0.17109-5.5505-0.53134-11.954-0.80055-10.636-0.44713-11.644-0.33696-11.658 1.2736-0.0105 1.2149-0.25564 1.3848-0.78824 0.54667-1.3586-2.1381-30.185-4.0021-30.212-1.9536-0.0105 0.80293-0.27094 0.7671-0.83015-0.11422-1.1791-1.8583-17.32-1.218-17.964 0.71257-0.32804 0.98412 0.056 1.191 1.3144 0.70808 1.5004-0.57576 1.5806-0.44455 0.51401 0.84065-1.8309 2.2061-3.019 1.8711-3.019-0.85108 0-2.2747-0.30611-2.3775-7.3221-2.4592l-7.3221-0.0853-0.16935 6.1447c-0.20878 7.5752-0.94147 10.082-2.7447 9.3898-0.75769-0.29076-1.6866-0.0288-2.0642 0.58218-0.45178 0.73099-0.20627 0.83189 0.71797 0.29508 0.77248-0.44867 0.31357 0.3818-1.0198 1.8455-1.3334 1.4637-2.0084 2.6774-1.5 2.6972 0.50837 0.0198-0.39849 1.1172-2.0152 2.4387l-2.9396 2.4028 4.1104-0.16235c2.2607-0.0893 3.8944-0.51172 3.6305-0.93872s-3e-3 -0.77636 0.5792-0.77636c1.4238 0 1.3521-2.7008-0.0955-3.5955-0.66136-0.40874-0.88501-0.27746-0.52358 0.30733 0.34701 0.56148-0.37096 1.8685-1.5955 2.9045-2.2049 1.8655-2.2102 1.8643-0.54768-0.11635 0.92331-1.1 1.5983-2.2571 1.5-2.5714-0.0983-0.31428 0.60876-1.3589 1.5713-2.3214 1.6667-1.6667 1.7575-1.5918 1.9084 1.5714 0.0871 1.8268 0.0924 4.1089 0.0118 5.0714-0.11399 1.3602 0.63025 1.75 3.3416 1.75 2.1157 0 3.4942-0.49183 3.5035-1.25 0.0102-0.82863 0.26298-0.89263 0.75-0.18987 0.40408 0.58307 2.5658 1.0616 4.8038 1.0633 4.0254 3e-3 5.006-1.2658 3.2162-4.1618-0.34099-0.55174-0.31968-4.3326 0.0473-8.4019 0.47593-5.2767 1.0976-7.5328 2.1673-7.8662 0.825-0.25709 1.1695-0.11282 0.76554 0.3206-0.40395 0.43341 0.0461 1.3953 1 2.1376 1.6194 1.26 1.5722 1.4868-0.71251 3.4187-2.0708 1.7511-2.263 2.3637-1.25 3.9858 1.459 2.3363 1.5343 3.2703 0.19697 2.4438-0.55-0.33992-1 0.11008-1 1s0.44933 1.3403 0.9985 1.0009c0.54918-0.33941 0.92788 0.19653 0.84156 1.191-0.36942 4.2559 0.17086 5.3081 2.7257 5.3081 1.4112 0 3.4905-0.4949 4.6207-1.0998 1.1569-0.61917 1.7893-0.66991 1.447-0.11611-0.38346 0.62045 3.6144 1.028 10.827 1.1037 9.9239 0.1042 11.57-0.11176 12.457-1.6339 0.97141-1.668 1.023-1.6682 1.0519-4e-3 0.0219 1.2599 0.84762 1.75 2.9486 1.75 1.605 0 3.6271 0.27203 4.4936 0.60452 1.0529 0.40403 1.8881-0.17633 2.5184-1.75 0.83715-2.0901 0.95026-2.1299 1.0072-0.35452 0.0454 1.4161 0.80384 2.0427 2.5979 2.1464 2.1594 0.12474 2.4331-0.17076 1.8525-2-1.0192-3.211-0.67912-16.305 0.4767-18.356 0.71218-1.2639 0.84035 0.45547 0.43608 5.8499-0.57427 7.663 0.0458 12.86 1.5344 12.86 0.43824 0 1.8035-1.7912 3.0339-3.9804 2.292-4.0778 5.5832-7.0195 7.8538-7.0195 0.70262 0 1.2775 0.45 1.2775 1s-0.87711 1-1.9491 1c-1.8531 0-5.5144 4.003-7.9007 8.6381-0.96522 1.8748-0.79442 2.1967 1.387 2.6137 1.6815 0.32143 4.1801-0.59145 7.7091-2.8166 5.3496-3.373 8.3897-3.2039 6.9738 0.38781-0.59955 1.5209-0.69483 1.509-1.0245-0.12845-0.44646-2.2172-2.425-1.7393-2.7788 0.67116-0.21802 1.4855 2.1767 3.3085 4.6907 3.5708 0.33416 0.0349 0.98614-2.7491 1.4489-6.1866zm-79.927-0.27254c-0.62091-1.618-0.88431-1.689-1.6682-0.44943-0.56794 0.89805-0.93686 1.0076-0.9462 0.28099-0.0224-1.742 1.9953-2.6984 3.1843-1.5094 0.56395 0.56395 0.83234 1.6045 0.5964 2.3123-0.28153 0.84458-0.68241 0.6265-1.1663-0.63448zm13.37 0.84498c0-0.50734 0.50482-1.4273 1.1218-2.0443 1.2315-1.2315 3.8782-0.62559 3.8782 0.88787 0 0.52361-0.46972 0.66173-1.0438 0.30692-0.5741-0.35481-1.6991-0.10127-2.5 0.56342-0.80091 0.6647-1.4562 0.79344-1.4562 0.28609zm-16.476-7.2828c-0.98474-1.5934 0.41227-5.0396 2.0429-5.0396 0.78793 0 1.4326 0.8449 1.4326 1.8776 0 2.362-2.5412 4.6739-3.4755 3.162zm2.4755-2.6576c0-0.825-0.45001-1.2219-1-0.88197-0.55001 0.33992-1 1.293-1 2.118s0.44999 1.2219 1 0.88197c0.54999-0.33992 1-1.293 1-2.118zm14 3.225c0-0.21616 0.69836-0.661 1.5519-0.98855 0.88992-0.34149 1.2913-0.17385 0.94098 0.39301-0.58725 0.95021-2.4929 1.4054-2.4929 0.59554zm0.2572-3.607c0.2252-0.825 1.0095-1.5 1.7428-1.5 0.73332 0 1.5176 0.675 1.7428 1.5 0.36397 1.3333 0.2899 1.3333-0.66667 0-0.95656-1.3333-1.1957-1.3333-2.1523 0s-1.0306 1.3333-0.66666 0zm10.015-5c0-2.475 0.19502-3.4875 0.43338-2.25 0.23835 1.2375 0.23835 3.2625 0 4.5-0.23836 1.2375-0.43338 0.225-0.43338-2.25zm-25.778-1.009c-0.96057-1.5542 0.46683-4.991 2.0729-4.991 0.78793 0 1.4326 0.45 1.4326 1s-0.53578 0.8875-1.1906 0.75c-0.65485-0.1375-1.3818 0.63568-1.6154 1.7182-0.386 1.7888-0.25468 1.8343 1.4406 0.5 1.716-1.3506 1.7555-1.3281 0.4929 0.28183-1.5964 2.0356-1.798 2.0923-2.6331 0.74105zm15.506-2.491c0-1.51 0.5706-2.5 1.441-2.5 2.11 0 2.9129 1.8687 1.5227 3.5438-1.8039 2.1736-2.9636 1.7651-2.9636-1.0438zm3-0.61803c0-0.55-0.45001-0.72189-1-0.38197-0.55001 0.33992-1 1.068-1 1.618s0.44999 0.72189 1 0.38197c0.54999-0.33992 1-1.068 1-1.618zm56.362 22.618c0.31658-0.825 0.19482-1.5-0.27057-1.5s-1.4064 0.675-2.091 1.5c-1.0134 1.2211-0.96312 1.5 0.27056 1.5 0.8335 0 1.7745-0.675 2.0911-1.5zm9.6384 1.059c0-0.24254-0.45001-0.7191-1-1.059-0.55001-0.33992-1-0.14148-1 0.44098s0.44999 1.059 1 1.059c0.54999 0 1-0.19844 1-0.44098zm-139.14-3.957c2.1097-1.5565 2.792-2.5674 1.9443-2.8808-0.78726-0.29103-0.2137-0.91752 1.444-1.5772 1.5125-0.60195 2.75-1.5556 2.75-2.1192 0-1.3216-1.695-1.3273-2.5101-8e-3 -0.34546 0.55897-1.073 0.74136-1.6167 0.40531-1.1864-0.73326-8.8732 4.1626-8.8732 5.6516 0 1.2152 1.6249 0.41495 4.6222-2.2762 1.7681-1.5875 2.2157-1.6617 2.6828-0.4447 0.36748 0.95763-0.44959 1.8792-2.3722 2.6756-1.613 0.66813-2.9327 1.6102-2.9327 2.0935 0 1.456 1.4381 1.0066 4.8617-1.5193zm4.6383 0.39799c2.31-2.5525 0.76318-2.5525-2.5 0-1.8199 1.4236-2.0661 1.9616-0.90499 1.9778 0.87725 0.0122 2.4095-0.87776 3.405-1.9778zm8.0966-2.6632c0.79472-4.2362-0.39348-6.7018-3.4487-7.1563-1.8001-0.26781-2.1479 0.17749-2.1479 2.75 0 1.6882 0.46582 3.0696 1.0352 3.0696 0.71358 0 0.71358 0.60093 0 1.9343-1.475 2.756-1.3316 3.0657 1.4195 3.0657 2.0344 0 2.5723-0.62713 3.1419-3.6632zm7.4001 1.1718c0.77832-2.0472 0.40466-3.2953-2.0956-7-1.7926-2.6562-3.8121-4.5086-4.9153-4.5086-2.2414 0-5.0512-3.6661-4.3034-5.6148 0.29235-0.76186 0.0635-1.3852-0.50865-1.3852-0.58661 0-0.94894 1.8075-0.83095 4.1451 0.15767 3.1234 0.70433 4.3282 2.2179 4.8881 3.4929 1.2921 4.7408 3.682 4.1648 7.9764-0.51876 3.8676-0.44507 3.9904 2.3944 3.9904 2.2021 0 3.1648-0.6187 3.8768-2.4914zm17.856-1.7143c3.3264-3.3597 3.8676-4.3715 2.6906-5.0302-2.2643-1.2672-5.3283 1.224-6.3899 5.1953l-0.94646 3.5406-0.019-3.5c-0.0104-1.925 0.30718-6.114 0.70582-9.3089 0.39864-3.1949 0.33882-6.0475-0.13293-6.339-0.47176-0.29157-0.33555-1.1593 0.30269-1.9284s0.88396-2.1187 0.54606-2.9993c-0.50559-1.3176-1.7877-1.5144-7.2417-1.1117-7.084 0.52309-8.413 1.4686-7.9073 5.6259 0.17137 1.4088 0.36288 3.3489 0.4256 4.3114 0.0906 1.3905 1.0384 1.75 4.614 1.75 4.2461 0 4.4992 0.15514 4.4847 2.75-8e-3 1.5125-0.47762 3.425-1.0427 4.25-0.75385 1.1006-0.88435 0.50162-0.49014-2.25l0.53724-3.75h-4.4355c-5.5033 0-6.294 1.1514-3.4924 5.086 1.8123 2.5451 1.9984 3.4877 1.0847 5.4932l-1.103 2.4208h6.8228c6.6888 0 6.9045-0.0826 10.987-4.2056zm-0.85241-2.1719c0-0.20765 0.78749-0.99515 1.75-1.75 1.586-1.2439 1.6214-1.2085 0.37755 0.37756-1.3064 1.6658-2.1276 2.1955-2.1276 1.3724zm-36.451-4.0629c3.8096-2.4961 2.8832-2.9901-1.0494-0.55958-4.7965 2.9644-4.4073 1.8402 0.65064-1.8794 2.2829-1.6788 4.6454-2.7768 5.25-2.4398 0.63049 0.35135 0.58694 0.059-0.10212-0.68556-0.974-1.0524-2.252-0.66151-6.75 2.0646-3.0517 1.8495-5.5485 3.8808-5.5485 4.514 0 1.5682 4.5388 0.95845 7.5494-1.0142zm36.993 0.37225c0.3631-0.5875 1.313-0.81765 2.111-0.51146 0.79793 0.3062 1.1945 0.14201 0.88121-0.36487s0.78836-1.7237 2.4481-2.7042c3.067-1.8117 3.9571-4.6527 1.8631-5.9468-0.65595-0.4054-0.88518-0.27774-0.53082 0.29562 0.34303 0.55503-0.59994 2.0871-2.0955 3.4045l-2.7192 2.3954 2.2591-2.5742c1.2425-1.4158 1.9656-2.8677 1.6069-3.2265s0.0871-0.93601 0.99085-1.2828c0.90372-0.34679 1.6431-1.2839 1.6431-2.0826 0-0.91233-0.46461-1.1612-1.25-0.66944-0.6875 0.43042-1.7 0.79448-2.25 0.80902-1.9568 0.0517-6.5 3.7825-6.5 5.3376 0 1.1061 1.1136 0.54574 3.7065-1.865 2.0386-1.8954 3.1675-2.7298 2.5087-1.8542-0.65878 0.8756-0.96661 1.8232-0.68405 2.1057 0.28255 0.28256-1.0571 1.5901-2.977 2.9056-2.4279 1.6636-3.434 3.0776-3.3043 4.6443 0.19915 2.4062 1.2133 2.9301 2.2923 1.1842zm144.77-4.1997c0.32585-2.3774 0.88685-5.0897 1.2467-6.0273 0.43372-1.1303 0.15842-1.7048-0.81689-1.7048-1.3744 0-2.7429 5.5872-2.7429 11.199 0 3.4953 1.7102 0.93242 2.3131-3.4665zm-184.95-0.31497c1.576-1.3858 2.6728-2.7123 2.4374-2.9477-0.23539-0.2354-1.9748 0.89439-3.8654 2.5106-1.8906 1.6162-2.9874 2.9427-2.4374 2.9477 0.55 5e-3 2.2894-1.1248 3.8654-2.5106zm20.842-4.6671-0.39212-5.75-3.6574 0.0333-3.6574 0.0333 2.2584 1.8838c1.2421 1.0361 2.5504 3.3836 2.9072 5.2167s1.1275 3.6459 1.7126 4.0285c1.3475 0.88114 1.2872 1.2774 0.82873-5.4456zm47.564 3.4375c0.21771-0.65313-0.31666-1.1875-1.1875-1.1875-0.87083 0-1.5833 0.7125-1.5833 1.5833 0 1.7659 2.1528 1.4584 2.7708-0.39583zm-51.217-1.9375c-0.36472-1.5125-1.426-3.3324-2.3584-4.0442-1.4623-1.1164-1.7769-0.97896-2.2894 1-0.65741 2.5384 1.5102 5.7942 3.8576 5.7942 1.0796 0 1.2829-0.70722 0.79027-2.75zm128.02-6.0128c-1.2374-1.2374-1.7187 0.78942-0.93609 3.9413l0.82477 3.3215 0.34092-3.3461c0.18752-1.8404 0.0842-3.6029-0.2296-3.9167zm-245.15 4.1197c0.83717-2.1816-0.27439-3.1957-1.4556-1.3279-1.1825 1.8699-1.2077 2.971-0.0679 2.971 0.49115 0 1.1767-0.73941 1.5235-1.6431zm16.333-10.769 7.25-5.8147v-13.819l-2.7336 1.7731-2.7336 1.773 2.2336-3.1544c1.2285-1.7349 2.2336-4.4225 2.2336-5.9725 0-2.6741-0.0691-2.7173-1.3527-0.84563-1.3839 2.018-10.077 18.322-16.592 31.118l-3.6381 7.1459 4.0412-3.1946c2.2227-1.757 7.3037-5.8112 11.291-9.0093zm91.75 11.412c0.33992-0.55 0.14148-1-0.44099-1-0.58246 0-1.059 0.45-1.059 1s0.19844 1 0.44097 1c0.24254 0 0.71911-0.45 1.059-1zm-89.154-1.25c-0.25544-0.4125 0.12887-0.75 0.85403-0.75 1.6592 0 4.3031-4.0045 3.9614-6-0.69306-4.0476-1.1473-4.3581-3.4379-2.3503-1.2232 1.0721-4.8114 3.6191-7.9739 5.66s-5.7488 3.8186-5.7474 3.9505c1e-3 0.13189 2.8839 0.23979 6.4054 0.23979s6.1938-0.3375 5.9384-0.75zm5.3828 0.64583c-0.33229-0.33229-1.1948-0.36781-1.9167-0.0789-0.79774 0.31922-0.56078 0.55618 0.60416 0.60416 1.0542 0.0434 1.6448-0.19293 1.3125-0.52522zm77.958-4.0424c-0.85848-0.85848-5.6868 2.0072-5.6868 3.3751 0 1.0423 0.79345 0.84258 3.0576-0.76961 1.6817-1.1974 2.8648-2.3699 2.6292-2.6055zm-74.687-0.0716c0-2.7122-0.71159-2.8529-3.1713-0.6269-2.5211 2.2815-2.2886 3.3607 0.67126 3.1157 1.8758-0.15525 2.5-0.77662 2.5-2.4888zm16.917 1.0798c0.88077-0.76455-0.65853-1.1244-7.6667-1.792-6.8162-0.64941-7.25-0.57092-7.25 1.3116 0 1.8724 0.47065 1.9647 7.25 1.4222 3.9875-0.31907 7.4375-0.74289 7.6667-0.94181zm96.746 0.38831c1.3904-2.2256 1.1406-3.3392-0.78127-3.484-1.0349-0.0779-1.8816 0.30686-1.8816 0.85514 0 0.54827 0.4189 0.73797 0.93089 0.42154 0.51201-0.31644 1.1965-0.14565 1.521 0.37952 0.32458 0.52517-0.20683 1.4188-1.1809 1.9859-0.97408 0.56708-1.2351 1.0447-0.58006 1.0615 0.65504 0.0167 1.5424-0.53209 1.9719-1.2196zm-90.663-0.75c0-0.55-1.125-1-2.5-1s-2.5 0.45-2.5 1 1.125 1 2.5 1 2.5-0.45 2.5-1zm26-0.46278c13.863-0.60044 19-1.3165 19-2.6485 0-0.48879 0.60525-0.88871 1.345-0.88871 0.73975 0 2.177-0.91937 3.1939-2.043 1.799-1.9879 1.7988-2.0238-9e-3 -1.3301-1.2882 0.49433-1.6362 0.35419-1.1349-0.45696 0.39769-0.64347 0.22678-1.1699-0.37979-1.1699s-0.97063 0.74082-0.80902 1.6463-0.18293 1.8144-0.76565 2.0198c-0.73917 0.26063-0.77127-1.7557-0.10617-6.6691 0.52433-3.8735 0.68763-7.3084 0.36288-7.6331-0.98874-0.98872-33.709 3.989-40.947 6.2293-0.9625 0.2979-1.75 0.13631-1.75-0.35909 0-0.49539 0.61601-0.90072 1.3689-0.90072 0.7529 0 3.3404-0.51294 5.75-1.1399 2.4096-0.62694 12.481-2.2892 22.381-3.694 14.336-2.0343 19.018-3.0946 23-5.2098 2.75-1.4606 4.4758-2.0108 3.835-1.2226-1.2481 1.5352-1.3351 1.8566-1.3351 4.933 0 1.1-0.61991 2-1.3776 2-0.75765 0-1.9463 0.6853-2.6414 1.5229-1.0732 1.2931-0.97847 1.4157 0.62755 0.81277 1.68-0.63073 1.7359-0.51893 0.5 1-1.2213 1.501-1.1837 1.6304 0.30747 1.0582 0.96791-0.37142 1.4588-1.2778 1.1408-2.1064-0.33927-0.88412-0.0677-1.2873 0.69253-1.0282 0.68787 0.2345 2.913-0.43521 4.9448-1.4883 2.0318-1.053 4.9567-1.7698 6.5-1.5928 2.6689 0.3061 2.8024 0.56603 2.7341 5.3218-0.0395 2.75-0.2645 6.125-0.5 7.5-0.42306 2.4702-0.33512 2.5035 7.3756 2.793 5.9575 0.22371 7.7476-0.0129 7.5666-1-0.13043-0.71117 0.11695-5.0024 0.54976-9.5361 0.76846-8.0499 0.84305-8.229 3.1834-7.6416 1.3678 0.34331 2.3965 0.15901 2.3965-0.42936 0-3.3076 17.151-4.8087 23-2.0131 5.0371 2.4076 9 3.265 9 1.9473 0-0.60314 1.0125-0.98943 2.25-0.85841 2.1766 0.23045 2.2583-0.0714 2.5039-9.2618 0.13967-5.225-0.17909-10.171-0.70839-10.992-1.0643-1.6497-12.307-2.8301-27.046-2.8397-8.11-5e-3 -8.3544 0.0583-5.3266 1.3846 3.8097 1.6687 4.9437 3.2296 3.4394 4.7339-1.8025 1.8025-1.3173 2.4519 2.3449 3.139 1.9018 0.35677 4.7143 1.3041 6.25 2.1051 1.5357 0.80105 4.2992 1.4592 6.141 1.4626 2.451 5e-3 4.1255 0.83764 6.2462 3.1078 1.5936 1.7059 2.6476 3.5059 2.3422 4-0.87351 1.4134-3.4372 1.0484-3.4372-0.48926 0-1.0247-1.3729-1.3516-5.25-1.25-4.7184 0.12366-5.2821-0.0882-5.5669-2.0919-0.23784-1.6735-1.36-2.5071-4.5-3.343-2.3007-0.61246-4.8998-1.7524-5.7758-2.5331-1.2064-1.0753-4.6014-1.3985-14-1.3326-6.8241 0.0478-13.632-0.38063-15.129-0.95208-3.0542-1.1657-8.7779-6.2815-8.7779-7.8455 0-0.56061-0.6153-1.5299-1.3673-2.1541-2.0622-1.7115-4.0304 1.158-3.1736 4.6269 0.56425 2.2845 0.4537 2.5369-0.63834 1.4572-0.72642-0.71819-1.3208-2.5182-1.3208-4v-2.6942l-11.446 0.1571c-8.2926 0.11383-11.736 0.53039-12.5 1.5122-0.57998 0.7453-2.2912 1.9021-3.8027 2.5706-1.5115 0.66855-4.6615 2.9266-7 5.018-9.5199 8.5138-13.72 11.387-15.719 10.753-2.4569-0.77978-2.7537 0.48595-3.3911 14.462-0.28325 6.2106-0.91802 10.619-1.5597 10.833-0.59516 0.19839-1.0821 0.82135-1.0821 1.3844s0.67499 0.76464 1.5 0.44805c1.0761-0.41295 1.5 0.10148 1.5 1.8205 0 2.314 0.21423 2.3828 6.25 2.0079 3.4375-0.21352 11.875-0.63184 18.75-0.92961zm-19.333-2.2039c-0.36667-0.36666-0.65977-1.1542-0.65135-1.75 8e-3 -0.59583 0.40811-0.46318 0.88819 0.29479 0.50721 0.80077 1.4021 1.051 2.1362 0.59735 0.95839-0.59231 0.81857-1.106-0.57932-2.1281-2.0455-1.4957-0.7916-1.8427 1.4753-0.40826 1.1898 0.7529 1.2117 1.1784 0.12756 2.4847-1.4146 1.7045-2.3509 1.9552-3.3966 0.90955zm27.568-2.6304c0.95395-0.77036 1.4864-1.6487 1.1833-1.9518-0.30311-0.30311 0.21795-0.48362 1.1579-0.40112s1.9314-0.48421 2.2031-1.2594c0.34131-0.9736-0.0119-1.2152-1.1424-0.78138-0.90004 0.34538-1.6364 0.15909-1.6364-0.41398 0-1.317 3.215-0.75348 3.6806 0.64515 0.53751 1.6147-1.9159 4.1885-4.6806 4.9104-2.2688 0.59239-2.3396 0.52322-0.76555-0.7479zm-25.234-2.7029c-2.3273-0.74532-2.3486-0.80753-0.30902-0.90032 1.205-0.0548 2.4691 0.35032 2.809 0.90032 0.33991 0.55 0.47897 0.95514 0.30901 0.90032-0.16996-0.0548-1.434-0.45997-2.809-0.90032zm-7-8.5121c0-0.72865 1.4625-2.2409 3.25-3.3605 1.7875-1.1196 4.4095-3.1272 5.8266-4.4613 1.7829-1.6784 3.7852-2.446 6.5-2.4917 2.1578-0.0363 8.1984-0.73841 13.423-1.5601 14.388-2.2628 23.677-3.0173 22.5-1.8275-0.55001 0.55587-4.15 1.2518-8 1.5464-7.6941 0.58884-11.572 1.1369-18.799 2.6573-2.6396 0.55524-6.6073 1.0095-8.8172 1.0095-3.0635 0-4.948 0.77209-7.9328 3.25-2.1531 1.7875-3.9228 3.76-3.9327 4.3834-0.01 0.62335-0.91803 1.3687-2.018 1.6564-1.2568 0.32865-2 0.0307-2-0.80181zm99-11.866c0-0.20765 0.78749-0.99515 1.75-1.75 1.586-1.2439 1.6214-1.2085 0.37755 0.37756-1.3064 1.6658-2.1276 2.1955-2.1276 1.3724zm-147.49 22.559c-0.63765-0.63765-3.4517 2.8854-3.4496 4.3187 8e-4 0.55 0.89774-0.0762 1.9932-1.3917 1.0954-1.3154 1.7508-2.6326 1.4564-2.927zm266.52 3.0687c0.029-1.6667 0.0789-1.6667 1.0497 0 0.77345 1.3279 2.3338 1.75 6.4696 1.75 4.4799 0 5.471-0.31158 5.5663-1.75 0.11048-1.6667 0.13779-1.6667 0.57333 0 0.6669 2.552 2.1748 2.1394 2.9117-0.79657 0.67071-2.6723-0.52227-4.9462-1.359-2.5903-0.32211 0.90697-0.70741 1.0019-1.1513 0.28363-0.36695-0.59374-3.2375-1.3816-6.379-1.7508-5.1458-0.60478-5.7232-0.48425-5.8278 1.2164-0.1031 1.6778-0.16686 1.6931-0.57333 0.13768-0.3757-1.4377-1.6042-1.75-6.884-1.75h-6.4267v2.9452c0 2.7944 0.2433 2.9644 4.75 3.3198 2.6125 0.206 5.3125 0.45566 6 0.55479 0.6875 0.0991 1.2637-0.60725 1.2804-1.5698zm-169.38-0.71467c1.1501-0.80559 2.3367-1.2191 2.6369-0.91898 0.76986 0.76984 4.717-1.4784 4.717-2.6867 0-0.60035-0.89921-0.51092-2.25 0.2238-1.2375 0.67309-3.0604 1.2904-4.0509 1.3718-0.9905 0.0814-2.5494 0.89654-3.4643 1.8114-2.0546 2.0546-0.4295 2.1885 2.4113 0.19868zm156.34-0.25987c-0.0256-2.9624-1.3166-4.0707-4.9847-4.2792-9.0513-0.51435-10.759 0.403-7.4842 4.0212 1.0174 1.1242 3.3193 1.7339 7 1.8542 4.6586 0.15224 5.4819-0.0881 5.4689-1.5962zm-144.6-3.4644c1.1418-5.7088 0.76823-7.8111-1.3878-7.8111-1.7766 0-2 0.66667-2 5.9686 0 4.6801 0.29959 5.8536 1.3878 5.4361 0.76327-0.2929 1.6633-1.91 2-3.5936zm101.61 2.8198c0-1.2591-4.7035-2.5912-9.25-2.6198-2.5636-0.0161-2.1385 2.775 0.5 3.2833 5.0644 0.97543 8.75 0.69599 8.75-0.66343zm26-0.65262c0-2.4989-0.63872-2.7126-9.7756-3.2705-6.9322-0.42333-7.2454-0.34919-6.636 1.571 0.58757 1.8513 0.30485 1.9704-3.4742 1.4635-3.7965-0.50922-5.847 0.19172-4.5003 1.5384 0.30774 0.30773 5.9205 0.59982 12.473 0.64908 11.356 0.0854 11.913-6e-3 11.913-1.9514zm-193.21 0.47781c-1.0896-1.0896-5.9587-1.539-5.3104-0.49011 0.35151 0.56874 1.8125 1.0341 3.2468 1.0341s2.3629-0.24479 2.0637-0.54397zm70.146-1.691c1.4105-1.2293 2.002-1.5893 1.3145-0.8-1.6317 1.8732-1.5864 3.035 0.11833 3.035 1.8462 0 4.3526-14.436 2.6853-15.467-0.70369-0.4349-8.115 1.2611-8.9461 2.0473-0.21588 0.20418 0.0651 0.94461 0.62437 1.6454 1.3579 1.7015 2.1504 7.7289 1.1014 8.3772-1.0003 0.61822-1.1212 3.397-0.14772 3.397 0.37705 0 1.8396-1.0058 3.25-2.235zm54.064 1.139c0-1.2034-8.7191-1.1675-9.4647 0.0389-0.33654 0.54453 1.5398 0.92649 4.441 0.90401 2.7631-0.0214 5.0238-0.4457 5.0238-0.94291zm12 0.096c0-0.55-1.8-1-4-1-2.2 0-4 0.45-4 1s1.8 1 4 1c2.2 0 4-0.45 4-1zm11.457 0.0691c0.31645-0.512 0.086-1.2333-0.51198-1.6029-1.4929-0.92268-9.9453 0.43294-9.9453 1.5951 0 1.2202 9.7035 1.2275 10.457 8e-3zm7.5427-0.5691c0-1-1-1.5-3-1.5s-3 0.5-3 1.5 1 1.5 3 1.5 3-0.5 3-1.5zm-166.25-0.22847c-2.0625-0.21574-5.4375-0.21574-7.5 0-2.0625 0.21575-0.375 0.39226 3.75 0.39226s5.8125-0.17651 3.75-0.39226zm104.78-1.3201c0.43569-0.70494 1.1733-0.62302 2.251 0.25 0.88162 0.71421 1.3069 0.80388 0.94511 0.19927-0.36181-0.6046 0.42003-1.6761 1.7374-2.3812 1.6913-0.90516 2.3719-2.1029 2.3158-4.0755-0.0779-2.7382-0.12838-2.7615-2.5507-1.1743-1.3592 0.89057-3.3164 1.6815-4.3495 1.7576-2.2487 0.16566-3.4746 1.2106-2.5292 2.156 0.37583 0.37584 1.1807 0.186 1.7885-0.42185 0.60786-0.60786 1.6798-0.88468 2.3822-0.61516 0.70235 0.26951 1.5741 9e-3 1.9372-0.57815 0.3631-0.58749 1.162-1.0682 1.7755-1.0682 0.6134 0 0.089 1.0925-1.1655 2.4278-1.2544 1.3353-2.8358 2.2148-3.5141 1.9545-0.67833-0.2603-1.8105 0.2222-2.516 1.0722-0.79205 0.95436-0.8759 1.5455-0.21924 1.5455 0.58488 0 1.355-0.47185 1.7115-1.0486zm7.47-0.51046c0-0.85746-0.45001-1.2809-1-0.94098-0.55001 0.33992-1 1.0415-1 1.559s0.44999 0.94098 1 0.94098c0.54999 0 1-0.70156 1-1.559zm10.171-0.096c1.0942-0.9902 1.8288-1.191 1.8288-0.5 0 0.63525 1.35 1.155 3 1.155 2.514 0 3-0.39545 3-2.441 0-2.5434 1.6343-4.2971 2.8165-3.0222 0.37591 0.40537 0.12098 0.93793-0.56652 1.1835-0.6875 0.24553-1.25 0.88548-1.25 1.4221s0.44484 0.70075 0.98854 0.36473c0.5437-0.33603 0.75673-7e-3 0.47341 0.73145-0.40031 1.0432 1.175 1.3747 7.0675 1.4874 6.9307 0.13258 7.6584-0.0429 8.4632-2.0405 0.6919-1.7173 0.89412-1.8106 0.94392-0.43551 0.0505 1.3944 0.96569 1.75 4.5044 1.75 5.109 0 6.8246-1.5683 3.2163-2.9402-1.3547-0.51504-2.7319-1.3715-3.0606-1.9033-0.85017-1.3756-1.0943-21.256-0.29054-23.656 0.72711-2.171-1.1922-2.0853 24.493-1.0942 5.1144 0.19734 9.5788 0.63871 9.921 0.98081 0.76639 0.76639 0.46093 9.1056-0.62449 17.049-1.2291 8.9951-1.06 9.2249 7.2376 9.8311 3.9418 0.28797 7.3243 0.37592 7.5166 0.19542 0.19232-0.18049-0.14187-1.8208-0.74266-3.6452-1.1622-3.5292-1.1656-3.5777-1.18-17.147-5e-3 -4.8562-0.50659-9.6257-1.1143-10.599-0.95145-1.5235-3.341-1.8628-17.209-2.4432-8.8572-0.3707-19.479-1.1201-23.604-1.6654s-8.7375-0.72423-10.25-0.39778l-2.75 0.59355 0.13752 10.171 0.13751 10.171 0.83415-9.3883c0.45879-5.1636 1.117-9.6636 1.4627-10 0.3457-0.33641 0.31362 2.7901-0.0713 6.9478-0.4248 4.5884-0.27704 9.0907 0.37596 11.456 0.81796 2.9624 0.78192 4.0867-0.15037 4.6906-0.93539 0.60592-0.87045 1.0278 0.27381 1.779 0.825 0.54158 1.1074 0.99158 0.62756 1-0.47985 8e-3 -0.25485 0.7662 0.5 1.684 1.2456 1.5144 1.072 1.6068-1.8776 1-1.7875-0.36776-4.7125-0.96954-6.5-1.3373-2.7104-0.55764-3.0682-0.43312-2.1552 0.75 1.2831 1.6628 2.8432 5.69 1.8001 4.6468-0.39096-0.39097-1.2747-0.2429-1.9638 0.32903-0.76842 0.63773-1.4786 0.6749-1.8363 0.0961-0.32081-0.51907 0.0891-1.2018 0.91097-1.5172 0.82184-0.31537 1.4943-1.0926 1.4943-1.7272 0-0.78631-0.52372-0.71918-1.6442 0.21077-1.4567 1.2089-1.5665 1.1196-0.96252-0.78332 0.77011-2.4264-0.86591-2.879-13.802-3.8184-3.7997-0.27593-7.1747-0.78455-7.5-1.1303-0.53501-0.56857 3.8155-0.34225 23.897 1.2431 3.5685 0.28172 6.2685 0.3082 6 0.0588-0.2685-0.24936-5.6102-2.3292-11.87-4.6219-8.4141-3.0815-12.195-4.0027-14.5-3.5326-6.058 1.2357-10.618 2.7916-10.618 3.6232 0 0.46294 0.3375 0.78842 0.75 0.72329 3.8735-0.6116 4.25 0.0486 4.25 7.4518 0 4.0333 0.3 7.6333 0.66667 8 1.2814 1.2814 6.6913 0.6527 8.5046-0.98832zm-1.1712-4.8764c0-2.2842 2.3689-4.433 3.5667-3.2353 0.81593 0.81593-0.72191 3.7888-1.66 3.209-0.48607-0.30041-0.61577 0.15218-0.28823 1.0057 0.32755 0.85357 0.0974 1.5519-0.51144 1.5519-0.60886 0-1.107-1.1391-1.107-2.5314zm-115.09 4.0876c0.95496-0.5902 1.1732-0.49825 0.68643 0.28929-0.46835 0.7578 0.1658 1.1545 1.8455 1.1545 1.6248 0 2.559-0.55581 2.559-1.5224 0-1.2715-1.6255-1.4951-9.8637-1.3567-5.425 0.0911-10.375-0.15033-11-0.53659-0.65535-0.40503-1.1363-0.0679-1.1363 0.79637 0 1.0099 1.2229 1.5999 3.75 1.809 6.3727 0.52744 11.695 0.27123 13.159-0.63343zm179.09 0.4438c0-0.55-0.47657-1-1.059-1-0.58245 0-0.78089 0.45-0.44097 1s0.81647 1 1.059 1c0.24255 0 0.44099-0.45 0.44099-1zm-113.07-4.309c-0.0678-2.1124-0.10113-2.1192-0.92971-0.19098-1.1828 2.7525-1.1828 3.731 0 3 0.54999-0.33992 0.96836-1.604 0.92971-2.809zm105.57 2.309c-0.33992-0.55-3.4899-1-7-1-3.5101 0-6.6601 0.45-7 1-0.39137 0.63324 2.1759 1 7 1 4.824 0 7.3914-0.36676 7-1zm32.714 0.47146c1.0304-0.39539 1.2913-2.2219 1.0359-7.25-0.45034-8.8639-1.0075-11.221-2.6521-11.221-2.0203 0-2.6069 3.5881-1.9184 11.734 0.61012 7.2176 0.89061 7.7523 3.5346 6.7378zm-145.49-2.4715c1.3984-1.1 2.2781-2 1.9548-2-1.381 0-5.6819 2.3924-5.6819 3.1605 0 1.3092 0.97219 1.0065 3.7271-1.1605zm-54.477-0.6556c0.90524-0.55816 1.0036-10.52 0.12644-12.806-0.57231-1.4914-0.77584-1.4872-2.4764 0.0519-1.0191 0.92225-1.6151 2.0615-1.3245 2.5317 0.2906 0.4702-0.11583 0.6077-0.90318 0.30557-0.79412-0.30474-2.2644 0.47958-3.3019 1.7614-1.0287 1.2709-3.7829 3.6095-6.1204 5.1968-2.3375 1.5873-4.25 3.2972-4.25 3.7998 0 0.88827 16.693 0.11865 18.25-0.8414zm151.12-1.1264c-0.4987-1.5926-0.43274-1.5903 0.90392 0.032 1.1913 1.4459 3.1169 1.75 11.082 1.75h9.6398v-3.3635c0-3.2489 1.477-12.366 2.5626-15.818 0.58084-1.8471-1.1516-2.2116-15.724-3.3087l-7.6615-0.57678-0.62164 7.7837c-0.3419 4.281-0.86649 9.7442-1.1658 12.14-0.35822 2.8683-0.19099 4.1385 0.48949 3.718 0.56849-0.35135 0.79153-1.4119 0.49565-2.3568zm43.472-2.468c0.0763-3.7042-0.17515-4.8083-0.85404-3.75-1.2024 1.8744-1.3001 9-0.12347 9 0.47815 0 0.91803-2.3625 0.97751-5.25zm-46.801-4.8011c-0.48122-15.584-0.46333-15.449-2.0455-15.449-1.2237 0-1.5525 1.9994-1.7849 10.855-0.19119 7.2844 0.1049 11.325 0.90008 12.283 2.38 2.8678 3.1906 0.74061 2.9303-7.6898zm-47.026 3.5282c1.0568-1.2734 0.99491-1.4197-0.37757-0.89301-0.90278 0.34643-1.6414 1.0317-1.6414 1.5229 0 1.286 0.57887 1.1054 2.019-0.62988zm93.398-9.3934c-1.1166-1.1166-3.3533 3.8313-3.3526 7.4163l8.5e-4 4 1.8947-5.4893c1.0421-3.0191 1.6977-5.6863 1.457-5.927zm-206.23 6.691c0.89352 0.24043 11.809-9.7214 11.809-10.777 0-2.4493-10.754-3.182-16.217-1.105-2.4522 0.93231-2.604 1.3914-2.6664 8.0608l-0.0662 7.0722 3.2249-1.7183c1.7737-0.94506 3.5358-1.6346 3.9158-1.5324zm108.81-0.9297c0-0.46475-0.90001-0.84501-2-0.84501-1.4978 0-2 0.66667-2 2.655 0 2.5916 0.0477 2.6118 2 0.84501 1.1-0.99549 2-2.1902 2-2.655zm-42.5 2.155c0.33992-0.55 0.16802-1-0.38198-1s-1.2781 0.45-1.618 1-0.16804 1 0.38196 1 1.2781-0.45 1.618-1zm-74.794-8.25c-0.23836-1.2375-0.43337-0.225-0.43337 2.25s0.19501 3.4875 0.43337 2.25c0.23835-1.2375 0.23835-3.2625 0-4.5zm170.02-4.5c-0.21576-2.0625-0.39226-0.375-0.39226 3.75s0.17651 5.8125 0.39226 3.75c0.21574-2.0625 0.21574-5.4375 0-7.5zm44.489 1.1723c0.81226-1.7827 0.86072-3.075 0.15713-4.1905-2.101-3.3307-3.3745-2.5062-3.3745 2.1848 0 5.0784 1.4153 5.9607 3.2173 2.0057zm-72.936-0.42234c4.4398 0 2.1022-2.0047-3.1607-2.7106-3.2043-0.42978-4.1211-0.22684-4.1211 0.91225 0 2.017 1.1287 2.9629 2.7795 2.3294 0.76122-0.29211 2.7872-0.5311 4.5022-0.5311zm-141.51-3.1875c-0.21771-0.65313-0.93052-1.3657-1.584-1.5836-0.73075-0.24358-0.95423 0.21359-0.58051 1.1875 0.69753 1.8177 2.7645 2.1959 2.1645 0.39606zm36.438-4.3872c7.8139-5.7523 14.126-11.424 13.457-12.093-0.90238-0.90238-12.501 7.5722-13.146 9.6054-0.34209 1.0778-1.4396 2.2192-2.4389 2.5364-1.8261 0.57959-5.9578 4.5256-4.7385 4.5256 0.3587 0 3.4486-2.0586 6.8665-4.5747zm-10.891-1.097c1.9508-1.6604 2.0217-1.6654 0.77272-0.0541-2.1328 2.7515-0.53741 3.1804 2.8522 0.76683 2.4121-1.7176 3.0786-2.9544 3.1572-5.8591 0.0896-3.3106 0.18044-3.4298 0.90033-1.1819 0.66166 2.0661 0.81242 1.7189 0.86851-2 0.0628-4.1657-0.0412-4.3558-1.4003-2.5589-1.4398 1.9036-1.4682 1.9002-1.4682-0.17668 0-1.199-0.75921-2.29-1.75-2.5148-1.167-0.26478 0.13686-1.314 3.9142-3.1498 8.9027-4.3266 9.1032-4.7268 8.5537-17.077-0.25961-5.8355-0.67205-10.81-0.91655-11.055s-3.7362 1.7228-7.7594 4.3717l-7.3149 4.8162 0.19973 9.9019c0.10984 5.4461-0.0284 9.6738-0.30722 9.395-0.27882-0.27881-0.59346-4.4323-0.6992-9.2299-0.10574-4.7976-0.30098-8.723-0.43386-8.723s-0.8592 0.76138-1.614 1.692c-1.1828 1.4582-1.1652 1.5761 0.12756 0.85329 1.1534-0.64486 1.2378-0.55414 0.36546 0.39258-0.62399 0.67718-3.099 1.3601-5.5 1.5176s-4.9229 0.34446-5.6043 0.41547c-1.3722 0.14298-8.9349 14.539-9.2758 17.657-0.57678 5.275 0.0868 10.472 1.3371 10.472 0.72733 0 3.8773-1.3838 7-3.0751l5.6776-3.0751v-6.0916c0-3.3504 0.16545-5.904 0.36767-5.6749 0.60779 0.68878 1.4564 14.074 0.85411 13.472-0.3063-0.3063-2.9675 0.80357-5.9139 2.4664-2.9463 1.6628-6.5834 3.1667-8.0824 3.342-2.6895 0.3145-2.721 0.25155-2.3833-4.7724 0.39531-5.8815-0.58451-5.45-3.645 1.6053l-2.0373 4.6964 4.1701 0.3045c2.2935 0.16748 8.3707 0.22681 13.505 0.13185 7.4204-0.13724 9.7753-0.54759 11.483-2.0009zm-5.8175-1.3283c0.99548-1.1 2.035-2 2.31-2s-0.31449 0.9-1.31 2c-0.99549 1.1-2.035 2-2.31 2s0.31449-0.9 1.31-2zm7.5-1.4089c0-0.19039 0.67499-0.90637 1.5-1.5911 0.86459-0.71755 1.5-0.81474 1.5-0.22943 0 0.5585-0.67501 1.2745-1.5 1.5911-0.82501 0.31658-1.5 0.41982-1.5 0.22943zm-1.5-4.5911c0.33991-0.55 0.81647-1 1.059-1s0.44099 0.45 0.44099 1-0.47656 1-1.059 1-0.7809-0.45-0.44098-1zm-15.5-11.794c0-1.156 6.9371-4.3625 8.0072-3.7011 0.47843 0.29568 1.3338-0.25936 1.9009-1.2334 0.56707-0.97407 1.0447-1.2636 1.0615-0.64348 0.0167 0.62016-0.6446 1.6878-1.4696 2.3724-0.82501 0.68469-1.5 0.95564-1.5 0.60212s-1.8 0.27552-4 1.3979c-2.2 1.1224-4 1.6648-4 1.2055zm205.82 19.044c-0.24435-2.1235-0.77205-2.6714-2.3164-2.4049-2.8969 0.49982-3.0289 0.91303-1.0056 3.1488 2.5103 2.7738 3.6962 2.5082 3.322-0.74387zm-93.152-1.8172c0.94328-2.4582-1.0887-3.6647-6.6198-3.9306-2.8067-0.13495-5.8774-0.92425-6.8238-1.754-1.1535-1.0114-5.0989-1.7393-11.971-2.2085-9.0791-0.61995-10.25-0.5144-10.25 0.92389 0 1.8042 3.4185 5.6838 6.5 7.3768 1.1611 0.63792 7.5709 1.1116 15.281 1.1292 11.155 0.0255 13.378-0.2205 13.883-1.5368zm129.93-3.7359c0.42325-1.3335-0.72719-3.8619-3.6716-8.0694-2.3584-3.3701-7.2437-10.345-10.856-15.499-3.6125-5.1546-8.2953-12.13-10.406-15.5-2.1108-3.3704-4.0233-6.3155-4.25-6.5447-1.928-1.9492-3.7652 10.298-2.1958 14.638 0.98179 2.7151 0.87777 3.8522-0.64126 7.0095-1.2548 2.6082-1.9741 7.079-2.3357 14.519l-0.52259 10.75h2.6416c1.805 0 2.6784-0.55426 2.7576-1.75 0.11048-1.6667 0.13779-1.6667 0.57333 0 0.36468 1.3955 1.5566 1.75 5.884 1.75 3.6665 0 5.4316-0.40544 5.442-1.25 0.0114-0.92755 0.20709-0.94853 0.75874-0.0813 0.75969 1.1942 4.4308 1.7774 11.966 1.9008 3.3553 0.055 4.3685-0.33576 4.8563-1.8726zm-16.401-4.1969c0.0204-1.65 0.2445-2.2039 0.49805-1.231 0.25353 0.97297 0.23686 2.323-0.0371 3-0.27389 0.67703-0.48132-0.11903-0.46095-1.769zm-12.037-1.5c0-1.375 0.22698-1.9375 0.5044-1.25 0.2774 0.6875 0.2774 1.8125 0 2.5-0.27742 0.6875-0.5044 0.125-0.5044-1.25zm13-4c0-1.375 0.22698-1.9375 0.5044-1.25 0.2774 0.6875 0.2774 1.8125 0 2.5-0.27742 0.6875-0.5044 0.125-0.5044-1.25zm-12-2c0-1.375 0.22698-1.9375 0.5044-1.25 0.2774 0.6875 0.2774 1.8125 0 2.5-0.27742 0.6875-0.5044 0.125-0.5044-1.25zm12.842-3c0-1.1 0.40787-2 0.90638-2s0.67102 0.9 0.38337 2c-0.28767 1.1-0.69554 2-0.90638 2-0.21086 0-0.38337-0.9-0.38337-2zm-11.782-2c-0.0102-1.375 0.34166-3.625 0.78202-5 0.62738-1.959 0.7966-2.0672 0.78201-0.5-0.0103 1.1-0.36216 3.35-0.78201 5-0.6857 2.6947-0.76527 2.7456-0.78202 0.5zm1.9399-10c0-1.375 0.22698-1.9375 0.5044-1.25 0.2774 0.6875 0.2774 1.8125 0 2.5-0.27742 0.6875-0.5044 0.125-0.5044-1.25zm26.842 28c0-0.55-0.47657-1-1.059-1-0.58245 0-0.78089 0.45-0.44097 1s0.81647 1 1.059 1c0.24255 0 0.44099-0.45 0.44099-1zm-43.547-3.6022c0.83245-4.4374-0.0327-5.634-1.4252-1.9714-1.2636 3.3235-1.3198 5.5736-0.13927 5.5736 0.48879 0 1.1928-1.621 1.5645-3.6022zm3.5468 3.184c0-0.23002-0.27315-1.13-0.60699-2-0.85743-2.2344-2.393-1.966-2.393 0.41821 0 1.1111 0.66666 2 1.5 2 0.82499 0 1.5-0.1882 1.5-0.41821zm-176.51-2.5703c0.35033-0.56686-0.0511-0.7345-0.94099-0.39301-1.7324 0.66479-2.0494 1.3816-0.61095 1.3816 0.51754 0 1.2159-0.44485 1.5519-0.98855zm77.424-0.37077c-1.1781-1.016-6.0232-1.6222-5.4414-0.68076 0.35353 0.57204 1.8162 1.0401 3.2504 1.0401s2.4201-0.1617 2.191-0.35932zm-70.03-6.7247 2.3862-1.9572-1.2732-13.229c-1.4328-14.888-1.714-19.214-1.8999-29.229-0.0741-3.9922-0.47721-6.4528-0.93816-5.7265-0.46843 0.73809-0.77731-0.83819-0.73469-3.7493 0.0681-4.6499 0.25917-5.0285 2.5736-5.1 1.375-0.0425 3.4-0.2779 4.5-0.52319 1.1-0.24528 11-0.4346 22-0.42071 11.531 0.0146 20.635-0.39289 21.5-0.9622 1.0337-0.68048-2.6969-1.0606-12-1.2227-14.244-0.24822-15.255-0.22976-35 0.63931l-12.5 0.55018-2.418 5.5395c-1.8439 4.2243-2.1407 5.8169-1.25 6.7076 0.8907 0.89071 1.168 0.64568 1.168-1.032 0-1.2889 0.62121-2.2 1.5-2.2 0.82499 0 1.5-0.70156 1.5-1.559s0.42312-1.2975 0.94027-0.97789c0.58018 0.35857 0.54287 1.7211-0.0974 3.5578-0.58443 1.6765-1.4994 2.6913-2.0948 2.3234-0.61951-0.38287-0.76226-0.17626-0.34484 0.49914 0.74632 1.2076-2.2619 7.1566-3.6188 7.1566-0.43142 0-0.78439 0.675-0.78439 1.5s-0.41859 1.5-0.9302 1.5c-1.218 0 0.51906-6.1279 1.9958-7.0405 0.73414-0.45372 0.59789-0.87463-0.40805-1.2606-1.1029-0.42322-1.9297 0.65166-3.0657 3.9857-0.85553 2.5109-1.3526 4.8936-1.1045 5.295 0.24806 0.40138-0.70293 1.8077-2.1133 3.1251-2.8576 2.6693-7.8796 10.723-7.1446 11.458 0.80861 0.80861 13.771-12.73 13.771-14.383 0-1.1664 5.1783-5.7726 7.3538-6.5413 1.1557-0.40836 1.6307-1.2363 1.2614-2.1985-0.32576-0.84893-0.16832-1.2815 0.34987-0.96122 0.5425 0.33529 1.0908-2.2939 1.2927-6.1981 0.28204-5.4556 0.3858-4.8266 0.53107 3.2196 0.0993 5.5-0.24981 10.675-0.7758 11.5-0.65594 1.0288-0.76661 0.31913-0.35232-2.2594l0.60402-3.7594-2.6206 1.3596c-2.5978 1.3477-6.6441 5.7612-6.6441 7.247 0 0.42481 1.3047-0.68899 2.8993-2.4751 1.7155-1.9215 3.165-2.8177 3.5498-2.195 0.35777 0.57889-0.94693 2.5186-2.8994 4.3104-1.9524 1.7918-3.5498 3.8985-3.5498 4.6815 0 0.78298-0.27489 1.1487-0.61087 0.81273-0.68399-0.68399-12.163 8.5598-14.196 11.431-1.138 1.6076-1.0585 1.846 0.61514 1.846 1.8519 0 4.7928-1.936 10.291-6.7744 1.4295-1.258 4.1295-3.0979 6-4.0885 1.8705-0.99062 4.8343-2.6558 6.5863-3.7003 3.5844-2.137 4.7237-1.7101 3.586 1.344-0.42432 1.1391-0.51515 6.7169-0.20186 12.395l0.56963 10.324-3.5317 3.1779c-1.9424 1.7479-3.8243 2.9971-4.1818 2.7761-0.35756-0.22099-0.54455 0.59894-0.41553 1.8221s0.29202 3.0402 0.36221 4.0378c0.11976 1.7022 0.35878 1.6828 3.8776-0.31343 2.0625-1.1701 4.8238-3.0082 6.1362-4.0846zm-13.886-29.916c0.5887-1.1 1.2954-2 1.5704-2s0.0183 0.9-0.57036 2c-0.58871 1.1-1.2954 2-1.5704 2s-0.0183-0.9 0.57037-2zm10-13.441c0-1.3425 0.36857-2.6688 0.81905-2.9472s0.62441 0.82003 0.3865 2.441c-0.52453 3.5739-1.2056 3.8598-1.2056 0.50621zm173 44.441-0.74761-4.5-0.12516 4.0833c-0.0688 2.2458 0.17483 4.3833 0.5415 4.75 1.0728 1.0728 1.1222 0.42723 0.33127-4.3333zm-162.11 0.92937c-1.6048-0.99179-2.3352-0.46569-1.4168 1.0204 0.36808 0.59556 1.1362 0.79425 1.7069 0.44153 0.67187-0.41524 0.56959-0.9306-0.29014-1.4619zm164.45-7.4294c0.51873-4.1981 0.41179-4.7309-0.66673-3.322-0.72883 0.95208-1.1015 3.2455-0.86154 5.3013 0.5311 4.5492 0.75788 4.2555 1.5283-1.9793zm-209.99-22.032c-0.78123-2.0358-1.2526-1.8338-1.0796 0.46275 0.08 1.0619 0.48237 1.7225 0.89418 1.468 0.4118-0.25451 0.49524-1.1233 0.18542-1.9307zm212.98-7.1446c1.2821-4.9427 1.2004-7.3234-0.25122-7.3234-1.2805 0-2.9813 7.3338-2.3868 10.292 0.71078 3.5369 1.0493 3.1559 2.638-2.9687zm-201.36-1.6704 1.0946-3.1529-2.428 2.5c-1.3354 1.375-2.759 3.625-3.1636 5-0.7254 2.4653-0.70688 2.4744 1.3333 0.65291 1.1379-1.0159 2.5615-3.2659 3.1636-5zm34.144 1.3471c0.39577-7.1239-0.0927-15-0.93038-15-0.45059 0-0.80484 3.825-0.7872 8.5 0.0176 4.675 0.38629 8.5 0.81926 8.5 0.43296 0 0.8372-0.9 0.89832-2zm-29.111-0.5c0.71754-0.86459 0.81473-1.5 0.22943-1.5-0.5585 0-1.2745 0.675-1.5911 1.5s-0.41983 1.5-0.22944 1.5c0.1904 0 0.90638-0.675 1.5911-1.5zm1.084-7.6648c1.1305-2.216 1.8293-4.2552 1.5529-4.5316s-1.6884 1.8377-3.1378 4.698c-1.4494 2.8603-2.1482 4.8995-1.553 4.5316 0.5953-0.36792 2.0073-2.482 3.1378-4.698zm33.736-4.0852c-0.42671-3.0045-4.8196-3.8274-4.8196-0.90288 0 1.95 1.2019 2.9173 3.8196 3.0739 0.81177 0.0486 1.1966-0.78687 1-2.171zm2.2742-2.0562c-0.7917-0.79171-1.0938-0.53223-1.0938 0.93955 0 2.6438 1.3984 4.047 1.8438 1.8502 0.18908-0.93276-0.14842-2.1881-0.75-2.7897zm56.096 0.80622c0.22474-1.925 0.049-3.5-0.39059-3.5-0.43956 0-0.7992 1.575-0.7992 3.5s0.17577 3.5 0.39059 3.5c0.21483 0 0.57447-1.575 0.7992-3.5zm-64.586-5.2292c-1.0165-1.0165-1.8552 0.51389-1.0212 1.8634 0.63004 1.0194 0.86558 1.0202 1.2043 4e-3 0.23159-0.69478 0.1492-1.5351-0.18309-1.8674zm8.1458 1.4664c0.6875 0.23618 1.25 8e-3 1.25-0.50718 0-1.3786-7.2622-0.93791-7.7322 0.46917-0.28794 0.86202 0.39139 0.9756 2.4158 0.40392 1.549-0.43743 3.3789-0.60208 4.0664-0.36591zm-0.75-3.6978c0-0.53718 0.67499-0.71767 1.5-0.40109 0.82499 0.31659 1.5 0.0775 1.5-0.53138 0-1.3181-11.609-1.5486-12.414-0.24647-0.86157 1.394 0.15771 1.8055 4.9185 1.9856 2.4724 0.0935 4.4953-0.26948 4.4953-0.80666zm-13.376 192.42c-0.96498-2.5147-0.68031-3.1636 0.49854-1.1363 0.58369 1.0038 0.8506 2.0357 0.59313 2.2931s-0.74872-0.26309-1.0917-1.1568zm128.7-6.9613c4e-3 -3.85 0.18518-5.3025 0.40166-3.2277 0.21647 2.0748 0.21284 5.2248-8e-3 7-0.22091 1.7752-0.39803 0.0777-0.39359-3.7723zm-112.24-1.8216c1.1406-2.6519 2.1302-7.2342 2.1993-10.183 0.0797-3.4028 0.50764-5.1496 1.1715-4.7817 0.5753 0.3188 0.48351-0.0264-0.20399-0.76707-1.5293-1.6476-1.6489-4.9467-0.17926-4.9467 0.65452 0 1.0114-2.2351 0.91809-5.75-0.22466-8.4629-0.11257-9.2347 1.2643-8.7064 0.68924 0.26448 3.7267-1.631 6.75-4.2122 3.0233-2.5812 4.9344-4.0717 4.2468-3.3123-1.9122 2.1123-1.4874 3.146 0.72504 1.7643 3.3-2.0609 4.3051 0.0872 3.5108 7.5038-0.67224 6.2773-0.80533 6.5266-3.8051 7.1265-1.7096 0.34193-4.3202 1.7826-5.8012 3.2015-1.481 1.4189-2.9598 2.5359-3.2862 2.4822-1.7911-0.29442-2.5934 0.0226-2.5934 1.0249 0 0.77551 0.46363 0.73766 1.5-0.12244 0.96084-0.79743 1.5-0.8593 1.5-0.17213 0 0.59001-0.7106 1.4704-1.5791 1.9564-1.1816 0.66127-1.6221 2.6887-1.75 8.0544-0.11828 4.9624-0.52762 7.0358-1.3292 6.7326-0.63707-0.24098-1.405 0.54439-1.7066 1.7453-0.30156 1.2009-1.2407 3.0834-2.087 4.1834-0.99907 1.2986-0.81144 0.30909 0.53504-2.8216zm11.935-26.19c2.2938-1.448 3.9449-2.8585 3.669-3.1343-0.64413-0.64413-5.464 1.9675-8.6874 4.7072-3.2436 2.7569-0.4568 1.8834 5.0184-1.5729zm-0.51837-4.4884c2.7086-2.75 4.5232-5 4.0322-5-2.0337 0-10.483 6.6344-10.506 8.25-0.0404 2.7384 1.1785 2.1266 6.4742-3.25zm8.1011-4.2635c0.68945-5.8662-0.13469-7.2084-2.6011-4.2365-1.029 1.2398-0.92944 1.5 0.57371 1.5 1.4796 0 1.2229 0.61462-1.3776 3.2976-3.6105 3.7251-4.1336 5.2744-1.2619 3.7376 2.8265-1.5127 3.2789-1.2947 2.5207 1.2148-0.47913 1.5859-0.36222 1.9509 0.39608 1.2365 0.59172-0.55741 1.3793-3.5949 1.7501-6.75zm-8.6011 0.15465c4.0216-3.6187 4.1481-3.8547 1.1902-2.2202-3.537 1.9545-8.1512 6.3487-6.6145 6.2991 0.50837-0.0164 2.9493-1.852 5.4243-4.079zm-72.5 36.968c-7.15-0.40359-15.025-1.1724-17.5-1.7084s-7.2-1.5215-10.5-2.1899c-6.2265-1.2611-10.822-2.9719-10.052-3.7418 0.24449-0.24449 2.6063 0.0668 5.2485 0.69166 2.6422 0.62491 11.443 1.55 19.557 2.0558s15.133 1.1543 15.597 1.4411c1.2836 0.79334 25.41 0.888 27.341 0.10727 0.93034-0.37624 1.8816-1.6585 2.1138-2.8495 0.39782-2.04 0.43018-2.0283 0.55847 0.20118 0.1119 1.9446 0.53742 2.2591 2.3862 1.7637 1.2375-0.33164 2.9717-0.60913 3.8539-0.61664 1.3276-0.0113 1.586-1.218 1.5-7.006l-0.10387-6.9924-4.5-0.10728c-2.475-0.059-5.625-0.47432-7-0.92293-1.4948-0.48768 0.37751-0.59441 4.6562-0.26544 6.0659 0.46638 7.5895 0.24974 10-1.4219 1.5641-1.0847 3.5988-2.2438 4.5217-2.5758 0.92284-0.33202 1.888-1.8678 2.1448-3.4127l0.46686-2.8091-0.14474 2.9768c-0.0989 2.0337-0.88429 3.3435-2.4789 4.1342-5.6471 2.8-4.7548 3.389 5.1342 3.389 5.335 0 9.701 0.3375 9.7021 0.75 1e-3 0.4125-4.7081 0.60886-10.465 0.43635l-10.467-0.31364-0.64665 2.5764c-1.1521 4.5902 0.45779 11.563 2.8966 12.546 1.6691 0.67263 1.7773 0.89335 0.4614 0.94188-1.1662 0.043-1.5437 0.62594-1.1745 1.8134 0.5182 1.6667 0.49053 1.6667-0.58108 0-0.76215-1.1854-2.4102-1.75-5.1077-1.75-3.1954 0-4.1613 0.4447-4.8869 2.25-0.69292 1.7239-0.91921 1.8408-0.96778 0.5-0.0734-2.0262-0.35761-2.0608-6.7642-0.82203-8.1188 1.5698-11.343 1.6909-24.799 0.93133zm0.5-1.8593c0-0.57676-2.6453-0.93351-6.25-0.8429l-6.25 0.15711 5 0.68579c2.75 0.37719 5.5625 0.75649 6.25 0.8429 0.6875 0.0864 1.25-0.2929 1.25-0.8429zm145.97-2.4465-0.46785-5.9465-12 0.11066c-11.309 0.1043-11.64 0.053-5.75-0.8908 5.1392-0.82347 6.25-1.3414 6.25-2.9142 0-1.6368-0.74529-1.9127-5.1667-1.9127-9.7641 0-4.2248-0.9281 9.4637-1.5856 10.144-0.48725 13.703-0.35543 13.703 0.50754 0 0.64117-0.5625 1.0927-1.25 1.0034-2.9997-0.38952-3.8742 0.17998-3.5696 2.3246 0.29323 2.0646 0.91678 2.2742 7.5696 2.5438 3.9875 0.16159 7.251 0.61159 7.2523 1 1e-3 0.3884-3.3502 0.55896-7.4478 0.37901l-7.4501-0.32718-0.33435 5.8272-0.33435 5.8272zm0.0322-9.5535c0-1.7576-0.66668-2-5.5-2-4.8333 0-5.5 0.24242-5.5 2s0.66666 2 5.5 2c4.8333 0 5.5-0.24242 5.5-2zm-69.921 11.417c0.048-1.165 0.28494-1.4019 0.60416-0.60417 0.28887 0.72187 0.25335 1.5844-0.0789 1.9167-0.3323 0.33229-0.56864-0.25834-0.52522-1.3125zm-1.0789-3.4167c0-0.55 0.47655-1 1.059-1 0.58247 0 0.78091 0.45 0.44099 1s-0.81649 1-1.059 1c-0.24253 0-0.44097-0.45-0.44097-1zm-44.832-5.6682c-0.0925-1.7425-0.45934-3.9925-0.81528-5-0.49488-1.4007-0.36115-1.5686 0.56822-0.71357 0.70831 0.65168 1.0485 2.7378 0.81528 5-0.35543 3.4482-0.41889 3.5279-0.56822 0.71357zm45.375 0.73731c-0.31643-0.512-0.11799-1.2136 0.44098-1.559s1.0163 0.0734 1.0163 0.9309c0 1.7565-0.60007 2.0152-1.4573 0.62812zm0.30078-8.5691c-0.19685-2.475-0.0172-4.5 0.3993-4.5 0.41647 0 0.75722 2.025 0.75722 4.5s-0.1797 4.5-0.39932 4.5c-0.2196 0-0.56036-2.025-0.7572-4.5zm77.254-8.1497c-0.0349-4.7573 0.0961-8.4698 0.29125-8.25 0.94627 1.0662 1.6588 16.9 0.76051 16.9-0.56995 0-1.0151-3.6612-1.0518-8.6497zm-12.597 4.954c-11.434-2.651-18.088-4.4921-18.797-5.2009-0.47032-0.47032 4.1179 0.35287 10.196 1.8293 6.0781 1.4765 11.362 2.9956 11.743 3.3759 0.73758 0.73758 0.0538 0.73665-3.1419-4e-3zm-110.5-0.96116c-2.6811-1.0245-4-3.6411-4-7.9355 0-3.8 0.36288-4.4242 3.7249-6.4078 3.3696-1.9881 3.5604-2.318 2-3.459-1.969-1.4397-2.3947-5.9307-0.50248-5.3 0.67233 0.22411 1.4766 1.4991 1.7872 2.8333 0.3396 1.4587 2.058 3.2232 4.3101 4.4259 2.0599 1.1 3.9985 2.9886 4.3079 4.1969 0.65576 2.5607-1.15 8.6619-3.024 10.217-1.6318 1.3543-6.6276 2.1841-8.6035 1.4291zm8.0257-3.5931c1.2827-1.3719 1.9374-3.1281 1.6776-4.5-0.23429-1.2375-0.0384-2.25 0.43534-2.25 1.7223 0 0.80072-1.9936-1.6699-3.6124-3.0091-1.9716-4.676-1.0124-1.8958 1.0909 2.2612 1.7107 0.31811 2.0688-2.6388 0.48629-2.8691-1.5355-5.9342 0.45199-5.9342 3.8479 0 6.452 5.8953 9.3552 10.026 4.9373zm-6.3426-17.938c-0.31923-0.79773-0.55618-0.56078-0.60417 0.60417-0.0434 1.0542 0.19293 1.6448 0.52522 1.3125 0.33229-0.3323 0.36782-1.1948 0.079-1.9167zm147.37 19.188c-0.17277-4.2802-3.7057-10.679-6.9561-12.599-1.7055-1.0074-3.1009-2.2154-3.1009-2.6842 0-1.2384 5.5693 2.9207 7.9305 5.9225 2.1429 2.7242 3.6183 8.3893 2.7497 10.558-0.28724 0.71702-0.56768 0.17867-0.62318-1.1963zm-25.862-13.5c0.0204-1.65 0.2445-2.2039 0.49805-1.231 0.25353 0.97297 0.23686 2.323-0.0371 3-0.27394 0.67703-0.48138-0.11903-0.461-1.769zm-17.589-2.0845c-0.60868-1.5862 0.8734-4.4155 2.313-4.4155 0.37072 0 0.65311 1.2001 0.62757 2.6668-0.0535 3.0685-1.9918 4.2212-2.9405 1.7487zm-75.606-0.80853c0-0.21616 0.69837-0.661 1.5519-0.98855 0.88992-0.34149 1.2913-0.17385 0.94098 0.39301-0.58726 0.95021-2.4929 1.4054-2.4929 0.59554zm-14.921-3.1903c0.048-1.165 0.28494-1.4019 0.60417-0.60417 0.28887 0.72187 0.25334 1.5844-0.079 1.9167-0.33229 0.33229-0.56864-0.25834-0.52522-1.3125zm13.921 0.7735c0-1.6938 3.7276-3.4399 4.5394-2.1263 0.36345 0.58808 0.39076 1.3393 0.0607 1.6694-0.33008 0.33007-0.60014 5e-3 -0.60014-0.72152 0-0.93277-0.58848-0.78908-2 0.48832-1.1 0.99549-2 1.3061-2 0.69017zm27.543-3.1211c-0.31643-0.512-0.11799-1.2136 0.44098-1.559s1.0163 0.0734 1.0163 0.9309c0 1.7565-0.60007 2.0152-1.4573 0.62812zm158.03-2.9493c-0.29918-0.48409-0.75332-4.8716-1.0092-9.75l-0.46521-8.8698 0.96804 8.5c0.53243 4.675 1.41 8.65 1.9502 8.8333 1.2539 0.42557 1.2869 2.1667 0.0411 2.1667-0.51754 0-1.1858-0.39607-1.485-0.88016zm-266.01-1.8267c-0.54269-1.4252-0.42782-1.5401 0.55979-0.5598 0.68342 0.67834 0.99067 1.4852 0.68279 1.7931-0.30789 0.30789-0.86705-0.24711-1.2426-1.2333zm260.83-7.8526c-0.35333-1.4077-0.41819-4.5487-0.14417-6.9799l0.49825-4.4204-4.5169 0.22991c-3.2678 0.16634-4.6609-0.18488-5.0375-1.2701-0.44405-1.2795-0.27924-1.3008 1.1212-0.14489 1.2823 1.0584 2.3358 1.1131 4.8118 0.25 1.7436-0.60781 3.536-1.1051 3.9833-1.1051 0.44723 0 0.54102 2.9142 0.20842 6.476-0.42318 4.5317-0.225 6.9336 0.66007 8 0.84128 1.0137 0.89532 1.524 0.16142 1.524-0.60687 0-1.3925-1.1518-1.7458-2.5595zm-275.83-28.147c-0.54269-1.4252-0.42782-1.5401 0.55979-0.5598 0.68342 0.67834 0.99067 1.4852 0.68279 1.7931-0.30789 0.30789-0.86705-0.24711-1.2426-1.2333zm280.59-0.29313c0-1.375 0.22698-1.9375 0.5044-1.25 0.2774 0.6875 0.2774 1.8125 0 2.5-0.27742 0.6875-0.5044 0.125-0.5044-1.25zm-281.08-3.5833c0.048-1.165 0.28494-1.4019 0.60417-0.60417 0.28887 0.72187 0.25334 1.5844-0.079 1.9167-0.33229 0.33229-0.56864-0.25834-0.52522-1.3125zm282.08-1.4167c0-1.375 0.22698-1.9375 0.5044-1.25 0.2774 0.6875 0.2774 1.8125 0 2.5-0.27742 0.6875-0.5044 0.125-0.5044-1.25zm-282.06-3c-0.10155-1.9967-0.32231-2.198-1.0965-1-2.0359 3.1503-1.0285-2.0258 1.2242-6.2898 1.2233-2.3156 2.7976-5.4976 3.4984-7.0711l1.2742-2.861-3.7484 0.5542-3.7484 0.55419 3.25-1.0879c1.7875-0.59833 3.25-1.4728 3.25-1.9432s0.56844-0.85534 1.2632-0.85534c1.1124 0 7.8084-12.301 7.7567-14.25-0.011-0.4125-2.4045-0.75-5.319-0.75-5.094 0-5.3456 0.12855-6.5 3.321-1.6521 4.5688-1.5663 4.8088 1.4483 4.0522 1.7115-0.42956 2.4237-0.30015 2.0122 0.36565-0.73527 1.1897-6.6614 2.2662-6.6614 1.2101 0-0.38757 0.675-2.3202 1.5-4.2947 1.8659-4.4658 1.8687-4.4112-0.25-4.9649-1.3724-0.35865-1.2848-0.48236 0.406-0.57333 1.6343-0.0879 2.5417-1.2479 3.75-4.7941 2.1199-6.2214 2.1454-6.1435-2.156-6.5934l-3.75-0.39226 4.2989-0.16811c4.0317-0.15765 4.4188-0.43226 6.228-4.4181 2.8802-6.3453 2.7173-6.6123-4.2769-7.0096l-6.25-0.35504 6.5532-0.19268 6.5532-0.19268 2.1968-6.821c1.2083-3.7515 2.1968-7.1265 2.1968-7.5s-2.5875-0.75672-5.75-0.85165l-5.75-0.1726 6.4189-0.5774 6.4189-0.5774 1.7536-5c2.7485-7.8369 2.906-7.6454-5.8414-7.1013l-7.75 0.48212 8.188-1.0344 8.188-1.0344 1.5591-4.5756c0.8575-2.5166 1.404-4.7307 1.2146-4.9202s-5.8652 0.13484-12.613 0.72073c-6.7474 0.58588-12.461 0.87184-12.698 0.63545-0.23638-0.23638 2.5156-0.7094 6.1155-1.0511 21.262-2.0184 19.614-1.6593 20.633-4.4956 0.51911-1.4442 1.4006-3.5258 1.959-4.6258l1.0151-2-0.60096 2c-0.33052 1.1-0.85069 3.2375-1.1559 4.75-0.50871 2.5208-0.30043 2.75 2.4986 2.75 1.6795 0 3.7607-0.70714 4.625-1.5714 0.86428-0.86428 1.5714-1.0893 1.5714-0.5 0 0.58929 1.0125 1.1236 2.25 1.1874 1.6932 0.0873 1.8169 0.22918 0.5 0.57333-0.96251 0.25152-1.7439 0.98682-1.7364 1.634 0.0334 2.8817 1.3391 5.6767 2.6519 5.6767 1.6892 0 5.0526-6.9187 5.9552-12.25 0.34919-2.0625 1.0274-3.75 1.5071-3.75 0.47971 0 0.8722 0.44527 0.8722 0.98948 0 1.1854-3.88 11.468-8.5143 22.564-2.8124 6.7339-3.227 8.6596-2.53 11.75 0.48007 2.1286 0.45417 3.6962-0.0611 3.6962-0.49208 0-0.89468-0.92656-0.89468-2.059s-0.42137-1.7986-0.93637-1.4803c-1.5001 0.92712-0.78728 4.5378 0.89917 4.5546 1.1167 0.0111 1.2022 0.22815 0.31245 0.79341-0.67361 0.42795-1.3745 1.7595-1.5576 2.9589s-0.70593 2.5299-1.162 2.9566c-0.45602 0.42667-0.60161-0.47957-0.32353-2.0139 0.67562-3.7276-1.3758-3.0006-2.4118 0.8548-0.43378 1.6142-0.57496 3.8348-0.31375 4.9348s0.21564 1.4347-0.10126 0.74377c-1.2256-2.6721-2.4119 0.14347-2.5556 6.0652-0.14457 5.9593-0.17264 6.0226-0.75 1.691-0.61308-4.5996-2.0198-4.333-2.5485 0.4829-0.14301 1.3028-1.0006 3.1092-1.9057 4.0143-0.90512 0.90512-1.6832 2.851-1.729 4.3242-0.0458 1.4732-0.25333 3.8036-0.4611 5.1786s-0.47545 7.1125-0.59484 12.75c-0.1194 5.6375-0.5119 10.25-0.87224 10.25-0.83265 0-0.92342-0.74215-1.3205-10.796-0.1802-4.5629 0.0458-8.527 0.50217-8.809 0.45639-0.28206 0.81549-1.7238 0.798-3.2038-0.0309-2.6177-0.073-2.6365-1.5434-0.69098-0.83139 1.1-1.793 3.1205-2.1369 4.4901-0.34388 1.3696-1.2243 3.0892-1.9566 3.8214-0.73224 0.73223-1.3313 1.9742-1.3313 2.7599 0 2.1908-0.24844 2.8199-1.6786 4.25-1.7412 1.7412-1.8011 3.8215-0.0686 2.3837 0.87908-0.72957 1.7741-0.65862 3 0.2378 2.4783 1.8122 2.177 2.2738-1.1639 1.7834-3.2189-0.47243-4.8528 1.5197-4.5382 5.5331 0.12976 1.6556-0.14404 1.993-1.0244 1.2623-1.5662-1.2998-3.1843 1.8223-4.3939 8.4782-0.49978 2.75-0.96592 3.875-1.0359 2.5zm13.694-37.566c2.1669-1.5178 6.2091-8.2844 6.2091-10.394 0-0.57191-0.49814-1.0398-1.107-1.0398-0.60885 0-0.84797 0.675-0.53139 1.5s0.13973 1.5-0.39301 1.5-0.96862-0.45-0.96862-1-2.2177-1-4.9282-1h-4.9282l-2.0718 5.5375c-1.1395 3.0456-2.0718 5.7456-2.0718 6 0 1.1859 8.8083 0.28505 10.791-1.1036zm4.4591-12.486c2.1349-0.5929 3.75-1.6672 3.75-2.4944 0-0.79915 0.3375-1.4565 0.75-1.4608 0.9693-0.0101 2.4054-2.9687 8.2478-16.992 2.6351-6.325 5.7189-13.629 6.8529-16.231l2.0618-4.7309-4.7063 0.51013c-13.785 1.4942-13.382 1.2826-15.587 8.1821-1.0953 3.4267-1.7358 6.4861-1.4232 6.7987s1.7464 0.27259 3.1863-0.0888c1.9512-0.48972 2.6475-1.3299 2.734-3.2987 0.0658-1.4985 0.30534-1.9287 0.55356-0.99421 0.24065 0.90605 1.426 1.926 2.634 2.2664 1.994 0.56202 2.0442 0.73628 0.54467 1.891-1.1416 0.8791-1.489 2.1867-1.1247 4.2336 0.35914 2.0179 0.19944 2.6429-0.50116 1.9616-0.56555-0.55-1.2021-1.9-1.4145-3-0.29275-1.5159-1.0868-1.9484-3.2804-1.7866-4.7369 0.34922-5.2191 0.84986-7.5424 7.8314-1.8429 5.538-1.9901 6.8378-0.85544 7.5565 1.1076 0.70164 1.0652 0.87101-0.22138 0.88339-0.94877 9e-3 -2.0858 1.53-2.815 3.7653-0.6728 2.0625-1.4565 4.3125-1.7416 5-0.64974 1.5668 4.5909 1.6714 9.8983 0.19742zm-2.171-3.5308c0.048-1.165 0.28494-1.4019 0.60417-0.60417 0.28887 0.72187 0.25334 1.5844-0.079 1.9167-0.33229 0.33229-0.56864-0.25834-0.52522-1.3125zm-0.99561-6.7885c0.22916-0.20453 2.6667-0.64579 5.4167-0.98058 3.3658-0.40977 4.3463-0.3112 3 0.30158-1.9013 0.86538-9.2937 1.4618-8.4167 0.679zm15.957-31.73c4.5591-0.97775 5.0741-1.3446 4.5629-3.25-0.31695-1.1813-0.58241-2.7104-0.58992-3.3978-9e-3 -0.82828-1.6688-1.25-4.9196-1.25h-4.906l-1.5333 4.5c-1.7848 5.238-1.597 5.3244 7.386 3.3978zm235.15 91.602c0.0204-1.65 0.2445-2.2039 0.49805-1.231 0.25353 0.97297 0.23686 2.323-0.0371 3-0.27394 0.67703-0.48138-0.11903-0.461-1.769zm16.963-1.5c0-1.375 0.22698-1.9375 0.5044-1.25 0.2774 0.6875 0.2774 1.8125 0 2.5-0.27742 0.6875-0.5044 0.125-0.5044-1.25zm-16-5c0-1.375 0.22698-1.9375 0.5044-1.25 0.2774 0.6875 0.2774 1.8125 0 2.5-0.27742 0.6875-0.5044 0.125-0.5044-1.25zm17.079 0c0-1.375 0.34353-3.85 0.76338-5.5 0.68092-2.676 0.76337-2.73 0.76337-0.5 0 1.375-0.34352 3.85-0.76337 5.5-0.68093 2.676-0.76338 2.73-0.76338 0.5zm-26.937-7c0-3.025 0.18746-4.2625 0.41658-2.75 0.22914 1.5125 0.22914 3.9875 0 5.5-0.22912 1.5125-0.41658 0.275-0.41658-2.75zm-240.3 3.059c0-0.51754 0.44485-1.2159 0.98855-1.5519 0.56686-0.35034 0.73451 0.0511 0.39301 0.94098-0.66479 1.7324-1.3816 2.0494-1.3816 0.61096zm251.16-2.059c0-1.375 0.22698-1.9375 0.5044-1.25 0.2774 0.6875 0.2774 1.8125 0 2.5-0.27742 0.6875-0.5044 0.125-0.5044-1.25zm17.921-4.5833c0.048-1.165 0.28494-1.4019 0.60416-0.60417 0.28887 0.72187 0.25336 1.5844-0.0789 1.9167-0.33228 0.33229-0.56863-0.25834-0.52522-1.3125zm-272.85-8.4167c0-1.925 0.20579-2.7125 0.45732-1.75s0.25153 2.5375 0 3.5-0.45732 0.175-0.45732-1.75zm211.93-6c0-1.375 0.22698-1.9375 0.5044-1.25 0.2774 0.6875 0.2774 1.8125 0 2.5-0.27742 0.6875-0.5044 0.125-0.5044-1.25zm15.094-1.5c0.0111-2.2 0.2159-2.9822 0.45509-1.7383s0.2301 3.0439-0.0202 4c-0.25027 0.95609-0.44597-0.0617-0.43488-2.2617zm-97.173-2.25c-0.052-0.82281-1.7877-1.25-5.0789-1.25-3.0475 0-5-0.44087-5-1.129 0-0.80717 2.5654-0.9283 9-0.42493l9 0.70406v-7.5998c0-7.2378-0.12221-7.6463-2.5651-8.5751-1.4108-0.53639-4.9911-0.97525-7.9562-0.97525h-5.3911l-0.36837 7.25-0.36837 7.25 0.0746-7.8809 0.0745-7.8809 3.5-0.32751c1.925-0.18014 5.8625 0.17536 8.75 0.79l5.25 1.1175v17.682h-3.9167c-2.1977 0-4.138 0.54862-4.421 1.25-0.40351 1-0.52017 1-0.58333 0zm80.588 0.0833c-1.01-1.01-0.79765-2.5323 0.26184-1.8775 0.51067 0.31562 1.1244-0.44533 1.3638-1.691 0.31826-1.6558 0.47193-1.3909 0.57149 0.98517 0.12889 3.0758-0.71385 4.0666-2.1972 2.5833zm-6.5256-4.6968c0.70582-1.5749 1.465-2.3182 1.6872-1.6518s-0.35535 1.9549-1.2833 2.8634c-1.5794 1.5463-1.6052 1.4688-0.40389-1.2116zm-190.89-2.1366c0.0111-2.2 0.21588-2.9822 0.45508-1.7383 0.23919 1.2439 0.23011 3.0439-0.0202 4-0.2503 0.95609-0.446-0.0617-0.4349-2.2617zm116.75-0.44098c0-0.51754 0.37496-1.1727 0.83326-1.456 0.4583-0.28324 0.63222-1.8848 0.3865-3.559-0.24867-1.6943 5e-3 -3.044 0.57311-3.044 0.56093 0 0.78453 0.9 0.49687 2-0.43075 1.6472-0.0307 2 2.2679 2h2.7909l-2.3486 2.5c-2.3509 2.5024-5 3.3284-5 1.559zm-17.656-3.606c-0.60969-1.5888 0.42886-16.696 1.3047-18.979 0.70948-1.8489-4.6661-3.201-15.398-3.8731l-9.25-0.57931-0.0859 3.2391-0.086 3.2391-0.88366-2.9598c-1.4619-4.8965-1.3406-4.9139 20.575-2.9586l6.5195 0.58168-0.76947 6.6683c-0.42322 3.6676-0.76949 9.0309-0.76949 11.919 0 5.559-0.19929 6.197-1.1564 3.7028zm62.656-6.2046c0-5.7776 0.70129-8.2385 2.357-8.2707 1.8298-0.0356 5.3752-3.2938 6.0509-5.5607 0.47397-1.5901 0.0106-2.361-1.9583-3.2581-1.9436-0.88555-2.4234-1.6661-1.947-3.1671 0.44228-1.3935 0.17508-1.9919-0.88949-1.9919-1.1774 0-1.6008 1.5272-1.8715 6.75l-0.34983 6.75-0.19586-6.75c-0.28058-9.6698-2.4732-8.8903-3.5159 1.25-0.27382 2.6628-0.39819 2.3017-0.51994-1.5094-0.16787-5.2545-1.0532-6.3588-6.8718-8.5711l-2.5785-0.98036 0.53704 10.523c0.29538 5.7874 0.20295 10.316-0.20539 10.064-0.93309-0.57669-2.3216-21.263-1.5148-22.568 0.37905-0.61332 1.2423-0.61598 2.3796-7e-3 1.2519 0.67001 2.4203 0.50996 3.9138-0.53616 1.8908-1.3244 2.4623-1.319 5.105 0.0476 1.6367 0.84637 3.6843 1.5389 4.5502 1.5389 1.5109 0 4.008 4.4043 3.6949 6.517-0.0829 0.55937 0.85745 1.4634 2.0896 2.0091 1.3021 0.57659 2.1196 1.7108 1.9522 2.7084-0.27198 1.6198-0.1209 1.6203 2.6854 0.01 1.6355-0.93864 3.3402-1.3403 3.7882-0.89262 1.152 1.1512 1.3844 20.648 0.2462 20.648-0.5124 0-0.93163-4.275-0.93163-9.5s-0.4092-9.5-0.90931-9.5c-0.50012 0-3.7626 1.9125-7.25 4.25-6.2399 4.1824-6.345 4.3285-6.6097 9.1856-0.36041 6.6134-1.231 7.1882-1.231 0.81281zm0.42827-24.132c0.79435-1.2853-5.0781-3.4656-7.1603-2.6585-1.6582 0.64275-1.6474 0.77399 0.17317 2.1139 2.1652 1.5934 6.1471 1.9038 6.9872 0.54464zm-3.9425 26.861c-0.39298-0.63587-2.5755-2.0165-4.8501-3.0681-3.6703-1.6969-2.8319-1.7809 2.6144-0.26208 1.4574 0.40645 1.7746-0.23378 1.897-3.8293 0.1316-3.8649 0.21831-3.6885 0.82722 1.6826 0.72551 6.3995 0.6443 7.3098-0.4885 5.477zm-74.102-2.4185c-0.30424-0.79287-0.37694-2.2554-0.16154-3.25 0.24456-1.1292 0.58686-0.58778 0.91138 1.4416 0.5446 3.4055 0.19062 4.2592-0.74984 1.8084zm8.0652-3.3084c-0.42059-0.9625-0.65952-2.3756-0.53096-3.1402 0.17367-1.0328-0.52898-1.2376-2.7336-0.79674-2.6492 0.52985-2.9522 0.33819-2.826-1.7878 0.12482-2.1036 0.32536-2.2147 1.72-0.95326 0.86831 0.78538 2.3405 1.428 3.2714 1.428 0.93099 0 2.2053 1.125 2.8318 2.5 0.62651 1.375 1.5169 2.5 1.9786 2.5s0.83949 0.45 0.83949 1c0 1.7118-3.7447 1.0946-4.5507-0.75zm-32.197-3.75c0.0111-2.2 0.21588-2.9822 0.45508-1.7383 0.23919 1.2439 0.23011 3.0439-0.0202 4-0.2503 0.95609-0.446-0.0617-0.4349-2.2617zm-54.252-1.559c0-0.58246 0.44999-0.7809 1-0.44098 0.54999 0.33992 1 0.81648 1 1.059s-0.45001 0.44098-1 0.44098c-0.55001 0-1-0.47656-1-1.059zm195.25-4.3993c0-1.3979 0.3679-2.5417 0.81757-2.5417s0.63254 0.96089 0.40636 2.1353c-0.6013 3.1223-1.2239 3.329-1.2239 0.40636zm2.75-4.4826c0-0.51754 0.44484-1.2159 0.98854-1.5519 0.56686-0.35034 0.7345 0.0511 0.39301 0.94098-0.66478 1.7324-1.3816 2.0494-1.3816 0.61096zm-192.08-2.809c-0.0421-0.4125-0.227-1.5357-0.41093-2.496s0.0755-1.9994 0.57651-2.309c0.50101-0.30964 0.91094 0.81357 0.91094 2.496s-0.22501 3.059-0.5 3.059c-0.27501 0-0.53444-0.3375-0.57652-0.75zm-38.654-1.943c0.97296-0.25354 2.323-0.23687 3 0.0371 0.67703 0.27393-0.11904 0.48137-1.769 0.46099-1.65-0.0204-2.2039-0.2445-1.231-0.49804zm114.73-1.3365c-1.0482-0.69801-0.14459-0.80209 3-0.34553 5.6013 0.81326 6.4 1.3798 1.9167 1.3597-1.8792-8e-3 -4.0917-0.46481-4.9167-1.0142zm7.5-2.9661c-1.2039-0.5147 2.5222-0.70796 9.3609-0.48552 6.2485 0.20324 11.611 0.61964 11.917 0.92534 0.90577 0.90577-19.097 0.49229-21.278-0.43982zm40.732-3.0044c0-1.925 0.2058-2.7125 0.45733-1.75 0.25152 0.9625 0.25152 2.5375 0 3.5-0.25153 0.9625-0.45733 0.175-0.45733-1.75zm-49.419 1.3169c0.72186-0.28888 1.5844-0.25335 1.9167 0.0789 0.33229 0.33229-0.25834 0.56864-1.3125 0.52522-1.165-0.048-1.4019-0.28495-0.60416-0.60417zm-9-1c0.72186-0.28888 1.5844-0.25335 1.9167 0.0789 0.33229 0.33229-0.25834 0.56864-1.3125 0.52522-1.165-0.048-1.4019-0.28495-0.60416-0.60417zm62.756-0.56913c-0.43108-0.96373-0.42908-2.9887 4e-3 -4.5 0.74132-2.5843 0.81138-2.6139 1.1774-0.49776 0.21404 1.2375 0.21205 3.2625-4e-3 4.5-0.34563 1.9757-0.48915 2.0364-1.1774 0.49776zm-109.01-4.1903c-0.86947-5.798-0.52186-21.003 0.51865-22.686 1.3039-2.1097 1.9556-0.49337 1.0867 2.6949-0.43976 1.6136-0.69841 7.7713-0.57477 13.684 0.12363 5.9125 0.0922 10.75-0.0698 10.75-0.16202 0-0.59437-1.9991-0.96077-4.4425zm112.09 1.9745c-0.30983-0.80738-0.13297-1.7339 0.39301-2.059 0.52598-0.32508 0.95633 0.33551 0.95633 1.468 0 2.4146-0.55611 2.6582-1.3493 0.59104zm-65.651-0.53202c0.82499-0.53316 2.175-0.94464 3-0.9144 0.98906 0.0362 0.81873 0.34772-0.5 0.9144-2.7491 1.1813-4.328 1.1813-2.5 0zm119.7-0.33333c-0.2814-0.73334 0.0775-1.3333 0.79768-1.3333 0.72013 0 1.0791 0.6 0.79767 1.3333-0.64297 1.6756-0.95237 1.6756-1.5954 0zm-50.036-0.33334c-0.36667-0.36666-0.66666-1.1317-0.66666-1.7 0-0.6266 0.46576-0.56756 1.1833 0.15 0.65084 0.65084 0.95084 1.4158 0.66668 1.7-0.28417 0.28417-0.81668 0.21667-1.1833-0.15zm-36.403-1.0509c1.5201-0.22986 3.7701-0.22371 5 0.0137 1.23 0.23736-0.0137 0.42542-2.7637 0.41792-2.75-7e-3 -3.7563-0.20172-2.2363-0.43157zm-138.01-0.97175c0.9625-0.25152 2.5375-0.25152 3.5 0 0.9625 0.25153 0.175 0.45733-1.75 0.45733-1.925 0-2.7125-0.2058-1.75-0.45733zm123.02-4e-3c0.97297-0.25354 2.323-0.23687 3 0.037 0.67703 0.27393-0.11903 0.48137-1.769 0.46099-1.65-0.0204-2.204-0.2445-1.231-0.49804zm147.26-12.676c5.2501-3.6443 15.465-9.5251 15.407-8.87-0.0938 1.0654-14.479 10.239-16.056 10.239-0.78306 0-0.51811-0.55945 0.64842-1.3692zm-206.53-3.6898c0-0.58246-0.33751-0.8513-0.75-0.59743-0.41251 0.25387-0.80543-0.95707-0.87316-2.691-0.0711-1.8189 0.0917-2.3065 0.38479-1.1526l0.50795 2 0.79492-2c0.61591-1.5496 0.81075-1.1555 0.86521 1.75 0.0387 2.0625-0.15472 3.75-0.42971 3.75-0.27501 0-0.5-0.47656-0.5-1.059zm-29.921-2.5243c0.048-1.165 0.28494-1.4019 0.60417-0.60417 0.28887 0.72187 0.25334 1.5844-0.079 1.9167-0.33229 0.33229-0.56864-0.25834-0.52522-1.3125zm61.921-0.91667c1.2917-1.375 2.5736-2.5 2.8486-2.5s-0.55688 1.125-1.8486 2.5c-1.2918 1.375-2.5736 2.5-2.8486 2.5s0.55688-1.125 1.8486-2.5z"/>
</svg>
