<svg width="1500" height="909" version="1.1" viewBox="0 0 1500 909" xmlns="http://www.w3.org/2000/svg">
 <path d="m1367.5 895.45c0-0.55 0.4766-1 1.059-1 0.5825 0 0.7809 0.45 0.441 1s-0.8165 1-1.059 1c-0.2426 0-0.441-0.45-0.441-1zm-385-16.425c-5.8439-1.8505-9.3414-4.1635-14.282-9.4448-4.1121-4.3962-4.7178-5.5962-4.7134-9.3373 0-2.806 0.8584-5.6782 2.4688-8.2928 1.355-2.2 2.4777-5.1501 2.4949-6.5557 0.067-5.4727 9.0971-13.808 17.374-16.037 10.524-2.8339 27.339 0.23988 34.183 6.2489 3.6753 3.227 7.4744 10.208 7.4744 13.734 0 2.1149 0.3177 2.2247 4.981 1.7216 16.32-1.7607 33.69-4.5659 43.519-7.0283l5-1.2526-0.3609-18.916c-0.2592-13.585-0.7073-19.116-1.59-19.626-4.0677-2.3502-5.5185-4.5822-6.1296-9.4299-0.6126-4.8596-0.4645-5.3331 2.7163-8.6789 3.6987-3.8908 9.8642-5.9741 9.8642-3.3331 0 0.82879-1.2375 2.4843-2.75 3.679-2.3205 1.8329-2.4376 2.1311-0.75 1.9094 3.9688-0.52122 9.555 1.3181 11.496 3.7851 2.1777 2.7684 1.85 3.9716-2.7648 10.15-2.4463 3.2755-2.4982 3.6754-1.8155 14 0.9577 14.483 1.2254 17.724 2.0555 24.876 0.6988 6.0204 0.6554 6.1825-1.8206 6.804-1.395 0.35014-2.9237 0.39725-3.3971 0.1047-0.4733-0.29254-3.5364 0.0934-6.8068 0.85768-8.6457 2.0204-37.272 7.3336-41.946 7.7853-2.2 0.21262-5.197 0.0503-6.66-0.36075-2.3952-0.67295-2.9506-0.2797-5.581 3.9516-7.9065 12.719-30.104 22.534-42.259 18.685zm18.254-8.195c5.029-2.5403 10.687-6.3799 9.4013-6.3799-0.338 0-2.3468 0.6931-4.464 1.5402-4.3476 1.7396-7.4427 1.019-12.687-2.9534l-3.0044-2.2759-2.479 2.3445c-2.9337 2.7746-3.3579 2.8251-6.4907 0.77242-3.0966-2.029-2.8061-4.6187 1.2116-10.802 3.8889-5.985 6.3711-7.8103 9.9812-7.3399 2.803 0.36524 6.1198 5.0948 6.2289 8.882 0.077 2.6583 1.1659 4.8342 2.405 4.8038 0.6287-0.0154 2.943-2.8279 5.143-6.25 3.1523-4.9034 4.5298-6.222 6.5-6.222 3.3369 0 3.6641 2.785 1.0449 8.8951-2.9168 6.8047-2.7288 8.5842 0.584 5.5292 4.8419-4.4652 6.7804-12.396 4.214-17.24-3.3804-6.381-11.062-10.125-20.843-10.158-12.08-0.0415-18.575 4.3799-23.099 15.724-0.6236 1.5638-1.8668 2.75-2.8822 2.75-1.854 0-2.9841 2.6357-3.0014 7-0.017 4.1925 3.3783 8.3781 9.5787 11.809 5.2823 2.9233 6.5097 3.2122 11.658 2.7439 3.3228-0.30227 7.9703-1.643 11-3.1734zm83.746-77.872c0-0.24398-1.0125-0.0691-2.25 0.38873-1.2375 0.45778-2.205 1.3433-2.15 1.9678 0.055 0.6245 0.1692 1.923 0.2537 2.8854 0.1108 1.2608 0.7118 0.83482 2.15-1.5242 1.098-1.8008 1.9963-3.4738 1.9963-3.7178zm290 83.492c0-0.55 0.45-1 1-1s1 0.45 1 1-0.45 1-1 1-1-0.45-1-1zm-429.5-16.52c-4.4-0.68776-14.441-1.781-22.313-2.4295-7.8722-0.64846-17.547-2.0563-21.5-3.1286-3.9527-1.0722-8.373-2.2142-9.8228-2.5377-4.4591-0.995-5.1834-4.3569-2.9557-13.719 1.0687-4.4907 2.4809-9.515 3.1383-11.165 0.6575-1.65 1.5504-8.85 1.9842-16 0.7395-12.186 2.8793-23.325 6.3951-33.29 1.5951-4.5208 4.4547-17.362 5.1689-23.21 0.2351-1.925 0.9005-6.875 1.4788-11s1.2487-9.75 1.4898-12.5c0.241-2.75 0.6566-6.35 0.9235-8 1.5065-9.3141 3.5071-28.007 4.4951-42 0.7442-10.541 1.8051-18.061 3.1097-22.041 1.3041-3.9784 2.0752-9.4412 2.2585-16 0.1531-5.4775 0.9921-13.559 1.8646-17.959 0.8724-4.4 2.1119-13.625 2.7543-20.5 0.6425-6.875 1.3634-14.3 1.6021-16.5s0.8826-12.325 1.4309-22.5 1.6962-22.325 2.551-27 1.9562-12.775 2.4474-18c0.4913-5.225 1.1202-11.525 1.3975-14 1.5683-13.994 2.5412-28.589 2.4332-36.5-0.068-4.95 0.2014-11.723 0.5979-15.05 0.4175-3.5033 0.225-9.6074-0.4572-14.5-1.6058-11.517-1.7355-32.402-0.3535-56.95 1.5069-26.767 2.4511-36.925 3.492-37.568 1.7129-1.0587 4.8896 1.6499 4.8896 4.1692 0 1.3918 0.4591 3.3884 1.0202 4.4369 0.6972 1.3026 0.6765 4.6861-0.065 10.684-2.2137 17.9-2.7916 56.709-1.0092 67.778 1.7497 10.866 1.4946 10.5 7.3116 10.5 2.8173 0 7.6647 0.52511 10.772 1.1669 5.1336 1.0603 6.0585 0.96899 10.126-1 2.4619-1.1918 5.2342-2.1669 6.1605-2.1669 2.2786 0 2.1753-0.65351-1.53-9.6744-2.5794-6.28-3.1736-9.0356-3.0087-13.952l0.2054-6.1269-5.6606-0.46943c-4.588-0.38047-6.1023-0.98285-7.9913-3.1789-4.528-5.2642-1.9702-15.404 4.7543-18.846 4.3838-2.2443 7.5899-2.2116 12.171 0.12417l3.6791 1.8757 2.4276-3.1257c3.2633-4.2018 4.2429-2.8058 2.1544 3.0701-1.7328 4.8752-3.4883 11.304-3.0865 11.304 0.121 0 2.3424-3.3502 4.9363-7.4449s7.9022-10.395 11.796-14c5.6739-5.2531 6.6455-6.5551 4.8917-6.5551-3.508 0-9.055-4.8114-9.055-7.8543 0-3.106 4.464-12.275 7.6497-15.713 3.4569-3.7301 8.6403-3.3431 12.95 0.96699 1.87 1.87 3.4498 4.4575 3.5107 5.75 0.1961 4.1637-0.2599 7.3262-1.1967 8.3-1.948 2.0248-0.7534 2.3792 2.836 0.84131 8.5649-3.6695 27.814-5.349 38.246-3.337 4.978 0.96013 6.5109-0.0286 5.355-3.4543-0.3712-1.1-0.7146-4.7-0.763-8l-0.088-6 5-0.29635c10.64-0.63061 11.903-0.42695 14.25 2.2965 3.0535 3.5439 2.8274 6.7726-0.7603 10.859-2.2223 2.5311-4.2293 3.6526-7.6677 4.2848-2.5616 0.47097-4.8201 1.3457-5.0189 1.9439-0.1988 0.59817 2.4642 2.2925 5.9177 3.7652 6.8815 2.9344 16.104 9.4508 20.022 14.147 1.3767 1.65 2.8243 4.9101 3.2169 7.2448 0.3927 2.3346 1.1297 4.5018 1.638 4.8159 0.5082 0.3141 2.2691-0.77393 3.913-2.4178 4.8754-4.8755 3.5707-11.966-1.7611-9.5705-3.2205 1.447-5.25 1.2203-5.25-0.58639 0-3.5453 5.5834-5.3222 11.929-3.7961 1.6115 0.38758 3.5809-5.0189 5.6797-15.592 3.7682-18.984 9.2833-35.317 21.644-64.097 3.543-8.25 8.8027-21.03 11.688-28.401s7.0005-17.045 9.1445-21.5 3.9021-8.9197 3.9068-9.9225c0.01-1.205 0.602-1.7011 1.7586-1.463 2.7928 0.57506 1.8855 7.5177-2.2884 17.512-2.0156 4.826-4.5508 11.25-5.6338 14.275-1.0831 3.025-2.3564 6.4-2.8296 7.5s-2.4818 6.4393-4.4636 11.865-4.8846 12.626-6.4507 16c-2.5096 5.4069-5.3396 11.786-8.0455 18.135-4.2513 9.975-7.9984 24.782-13.08 51.689-0.591 3.1291-1.8831 6.7291-2.8714 8s-2.0872 3.8906-2.4421 5.8214c-0.8464 4.6044-4.6825 8.6208-9.6573 10.111l-4.0038 1.1996 0.4925 7.5016c0.3143 4.7884-0.044 9.8164-0.9917 13.901-0.8163 3.5198-1.4842 6.7211-1.4842 7.114 0 0.3929 1.7885 0.54382 3.9743 0.33536 3.3388-0.3184 4.4453 0.0919 6.9189 2.5656 4.8068 4.8067 5.3922 9.0357 5.2969 38.261-0.083 25.52-0.9202 41.076-3.067 57-0.5561 4.125-1.4986 13.414-2.0945 20.641-2.22 26.928-4.9924 36.149-16.882 56.153-1.7307 2.9117-3.1467 5.5292-3.1467 5.8167 0 0.28749-1.125 1.9977-2.5 3.8004s-2.5 3.962-2.5 4.7984c0 2.882-3.934 6.6563-7.2742 6.9789-3.196 0.30868-3.2317 0.37161-3.8612 6.8116-0.3495 3.575-1.576 9.2-2.7255 12.5-2.49 7.1486-2.5272 7.5-0.7941 7.5 1.7823 0 4.655 3.2448 4.655 5.2578 0 1.1439 1.6401 1.9392 5.75 2.7882 6.1053 1.2612 14.093 4.8549 16.061 7.2258 0.8399 1.0121 0.925 2.8193 0.2923 6.2064-1.3474 7.212-1.4043 29.454-0.08 31.05 0.8237 0.99255 0.7999 1.9332-0.091 3.5986-0.8075 1.5088-1.2006 7.8206-1.1882 19.078 0.01 9.253-0.3489 17.051-0.7981 17.328s0.2501 1.5715 1.554 2.8754c2.5641 2.5641 2.4688 5.6445-0.2726 8.8155-1.3277 1.5358-1.2937 2.028 0.3111 4.5 0.9911 1.5266 4.7058 5.7941 8.255 9.4833 6.9788 7.254 7.6935 10.056 2.2785 8.9311-2.041-0.42385-6.3864-3.8359-12.912-10.139-5.4098-5.225-12.046-10.864-14.748-12.532-3.9784-2.4559-4.8587-3.4978-4.6323-5.4828 0.3263-2.8617 5.6524-8.7626 9.1333-10.119 2.995-1.1671 5.4352 0.6176 3.0788 2.2518-1.3194 0.91507-1.3184 0.98636 0.01 0.61751 1.5998-0.44471 1.5764 0.13682 0.8708-21.724l-0.3708-11.489-4.7752-0.68217c-7.4382-1.0626-23.862-6.9088-27.593-9.8215l-3.3678-2.6298-2.8053 2.8053c-4.9997 4.9997-12.724 2.5733-14.514-4.5591l-0.6367-2.5366-3.572 1.9145c-5.473 2.9334-13.854 4.2897-22.991 3.721l-8.2555-0.51379-1.5807 3.3311c-4.6447 9.7881-18.275 8.8796-18.377-1.2248-0.022-2.2368 0.8761-4.081 3.0451-6.25 1.6923-1.6923 3.6048-3.0864 4.25-3.098 0.6452-0.0116-1.5402-2.5991-4.8565-5.75s-7.1694-7.079-8.5624-8.729-3.4046-3.5018-4.4703-4.1151-1.9836-1.9633-2.0396-3c-0.2136-3.9497-0.4199-4.6964-1.1073-4.009-0.3901 0.3901-0.5876 2.3954-0.4388 4.4562 0.3086 4.2739-1.3144 6.2038-6.8615 8.1588-2.9263 1.0314-4.131 0.9772-7.25-0.326-3.2251-1.3468-3.7422-1.3618-3.7422-0.10823 0 1.1544-1.4967 1.4204-7.25 1.289-3.9875-0.0911-9.0989 0.35653-11.359 0.99479l-4.1086 1.1605-1.1206 7.2495c-0.6162 3.9872-1.3011 8.8245-1.5218 10.75-0.776 6.7673-3.7498 27.677-6.3287 44.5-1.4334 9.35-2.7525 18.575-2.9316 20.5-0.179 1.925-1.9544 9.8-3.9454 17.5-5.3598 20.729-5.2747 20.29-5.8225 30-0.4415 7.825-2.9095 19.723-6.5237 31.449-0.8008 2.5982-0.7618 3.635 0.1581 4.2036 3.4902 2.1571 18.004 4.8142 31.753 5.8134 13.282 0.96524 23.038 2.0894 30.665 3.5336 1.0094 0.19113 2.1728 0.38195 2.5853 0.42403 1.5299 0.15607 0.6844 3.0412-1.1842 4.0413-2.2891 1.225-3.9855 1.1685-14.566-0.48525zm144.5-110.04c0-1.55-2.2942-1.7716-5.4745-0.52886-1.7801 0.69561-1.6817 0.87226 1 1.7948 3.35 1.1524 4.4745 0.83423 4.4745-1.2659zm-101.57-49.012c2.2457-2.2457 1.9459-3.2386-0.9279-3.0728-2.3821 0.13745-3.421 2.3905-1.834 3.9775 0.9065 0.90647 0.9722 0.88494 2.7619-0.90476zm99.571-13.802c0-7.777 0.4093-15.567 0.9095-17.311 0.9838-3.4306 0.1061-4.3156-4.2798-4.3156-1.2138 0-3.9869-0.90756-6.1627-2.0168-2.2625-1.1535-4.099-1.5873-4.2903-1.0134-0.1839 0.55188-1.1592 2.0219-2.1672 3.2668-1.4701 1.8154-2.8416 2.2634-6.93 2.2634-4.5701 0-5.2959 0.31027-7.0181 3-1.0564 1.65-3.5275 4.7951-5.4911 6.9891-1.9637 2.194-3.5703 4.2618-3.5703 4.595 0 0.33327 0.9 1.4204 2 2.4159s2 2.4152 2 3.155c0 0.73975 0.3933 1.345 0.874 1.345 0.4808 0 3.0648 1.2375 5.7423 2.75 7.2433 4.0917 23.43 9.9637 26.074 9.4584 2.2835-0.43652 2.3099-0.60328 2.3099-14.582zm-44.378 4.6748c0.2928-2.6745 0.066-3.0326-1.6409-2.5864-2.175 0.56877-2.2324 0.74343-1.3398 4.0756 0.8423 3.1446 2.5678 2.2825 2.9807-1.4892zm-21.184-1.3027c3.2657-1.1816 6.8657-2.8384 8-3.6816 2.0253-1.5057 2.0175-1.5231-0.4377-0.97108-7.9561 1.7889-18.35 2.8252-24.165 2.4095-5.3461-0.38225-6.5618-0.20733-6.143 0.88385 0.2871 0.74822-0.089 1.397-0.835 1.4416-0.7463 0.0447-0.01 0.71674 1.643 1.4935 4.052 1.9075 14.357 1.1673 21.938-1.5757zm-26.438-2.999c1.275-0.82398 1.2316-0.97167-0.2898-0.98469-0.9844-8e-3 -3.5719-0.92446-5.75-2.0356-4.9898-2.5456-5.1003-1.8265-0.2281 1.4843 4.2121 2.8622 4.2149 2.8628 6.2679 1.536zm22.5-5.4806c3.3-0.34584 8.9774-1.5413 12.616-2.6566 6.1908-1.8973 6.6894-2.2712 7.75-5.8113 0.6235-2.081 1.1336-4.5189 1.1336-5.4176s0.45-1.634 1-1.634 1-0.66375 1-1.475c0-1.0916-0.748-1.3254-2.8778-0.89943-1.5828 0.31656-3.8225 0.07-4.977-0.54786-1.5593-0.8345-2.571-0.82873-3.934 0.0224-1.4316 0.8941-2.521 0.79099-4.9581-0.46927-2.9764-1.5392-3.1531-1.5214-3.7556 0.37699-0.6998 2.2049-4.3509 2.6762-7.5343 0.97243-1.4676-0.78544-1.7684-1.7043-1.3093-4 0.3723-1.8612 0.1833-2.9803-0.5032-2.9803-1.2381 0-4.1507 5.142-4.1507 7.3279 0 2.4241-2.5153 3.719-5.9066 3.0408-2.9779-0.59557-3.1459-0.84847-2.4933-3.7536 1.2957-5.7678 1.2496-7.7355-0.194-8.2895-1.7908-0.68717-4.3369 1.3622-5.5031 4.4295-0.6369 1.6753-0.4274 3.0411 0.7397 4.8223 0.8955 1.3668 1.3545 2.7587 1.02 3.0932-1.0251 1.0252-10.87 3.319-11.794 2.748-0.4775-0.29515-0.8683-0.083-0.8683 0.47148 0 1.2049 5.2147 5.2237 9.764 7.5248 3.9909 2.0186 15 4.5502 17.736 4.0783 1.1-0.18971 4.7-0.62789 8-0.97374zm-84.359-9.1824c3.7497-0.34378 7.9392-0.15626 9.623 0.43073l2.9822 1.0396-0.8577-3.6537c-0.7567-3.2234-0.5586-3.9187 1.6828-5.9037 2.0601-1.8246 3.7273-2.25 8.818-2.25 3.4527 0 6.5402-0.26262 6.8612-0.58361s-0.3405-2.1499-1.47-4.0642c-1.8717-3.1722-3.4365-15.174-3.7226-28.551-0.058-2.6887-0.071-2.6935-3.5256-1.25-4.8275 2.0171-8.8052 1.8086-11.897-0.62361-3.5324-2.7786-3.5655-7.1815-0.072-9.6307 1.4093-0.98817 3.8368-2.8092 5.3943-4.0467 2.9981-2.382 8.758-3.0082 11.951-1.2993 1.4519 0.77704 2.3991 0.11021 5.1842-3.6498 1.8743-2.5303 4.9029-7.1206 6.7302-10.201 1.8273-3.0801 4.1939-6.5336 5.2591-7.6744 2.1023-2.2514 1.6588-3.4258-1.2936-3.4258-3.1712 0-6.7879-4.4861-6.7879-8.4198 0-3.9608 4.2819-9.6404 9.176-12.171 3.6854-1.9058 12.824-2.8784 12.824-1.3648 0 0.60425 0.675 1.7736 1.5 2.5986 0.8817 0.88172 1.5 3.3254 1.5 5.9286 0 2.4357 0.2392 4.4286 0.5316 4.4286 0.2923 0 3.3298-0.97689 6.75-2.1709 9.6383-3.3647 22.759-3.1319 33.378 0.59237 4.4878 1.574 8.8189 2.6088 9.6245 2.2997 0.8376-0.32142 1.7696-2.5946 2.1766-5.3085 1.2122-8.0836 4.9229-11.599 11.261-10.667 11.246 1.6524 11.076 17.305-0.2322 21.394l-3.4113 1.2335 3.3279 2.0633c8.0657 5.0009 14.045 12.015 15.102 17.715 0.6113 3.2969 1.0321 3.6944 4.3342 4.0942 2.0115 0.24351 3.7938 0.10307 3.9608-0.3121 0.1669-0.41517 2.0256-3.2132 4.1304-6.2179 12.078-17.242 15.637-28.618 17.993-57.505 0.5513-6.7593 1.6672-16.884 2.4798-22.5 0.8127-5.6157 1.7422-17.298 2.0656-25.96 0.5086-13.621 0.3845-15.75-0.9179-15.75-0.8283 0-5.2828-1.9756-9.899-4.3902-5.6448-2.9527-8.8454-4.1038-9.7745-3.5153-2.8911 1.8311-6.6672 0.94878-9.2925-2.1712-1.4239-1.6922-2.5889-3.4922-2.5889-4 0-1.5864-2.583-1.0158-6.1105 1.3501-2.8866 1.936-7.1544 3.9582-18.39 8.7132-7.4136 3.1376-18.559 3.792-27.75 1.6292-5.418-1.275-5.75-1.2461-5.75 0.49985 0 1.0191-1.2375 3.2284-2.75 4.9096-2.3286 2.5882-3.5065 3.0704-7.6863 3.1463-4.4461 0.0808-5.2653-0.26938-8.25-3.5262-1.8225-1.9887-3.3137-4.444-3.3137-5.4562 0-2.3098 3.5978-5.646 7.3998-6.8616l2.8998-0.92721-4.7878-3.9501c-2.6333-2.1725-6.8126-5.8505-9.2874-8.1732l-4.4995-4.2232-2.8919 2.4334c-3.6531 3.074-9.1947 4.1925-12.365 2.4959-2.2923-1.2268-4.3256-6.4589-3.0182-7.7663 0.972-0.97194-10.194-3.0798-16.7-3.1524-5.6827-0.0635-5.75-0.0305-5.75 2.8134 0 1.5826-0.6082 3.3824-1.3517 3.9993-0.965 0.80096-1.5513 5.4835-2.05 16.372-0.5651 12.341-6.4297 69.954-8.111 79.68-0.2309 1.3361-0.6834 11.236-1.0055 22-0.3221 10.764-1.0057 23.171-1.5191 27.571s-1.1805 10.25-1.4825 13-1.0477 7.7-1.6571 11-1.2129 10.275-1.341 15.5c-0.1282 5.225-0.9353 12.2-1.7937 15.5-0.8583 3.3-1.8433 8.8725-2.1887 12.383-0.6214 6.3152-0.6034 6.3764 1.6861 5.723 1.2728-0.36326 5.3026-0.93444 8.955-1.2693zm117.79-8.6397c1.2642-2.0914 2.1025-3.9986 1.863-4.2382-0.2396-0.23956-1.8735 0.75568-3.631 2.2116-2.1447 1.7767-3.0121 3.2249-2.6378 4.404 0.3066 0.96624 0.089 2.0462-0.4831 2.4-0.5724 0.35375-1.0407 1.3523-1.0407 2.219 0 1.7972 2.1414-0.72958 5.9296-6.9965zm-95.93 6.334c0-0.53273-0.675-0.70959-1.5-0.39301-0.825 0.31659-1.5 0.75246-1.5 0.96862 0 0.21615 0.675 0.39301 1.5 0.39301s1.5-0.43588 1.5-0.96862zm30-7.581c0-5.0395 2.5664-9.3712 6.5343-11.029 4.1035-1.7145 11.622-1.8644 13.223-0.2636 0.8263 0.82628 1.5276 0.85189 2.45 0.0895 2.3539-1.9454 8.1448-2.4676 10.238-0.92316 1.4579 1.0756 2.6519 1.1894 4.7625 0.45361 1.5492-0.54006 3.4533-0.73765 4.2313-0.43909 0.7781 0.29856 2.807 0.0173 4.5088-0.62508 2.3737-0.89599 3.5389-0.89015 5.0044 0.0251 1.7724 1.1069 1.8697 0.94227 1.3467-2.2801-0.4904-3.0223-0.1134-3.8977 2.9042-6.7437 3.1318-2.9537 3.546-3.9945 4.2751-10.743 1.3196-12.214 1.2458-13.377-0.8747-13.798-1.4079-0.27953-1.7296 0.0358-1.25 1.225 0.3552 0.88078 0.919 2.2764 1.2529 3.1014 0.3841 0.94931 0.038 1.5-0.9433 1.5-2.3454 0-4.8644 4.0532-3.5233 5.6691 0.5958 0.71798 0.8345 1.954 0.5303 2.7467-0.8022 2.0905-18.253 2.0561-21.484-0.0424-2.2036-1.4311-2.2828-1.89-1.6732-9.6879 0.7741-9.9038 3.9893-25.824 6.0009-29.714 0.8055-1.5577 3.2509-3.8361 5.4343-5.0632 2.1834-1.2271 3.7683-2.5572 3.522-2.9557-0.2463-0.3985-3.3674-1.5148-6.9359-2.4808-12.991-3.5165-27.379 0.99335-38.785 12.157-3.1625 3.0953-5.75 6.4379-5.75 7.428s-0.7037 2.5038-1.5637 3.3639c-0.8601 0.86007-1.3049 1.9827-0.9885 2.4947 0.3165 0.51199-0.3146 2.4393-1.4023 4.2828-1.3613 2.3071-2.2221 6.3054-2.7616 12.827l-0.7839 9.4748-3.25 0.31336c-3.5485 0.34214-3.7732 0.97771-2.1887 6.1932 0.5837 1.9214 1.7167 5.9684 2.5179 8.9934 0.8011 3.025 2.8659 8.3125 4.5883 11.75 3.0277 6.0423 3.2597 6.25 6.9821 6.25 3.7441 0 3.8504-0.098 3.8504-3.5497zm69.787-10.764c1.8572-1.0892 3.9491-3.5063 4.8094-5.557 3.7829-9.0184 5.7343-29.762 3.2403-34.445-1.3045-2.4493-1.6816-2.7664-11.007-9.2577-7.0118-4.8808-9.5909-5.1913-7.645-0.92047 1.4557 3.1948-0.3682 5.4939-4.3582 5.4939-2.3965 0-3.1918-0.62999-4.3775-3.4679-2.2451-5.3732-1.8985-8.3812 1.051-9.1215 1.375-0.3451 2.5-1.0183 2.5-1.496 0-0.47769 1.1177-1.6009 2.4837-2.4959 2.4128-1.5809 2.6958-1.4862 9.9089 3.3176 4.0839 2.7197 6.9689 4.2292 6.4111 3.3543-1.5578-2.4431-9.2883-7.9232-12.212-8.657-1.4357-0.36034-2.8471-1.0381-3.1364-1.5062-0.2892-0.46805-1.6643-0.4182-3.0556 0.11078s-3.4004 0.96179-4.4646 0.96179c-2.7595 0-5.6565 3.2652-6.8254 7.6927-2.5031 9.481-4.0008 17.397-4.6461 24.557l-0.6984 7.75h4.5585c5.1759 0 5.6972-0.44087 4.9768-4.2092-0.447-2.3387-0.8845-2.624-3.2867-2.1436-3.873 0.7746-4.5961-1.1557-1.5674-4.1844 2.9681-2.9681 3.1921-3.6451 0.9174-2.7722-2.8586 1.097-0.9589-2.0229 2.4407-4.0084 2.8547-1.6673 3.8585-1.7244 10.92-0.62196 10.135 1.5824 14.276 3.2712 14.276 5.8222 0 1.4216-0.7801 2.0744-2.75 2.301-1.6335 0.18795-2.6395 0.85096-2.4778 1.633 0.1497 0.72412 0.329 5.4348 0.3984 10.468l0.1263 9.1516-3.1178 1.2722c-4.3328 1.768-6.2893 5.8574-4.6582 9.7362 2.0226 4.8095 4.6825 5.1027 11.266 1.2418zm-102.67-30.897c1.5073-2.8164 0.5485-3.1788-3.2698-1.236-4.3635 2.2202-4.5261 2.4062-2.9532 3.3784 1.9252 1.1898 5.0076 0.12868 6.223-2.1424zm27.406-39.359c4.1257-1.1087 8.7862-11.43 5.1612-11.43-0.7259 0-2.2875 1.1131-3.4704 2.4735s-3.2465 2.7485-4.5859 3.0847c-2.6989 0.6774-3.9907 3.6752-2.3084 5.3575 1.2088 1.2088 2.24 1.3108 5.2035 0.51439zm77.458-5.3872c1.2982-2.4258 1.3236-6.7389 0.044-7.5296-1.814-1.1211-7.0214 3.681-7.0214 6.4748 0 5.1936 4.4056 5.8596 6.9771 1.0548zm-52.559-95.65c1.7534-0.67283 2.1163-2.9446 0.6183-3.8705-1.1056-0.68327-5.1708 3.0098-4.2865 3.8941 0.7431 0.74309 1.686 0.73701 3.6682-0.0237zm36.214-7.481c4.4928-0.94347 15.78-5.9144 21.368-9.4101 1.925-1.2044 4.7004-2.9211 6.1676-3.815 2.6342-1.6048 2.6514-1.687 1.3664-6.5581-0.8495-3.2203-1.0248-6.4425-0.5049-9.2809 0.4696-2.5637 0.4042-4.8217-0.1594-5.5023-0.5257-0.63489-0.6808-2.4349-0.3446-4l0.6112-2.8456-2.1628 2.7655c-3.1283 3.9999-5.3223 4.9326-8.6377 3.6721-1.5373-0.58449-3.1349-1.597-3.5501-2.2501-0.4743-0.74593-0.7608-0.38184-0.7704 0.97923-0.019 2.6695-1.6655 3.3194-5.2713 2.0804-2.8093-0.96523-3.4814-2.4418-3.9819-8.7471l-0.2778-3.5-2.9922 5.2698c-3.3467 5.8943-6.1967 7.3091-9.8722 4.9008-1.8158-1.1898-2.2567-2.2031-1.8972-4.3602l0.4684-2.8103-2.5596 3c-1.4078 1.65-2.5758 3.5467-2.5955 4.2148-0.069 2.3316-3.8495 3.4832-6.8051 2.0731-2.3022-1.0984-2.7707-2.0081-2.9846-5.7954-0.3892-6.8901-1.2397-10.993-2.2791-10.993-2.0137 0-5.9595 8.0835-6.5982 13.517-0.566 4.8158-0.3514 6.0152 1.5322 8.5628 1.2047 1.6294 1.9602 3.3351 1.6789 3.7902-0.2814 0.4552-4.4091 1.1027-9.1728 1.4389-4.7636 0.33618-8.892 0.84209-9.1742 1.1243-0.9997 0.99969 10.7 11.502 20.506 18.406 6.6133 4.6567 18.28 6.3009 28.893 4.0721zm66.504-2.662c0.1999-1.5125 0.2218-7.3295 0.049-12.927l-0.3149-10.177-3.1851 0.4484c-3.7608 0.52943-5.9976-1.0008-7.3292-5.0138l-0.9684-2.9186-2.8532 4.9186c-1.5692 2.7052-3.6905 6.0032-4.7139 7.329-1.8533 2.4008-1.8479 2.4211 1.3594 5.0986 2.5315 2.1134 3.2201 3.4573 3.2201 6.2845 0 3.4597 0.2488 3.7092 6.55 6.5697 3.6025 1.6354 6.8364 3.0102 7.1865 3.0551 0.3501 0.0449 0.8001-1.1558 1-2.6684zm-25.774-2.028c0.2644-0.42788-0.3597-1.8904-1.387-3.25-2.4526-3.246-4.7453-1.5156-2.4098 1.8187 1.5949 2.2771 2.9567 2.7905 3.7968 1.4313zm0.6258-22.204c1.6563-2.5811 3.012-4.8785 3.0128-5.1054 7e-4 -0.22685-2.4743-0.2583-5.5-0.0699l-5.5014 0.34255v5.7408c0 3.1574 0.301 6.0418 0.6688 6.4096 0.9666 0.9665 3.86-1.9262 7.3198-7.3177zm-103.33 2.4744c0.9017-1.9441 0.8808-2.4922-0.095-2.4922-1.6386 0-4.759 3.4685-3.8964 4.3312 1.3188 1.3188 2.8552 0.61092 3.9914-1.839zm17.219-4.1172c3.0547-0.61093 3.1251-0.75159 3.1306-6.25 0-3.0938 0.4544-7.2 1.003-9.125 1.2438-4.3642 5.7832-9.5902 9.5863-11.036 6.0229-2.2899 12.405 1.1872 12.405 6.7586 0 2.3851 1.4074 3.0454 2.5501 1.1964 1.7532-2.8367 6.5974-4.6751 10.186-3.8656 3.1321 0.7064 4.0541 0.4408 7.0543-2.0322 5.1445-4.2406 10.425-2.8678 11.725 3.048 0.354 1.612 1.2331 2.9309 1.9535 2.9309 0.7203 0 2.3384 0.83296 3.5956 1.851 2.2398 1.8137 2.3559 1.8036 5.7504-0.5 1.9054-1.2931 4.5266-2.351 5.8248-2.351 2.1668 0 2.3605-0.41147 2.3605-5.0136 0-2.7575-0.5202-5.8465-1.156-6.8646-0.8461-1.3548-0.872-2.9698-0.097-6.0245 0.5827-2.2954 0.7418-5.3608 0.3537-6.8119l-0.7056-2.6384-1.6977 3.5776c-0.9337 1.9677-1.7046 4.8596-1.713 6.4265-0.021 3.8276-0.9474 5.0514-4.4947 5.9352-1.6445 0.40971-3.4874 1.4185-4.0954 2.2418-0.6305 0.85373-1.812 1.2257-2.75 0.86574-2.2933-0.88003-2.1302-9.2335 0.3554-18.194 1.068-3.85 1.9817-9.925 2.0305-13.5 0.049-3.575 0.4356-8.605 0.8596-11.178 0.945-5.7344 0.8165-5.7894-13.591-5.8086-16.226-0.0217-21.631 1.6594-35.194 10.947-7.0427 4.8227-10.514 8.5519-16.943 18.202-6.1186 9.1839-9.274 18.827-7.2309 22.099 1.1208 1.7947 1.0535 2.2766-0.4741 3.3936-0.9793 0.71604-2.8327 1.0378-4.1188 0.71501-2.8505-0.71544-2.871-0.2317-0.3063 7.2234 4.9017 14.248 6.0071 15.349 13.843 13.782zm106.92-3.575c1.4871-1.4871 1.5773-6.4488 0.1335-7.3411-1.4853-0.91795-1.7492-0.46392-2.5155 4.3287-0.6804 4.2548 0.1233 5.2712 2.382 3.0125zm-14.579-9.3c2.8779-10.096 3.8407-19.749 2.7721-27.795-1.5893-11.966-1.4058-11.644-6.5878-11.54-5.2249 0.10487-6.1983-0.50501-4.3536-2.7278 0.8872-1.069 2.4488-1.4811 4.6425-1.225 6.8053 0.79448 2.3984-5.5098-8.6944-12.438-6.814-4.2557-8.9764-5.0879-9.0765-3.4933-0.042 0.67024-0.2592 2.1186-0.4825 3.2186-0.2232 1.1-0.6873 4.925-1.0313 8.5l-0.6254 6.5 6.0206 2.2978c6.013 2.2949 6.0213 2.3037 6.5722 7 0.3034 2.5862 0.5423 10.327 0.5309 17.202-0.034 20.377-0.6291 18.157 4.775 17.805 4.2418-0.27607 4.7636-0.58746 5.5382-3.3048zm-25.052-23.616c-0.1817-0.75124-0.3899-2.1575-0.4628-3.125-0.073-0.96752-0.4867-1.7591-0.9197-1.7591-1.2023 0-0.937 3.7894 0.3196 4.566 0.7734 0.47802 0.6981 0.97047-0.25 1.6352-1.0948 0.76749-1.0672 0.86403 0.1432 0.5 0.825-0.24812 1.3514-1.0658 1.1697-1.817zm-90.465-5.3899c1.2253-2.5696 1.3872-4.1843 0.6702-6.6843-1.2162-4.2407-3.3256-4.586-6.7985-1.1131-2.334 2.334-2.6946 3.3811-2.2658 6.5787 1.0153 7.5692 5.084 8.1599 8.3941 1.2187zm34.651-36.115c2.2416-3.0631 3.2513-9.4723 1.8786-11.925-0.923-1.6494-1.1923-1.5871-3.6158 0.83637-1.4531 1.4531-2.6185 3.7514-2.6185 5.164 0 1.4-0.45 2.5454-1 2.5454-1.3615 0-1.2693 4.3307 0.1219 5.7219 1.456 1.4561 2.9399 0.79191 5.2338-2.3425zm68.461-14.638c0.1741-1.5078-0.094-2.7414-0.595-2.7414-1.5895 0-4.4461 3.8273-3.7261 4.9924 1.2478 2.019 3.9933 0.58888 4.3211-2.2509zm-121.59 501.07c0.6181-1.8542 2.7708-2.1618 2.7708-0.39583 0 0.87083-0.7125 1.5833-1.5833 1.5833-0.8709 0-1.4052-0.53437-1.1875-1.1875zm555.97-37.312c0.02-1.65 0.2445-2.2039 0.4981-1.231 0.2535 0.97297 0.2369 2.323-0.037 3s-0.4813-0.11903-0.461-1.769zm-105.38-44.183c0.7219-0.28887 1.5844-0.25335 1.9167 0.0789 0.3323 0.33229-0.2584 0.56864-1.3125 0.52522-1.165-0.048-1.4019-0.28494-0.6042-0.60416zm1.6946-11.305c-0.3504-0.56686 0.051-0.7345 0.941-0.39301 1.7324 0.66479 2.0493 1.3816 0.6109 1.3816-0.5175 0-1.2159-0.44485-1.5519-0.98855zm14.493-26.011c0-1.1 0.1725-2 0.3834-2 0.2108 0 0.6187 0.9 0.9063 2 0.2877 1.1 0.1152 2-0.3833 2s-0.9064-0.9-0.9064-2zm-2.1875-7.6831c0.7219-0.28887 1.5844-0.25335 1.9167 0.0789 0.3323 0.33229-0.2584 0.56864-1.3125 0.52522-1.165-0.048-1.4019-0.28494-0.6042-0.60416zm5.6875-78.317c-0.3399-0.55-0.1415-1 0.441-1 0.5824 0 1.059 0.45 1.059 1s-0.1984 1-0.441 1c-0.2425 0-0.7191-0.45-1.059-1zm-1218.4-10.946c-0.55302-2.5045-1.2142-7.5876-1.4692-11.296-0.54794-7.966 1.0011-10.744 6.3365-11.366 6.1713-0.71854 8.9588 4.8885 5.6711 11.407-0.74901 1.4852-1.6214 5.3352-1.9386 8.5556s-0.79697 6.0755-1.0661 6.3446-1.8481 0.58341-3.5088 0.69838c-2.819 0.19517-3.0861-0.0932-4.0249-4.3446zm40.634-7.208c-9.0238-1.9677-17.552-11.482-16.079-17.938 0.8683-3.8051 6.4922-15.121 9.0994-18.31l2.3732-2.9021-4.8134-2.0217c-4.5587-1.9147-7.1512-3.493-18.714-11.393-8.8661-6.0577-18.019-13.667-23.099-19.205-2.75-2.9974-8.2844-9.0081-12.299-13.357-7.6459-8.2833-14.219-20.16-19.354-34.969-1.2873-3.7125-2.6418-6.75-3.01-6.75s-1.2688 1.3538-2.0012 3.0085c-1.3992 3.161-7.6438 8.1943-11.762 9.4804-4.0702 1.2712-10.895 0.68551-15.348-1.317-8.98-4.0381-11.722-10.521-9.3211-22.036 1.6888-8.0992 5.8182-15.211 12.211-21.028 5.6846-5.1734 7.6996-4.3424 4.6105 1.9013-1.7694 3.5764-1.8217 4.0419-0.38612 3.4376 3.1233-1.3147 11.54-2.6069 13.963-2.1436 2.29 0.43775 2.3851 0.2666 1.7618-3.17-2.9304-16.158-3.5872-23.321-4.096-44.67-0.59227-24.852 0.38722-35.907 3.9655-44.754 2.6827-6.6329 2.5779-13.926-0.13461-9.364-1.4844 2.4963-9.9202 4.9461-15.264 4.4327-13.823-1.3282-18.983-9.8265-14.02-23.09 2.9336-7.8408 8.6181-12.633 16.609-14.002 5.7374-0.98277 6.5214-0.88055 11.026 1.4374 2.667 1.3725 5.8473 3.9764 7.0671 5.7864l2.218 3.291 1.7313-4.3503c2.4425-6.1375 9.9889-20.549 13.431-25.65 1.596-2.3651 2.9018-4.5307 2.9018-4.8125 0-0.28179 4.3644-6.2217 9.6986-13.2 12.152-15.896 22.844-26.69 36.301-36.644 5.775-4.2715 10.658-7.9118 10.851-8.0894 0.19302-0.17766-1.4977-0.82081-3.7571-1.4292s-5.6186-2.6168-7.4649-4.463c-2.792-2.792-3.3169-4.0051-3.1198-7.2095 0.65441-10.636 6.0739-20.062 13.888-24.154 4.1378-2.1671 5.04-2.3366 5.9876-1.1251 0.61362 0.7846 2.2407 1.5554 3.6157 1.7129 4.9069 0.56201 10.54 3.3678 13 6.4758 2.1432 2.7071 2.5 4.1864 2.5 10.363 0 4.6493 0.3547 6.9322 1 6.4359 0.55-0.42297 7.8506-3.082 16.224-5.909 21.427-7.2345 29.297-8.3172 61.776-8.5 24.308-0.13678 28.097 0.0697 38 2.0711 6.05 1.2226 13.475 2.4992 16.5 2.8368 7.9117 0.8829 15.769 3.0056 23.842 6.4409 3.8766 1.6496 7.4758 2.9994 7.9982 2.9994s1.1639-1.6875 1.4256-3.75c0.7457-5.8764 6.2177-17.682 10.002-21.579 2.9367-3.024 9.7598-7.6715 11.263-7.6715 0.25827 0 0.46958 0.64671 0.46958 1.4371 0 1.0778 0.85586 1.2982 3.4227 0.88171 5.5916-0.9074 13.191 1.4338 16.179 4.984 2.2077 2.6237 2.5444 3.8283 2.1673 7.7533-0.24559 2.5559-1.5092 6.8513-2.8081 9.5454-2.8395 5.8898-11.001 14.284-16.316 16.781l-3.8553 1.8113 3.143 1.9114c1.7286 1.0512 6.6135 4.512 10.855 7.6905 4.2418 3.1785 9.6033 7.0461 11.915 8.5947 4.2258 2.8313 10.345 9.0704 17.842 18.19 6.6269 8.062 8.3693 10.907 15.858 25.891l7.1542 14.314 3.0876-2.7588c1.6982-1.5173 5.1736-3.5554 7.723-4.5291 15.053-5.7489 33.783 11.204 26.605 24.081-3.05 5.4719-3.8549 6.3236-7.9057 8.3655-5.9602 3.0044-13.903 3.4839-19.31 1.1659-3.0486-1.3068-4.7567-1.6101-4.9976-0.88751-0.20127 0.60381 0.32959 6.5383 1.1797 13.188 1.039 8.1268 1.5242 19.957 1.4804 36.09-0.0563 20.7-0.36744 25.444-2.2627 34.5-1.2086 5.775-2.465 11.355-2.792 12.4-0.57224 1.8287-0.48709 1.8251 2.2704-0.0971 3.8356-2.6736 8.8727-4.3029 13.302-4.3029 4.9714 0 12.074 3.7891 14.805 7.8979 5.9449 8.9457-0.44706 24.801-12.359 30.657-4.689 2.305-12.985 2.5314-16.855 0.46011-1.5263-0.81688-3.8012-2.9952-5.0552-4.8406-2.2438-3.3021-2.2905-3.3182-2.9391-1.0148-0.83632 2.9704-1.3645 4.2766-6.4055 15.841-2.2777 5.225-4.1382 9.8134-4.1345 10.196 0.0199 2.0571-8.5701 14.777-17.088 25.304-11.374 14.056-18.924 21.524-27.905 27.601-3.575 2.4193-6.7279 4.6979-7.0064 5.0636s-3.6535 2.3244-7.5 4.3528-7.6686 4.2236-8.4936 4.8783c-0.825 0.65469-2.7668 1.8252-4.3151 2.601l-2.8151 1.4107 2.2852 0.84537c4.19 1.55 8.6181 5.6469 11.318 10.472 2.4049 4.2974 2.6066 5.4203 2.0163 11.228-0.78497 7.7227-3.3101 13.066-7.7304 16.359-8.7957 6.552-21.18 2.6865-27.656-8.632-3.5987-6.2899-4.761-12.354-3.2168-16.783 0.61759-1.7716 1.0045-3.3396 0.85973-3.4843-0.14473-0.14474-3.4093 0.54807-7.2545 1.5396-3.8452 0.9915-10.141 2.3432-13.991 3.0037s-9.925 2.0304-13.5 3.0441c-3.575 1.0137-8.1875 2.1239-10.25 2.467-2.6621 0.44283-3.75 1.13-3.75 2.3686 0 2.9312-7.6024 16.525-10.417 18.626-1.8734 1.3987-4.7015 2.0925-9.6754 2.3735-6.6889 0.37795-7.4386 0.18633-15.529-3.9691-8.2951-4.2605-8.4921-4.4455-8.1378-7.6404 0.23862-2.1514-0.2074-3.7905-1.3007-4.7799-1.8768-1.6985-9.5894-3.1402-21.275-3.977-4.3477-0.31133-10.162-0.99419-12.922-1.5175-2.7592-0.52323-5.0914-0.95137-5.1825-0.95137-0.0911 0 4e-3 3.7125 0.21096 8.25 0.32967 7.2213 0.0772 8.8111-2.0246 12.75-4.2804 8.0216-12.835 11.847-22.014 9.8457zm6.8674-5.8672c3.2809-1.156 6.8058-6 7.8605-10.802 0.40749-1.8553 0.15309-5.4018-0.59758-8.3308-1.0827-4.2246-1.9916-5.5323-5.2938-7.6168l-3.9866-2.5166-3.7917 4.2727c-2.0854 2.35-3.7917 4.8898-3.7917 5.6441 0 0.75426-0.37877 1.3714-0.84171 1.3714s-1.3786 1.792-2.0348 3.9823c-1.4235 4.7512-0.0473 8.2211 4.9174 12.399 3.5317 2.9718 3.6118 2.9887 7.56 1.5976zm174.89-12.41c3.6939-3.3835 3.7409-3.5209 3.342-9.7857-0.31009-4.8698-1.1171-7.5136-3.4548-11.318-3.8824-6.3188-5.8654-6.8153-7.0543-1.7661-1.0586 4.4961-4.6808 5.9164-5.8327 2.2871-0.6357-2.0029-0.78738-2.0309-2.5181-0.46468-3.514 3.1801-0.79059 16.003 4.7808 22.51 2.5576 2.987 6.4599 2.4556 10.737-1.4621zm-88.495-17.436c7.975-1.1096 18.325-2.911 23-4.0032 34.434-8.0447 39.643-9.5103 47.845-13.462 7.6375-3.6795 9.0727-4.8102 12.271-9.6669 7.2536-11.016 11.804-19.748 16.413-31.5 6.7825-17.291 7.3468-19.484 5.7906-22.5-1.8981-3.6783-1.6111-8.2271 1.0948-17.355 1.3279-4.4795 2.7055-10.282 3.0613-12.895l0.64692-4.75-3.8113-0.1343c-6.4051-0.22569-12.567 0.18245-17.811 1.1797-5.4925 1.0445-9.1654 1.4888-20.673 2.5006-10.373 0.91198-12.288-0.33226-11.962-7.7687 0.20352-4.6357-0.13205-5.6724-2.7601-8.5273-3.5809-3.89-5.388-4.0574-8.6446-0.80087-2.1277 2.1277-2.3076 2.8168-1.3708 5.25 1.745 4.5326 0.27911 12.08-2.8728 14.791-2.4388 2.0978-2.94 2.1868-5.3368 0.94732-4.2765-2.2114-4.8098-8.5113-1.2914-15.255 1.9532-3.7437 1.8043-4.551-1.4893-8.0769-3.767-4.0326-7.4222-4.049-12.85-0.0576-5.3528 3.9365-5.9147 5.9454-3.22 11.512 2.4129 4.9845 2.1039 10.489-0.76869 13.69-2.1955 2.4466-3.4509 2.2045-6.8233-1.3164-2.671-2.7886-2.9407-3.7054-2.9768-10.121-0.0364-6.4674-0.2734-7.2554-2.848-9.4699-2.7718-2.3842-5.4146-2.4505-8.2317-0.20651-0.61567 0.49042-1.3339 4.2336-1.596 8.3181-0.58087 9.0512-2.4912 12.546-6.8587 12.546-2.5465 0-3.2836-0.5963-4.6358-3.75-2.0969-4.8906-1.918-6.6804 1.2495-12.5 3.3516-6.158 2.2283-8.2444-3.9981-7.4262-3.1372 0.41226-4.8805 1.4711-7.7915 4.7323-3.3019 3.6992-3.75 4.8153-3.75 9.3405 0 5.9228-3.197 11.62-7.8796 14.041-2.4847 1.2849-3.0793 1.2794-4.9713-0.0458-3.0961-2.1686-2.6729-5.0384 1.82-12.343 4.4427-7.2229 4.5185-10.005 0.37591-13.799-4.1951-3.8423-13.912-2.2735-18.455 2.9795-1.6803 1.943-1.9128 3.4449-1.6118 10.414l0.35173 8.1431-3.8754 0.51979c-2.1314 0.28589-5.2268 0.13219-6.8786-0.34154-2.9481-0.8455-26.272-0.43036-30.559 0.54391-1.2008 0.27289-5.3097 0.54375-9.1309 0.60192l-6.9477 0.10576-5.6065 7.142c-3.0836 3.9281-6.9242 8.0201-8.5348 9.0934-2.26 1.5061-2.6398 2.1908-1.6642 3 2.4217 2.0088 13.102 16.753 18.067 24.941 2.75 4.5353 7.6731 12.035 10.94 16.666 3.2671 4.631 7.4066 11.284 9.1989 14.783 2.9724 5.8042 10.004 16.944 11.461 18.158 0.33016 0.275 1.1335 1.5125 1.7852 2.75 0.73952 1.4043 2.1113 2.25 3.6497 2.25 1.3556 0 2.4648 0.43844 2.4648 0.97432 0 4.3665 31.098 9.2733 54 8.5202 5.775-0.18989 17.025-1.2531 25-2.3626zm-94-9.7027c0-0.31394-1.9611-3.3514-4.358-6.75-2.3969-3.3986-5.1835-8.0917-6.1924-10.429s-2.1256-4.25-2.4815-4.25-1.177-1.1632-1.8248-2.585-4.2369-7.1592-7.9758-12.75c-3.7389-5.5908-8.4474-12.987-10.463-16.436-3.6021-6.1624-11.344-16.298-16.225-21.24-3.5-3.5444-3.1255-5.6189 1.4342-7.9451 3.9813-2.0311 11.865-10.599 10.765-11.699-0.33206-0.33206-5.6831-0.77652-11.891-0.9877-9.569-0.3255-19.017-1.3247-27.134-2.8696-2.6938-0.51271-4.6558 0.48927-4.6382 2.3688 0.0269 2.8774 3.9231 17.442 6.1909 23.143 1.2034 3.025 3.443 7.6467 4.9769 10.27s3.0659 5.8739 3.4044 7.2226c0.33852 1.3488 3.8323 5.9999 7.7639 10.336s9.7538 10.798 12.938 14.36c10.982 12.284 45.71 35.259 45.71 30.24zm193.5-22.563c3.9597-2.1178 12.535-7.7077 13.5-8.7997 0.275-0.3113 2.525-2.1168 5-4.0123 7.105-5.4413 8.7082-7.0783 14.742-15.054 3.1209-4.125 8.2793-10.548 11.463-14.272 4.9859-5.833 12.795-19.561 12.795-22.493 0-0.52667 1.7531-4.7324 3.8958-9.346 2.1427-4.6136 4.1891-9.7854 4.5475-11.493l0.65163-3.1043-4.7975 0.398c-2.6386 0.2189-7.8087 0.82835-11.489 1.3543-3.6804 0.52598-10.48 0.95633-15.11 0.95633s-10.498 0.28491-13.038 0.63314c-4.3756 0.59974-4.6503 0.82388-5.209 4.25-0.32437 1.9893-1.6835 8.0224-3.0203 13.407-3.1018 12.494-3.133 16.02-0.15918 17.968 3.0284 1.9843 3.4092 6.3305 0.61853 7.0603-1.5263 0.39913-1.9046 1.0601-1.4416 2.5188 0.41642 1.312-0.14403 2.8103-1.6652 4.4516-1.2611 1.3607-3.8044 6.2398-5.6519 10.843-1.8475 4.6027-5.7828 12.965-8.7452 18.584-2.9624 5.6182-5.3861 10.511-5.3861 10.872s1.0125-0.0718 2.25-0.96247c1.2375-0.89068 4.05-2.5822 6.25-3.7588zm-292.17-54.721c4.4168-4.1247 5.9341-8.6692 5.2981-15.869-0.65102-7.3689-2.8376-11.276-6.3107-11.276-3.8164 0-6.1308 1.7103-8.4403 6.2373-1.1702 2.2938-3.1966 5.0114-4.5033 6.0391-4.0792 3.2087-2.9132 11.467 2.3015 16.3 3.3045 3.0625 7.3778 2.562 11.655-1.432zm63.357-23.713c0.58137-1.7392-3.9445-7.6771-7.3816-9.6845-2.8962-1.6915-3.4488-1.7252-6.0694-0.37001-1.5857 0.82001-3.4679 2.1956-4.1827 3.0568-1.5995 1.9273-5.4162 2.0402-6.939 0.20536-0.78147-0.94162-0.91649-4.5598-0.43847-11.75 0.37989-5.7142 0.69223-20.852 0.69408-33.639 2e-3 -12.788 0.36907-23.25 0.81603-23.25s0.81265-0.63883 0.81265-1.4196c0-3.3547 13.466-5.2209 35.355-4.8997 9.2064 0.13509 11.15 0.83981 10.07 3.6521-0.50488 1.3157-1.9876 1.6672-7.0328 1.6672-3.5162 0-6.393 0.2299-6.393 0.5109 0 1.5205 4.4061 9.5466 6.0649 11.048 3.306 2.9919 2.2268 8.4413-1.6719 8.4413-2.2925 0-2.393 0.28947-2.393 6.8901v6.8901l6.75 0.13007c3.7125 0.0715 8.55 0.56025 10.75 1.086s4.4787 0.96666 5.0638 0.97978c1.2904 0.0289 0.62644-12.308-0.68945-12.809-1.5646-0.59647-0.92459-3.1164 1.3756-5.4167 2.173-2.173 2.2584-2.9683 2.4952-23.25 0.13485-11.55 0.14998-24.15 0.0336-28-0.38702-12.806-0.0965-48.669 0.61152-75.5 0.79936-30.29-0.0333-38.565-3.7613-37.382-1.1485 0.3645-5.0223 2.8343-8.6086 5.4883-3.5863 2.6541-8.3509 6.1805-10.588 7.8365-9.6555 7.1472-32.159 32.449-41.261 46.392-6.3186 9.6791-14.943 27.179-15.359 31.165l-0.31299 3 12.5 0.75997c6.875 0.41799 18.238 0.5633 25.251 0.32292 10.448-0.35811 13.024-0.16471 14.259 1.0706 1.6273 1.6273 1.1592 3.3465-0.91131 3.3465-0.84337 0-1.3059 1.541-1.3506 4.5-0.0616 4.0741 0.16004 4.5118 2.3416 4.625 1.3253 0.0688 2.8596 0.2375 3.4096 0.375s1.4645 0.30625 2.0322 0.375c0.56773 0.0688 1.3917 1.0968 1.8311 2.2846 0.65106 1.76-0.0488 3.0149-3.7822 6.7819-2.5196 2.5422-6.317 6.5102-8.4386 8.8177-2.6662 2.8998-4.5191 4.0948-6 3.8695-2.1566-0.3281-3.7172-3.6287-1.7158-3.6287 1.3708 0 1.3963-5.528 0.0373-8.0674-0.56983-1.0648-2.5948-2.5872-4.5-3.3832-4.8376-2.0213-4.658-4.875 0.40209-6.3911 2.1263-0.63706 4.554-1.1583 5.395-1.1583 1.0552 0 1.6479-1.2477 1.913-4.027l0.38404-4.027-11.529-0.0447c-6.341-0.0246-16.193-0.0683-21.893-0.0971-7.7534-0.0392-10.58 0.29375-11.22 1.3217-0.47079 0.75578-1.7694 5.2548-2.8858 9.9979-2.4043 10.215-2.7041 26.083-0.62231 32.942 1.492 4.9155 1.0836 9.9346-0.80846 9.9346-1.5272 0-4.599-5.2401-4.599-7.8453 0-1.1202-0.51394-2.3543-1.1421-2.7425-0.84909-0.52477-0.97289 3.8855-0.48257 17.191 1.0398 28.216 1.8455 36.199 5.3115 52.626 1.5274 7.2393 1.7757 7.6928 3.9171 7.1554 1.2575-0.31561 4.6735-0.017 7.5912 0.6635 10.5 2.4492 36.813 3.4202 37.493 1.3836zm37.312-1.0113c14.864-0.64361 16.314-0.63312 19.391 0.14014l2.891 0.72658-0.52516-5.3935c-1.0363-10.643 5.6592-17.783 18.079-19.28 5.2866-0.63721 9.8197 0.86048 13.727 4.5352l3.0623 2.8801 2.3347-2.4852c4.5844-4.8799 16.989-6.7046 20.989-3.0877 1.6801 1.519 2.5486 1.7148 3.8899 0.87716 4.7248-2.9507 10.901-2.4497 14.53 1.1785 1.5717 1.5717 1.9286 1.4531 5.5954-1.8597 9.2308-8.3395 16.672-8.9388 24.177-1.9472 2.4776 2.3082 2.8171 2.3688 5.5 0.98182 5.9212-3.0611 11.637-2.4942 15.765 1.5637 4.4009 4.3258 5.5944 6.8186 5.5944 11.684 0 2.5902 0.45364 4.0628 1.25 4.0577 1.055-7e-3 19.842-2.5228 26.25-3.5154 1.1-0.1704 6.275-0.34903 11.5-0.39696l9.5-0.0871 4.3082-5.5782c4.3907-5.6849 12.264-10.458 17.773-10.775 1.3295-0.0765 2.4202-0.3641 2.4238-0.6391 0.0112-0.84583 3.0514-20.315 3.6696-23.5 0.3203-1.65 0.79179-13.752 1.0478-26.893 0.4467-22.933 0.39132-23.861-1.3786-23.098-1.0142 0.43732-3.644 0.8687-5.844 0.95863-2.2 0.0899-5.067 0.7415-6.3711 1.4479s-3.8916 1.2844-5.75 1.2844-3.3789 0.34875-3.3789 0.775-0.27343 2.1422-0.60763 3.8131c-0.51655 2.5827-0.0546 3.5752 3.0818 6.6211 2.0292 1.9706 4.4189 3.9912 5.3104 4.4901 2.5966 1.4532-0.20846 3.8917-5.3664 4.6652-4.4097 0.66128-4.4182 0.67054-4.3984 4.799 0.036 7.5077 1.9698 18.101 3.5159 19.259 1.7812 1.3343 0.97513 4.0802-1.4211 4.8407-2.013 0.63889-15.574-0.97161-21.407-2.5423-4.5742-1.2318-21.708-0.29655-21.708 1.1848 0 1.4934-5.7459 0.99846-6.3385-0.54597-0.60681-1.5813 1.01-19.22 1.8927-20.648 0.49887-0.8072 0.61491-7.6346 0.26194-15.412-0.0749-1.65 0.18508-5.475 0.57769-8.5 0.3926-3.025 0.85433-7.975 1.026-11s0.87983-13.375 1.5736-23c0.69375-9.625 1.0247-22.45 0.73539-28.5-0.56904-11.901-0.0569-18.451 3.1272-40 1.1378-7.7 2.3212-18.153 2.6298-23.229 0.7644-12.575 1.476-13.951 6.2895-12.162 2.1909 0.81437 2.2517 1.1526 1.6392 9.1186-0.34985 4.5501-1.7003 14.701-3.001 22.558-2.9862 18.038-3.3105 22.028-3.8772 47.715-0.48616 22.035-2.0062 48.501-3.4173 59.5-0.45865 3.575-0.62445 9.2367-0.36844 12.581 0.26874 3.5111-0.19146 9.2581-1.0888 13.597-0.85487 4.1337-1.2852 8.5448-0.95635 9.8024 0.57514 2.1994 0.88241 2.2626 8.0547 1.6563 5.3755-0.45439 8.9456-0.19752 12.791 0.92034 2.9338 0.85287 7.5665 1.4138 10.295 1.2464l4.9609-0.30425-2.3778-9.387c-1.3078-5.1628-2.1377-9.7753-1.8444-10.25 0.29336-0.47465-1.2639-0.86301-3.4605-0.86301-8.5831 0-11.736-3.645-8.7932-10.165 5.5252-12.241 5.6953-12.835 3.678-12.835-1.0333 0-3.1455-0.48496-4.6938-1.0777l-2.8151-1.0777 2.1734-1.7706c2.4248-1.9754 14.978-3.5941 16.75-2.1598 0.59214 0.47929 3.3266 0.69238 6.0766 0.47356 2.75-0.21883 7.925-0.61421 11.5-0.87861s8.3853-0.76775 10.69-1.1186c2.3043-0.3508 5.3034-0.35828 6.6646-0.0166l2.475 0.6212-0.31684 20.752c-0.17426 11.414-0.58083 22.777-0.90349 25.252-2.0787 15.945-3.4506 32.031-2.9986 35.161 0.44979 3.1144 0.2072 3.7626-1.6259 4.3444-1.5188 0.48205-2.8624 0.0189-4.5534-1.5697-2.3979-2.2527-2.4003-2.2529-6.5514-0.381-4.8529 2.1884-8.5272 4.9188-9.7876 7.2733-0.80915 1.5116-0.063 1.6483 7.7563 1.4214 4.7584-0.13807 12.477-0.71763 17.152-1.2879 4.675-0.57028 11.389-1.2145 14.92-1.4316l6.4202-0.39473 2.269-10.817c1.2479-5.9496 3.2021-15.092 4.3426-20.317 2.6296-12.047 3.9231-48.06 2.1707-60.435-0.62817-4.4358-1.7756-14.001-2.5497-21.257-0.77418-7.2552-2.0106-14.455-2.7476-16-1.7209-3.6068-5.0669-4.0215-14.508-1.7981-4.6128 1.0863-9.0856 1.4854-12.5 1.1154-13.174-1.4276-22.115-1.8191-27.157-1.1891-5.3111 0.66358-5.4655 0.77222-5.8566 4.1224l-0.4017 3.4408 6.0492 0.0153c7.3339 0.0186 8.5247 0.66205 7.8412 4.2372-0.39784 2.0812-1.1032 2.7475-2.9086 2.7475-1.3109 0-2.3834 0.36515-2.3834 0.81144s-0.85216 1.7261-1.8937 2.8441c-2.708 2.9067-5.1063 7.8638-5.1063 10.554 0 2.796-2.9834 4.8688-5.9071 4.1042-1.7722-0.46345-2.0454-1.0935-1.5981-3.6865 0.44663-2.5895-0.0821-3.8156-3.0735-7.1275-1.9871-2.2-4.9198-5.4505-6.5171-7.2234-3.3279-3.6936-3.6506-5.2117-1.1542-5.429 0.9625-0.0838 2.2-0.25687 2.75-0.38465 0.55-0.12779 2.7505-0.28425 4.8899-0.34769l3.8899-0.11535-0.55508-5.3781c-0.51226-4.9633-0.37012-5.4624 1.8428-6.4707 4.3354-1.9753 23.167-2.436 31.432-0.7689 7.1001 1.4321 8.0732 1.3964 18.25-0.6681 7.434-1.5081 10.75-2.6075 10.75-3.564 0-2.9064-13.41-27.011-19.276-34.65-6.8081-8.8652-14.54-16.795-19.785-20.292-1.891-1.2606-7.4881-5.2421-12.438-8.8477-10.955-7.9798-16.408-10.796-35.47-18.316-12.458-4.9149-16.721-6.0963-27.129-7.5172-6.7918-0.92723-12.621-1.8542-12.954-2.06-4.2699-2.6389-55.665-3.6962-71.864-1.4784-9.7861 1.3399-44.079 12.717-51.462 17.072l-3.4249 2.0207 1.3157 5.7092c1.5554 6.749 1.739 47.765 0.26285 58.709-0.51927 3.85-0.83683 15.55-0.70568 26 0.69883 55.68 0.40711 82.588-0.90417 83.398-0.9124 0.5639-1.2406 2.8221-1.0748 7.3951 0.20923 5.7715-0.0591 6.8971-2.1758 9.1279-2.873 3.0278-3.1749 3.0506-12.043 0.91021-5.877-1.4185-7.8916-1.4889-13.427-0.46902-9.1981 1.6948-9.5651 1.3328-10.065-9.9264-0.44318-9.99-1.5595-12.73-3.8968-9.5644-1.7738 2.4024-5.6475 1.554-7.7825-1.7044-1.432-2.1856-1.3846-2.5313 0.6541-4.7617 2.5192-2.7562 6.6446-9.5623 6.6446-10.962 0-1.0646-6.6224-1.2312-12.211-0.30727l-3.7113 0.61356 8e-3 18.125c9e-3 20.442-0.59538 35.117-1.5741 38.214-0.62321 1.9717-0.36254 2.0647 4.6643 1.6642 4.859-0.38714 5.858-0.0772 11.429 3.5459 4.6165 3.0022 6.6612 5.1195 8.3871 8.6846l2.2823 4.7145 9.6129-0.68301c5.2872-0.37565 13.888-0.86811 19.113-1.0944zm281.79-1.3139c2.0406-1.0415 4.4805-2.7454 5.422-3.7866 2.6448-2.9246 4.7881-8.8436 4.7881-13.223 0-8.085-3.3375-11.855-9.3086-10.514-1.7552 0.39414-2.6288 0.9116-1.9414 1.1499 2.4719 0.85684 1.0902 3.8268-3.2738 7.0368-7.7442 5.6965-8.836 10.116-4.3693 17.687 2.395 4.0592 3.5368 4.2761 8.6829 1.6497zm-178.13-3.3564c-0.27741-0.6875-0.50439-0.125-0.50439 1.25s0.22698 1.9375 0.50439 1.25 0.27741-1.8125 0-2.5zm-133.66-100.75c1.7681-2.483 1.866-3 0.56809-3-0.86245 0-1.5681 0.675-1.5681 1.5s-0.675 1.5-1.5 1.5c-1.5616 0-1.984 1.1827-0.83333 2.3333 0.96775 0.96775 0.99766 0.94681 3.3333-2.3333zm-70.084-10.42c7.6915-7.3689 5.2321-21.539-3.7828-21.796-5.0403-0.14331-9.7272 7.0562-11.12 17.081-1.0328 7.4333-0.14687 8.4756 6.7196 7.9062 4.0645-0.33706 5.9856-1.0864 8.1833-3.1919zm302-9.8304c0.76636-1.2375 2.0514-3.2625 2.8556-4.5 1.305-2.0081 1.2886-2.25-0.15284-2.25-0.91324 0-1.615 0.81586-1.615 1.8776 0 2.913-2.4562 4.4838-4.9361 3.1566-1.1352-0.60752-2.0639-1.7637-2.0639-2.5694s-0.70041-1.4648-1.5565-1.4648c-1.1156 0-0.61999 1.1278 1.75 3.982 1.8186 2.1901 3.5357 3.9901 3.8159 4 0.2802 0.01 1.1365-0.99447 1.9028-2.232zm91.338-7.5732c2.2301-2.0688 2.75-3.4188 2.75-7.1414 0-2.5247-0.65911-5.5314-1.4647-6.6816-0.80559-1.1501-1.2297-2.3262-0.94243-2.6134 0.83381-0.83381-4.8666-4.4984-7.6016-4.8867-2.0205-0.28689-2.5546 0.11873-2.8263 2.1463-0.18427 1.375-1.3528 3.625-2.5966 5-6.1622 6.8117-7.2713 12.072-3.3183 15.738 4.1737 3.8707 10.846 3.2196 16-1.5612zm-297.98-99.163c2.7058-0.0209 8.5622-6.6682 9.7451-11.061 0.833-3.0935 0.74288-4.5243-0.42754-6.7876-1.6952-3.2781-5.6304-6.1649-8.404-6.1649-4.3939 0-10.181 8.5615-10.181 15.062 0 2.2847-0.53812 3.2665-2 3.6488-5.2348 1.3689 1.9976 6.9042 7.5 5.7402 1.1-0.23271 2.7954-0.42926 3.7677-0.43677zm202.73-3.0962c6.7379-1.5477 13.22-8.6212 16.55-18.06 2.5295-7.1693-1.8243-11.78-8.8442-9.3672-5.4588 1.8766-8.4661 4.1404-10.321 7.7692-0.91096 1.7823-2.24 3.5834-2.9533 4.0025-2.1715 1.2756-4.5937 11.183-3.4619 14.16 1.0796 2.8395 2.3004 3.0418 9.0299 1.496zm21.174 374.77c-3.5066-3.7326-2.9366-8.836 1.5402-13.791l3.7146-4.1116-2.1323-3.8927c-3.109-5.6759-2.7945-16.261 0.56392-18.979 3.2328-2.6165 5.6118-2.3967 8.0845 0.74688 2.4106 3.0646 5.4828 12.784 4.6921 14.845-0.34506 0.8992-0.0371 1.2044 0.86562 0.85797 0.77065-0.29573 1.8894-0.23592 2.4862 0.1329 0.64514 0.39872-0.65091 2.0443-3.1968 4.059l-4.2819 3.3884 0.3351 6.5162c0.31471 6.1196 0.15169 6.6996-2.6784 9.5297-3.612 3.612-7.0316 3.8512-9.993 0.699zm6.6257-3.8856c1.4157-1.4157 1.6111-7.4279 0.26842-8.2577-1.3996-0.86498-4.0684 3.5172-4.0684 6.6802 0 2.9303 1.7293 3.6482 3.8 1.5775zm3.688-26.716c-0.36565-1.9491-1.282-4.678-2.0364-6.0641-1.2994-2.3876-1.3737-2.2219-1.4116 3.1479-0.0513 7.263 0.6616 9.3243 2.6532 7.6714 1.0428-0.86541 1.2698-2.2235 0.79482-4.7552zm990.51-3.0845c0-0.55 0.4766-1 1.059-1 0.5825 0 0.7809 0.45 0.441 1s-0.8165 1-1.059 1c-0.2426 0-0.441-0.45-0.441-1zm-1381.8-70.58l-2.6569-2.3243 6.1579-5.5642c8.968-8.1032 10.479-13.762 3.4223-12.815-2.4155 0.32399-4.0961 0.0673-4.5689-0.69774-1.217-1.9691 1.9596-4.2044 6.7407-4.7433 3.7422-0.42181 4.8026-0.13279 6.6031 1.7998 3.8211 4.1015 2.2089 11.278-3.5195 15.667-1.5596 1.1949-3.7356 2.8524-4.8356 3.6834l-2 1.5107 2-3e-3c1.1-2e-3 4.7078-0.5849 8.0175-1.2957 6.1014-1.3107 8.4825-1.1928 8.4825 0.41997 0 1.6589-6.1156 4.0656-13.668 5.379-7.3459 1.2774-7.5784 1.2542-10.175-1.017zm482.58-55.67c-0.26052-0.6875-0.34227-2.4603-0.18165-3.9395 0.16061-1.4792-0.34937-3.2218-1.1333-3.8724-2.1342-1.7712-1.7957-4.938 0.52788-4.938 1.3613 0 2.5735-1.4022 4-4.6271 2.5378-5.7372 2.5571-5.5391-0.4662-4.7803-2.9481 0.73993-5.487-0.99853-5.487-3.7571 0-1.7509 0.67194-1.894 7.6449-1.6276 9.6596 0.36903 11.023 1.8001 7.5253 7.9012-1.2814 2.2355-2.1692 4.2251-1.9729 4.4214 0.19632 0.19633 2.3326-0.087 4.7474-0.62952 9.8886-2.2218 8.7131 1.5881-1.615 5.2342-6.6568 2.35-7.5254 3.2518-8.7795 9.1147-0.61554 2.8775-3.8997 3.9017-4.8099 1.5zm924.76-34.75c-0.3399-0.55 0.083-1 0.941-1 0.8574 0 1.559 0.45 1.559 1s-0.4234 1-0.941 1c-0.5175 0-1.2191-0.45-1.559-1zm-1402.5-67.436c0-0.76235 1.2375-2.4653 2.75-3.7842 1.5125-1.319 3.3318-3.4087 4.0428-4.6439 1.1403-1.9808 1.0223-2.4729-1-4.1704-1.961-1.6461-2.0758-2.0701-0.79283-2.9297 0.825-0.55275 2.3937-1.0119 3.4859-1.0203 1.6227-0.0125 1.3973-0.42678-1.2327-2.2653-3.7904-2.6497-3.8912-3.112-1.2532-5.75 2.5144-2.5144 9.5281-2.6929 13.027-0.33159 1.3599 0.91762 2.5484 1.706 2.6412 1.752 0.0928 0.046 0.4723 1.2932 0.84334 2.7716 0.54989 2.1909 0.0564 3.3214-2.6687 6.1136-1.8388 1.8841-4.0702 4.767-4.9587 6.4064-2.0798 3.8378-7.4931 7.8525-11.635 8.6288-2.3965 0.44917-3.25 0.24513-3.25-0.77697zm15.554-19.651c1.0479-1.6955-1.1186-3.1858-3.5222-2.4229-2.0688 0.65661-2.0851 0.75273-0.35067 2.0675 2.2283 1.6892 3.0045 1.7604 3.8729 0.35538zm1378.9 20.087c-0.3399-0.55-0.1415-1 0.441-1 0.5824 0 1.059 0.45 1.059 1s-0.1984 1-0.441 1c-0.2425 0-0.7191-0.45-1.059-1zm-908.77-26.092c-2.2371-1.3024-1.3186-2.9081 1.6634-2.9081 2.7848 0 3.6384 0.75636 2.9318 2.5978-0.63094 1.6442-2.1301 1.7454-4.5951 0.31036zm-6.0554-13.884c-4.7039-5.5903-4.2734-11.539 1.7579-24.288 2.7607-5.8356 4.9162-7.5226 7.1952-5.6312 1.9082 1.5837 1.7143 3.8962-0.5309 6.3304-1.0473 1.1354-2.5631 3.6653-3.3686 5.622l-1.4644 3.5575 2.6186-0.38125c1.4402-0.20969 3.856 0.0908 5.3686 0.66773 2.2946 0.87528 2.75 1.6436 2.75 4.6395 0 3.9612-1.1966 6.8025-4.2993 10.209-2.9262 3.2127-6.9586 2.9207-10.027-0.72605zm7.7646-5.535c2.1067-4.4395 1.4031-5.6782-2.4603-4.3314-2.9539 1.0297-3.6613 2.8979-2.3709 6.2607 1.0043 2.6172 3.0641 1.7947 4.8312-1.9293zm467.62-6.1461c-1.3662-1.7368-1.8679-3.382-1.4484-4.75 0.8298-2.7061 0.6642-2.5963 2.9954-1.9867 2.3209 0.60693 5.9481 6.6946 4.9505 8.3087-1.1884 1.9228-4.3502 1.1579-6.4975-1.572zm-108.29-11.593c0.2727-3.9875 0.6095-7.3844 0.7485-7.5487 0.1391-0.16427 1.4191-6e-3 2.8446 0.35183 2.012 0.50497 2.7382 1.4667 3.2462 4.2987 0.36 2.0065 1.0086 4.3116 1.4415 5.1224 1.4504 2.717-0.8213 5.0258-4.9451 5.0258h-3.8313zm125.74-28.905c-4.1196-2.2533-5.5085-5.7024-3.5457-8.8055 0.7904-1.2497 1.2208-1.1913 2.9847 0.40499 1.1335 1.0259 2.061 2.4546 2.061 3.175 0 0.72041 0.9 1.7915 2 2.3802s2 1.7295 2 2.5352c0 1.7159-2.656 1.8656-5.5 0.31009zm-115.5-4.6748c0-2.3284 5.1925-18.17 5.9557-18.17 0.3641 0 1.4771 0.59594 2.4732 1.3243 1.6601 1.2139 1.711 1.918 0.6101 8.4448-1.2843 7.6142-1.996 8.6844-6.289 9.458-2.0317 0.3661-2.75 0.0901-2.75-1.0567zm124.34-24.113c-3.7393-2.274-4.3316-3.6773-3.0843-7.3076 1.2303-3.5807 2.158-3.4692 4.1629 0.5 0.9029 1.7875 2.1815 4.0251 2.8415 4.9725 2.0289 2.9126-0.3314 4.0175-3.9201 1.8351zm-859.94-8.6119c-0.3526-1.4048-0.41687-3.9924-0.14282-5.75 0.45635-2.9269 0.15597-3.364-3.5706-5.1957-6.2924-3.093-6.7803-4.761-2.6593-9.0916 7.1971-7.5632 12.913-11.408 16.958-11.408 2.3087 0 4.011 0.54156 4.3321 1.3781 0.62012 1.616-1.1088 3.6219-3.1219 3.6219-0.80774 0-1.1738 0.60769-0.85947 1.4268 0.30114 0.78474-0.30443 3.7576-1.3457 6.6064l-1.8932 5.1796 4.4527-0.66772c4.2851-0.64259 4.4527-0.57131 4.4527 1.8936 0 2.6235-1.4276 3.1431-7.7211 2.8101-1.7469-0.0924-2.4396 0.66917-3.2444 3.5668-0.56281 2.0264-1.0258 4.6968-1.0289 5.9343-8e-3 3.2923-3.7682 3.0441-4.6086-0.30429zm1.9727-16.696c1.0365-3.8677 0.70804-4.1717-1.8804-1.74-1.8666 1.7536-2.1873 2.564-1.25 3.159 1.9574 1.2426 2.4807 1.0054 3.1304-1.4191zm749.63 14.864c0-0.21213 0.6722-1.6746 1.4939-3.25 0.8216-1.5754 1.5035-3.7643 1.5153-4.8643 0.034-3.1334 1.5083-4.7049 4.0703-4.3375 1.8129 0.25998 2.5659 1.2399 3.2788 4.2671 0.8456 3.5909 0.6928 4.1297-1.7722 6.25-2.2198 1.9094-8.5861 3.3439-8.5861 1.9347zm116.92-12.204-2.4243-2.5901 2.7348-2.1599c1.5041-1.1879 4.4291-3.5954 6.5-5.35l3.7652-3.1901 0.7267 2.6762c0.5367 1.9768 0.1264 3.5945-1.5701 6.1901-1.2631 1.9327-2.5885 4.3014-2.9452 5.2639-0.937 2.528-3.9881 2.1503-6.7871-0.84011zm-615.82-11.855c-3.6891-1.3592-3.2711-2.0941 1.3551-2.3825 1.6257-0.10132 3.2684-0.5191 3.6503-0.92839 1.0014-1.073-1.3556-12.654-2.9688-14.587-1.1599-1.3901-1.1331-1.7211 0.18012-2.225 0.84851-0.32561 2.0008-1.9059 2.5606-3.5118 1.1243-3.2251 4.7425-4.0721 5.7854-1.3544 0.49796 1.2977 1.69 1.4488 6.9686 0.8835 9.0831-0.97272 8.6316 1.4881-0.92927 5.0644-6.0567 2.2655-7.1433 4.1825-5.8374 10.298 1.8476 8.6525-2.1654 11.912-10.765 8.7438zm643.65-5.6351c-2.7595-1.6072-2.0855-3.5111 2.603-7.353 4.9966-4.0943 6.2582-4.3674 7.1529-1.5484 0.4357 1.3728-0.1825 2.9968-1.9326 5.0767-1.4153 1.682-2.5733 3.4736-2.5733 3.9814 0 1.2178-3.0462 1.1268-5.25-0.15683zm-122.17-8.7862c-0.2945-0.4765 0.4-1.7129 1.5434-2.7476 2.9179-2.6406 4.874-6.7654 4.874-10.277 0-3.526 0.7472-4.1587 3.625-3.0697 2.5015 0.94658 3.5886 6.0498 2.1612 10.145-1.3802 3.9592-10.643 8.4754-12.204 5.9501zm17.878-36.197c-0.3614-0.58466-0.03-1.8222 0.7371-2.75 0.7668-0.92785 2.4379-5.9836 3.7137-11.235s2.9425-10.4 3.7039-11.441c1.356-1.8544 1.4142-1.8535 2.856 0.0481 0.8096 1.0676 1.197 2.6161 0.8611 3.4411-0.336 0.825-0.8299 5.4702-1.0977 10.323-0.4436 8.0396-0.6889 8.8994-2.7638 9.6883-1.2524 0.47616-2.5724 1.3435-2.9333 1.9274-0.8489 1.3735-4.2279 1.3727-5.077-1e-3zm-278.77-3.6589c-3.1721-0.4769-6.6817-5.2959-6.6877-9.1829 0-3.4623 6.7199-9.4779 12.362-11.058 4.5594-1.2766 4.6335-1.3637 4.6073-5.4175l-0.027-4.12-1.6907 2.7264c-0.9299 1.4995-2.1554 2.9029-2.7234 3.1186-2.0516 0.77916-5.5608-1.3428-7.5034-4.5373-1.7273-2.8403-2.4451-3.2217-5.5582-2.9535-2.2083 0.19026-4.606-0.37554-6.2729-1.4802-1.8918-1.2538-4.4037-1.7449-8.405-1.6432-5.4429 0.13831-5.8013-8e-3 -7.75-3.1609-3.5553-5.7526-2.3961-11.302 2.9368-14.06 5.461-2.824 13.02-0.89238 13.02 3.3271 0 0.99733 1.2646 2.2014 3.0001 2.8565 1.6501 0.62283 3.3543 2.0899 3.7873 3.2602 0.7835 2.1182 0.7978 2.1163 3.1742-0.41317 2.4017-2.5565 7.0384-3.4983 7.0384-1.4297 0 0.71687 1.1778 0.89033 3.3185 0.48874 4.6229-0.86726 9.5952 1.0829 10.894 4.2727 0.5885 1.445 1.3439 5.7773 1.6786 9.6273l0.6086 7 4.75 0.30479c2.6125 0.16764 4.75 0.7143 4.75 1.2148 0 1.4191-3.567 2.9804-6.8092 2.9804-2.4491 0-3.0383 0.48784-3.5243 2.9176-0.8966 4.483-6.5397 12.966-9.7194 14.61-2.8357 1.4664-3.9138 1.5538-9.2556 0.75071zm5.5014-10.028c0.8266-0.9625 1.8434-2.3457 2.2597-3.0738 1.2086-2.1144-2.9081 0.72226-4.313 2.9719-1.4669 2.3488 0.059 2.4246 2.0533 0.10193zm-473.42 0.78389c-1.3747-1.0814-3.0881-3.4438-3.8074-5.25-0.71937-1.8061-1.4116-3.4277-1.5383-3.6035s-2.5238 0.66705-5.3269 1.8729c-4.1355 1.779-5.3795 1.9576-6.5971 0.94712-2.4747-2.0538-1.7354-3.8761 2.8971-7.1414l4.3977-3.0998-3.3977-2.9832c-5.5453-4.8688-4.6783-6.1221 3.8523-5.5688 3.9875 0.25865 8.7125 1.2294 10.5 2.1572l3.25 1.6869v-2.9439c0-1.6191 0.29271-3.7067 0.65047-4.639 0.56756-1.479 0.14734-1.6101-3.2966-1.0283-6.0159 1.0164-6.9957-0.74272-7.6195-13.68l-0.51789-10.74 7.1826-3.9649c7.589-4.1892 13.372-5.3204 16.01-3.1315 2.1173 1.7572 2.0262 4.8258-0.15868 5.3451-1.4016 0.33313-1.2226 0.63378 0.89909 1.5102 2.855 1.1793 5.8509 4.7984 5.8509 7.068 0 2.353-5.2385 13.556-7.0851 15.153-1.061 0.9172-1.8687 3.3291-2.0788 6.2076l-0.34369 4.7076 3.0514-2.9576c2.9705-2.8791 5.6486-3.5885 8.8744-2.3506 2.76 1.0591 1.7183 4.4221-2.624 8.4712l-4.2058 3.9218 4.4558 0.19218c2.4507 0.1057 6.8873 0.2182 9.8592 0.25 3.0556 0.0327 5.5721 0.54654 5.7916 1.1826 0.63066 1.8276-7.2427 4.3626-14.14 4.5526-5.5347 0.15249-6.8721-0.18198-9.8698-2.4684l-3.4676-2.6448-0.6532 4.718c-1.0733 7.752-2.4128 10.218-5.5507 10.218-1.5091 0-3.8686-0.88475-5.2433-1.9661zm2.2298-10.748c0-3.4024-0.13413-3.5802-1.5976-2.1167-1.2728 1.2728-1.3673 2.028-0.46482 3.7143 1.606 3.0009 2.0624 2.6474 2.0624-1.5976zm9-28.286c0-0.55-0.9-1-2-1s-2 0.45-2 1 0.9 1 2 1 2-0.45 2-1zm1.4172-9.0601c1.6231-1.5472-2.3186-2.2234-5.4352-0.93241-4.5576 1.8878-3.9565 4.0944 0.76796 2.819 2.0625-0.55678 4.1628-1.4058 4.6672-1.8866zm-64.237 46.013c-1.8406-1.7147-2.1869-3.154-2.2243-9.2421l-0.0443-7.211-2.204 3.6983c-2.6053 4.3717-4.938 5.2454-7.8055 2.9234l-2.0907-1.6929 4.2072-8.7306c2.3139-4.8018 5.2814-9.5755 6.5944-10.608 1.4253-1.1211 2.3872-2.9279 2.3872-4.4838 0-2.1256-0.46934-2.6061-2.5454-2.6061-2.8064 0-7.4546-4.0246-7.4546-6.4545 0-1.9053 2.2772-1.9418 7.5-0.12021 4.1313 1.4409 6.5 0.72511 6.5-1.9644 0-0.71182 0.5175-1.4667 1.15-1.6776 0.6325-0.21083-0.50477-0.38333-2.5273-0.38333-4.542 0-10.217-4.7711-7.6227-6.408 0.825-0.52047 2.175-0.75548 3-0.52224s5.325 0.9549 10 1.6037c4.675 0.64879 9.068 1.6324 9.7623 2.1858 2.0557 1.6385-0.52094 3.7408-4.5848 3.7408-2.7826 0-3.3109 0.26667-2.3776 1.2 0.66 0.66 1.2 2.01 1.2 3s0.6199 1.8 1.3776 1.8c0.75765 0 1.9424 0.68055 2.6327 1.5123 0.76918 0.9268 1.6877 1.1741 2.3724 0.63876 1.5841-1.2385 7.6999-2.0491 10.877-1.4417 3.782 0.72298 7.74 4.6934 7.74 7.7643 0 4.4038-4.7387 10.379-9.1798 11.575-7.2928 1.9638-9.4796 0.0461-10.386-9.1075-0.35066-3.5425-0.70437-6.5001-0.78602-6.5724-0.0817-0.0723-1.5998 0.0896-3.3738 0.35987-2.727 0.41543-3.3228 1.011-3.8562 3.8545-0.88207 4.7018 1.2736 12.779 4.1255 15.458 1.3169 1.2372 2.1567 2.634 1.8662 3.1041-0.73174 1.184-5.1558 1.0752-5.9102-0.14536-1.6124-2.6089-2.5-0.35615-2.5 6.345 0 5.8328-0.37469 7.6841-1.82 8.9921-1.6967 1.5355-1.9676 1.5095-4-0.38397zm-136.22-1.4968c-1.6586-1.9985-1.8243-13.429-0.24065-16.603 1.5325-3.072 4.2333-15.058 4.2595-18.903 0.0246-3.6077 1.7949-4.95 6.5288-4.95 4.6504 0 8.8931 3.0576 8.0876 5.8285-0.26722 0.91931-1.2362 4.3715-2.1532 7.6715s-2.0675 6.4275-2.5566 6.95c-0.48911 0.5225-0.88929 1.7049-0.88929 2.6276 0 0.92265-0.60164 2.1769-1.337 2.7871-0.73533 0.61027-2.5567 4.2185-4.0475 8.0182-2.7691 7.0579-5.3848 9.305-7.6518 6.5734zm24.359-0.15256c-4.1489-0.80763-5.6141-5.3038-1.7284-5.3038 1.1508 0 1.2475-0.42735 0.43836-1.9392-2.1795-4.0724-0.88103-26.07 1.6906-28.641 2.234-2.234 7.0001-1.7715 8.715 0.84574 1.3152 2.0072 1.3069 3.0613-0.0729 9.25-2.1374 9.5866-2.8568 17.485-1.5928 17.485 2.751 0 11.227-13.335 11.227-17.662 0-3.4655-6.0907-10.812-10.827-13.06-3.171-1.5047-5.0106-3.7738-3.9331-4.8512 1.431-1.431 7.0437-1.0353 10.654 0.75106 5.4292 2.6862 9.4553 7.4681 11.989 14.24l2.0882 5.5812-2.018 5.2507c-2.6577 6.9152-11.427 15.146-18.385 17.255-2.7123 0.82244-5.1873 1.4341-5.5 1.3592-0.31268-0.0749-1.5483-0.32692-2.7459-0.56004zm683.53 0.0259c-0.9081-0.24106-2.2221-1.8167-2.9199-3.5015-1.1656-2.8138-1.0719-3.2167 1.1511-4.9487 2.9464-2.2956 6.4035-3.3168 7.9639-2.3524 1.4145 0.87418 0.5429 5.9284-1.5815 9.1706-1.5342 2.3415-1.7084 2.4031-4.6136 1.632zm-648.37-2.7201c-4.0371-6.1614-4.7766-12.569-2.9774-25.799 0.35577-2.6161-0.0943-4.6994-1.5473-7.162-1.1269-1.91-1.6904-3.6741-1.2521-3.9202 0.80978-0.45473 7.5602-0.83548 19.297-1.0884 5.88-0.12672 6.5 0.0507 6.5 1.8599 0 1.5117-1.1738 2.3714-4.8079 3.5215-4.1528 1.3141-5.0726 2.1125-6.75 5.8592-2.1766 4.8617-2.2496 5.1679-1.1921 5.0009 3.6701-0.57949 6.4106 0.37688 7.4185 2.5888 1.3876 3.0455-0.41889 5.7586-3.5825 5.3804-3.2961-0.39404-6.586 1.9212-6.586 4.6347 0 3.6531 2.5713 4.534 8.2828 2.8379 5.5826-1.6578 7.7172-1.2368 7.7172 1.5221 0 2.2839-8.2646 6.1863-14.649 6.917-3.6386 0.41646-4.361 0.15153-5.871-2.1529zm32.836-5.8596c-6.1331-6.4796-6.7356-10.509-2.7633-18.48 1.8552-3.7228 3.64-5.6896 6.5308-7.1964 7.8661-4.1 15.371-1.4145 14.723 5.2682-0.2927 3.0158-0.52428 3.1723-5.1317 3.4662-4.4708 0.28525-4.934 0.56826-6.3065 3.8531-0.8147 1.9498-1.3434 4.7363-1.1748 6.1921 0.33234 2.8703 0.66575 2.9316 8.9053 1.6384 3.9252-0.61609 4.7013-0.45464 5.2988 1.1023 1.2953 3.3754-5.653 7.4063-12.767 7.4063-3.4845 0-4.7861-0.57831-7.3149-3.25zm183.54-0.5847-3.302-2.9504 1.1835-6.3575c0.6509-3.4966 2.0875-9.5075 3.1924-13.357s2.022-8.2097 2.0381-9.6883c0.0251-2.3175-0.35-2.6623-2.7199-2.5-2.1591 0.14786-2.8177-0.29422-3.0693-2.0601-0.2373-1.6654 0.36755-2.5099 2.3329-3.2572 1.4593-0.55482 3.0698-0.75131 3.579-0.43663 0.50916 0.31468 2.1071-0.35711 3.5509-1.4928 3.2602-2.5645 4.9815-2.5789 11.515-0.0965 6.1175 2.3245 11.841 7.493 11.841 10.693 0 2.8539-5.2338 8.8978-9.6808 11.179l-3.3801 1.7341 6.0227 4.9627c9.2181 7.5956 5.9271 9.6028-4.844 2.9545-7.1634-4.4215-8.8863-4.4654-9.4975-0.24186-2.1734 15.018-3.0071 16.057-8.7613 10.915zm20.141-33.692c0-1.7715-3.3189-4.4734-5.4949-4.4734-0.22044 0-0.38764 2.7491-0.37157 6.1091l0.0292 6.1091 2.9186-2.7962c1.6053-1.5379 2.9186-3.7648 2.9186-4.9486zm-49.535 33.571c-4.3338-1.749-4.6967-3.2541-4.3048-17.852 0.36291-13.518 0.43973-13.929 3.2266-17.27 4.4608-5.3475 6.798-6.2333 13.032-4.939 7.1508 1.4845 10.078 4.565 9.2405 9.7249-0.6466 3.9845-5.3144 9.2867-11.472 13.032l-3.1649 1.9247 6.1591 6.1974c4.1368 4.1626 5.8283 6.5282 5.1515 7.2049-1.2789 1.2789-5.6538-0.31113-10.021-3.6422l-3.1966-2.4382-0.30783 4.1791c-0.32913 4.4682-1.1241 5.1784-4.3426 3.8794zm11.101-29.172c1.9371-3.7459 1.8046-5.8725-0.36594-5.8725-2.9064 0-4.2 2.1014-4.2 6.8224 0 3.9004 0.18484 4.269 1.5659 3.1228 0.86126-0.71479 2.2113-2.5475 3-4.0728zm88.196 24.068c-4.5164-2.6662-5.6751-11.811-3.2449-25.608 0.95252-5.4078 2.0841-10.218 2.5146-10.69 0.43052-0.47154 2.287-1.213 4.1254-1.6476 3.141-0.74262 3.1768-0.79646 0.59265-0.89265-3.1036-0.11552-3.0873-0.0851-1.8245-3.4064 1.2028-3.1637 4.8738-3.8288 11.084-2.0084 5.5217 1.6186 10.99 6.9425 10.99 10.699 0 3.5661-4.0322 8.7778-9.5266 12.313-10.084 6.4891-9.8841 6.199-9.9311 14.399-0.0446 7.7745-0.96543 9.0923-4.78 6.8404zm13.804-32.068c2.0483-3.961 1.7842-5.7559-1.0363-7.041-1.8956-0.86368-2.8315-0.82585-4.0225 0.16258-1.4018 1.1634-1.3983 1.5229 0.0357 3.7115 1.0949 1.671 1.3719 3.4062 0.89247 5.5892-0.63584 2.8949-0.55019 3.0454 1.0006 1.7584 0.9328-0.77415 2.3413-2.6555 3.1301-4.1807zm255.49 31.183c-4.2918-4.2918-3.6803-15.079 1.804-31.823 2.5243-7.7069 3.1595-8.7688 5.4077-9.0402 2.8413-0.34296 6.7325 3.0621 6.7325 5.8914 0 0.9387-1.3075 4.7914-2.9057 8.5614-1.5981 3.7701-3.8996 10.142-5.1144 14.161-2.0081 6.6425-2.0635 7.4145-0.6099 8.5 2.1279 1.589 1.0562 5.6939-1.4866 5.6939-1.0359 0-2.7583-0.8749-3.8276-1.9442zm-301.44-1.5206c-2.0791-3.173-2.0346-4.0443 0.37339-7.3257 1.0936-1.4902 2.4478-5.1555 3.0093-8.1451 0.9752-5.1922 0.90065-5.5611-1.6655-8.2396-3.1385-3.2758-2.8514-3.8114 2.4225-4.5188 4.6497-0.62365 9.7786 1.648 10.769 4.7699 0.91524 2.8837-0.28352 8.7593-2.5974 12.731-2.2386 3.8426-2.6364 7.0219-0.67667 5.4089 0.6875-0.56587 3.4263-1.3529 6.0861-1.7489 4.623-0.68832 4.8213-0.62072 4.5 1.534-0.49713 3.3338-9.7466 7.9988-15.859 7.9988-3.9415 0-5.0206-0.41808-6.3616-2.4648zm94.885 1.2492c-7.705-4.4489-10.399-13.855-6.9054-24.108 2.5276-7.4182 9.8477-11.455 12.337-6.804 1.0611 1.9827 0.0138 7.2837-1.893 9.5812-1.8043 2.1741-2.9491 10.649-1.7838 13.206 0.87048 1.9105 1.3226 2.1059 2.5382 1.0971 4.1695-3.4604 9.9769-17.756 8.7646-21.575-0.97606-3.0753 0.40372-5.1815 3.3944-5.1815 4.3106 0 6.048 2.7713 6.048 9.6472 0 9.0158-2.4525 16.111-7.2942 21.103-3.6739 3.7877-4.6163 4.2467-8.6641 4.2196-2.498-0.0167-5.4418-0.55008-6.5418-1.1852zm97.609-0.89779c-2.9711-2.768-2.5954-4.1994 5.4239-20.669 3.5571-7.3053 6.4674-13.649 6.4674-14.097 0-0.44805 0.7875-1.747 1.75-2.8865s2.6005-3.2334 3.6401-4.653c2.5436-3.4736 5.8333-3.2929 9.021 0.49553 2.7601 3.2802 2.8385 3.8668 2.7362 20.488-0.0555 9.0167-1.3017 16.987-3.2151 20.562-1.3285 2.4824-6.0377 2.4339-9.0714-0.0935-2.3347-1.945-2.3371-1.9671-0.21777-2 2.5326-0.0393 3.357-1.7865 3.357-7.115 0-3.491-0.267-3.9182-2.4491-3.9182-2.6242 0-5.1528 2.8649-9.9294 11.25-3.0166 5.2956-4.2094 5.7142-7.5129 2.6366zm-39.133-1.4517c-0.53639-1.4108-0.9686-4.4483-0.96047-6.75 0.0177-5.018 2.6116-16.53 4.1394-18.371 1.4651-1.7654 5.3521-1.6651 7.203 0.18577 2.0085 2.0085 2.3226 1.912 3.0368-0.93361 0.33594-1.3385 1.984-3.4114 3.6624-4.6066 2.6197-1.8654 4.096-2.1202 10.43-1.8004 7.4704 0.37724 10.019 1.292 7.6602 2.7497-1.0427 0.64444-0.97728 1.5595 0.3358 4.6956 1.3924 3.3256 1.4484 4.5532 0.38245 8.3952-1.6172 5.8291-4.3551 10.436-7.3804 12.418-5.903 3.8678-14.304-0.15433-16.017-7.668-0.76077-3.338-1.761-3.492-3.2485-0.5-1.555 3.1278-4.2193 11.517-4.2193 13.285 0 2.5447-3.9694 1.6757-5.0248-1.1zm23.513-10.422c3.3382-3.6886 5.2855-16.013 2.5302-16.013-1.5073 0-6.0182 4.1871-6.0182 5.5862 0 0.79254-0.51352 2.2633-1.1412 3.2683-1.4261 2.2836-0.27704 9.1456 1.5315 9.1456 0.71483 0 2.1088-0.89407 3.0978-1.9868zm73.588 10.843c-2.094-1.9508-2.2394-2.6945-1.6134-8.25 0.67551-5.9944 2.9388-16.882 4.184-20.127 0.34751-0.9056 1.5341-1.9803 2.6368-2.3882 1.1329-0.41909 2.7106-2.6519 3.6273-5.1336 1.285-3.4787 2.2801-4.5806 4.7857-5.2991 10.135-2.9067 20.452 6.929 14.521 13.843-0.9442 1.1005-3.5921 3.4715-5.8844 5.2688l-4.1677 3.2679 1.6677 3.971c0.9173 2.184 2.1821 3.9756 2.8107 3.9812 1.6542 0.0147 2.2224 2.1653 1.2578 4.7602-1.1058 2.9749-4.899 2.9453-7.7225-0.0602-1.1937-1.2706-2.9388-4.5331-3.878-7.25l-1.7076-4.9398-1.1777 5c-0.64772 2.75-1.6811 6.2668-2.2964 7.8151-0.61528 1.5483-1.1187 3.9108-1.1187 5.25 0 3.1072-2.756 3.2425-5.9243 0.2908zm18.782-31.765c2.6789-4.7827 2.4775-5.5488-1.1012-4.1882-1.7732 0.67416-3.0009 2.3668-4.1387 5.7061-2.0413 5.9908-2.0521 5.9195 0.6323 4.1632 1.2375-0.80969 3.3109-3.3662 4.6076-5.6811zm452.39 33.247c-0.7557-0.30493-1.25-2.3975-1.25-5.2917v-4.7873l7.123-4.1239c7.0221-4.0655 14.54-6.8049 15.645-5.7005 0.6985 0.69851 0.9734 0.51003-6.2676 4.2978-5.9124 3.0927-6.0094 3.2128-6.643 8.2219-0.3537 2.7958-1.1963 5.7499-1.8725 6.5647-1.2042 1.451-4.2503 1.8214-6.7345 0.81905zm-439.23-6.4525c-1.3618-0.54341-3.9065-2.5497-5.6549-4.4585-2.878-3.1421-3.0823-3.7759-2.1595-6.6986 2.6341-8.3423 5.2233-10.572 13.34-11.487 3.5386-0.39885 4.4269-0.11368 5.8137 1.8663 0.9004 1.2854 1.637 3.1593 1.637 4.1643 0 3.1508-2.882 7.5756-6.5639 10.077l-3.5421 2.407 2.4836 0.62335c1.366 0.34284 3.7131 0.15589 5.2159-0.41545 4.0673-1.5464 5.6992 0.53352 2.4065 3.0673-2.7293 2.1002-8.8437 2.5024-12.976 0.85344zm357.43-0.96141c-0.3658-0.59192 0.6596-2.7294 2.2787-4.75 4.0148-5.0104 5.2605-7.5432 6.1328-12.47 0.6516-3.6799 1.0434-4.1692 3.1462-3.9287 3.2663 0.37363 3.606 1.227 3.0068 7.5537-0.5047 5.3289-0.6683 5.5764-6.6546 10.067-6.6725 5.0056-6.9266 5.119-7.9099 3.5279zm118.22-1.9647c-2.2228-1.7484-2.4535-2.412-1.61-4.6306 2.2141-5.8235 7.6143-11.095 6.7457-6.5852-0.2171 1.1276 0.7272 2.2755 2.6737 3.25 3.5922 1.7984 4.2583 4.2239 2.0751 7.5558-2.0108 3.069-6.2791 3.246-9.8845 0.40995zm5.6276-3.4454c0.1085-0.54247-0.5903-1.138-1.5528-1.3233-1.0946-0.2108-1.75 0.27967-1.75 1.3096 0 1.7398 2.9553 1.752 3.3028 0.0137zm-706.95 0.93167c-4.6784-4.6784-3.469-5.4454 8.5865-5.4454 11.278 0 14.156 0.99379 10.538 3.639-1.0046 0.73457-3.4358 1.5716-5.4028 1.86-1.967 0.28844-5.3293 0.92413-7.4718 1.4126-3.4148 0.7786-4.1861 0.59768-6.25-1.4663zm1068.6-3.3864c0-0.51754 0.45-1.2191 1-1.559s1 0.0835 1 0.94098c0 0.85746-0.45 1.559-1 1.559s-1-0.42344-1-0.94098zm-437.58-6.37c-2.5182-2.1661-2.5974-2.4814-1.2631-5.028 1.5117-2.8852 10.289-9.6609 12.514-9.6609 2.1466 0 1.5236 1.6878-1.4125 3.8266-2.62 1.9086-2.6625 2.075-1 3.9122 1.9771 2.1847 2.2011 4.5246 0.7013 7.327-1.4323 2.6763-6.21 2.4876-9.54-0.37676zm438.08 0.31102c-0.3399-0.55-0.1415-1 0.441-1 0.5824 0 1.059 0.45 1.059 1 0 0.55-0.1984 1-0.441 1-0.2425 0-0.7191-0.45-1.059-1zm-399.84-4.4083c-3.2103-1.3415-6.8103-3.2463-8-4.2327-14.079-11.674-19.635-20.923-20.415-33.984-0.494-8.2703 0.8174-13.799 5.3536-22.571 2.6111-5.0494 9.4316-11.804 11.919-11.804 4.0068 0 3.7283 2.88-1.2469 12.893-4.6328 9.3238-4.7735 9.8723-4.7735 18.607 0 8.5512 0.2109 9.4312 4.2286 17.647 4.9777 10.178 13.769 19.114 20.081 20.411 6.2833 1.2911 17.333 0.47108 21.722-1.612 7.2556-3.4433 14.624-11.009 18.961-19.47 3.6014-7.025 3.9758-8.4526 3.8151-14.546-0.212-8.0338-4.7131-20.069-9.9382-26.573-4.2513-5.2916-11.143-9.3573-15.861-9.3573-4.9226 0-15.474 5.2481-20.786 10.339-4.9645 4.7574-11.042 13.813-12.1 18.03-0.6505 2.5917-1.0182 2.8024-3.8892 2.2282-4.6939-0.93878-5.107-1.8348-3.4507-7.485 2.9544-10.078 10.071-18.21 20.659-23.607 7.9491-4.0516 20.413-5.9422 26.12-3.9621 13.979 4.85 20.97 11.227 25.78 23.516 4.4364 11.334 5.2131 21.338 2.2363 28.805-4.4697 11.212-12.949 20.708-23.078 25.846-5.0627 2.568-6.5336 2.811-18.5 3.0553-11.858 0.24213-13.513 0.0512-18.837-2.1737zm75.708-1.8365c-3.3524-1.9763-10.608-8.8513-9.9917-9.4676 0.8515-0.8515 6.2604 1.6564 8.2037 3.8037 1.9318 2.1346 4.9274 2.5103 6.0128 0.75412 0.4374-0.70779 0.2748-0.88336-0.4203-0.45376-1.5355 0.949-4.8717-0.95608-6.2789-3.5855-0.9479-1.7712-0.8307-2.381 0.6682-3.4771 2.7811-2.0336 5.5447-1.5987 8.6308 1.3579 2.8099 2.6921 3.7254 7.3152 1.9897 10.048-1.1723 1.8456-6.3898 2.4496-8.8143 1.0203zm324.13-1.7552c-0.3399-0.55-0.1415-1 0.441-1 0.5824 0 1.059 0.45 1.059 1s-0.1984 1-0.441 1c-0.2425 0-0.7191-0.45-1.059-1zm0.2165-3.75c-0.2208-0.4125-0.067-1.875 0.3413-3.25 0.6943-2.3368 0.7493-2.2878 0.8425 0.75 0.096 3.1349-0.345 4.0667-1.1838 2.5zm-35.716-1.25c0-0.55 0.4766-1 1.059-1 0.5825 0 0.7809 0.45 0.441 1s-0.8165 1-1.059 1c-0.2426 0-0.441-0.45-0.441-1zm36.079-7.5833c0.048-1.165 0.285-1.4019 0.6042-0.60417 0.2889 0.72187 0.2534 1.5844-0.079 1.9167-0.3323 0.33229-0.5687-0.25834-0.5253-1.3125zm-1.0789-5.4167c0-1.1 0.45-2 1-2s1 0.9 1 2-0.45 2-1 2-1-0.9-1-2zm-442.69-20.01c-1.2054-0.48556-2.9309-2.0109-3.8343-3.3897-1.5303-2.3356-1.5227-2.7097 0.1111-5.4754 4.9544-8.3872 16.613-6.364 14.825 2.5728-1.2234 6.1168-5.5085 8.5455-11.102 6.2923zm5.3748-8.1779c-0.3192-0.79773-0.5562-0.56077-0.6042 0.60417-0.043 1.0542 0.193 1.6448 0.5253 1.3125s0.3678-1.1948 0.079-1.9167zm-1035.7 7.1875c0-0.55 0.47656-1 1.059-1 0.58245 0 0.7809 0.45 0.44098 1s-0.81648 1-1.059 1-0.44098-0.45-0.44098-1zm1146.8-14.313c-3.346-1.6884-4.3333-2.7477-4.3333-4.6492 0-1.9097 0.7145-2.6675 3.1826-3.3753 4.4789-1.2845 8.0337-0.11138 9.7564 3.2199 1.1634 2.2498 1.2201 3.1686 0.2681 4.3458-2.096 2.592-4.4094 2.7117-8.8738 0.45891zm289.77-17.853c0.2833-0.45833 0.9385-0.83333 1.456-0.83333 0.5176 0 0.941 0.375 0.941 0.83333 0 0.45833-0.6552 0.83333-1.456 0.83333s-1.2243-0.375-0.941-0.83333zm-375.05-8.0558c-2.0682-2.9528-1.9578-5.6074 0.3935-9.4637 5.1532-8.4513 14.667-5.831 12.134 3.342-2.0894 7.567-9.112 10.999-12.528 6.1217zm6.7293-6.7633c0.2901-1.1093 0.1738-1.7984-0.2586-1.5312-0.4323 0.26719-1.0233 1.3934-1.3134 2.5028s-0.1738 1.7984 0.2586 1.5312c0.4323-0.26719 1.0233-1.3934 1.3134-2.5028zm371.21 7.9858c0.3399-0.55 0.8165-1 1.059-1 0.2426 0 0.441 0.45 0.441 1s-0.4766 1-1.059 1c-0.5825 0-0.7809-0.45-0.441-1zm-324.82-1.6069c-5.7647-3.1249-8.8578-7.3931-5.3576-7.3931 0.7291 0 2.3826-1.125 3.6743-2.5 2.5738-2.7397 4.6285-3.082 8.3427-1.3897 4.0428 1.842 6.1569 8.9901 3.4573 11.69-1.6432 1.6432-6.7106 1.4394-10.117-0.4069zm4.8037-6.1761c-0.6341-1.5518-0.7744-1.5245-1.4578 0.28299-0.4486 1.1863-0.3032 2.2921 0.3573 2.718 1.4092 0.90862 2.0188-0.75373 1.1005-3.0009zm317.74 3.5955c0.2177-0.65312 0.9305-1.3657 1.584-1.5836 0.7307-0.24358 0.9542 0.21359 0.5805 1.1875-0.6975 1.8177-2.7645 2.1959-2.1645 0.39606z"/>
</svg>
