<?xml version="1.0" encoding="UTF-8"?>
<svg width="264" height="346" version="1.1" viewBox="0 0 264 346" xmlns="http://www.w3.org/2000/svg">
 <path d="m118.55 268.06c-1.9499-7.0832-2.3979-11.036-2.3519-20.75 0.0798-16.857 1.0996-21.072 8.7099-36 3.6452-7.15 7.5487-16.375 8.6746-20.5s3.2001-11.55 4.6095-16.5 3.0679-10.8 3.6858-13 1.675-4.5536 2.3492-5.2302c1.4716-1.4768 2.8378-8.766 1.921-10.249-0.35794-0.57916-1.1422-0.74934-1.7427-0.37818-0.77591 0.47953-0.90633-1.9395-0.45066-8.359 0.61487-8.6623 0.53924-9.1439-1.839-11.71-1.3641-1.4719-2.4802-3.328-2.4802-4.1247s-0.45-1.4485-1-1.4485-1 0.45-1 1-0.45857 1-1.019 1c-0.61073 0-0.7443-1.0947-0.33334-2.7321 1.2691-5.0564 0.68658-7.7418-2.8874-13.311-4.0706-6.3433-6.2146-8.4119-7.7408-7.4686-2.4703 1.5267-7.3473-0.95902-13.387-6.8234-7.5428-7.3233-11.632-13.055-11.632-16.304 0-2.5177 1.4492-3.1836 2.4167-1.1105 0.46666 1 0.7 1 1.1667 0 0.32084-0.6875 1.4193-1.25 2.441-1.25 1.0217 0 2.1315-0.44306 2.4662-0.98459 0.87707-1.4191-5.5926-5.156-8.1492-4.7069-1.4912 0.26195-1.9992-0.0364-1.643-0.96466 0.28363-0.73913 1.3765-1.3439 2.4286-1.3439 2.2582 0 8.5745 3.8477 11.278 6.8703 2.7914 3.1206 4.9718 2.8017 4.2406-0.6203-2.5915-12.128-3.2319-37.122-1.0908-42.574 0.82591-2.1034 4.7647-1.5836 7.6413 1.0084 2.008 1.8093 5.6256 11.768 6.8354 18.816 2.1922 12.772 2.2954 13.025 5.1717 12.687 1.8971-0.22296 2.9888 0.30253 3.8079 1.833 1.0555 1.9723 1.2895 2.0177 2.8974 0.56257 2.7322-2.4726 4.8556-1.9345 5.5917 1.417 0.3624 1.65 1.0134 3 1.4466 3 0.69938 0 5.75-6.8304 7.0534-9.539 1.764-3.6658 6.7762-8.4609 8.8438-8.4609 2.2499-2.8e-5 2.3157 0.21035 1.6422 5.25-0.38589 2.8875-1.3281 5.9604-2.0938 6.8287-0.76573 0.8683-1.3983 1.9933-1.4056 2.5-0.0134 0.91981-2.0442 3.6981-7.2366 9.9004-3.2577 3.8913-3.3136 4.4756-0.89095 9.3107 1.839 3.6702 3.4957 14.439 3.2628 21.21-0.11732 3.411-1.0942 4.7231-5.9558 8-1.8679 1.259-2.3122 2.7047-2.766 9-0.29733 4.125-0.47104 12.717-0.38603 19.093 0.13756 10.318-0.17317 12.642-2.8251 21.125-1.6388 5.2428-3.6576 10.601-4.4861 11.907-0.82856 1.306-1.8139 3.9495-2.1897 5.8745-1.7789 9.1132-7.1904 23.682-13.151 35.406l-6.5621 12.906-0.75553 14.094c-0.67303 12.555-0.53886 14.804 1.2286 20.594 2.799 9.1697 3.3145 14 1.4939 14-0.96442 0-2.2428-2.9038-3.8522-8.75zm27.638-148.02c-0.17845-1.501-0.37576-3.0244-0.43847-3.3854-0.15843-0.91205-4.114 0.20907-4.114 1.166 0 0.42701 0.675 1.0354 1.5 1.352 0.825 0.31658 1.5 1.5163 1.5 2.666s0.42231 1.8294 0.93847 1.5104c0.51616-0.31901 0.79247-1.8081 0.61402-3.309zm-0.99047-5.7214c1.416-0.44639 1.416-0.70085 0-2.7225-1.127-1.609-1.5732-4.7444-1.6021-11.258-0.0398-8.9824-0.0484-9.0125-1.7172-6.0275-3.5353 6.3236-3.9971 8.9424-2.6688 15.134 0.69216 3.2263 1.2962 5.9644 1.3423 6.0846 0.0461 0.12023 0.75881 8e-3 1.5838-0.25 0.825-0.25774 2.2029-0.69021 3.062-0.96103zm9.7229-5.5584c1.7602-1.6399 1.873-2.6642 1.2254-11.128-0.64948-8.4874-2.6971-15.822-4.4172-15.822-0.37343 0-1.5597 2.5875-2.636 5.75-1.9314 5.6746-2.4262 17.621-0.92568 22.349 0.72932 2.2979 3.5724 1.8139 6.7535-1.1498zm-20.882-20.183c-0.42699-13.628-1.1462-18.423-2.5526-17.017-0.68048 0.68048-0.66994 2.2432 0.0323 4.7864 1.2466 4.5146 0.68146 5.8328-1.8285 4.2653-1.0696-0.668-2.5771-3.8309-3.5647-7.4795-0.94126-3.4771-2.0718-6.3221-2.5124-6.3221s-1.1046 1.7964-1.4755 3.992c-0.52704 3.1195-0.21842 4.7298 1.4121 7.368 2.4684 3.9939 2.6396 5.64 0.58654 5.64-0.825 0-1.5 0.24293-1.5 0.53984 0 1.5225 4.2766 8.6291 5.4679 9.0862 0.75767 0.29075 2.1134 2.0793 3.0128 3.9745 0.89934 1.8952 2.0041 3.2178 2.4551 2.9391 0.45095-0.27871 0.66107-5.5767 0.46693-11.773zm5.8141 0.23353c0.0637-5.5445-1.4182-16-2.2678-16-0.42527 0-1.0867 1.8557-1.4699 4.1237-0.5057 2.9933-0.3242 4.364 0.66211 5 0.86299 0.55653 0.99392 1.1499 0.3588 1.6263-0.8469 0.63518-1.21 9.2186-0.60274 14.25 0.31965 2.6487 3.2779-5.3716 3.3196-9zm-18.217 6.1605c0-0.76093-4.2957-3.1605-5.6578-3.1605-0.83188 0 4.0276 3.9277 4.9078 3.9667 0.4125 0.0183 0.75-0.3445 0.75-0.80621zm0.54247-7.2886c-1.4009-2.9545-4.2335-7.3231-6.2948-9.7079-3.2079-3.7115-4.1313-4.2392-6.411-3.6633-2.9738 0.75112-4.4746 4.4536-2.9469 7.2699 1.8045 3.3266 6.7314 7.2205 9.4172 7.4428 1.4899 0.1233 3.9428 1.2104 5.451 2.4158 1.5081 1.2054 2.8747 2.0618 3.0368 1.9031 0.16213-0.15866-0.85141-2.7058-2.2523-5.6604zm-6.5135-0.83283c-0.80907-0.51167-1.2107-1.1906-0.8925-1.5088 0.3182-0.31819 1.1478 0.10734 1.8435 0.94563 1.4426 1.7382 1.166 1.902-0.95098 0.56322zm26.486-4.5391c-0.85567-2.2-1.3042-2.875-0.99664-1.5 0.30753 1.375 0.86711 4.075 1.2435 6 0.44977 2.3002 0.79141 2.8144 0.99664 1.5 0.17175-1.1-0.38783-3.8-1.2435-6zm5.4694-0.75c8e-3 -0.4125-0.65969-0.75-1.4847-0.75-1.5313 0-2.0488 2.1178-0.81831 3.3484 0.67147 0.67146 2.2731-1.1356 2.303-2.5984zm-1.055-9.059c-0.0386-2.305-0.4156-5.0742-0.83765-6.1536-0.7193-1.8396-0.88001-1.7907-2.5652 0.78121-1.8356 2.8014-1.2567 5.3252 0.60837 2.6524 0.76217-1.0922 0.86652-0.74098 0.40523 1.364-0.72423 3.3048 0.18808 6.9507 1.5315 6.1205 0.5104-0.31545 0.89637-2.4595 0.85771-4.7645zm8.108-2.0532c-1.7864-1.7864-4.0385 0.22884-4.0018 3.5809l0.036 3.2814 2.4346-2.9795c1.4493-1.7737 2.069-3.345 1.5312-3.8828zm-16.777-5.7485c-0.27173-1.0391-0.85408-1.8893-1.2941-1.8893-1.3524 0-1.7485 2.399-0.72409 4.3851 1.2031 2.3324 2.7731 0.39092 2.0182-2.4958zm-14.794 0.11069c1.2528 0 1.5568-0.49491 1.0752-1.75-1.2014-3.1306-3.5584-16.592-4.0634-23.207-0.54713-7.1673-2.3903-10.686-2.6154-4.9931-0.35906 9.081-0.1594 18.163 0.55876 25.416 0.66738 6.7401 0.98182 7.7019 2.0434 6.25 0.69008-0.94374 2.0407-1.7159 3.0014-1.7159zm8.3769-0.68597c0.51893-0.92728 0.598-2.6148 0.1757-3.75-2.5267-6.7923-4.035-12.398-3.7951-14.105 0.31322-2.2293-4.179-13.459-5.384-13.459-0.43518 0-0.35293 1.1528 0.18278 2.5619s1.2291 5.7965 1.5409 9.75c0.59446 7.5377 4.0977 20.688 5.5113 20.688 0.4537 0 1.2495-0.75868 1.7684-1.686zm32.138-6.2116c0.52999-1.9195 0.72635-3.7272 0.43635-4.0172-0.75871-0.75872-2.3874 2.1561-1.7663 3.161 0.28612 0.46295-0.19358 1.9311-1.066 3.2626-0.87241 1.3315-1.5719 2.9992-1.5544 3.706 0.0521 2.105 2.8968-2.2965 3.9504-6.1124zm-22.384 215.06c-0.2862-0.46308-0.92853-3.4449-1.4274-6.6262-0.75842-4.8364-0.55992-6.8696 1.2113-12.408 2.1526-6.7309 5.4578-11.002 6.8149-8.8059 0.38629 0.62504 0.0857 1.8217-0.66804 2.6593-0.75372 0.83756-2.2832 3.8443-3.3989 6.6816-1.6443 4.1816-1.9159 6.502-1.434 12.25 0.54817 6.5385 0.22339 8.3871-1.0979 6.2492zm14.565-8.7009c-0.63934-1.4032-1.1448-3.0926-1.1233-3.7542 0.0215-0.66162 0.70344 0.32764 1.5154 2.1984 1.7089 3.9374 1.3472 5.373-0.39205 1.5558zm-4.1825-9.9813c-0.69572-0.83829-1.0123-1.7768-0.70346-2.0856 0.30881-0.30882 1.0638 0.37706 1.6777 1.5242 1.3098 2.4475 0.8236 2.7277-0.97422 0.56148zm-8.4668-17.79c-0.83222-1.9918-1.5131-4.3332-1.5131-5.2032 0-2.386-2.7223-7.1619-4.463-7.8299-0.84535-0.32439-1.537-1.2789-1.537-2.1212 0-0.84226-0.9375-2.4689-2.0833-3.6147-1.1458-1.1458-1.879-2.2877-1.6292-2.5374 1.0269-1.0269 5.4137 1.9536 6.5409 4.444 0.66637 1.4722 1.942 3.9976 2.8349 5.6118 1.9408 3.5092 4.6816 13.553 3.9091 14.326-0.30036 0.30036-1.227-1.0835-2.0592-3.0753zm5.4869 1.6593c0-0.49497 0.60421-1.7876 1.3427-2.8724 0.73848-1.0849 1.8068-3.8504 2.3742-6.1456 0.85341-3.4528 0.70905-4.8933-0.8363-8.3449-1.6941-3.784-4.1087-11.5-5.6216-17.964-0.31954-1.3653-1.1835-3.085-1.92-3.8214-1.546-1.546-1.8336-10.196-0.33899-10.196 0.55 0 1.0199 1.0125 1.0441 2.25 0.0484 2.4683 2.1085 10.66 3.0807 12.25 0.33631 0.55 1.1848 3.475 1.8855 6.5s2.3742 7.6221 3.7188 10.216c2.579 4.9747 2.5091 8.3872-0.28365 13.857-1.4387 2.8179-4.4455 5.7074-4.4455 4.2721zm-28.323-26.744c-0.29534-0.76964-2.256-1.9473-4.357-2.617-3.8752-1.2352-10.585-6.8348-12.562-10.484-0.59605-1.1 1.0728 0.12182 3.7086 2.7152 2.6358 2.5933 6.4216 5.246 8.4129 5.8949 1.9913 0.64887 3.9581 1.677 4.3706 2.2848 0.52018 0.76646 1.0398 0.65432 1.6956-0.36595 1.2859-2.0003 2.3928-0.67075 1.5783 1.8957-0.75946 2.3928-2.0688 2.7038-2.8469 0.67602zm-20.857-17.351c-3.2665-3.8377-8.4001-16.718-10.263-25.75-0.47928-2.3242-0.37176-2.6621 0.47723-1.5 0.90738 1.242 1.0136 1.156 0.6177-0.5-0.263-1.1-0.78333-3.7966-1.1563-5.9924-0.37296-2.1958-0.8785-4.3166-1.1234-4.7129-0.24493-0.39629-2.088 1.0977-4.0958 3.3201-7.2614 8.0374-18.277 11.178-18.277 5.2111 0-1.3515 0.46584-3.3278 1.0352-4.3916 1.0352-1.9342-0.32735-2.8886-1.4743-1.0327-0.30645 0.49585-2.0205 1.3944-3.809 1.9967l-3.2518 1.0951 2.3901-1.8566 2.39-1.8566-2.0684-1.8901c-3.7424-3.4198-4.7488-4.057-7.4953-4.7464-1.494-0.37498-2.7164-1.1232-2.7164-1.6627 0-1.3332 1.3456-1.2354 2.7833 0.20238 2.1175 2.1175 2.6172-0.12009 0.85303-3.8197-2.2483-4.7147-1.5113-5.4035 0.93035-0.86962 1.0384 1.9283 2.3483 3.5578 2.9107 3.6211 2.1751 0.24494 5.1399-0.2565 7.8966-1.3356 2.3039-0.90182 2.6015-1.3387 1.5-2.2023-0.75573-0.59251-3.7366-3.701-6.6241-6.9079-4.9535-5.5013-6.5066-8.6694-4.25-8.6694 0.55 0 1 0.64952 1 1.4434 0 2.6817 16.233 16.657 17.674 15.216 0.79771-0.79771-5.9747-7.8234-9.9766-10.35-2.1377-1.3495-3.6724-2.668-3.4103-2.9301 1.3768-1.3768 6.8886 1.6005 12.108 6.5408l5.8959 5.5801-0.64986-13.25-0.64987-13.25h2.849c1.5669 0 3.549 0.7875 4.4045 1.75 1.859 2.0913 3.741 8.543 3.7488 12.851 7e-3 3.8986-1.8653 9.3992-3.1992 9.3992-0.58733 0-0.68779-0.73151-0.24033-1.75 1.7249-3.9261 1.5361-8.9366-0.54631-14.5-1.1837-3.1625-2.7635-5.75-3.5106-5.75-1.0744 0-1.1458 0.6795-0.34181 3.25 0.5591 1.7875 0.955 7.5827 0.87978 12.878-0.10904 7.676 0.19206 9.957 1.4851 11.25 2.1825 2.1825 3.5564 2.0417 4.203-0.43062 0.35979-1.3759 1.2096-1.9528 2.578-1.75 2.7837 0.41247 3.1971 2.3033 0.98683 4.5136-1.4495 1.4495-1.6935 2.6734-1.1588 5.8125 0.37254 2.187 1.1377 8.5776 1.7003 14.201 0.88905 8.8864 1.5392 11.21 4.966 17.75 2.1687 4.1387 3.8464 7.5249 3.7283 7.5249s-0.88506-0.7875-1.7043-1.75zm-26.16-30.5c3.356-1.5228 7.4638-5.2924 9.8415-9.0312 2.3612-3.7129 1.1337-4.6518-2.1433-1.6394-1.6177 1.4871-2.7916 1.9795-3.044 1.2768-1.1357-3.1625-10.315 4.5605-10.315 8.6786 0 2.2677 1.7516 2.489 5.6607 0.7152zm-7.6578-7.5c2e-3 -0.4125 1.3503-1.65 2.9971-2.75 1.6468-1.1 2.9956-2.3375 2.9971-2.75 5e-3 -1.3225-7.5458-0.80053-9.5427 0.65968-1.8918 1.3833-1.8925 1.4488-0.0361 3.5 1.9044 2.1043 3.5793 2.7306 3.5846 1.3403zm76.006 23.979c0.0256-1.9896 6.271-11.284 8.7092-12.961 5.8096-3.9958 14.339-8.2681 16.516-8.2727 1.2458-3e-3 4.0652-1.6304 6.2652-3.6172 2.2-1.9869 6.0568-5.4722 8.5706-7.7452 7.8213-7.072 8.9294-7.9653 8.9294-7.1986 0 0.40925-3.0375 3.7967-6.75 7.5276s-8.0625 8.1908-9.6667 9.9109c-2.0314 2.1781-3.8525 3.1341-6 3.1496-1.6958 0.0122-4.2083 0.90222-5.5833 1.9778s-2.9991 1.9655-3.6092 1.9778c-1.9385 0.0389-10.072 7.8388-11.323 10.858-1.0732 2.5908-6.0821 6.2224-6.0586 4.3926zm68.015-31.586c3.1028-0.66851 6.4997-2.1658 7.75-3.4162 1.2243-1.2243 2.8313-2.226 3.571-2.226 0.73976 0 2.1519-0.89156 3.138-1.9812 4.1179-4.5502-4.317-7.2944-17.483-5.6879-5.5494 0.67711-5.537 0.65403 1.25-2.3152 1.2375-0.54139 1.575-0.92041 0.75-0.84228-0.825 0.0781-2.3329-0.2195-3.3509-0.66139-1.1506-0.49944-2.1268-0.35712-2.58 0.37615-0.40097 0.64878-1.4806 0.8912-2.3991 0.53873-1.7952-0.68887-2.3384 1.042-0.65374 2.0832 1.1844 0.73198 0.34962 2.4899-1.1823 2.4899-0.57638 0-0.80324-0.63776-0.50412-1.4172 0.29911-0.77948-0.0844-1.6583-0.85223-1.953-2.2141-0.84963-3.127-6.1889-3.3697-19.708-0.24906-13.876 0.30812-15.348 5.5816-14.744 3.218 0.36899 3.9488 3.0799 2.8341 10.513-0.96936 6.4641-2.0236 5.1933-2.0236-2.4394 0-5.3349-0.31478-6.7518-1.5-6.7518-1.1722 0-1.5682 1.6388-1.8123 7.5-0.3657 8.7823 0.54474 16.283 1.8765 15.46 0.5147-0.31811 0.93582-1.245 0.93582-2.0598 0-2.3499 4.1996-7.4005 6.1536-7.4005 1.3816 0 1.9276 1.1314 2.4514 5.0802 0.60631 4.5706 0.88561 5.0181 2.7844 4.4611 3.013-0.88381 9.4054-1.6797 7.6105-0.94753-6.2455 2.5476-10 4.7986-10 5.9955 0 1.8264 1.3802 1.7827 5.1426-0.16295 3.1881-1.6486 5.6236-0.99416 2.5991 0.69843-0.95792 0.53608-1.7417 1.3434-1.7417 1.7942 0 1.3453 7.2503 2.1183 8.6868 0.92614 2.0354-1.6893 1.5523-5.4263-0.93677-7.2456-2.1012-1.5358-2.0287-1.5388 1.0968-0.0462 3.3443 1.5971 3.5002 2.226 1.6596 6.6968-0.50397 1.2242-0.25436 1.75 0.83079 1.75 0.85317 0 2.7318 1.0155 4.1748 2.2567 2.2756 1.9574 2.4878 2.6135 1.6004 4.9477-0.56272 1.4801-2.2154 3.4722-3.6725 4.427-2.7933 1.8302-17.19 5.363-21.44 5.261-1.375-0.033-0.0142-0.59558 3.024-1.2502zm19.976-10.293c0-1.4716-4.7632-4.9189-5.6168-4.0652-0.30495 0.30494 0.3841 1.0567 1.5312 1.6706 2.5427 1.3608 2.6665 3.6956 0.3428 6.4671-1.2649 1.5087-0.99066 1.4139 1-0.34557 1.5086-1.3334 2.7428-3.0105 2.7428-3.727zm-23.364-13.099c0.70926-2.7493-0.37409-7.5301-1.5427-6.8079-0.46623 0.28815-1.3528 2.5298-1.9701 4.9816-0.61734 2.4517-1.5727 4.7359-2.123 5.076-0.5503 0.34011-1.0006 1.0209-1.0006 1.5128 0 1.7845 6.0714-2.5725 6.6364-4.7625z"/>
</svg>
