<?xml version="1.0" encoding="UTF-8"?>
<!-- Created with Inkscape (http://www.inkscape.org/) -->
<svg width="264" height="214" version="1.1" viewBox="0 0 264 214" xmlns="http://www.w3.org/2000/svg" xmlns:cc="http://creativecommons.org/ns#" xmlns:dc="http://purl.org/dc/elements/1.1/" xmlns:rdf="http://www.w3.org/1999/02/22-rdf-syntax-ns#">

 <g transform="translate(-208.27 7.5837)">
  <path d="m374.03 129.19c3.1836-22.049 19.744-46.66-0.18424-11.55-0.48218 0.5225-0.87669 2.013-0.87669 3.3121-1.6982 10.152-5.443 18.424-8.6248 27.716-12.062 23.118-34.518 11.742-53.375 0.9165-17.01-8.4915-5.7672-5.9494 3.5-0.63561 1.1 0.6326 6.05 2.5707 11 4.3069s11.064 4.049 13.586 5.1395c5.716 2.5964 11.839 2.538 15.083-1.2542 4.9573-5.8625 8.6686-12.883 9.8795-18.688 0.43174-2.0699 1.6781-6.2385 2.7698-9.2635 1.0916-3.025 2.5528-7.525 3.2471-10 6.9796-20.841 17.279-38.011-1.6788-46.146-18.791-23.544-44.033 7.5087-37.837 2.3147 1.8939-1.6575 9.0618-2.9788 13.95-2.5715 9.3752 0.78128 13.453 1.5175 14.087 2.5434 0.92483 1.4964 9.5022 5.1321 12.396 5.2545 3.5196 0.1488 4.346 5.763 1.8933 12.862-0.99613 2.8834-1.8258 6.9582-1.8438 9.0551-0.018 2.0969-0.92327 6.5969-2.0118 10-4.6648 14.583-7.9086 25.408-8.5218 28.437-0.36185 1.7875-1.0418 3.25-1.5111 3.25-0.46923 0-1.1234 0.8516-1.4538 1.8924-0.33035 1.0408-1.9357 2.4454-3.5674 3.1213-1.6317 0.67588-2.9668 1.552-2.9668 1.947 0 0.39499-1.2272 1.2773-2.727 1.9607-2.401 1.094-4.0727 0.78828-13.983-2.557-6.1905-2.0897-10.91-4.1451-10.488-4.5675s3.227 0.16976 6.2325 1.3159c3.0055 1.1461 8.0342 2.8868 11.175 3.8683l5.7104 1.7844 4.1292-3.928c2.2711-2.1604 3.9026-4.5187 3.6255-5.2406-0.66195-1.725-6.8319-2.9621-7.7075-1.5454-0.46218 0.74783-2.7654 0.5681-7.5663-0.59042-11.314-2.7302-14.484-3.6329-23.527-6.6995-10.745-3.6438-11.898-5.2105-8.9307-12.132 1.1305-2.6373 2.0554-5.8453 2.0554-7.1289s0.38212-2.4838 0.84917-2.6671c18.751-45.065 9.3226-44.797-4.7561 1.2969 9.8158-76.208 21.811-47.015 62.907-44.194 39.943 11.942-16.943 141.43 6.0609 59.064zm-31.311 10.417c-0.32083-0.32084-0.83794-0.56288-1.1491-0.53788s-2.9362-1.0581-5.8333-2.4069c-2.8972-1.3488-6.07-2.4568-7.0508-2.4621-0.98079-5e-3 -3.9058-1.0733-6.5-2.3732-7.8693-3.9432-12.303-5.1092-13.32-3.5033-1.3578 2.1433-1.0895 2.6024 1.8535 3.1716 4.9258 0.95256 11.279 2.7012 13.034 3.5871 5.0497 2.5499 20.733 6.2914 18.966 4.5248zm13.788-1.2982c-0.3769-1.1875-0.0329-2.0981 0.93261-2.4686 0.84139-0.32287 1.5298-1.5235 1.5298-2.6681 0-1.1446 0.75507-3.5212 1.6779-5.2814 0.92287-1.7602 2.0139-5.0003 2.4246-7.2003 0.41066-2.2 1.2645-5.8 1.8975-8s1.5669-5.9125 2.0754-8.25 1.4143-6.3875 2.0128-9 1.161-6.5139 1.25-8.6697c0.14012-3.3955-0.17256-4.0113-2.3382-4.6046-1.375-0.37669-5.4489-2.0677-9.053-3.7577-7.3732-3.4574-17.93-4.6921-23.947-2.8007-12.282 4.5577-13.622 13.691-17.104 24.982-0.49303 1.5946-0.89642 3.9892-0.89642 5.3214 0 2.208 0.13979 2.2824 1.5806 0.84159 0.86934-0.86934 1.9262-1.367 2.3486-1.106 0.42237 0.26103 1.7173-0.40983 2.8776-1.4908 2.9393-2.7384 3.9798-2.4578 3.837 1.0346-0.13378 3.2735-0.61547 3.6283-2.4438 1.8-0.93333-0.93333-1.2-0.698-1.2 1.059 0 1.2425-0.41891 2.0001-0.9309 1.6837-0.512-0.31644-1.2143-0.11678-1.5607 0.44368-0.42752 0.69175-1.243 0.69085-2.539-3e-3 -1.638-0.87664-2.1976-0.45651-3.9393 2.9575-1.1165 2.1886-2.0328 4.5597-2.0362 5.2691-3e-3 0.70941-0.65171 2.5273-1.4407 4.0398s-0.9971 2.75-0.46245 2.75c0.53464 0 1.227-0.66437 1.5386-1.4764 0.6542-1.7048 8.6275-1.3854 10.819 0.4335 0.70885 0.58829 4.5264 1.9196 8.4835 2.9585 7.3282 1.924 10.659 4.0077 12.123 7.5843 0.69528 1.6987 0.82814 1.7364 0.88197 0.25 0.0929-2.5656 1.9316-2.1332 3.2521 0.76474 0.66035 1.4493 2.4519 2.894 4.2286 3.4098 4.5133 1.3104 4.7758 1.2591 4.1204-0.80613zm-10.485-17.868c-0.57278-2.0625-1.0439-4.5109-1.047-5.441-6e-3 -1.95-0.45705-2.2813-4.3821-3.2216-2.3473-0.5623-2.767-0.40378-2.2814 0.86174 0.4154 1.0825-9e-3 1.5508-1.4049 1.5508-1.1 0-2.259-0.675-2.5756-1.5-0.80812-2.1059-2.0433-1.8761-5.0874 0.94649-1.4511 1.3456-3.034 2.202-3.5174 1.9032-0.91904-0.568 6.699-8.3497 8.1741-8.3497 0.46573 0 0.78428 0.73907 0.70789 1.6424-0.0764 0.90331 0.36967 1.8228 0.99124 2.0434 1.4826 0.52608 2.3648-5.5157 1.2412-8.5008-1.3192-3.5048-1.0468-6.1849 0.62862-6.1849 0.918 0 1.5 0.93419 1.5 2.4077 0 1.3242 1.2366 4.7913 2.7481 7.7045 2.7352 5.2719 2.7508 5.2829 3.3256 2.3423 0.56774-2.9042 0.59893-2.8795 1.8334 1.4547 0.69069 2.4251 0.98035 5.8775 0.6437 7.672-0.34658 1.8474-0.165 3.5391 0.41858 3.8998 1.2956 0.80069 1.3486 2.519 0.0777 2.519-0.52414 0-1.4216-1.6875-1.9944-3.75zm2.9474 0.81739c0-0.51294 0.9-1.2183 2-1.5674 1.9522-0.61961 2.8712-3.5 1.1166-3.5-0.48585 0-1.1098-0.7875-1.3866-1.75-0.27674-0.9625-0.79859-2.4625-1.1597-3.3333-0.41666-1.0049-0.14292-1.5833 0.74934-1.5833 0.8152 0 1.2242 0.69456 0.97351 1.6532-0.23777 0.90926 0.27397 2.2394 1.1372 2.9558 0.86323 0.71642 1.6005 1.135 1.6384 0.93014 0.0379-0.20484 0.23984-1.6816 0.44877-3.2818 0.4547-3.4825 2.5864-5.156 3.8016-2.9846 1.1943 2.1341 0.0715 4.4811-1.8001 3.7629-1.3024-0.49978-1.3958-0.17458-0.57204 1.992 0.871 2.2909 0.60295 2.8803-2.3258 5.1141-3.5443 2.7034-4.6214 3.0745-4.6214 1.5922zm-2.3005-16.408c-0.62811-1.6368 0.91314-4.38 1.9041-3.389 0.3918 0.3918 1.3109 0.21559 2.0425-0.39158 1.0008-0.83059 1.4789-0.71649 1.9306 0.46079 0.83542 2.1771-0.55159 4.3193-1.648 2.5453-0.64704-1.0469-0.96134-0.96354-1.482 0.39324-0.79018 2.0592-2.037 2.2322-2.7473 0.38129zm-16.144-1.9156c1.3865-4.5324 2.3821-5.3988 2.414-2.1007 0.0189 1.9509-0.56332 3.3708-1.535 3.7437-1.2382 0.47512-1.4219 0.13166-0.87904-1.643zm13.611-2.0433c-1.5806-1.9046-2.5358-9.2177-1.456-11.147 0.85201-1.5225 1.1378-1.492 3.3604 0.35817 1.4485 1.2058 1.8808 2.0356 1.0708 2.0554-0.94607 0.0232-1.1679 0.79213-0.73095 2.5333 0.36762 1.4647 0.19736 2.5-0.41115 2.5-0.57123 0-0.8346 1.125-0.58527 2.5 0.51392 2.8341 0.28815 3.0512-1.2479 1.2004zm-16.341-1.2089c-0.75882-0.75882 0.23386-5.4098 1.2945-6.0653 1.0988-0.67909 1.1366 3.6222 0.047 5.3388-0.44164 0.69576-1.0453 1.0227-1.3415 0.7265zm33.093 0.25847c-1.4434-4.3882-0.30517-7.2266 1.8046-4.5 2.1648 2.7977 2.266 4.75 0.2463 4.75-1.0827 0-2.0056-0.1125-2.0508-0.25zm-8.1891-1.882c-1.8381-1.0287-2.4128-4.868-0.72864-4.868 0.55 0 1-0.675 1-1.5s-0.64844-1.5-1.441-1.5-1.7302-0.46804-2.0838-1.0401c-0.41981-0.67927 0.29076-0.80577 2.0483-0.36465 1.6635 0.41751 2.9682 0.22708 3.4168-0.49868 0.52309-0.84637 1.4701-0.89106 3.3927-0.1601 3.0445 1.1575 3.2431 1.8985 1.2384 4.6224-1.3314 1.809-1.4748 1.822-2.107 0.19113-1.1641-3.0029-2.3654-1.9146-1.7914 1.6229 0.61246 3.7742-0.36743 4.9373-2.9444 3.4952zm-17.229-5.868c-0.33992-0.55-0.14148-1 0.44098-1s1.059 0.45 1.059 1-0.19844 1-0.44098 1-0.7191-0.45-1.059-1zm-5.9758-6.9609c-0.43007-0.69587-0.0676-1.9243 0.83368-2.8256 2.1425-2.1425 2.7744-1.2635 1.2028 1.673-0.89943 1.6806-1.5001 2.0205-2.0365 1.1525zm18.476-0.0981c0-0.58246 0.45-0.7809 1-0.44099 0.55 0.33992 1 0.81648 1 1.059s-0.45 0.44098-1 0.44098-1-0.47655-1-1.059zm-12.5-1.941c-0.33992-0.55-0.16803-1 0.38197-1s1.2781 0.45 1.618 1 0.16803 1-0.38197 1-1.2781-0.45-1.618-1zm7.9589-0.0665c-1.0763-1.7414 0.14952-2.1102 1.5211-0.45763 0.78875 0.95038 0.86462 1.5242 0.20152 1.5242-0.58488 0-1.36-0.47993-1.7226-1.0665zm0.54112-3.9335c0-0.55 0.42344-1 0.94098-1s1.2191 0.45 1.559 1-0.0835 1-0.94098 1c-0.85746 0-1.559-0.45-1.559-1zm-26.013 66.448c-1.3681-0.75726-3.6124-1.4049-4.9874-1.4392-7.7016-1.3846-12.003-11.221-3.6779-4.0306 1.893 1.6621 4.5075 3.038 5.8099 3.0575 2.8517 0.0427 7.5036 2.4537 6.2405 3.2343-0.49371 0.30513-2.017-0.0648-3.3851-0.82205z" fill="#30b0be" />
  <path d="m323.97 95.847c-0.93315 3.1625-2.1 7.0547-2.5931 8.6492-0.57605 2.1602-1.9049 8.2228 0.97111 6.4514 2.2786-1.423 5.1325-0.49053 5.1325 1.677 0 0.87472-0.41891 1.3315-0.9309 1.0151-0.512-0.31644-1.2143-0.11678-1.5607 0.44368-0.42665 0.69033-1.2543 0.6848-2.5658-0.0171-18.438 16.978-15.38 29.588-1.2157-16.469 75.087-12.592 0 0 2.7627-1.75zm-0.48949 36.75c-12.899 12.495 29.396 6.2476 0 0zm25.489-11.336c-0.79382-4.4609-1.672-5.271-5.9841-5.5199-1.3767-0.0795-2.5034-0.44515-2.5037-0.81266-2e-3 -1.7032 1.2959-3.7665 2.0685-3.289 0.47283 0.29222 0.17539-1.1064-0.66094-3.108s-1.3495-4.6058-1.1404-5.787c0.37021-2.0913 0.39973-2.0952 1.1229-0.14773 0.4085 1.1 1.9294 4.475 3.3798 7.5 2.4229 5.0534 2.6887 5.297 3.2725 3 0.58637-2.3069 0.7368-2.1735 1.9475 1.7268 0.95804 3.0864 1.0365 5.1099 0.29072 7.5l-1.0213 3.2732zm7.6613-0.16431c1.1288-3.2381 2.3161-3.834 3.1757-1.594 0.29675 0.77333-0.25303 2.1233-1.2218 3-2.5918 2.3455-3.1274 1.9601-1.954-1.406zm-27.15-1.9286c0-1.2858 2.9049-4.0714 4.2457-4.0714 0.60659 0 0.046 1.125-1.2457 2.5-2.5722 2.7379-3 2.962-3 1.5714zm30.4-3.4714c-0.36606-0.95394-0.17057-2.2294 0.43443-2.8344 0.8-0.8 1.2815-0.62698 1.7656 0.63443 0.36606 0.95394 0.17057 2.2294-0.43443 2.8344-0.8 0.8-1.2815 0.62698-1.7656-0.63443zm-30.78-5.1471c-0.68383-1.782-0.0154-3.4529 1.3813-3.4529 0.48596 0 0.69851 0.96089 0.47234 2.1353-0.55511 2.8825-1.1036 3.2723-1.8536 1.3176zm21.38-2.3363c0-1.2599 0.9104-2.0583 2.75-2.4117 3.2936-0.63271 3.7086-0.34225 2.8197 1.974-0.56869 1.482-0.82047 1.5335-1.5697 0.32115-0.75249-1.2176-0.99601-1.174-1.5532 0.27803-0.88216 2.2989-2.4468 2.1956-2.4468-0.16145zm-15.985-0.86655c8e-3 -0.4125 0.45153-1.425 0.98469-2.25 0.78387-1.213 0.9723-1.0694 0.98469 0.75 8e-3 1.2375-0.43469 2.25-0.98469 2.25s-0.99311-0.3375-0.98469-0.75zm13.02-3.1843c-1.1859-2.216-1.4145-11.073-0.28517-11.05 1.756 0.0359 2.7569 1.6948 2.8565 4.7347 0.0586 1.7875-0.28773 3.25-0.76956 3.25-0.48181 0-0.67203 1.125-0.42269 2.5 0.54289 2.9938 0.0325 3.2032-1.379 0.56574zm-15.39-3.0657c0.79138-4.3128 1.36-5.1263 1.3396-1.9167-8e-3 1.3292-0.45781 3.0917-0.99862 3.9167-0.69179 1.0553-0.79289 0.46242-0.34103-2zm32.094 1.1107c-0.69193-2.646 0.62207-4.6118 1.9438-2.908 2.1473 2.7679 2.3175 4.7973 0.4022 4.7973-1.0186 0-2.0743-0.85019-2.346-1.8893zm-8.2447-1.1196c-0.76776-1.2423 0.33332-4.9911 1.4659-4.9911 0.93961 0 2.0396 2.471 2.0396 4.5818 0 1.6233-2.5698 1.9233-3.5055 0.40926zm4.9776-4.0363c-0.40053-0.64809-0.16294-1.5277 0.52799-1.9547 0.75653-0.46756 0.93002-1.3181 0.43616-2.1382-0.67657-1.1235-0.52183-1.1198 0.88421 0.0209 1.3864 1.1248 1.475 1.6844 0.47493 3-0.67616 0.88953-1.3116 1.7598-1.4122 1.9338s-0.51054-0.21372-0.91109-0.8618zm-1.972-3.9547c0.33992-0.55 0.81648-1 1.059-1s0.44098 0.45 0.44098 1-0.47656 1-1.059 1-0.7809-0.45-0.44098-1z" fill="#9b3a3f"/>
 </g>
 <path d="m127.73 186.41c-1.925-1.0539-5.3434-1.935-7.5965-1.9581-2.9027-0.0297-7.3141-1.6447-15.138-5.5419-6.0729-3.025-12.003-5.5-13.178-5.5-2.4909 0-4.0871-3.3714-4.0871-8.6325 0-2.9647-0.28674-3.4113-1.8679-2.9094-2.6506 0.84125-7.0158-1.054-9.5056-4.127-3.0789-3.8-6.6264-10.148-6.6264-11.858 0-0.81024-0.45-1.4732-1-1.4732s-1-0.6799-1-1.5109c0-0.83099-0.8753-3.4185-1.9451-5.75-2.5332-5.5208-5.0226-14.674-6.1032-22.442-0.47461-3.4116-1.7829-8.0061-2.9073-10.21-2.8793-5.6439-2.7102-9.8265 0.45561-11.269 2.6833-1.2226 3.1427-2.3028 1.4294-3.3617-1.4078-0.87008-0.18474-8.6104 1.5814-10.008 0.73091-0.57842 3.5658-5.5284 6.2998-11 11.936-23.887 17.726-34.971 18.432-35.282 0.41654-0.18333 0.75734-1.1958 0.75734-2.25 0-1.0542 0.39541-1.9167 0.87868-1.9167 0.48327 0 1.4379-1.35 2.1213-3s1.5835-3 2-3 1.2947-1.2974 1.9515-2.883c1.5175-3.6637 5.4584-7.117 8.1218-7.117 5.676 0 8.4402 4.4078 11.044 17.611 0.98813 5.0108 2.5153 11.086 3.3938 13.5 2.8865 7.9329 6.464 21.335 6.4767 24.262 9e-3 2.1595 0.32265 2.6262 1.2624 1.8803 0.6875-0.54568 4.0325-1.2947 7.4333-1.6646 6.0458-0.65746 7.2416-0.4468 20.317 3.5792 5.0959 1.5691 21.208 7.7074 23.236 8.8524 0.95504 0.53915 2.53 0.99134 3.5 1.0049 2.3178 0.03234 5.9145 6.955 4.1728 8.0315-0.84301 0.52101-1.0109 2.4221-0.55582 6.294 0.55408 4.7144 0.12601 7.1698-2.8501 16.349-1.9262 5.9406-3.5024 11.874-3.5027 13.185-7.5e-4 2.899-2.4799 12.589-6.4976 25.396-1.5757 5.0226-5.9485 14.249-7.8716 16.608-0.62229 0.76346-2.5542 4.8135-4.2931 9-3.322 7.9979-6.0518 10.344-9.9713 8.5709-1.0268-0.4646-2.542-0.87046-3.367-0.90189-1.0406-0.0396-1.6853-1.5884-2.105-5.0572-0.66629-5.507-0.26096-6.9052 1.2296-4.2417 0.53608 0.95792 1.6273 1.7417 2.425 1.7417s1.5022 0.7875 1.5657 1.75c0.2378 3.6077 0.40382 4.2279 1.1346 4.2388 0.4125 6e-3 1.1511 0.0112 1.6414 0.0112s1.6522-1.9125 2.5821-4.25c2.8095-7.0626 4.7909-11.166 6.1948-12.829 1.6269-1.9278 8.3317-18.798 8.3317-20.964 0-0.85629 0.36787-1.9844 0.81749-2.5069 0.44961-0.5225 1.4076-3.425 2.1288-6.45 0.72124-3.025 1.6468-5.95 2.0569-6.5s0.9765-2.35 1.2588-4c0.2823-1.65 1.2391-5.7 2.1262-9 2.3725-8.8254 2.5784-9.8801 1.7365-8.894-1.5366 1.7997-6.4601 15.993-9.1554 26.394-0.6414 2.475-2.0515 6.975-3.1335 10-1.082 3.025-2.9161 8.3499-4.0758 11.833-3.0971 9.3025-11.384 15.946-18.05 14.469-4.9671-1.1002-15.521-4.6165-20.21-6.7338-2.75-1.2416-7.25-3.1003-10-4.1305-2.75-1.0302-6.5253-2.9001-8.3896-4.1555-1.8642-1.2554-3.9466-2.2825-4.6276-2.2825s-1.7941-0.67005-2.4738-1.489c-1.9155-2.3081-2.8893-0.90242-2.9528 4.2626-0.03199 2.5995-0.06729 5.4014-0.07845 6.2264-0.08301 6.1353 3.2986 9.5536 15.784 15.956 6.6293 3.3992 9.2772 4.2284 13.4 4.1965 3.1843-0.0247 6.5867 0.69932 8.9482 1.9041 4.5651 2.329 6.89 2.4787 6.89 0.4439 0-0.825 0.45-1.5 1-1.5s1 1.125 1 2.5c0 2.2811-0.37216 2.4963-4.25 2.4581-2.3375-0.023-5.825-0.90419-7.75-1.9581zm20.25-21.25c2.9638-2.6033 9.3693-14.33 10.721-19.628 0.50843-1.9923 1.8624-6.5474 3.0087-10.122 1.1464-3.575 2.8048-8.75 3.6854-11.5s2.186-6.35 2.9009-8c1.5977-3.6876 6.1702-18.374 7.3359-23.562 1.1263-5.0128-0.67944-6.7148-12.462-11.746-17.278-7.3781-27.891-9.9898-33.878-8.3366-2.131 0.5884-4.2317 0.84909-4.6682 0.57931-1.3377-0.82674-3.0318 3.4723-2.7039 6.8617 0.33801 3.4943 0.28218 3.485 6.8099 1.1405 7.2883-2.6177 18.502-1.219 28.5 3.5545 4.4 2.1009 8.15 3.4123 8.3333 2.9143 1.2406-3.37 4.6806 3.6005 3.8645 7.8306-0.29328 1.5202-1.0742 4.5639-1.7353 6.7639-0.66114 2.2-1.3581 6.4107-1.5487 9.3571s-0.77677 5.8753-1.3024 6.5087c-0.52567 0.63341-1.6823 4.2844-2.5703 8.1134-0.88799 3.829-2.2755 8.2866-3.0833 9.906s-1.9941 5.7952-2.6361 9.2796c-0.67226 3.6485-1.6807 6.3353-2.3778 6.3353-0.66578 0-1.4453 0.89773-1.7322 1.995-0.28693 1.0972-1.3519 2.3016-2.3666 2.6764-1.0147 0.37478-3.2374 1.727-4.9393 3.005-1.7019 1.278-3.7269 2.3261-4.5 2.3291-1.237 5e-3 -19.186-5.3353-27.406-8.1537-1.65-0.56574-4.3271-1.2155-5.9491-1.4438-2.7876-0.39245-8.5509-4.8375-8.5509-6.595 0-1.5941 2.2843-0.77054 5.3732 1.9371 2.0828 1.8258 5.32 3.1996 9.632 4.0879 3.5721 0.73584 8.7448 2.1715 11.495 3.1903 2.75 1.0188 7.5456 2.6232 10.657 3.5654l5.6568 1.713 2.9989-2.4032c1.6494-1.3218 3.4708-3.3919 4.0476-4.6003 0.87765-1.8387 0.71813-2.302-0.97789-2.8403-1.1146-0.35378-3.1402-0.36374-4.5012-0.0221-1.361 0.3416-5.9411-0.0874-10.178-0.95342-8.2976-1.696-9.8728-2.1438-21.013-5.9739-4.0203-1.3822-8.2953-2.5152-9.5-2.5176-1.8092-4e-3 -2.2224-0.62533-2.3743-3.5713-0.10114-1.9618 0.68636-5.5971 1.75-8.0784 1.0636-2.4814 1.9339-5.3743 1.9339-6.4287 0-1.0544 0.41424-1.9171 0.92054-1.9171s1.2318-1.4625 1.6122-3.25c1.1912-5.5973 7.4366-24.072 9.4976-28.094 1.0833-2.1145 1.9688-5.2645 1.9678-7-2e-3 -2.6656-0.75809-1.6712-4.8723 6.4045-2.6787 5.258-5.2029 10.658-5.6094 12-0.40641 1.342-1.2937 3.79-1.9718 5.44-3.2496 7.9072-7.7744 23.28-9.043 30.724-0.77583 4.552-1.7174 9.3227-2.0924 10.602-0.49739 1.6963-0.30686 2.2471 0.70451 2.0365 1.2109-0.25214 7.1165 2.3717 13.386 5.9475 2.685 1.5313 13.046 5.6469 18 7.1498 2.2 0.66745 5.35 1.7951 7 2.5058 4.9252 2.1215 5.8592 2.3738 9.0945 2.4563 1.8723 0.0478 4.1062-0.8097 5.656-2.171zm-63.334-5.1146c-0.22917-0.2005-1.5417-0.90032-2.9167-1.5552-2.3573-1.1226-2.3892-1.1018-0.55887 0.36454 1.593 1.2763 4.8479 2.3913 3.4755 1.1906zm3.0833-3.9818c0-0.7405 0.69406-2.7376 1.5423-4.4381 1.4513-2.9092 2.9103-9.5804 4.0931-18.716 0.28485-2.2 0.88799-4.9 1.3403-6 1.2021-2.9233 2.6484-7.4482 3.8356-12 1.925-7.3804 5.3188-17.951 6.0939-18.98 0.42228-0.56081 1.8317-3.7197 3.132-7.0197 2.6778-6.7959 5.5814-12.094 8.1871-14.939 0.97662-1.0662 1.7757-2.2368 1.7757-2.6013 0-0.3645-1.3433-5.7922-2.9851-12.061-4.5872-17.516-4.9037-18.85-6.4676-27.255-1.6143-8.6764-4.3944-14.978-6.8172-15.452-0.98539-0.19287-3.0527 1.8686-5.5156 5.5-4.1376 6.1007-30.21 57.733-32.204 63.777-0.9254 2.804-0.85639 4.5692 0.34293 8.7711 1.3824 4.8432 1.9902 8.3123 3.112 17.761 0.75319 6.3437 5.5404 21.138 7.8785 24.348 1.2626 1.7334 2.8863 5.6266 3.6082 8.6516 2.1442 8.9848 3.6686 11.168 8.2979 11.884 0.4125 0.0638 0.75-0.48986 0.75-1.2304zm-14.877-12.839c-1.6502-3.4732-3.8007-8.7899-4.7789-11.815-1.1129-3.4414-1.9214-4.7958-2.16-3.6186-0.20977 1.0348 0.10868 2.8348 0.70766 4 0.59899 1.1652 2.2429 5.2314 3.6531 9.036 3.1954 8.621 4.6705 11.436 5.1844 9.8948 0.21678-0.65033-0.956-4.0241-2.6062-7.4973zm78.003 2.8369c-0.85368-1.0286-0.64566-1.7765 0.87755-3.155 1.0981-0.99372 1.9965-2.4344 1.9965-3.2014s0.75507-2.8348 1.6779-4.595c0.92287-1.7602 2.0139-5.0003 2.4246-7.2003 0.41066-2.2 1.2668-5.8 1.9026-8s1.7093-7.375 2.3856-11.5c0.67628-4.125 1.765-8.4829 2.4194-9.6843s1.1898-3.5151 1.1898-5.1416c0-2.3331-0.53628-3.0919-2.5404-3.5949-1.3972-0.35068-5.9869-2.2512-10.199-4.2234-7.2274-3.3838-8.1123-3.5608-15.71-3.1435-11.27 0.61913-15.571 2.9676-18.949 10.346-2.728 5.9588-6.9976 19.379-6.3663 20.01 0.7126 0.7126 7.7646-1.663 7.7646-2.6157 0-0.52415 1.2999-0.953 2.8887-0.953 2.5427 0 2.9754-0.44922 3.6128-3.75 0.60148-3.115 0.85218-3.4113 1.4804-1.75 0.41595 1.1 0.53301 3.504 0.26014 5.3423-0.42801 2.8834-0.82192 3.28-2.8691 2.8887-1.7422-0.33304-2.373-3e-3 -2.373 1.241 0 2.479-1.1091 3.1823-2.8022 1.7772-1.2589-1.0448-1.3804-0.90007-0.79448 0.94609 0.6435 2.0275 0.41206 2.154-3.3165 1.8127-3.9818-0.36446-4.0256-0.33035-6.6209 5.1558-1.437 3.0375-2.4085 5.7269-2.1589 5.9765s2.4201 0.59163 4.8234 0.76008c2.4033 0.16846 6.8446 1.2721 9.8696 2.4524 3.025 1.1804 6.0594 2.1464 6.7431 2.1467 2.6573 1e-3 9.2576 3.5506 9.2722 4.9864 0.0105 1.0333 0.24957 1.146 0.75294 0.35483 0.88635-1.393 4.3138 1.0755 6.0827 4.3808 0.99039 1.8506 2.3053 2.4841 6.5214 3.1422 0.47985 0.0749 0.36894-0.47051-0.24646-1.212zm-10.151-17.217c-0.53639-1.4108-0.97525-3.5708-0.97525-4.8 0-1.2292-0.54-2.7749-1.2-3.4349-1.6888-1.6888-4.8-1.4944-4.8 0.3 0 0.825-0.6199 1.5-1.3776 1.5-0.75765 0-1.9378-0.675-2.6224-1.5-1.6891-2.0352-3.3416-1.885-5.5 0.5-1.8202 2.0113-4.5 2.711-4.5 1.175 0-0.45377 0.7875-1.5684 1.75-2.4769 8.3973-7.9265 8.2162-7.8407 8.3312-3.948l0.0812 2.75 1.3096-2.972c0.87035-1.9752 1.0108-3.7579 0.41878-5.3151-0.48994-1.2887-0.89081-3.4388-0.89081-4.778 0-3.6292 2.7183-3.0038 3.5426 0.8151 0.77856 3.607 4.1635 10.75 5.0943 10.75 0.32794 0 0.3812-1.125 0.11835-2.5-0.80934-4.2338 0.92058-2.7646 2.5413 2.1583 1.0882 3.3053 1.257 5.3858 0.58138 7.1628-1.2988 3.416 0.1283 4.4404 2.9612 2.1254 2.1374-1.7466 2.202-2.0484 0.75-3.5004-0.87397-0.87397-1.589-1.9701-1.589-2.4358s-0.27314-1.5586-0.60699-2.4286c-0.43708-1.139-7e-3 -1.5818 1.5352-1.5818 1.782 0 1.9741 0.31412 1.1422 1.8685-0.99842 1.8656-0.53138 3.1315 1.1553 3.1315 0.4908 0 0.62555-0.4317 0.29946-0.95932-1.1271-1.8237 2.9836-7.4624 4.6771-6.4157 1.5405 0.95205 0.88576 6.375-0.76964 6.375-1.1271 0-1.3839 0.57818-0.91413 2.0582 0.44606 1.4054 0.0184 2.5948-1.3484 3.75-5.4318 4.5909-6.2658 5.1918-7.2063 5.1918-0.55733 0-1.4522-1.1543-1.9886-2.5651zm-0.41341-17.691c-2.6501-4.4352-4.4952-9.6963-3.9848-11.363 1.4566-4.756 1.1661-4.5654 4.405-2.8905 2.941 1.5208 4.3393 3.9536 1.6876 2.936-1.0017-0.38439-1.3164 0.72096-1.2738 4.4744 0.0311 2.7417 0.29228 4.673 0.58036 4.2919 0.28809-0.38114 1.6488-0.69299 3.0238-0.69299 1.861 0 2.5848 0.59892 2.8318 2.3433 0.27942 1.9735 3e-3 2.2391-1.75 1.6826-1.5046-0.47755-2.0818-0.22619-2.0818 0.90665 0 2.4833-1.3378 1.8261-3.4382-1.6889zm12.846-0.25667c-0.34689-1.3821-0.15602-3.085 0.42417-3.784 1.4042-1.6919 0.97587-4.0384-1.1196-6.1338-1.616-1.616-1.712-1.5117-1.712 1.8594 0 4.1917-2.0308 4.7932-4.4622 1.3219-1.4377-2.0527-1.4339-2.3532 0.0434-3.4335 1.794-1.3118 1.1047-3.317-1.1402-3.317-0.79254 0-1.441-0.69083-1.441-1.5352 0-1.1697 0.42949-1.3053 1.8039-0.56978 1.1023 0.58994 2.3663 0.60958 3.25 0.0505 3.9356-2.4899 7.7333-1e-3 6.4014 4.1953-0.40651 1.2808-0.0948 1.8591 1.0021 1.8591 0.87568 0 2.031 1.1543 2.5674 2.5651 1.5251 4.0113 1.2267 4.649-1.8578 3.9716-2.6892-0.59064-2.8104-0.46767-2.3865 2.4205 0.53825 3.6673-0.48633 4.0627-1.373 0.52981zm-30.869-6.737c0.8476-3.9519 1.3723-4.9234 2.3372-4.327 1.3744 0.84941-0.0145 7.577-1.5642 7.577-1.1348 0-1.3111-0.74109-0.773-3.25zm7.8711-4.1259c-0.84721-2.2078 0.27991-3.3349 1.8074-1.8074 0.9019 0.9019 0.90574 1.4609 0.0161 2.3505-0.88962 0.88962-1.3233 0.76045-1.8235-0.54313zm-5.6801-6.2283c-1.1832-1.1832-0.83845-3.4294 0.7737-5.0416 1.3372-1.3372 1.5738-1.3182 2.1457 0.17235 0.35356 0.92138 0.19475 1.9673-0.35293 2.3243-0.54767 0.35699-1.1851 1.2397-1.4166 1.9616-0.23143 0.72187-0.7489 0.98438-1.1499 0.58333zm16.021-2.0565c-1.5125-0.79667-2.75-1.8739-2.75-2.3939 0-1.4293 1.5989-1.1337 3 0.55457 0.68469 0.825 1.8648 1.5 2.6224 1.5 0.75766 0 1.3776 0.45 1.3776 1 0 1.2701-0.8292 1.1412-4.25-0.66064zm-10.291-0.40589c-0.92034-1.4892 0.14673-2.2988 2.0614-1.5641 0.88358 0.33906 1.3264 1.0697 0.98412 1.6235-0.81058 1.3115-2.2151 1.2841-3.0455-0.05947zm8.5701-3.8944c-0.80907-0.51167-1.166-1.2354-0.79313-1.6082 0.9151-0.91509 3.7642 0.24884 3.7642 1.5378 0 1.2701-1.0353 1.2947-2.971 0.07045zm-5.029 58.474c0-0.7338-7.0103-3.5129-8.8721-3.5172-0.89534-2e-3 -4.3279-1.3573-7.6279-3.0116-7.587-3.8034-13.5-4.9477-13.5-2.6124 0 0.8953 0.75555 1.6278 1.679 1.6278 1.7772 0 7.1524 1.5635 11.321 3.293 1.375 0.57047 3.3634 1.1967 4.4188 1.3916s3.7553 0.99913 6 1.7872c4.2684 1.4985 6.5812 1.8646 6.5812 1.0417zm-68.827-26.758c-0.63201-2.8906-1.3273-6.1556-1.5451-7.2556s-0.44814-0.51177-0.51194 1.3072c-0.13207 3.7653 1.8673 12.543 2.6734 11.737 0.29298-0.29298 0.0156-2.8977-0.61642-5.7883zm-3.173-18.256c0-1.925-0.45-3.5-1-3.5-1.1124 0-1.3286 2.9802-0.39301 5.4182 0.9527 2.4827 1.393 1.8764 1.393-1.9182z"/>
</svg>
