<?xml version="1.0" encoding="UTF-8"?>
<svg width="275" height="227" version="1.1" viewBox="0 0 274.56 227.2" xmlns="http://www.w3.org/2000/svg">
 <path d="m228 224c-0.577-0.638-0.574-0.696 0.131-2.32 0.398-0.918 0.792-1.83 0.877-2.03s-0.156-0.439-0.536-0.538c-1.03-0.27-0.416-0.966 0.664-0.75 0.612 0.122 0.948 0.0321 1.07-0.288 0.115-0.3-0.0229-0.466-0.387-0.466-0.311 0-0.706-0.14-0.878-0.312-0.203-0.203-0.734-0.183-1.52 0.0578-1.07 0.328-1.28 0.297-1.85-0.275l-0.645-0.645 0.946-1.01c0.521-0.557 1.18-1.01 1.46-1.01 0.651 0 0.658 0.928 0.0144 1.85-0.485 0.693-0.477 0.702 0.347 0.389 0.464-0.177 1.28-0.752 1.8-1.28 1.04-1.04 2.32-1.26 2.63-0.452 0.306 0.797 0.247 0.856-0.633 0.636-0.512-0.129-0.752-0.087-0.631 0.109 0.108 0.174-0.109 0.48-0.481 0.679-0.372 0.199-0.604 0.434-0.516 0.522s0.46-6.4e-4 0.827-0.197c0.547-0.293 0.667-0.265 0.667 0.155 0 0.282-0.142 0.777-0.314 1.1-0.268 0.501-0.209 0.567 0.4 0.449 0.538-0.104 0.473-0.0105-0.26 0.378-1.12 0.592-2.71 3.2-2.71 4.43 0 0.979 0.205 1.03 1.06 0.273 0.452-0.4 0.591-0.431 0.488-0.107-0.0794 0.249-0.437 0.647-0.794 0.884-0.568 0.377-0.724 0.349-1.24-0.223zm23.2-3.79c-1.49-1.55-2.68-2.13-4.08-1.99-0.405 0.0409-0.939-0.0933-1.19-0.298-0.247-0.205-0.631-0.26-0.853-0.123-0.77 0.476-3.26 0.439-3.81-0.0557-0.456-0.413-0.575-0.415-0.908-0.0134-0.402 0.484-3.1 0.657-3.38 0.217-0.223-0.36-2.33-0.167-2.85 0.261-1.09 0.901-2.12-1.12-1.1-2.14 0.506-0.506 1.33-0.494 1.12 0.016-0.61 1.49-0.577 1.66 0.161 0.8 0.813-0.944 1.73-1.2 1.42-0.4-0.113 0.295 3.2e-4 0.48 0.294 0.48 0.263 0 0.627-0.393 0.81-0.873 0.183-0.48 0.496-0.975 0.697-1.1 0.698-0.432 0.866 0.0942 0.392 1.23-0.581 1.39-0.58 1.38-0.0458 1.38 0.258 0 0.442-0.378 0.458-0.94 0.0341-1.2 0.599-2.26 1.2-2.26 0.608 0 0.599 1.06-0.0195 2.26-0.656 1.27-0.0418 1.24 1.17-0.0598 1.03-1.1 1.36-1.03 1.38 0.296 0.0103 0.612 0.156 0.829 0.495 0.737 0.413-0.113 0.832-0.171 2.34-0.323 0.141-0.0143 0.407-0.458 0.591-0.986 0.208-0.597 0.557-0.96 0.923-0.96 0.494 0 0.559 0.18 0.407 1.12-0.199 1.23 0.466 1.64 0.769 0.48 0.0952-0.364 0.436-0.64 0.792-0.64 0.466 0 0.576 0.153 0.433 0.602-0.121 0.38-0.0105 0.671 0.298 0.79 0.386 0.148 0.49-0.0668 0.49-1.01 0-0.661 0.288-1.77 0.64-2.46s0.64-1.45 0.64-1.68c0-0.235 0.349-0.776 0.776-1.2l0.776-0.776-1.18 0.0169c-1.78 0.0256-3.59-0.237-3.92-0.571-0.185-0.185-0.125-0.536 0.157-0.921 0.437-0.598 0.929-0.623 12.2-0.616 6.48 3e-3 12.5 0.12 13.3 0.26 1.41 0.236 1.52 0.319 1.52 1.2v0.947l-3.44-0.246c-3.34-0.239-4.72-0.258-10.2-0.142l-2.64 0.0556 1.22 1.26c2.29 2.36 2.41 5.18 0.313 7.56-1.43 1.63-3.08 2.38-5.26 2.38-1.77 0-1.88-0.0507-3.33-1.55zm6.89-0.111c3.2-2.46 3.61-5.1 1.19-7.69-1.38-1.48-2.59-1.68-4.59-0.781-3.27 1.47-4.42 3.8-3.51 7.1 0.793 2.87 4.1 3.53 6.91 1.37zm-5.26-1.36c-0.519-0.625-0.264-1.29 0.497-1.29 0.807-2e-3 1.06-1.73 0.32-2.15-0.785-0.439-0.602-0.983 0.609-1.81 1.31-0.893 2.53-0.745 1.68 0.203-0.281 0.314-0.542 1.31-0.604 2.31l-0.108 1.76 1.36 0.0984c1.76 0.127 1.73 0.532-0.0617 0.984-1.94 0.488-3.22 0.449-3.69-0.111zm-219-0.181c-0.683-0.423-0.605-3.8 0.113-4.9 0.306-0.468 0.806-0.849 1.11-0.848 0.595 3e-3 1.91 2 2.53 3.84 0.968 2.89 0.0997 3.02-1.19 0.184-1.09-2.41-1.59-2.87-1.59-1.47 0 0.731 0.186 1.06 0.715 1.25l0.715 0.264-0.715 0.227c-0.405 0.128-0.715 0.487-0.715 0.826 0 0.756-0.376 0.998-0.975 0.627zm171-0.181c-0.105-0.105-0.121-0.375-0.0349-0.599 0.086-0.224-0.0679-0.493-0.342-0.599-1.2-0.46 0.308-3.09 1.77-3.09 0.81 0 1.09 0.603 0.392 0.851-0.855 0.304-1.71 1.11-1.51 1.43 0.0942 0.152 0.514 0.277 0.934 0.277 1.1 0 1.34 0.646 0.495 1.33-0.739 0.598-1.36 0.742-1.7 0.397zm8.26-0.433c-0.536-0.592-0.537-0.749-0.0292-3.03 0.544-2.44 0.929-3.08 1.52-2.49 0.22 0.22 0.171 0.85-0.152 1.95-0.318 1.08-0.355 1.55-0.113 1.4 0.433-0.274 5-0.326 5-0.0574 1e-5 0.448-1.62 0.999-2.38 0.809-0.58-0.146-0.825-0.0793-0.825 0.223 0 0.571-1.35 1.82-1.97 1.82-0.269 0-0.744-0.281-1.05-0.624zm-5.21 0.0926c-0.812-0.327-0.389-2.99 0.474-2.99 0.369 0 0.44 0.231 0.294 0.96-0.226 1.13 0.156 1.23 1.04 0.279 0.727-0.78 1.82-0.601 1.5 0.244-0.109 0.285-0.0346 0.716 0.166 0.957 0.289 0.348 0.229 0.439-0.288 0.439-0.359 0-0.71-0.171-0.779-0.38-0.0899-0.27-0.351-0.223-0.898 0.16-0.814 0.57-0.876 0.584-1.51 0.328zm14.1-0.188c0.0942-0.246-0.102-0.617-0.437-0.826-0.959-0.599-0.731-1.55 0.586-2.44 2.1-1.42 2.77-0.942 0.84 0.599-1.09 0.873-1.13 0.957-0.579 1.36 0.323 0.236 0.858 0.429 1.19 0.429 1.13 0 0.5 1.11-0.69 1.22-0.82 0.0785-1.04-4e-3 -0.909-0.343zm-182-0.653c-1.1-0.556-1.3-2.76-0.338-3.73 0.775-0.775 1.62-0.862 1.62-0.168 0 0.27-0.216 0.573-0.48 0.674-0.521 0.2-0.681 2.19-0.2 2.49 0.154 0.0952 0.873-0.256 1.6-0.781 1.58-1.14 1.79-1.18 1.28-0.241-0.479 0.895-0.908 1.33-1.79 1.8-0.836 0.448-0.717 0.45-1.69-0.0417zm198-5.24c-0.777-0.314-0.454-2.22 0.56-3.31 1.12-1.2 1.32-2.14 0.343-1.61-0.339 0.182-0.829 0.249-1.09 0.149-0.259-0.0994-0.566-0.0268-0.682 0.161-0.26 0.421-1.45 0.455-1.45 0.0419 0-0.165-0.504-0.218-1.12-0.118-1.3 0.211-1.53-0.391-0.506-1.32 0.833-0.754 2.03-0.54 2.25 0.401l0.174 0.744 0.774-0.824c0.895-0.953 1.3-1.05 1.3-0.295 0 0.471 0.0729 0.464 0.66-0.0673 0.566-0.513 0.704-0.531 0.975-0.13 0.458 0.679 0.0578 3.67-0.687 5.13-0.642 1.26-0.765 1.34-1.51 1.04zm1.34-2.83c0.206-0.877 0.181-0.917-0.286-0.458-0.281 0.276-0.587 1.07-0.678 1.76-0.162 1.22-0.153 1.23 0.286 0.458 0.249-0.44 0.555-1.23 0.678-1.76zm-125 1.2c-0.402-0.936-0.5-2.15-0.449-5.51 0.0365-2.37 0.123-4.37 0.193-4.43 0.143-0.143 2.14 1.2 2.44 1.64 0.11 0.16 0.136 0.54 0.0561 0.844-0.132 0.504 0.376 0.572 5.69 0.765 8.01 0.29 20.4 0.231 27.3-0.13 3.17-0.165 8.28-0.376 11.4-0.469 3.08-0.0927 9.56-0.396 14.4-0.674 10.3-0.59 26.4-0.382 27.8 0.36 1.12 0.583 5.04 1.39 8.64 1.79 1.67 0.184 4.14 0.454 5.49 0.6 1.35 0.147 2.93 0.415 3.52 0.596 1.21 0.373 5.43 1.1 5.53 0.955 0.0362-0.0527 0.273-0.66 0.526-1.35 0.253-0.69 0.654-1.32 0.89-1.4 0.41-0.137 0.367 0.272-0.179 1.73-0.204 0.545 1.11 0.758 1.53 0.249 0.638-0.768 1.57-0.552 1.57 0.364 0 1.32 1.15 0.448 1.39-1.05 0.211-1.32 0.981-2.62 1.34-2.26 0.121 0.121-0.0831 1.16-0.454 2.31-0.371 1.15-0.674 2.46-0.674 2.92 0 0.473-0.138 0.747-0.32 0.634-0.176-0.109-0.32-0.477-0.32-0.819 0-0.826-0.399-0.783-1.53 0.167-0.756 0.636-1.16 0.751-2.1 0.599-0.689-0.112-1.35-0.0381-1.61 0.18-0.342 0.284-0.484 0.268-0.613-0.067-0.131-0.341-1.67-0.482-7-0.644-6.17-0.187-13.1-0.626-23.2-1.48-5.81-0.488-39.7-0.571-61.4-0.15-7.15 0.139-10.6 0.0833-12.3-0.196-1.3-0.214-3-0.499-3.8-0.633-0.968-0.164-1.52-0.125-1.69 0.119-0.139 0.2-0.211 1.55-0.16 3 0.0897 2.57 0.0723 2.64-0.644 2.64-0.546-3e-5 -0.869-0.31-1.25-1.2zm104-2.87c-0.83-0.0657-2.27-0.0664-3.2-2e-3 -0.93 0.0648-0.251 0.119 1.51 0.119 1.76 9.6e-4 2.52-0.0522 1.69-0.118zm-6.57-0.311c-0.396-0.0763-1.04-0.0763-1.44 0s-0.072 0.139 0.72 0.139 1.12-0.0624 0.72-0.139zm19-0.755c0.344-0.557-0.0479-0.675-0.487-0.146-0.252 0.304-0.277 0.488-0.0645 0.488 0.187 0 0.435-0.154 0.551-0.341zm-95.6-0.414c-0.0733-0.0636-3.16-0.188-6.85-0.276-3.7-0.0884-6.14-0.0568-5.44 0.0702 1.29 0.233 12.5 0.421 12.3 0.206zm3.15-0.104c-0.306-0.0801-0.882-0.083-1.28-6e-3 -0.398 0.0765-0.148 0.142 0.556 0.146 0.704 4e-3 1.03-0.0591 0.724-0.139zm-107 4.35c-0.258-0.258-0.228-0.653 0.11-1.46 0.568-1.36 0.339-2.2-0.748-2.73-0.454-0.225-0.813-0.552-0.798-0.728 0.0571-0.664 1.04-0.493 1.85 0.322 0.726 0.726 0.824 1.05 0.689 2.24l-0.157 1.4 0.758-0.497c0.417-0.273 0.758-0.609 0.758-0.746 0-0.137 0.216-0.332 0.48-0.433 0.889-0.341 0.489 0.526-0.813 1.77-1.4 1.33-1.6 1.41-2.13 0.877zm5.21-0.25c-0.0963-0.156-0.0222-0.722 0.165-1.26 0.504-1.44-0.0594-2.34-1.31-2.09-0.742 0.148-0.954 0.0764-0.954-0.323 0-0.283 0.361-0.605 0.802-0.715 1.15-0.287 2.33 0.582 2.46 1.8 0.0919 0.897 0.153 0.945 0.695 0.545 0.352-0.26 0.617-0.885 0.649-1.54 0.0424-0.861 0.204-1.12 0.746-1.2 0.753-0.108 2.01 0.941 2.01 1.68 0 0.769-1 1.53-1.82 1.37-0.559-0.107-0.999 0.134-1.7 0.932-0.959 1.09-1.43 1.3-1.74 0.793zm3.98-2.92c0-0.176-0.0635-0.32-0.141-0.32-0.0776 0-0.23 0.144-0.339 0.32-0.109 0.176-0.0453 0.32 0.141 0.32 0.186 0 0.339-0.144 0.339-0.32zm3.7 0.341c-0.774-0.855-0.838-2.68-0.0991-2.83 0.418-0.0859 0.56 0.0937 0.56 0.708 0 1.16 0.44 1.02 0.916-0.297 0.223-0.616 0.54-1.12 0.704-1.12 0.455 0 0.358 1.8-0.164 3.05-0.523 1.25-1.1 1.4-1.92 0.491zm-9.38-6.65c-0.288-0.107-0.4-1.17-0.4-3.8v-3.65h-1.13c-0.879 0-1.45-0.296-2.58-1.34-0.802-0.739-1.66-1.74-1.91-2.22-0.593-1.15-0.582-3.48 0.0226-4.64 0.263-0.504 0.479-1.24 0.48-1.63 0.0011-0.393 0.407-1.17 0.901-1.72 1.23-1.37 3.33-1.59 5.82-0.61 2.76 1.09 4.16 2.73 4.16 4.89 0 1.49-1.43 4.21-3 5.71l-1.32 1.26 0.101 3.4 0.101 3.4 2.62-0.204c5.91-0.461 11.6-0.61 11.8-0.308 0.287 0.464-14.6 1.87-15.7 1.48zm1.44-9.25c0.793-0.763 0.98-1.08 0.555-0.93-0.902 0.311-4.32 0.609-4.32 0.378 0-0.106 0.562-0.344 1.25-0.529 0.687-0.185 1.58-0.604 1.98-0.931l0.734-0.595-1.77-0.514c-1.74-0.505-2.84-1.32-2.84-2.09 0-0.717 3.25-3.88 3.99-3.88 1.19 0 1.14 0.35-0.223 1.39-0.721 0.553-1.61 1.41-1.97 1.9-0.79 1.07-0.63 1.23 1.98 1.99 1.18 0.347 1.78 0.713 1.97 1.2 0.251 0.65 0.326 0.591 0.938-0.733 0.798-1.73 0.864-3.43 0.172-4.42-0.851-1.21-2.96-2.34-4.73-2.52-1.38-0.14-1.79-0.05-2.56 0.562-1.16 0.92-2.1 2.97-2.11 4.59-0.0109 1.95 0.965 4.62 2 5.5 0.668 0.562 1.3 0.772 2.34 0.772 1.2 0 1.61-0.182 2.62-1.15zm230 6.22c-2.38-0.149-7.06-0.33-10.4-0.402-3.34-0.0718-9.18-0.223-13-0.336-3.78-0.113-13.1-0.266-20.8-0.34-15.5-0.15-24.6-0.534-27-1.14-1.18-0.299-5.08-0.387-15-0.34-8.74 0.0418-13.4-0.0468-13.4-0.256 0-0.206-3.29-0.327-9.2-0.339-5.06-0.0101-10.6-0.133-12.2-0.274-3-0.253-9.18-0.0147-15.7 0.603-6.03 0.575-14.1 0.394-18.8-0.424-2.33-0.401-4.33-0.83-4.45-0.953-0.123-0.123-0.604-0.224-1.07-0.224s-4-1.08-7.87-2.4c-6.33-2.17-10.7-3.36-12.2-3.36-0.495 0-0.488 0.0487 0.066 0.454 0.341 0.25 0.52 0.554 0.398 0.677-0.28 0.28-5.1-0.579-6.82-1.21-1.02-0.377-1.8-0.413-3.84-0.176-1.41 0.164-3.5 0.221-4.64 0.128-5.38-0.44-6.24-0.877-5.52-2.8 0.366-0.971 0.327-1.09-0.727-2.14-1.23-1.23-1.36-1.8-0.614-2.86 0.462-0.66 0.45-0.779-0.16-1.55-0.817-1.04-0.827-1.6-0.0483-2.87 0.876-1.44 2.86-2.04 5.92-1.81 1.32 0.0996 3.98-2e-3 5.92-0.225 4.8-0.553 4.7-0.424 4.2-5.67-0.331-3.44-0.318-4.68 0.0823-7.77 0.276-2.13 0.387-4.42 0.265-5.44-0.238-1.99 0.0671-8.73 0.623-13.8 0.443-4.01 0.455-4.78 0.232-15.7-0.184-9.01-8e-3 -14.7 0.403-13 0.167 0.697 0.254 0.258 0.317-1.6 0.0796-2.37 0.104-2.45 0.336-1.12 0.175 1.01 0.216 0.507 0.136-1.7-0.097-2.69-0.0477-3.08 0.342-2.76 0.5 0.415 0.636-0.0287 0.157-0.516-0.408-0.416-0.722-5.98-0.324-5.73 0.169 0.104 0.403-0.063 0.522-0.372 0.124-0.323 0.0549-0.615-0.162-0.687-0.367-0.122-0.527-1.1-0.229-1.39 0.0815-0.0816 0.225-2.48 0.32-5.32 0.0943-2.85 0.31-6.16 0.48-7.35s0.219-2.52 0.11-2.94c-0.139-0.532-0.0874-0.692 0.171-0.533 0.269 0.167 0.368-0.496 0.361-2.43-0.0145-3.97-0.685-2.36-0.956 2.29l-0.215 3.69-0.0499-4.42c-0.0328-2.9 0.0808-4.66 0.331-5.12 0.267-0.49 0.396-3.57 0.433-10.3 0.0416-7.7 0.154-9.98 0.568-11.5 0.284-1.06 0.529-3 0.545-4.32 0.0326-2.67 0.852-5.21 1.74-5.39 0.497-0.0988 0.531 0.266 0.395 4.16-0.082 2.35-0.318 5.06-0.524 6.03-0.347 1.63-0.523 20.1-0.195 20.4 0.0705 0.0705 2.91-0.0232 6.31-0.208 7.41-0.403 16.9-1.68 20.8-2.79 0.279-0.0801 0.507-0.324 0.508-0.541 6.4e-4 -0.217 0.0995-0.915 0.22-1.55 0.16-0.848 0.0887-1.26-0.268-1.56-0.267-0.222-0.486-0.608-0.486-0.857 0-0.819 1.28-2.99 1.77-2.99 0.595 0 0.601 0.288 0.0184 0.935-0.25 0.278-0.551 0.891-0.669 1.36-0.181 0.727-0.124 0.834 0.378 0.703 0.793-0.207 1.34 1.26 1.03 2.76-0.128 0.615-0.199 1.15-0.159 1.19 0.0408 0.0408 0.93-0.058 1.98-0.22 1.05-0.162 3.74-0.445 5.98-0.63s5.77-0.703 7.84-1.15c4.19-0.908 7.58-1.03 12.7-0.46 2.54 0.285 4.27 0.253 8.96-0.17 3.48-0.314 6.83-0.441 8.37-0.319 1.75 0.14 4.23 0.0016 7.84-0.436 2.9-0.352 7.51-0.729 10.2-0.838 2.73-0.109 7.26-0.4 10.1-0.646 2.82-0.246 7.06-0.535 9.44-0.642s6.41-0.418 8.96-0.691c2.85-0.304 8.34-0.526 14.2-0.574 6.73-0.055 10.7-0.235 13.4-0.601 6.33-0.872 18.6-1.8 18.1-1.37-0.0733 0.0662-1.47 0.212-3.11 0.325-3.85 0.264-8.25 0.723-12.9 1.34-5 0.671-5.8 0.713-14.2 0.749-6.37 0.0269-12 0.319-15.6 0.809-1.12 0.152-7.22 0.493-11.9 0.668-1.58 0.0586-4.75 0.323-7.04 0.587-2.29 0.264-6.46 0.56-9.28 0.658-2.82 0.0975-6.92 0.409-9.12 0.692-4.46 0.575-10.6 0.789-25.8 0.893-9.7 0.0667-10.5 0.115-14.2 0.916-2.2 0.465-5.22 0.936-6.72 1.05-4.66 0.344-7.81 0.822-8.54 1.29-0.387 0.25-0.912 0.375-1.17 0.277-0.255-0.0978-1.02-0.0281-1.7 0.155-3.07 0.826-14.1 2.29-19.5 2.6-3.3 0.187-6.36 0.514-6.8 0.727-0.778 0.372-0.813 0.513-0.885 3.58-0.0681 2.89-0.888 12.9-1.21 14.9-0.073 0.434-0.16 4.54-0.194 9.12-0.0337 4.58-0.177 10.7-0.319 13.6-0.233 4.78-0.142 7.55 0.567 17.2 0.128 1.74 0.287 2.32 0.635 2.32 0.256 0 2.22-0.424 4.37-0.942 2.15-0.518 5.28-1.04 6.95-1.15 1.67-0.116 5.49-0.616 8.48-1.11 2.99-0.496 6.2-1 7.13-1.12 1.68-0.215 2.63-0.784 2.63-1.58 0-0.229 0.0945-0.89 0.21-1.47l0.21-1.05-0.702 0.702c-0.386 0.386-0.837 0.618-1 0.515-0.166-0.103-0.591-0.0318-0.944 0.157-0.516 0.276-0.749 0.219-1.19-0.292-0.539-0.63-0.547-0.63-0.983-9e-3 -0.57 0.814-1.04 0.799-1.04-0.0325 0-0.362 0.128-0.58 0.284-0.484 0.156 0.0965 0.436-8e-3 0.622-0.232 0.26-0.313 0.139-0.405-0.524-0.396-0.977 0.0127-1-0.449-0.143-2.39 0.379-0.854 0.53-0.983 0.636-0.545 0.076 0.316 5e-3 0.748-0.159 0.96-0.163 0.212-0.384 0.63-0.491 0.931-0.158 0.443-0.016 0.533 0.75 0.48 0.774-0.054 0.977-0.239 1.13-1.03 0.25-1.31 0.956-2.2 1.56-1.97 0.723 0.277 0.615 0.857-0.485 2.59-0.571 0.9-0.862 1.66-0.696 1.83 0.401 0.401 1.2-0.607 1.69-2.13 0.515-1.61 1.26-2.77 1.63-2.54 0.471 0.291 0.321 1.37-0.234 1.68-0.285 0.16-0.562 0.679-0.614 1.15-0.0783 0.713-0.016 0.798 0.359 0.486 0.348-0.289 0.562-0.287 0.92 0.0102 0.619 0.514 1.13 0.154 1.13-0.792 0-0.814 0.615-2.4 0.931-2.4 0.104-1e-4 0.139 0.72 0.0778 1.6-0.069 0.995 0.0189 1.6 0.233 1.6 0.445 0 1.22-1.2 1.49-2.32 0.385-1.57 0.895-1.43 0.713 0.195-0.0922 0.818-0.0414 1.49 0.113 1.49s0.283-0.468 0.286-1.04c4e-3 -0.789 0.0797-0.924 0.315-0.56 0.246 0.381 0.312 0.315 0.32-0.32 7e-3 -0.594 0.0832-0.684 0.295-0.349 0.157 0.248 0.214 0.68 0.126 0.96-0.0877 0.28 0.178-0.053 0.59-0.74 0.852-1.42 1.43-1.44 1.3-0.0458l-0.0901 0.945 0.802-0.753c0.835-0.784 0.925-0.726 1.23 0.783l0.129 0.64 0.233-0.64c0.698-1.92 1.19-2.72 1.67-2.72 0.481 0 0.486 0.0559 0.0482 0.56-0.268 0.308-0.581 0.956-0.696 1.44-0.273 1.15 0.482 1.2 1.21 0.08 0.288-0.44 0.737-0.8 0.997-0.8 0.599 0 0.593 0.159-0.0442 1.13-0.637 0.972-0.36 1 0.912 0.0953 1.17-0.83 1.07-0.116-0.098 0.759-0.652 0.487-1.04 0.537-2.31 0.3-0.919-0.172-1.6-0.168-1.71 0.0108-0.332 0.538-1.11-0.433-0.913-1.14 0.169-0.608 0.122-0.595-0.467 0.125-0.36 0.44-0.739 1.05-0.842 1.36s-0.393 0.56-0.645 0.56c-0.531 0-0.594-0.882-0.146-2.06 0.538-1.42 0.016-0.893-0.643 0.644-0.586 1.37-0.699 1.46-1.71 1.37-0.597-0.0514-1.33 0.109-1.63 0.356-0.403 0.334-0.683 0.362-1.09 0.106-0.902-0.563-1.63 0.251-1.85 2.05l-0.188 1.59 3-0.0899c1.65-0.0494 19.3-0.177 39.2-0.283s37.5-0.248 39-0.315c2.19-0.0923 2.69-0.0424 2.08 0.208-1.39 0.572-24.6 0.942-58 0.925-13.2-7e-3 -24.3 0.0691-24.7 0.168-0.479 0.12-0.783 0.502-0.911 1.14-0.239 1.19-1.02 1.03-0.934-0.19 0.0569-0.781-0.0226-0.85-0.8-0.696-0.475 0.0939-1.37 0.245-1.98 0.335-0.616 0.0906-3.35 0.525-6.08 0.966s-6.95 1.02-9.37 1.28c-2.43 0.266-5.09 0.689-5.92 0.941-0.828 0.252-2.47 0.705-3.66 1.01-2.44 0.623-2.48 0.673-2.64 3.9-0.0585 1.19-0.284 3.46-0.502 5.04s-0.367 3.38-0.331 4c0.237 4.17 0.122 8.65-0.253 9.78-0.308 0.933-0.385 2.72-0.283 6.55 0.147 5.57 0.292 6.65 0.95 7.1 0.224 0.154 1.94 0.227 3.81 0.161 2.65-0.093 3.52-0.239 3.94-0.657 0.296-0.296 0.914-0.538 1.37-0.538 0.503 0 1.55-0.557 2.62-1.4 0.979-0.768 2.56-1.88 3.52-2.46 0.954-0.586 1.57-1.12 1.36-1.19-0.803-0.268-0.312-1.08 0.985-1.63 2.04-0.868 3.06-1.05 3.77-0.675 0.579 0.31 0.595 0.417 0.186 1.21-0.613 1.19-1.85 2.26-2.02 1.76-0.253-0.722-8.51 5.02-9.19 6.39-0.392 0.79-1.95 1.15-2.52 0.582-0.372-0.372-4.74-0.463-6.7-0.14-0.882 0.146-1.2 0.355-1.2 0.789 0 0.76-1.35 1.65-2.3 1.51-0.406-0.0576-0.882-0.44-1.06-0.85-0.289-0.674-0.443-0.721-1.6-0.488-0.704 0.142-3.22 0.268-5.6 0.279-2.8 0.0141-4.57 0.161-5.04 0.419-0.619 0.342-0.72 0.322-0.72-0.144 0-0.404-0.202-0.306-0.8 0.389-0.44 0.511-0.8 1.25-0.8 1.64-3.1e-4 0.567 0.236 0.745 1.2 0.905 2.3 0.383 2.68 0.868 1.12 1.46-2.23 0.847-2.57 2.13-0.848 3.15 1.18 0.693 1.24 0.987 0.575 2.71-0.232 0.605 0.543 0.687 1.52 0.162 0.572-0.306 0.624-0.269 0.441 0.309-0.389 1.22 0.621 1.24 11.4 0.132 1.24-0.127 1.52-0.0625 1.52 0.355 0 0.427 0.438 0.511 2.67 0.511 3.27 0 5.71 0.6 14.1 3.48 3.52 1.2 7.18 2.29 8.14 2.41 0.958 0.123 1.89 0.32 2.08 0.438 0.348 0.221 5.46 1.33 6.18 1.34 0.26 3e-3 0.4-0.483 0.4-1.39 0-0.765 0.0931-2.49 0.207-3.84l0.207-2.45 3.07-9.6e-4c2.72-6.4e-4 8.66-0.534 8.94-0.804 0.0584-0.0557 3e-3 -1.43-0.124-3.04l-0.23-2.94-1.05 0.17c-0.576 0.0935-1.12 0.0926-1.22-2e-3 -0.198-0.198 0.58-1.53 1.51-2.58 0.56-0.633 0.572-0.72 0.101-0.72-0.747 0-0.671-0.53 0.104-0.733 0.513-0.134 0.64-0.436 0.64-1.52v-1.35l-4.56 0.227c-3.1 0.154-4.79 0.376-5.28 0.691-0.514 0.329-0.893 0.372-1.31 0.148-0.324-0.173-1.58-0.237-2.8-0.141-1.21 0.0956-3.05 0.0361-4.09-0.132-1.27-0.207-2.17-0.196-2.77 0.032-1.15 0.434-1.98-0.176-1.84-1.36 0.0807-0.694 0.244-0.817 1.02-0.762 0.505 0.0361 1.16 0.288 1.47 0.56 0.715 0.647 8.15 0.729 8.56 0.0944 0.374-0.578 0.211-10.8-0.179-11.2-0.715-0.862 0.0638-1.12 2.52-0.836 4.04 0.467 8.61 0.38 9.16-0.174 0.639-0.639 1.93-0.611 2.3 0.0515 0.269 0.48 0.557 0.428 2.98-0.533 1.47-0.585 2.74-1.11 2.82-1.17 0.0751-0.0607-0.141-0.317-0.48-0.57-0.56-0.417-0.447-0.458 1.22-0.444 1.01 9e-3 1.91 0.132 2 0.273 0.226 0.365-1.48 2.88-1.95 2.88-0.236 0-0.326-0.256-0.226-0.64 0.0921-0.352 0.0753-0.64-0.0371-0.64-0.791 0-6.24 2.55-6.78 3.17-0.794 0.917-1.6 0.742-2.05-0.445l-0.307-0.808h-9.94v0.96c0 0.528 0.166 0.96 0.369 0.96 0.27 0 0.312 1.13 0.156 4.24-0.27 5.38-0.504 5.16 5.1 4.71 2.85-0.231 4.16-0.227 4.45 0.0133 0.226 0.188 0.967 0.308 1.65 0.267 0.679-0.0411 1.54 0.0314 1.92 0.161 0.629 0.216 0.708 0.0968 0.91-1.38 0.122-0.886 0.322-1.61 0.444-1.61s0.787 0.288 1.48 0.64 1.46 0.64 1.7 0.64c0.316 0 0.367 0.163 0.172 0.56-0.151 0.308-0.282 4.34-0.291 8.95-9e-3 4.61-0.112 8.49-0.229 8.6-0.116 0.116-0.685 0.246-1.26 0.288-0.578 0.0423-1.27 0.131-1.53 0.198-0.352 0.0889-0.507-0.204-0.581-1.1l-0.101-1.22-3.26 0.221c-1.79 0.121-3.98 0.215-4.86 0.208-4.95-0.0388-6.07-0.0173-6.21 0.119-0.0829 0.0829-0.317 1.55-0.52 3.26-0.266 2.24-0.272 3.19-0.0207 3.38 0.48 0.36 14.3-0.0184 20.5-0.563 3.95-0.346 6.31-0.373 10.6-0.121 3.14 0.187 8.63 0.228 12.9 0.0984l7.41-0.227 0.198-0.79c0.109-0.434 0.259-2.59 0.333-4.8l0.135-4.01 4.68-0.104c2.58-0.0569 4.78-0.198 4.89-0.313 0.115-0.115 0.26-1.58 0.322-3.24 0.0961-2.61 0.033-3.09-0.454-3.45-0.536-0.392-0.529-0.465 0.128-1.39 0.895-1.26 0.886-1.3-0.346-1.42-0.572-0.0551-0.996-0.244-0.943-0.42 0.0534-0.176 0.521-0.283 1.04-0.239 0.519 0.0447 0.955-0.0273 0.969-0.16 0.0147-0.133 0.0626-0.565 0.107-0.961 0.0699-0.63-0.0664-0.72-1.09-0.72-0.645 0-1.26-0.0912-1.38-0.203-0.306-0.306-8.22-0.434-8.22-0.133 0 0.144-0.364 0.331-0.808 0.416-1.03 0.198-1.45-0.502-1.07-1.81 0.447-1.56 0.356-7.73-0.12-8.12-0.583-0.484-21.4-0.271-23.2 0.237-0.772 0.212-1.76 0.297-2.19 0.188-0.433-0.109-0.984-0.0347-1.22 0.164-0.646 0.536-2.44 0.0675-2.32-0.604 0.123-0.648 2.01-0.905 2.67-0.362 0.539 0.447 3.01 0.11 3.22-0.44 0.103-0.269 2.84-0.349 10.1-0.296 5.5 0.0397 10.8-0.0638 11.7-0.23 1.14-0.204 1.97-0.191 2.56 0.0417 0.935 0.368 10.2 0.511 10.5 0.164 0.307-0.307 1.64-0.252 1.84 0.0765 0.0965 0.156 1.78-0.672 3.74-1.84 2.61-1.56 3.38-2.15 2.88-2.23-1.32-0.198-0.297-0.697 1.43-0.697 2.1 0 2.28 0.533 0.761 2.25l-0.98 1.11 0.186-0.88c0.102-0.484 0.101-0.88-3e-3 -0.88-0.322 0-3.08 1.61-5.28 3.09-2.28 1.53-4.33 2.11-4.8 1.35-0.216-0.349-1.33-0.451-5.08-0.466l-4.81-0.0191-0.147 0.979c-0.081 0.538-0.233 2.46-0.338 4.26l-0.191 3.28 1.69 0.0571c0.932 0.0314 1.98 0.0418 2.33 0.0231 7.62-0.404 9.28-0.323 8.99 0.443-0.114 0.296 0.0868 0.437 0.622 0.437 0.559 0 0.79-0.175 0.79-0.601 0-0.33 0.223-0.786 0.495-1.01 0.407-0.338 0.693-0.317 1.6 0.117l1.11 0.528-0.178 1.84c-0.098 1.01-0.242 2.49-0.319 3.28s-0.237 3.85-0.355 6.8c-0.195 4.88-0.453 6.2-0.958 4.88-0.104-0.27-0.58-0.48-1.09-0.48-0.749 0-0.922-0.151-1.01-0.88-0.0931-0.809-0.204-0.875-1.38-0.815-0.704 0.0356-3.26 0.158-5.68 0.273l-4.4 0.208-0.0139 2.61c-8e-3 1.43-0.142 3.26-0.298 4.05-0.517 2.62-1.08 2.51 13.8 2.59 7.18 0.0384 13.4 0.206 13.9 0.376 0.999 0.32 9.23 0.867 14.6 0.972l3.12 0.061 0.0546-1.76c0.03-0.968 0.0661-3.53 0.0801-5.68 0.022-3.38-0.048-3.95-0.501-4.09-0.29-0.0922-0.722-0.127-0.96-0.0766-0.238 0.0501-0.433-0.125-0.433-0.389 0-0.405 0.576-0.464 3.69-0.374 4.8 0.137 7.06 0.602 3.35 0.689-1.95 0.0459-2.35 0.125-1.66 0.329 0.9 0.27 2.5 0.405 4.14 0.347l0.88-0.031v-3.66c0-3.15-0.0785-3.71-0.556-3.98-0.521-0.292-0.513-0.399 0.128-1.72 0.628-1.29 0.64-1.44 0.156-1.77-0.488-0.332-0.489-0.361-2e-3 -0.378 0.994-0.0356 1.3-2.36 0.358-2.72-0.306-0.117-2.92-0.271-5.8-0.342-2.88-0.0708-5.33-0.211-5.43-0.311-0.219-0.219-0.071-4.88 0.218-6.86 0.114-0.781 0.408-1.48 0.657-1.56 0.377-0.125 0.416 0.38 0.238 3.09-0.317 4.84-0.211 4.9 9.63 4.98l5.84 0.0478v-1.05c1e-5 -0.72 0.151-1.05 0.48-1.05 0.264 0 0.48 0.144 0.48 0.32s0.26 0.32 0.579 0.32 0.857 0.203 1.2 0.451c0.581 0.425 0.613 0.855 0.538 7.28-0.0435 3.76-0.165 7.58-0.271 8.49-0.172 1.49-0.291 1.7-1.16 2-1.39 0.484-2.5 0.42-3.16-0.182-0.464-0.42-1.43-0.534-4.99-0.589-2.43-0.0373-4.79-0.226-5.26-0.419-0.466-0.193-0.934-0.264-1.04-0.158-0.106 0.106-0.201 1.93-0.212 4.06-0.0105 2.13-0.126 4.51-0.257 5.31l-0.238 1.44 12.5 0.0575c6.87 0.0316 14.1 0.154 16.1 0.272 2.74 0.163 3.6 0.121 3.6-0.177 0-0.298 0.106-0.303 0.446-0.0205 0.292 0.242 2.7 0.42 6.96 0.514 3.58 0.0791 6.87 0.199 7.31 0.266 0.44 0.0672 3.72 0.231 7.28 0.364 5.17 0.193 6.48 0.331 6.48 0.683 0 0.504-2.07 0.518-9.28 0.0654zm-133-9.18c0.444-0.282 0.586-2.17 0.462-6.18-0.0684-2.22-0.132-2.44-0.674-2.29-0.445 0.116-0.658 0.581-0.829 1.81-0.407 2.92-0.404 2.94 0.387 2.83 0.892-0.124 0.939 0.438 0.08 0.974-0.477 0.298-0.64 0.746-0.64 1.76 0 1.37 0.322 1.66 1.21 1.09zm-2.21-8.65c0.012-6.61 4e-3 -6.69-0.687-6.87-0.939-0.246-2.16 0.0871-2.16 0.589 0 0.223-0.09 0.855-0.2 1.41-0.158 0.792-0.0917 1 0.32 1 0.286 0 0.52 0.144 0.52 0.32s-0.144 0.32-0.32 0.32c-0.508 0-0.374 0.63 0.32 1.51 0.352 0.448 0.64 0.938 0.64 1.09 0 0.152-0.288 0.277-0.64 0.277-0.559 0-0.64 0.212-0.637 1.68 2e-3 0.924 0.0927 2.43 0.203 3.34 0.163 1.36 0.325 1.69 0.877 1.8 1.87 0.367 1.75 0.808 1.76-6.47zm99 5.4c0.386-0.377 0.668-3.52 0.316-3.51-0.515 0.013-1.87 1.23-1.64 1.46 0.128 0.128 0.11 0.39-0.0406 0.582-0.15 0.192-0.372 0.763-0.493 1.27-0.21 0.877-0.18 0.909 0.676 0.697 0.493-0.122 1.02-0.347 1.18-0.5zm-47.3-0.432c0.104-0.416 0.143-1.2 0.0861-1.75-0.155-1.49-0.935-0.788-1.14 1.03-0.137 1.22-0.075 1.48 0.349 1.48 0.284 0 0.601-0.34 0.705-0.756zm44.6-0.764c-0.015-0.66 0.0622-2.71 0.172-4.56 0.109-1.85 0.273-4.67 0.364-6.27l0.165-2.91-1.35-0.181c-1.84-0.247-2.15-0.0636-2.29 1.37-0.105 1.1-0.0292 1.26 0.688 1.45l0.807 0.205-0.918 0.378-0.918 0.378 1.16 1.51 1.16 1.51h-1.1c-0.604 0-1.19 0.155-1.31 0.344-0.271 0.439-0.346 6.6-0.0831 6.87 0.109 0.109 0.861 0.223 1.67 0.254 1.03 0.0397 1.43 0.177 1.32 0.457-0.0844 0.22-8e-3 0.4 0.169 0.4 0.178 0 0.311-0.54 0.296-1.2zm-46.7-3.78v-3.7l-0.88 0.101-0.88 0.101-0.16 3.43-0.16 3.43 0.96 0.122c0.528 0.0673 0.996 0.145 1.04 0.174 0.044 0.0282 0.08-1.61 0.08-3.65zm49.9-1.64c0-2.09-0.522-2.82-0.7-0.981-0.0643 0.667-0.273 1.04-0.58 1.04-0.476 0-0.849 0.937-0.922 2.31-0.0374 0.706-0.0245 0.708 1.08 0.181 1.11-0.527 1.12-0.56 1.12-2.55zm-48.1 2.51c0.236-0.15 0.472-1.19 0.563-2.48 0.155-2.2 0.067-2.4-0.308-0.697-0.107 0.484-0.407 0.88-0.668 0.88-0.34 0-0.474 0.363-0.474 1.28 0 1.3 0.156 1.48 0.887 1.01zm-48.9-4.61c0-1.47-0.118-2.18-0.354-2.1-0.503 0.168-1.24 2.44-1.24 3.85-5e-3 1.16 0.0194 1.18 0.795 0.829 0.741-0.338 0.8-0.527 0.8-2.58zm-6.57 2.34c0.101-0.164 0.0529-0.379-0.108-0.478-0.16-0.0991-0.374 0.0349-0.475 0.298-0.199 0.518 0.282 0.667 0.583 0.18zm53.9-3.2c0-0.338 0.0874-0.842 0.194-1.12 0.151-0.393-0.0232-0.506-0.781-0.506-1.31 0-1.55 0.525-0.671 1.46 0.879 0.936 1.26 0.985 1.26 0.162zm44.2 0.493c0-0.0665-0.216-0.3-0.48-0.519-0.393-0.326-0.48-0.304-0.48 0.121 0 0.286 0.216 0.519 0.48 0.519s0.48-0.0544 0.48-0.121zm4.99-0.199c0.341 0 0.454-0.476 0.454-1.92 0-1.06-0.141-1.92-0.313-1.92-0.532 0-1.24 1.37-1.48 2.85-0.201 1.26-0.165 1.39 0.33 1.2 0.306-0.117 0.76-0.213 1.01-0.213zm-47-1.52c0.123-1.7-0.355-1.76-0.848-0.12-0.484 1.62-0.473 1.71 0.189 1.58 0.408-0.0775 0.587-0.473 0.658-1.46zm-50.1-0.797c0.276-0.22 0.585-0.852 0.686-1.41 0.16-0.873 0.0842-1.02-0.576-1.15-0.822-0.157-1.12 0.387-1.13 2.08-5e-3 0.966 0.252 1.09 1.01 0.48zm48.1-0.426c0.459-1.2 0.221-1.73-0.766-1.73-0.847 0-0.96 0.11-0.96 0.933 0 1.23 1.33 1.84 1.73 0.8zm-74.8-0.374c0.0781-0.235-0.142-0.4-0.533-0.4-0.393 0-0.667 0.207-0.667 0.503 0 0.588 0.999 0.502 1.2-0.103zm-14.7-0.64c-0.0144-0.502-0.102-0.674-0.203-0.4-0.0977 0.264-0.32 0.66-0.494 0.88-0.226 0.286-0.168 0.4 0.203 0.4 0.359 0 0.511-0.271 0.494-0.88zm91.8-1.3c0.0736-0.745-0.0311-1.02-0.394-1.02-0.544 0-1.02 1.36-0.667 1.92 0.388 0.628 0.958 0.142 1.06-0.903zm47.2-0.183c0.129-0.194 0.237-0.676 0.24-1.07 4e-3 -0.574-0.173-0.719-0.875-0.715-0.69 4e-3 -0.776 0.0729-0.4 0.32 0.33 0.216 0.37 0.39 0.129 0.555-0.193 0.132-0.45 0.644-0.57 1.14-0.209 0.853-0.184 0.878 0.511 0.512 0.402-0.212 0.836-0.543 0.965-0.737zm-102-9.92c-0.277-0.832-0.864-0.488-0.854 0.5 0.01 1.01 0.0346 1.03 0.484 0.44 0.261-0.345 0.427-0.768 0.37-0.94zm-17.2-36.4c0.198-0.568 0.228-0.892 0.0673-0.72-0.341 0.364-0.799 1.75-0.578 1.75 0.0827 0 0.312-0.465 0.51-1.03zm-28.9-28.1c-0.102-0.255-0.178-0.179-0.193 0.193-0.0139 0.337 0.0617 0.526 0.168 0.42 0.106-0.106 0.118-0.382 0.0252-0.613zm0.64-10.2c-0.102-0.255-0.178-0.179-0.193 0.193-0.0139 0.337 0.0617 0.526 0.168 0.42 0.106-0.106 0.118-0.382 0.0252-0.613zm0.313-2.9c-0.0888-0.22-0.161-0.04-0.161 0.4s0.0726 0.62 0.161 0.4c0.0888-0.22 0.0888-0.58 0-0.8zm31.5-15.9c0.027-0.867-0.537 0.122-0.721 1.26l-0.18 1.12 0.443-0.96c0.244-0.528 0.45-1.17 0.458-1.42zm-31.1-10.9-7e-3 -2.08-0.243 1.76c-0.134 0.968-0.241 2.34-0.237 3.04 6e-3 1.22 0.0181 1.23 0.25 0.32 0.134-0.528 0.241-1.9 0.237-3.04zm-27.9 140c-0.428-1.81-0.352-11.6 0.12-15.4 0.218-1.76 0.519-5.41 0.669-8.12 0.258-4.68 0.576-6.01 1.26-5.31 0.396 0.405-0.144 10.7-0.822 15.7-0.288 2.11-0.614 6.22-0.725 9.12-0.164 4.3-0.257 5.04-0.503 4zm-5.47 0.184c1.97-0.807 2.37-1.18 1.53-1.44-0.981-0.311-1.1-1.1-0.35-2.31l0.679-1.1-0.995-0.376c-1.2-0.451-1.3-1.3-0.244-1.99 0.413-0.271 0.909-0.84 1.1-1.26 0.303-0.664 0.219-0.94-0.591-1.96-0.519-0.653-0.943-1.35-0.943-1.56s0.504-0.862 1.12-1.46c1.43-1.38 1.42-2.19-2e-3 -3.16-0.615-0.419-1.12-0.935-1.12-1.15s0.576-0.848 1.28-1.41 1.28-1.16 1.28-1.33c0-0.164-0.576-0.592-1.28-0.951-1.57-0.803-1.62-1.32-0.16-2.02 0.616-0.294 1.12-0.659 1.12-0.811 0-0.152-0.576-0.536-1.28-0.854-1.54-0.695-1.6-1.12-0.25-1.76 0.559-0.264 1.07-0.642 1.13-0.839 0.184-0.602-1.28-0.785-1.89-0.236-0.412 0.372-0.947 0.453-2.09 0.316-0.846-0.101-2.62-0.269-3.94-0.373-1.32-0.104-3.62-0.323-5.12-0.486s-2.84-0.298-2.98-0.299c-0.145-2e-3 -0.241 2.41-0.213 5.36 0.0282 2.95 0.0391 5.61 0.0243 5.92-0.0287 0.597-0.82 0.769-1.14 0.247-0.338-0.547-0.872-9.96-0.65-11.4l0.214-1.43 1.18 0.182c0.647 0.1 3.94 0.502 7.32 0.893 5.78 0.669 6.18 0.679 6.75 0.17 0.735-0.665 1.73-0.69 2.92-0.073 1.33 0.688 1.51 1.47 0.52 2.32l-0.823 0.708 0.723 0.381c1.45 0.761 1.51 1.29 0.284 2.38l-0.919 0.819 0.9 0.9c1.09 1.09 0.968 1.95-0.436 3.04l-0.975 0.763 1.2 1.13c0.961 0.906 1.16 1.28 0.977 1.87-0.225 0.742-1.18 1.99-2.07 2.7-0.416 0.334-0.363 0.508 0.4 1.31 1.12 1.17 1.12 2.31 0.0186 3.62l-0.861 1.02 0.861 0.628c1.03 0.748 1.08 1.24 0.221 2.01-0.886 0.802-0.802 1.24 0.32 1.66 0.528 0.199 0.96 0.515 0.96 0.702 0 0.568-1.86 1.34-3.62 1.51l-1.66 0.156 1.57-0.643zm22 0.372c-4e-3 -0.287-0.352-0.348-1.21-0.211-1.75 0.28-2.48-0.592-2.2-2.63 0.236-1.72 0.658-2.36 1.56-2.36 0.604 0 0.61 0.0414 0.121 0.789-0.621 0.947-0.705 3.37-0.117 3.37 0.55-7e-3 1.49-0.624 0.96-0.63-0.558-7e-3 -0.502-0.857 0.0707-1.08 0.622-0.239 1.45 0.619 1.44 1.5-5e-3 0.748-0.621 1.97-0.63 1.25zm-60.9-1.6c-0.831-0.483-2.15-1.63-2.93-2.55-1.32-1.55-1.41-1.77-1.24-3.04 0.263-1.98 2.16-5.59 3.21-6.13 1.44-0.732 4.28-0.95 5.03-0.386 0.373 0.282 1.33 0.487 2.3 0.493 2.25 0.0138 2.84 0.746 2.78 3.45-0.0279 1.39 0.0874 2.01 0.4 2.13 0.598 0.23 0.557 1.44-0.0575 1.68-0.273 0.105-0.899 0.895-1.39 1.76-1.96 3.44-4.98 4.4-8.1 2.59zm1.16-0.526c-0.0946-0.247-0.486-0.527-0.87-0.623-0.682-0.171-0.68-0.161 0.0576 0.448 0.898 0.741 1.04 0.772 0.812 0.175zm2.25-2.95c0.537-0.206 0.709-1.09 0.212-1.09-0.162 0-0.522-0.0874-0.8-0.194-0.382-0.147-0.506 0.0108-0.506 0.64 0 0.856 0.211 0.979 1.09 0.64zm-4.32-1.65c0.737-1.51 1.21-4.56 0.704-4.56-0.662 0-2.29 2.89-2.28 4.05 0.0064 0.865 0.356 2.03 0.609 2.03 0.12 0 0.554-0.684 0.963-1.52zm8.03-0.261c0.586-1.54 0.37-2.52-0.808-3.66-0.616-0.597-1.12-0.913-1.12-0.703 0 0.211 0.144 0.383 0.32 0.383 0.421 0 0.412 1.06-0.0136 1.49-0.231 0.231-0.182 0.459 0.16 0.743 0.271 0.225 0.494 0.896 0.494 1.49 0 1.28 0.527 1.42 0.968 0.26zm-3.69-0.459c-0.109-0.176-0.441-0.31-0.739-0.298-0.441 0.0183-0.423 0.0733 0.0989 0.298 0.856 0.368 0.867 0.368 0.64 0zm1.12-2.53c0-0.295-0.758-0.674-1.35-0.674-0.202 0-0.176 0.189 0.0654 0.48 0.435 0.524 1.28 0.652 1.28 0.194zm3-2.11c-0.101-0.264-0.421-0.475-0.71-0.47-0.446 9e-3 -0.432 0.0812 0.0954 0.48 0.776 0.587 0.843 0.586 0.615-0.0102zm59 10.9c0.281-0.338 0.39-1.14 0.317-2.34-0.13-2.16 0.2-2.41 1.61-1.22 1.21 1.02 1.22 1.3 0.107 2.58-0.918 1.06-2.89 2-2.03 0.978zm1.65-2.3c0-0.243-0.144-0.531-0.32-0.64-0.182-0.113-0.32 0.163-0.32 0.64s0.138 0.753 0.32 0.64c0.176-0.109 0.32-0.397 0.32-0.64zm-5.76 0.861c0-0.846 0.202-1.82 0.45-2.15 0.426-0.583 0.481-0.55 1.04 0.629l0.59 1.24 0.16-1.02c0.255-1.63 0.791-1.31 0.897 0.526 0.122 2.12-0.556 2.58-1.72 1.16l-0.757-0.926-0.0115 1.04c-6e-3 0.572-0.155 1.04-0.331 1.04s-0.32-0.692-0.32-1.54zm-14.9-1.26c-0.471-2.22-0.276-11.2 0.315-14.5 0.304-1.67 0.702-4.62 0.884-6.56 0.368-3.9 0.873-6 1.4-5.82 0.191 0.0661 0.323 0.538 0.294 1.05-0.227 4.03-0.772 11-0.92 11.8-0.1 0.528-0.424 2.04-0.721 3.36-0.375 1.67-0.538 3.84-0.534 7.12 5e-3 4.68-0.228 5.83-0.718 3.52zm6.75-2.05c-0.252-0.408-0.17-0.46 1.1-0.702 0.752-0.143 1.03-0.0912 0.939 0.177-0.169 0.506-1.79 0.924-2.04 0.525zm3.47-9.45c0.337-0.088 0.582-0.488 0.615-1 0.135-2.12 0.0865-3.33-0.14-3.47-0.452-0.28 0.099-0.722 0.655-0.526 2.07 0.729 2.72 3.32 1.15 4.56-0.484 0.38-1.27 0.647-1.84 0.626-0.548-0.0204-0.745-0.103-0.437-0.183zm2.48-2.38c0-0.308-0.129-0.64-0.286-0.737-0.362-0.224-0.677 0.576-0.663 1.69 0.01 0.82 0.0289 0.829 0.48 0.233 0.258-0.342 0.47-0.873 0.47-1.18zm8 1.61c0-0.195 0.36-0.782 0.8-1.3s0.8-1.09 0.8-1.25-0.36-0.466-0.8-0.667c-0.44-0.2-0.8-0.485-0.8-0.633 0-0.432 0.758-0.31 1.56 0.25 0.739 0.518 0.782 1.07 0.194 2.48-0.214 0.513-0.141 0.567 0.519 0.383l0.768-0.214-0.755 0.657c-0.803 0.698-2.28 0.895-2.28 0.303zm4.67-0.253c-0.281-0.31-0.51-0.796-0.51-1.08 0-0.284-0.138-0.601-0.306-0.705-0.488-0.302-5e-3 -1.13 0.66-1.13 0.46 0 0.606 0.231 0.606 0.96 0 1.32 0.429 1.2 1.4-0.4 1-1.66 1.13-0.837 0.182 1.18-0.773 1.64-1.32 1.96-2.03 1.18zm-10.9-0.247c-0.673-0.673 0.211-2.67 1.18-2.67 0.655 0 0.675 0.437 0.0447 0.96-0.459 0.381-0.673 1.28-0.304 1.28 0.0967 0 0.601-0.22 1.12-0.488 1.1-0.569 1.27-0.0996 0.233 0.63-0.734 0.514-1.9 0.66-2.28 0.285zm3.95-0.667c7e-3 -1.37 0.348-2.32 0.833-2.32 0.534 0 0.533-4e-3 0.0847 1.78-0.399 1.59-0.924 1.9-0.918 0.542zm195 0.582c-0.101-0.164-0.0378-0.388 0.141-0.499 0.382-0.236 0.965 0.0635 0.965 0.496 0 0.389-0.866 0.392-1.11 3e-3zm-17.5-1.31c-0.409-0.268-0.413-0.358-0.029-0.605 0.545-0.351 1.38-0.0847 1.22 0.39-0.164 0.491-0.641 0.578-1.19 0.215zm6.59 0.0898c-0.385-0.385-0.175-0.725 0.449-0.725 0.352 0 0.64 0.129 0.64 0.286 0 0.36-0.832 0.695-1.09 0.439zm5.23-0.265c-0.38-0.458-0.346-0.508 0.285-0.411 0.395 0.0609 0.722 0.251 0.729 0.423 0.0196 0.539-0.562 0.532-1.01-0.0121zm-200-8.3c0-0.587-0.171-0.8-0.64-0.8-0.356 0-0.64-0.213-0.64-0.48 0-0.299 0.302-0.48 0.8-0.48s0.8-0.181 0.8-0.48c0-0.752 0.832-0.563 1.41 0.32 0.452 0.69 0.459 0.8 0.045 0.8-0.264 0-0.703 0.432-0.976 0.96-0.605 1.17-0.8 1.21-0.8 0.16zm66.6-0.979c0-0.274 0.144-0.41 0.32-0.301s0.32 0.333 0.32 0.499c0 0.166-0.144 0.301-0.32 0.301s-0.32-0.224-0.32-0.499zm49.3-2.06c0-0.176 0.144-0.32 0.32-0.32s0.32 0.144 0.32 0.32-0.144 0.32-0.32 0.32-0.32-0.144-0.32-0.32zm-49.7-0.509c-0.235-0.611 0.0532-1.17 0.469-0.917 0.381 0.235 0.391 1.43 0.0121 1.43-0.157 0-0.374-0.229-0.481-0.509zm49.4-1.03c0-0.166 0.222-0.487 0.494-0.712 0.37-0.307 0.585-0.318 0.859-0.0445 0.426 0.426 0.341 0.538-0.632 0.838-0.396 0.122-0.72 0.0853-0.72-0.0811zm-49.7-0.894c-0.422-0.422-0.244-1.74 0.26-1.94 0.78-0.299 0.938 0.134 0.436 1.19-0.255 0.537-0.568 0.872-0.697 0.743zm50.6-2.21c0-0.293 0.155-0.482 0.344-0.419 0.189 0.0631 0.344 0.251 0.344 0.419s-0.155 0.356-0.344 0.419c-0.189 0.0631-0.344-0.125-0.344-0.419zm51.3-0.224c-0.502-0.502-0.485-0.841 0.0731-1.4 0.481-0.481 1.52-0.611 1.9-0.236 0.122 0.122 0.974 0.243 1.89 0.269 4.6 0.132 10.8 0.595 10.8 0.807 0 0.484-3.82 0.662-6.9 0.321-3.56-0.392-5.09-0.333-6.12 0.235-0.876 0.484-1.16 0.484-1.64 2e-3zm1.06-0.576c0.109-0.176 0.0453-0.32-0.141-0.32-0.186 0-0.339 0.144-0.339 0.32s0.0635 0.32 0.141 0.32c0.0776 0 0.23-0.144 0.339-0.32zm27.5 0.471c-0.528-0.24-1.18-0.376-1.44-0.301-0.264 0.0745-0.679 0.0106-0.922-0.142-0.871-0.547 0.833-0.714 2.06-0.202 1.53 0.639 6.66 0.65 9.26 0.0205 2.28-0.551 3.36-0.604 3.36-0.166 0 0.176-0.324 0.32-0.72 0.32-0.396 0-1.73 0.214-2.96 0.474-2.78 0.589-7.34 0.587-8.64-3e-3zm-40.3-0.142c-0.171-0.171-2.18-0.407-4.46-0.524-2.29-0.118-4.52-0.397-4.96-0.622-0.618-0.311-1.65-0.342-4.31-0.128-1.93 0.154-3.84 0.194-4.26 0.0894-0.418-0.105-0.853-0.0508-0.966 0.121-0.528 0.8-14.4 1.22-15.2 0.455-0.174-0.174-0.23-0.542-0.124-0.818 0.21-0.546 1.5-0.68 1.99-0.206 0.339 0.329 4.92 0.541 9.15 0.422 2.41-0.0678 2.76-0.15 2.72-0.638-0.0409-0.515 0.511-0.567 6.83-0.651 6.12-0.0809 6.92-0.0322 7.27 0.444 0.27 0.37 1.23 0.639 3.11 0.872 2.41 0.298 2.79 0.274 3.32-0.204 0.329-0.298 1.04-0.541 1.58-0.541 0.583 0 1.66-0.441 2.63-1.08 0.901-0.593 2.43-1.42 3.39-1.83 1.71-0.739 2.23-1.25 1.27-1.25-0.264 0-0.48-0.16-0.48-0.356 0-0.232 0.363-0.283 1.04-0.145 0.572 0.116 1.51 0.292 2.08 0.391 1.33 0.231 1.32 0.782-0.0587 1.83-1.32 1-1.6 1.05-1.14 0.198 0.241-0.451 0.242-0.64 2e-3 -0.64-0.555 0-4.08 1.87-5.7 3.01-2.71 1.93-4.07 2.44-4.72 1.79zm1.46-0.649c0-0.176-0.0635-0.32-0.141-0.32-0.0776 0-0.23 0.144-0.339 0.32-0.109 0.176-0.0453 0.32 0.141 0.32 0.186 0 0.339-0.144 0.339-0.32zm32.2 0.747c-0.441-0.441-0.185-0.747 0.626-0.747 0.71 0 0.778 0.0741 0.441 0.48-0.433 0.522-0.736 0.598-1.07 0.267zm-3.89-0.427c-0.109-0.176 0.0987-0.32 0.461-0.32 0.362 0 0.659 0.144 0.659 0.32s-0.208 0.32-0.461 0.32c-0.254 0-0.55-0.144-0.659-0.32zm-157-4.34c0-0.126 0.306-0.724 0.68-1.33l0.68-1.1-1.12 0.211c-1.84 0.345-2.01-1.07-0.367-3.02 1.12-1.33 1.58-0.937 0.595 0.51-1.15 1.69-1.05 2.01 0.48 1.6 1.08-0.287 1.28-0.479 1.36-1.29 0.0526-0.524 0.268-1.01 0.479-1.08 0.262-0.0858 0.414 0.466 0.48 1.74l0.0966 1.86 0.507-1.44c0.628-1.79 1.4-2.04 1.72-0.575 0.251 1.14 0.282 1.1 0.808-0.945 0.485-1.89 1.06-1.77 0.784 0.16-0.121 0.836-0.351 1.77-0.511 2.08-0.356 0.686-1.18 0.732-1.43 0.08-0.279-0.727-0.577-0.581-0.978 0.48-0.4 1.06-1.49 1.32-1.83 0.44-0.16-0.417-0.341-0.311-0.914 0.535-0.672 0.992-1.51 1.6-1.51 1.09zm7.58-2.27c-0.747-0.747 0.187-3.5 1.28-3.78 0.461-0.116 0.733-0.467 0.8-1.03 0.122-1.03 0.901-1.42 0.901-0.451 0 0.367 0.166 0.667 0.37 0.667 0.229 0 0.178 0.213-0.133 0.56-0.659 0.734-1.14 3.16-0.559 2.8 0.268-0.166 0.356-0.1 0.258 0.194-0.314 0.943-1.05 0.446-1.16-0.775-0.132-1.6-0.826-1.39-0.961 0.285-0.105 1.3-0.422 1.91-0.8 1.53zm3.85-0.311c-0.407-0.407-0.241-2.2 0.27-2.93 0.62-0.885 1.42-0.925 1.42-0.0712 0 0.352-0.139 0.64-0.309 0.64-0.569 0-1.07 1.31-0.658 1.71 0.563 0.553 1.41-0.678 1.88-2.72 0.4-1.75 1.16-3.11 1.52-2.75 0.111 0.111 0.0232 1.15-0.196 2.31s-0.317 2.19-0.217 2.29c0.0994 0.0994 0.493-0.483 0.874-1.29 1.09-2.33 1.71-1.91 1.38 0.926-0.219 1.86-0.72 1.86-0.78-1e-3l-0.031-0.96-0.455 1.04c-0.519 1.19-1.39 1.37-1.65 0.353-0.163-0.624-0.227-0.587-0.691 0.4-0.496 1.05-1.78 1.63-2.36 1.05zm-2.79-5.08c0-0.264 0.144-0.48 0.32-0.48s0.32 0.216 0.32 0.48-0.144 0.48-0.32 0.48-0.32-0.216-0.32-0.48zm-14.5-19.1c-0.0975-0.396-0.277-1.84-0.399-3.2-0.194-2.17-0.157-2.48 0.303-2.48 0.436 0 0.524 0.378 0.524 2.24 0 1.74 0.103 2.24 0.463 2.24 0.376 0 0.4 0.181 0.129 0.96-0.398 1.14-0.776 1.23-1.02 0.24zm109-1.42c-0.551-0.551 0.0859-0.683 3.56-0.737 4.01-0.0631 9.68-0.19 21.9-0.49 4.65-0.114 7.6-0.0696 7.6 0.114 0 0.178-4.92 0.387-12.1 0.513-14.6 0.257-20.2 0.433-20.5 0.645-0.142 0.0875-0.35 0.0671-0.462-0.0455zm-107-0.482c-0.211-0.211-0.384-0.715-0.384-1.12 0-1.04 1.2-1.01 1.46 0.0458 0.314 1.25-0.296 1.86-1.08 1.07zm5.53 0.0558c-0.122-0.198 0.0811-0.682 0.452-1.08 0.852-0.907 0.845-1.09-0.0465-1.21-0.513-0.0729-0.693-0.286-0.626-0.742 0.158-1.07 0.765-2.4 1.1-2.4 0.173 0 0.227 0.229 0.12 0.51-0.604 1.58-0.587 2.05 0.0735 2.05 0.933 0 1.11 0.482 0.568 1.53-0.635 1.23-1.35 1.81-1.64 1.34zm4.55 0.121c-0.121-0.121-0.22-0.578-0.22-1.02 0-0.751-0.0332-0.766-0.585-0.267-1 0.909-1.33 0.644-1.33-1.07 0-1.86 0.551-2.17 0.707-0.4l0.106 1.2 0.444-1.36c0.556-1.7 0.983-1.75 0.983-0.106 0 0.69 0.0972 1.51 0.216 1.82 0.201 0.523 0.234 0.519 0.473-0.0538 0.201-0.484 0.241-0.415 0.184 0.319-0.0714 0.919-0.54 1.37-0.973 0.938zm1.95-0.328c0.224-0.09 0.62-0.575 0.88-1.08 0.537-1.04 0.648-3.01 0.153-2.71-0.176 0.109-0.32 0.468-0.32 0.798 0 0.33-0.152 1-0.338 1.49-0.271 0.712-0.398 0.796-0.635 0.421-0.339-0.536-0.405-3.9-0.107-5.39 0.341-1.7 0.648-1.1 0.508 1-0.121 1.83-0.0912 1.95 0.345 1.37 0.419-0.551 0.545-0.572 1.03-0.173 1.05 0.871-0.0675 4.52-1.37 4.46-0.345-0.0158-0.4-0.0868-0.146-0.189zm161 0.0227c-0.13-0.13-4.38-0.268-9.44-0.306-5.06-0.0381-11.1-0.0857-13.5-0.106-2.36-0.02-4.2-0.125-4.1-0.233 0.108-0.108 6.36-0.144 13.9-0.08 7.53 0.0644 16 0.0938 18.9 0.0654 3.02-0.03 5.2 0.0729 5.2 0.245 0 0.163-0.396 0.304-0.88 0.313-0.484 9e-3 -2.9 0.0891-5.36 0.178-2.47 0.0887-4.59 0.0546-4.72-0.0759zm-32.2-0.449c0-0.176 0.512-0.32 1.14-0.32 0.678 0 1.06 0.13 0.941 0.32-0.109 0.176-0.621 0.32-1.14 0.32-0.518 0-0.941-0.144-0.941-0.32zm3.28-0.221c0.308-0.0805 0.812-0.0805 1.12 0s0.056 0.146-0.56 0.146-0.868-0.0659-0.56-0.146zm-150-2.9c0.166-0.862 3.39-2.65 4.73-2.62l1.13 0.0252-0.96 0.335c-0.528 0.184-1.71 0.893-2.63 1.57-1.82 1.36-2.44 1.54-2.27 0.68zm45.6-0.343c-0.684-0.756-1.25-3.73-0.996-5.25 0.589-3.55 3.95-3.73 4.94-0.263 0.94 3.28-2.11 7.54-3.94 5.51zm1.75-0.138c0.57-0.471 1.66-2.16 1.39-2.16-0.101 0-0.743 0.322-1.43 0.715-0.683 0.393-1.33 0.632-1.43 0.53-0.102-0.102 0.0327-0.801 0.299-1.56 0.566-1.6 0.579-1.71 0.189-1.47-0.162 0.1-0.546-0.0696-0.853-0.377-0.532-0.532-0.548-0.47-0.344 1.27 0.357 3.03 1.04 3.99 2.17 3.05zm1.74-3.52c0.235-0.74-0.0697-2.07-0.695-3.04-0.67-1.04-1.92-0.946-2.5 0.179-0.526 1.02-0.329 1.5 0.608 1.5 0.467 0 0.668 0.248 0.745 0.919 0.0578 0.505-0.0502 1.07-0.24 1.26-0.687 0.687-0.321 0.835 0.772 0.314 0.614-0.293 1.2-0.805 1.31-1.14zm-54.2-11.8c0-0.44 0.0726-0.62 0.161-0.4 0.0888 0.22 0.0888 0.58 0 0.8s-0.161 0.04-0.161-0.4zm0.389-8.16c6.4e-4 -1.94 0.0534-2.69 0.117-1.67 0.0637 1.02 0.0631 2.6-1e-3 3.52-0.0644 0.918-0.117 0.0843-0.116-1.85zm-0.0944-4.19c0.0154-0.373 0.0912-0.449 0.193-0.193 0.0924 0.231 0.0811 0.507-0.0252 0.613-0.106 0.106-0.182-0.0827-0.168-0.42zm0.049-2.37c0-0.616 0.0659-0.868 0.146-0.56 0.0805 0.308 0.0805 0.812 0 1.12s-0.146 0.056-0.146-0.56zm0.32-6.08c0-0.616 0.0659-0.868 0.146-0.56 0.0805 0.308 0.0805 0.812 0 1.12-0.0805 0.308-0.146 0.056-0.146-0.56zm0.47-3.75c0.248-1.61 0.416-1.74 0.416-0.319 0 0.635-0.135 1.24-0.301 1.34-0.18 0.111-0.226-0.301-0.115-1.02zm19.2-14c-0.132-0.134-0.24-0.744-0.24-1.36 0-1.29-0.845-2.16-1.55-1.57-0.313 0.26-0.586 0.255-1.02-0.0175-0.492-0.307-0.628-0.269-0.782 0.217-0.103 0.324-0.457 0.833-0.787 1.13-0.885 0.801-1.17 0.036-0.364-0.985 0.855-1.09 0.833-1.39-0.1-1.39-0.418 0-0.938-0.213-1.15-0.474-0.728-0.877 1.36-5.3 2.14-4.53 0.121 0.121-0.168 1.01-0.642 1.98-0.474 0.967-0.862 1.87-0.862 2.01 0 0.137 0.503 0.249 1.12 0.249 0.796 0 1.17-0.166 1.3-0.576 0.349-1.1 0.87-0.617 0.676 0.624-0.172 1.1-0.15 1.15 0.278 0.579 0.256-0.342 0.465-0.822 0.465-1.07 0-0.711 0.761-0.261 0.999 0.592 0.132 0.471 0.229-0.148 0.249-1.57 0.0234-1.72 0.138-2.31 0.432-2.21 0.22 0.0732 0.472 0.545 0.56 1.05s0.304 0.909 0.48 0.902c0.494-0.021 1.1 0.928 1.11 1.74 0.0119 0.858-1.15 3.27-1.58 3.27-0.161 0-0.338 0.374-0.393 0.831-0.0557 0.457-0.209 0.721-0.341 0.587zm-12.7-0.521c-0.22-0.22-0.384-1.27-0.384-2.46 0-1.62-0.0853-1.99-0.384-1.7-0.211 0.211-0.733 0.384-1.16 0.384-0.64 0-0.708-0.0808-0.391-0.462 0.409-0.493 3.3-2.42 3.63-2.42 0.293 0-0.0533 2.29-0.411 2.72-0.394 0.475-0.523 3.03-0.189 3.76 0.292 0.641-0.138 0.747-0.709 0.176zm1.79-1.39c-0.409-0.409 0.59-1.65 1.58-1.96 1-0.314 1.06-0.293 0.863 0.34-0.41 1.35-1.79 2.27-2.44 1.62zm17.7-2.12c0-0.205 0.0947-0.279 0.211-0.163 0.23 0.23 1.07-0.355 1.07-0.746 0-0.134-0.288-0.319-0.64-0.411-0.864-0.226-0.851-1.79 0.0232-2.9 0.736-0.936 1.9-1.14 1.9-0.329 0 0.321-0.177 0.446-0.471 0.333-0.526-0.202-1.45 0.909-1.45 1.74 0 0.291 0.307 0.734 0.682 0.983 0.929 0.617 0.565 1.86-0.544 1.86-0.428 0-0.778-0.168-0.778-0.373zm-3.01-0.858c-0.211-0.342 1.33-1.19 1.63-0.899 0.119 0.119-0.0604 0.427-0.4 0.684-0.717 0.543-0.994 0.591-1.23 0.215zm5.8 0.0719c-0.403-0.403-0.242-1.76 0.322-2.71 0.645-1.09 1.69-1.26 1.69-0.268 0 0.931-0.577 1.9-1.13 1.9-0.258 0-0.469 0.161-0.469 0.357 0 0.203 0.284 0.283 0.658 0.185 0.418-0.109 0.613-0.0355 0.535 0.203-0.143 0.434-1.27 0.669-1.61 0.335zm7.82-0.196c-0.218-0.218-0.64-0.398-0.939-0.4-0.686-0.0047-1.46-1.57-1.19-2.41 0.306-0.965 0.797-0.425 0.797 0.878 0 1.13 0.0113 1.14 0.64 0.572 0.352-0.319 0.64-0.817 0.64-1.11 0-0.291 0.211-0.809 0.47-1.15 0.567-0.75 0.62-0.287 0.182 1.6-0.161 0.694-0.21 1.4-0.108 1.56 0.24 0.389 0.743-0.482 1.54-2.66 0.487-1.34 0.812-1.78 1.36-1.86 1.08-0.154 1.02 1.65-0.0802 2.37-0.745 0.488-1.13 1.73-0.536 1.73 0.5 0 1.61-1.44 2.14-2.8 0.509-1.28 1.32-2 0.894-0.8-0.161 0.457-0.118 0.487 0.234 0.16 0.237-0.22 0.695-0.4 1.02-0.4 0.475 0 0.574 0.227 0.522 1.2-0.035 0.66-0.197 1.47-0.36 1.79-0.475 0.954-0.871 0.159-0.575-1.15 0.149-0.66 0.225-1.2 0.17-1.2-0.0551 0-0.412 0.504-0.792 1.12s-0.88 1.12-1.11 1.12c-0.229 0-0.653 0.36-0.941 0.8-0.539 0.822-1.59 1.07-1.96 0.456-0.133-0.215-0.386-0.095-0.677 0.32-0.537 0.767-0.787 0.817-1.34 0.267zm3.47-4.12c0-0.176-0.144-0.231-0.32-0.122-0.176 0.109-0.32 0.342-0.32 0.518s0.144 0.231 0.32 0.122c0.176-0.109 0.32-0.342 0.32-0.518zm10 3.56c-0.378-0.153-0.774-0.418-0.88-0.59-0.106-0.172-0.915-0.412-1.8-0.533-2.26-0.311-2.96-1.83-1.57-3.4 0.573-0.65 0.633-0.666 0.423-0.115-0.357 0.94-0.339 2.54 0.03 2.66 0.176 0.0547 0.439-0.401 0.586-1.01 0.146-0.612 0.539-1.36 0.873-1.66 0.575-0.521 0.62-0.519 0.829 0.0274 0.128 0.334-4e-3 0.97-0.313 1.51-0.661 1.15-0.674 1.52-0.0549 1.52 0.271 0 0.48-0.286 0.48-0.656 0-0.887 0.727-2.22 1.71-3.14 0.444-0.415 0.738-0.936 0.652-1.16-0.0851-0.222 0.291-0.849 0.836-1.39 2.84-2.84 6.93-0.628 5.81 3.14-0.541 1.81-1.7 3.03-3.94 4.15-2.05 1.03-2.54 1.11-3.66 0.661zm3.09-0.988c2.67-1.21 4.16-3.14 4.16-5.38 0-0.958-0.178-1.4-0.711-1.78-1.29-0.906-3.62-0.424-4.75 0.987-0.353 0.439-0.185 0.401 0.743-0.165 0.66-0.403 1.2-0.576 1.2-0.386 0 0.19-0.128 0.346-0.285 0.346-0.568 0-3.48 2.89-3.88 3.84-0.578 1.39-0.215 1.5 1.22 0.365 0.687-0.545 1.32-0.918 1.41-0.831 0.351 0.351 0.954-0.867 0.954-1.93 0-1.09 0.595-1.55 1.05-0.823 0.104 0.168 0.418 0.218 0.699 0.11 0.456-0.175 0.454-0.11-0.0208 0.614-0.505 0.771-0.5 0.817 0.12 0.98 1.05 0.275 0.767 1.36-0.687 2.61-0.736 0.63-1.53 1.14-1.76 1.14-0.571 0-0.535-0.788 0.0576-1.28 0.317-0.263 0.48-0.28 0.48-0.0492 0 0.556 0.873 0.0698 1.45-0.805 0.752-1.15 0.407-1.23-1.11-0.277-0.727 0.459-1.43 0.77-1.56 0.69-0.128-0.0793-0.729 0.26-1.34 0.755-0.952 0.777-1.04 0.969-0.676 1.41 0.565 0.681 1.48 0.638 3.23-0.152zm-5.13-3.01c0-0.176-0.14-0.104-0.31 0.16-0.171 0.264-0.31 0.624-0.31 0.8 0 0.176 0.14 0.104 0.31-0.16 0.171-0.264 0.31-0.624 0.31-0.8zm124-1.1c0.442-0.303 3.47-0.502 3.17-0.208-0.0733 0.0715-0.925 0.221-1.89 0.333-1.25 0.144-1.62 0.108-1.28-0.125zm3.65-0.293c0.0934-0.151 1-0.362 2.02-0.469s4.37-0.486 7.45-0.842c6.06-0.702 8.64-0.814 8.64-0.376 0 0.153-1.48 0.389-3.28 0.524-1.8 0.135-3.64 0.278-4.08 0.318-0.44 0.0403-2.02 0.172-3.52 0.292-1.5 0.12-3.58 0.354-4.64 0.521-2.38 0.375-2.8 0.38-2.59 0.0323zm-174-24.1c-0.124-0.201-0.0827-0.51 0.0929-0.685 0.466-0.466 1.83-0.186 1.83 0.375 0 0.581-1.6 0.838-1.93 0.31zm0.497-7.01c-0.182-0.34-0.331-0.86-0.331-1.15 0-0.441 0.14-0.402 0.794 0.219 0.437 0.414 0.797 0.934 0.8 1.15 9e-3 0.625-0.895 0.469-1.26-0.219zm0.216-3.43c-0.337-0.547-0.612-3.31-0.33-3.31 0.437 0 1.14 2.93 0.791 3.28-0.163 0.163-0.371 0.176-0.461 0.0285zm-0.0146-12.8c-0.894-0.894-1-1.29-0.622-2.26 0.19-0.482 0.262-0.417 0.402 0.365 0.105 0.588 0.475 1.1 0.969 1.35 0.439 0.219 0.798 0.571 0.798 0.782 0 0.722-0.694 0.616-1.55-0.237zm-0.14-9.41c-0.309-1.22-0.289-1.28 0.416-1.28 0.561 0 0.791 0.23 0.95 0.952 0.429 1.95-0.873 2.27-1.37 0.328z" stroke-width=".32"/>
</svg>
