<?xml version="1.0" encoding="UTF-8"?>
<svg width="528.7" height="370.4" version="1.1" viewBox="0 0 528.69576 370.40286" xmlns="http://www.w3.org/2000/svg">
 <g transform="translate(-156.98 -49.357)" stroke-width=".64">
  <path d="m188.98 389.63c-1.3869-1.728-2.4578-192.77-1.5203-271.23l0.37853-31.68h31.36l0.40506 35.52c1.0579 92.771 1.697 266.59 0.98281 267.31-0.29267 0.29342-7.3736 0.61972-15.735 0.72512-11.885 0.14981-15.349 0.0101-15.871-0.64zm28.298-271.55v-29.44h-27.52l-0.1664 29.613-0.1664 29.612 13.926-0.17249 13.926-0.1725zm-15.36-7.8975c-6.5672-2.1679-7.4363-10.898-1.3715-13.776 2.6995-1.281 3.6812-1.3018 6.4695-0.13672 4.827 2.0168 5.6669 9.9315 1.3539 12.758-1.7429 1.142-4.8222 1.6935-6.452 1.1554zm123.3 276.18c-0.47593-0.57346-2.0085-19.105-4.2765-51.708-1.9441-27.948-3.9459-56.431-4.4486-63.295-0.50261-6.864-1.067-16.08-1.2542-20.48-0.65386-15.367-6.1243-91.87-6.8189-95.36-0.38528-1.936-4.1303-17.267-8.3223-34.07-4.192-16.802-7.6218-30.954-7.6218-31.448 0-1.1658 29.749-8.6845 30.642-7.7444 0.32534 0.34243 3.9546 14.015 8.065 30.383 6.2652 24.949 7.7128 29.967 8.9533 31.04 1.2829 1.1097 1.5708 2.2284 2.1644 8.4103 0.37656 3.9217 1.3196 9.8944 2.0956 13.273 1.326 5.7725 1.346 6.2142 0.33168 7.3349-1.0143 1.1208-0.86872 4.2694 2.4198 52.327 1.9245 28.124 3.4768 53.295 3.4494 55.935-0.0273 2.64 1.4705 26.805 3.3285 53.7 3.0796 44.579 3.2876 48.966 2.3539 49.649-0.60386 0.44155-6.3559 1.0726-14.014 1.5375-7.1444 0.43369-13.736 0.92857-14.648 1.0997-0.97886 0.18371-1.9619-0.0549-2.3998-0.58258zm-1.7793-242.02c6.9976-0.51213 12.811-1.0196 12.92-1.1278 0.25779-0.25778-14.108-57.672-14.65-58.548-0.57268-0.92662-26.027 5.4577-26.481 6.6419-0.2527 0.65852 11.43 48.668 12.94 53.176 0.32986 0.98479-0.18003 0.98951 15.271-0.1413zm-14.761-36.475c-5.0425-2.1931-5.385-10.54-0.53892-13.134 3.621-1.9379 8.5995-0.65556 10.312 2.6562 2.0134 3.8934 0.43492 8.9541-3.2766 10.505-2.6738 1.1172-3.8771 1.1121-6.4966-0.0271zm283.3 134.39c-22.343-24.458-41.343-44.757-42.223-45.109-3.9929-1.5988-79.185-24.978-80.341-24.98-0.71552-1e-3 -3.2796 1.0482-5.698 2.3324-3.0118 1.5993-4.6834 2.1538-5.306 1.76-0.49985-0.31618-1.9677-2.5826-3.262-5.0365-2.1986-4.1686-2.5811-4.5478-5.8241-5.7729-1.909-0.72121-3.5822-1.6451-3.7182-2.0531-0.136-0.40799 0.18426-2.1949 0.71168-3.9709l0.95894-3.2291-3.9098-7.5362c-2.1504-4.1449-9.3412-17.904-15.98-30.576-6.6385-12.672-11.989-23.616-11.891-24.32 0.13393-0.9575 3.646-3.0887 13.939-8.4586 12.921-6.7408 13.824-7.1116 14.802-6.08 0.57291 0.60425 7.7262 13.915 15.896 29.579 8.1701 15.664 15.333 28.966 15.918 29.559 0.58709 0.5958 20.226 7.1039 43.831 14.525 36.306 11.414 42.997 13.34 44.293 12.75 1.3083-0.59612 1.8283-0.42949 3.6494 1.1695 1.4169 1.2441 4.3885 2.56 8.9287 3.9541 3.7428 1.1492 7.1232 2.4728 7.5121 2.9414 0.5242 0.63162 0.39743 1.8469-0.49018 4.6988-0.73677 2.3673-0.98833 4.2201-0.65405 4.8174 0.29876 0.53385 16.836 18.785 36.75 40.557 19.914 21.773 36.478 40.074 36.809 40.67 0.49459 0.89087-1.4488 2.9689-10.923 11.68-6.3386 5.828-11.892 10.596-12.34 10.596s-19.095-20.011-41.438-44.468z" fill="#89d7f5"/>
  <path d="m188.98 389.63c-1.3869-1.728-2.4578-192.77-1.5203-271.23l0.37853-31.68h31.36l0.40506 35.52c1.0579 92.771 1.697 266.59 0.98281 267.31-0.29267 0.29342-7.3736 0.61972-15.735 0.72512-11.885 0.14981-15.349 0.0101-15.871-0.64zm29.873-2.1506c0.47797-0.47757 0.49597-11.095 0.0607-35.789-0.34039-19.311-0.44427-40.751-0.23087-47.645 0.21342-6.8938 0.18313-13.9-0.0673-15.571l-0.45534-3.0364h-28.576l0.21198 43.68c0.11659 24.024 0.39734 47.136 0.62388 51.36l0.41192 7.68h13.67c8.7833 0 13.913-0.24274 14.35-0.67899zm-1.5744-269.4v-29.44h-27.52l-0.1664 29.613-0.1664 29.612 13.926-0.17249 13.926-0.1725zm-15.36-7.8975c-6.5672-2.1679-7.4363-10.898-1.3715-13.776 2.6995-1.281 3.6812-1.3018 6.4695-0.13672 4.827 2.0168 5.6669 9.9315 1.3539 12.758-1.7429 1.142-4.8222 1.6935-6.452 1.1554zm123.3 276.18c-0.47593-0.57346-2.0085-19.105-4.2765-51.708-1.9441-27.948-3.9459-56.431-4.4486-63.295-0.50261-6.864-1.067-16.08-1.2542-20.48-0.65386-15.367-6.1243-91.87-6.8189-95.36-0.38528-1.936-4.1303-17.267-8.3223-34.07-4.192-16.802-7.6218-30.954-7.6218-31.448 0-1.1658 29.749-8.6845 30.642-7.7444 0.32534 0.34243 3.9546 14.015 8.065 30.383 6.2652 24.949 7.7128 29.967 8.9533 31.04 1.2829 1.1097 1.5708 2.2284 2.1644 8.4103 0.37656 3.9217 1.3196 9.8944 2.0956 13.273 1.326 5.7725 1.346 6.2142 0.33168 7.3349-1.0143 1.1208-0.86872 4.2694 2.4198 52.327 1.9245 28.124 3.4768 53.295 3.4494 55.935-0.0273 2.64 1.4705 26.805 3.3285 53.7 3.0796 44.579 3.2876 48.966 2.3539 49.649-0.60386 0.44155-6.3559 1.0726-14.014 1.5375-7.1444 0.43369-13.736 0.92857-14.648 1.0997-0.97886 0.18371-1.9619-0.0549-2.3998-0.58258zm11.098-2.0284c9.3168-0.51377 13.766-0.87246 16.507-1.3307l2.427-0.40576-0.38497-6.1792c-0.21173-3.3986-0.49471-7.7632-0.62883-9.6992-1.4234-20.546-1.4612-21.102-1.8722-27.52-0.19162-2.992-0.50362-7.456-0.69334-9.92s-0.4759-6.496-0.63596-8.96c-0.16007-2.464-0.44783-6.64-0.63948-9.28-0.19164-2.64-0.47976-6.816-0.64025-9.28-0.1605-2.464-0.47952-6.928-0.70894-9.92s-0.38299-6.448-0.34128-7.68c0.13379-3.9511 0.41367-3.8938-14.014-2.8689-7.2022 0.51164-13.6 0.93444-14.218 0.93956-1.1865 0.01-1.1919 0.51705-0.15497 14.729 0.16693 2.288 0.46323 6.608 0.65843 9.6 0.19522 2.992 0.47463 7.168 0.62094 9.28s0.41593 6 0.59917 8.64 0.49055 7.104 0.68292 9.92c0.19236 2.816 0.47999 6.992 0.63915 9.28 0.15917 2.288 0.43378 6.32 0.61023 8.96 0.17646 2.64 0.46837 6.816 0.64869 9.28 0.559 7.6386 1.0882 15.862 1.228 19.083 0.13721 3.161 1.1331 4.4996 2.9509 3.9665 0.528-0.15485 3.84-0.44035 7.36-0.63446zm-12.877-240c6.9976-0.51213 12.811-1.0196 12.92-1.1278 0.25779-0.25778-14.108-57.672-14.65-58.548-0.57268-0.92662-26.027 5.4577-26.481 6.6419-0.2527 0.65852 11.43 48.668 12.94 53.176 0.32986 0.98479-0.18003 0.98951 15.271-0.1413zm-14.761-36.475c-5.0425-2.1931-5.385-10.54-0.53892-13.134 3.621-1.9379 8.5995-0.65556 10.312 2.6562 2.0134 3.8934 0.43492 8.9541-3.2766 10.505-2.6738 1.1172-3.8771 1.1121-6.4966-0.0271zm283.3 134.39c-22.343-24.458-41.343-44.757-42.223-45.109-3.9929-1.5988-79.185-24.978-80.341-24.98-0.71552-1e-3 -3.2796 1.0482-5.698 2.3324-3.0118 1.5993-4.6834 2.1538-5.306 1.76-0.49985-0.31618-1.9677-2.5826-3.262-5.0365-2.1986-4.1686-2.5811-4.5478-5.8241-5.7729-1.909-0.72121-3.5822-1.6451-3.7182-2.0531-0.136-0.40799 0.18426-2.1949 0.71168-3.9709l0.95894-3.2291-3.9098-7.5362c-2.1504-4.1449-9.3412-17.904-15.98-30.576-6.6385-12.672-11.989-23.616-11.891-24.32 0.13393-0.9575 3.646-3.0887 13.939-8.4586 12.921-6.7408 13.824-7.1116 14.802-6.08 0.57291 0.60425 7.7262 13.915 15.896 29.579 8.1701 15.664 15.333 28.966 15.918 29.559 0.58709 0.5958 20.226 7.1039 43.831 14.525 36.306 11.414 42.997 13.34 44.293 12.75 1.3083-0.59612 1.8283-0.42949 3.6494 1.1695 1.4169 1.2441 4.3885 2.56 8.9287 3.9541 3.7428 1.1492 7.1232 2.4728 7.5121 2.9414 0.5242 0.63162 0.39743 1.8469-0.49018 4.6988-0.73677 2.3673-0.98833 4.2201-0.65405 4.8174 0.29876 0.53385 16.836 18.785 36.75 40.557 19.914 21.773 36.478 40.074 36.809 40.67 0.49459 0.89087-1.4488 2.9689-10.923 11.68-6.3386 5.828-11.892 10.596-12.34 10.596s-19.095-20.011-41.438-44.468z" fill="#e9c6af"/>
  <path d="m189.17 388.32c-0.30978-1.5306-1.0041-75.554-1.3462-143.52-0.11339-22.528-0.39903-53.215-0.63474-68.193-0.35736-22.708-0.28239-27.355 0.45116-27.963 0.56531-0.46916 1.2152-0.51796 1.8183-0.13653 1.2804 0.80979 26.623 0.78409 28.142-0.0285 0.73252-0.39203 1.3426-0.40946 1.568-0.0448 0.71855 1.1626 0.98158 45.547 1.1157 188.26l0.0491 52.218-5.9463 0.42209c-3.2705 0.23214-10.217 0.42208-15.436 0.42208-9.3279 0-9.4944-0.0245-9.7809-1.44zm29.681-0.83899c0.47797-0.47757 0.49597-11.095 0.0607-35.789-0.34039-19.311-0.44427-40.751-0.23087-47.645 0.21342-6.8938 0.18313-13.9-0.0673-15.571l-0.45534-3.0364h-28.576l0.21198 43.68c0.11659 24.024 0.39734 47.136 0.62388 51.36l0.41192 7.68h13.67c8.7833 0 13.913-0.24274 14.35-0.67899zm106.26-2.681c-0.0179-2.2883-7.0952-102-7.9729-112.33-0.50129-5.8995-1.0885-14.684-1.3048-19.52-0.63248-14.138-5.9977-91.132-6.8123-97.76-1.1525-9.3778-2.0208-8.7547 13.922-9.9903 7.3571-0.57019 13.953-1.232 14.657-1.4706 2.5423-0.86191 3.4179 0.78893 4.2154 7.9473 0.41174 3.696 0.85674 9.456 0.98888 12.8 0.44472 11.254 2.1368 36.899 5.6795 86.08 0.8621 11.968 1.533 25.216 1.4909 29.44s1.4276 29.233 3.2661 55.575c1.8384 26.342 3.1752 48.062 2.9705 48.267-0.43652 0.43652-21.266 2.0142-27.091 2.0519-3.3895 0.022-4.0013-0.14504-4.0088-1.0941zm11.209-0.46522c9.3168-0.51377 13.766-0.87246 16.507-1.3307l2.427-0.40576-0.38497-6.1792c-0.21173-3.3986-0.49471-7.7632-0.62883-9.6992-1.4234-20.546-1.4612-21.102-1.8722-27.52-0.19162-2.992-0.50362-7.456-0.69334-9.92s-0.4759-6.496-0.63596-8.96c-0.16007-2.464-0.44783-6.64-0.63948-9.28-0.19164-2.64-0.47976-6.816-0.64025-9.28-0.1605-2.464-0.47952-6.928-0.70894-9.92s-0.38299-6.448-0.34128-7.68c0.13379-3.9511 0.41367-3.8938-14.014-2.8689-7.2022 0.51164-13.6 0.93444-14.218 0.93956-1.1865 0.01-1.1919 0.51705-0.15497 14.729 0.16693 2.288 0.46323 6.608 0.65843 9.6 0.19522 2.992 0.47463 7.168 0.62094 9.28s0.41593 6 0.59917 8.64 0.49055 7.104 0.68292 9.92c0.19236 2.816 0.47999 6.992 0.63915 9.28 0.15917 2.288 0.43378 6.32 0.61023 8.96 0.17646 2.64 0.46837 6.816 0.64869 9.28 0.559 7.6386 1.0882 15.862 1.228 19.083 0.13721 3.161 1.1331 4.4996 2.9509 3.9665 0.528-0.15485 3.84-0.44035 7.36-0.63446zm256.64-141.88c-21.824-23.954-40.688-44.214-41.92-45.021-2.1671-1.421-79.161-25.918-81.456-25.917-0.62479 3.2e-4 -3.1376 1.0086-5.584 2.2406-2.4464 1.232-4.7396 2.24-5.096 2.24-0.35637 0-1.66-2.0096-2.8969-4.4658-2.3541-4.6745-3.5253-5.7631-7.5884-7.0527-2.218-0.70396-2.4216-0.94823-2.0599-2.4713 1.5433-6.4982 2.3898-4.3761-14.935-37.442-8.8274-16.848-15.904-30.868-15.726-31.156 0.17798-0.28796 6.4237-3.7164 13.879-7.6187 10.787-5.6457 13.71-6.9295 14.31-6.2843 0.41491 0.44596 7.4444 13.627 15.621 29.291 8.1766 15.664 15.484 29.119 16.239 29.901 1.0134 1.0487 12.513 4.9205 43.932 14.791 35.548 11.168 42.844 13.271 44.292 12.767 1.4651-0.51073 2.108-0.30809 4.161 1.3114 1.4394 1.1355 5.0343 2.7381 8.8282 3.9356 3.52 1.1111 6.599 2.2168 6.8421 2.4573 0.24316 0.24045-0.0239 2.1062-0.59338 4.1461-0.71604 2.5647-0.85243 4.1738-0.44212 5.2159 0.32636 0.8288 16.865 19.291 36.753 41.027 21.275 23.252 36.16 40.022 36.16 40.739 0 1.2515-21.121 21.022-22.386 20.954-0.35965-0.0192-18.51-19.634-40.334-43.588zm-49.287-52.665c-1.5874-1.9372-2.1636-3.1381-1.8028-3.7576 0.2916-0.50075 4.4182-4.4593 9.1702-8.7967s8.7306-8.1023 8.8413-8.3664c0.11073-0.26406-3.9213-1.7817-8.96-3.3726-43.837-13.841-72.456-22.738-72.618-22.576-0.10671 0.1067 1.8242 4.0563 4.291 8.7769 2.4667 4.7206 4.4005 9.0217 4.2972 9.5579-0.14822 0.76965-10.065 6.8284-12.972 7.9251-0.352 0.13282-0.43478 0.46213-0.18395 0.73182 0.49229 0.5293 70.031 22.612 71.427 22.682 0.46356 0.0234-0.20702-1.2387-1.4902-2.8046zm37.646-14.464c-0.28512-0.27075-2.0601-0.94373-3.9444-1.4955-3.8978-1.1414-3.8872-1.0661 0.51147 3.6411l2.2745 2.4341 0.8384-2.0437c0.46112-1.124 0.60512-2.2652 0.32-2.536zm-118.94-2.967c3.4379-1.6394 3.1946-2.0674-2.0583-3.6196-2.48-0.73284-3.3594-0.7924-3.3576-0.22738 3e-3 0.84755 2.3593 4.9255 2.8465 4.9255 0.16923 0 1.3255-0.48535 2.5694-1.0785zm-12.227-10.761c-0.20261-0.528-0.62557-0.96-0.93991-0.96s-0.57153 0.432-0.57153 0.96 0.42296 0.96 0.93992 0.96c0.57253 0 0.79592-0.37523 0.57152-0.96zm1.6639-18.946c1.5539-4.9644 3.1819-9.1631 3.6177-9.3303 0.43582-0.16724 4.1547 0.74554 8.2642 2.0284 4.1095 1.2829 7.6425 2.1618 7.8512 1.9531 0.4582-0.45819 0.46854-0.43759-15.548-30.975-7.4851-14.271-13.17-24.405-13.691-24.407-0.49029-0.0019-6.0488 2.6609-12.352 5.9169-10.032 5.1818-11.429 6.0914-11.21 7.2944 0.21913 1.2003 26.029 51.297 28.39 55.106 0.49106 0.792 1.109 1.44 1.3731 1.44s1.7516-4.0618 3.3056-9.0263zm-18.266-36.304c-6.0777-3.8172-3.3374-12.909 3.8909-12.909 6.0221 0 9.0274 6.9977 4.9601 11.549-2.2986 2.5724-6.0121 3.1429-8.851 1.3599zm-233.03 2.5155c-3.988-2.4962-4.6445-6.9727-1.5333-10.455 1.6033-1.7944 2.2898-2.0901 4.8525-2.0901s3.2492 0.29565 4.8525 2.0901c5.2014 5.8214-1.6236 14.553-8.1717 10.455zm108.85-1.3023c-4.2522-1.8118-5.3967-7.5181-2.2209-11.072 1.6033-1.7944 2.2898-2.0901 4.8525-2.0901s3.2492 0.29565 4.8525 2.0901c2.5386 2.8412 2.5803 6.379 0.1075 9.122-1.8976 2.105-5.2235 2.9595-7.5916 1.9504z" fill="#78d2f4"/>
  <path d="m189.17 388.32c-0.30978-1.5306-1.0041-75.554-1.3462-143.52-0.11339-22.528-0.39903-53.215-0.63474-68.193-0.35736-22.708-0.28239-27.355 0.45116-27.963 0.56531-0.46916 1.2152-0.51796 1.8183-0.13653 1.2804 0.80979 26.623 0.78409 28.142-0.0285 0.73252-0.39203 1.3426-0.40946 1.568-0.0448 0.71855 1.1626 0.98158 45.547 1.1157 188.26l0.0491 52.218-5.9463 0.42209c-3.2705 0.23214-10.217 0.42208-15.436 0.42208-9.3279 0-9.4944-0.0245-9.7809-1.44zm29.532-0.64c0.39811-0.51204 0.48391-19.065 0.23837-51.544-0.33346-44.11-0.50913-50.827-1.3436-51.377-0.96411-0.63591-26.606-0.1429-27.768 0.53387-0.58339 0.33983 0.0511 99.997 0.64985 102.07 0.29553 1.0215 1.5236 1.12 13.963 1.12 10.152 0 13.797-0.20449 14.26-0.8zm106.41-2.88c-0.0179-2.2883-7.0952-102-7.9729-112.33-0.50129-5.8995-1.0885-14.684-1.3048-19.52-0.63248-14.138-5.9977-91.132-6.8123-97.76-1.1525-9.3778-2.0208-8.7547 13.922-9.9903 7.3571-0.57019 13.953-1.232 14.657-1.4706 2.5423-0.86191 3.4179 0.78893 4.2154 7.9473 0.41174 3.696 0.85674 9.456 0.98888 12.8 0.44472 11.254 2.1368 36.899 5.6795 86.08 0.8621 11.968 1.533 25.216 1.4909 29.44s1.4276 29.233 3.2661 55.575c1.8384 26.342 3.1752 48.062 2.9705 48.267-0.43652 0.43652-21.266 2.0142-27.091 2.0519-3.3895 0.022-4.0013-0.14504-4.0088-1.0941zm17.609-0.8258c5.632-0.37463 10.744-0.82949 11.36-1.0108 0.84341-0.24824 1.1117-0.99074 1.0862-3.0065-0.11599-9.1935-6.8264-99.073-7.4428-99.689-0.91073-0.91072-26.767 0.75973-27.803 1.7963-1.0151 1.0151 5.9639 101.86 7.0977 102.56 0.45378 0.28044 1.8684 0.40168 3.1435 0.26941 1.2752-0.13227 6.9265-0.54701 12.558-0.92164zm250.24-141.52c-21.824-23.954-40.688-44.214-41.92-45.021-2.1671-1.421-79.161-25.918-81.456-25.917-0.62479 3.2e-4 -3.1376 1.0086-5.584 2.2406-2.4464 1.232-4.7396 2.24-5.096 2.24-0.35637 0-1.66-2.0096-2.8969-4.4658-2.3541-4.6745-3.5253-5.7631-7.5884-7.0527-2.218-0.70396-2.4216-0.94823-2.0599-2.4713 1.5433-6.4982 2.3898-4.3761-14.935-37.442-8.8274-16.848-15.904-30.868-15.726-31.156 0.17798-0.28796 6.4237-3.7164 13.879-7.6187 10.787-5.6457 13.71-6.9295 14.31-6.2843 0.41491 0.44596 7.4444 13.627 15.621 29.291 8.1766 15.664 15.484 29.119 16.239 29.901 1.0134 1.0487 12.513 4.9205 43.932 14.791 35.548 11.168 42.844 13.271 44.292 12.767 1.4651-0.51073 2.108-0.30809 4.161 1.3114 1.4394 1.1355 5.0343 2.7381 8.8282 3.9356 3.52 1.1111 6.599 2.2168 6.8421 2.4573 0.24316 0.24045-0.0239 2.1062-0.59338 4.1461-0.71604 2.5647-0.85243 4.1738-0.44212 5.2159 0.32636 0.8288 16.865 19.291 36.753 41.027 21.275 23.252 36.16 40.022 36.16 40.739 0 1.2515-21.121 21.022-22.386 20.954-0.35965-0.0192-18.51-19.634-40.334-43.588zm51.493 31.923c5.2948-4.8506 9.627-9.0748 9.627-9.3871 0-0.84267-71.583-79.042-72.553-79.26-0.55606-0.12459-1.7531 2.7841-3.6215 8.8-2.2031 7.0934-3.0281 8.9861-3.9172 8.9861-0.61946 0-4.7542-1.152-9.1882-2.56-8.9527-2.8428-9.5703-2.9589-8.8318-1.6596 0.28149 0.49523 17.648 19.657 38.592 42.582 25.802 28.242 38.432 41.623 39.173 41.5 0.60117-0.10008 5.4252-4.1506 10.72-9.0012zm-100.78-84.588c-1.5874-1.9372-2.1636-3.1381-1.8028-3.7576 0.2916-0.50075 4.4182-4.4593 9.1702-8.7967s8.7306-8.1023 8.8413-8.3664c0.11073-0.26406-3.9213-1.7817-8.96-3.3726-43.837-13.841-72.456-22.738-72.618-22.576-0.10671 0.1067 1.8242 4.0563 4.291 8.7769 2.4667 4.7206 4.4005 9.0217 4.2972 9.5579-0.14822 0.76965-10.065 6.8284-12.972 7.9251-0.352 0.13282-0.43478 0.46213-0.18395 0.73182 0.49229 0.5293 70.031 22.612 71.427 22.682 0.46356 0.0234-0.20702-1.2387-1.4902-2.8046zm37.646-14.464c-0.28512-0.27075-2.0601-0.94373-3.9444-1.4955-3.8978-1.1414-3.8872-1.0661 0.51147 3.6411l2.2745 2.4341 0.8384-2.0437c0.46112-1.124 0.60512-2.2652 0.32-2.536zm-118.94-2.967c3.4379-1.6394 3.1946-2.0674-2.0583-3.6196-2.48-0.73284-3.3594-0.7924-3.3576-0.22738 3e-3 0.84755 2.3593 4.9255 2.8465 4.9255 0.16923 0 1.3255-0.48535 2.5694-1.0785zm-12.227-10.761c-0.20261-0.528-0.62557-0.96-0.93991-0.96s-0.57153 0.432-0.57153 0.96 0.42296 0.96 0.93992 0.96c0.57253 0 0.79592-0.37523 0.57152-0.96zm1.6639-18.946c1.5539-4.9644 3.1819-9.1631 3.6177-9.3303 0.43582-0.16724 4.1547 0.74554 8.2642 2.0284 4.1095 1.2829 7.6425 2.1618 7.8512 1.9531 0.4582-0.45819 0.46854-0.43759-15.548-30.975-7.4851-14.271-13.17-24.405-13.691-24.407-0.49029-0.0019-6.0488 2.6609-12.352 5.9169-10.032 5.1818-11.429 6.0914-11.21 7.2944 0.21913 1.2003 26.029 51.297 28.39 55.106 0.49106 0.792 1.109 1.44 1.3731 1.44s1.7516-4.0618 3.3056-9.0263zm-18.266-36.304c-6.0777-3.8172-3.3374-12.909 3.8909-12.909 6.0221 0 9.0274 6.9977 4.9601 11.549-2.2986 2.5724-6.0121 3.1429-8.851 1.3599zm-233.03 2.5155c-3.988-2.4962-4.6445-6.9727-1.5333-10.455 1.6033-1.7944 2.2898-2.0901 4.8525-2.0901s3.2492 0.29565 4.8525 2.0901c5.2014 5.8214-1.6236 14.553-8.1717 10.455zm108.85-1.3023c-4.2522-1.8118-5.3967-7.5181-2.2209-11.072 1.6033-1.7944 2.2898-2.0901 4.8525-2.0901s3.2492 0.29565 4.8525 2.0901c2.5386 2.8412 2.5803 6.379 0.1075 9.122-1.8976 2.105-5.2235 2.9595-7.5916 1.9504z" fill="#cfb496"/>
  <path d="m189.17 388.32c-0.30978-1.5306-1.0041-75.554-1.3462-143.52-0.11339-22.528-0.39903-53.215-0.63474-68.193-0.35736-22.708-0.28239-27.355 0.45116-27.963 0.56531-0.46916 1.2152-0.51796 1.8183-0.13653 1.2804 0.80979 26.623 0.78409 28.142-0.0285 0.73252-0.39203 1.3426-0.40946 1.568-0.0448 0.71855 1.1626 0.98158 45.547 1.1157 188.26l0.0491 52.218-5.9463 0.42209c-3.2705 0.23214-10.217 0.42208-15.436 0.42208-9.3279 0-9.4944-0.0245-9.7809-1.44zm29.532-0.64c0.39811-0.51204 0.48391-19.065 0.23837-51.544-0.33346-44.11-0.50913-50.827-1.3436-51.377-0.96411-0.63591-26.606-0.1429-27.768 0.53387-0.58339 0.33983 0.0511 99.997 0.64985 102.07 0.29553 1.0215 1.5236 1.12 13.963 1.12 10.152 0 13.797-0.20449 14.26-0.8zm-1.0011-169.76c-0.1187-19.712-0.35411-36.344-0.52313-36.96-0.28015-1.021-1.4864-1.12-13.651-1.12-9.9603 0-13.41 0.19877-13.605 0.78395-0.3344 1.0032 0.15408 71.584 0.50293 72.669 0.20278 0.63063 3.3125 0.77405 13.877 0.64l13.615-0.17278zm-0.46355-40.448c0.73296-1.9101-0.39165-26.515-1.2266-26.835-0.41165-0.15796-6.4872-0.0598-13.501 0.21798l-12.753 0.50519-0.20891 7.68c-0.11489 4.224-0.016 10.344 0.21974 13.6l0.42862 5.92h13.312c11.939 0 13.355-0.11221 13.729-1.0882zm-17.881-2.6814c-4.6346-2.139-6.72-5.483-6.72-10.776 0-9.5048 12.135-14.772 19.102-8.2919 3.8016 3.5361 4.8801 8.884 2.734 13.557-1.3983 3.045-2.8255 4.4095-5.9992 5.7356-3.0995 1.295-5.9772 1.224-9.1171-0.22522zm9.7454-5.3649c1.0693-1.0693 1.7039-2.5629 1.926-4.5328 0.30519-2.7077 0.15416-3.115-1.9261-5.1953-1.9395-1.9395-2.6786-2.2573-5.2505-2.2573-2.455 0-3.3296 0.33641-4.864 1.8708-1.5344 1.5344-1.8708 2.409-1.8708 4.864 0 2.5719 0.31776 3.311 2.2573 5.2505 2.0803 2.0803 2.4877 2.2313 5.1953 1.9261 1.9699-0.22204 3.4636-0.85667 4.5328-1.926zm116.01 215.37c-0.0179-2.2883-7.0952-102-7.9729-112.33-0.50129-5.8995-1.0885-14.684-1.3048-19.52-0.63248-14.138-5.9977-91.132-6.8123-97.76-1.1525-9.3778-2.0208-8.7547 13.922-9.9903 7.3571-0.57019 13.953-1.232 14.657-1.4706 2.5423-0.86191 3.4179 0.78893 4.2154 7.9473 0.41174 3.696 0.85674 9.456 0.98888 12.8 0.44472 11.254 2.1368 36.899 5.6795 86.08 0.8621 11.968 1.533 25.216 1.4909 29.44s1.4276 29.233 3.2661 55.575c1.8384 26.342 3.1752 48.062 2.9705 48.267-0.43652 0.43652-21.266 2.0142-27.091 2.0519-3.3895 0.022-4.0013-0.14504-4.0088-1.0941zm17.609-0.8258c5.632-0.37463 10.744-0.82949 11.36-1.0108 0.84341-0.24824 1.1117-0.99074 1.0862-3.0065-0.11599-9.1935-6.8264-99.073-7.4428-99.689-0.91073-0.91072-26.767 0.75973-27.803 1.7963-1.0151 1.0151 5.9639 101.86 7.0977 102.56 0.45378 0.28044 1.8684 0.40168 3.1435 0.26941 1.2752-0.13227 6.9265-0.54701 12.558-0.92164zm-6.443-134.38c4.9044-0.34018 9.0881-0.89529 9.2971-1.2336 0.38071-0.616-4.1819-70.834-4.77-73.41-0.30903-1.3535-0.44053-1.3356-12.606 1.7185-6.7618 1.6974-12.52 2.9468-12.796 2.7763-0.27587-0.1705-0.76817-1.2318-1.094-2.3585-0.50399-1.7428-0.60102-1.3554-0.65013 2.595-0.0632 5.0817 4.2481 69.078 4.745 70.436 0.23108 0.63133 1.3787 0.74702 4.6322 0.46697 2.3788-0.20474 8.3377-0.6506 13.242-0.99078zm-9.6844-73.949c4.9981-1.2504 10.167-2.5575 11.487-2.9047l2.4-0.63115v-3.9495c0-5.2495-1.8671-20.482-2.6036-21.242-0.69937-0.72158-25.605 0.71689-26.416 1.5257-1.058 1.0559 2.1884 22.289 4.3842 28.675 0.37977 1.1045 0.52045 1.0852 10.748-1.4735zm-5.1102-4.7303c-7.6119-3.4559-8.6259-14.395-1.8158-19.589 3.4786-2.6532 8.8401-2.9693 12.636-0.7448 3.6214 2.1223 5.6176 5.6817 5.6176 10.017 0 8.7511-8.3473 13.99-16.438 10.317zm8.6521-4.1416c1.6272-0.84148 2.7012-2.353 3.5292-4.9668 0.18679-0.58975 0.059-2.0886-0.28401-3.3309-1.9893-7.2046-12.858-6.2552-13.773 1.2032-0.72 5.8682 5.1932 9.8531 10.528 7.0946zm262.83 75.683c-21.824-23.954-40.688-44.214-41.92-45.021-2.1671-1.421-79.161-25.918-81.456-25.917-0.62479 3.2e-4 -3.1376 1.0086-5.584 2.2406-2.4464 1.232-4.7396 2.24-5.096 2.24-0.35637 0-1.66-2.0096-2.8969-4.4658-2.3541-4.6745-3.5253-5.7631-7.5884-7.0527-2.218-0.70396-2.4216-0.94823-2.0599-2.4713 1.5433-6.4982 2.3898-4.3761-14.935-37.442-8.8274-16.848-15.904-30.868-15.726-31.156 0.17798-0.28796 6.4237-3.7164 13.879-7.6187 10.787-5.6457 13.71-6.9295 14.31-6.2843 0.41491 0.44596 7.4444 13.627 15.621 29.291 8.1766 15.664 15.484 29.119 16.239 29.901 1.0134 1.0487 12.513 4.9205 43.932 14.791 35.548 11.168 42.844 13.271 44.292 12.767 1.4651-0.51073 2.108-0.30809 4.161 1.3114 1.4394 1.1355 5.0343 2.7381 8.8282 3.9356 3.52 1.1111 6.599 2.2168 6.8421 2.4573 0.24316 0.24045-0.0239 2.1062-0.59338 4.1461-0.71604 2.5647-0.85243 4.1738-0.44212 5.2159 0.32636 0.8288 16.865 19.291 36.753 41.027 21.275 23.252 36.16 40.022 36.16 40.739 0 1.2515-21.121 21.022-22.386 20.954-0.35965-0.0192-18.51-19.634-40.334-43.588zm51.493 31.923c5.2948-4.8506 9.627-9.0748 9.627-9.3871 0-0.84267-71.583-79.042-72.553-79.26-0.55606-0.12459-1.7531 2.7841-3.6215 8.8-2.2031 7.0934-3.0281 8.9861-3.9172 8.9861-0.61946 0-4.7542-1.152-9.1882-2.56-8.9527-2.8428-9.5703-2.9589-8.8318-1.6596 0.28149 0.49523 17.648 19.657 38.592 42.582 25.802 28.242 38.432 41.623 39.173 41.5 0.60117-0.10008 5.4252-4.1506 10.72-9.0012zm-97.941-82.221c-0.46474-0.616-1.7236-2.0715-2.7973-3.2345l-1.9524-2.1145 4.159-3.9797c2.2874-2.1888 6.6062-6.1917 9.5972-8.8953 3.6099-3.263 5.2236-5.1295 4.8-5.5518-1.1959-1.1921-82.392-26.406-83.018-25.78-0.37362 0.37362 1.11 3.8153 3.9299 9.1166 2.4916 4.684 4.5247 8.823 4.5181 9.1979-7e-3 0.37483-3.2056 2.3641-7.1089 4.4206-5.3718 2.8302-6.9172 3.9192-6.3576 4.48 0.87364 0.87554 71.34 23.28 73.557 23.387 1.3444 0.065 1.4216-0.0548 0.67339-1.0466zm35.205-14.73c0.39709-1.3846 0.34422-2.1736-0.17117-2.554-1.1199-0.82673-8.1676-2.8676-8.5573-2.478-0.18647 0.18647 1.3294 2.0882 3.3686 4.2261 2.0392 2.1379 3.9501 3.6446 4.2464 3.3482 0.29635-0.29636 0.79738-1.4404 1.1134-2.5423zm-119.34-5.0687c3.4379-1.6394 3.1946-2.0674-2.0583-3.6196-2.48-0.73284-3.3594-0.7924-3.3576-0.22738 3e-3 0.84755 2.3593 4.9255 2.8465 4.9255 0.16923 0 1.3255-0.48535 2.5694-1.0785zm15.101-7.2612c3.5288-1.7708 6.5912-3.6763 6.8054-4.2343 0.49396-1.2872-7.9712-17.845-9.7246-19.021-0.704-0.4723-4.9596-2.0194-9.457-3.438-7.3098-2.3057-8.2346-2.4683-8.7202-1.533-1.1265 2.1694-5.8228 17.953-5.8228 19.57 0 2.2942 2.2535 6.5473 3.9501 7.4553 2.9415 1.5742 11.844 4.327 14.142 4.3729 1.6863 0.0337 4.3414-0.92021 8.8276-3.1715zm-15.875-0.66733c-2.9307-0.88577-6.3804-4.5741-7.2303-7.7303-1.7359-6.4465 2.6604-13.075 9.1572-13.808 3.9441-0.44456 7.0087 0.7161 9.6706 3.6626 7.4238 8.2172-0.93358 21.099-11.598 17.875zm8.5814-5.2852c1.9767-1.8115 2.3363-2.5618 2.3906-4.9879 0.16137-7.2096-7.8941-10.743-12.955-5.683-4.789 4.789-1.4108 12.803 5.3969 12.803 2.3265 0 3.2612-0.38574 5.167-2.1322zm-18.345 3.7005c0-0.19347-0.46776-1.2563-1.0395-2.3619-0.98586-1.9064-1.0849-1.948-1.92-0.80589-0.95868 1.3111-1.1221 2.4247-0.45387 3.0929 0.51202 0.51202 3.4133 0.57568 3.4133 0.0749zm-0.0247-20.194c1.5539-4.9644 3.1819-9.1631 3.6177-9.3303 0.43582-0.16724 4.1547 0.74554 8.2642 2.0284 4.1095 1.2829 7.6425 2.1618 7.8512 1.9531 0.4582-0.45819 0.46854-0.43759-15.548-30.975-7.4851-14.271-13.17-24.405-13.691-24.407-0.49029-0.0019-6.0488 2.6609-12.352 5.9169-10.032 5.1818-11.429 6.0914-11.21 7.2944 0.21913 1.2003 26.029 51.297 28.39 55.106 0.49106 0.792 1.109 1.44 1.3731 1.44s1.7516-4.0618 3.3056-9.0263zm-18.266-36.304c-6.0777-3.8172-3.3374-12.909 3.8909-12.909 6.0221 0 9.0274 6.9977 4.9601 11.549-2.2986 2.5724-6.0121 3.1429-8.851 1.3599zm-233.03 2.5155c-3.988-2.4962-4.6445-6.9727-1.5333-10.455 1.6033-1.7944 2.2898-2.0901 4.8525-2.0901s3.2492 0.29565 4.8525 2.0901c5.2014 5.8214-1.6236 14.553-8.1717 10.455zm108.85-1.3023c-4.2522-1.8118-5.3967-7.5181-2.2209-11.072 1.6033-1.7944 2.2898-2.0901 4.8525-2.0901s3.2492 0.29565 4.8525 2.0901c2.5386 2.8412 2.5803 6.379 0.1075 9.122-1.8976 2.105-5.2235 2.9595-7.5916 1.9504z" fill="#a6a59f"/>
  <path d="m189.02 284.64c-0.52206-0.84677-1.0708-27.707-0.60407-29.567 0.40815-1.6262 0.52236-1.6875 1.2611-0.67729 0.73156 1.0005 2.1705 1.1003 14.482 1.0047 12.027-0.0934 13.769-0.23663 14.495-1.1922 0.68137-0.89657 0.82895 1.5571 0.84576 14.062 0.0112 8.3312-0.14786 15.586-0.35345 16.122-0.29222 0.76152-0.6884 0.83077-1.8153 0.31733-0.96035-0.43756-5.8762-0.4782-14.728-0.12176-7.3076 0.29426-13.42 0.3181-13.584 0.053zm440.65-3.518c-1.966-2.024-19.042-20.672-37.946-41.44s-36.081-39.344-38.17-41.28c-2.0893-1.936-3.7967-3.7781-3.7942-4.0936 3e-3 -0.31549-1.311-1.98-2.9188-3.6989-1.6078-1.7189-2.8318-3.5103-2.72-3.9809 0.11182-0.47064 4.0913-4.3991 8.8433-8.73 4.752-4.3309 8.9028-8.4076 9.224-9.0593 1.4394-2.9208 6.2704-1.3889 8.3595 2.6509 0.50829 0.98295 3.2392 4.1526 6.0688 7.0436 2.8295 2.891 5.3613 5.6274 5.6262 6.0809 0.26484 0.45345 16.61 18.461 36.322 40.018 20.328 22.23 35.84 39.706 35.84 40.377 0 1.0478-19.662 19.792-20.761 19.792-0.21959 0-2.0078-1.656-3.9738-3.68zm14.788-6.7392c5.2948-4.8506 9.627-9.0748 9.627-9.3871 0-0.84267-71.583-79.042-72.553-79.26-0.55606-0.12459-1.7531 2.7841-3.6215 8.8-2.2031 7.0934-3.0281 8.9861-3.9172 8.9861-0.61946 0-4.7542-1.152-9.1882-2.56-8.9527-2.8428-9.5703-2.9589-8.8318-1.6596 0.28149 0.49523 17.648 19.657 38.592 42.582 25.802 28.242 38.432 41.623 39.173 41.5 0.60117-0.10008 5.4252-4.1506 10.72-9.0012zm-326 5.8327c-0.53269-3.3209-1.658-21.192-1.6364-25.987 0.0147-3.2382 0.18134-4.029 0.6718-3.1869 0.79215 1.36 2.0787 1.388 17.389 0.37815 8.673-0.57207 11.36-0.9514 11.36-1.6037 0-0.46993 0.288-0.85442 0.64-0.85442s0.63845 0.216 0.63654 0.48c-2e-3 0.264 0.4552 6.9029 1.0158 14.753 0.56057 7.8502 0.86517 14.675 0.6769 15.165-0.23396 0.6097-1.0112 0.79295-2.4558 0.57895-2.485-0.36814-25.296 1.2913-26.874 1.9551-0.86013 0.36177-1.1509 0.0188-1.4232-1.6788zm-99.938-114.77c-3.9e-4 -8.8 0.0897-12.489 0.20031-8.1973 0.11056 4.2915 0.11088 11.492 6.4e-4 16-0.11017 4.5085-0.20063 0.99727-0.20102-7.8027zm-30.085 1.28c4.8e-4 -7.744 0.0929-10.824 0.20537-6.8445 0.11246 3.9795 0.11207 10.316-6.4e-4 14.08-0.11296 3.7645-0.20498 0.50854-0.20449-7.2355zm11.567 7.1283c-1.056-0.49085-2.7707-1.7965-3.8104-2.9015-1.5976-1.6979-1.9251-2.6269-2.1147-5.998-0.17869-3.1768 0.0421-4.4136 1.0845-6.0747 2.1585-3.4398 4.8601-4.7384 9.3361-4.4878 4.6388 0.25973 6.768 1.6062 8.6935 5.4974 3.267 6.6023-0.90054 14.048-8.1813 14.616-1.8004 0.14053-3.8882-0.13106-5.0077-0.65143zm7.7332-2.0765c7.9952-3.794 5.1681-15.612-3.7348-15.612-2.851 0-3.4523 0.2633-5.6737 2.4847-2.0913 2.0913-2.4847 2.907-2.4847 5.1518 0 3.4082 1.4347 6.1663 4.0311 7.7494 2.4926 1.5198 4.9845 1.5915 7.8621 0.22596zm114.48-1.7921c-5.9586-2.5954-7.885-10.778-3.7066-15.744 2.2881-2.7192 4.7368-3.8358 8.4119-3.8358 5.732 0 9.8741 4.2916 9.8741 10.231 0 7.4862-7.6274 12.377-14.579 9.3492zm8.007-1.967c3.0895-1.5976 4.5047-3.9647 4.5047-7.5344 0-2.851-0.26331-3.4523-2.4847-5.6737-2.1291-2.1291-2.8847-2.4844-5.28-2.4823-3.5728 3e-3 -6.7539 1.9192-7.9538 4.7911-1.222 2.9246-1.162 4.6981 0.24797 7.3271 2.108 3.9305 7.1173 5.5624 10.966 3.5722zm136.98 2.2272c0-0.352 0.593-0.64 1.3178-0.64 0.72478 0 1.1398 0.288 0.92223 0.64s-0.81055 0.64-1.3178 0.64c-0.50723 0-0.92223-0.288-0.92223-0.64zm-156.04-4.16c0.013-1.056 0.15648-1.4105 0.31874-0.78782 0.16227 0.6227 0.1516 1.4867-0.0237 1.92-0.17532 0.4333-0.30808-0.0762-0.29504-1.1322zm142.61 0.0155c-0.5048-0.60826-0.55336-0.97548-0.12897-0.97548 0.77347 0 1.6752 1.2142 1.2314 1.658-0.16109 0.16109-0.65719-0.14607-1.1024-0.68258zm7.9872-2.5694c-5.1588-1.8388-8.1468-7.4716-6.6368-12.511 0.96807-3.2311 4.7986-6.7921 7.9404-7.3815 7.2841-1.3665 13.91 5.7235 11.857 12.687-1.7566 5.9566-7.6353 9.1756-13.16 7.2061zm8.9735-3.7316c2.8888-2.8888 3.4662-6.1251 1.7302-9.6982-3.418-7.0352-13.329-6.0002-15.514 1.6202-0.85459 2.9798 0.24231 6.5463 2.6317 8.5568 1.5854 1.334 2.6284 1.6467 5.4919 1.6467 3.1503 0 3.7662-0.23127 5.6604-2.1255zm-160.28-0.16781c0.0307-0.74556 0.18236-0.89721 0.38666-0.38666 0.18487 0.46199 0.16214 1.014-0.0505 1.2267-0.21266 0.21267-0.36393-0.16533-0.33614-0.84zm138-3.7183c-0.26189-0.66638-0.32538-1.3624-0.1411-1.5467 0.58372-0.58372 1.0973 0.37284 0.85273 1.5882-0.22415 1.1138-0.25838 1.1118-0.71163-0.0415zm-107.86-1.0284c0-0.88 0.14527-1.24 0.32281-0.8s0.17754 1.16 0 1.6-0.32281 0.08-0.32281-0.8zm-0.63862-6.432c-0.0563-0.8976-0.44323-1.9728-0.85976-2.3893-0.41654-0.41654-0.55574-0.95894-0.30934-1.2053 0.88131-0.8813 1.7952 0.94276 1.5357 3.0653-0.19748 1.6156-0.29006 1.7493-0.36661 0.52939zm133.95-8.3306c-0.23202-0.37542-0.26818-0.83626-0.0804-1.0241 0.45845-0.45844 1.7067 0.34933 1.7067 1.1044 0 0.8179-1.1049 0.76331-1.6263-0.0803zm-272.63-31.571c-3.5834-1.5613-4.6306-6.6646-1.959-9.5473 1.9682-2.1237 4.3564-2.721 6.8125-1.7036 2.5106 1.0399 3.8021 2.945 3.8021 5.6088 0 2.9642-1.0122 4.5689-3.551 5.6297-2.5922 1.0831-2.6469 1.0832-5.1046 0.0124zm107.71-2.0242c-4.6907-2.5455-3.919-9.6938 1.199-11.107 4.2322-1.1686 7.9049 1.491 7.9049 5.7241 0 2.6589-0.93676 4.2501-3.1872 5.4138-2.3096 1.1943-3.6719 1.1872-5.9167-0.031zm125.79-0.57534c-2.4968-1.0861-3.4104-2.6955-3.4104-6.0081 0-3.25 2.7512-5.859 6.1783-5.859 6.348 0 8.2182 9.0655 2.4363 11.809-2.4936 1.1833-2.6139 1.1846-5.2042 0.0579z" fill="#68a6af"/>
  <path d="m218.89 283.68c7e-3 -0.264-0.15059-7.0064-0.35101-14.983-0.24634-9.8048-0.14701-14.637 0.30662-14.918 0.4609-0.28486 0.671 4.4066 0.671 14.983 0 8.4688-0.144 15.398-0.32 15.398s-0.31398-0.216-0.30661-0.48zm-18.968-3.9444c-4.8205-2.1891-7.3679-7.2051-6.3675-12.538 0.55217-2.9433 4.24-7.0597 7.1999-8.0366 5.3477-1.7649 11.355 0.88608 13.697 6.0447 1.5077 3.32 1.5133 5.7839 0.0207 9.0343-1.3983 3.045-2.8255 4.4096-5.9992 5.7356-3.081 1.2873-5.327 1.2243-8.5514-0.23998zm9.7383-4.7916c1.8249-1.8249 2.176-2.6371 2.176-5.0337 0-8.3894-10.819-10.806-14.419-3.2208-2.2797 4.8042 1.5888 10.43 7.1717 10.43 2.4389 0 3.2376-0.34276 5.0709-2.176zm137.74-10.784c-0.92807-13.842-0.96243-15.85-0.2591-15.146 0.22106 0.22107 2.2964 26.662 2.2939 29.226-4.1e-4 0.44-0.23394 0.8-0.51894 0.8-0.28501 0-0.96715-6.696-1.5159-14.88zm-29.225 11.68c0-0.88 0.14527-1.24 0.32281-0.8s0.17754 1.16 0 1.6-0.32281 0.08-0.32281-0.8zm11.739 0.33952c-3.1846-1.152-6.4004-4.5641-7.3786-7.8292-1.4042-4.6866 1.7416-11.053 6.4189-12.99 2.798-1.159 8.3315-0.53437 10.793 1.2183 3.0995 2.207 4.7648 5.9858 4.428 10.047-0.6026 7.2666-7.609 11.96-14.261 9.554zm7.6065-4.236c2.019-1.5881 3.5944-4.4274 3.5911-6.4717-6e-3 -3.4055-4.2382-7.5518-7.7091-7.5518-4.0361 0-7.6485 3.6273-7.6485 7.68 0 6.107 7.1599 9.967 11.766 6.3435zm-20.036-5.4368c0.0307-0.74557 0.18236-0.89721 0.38666-0.38667 0.18488 0.462 0.16214 1.014-0.0505 1.2267-0.21266 0.21267-0.36393-0.16534-0.33614-0.84zm-0.64-8.96c0.0307-0.74557 0.18236-0.89721 0.38666-0.38667 0.18488 0.462 0.16214 1.014-0.0505 1.2267-0.21266 0.21267-0.36393-0.16534-0.33614-0.84zm-128.33-1.4733c-0.23905-0.38679-0.17396-1.1691 0.14465-1.7384 0.48807-0.87215 0.63535-0.889 0.93542-0.10703 0.46719 1.2175-0.47414 2.8258-1.0801 1.8454zm128.28-4.3934c7e-3 -1.2809 0.16523-1.5145 0.58078-0.85803 0.31405 0.49608 0.42283 1.2881 0.24173 1.76-0.51933 1.3534-0.83316 1.0092-0.82251-0.90197zm242.54-56c-3.6161-2.4611-4.7935-4.6071-4.7935-8.7368 0-3.0725 0.30569-4.0837 1.8444-6.101 2.3211-3.0431 5.5328-4.439 9.2494-4.02 3.2199 0.36292 5.5377 1.8703 7.6828 4.9966 1.2341 1.7985 1.4531 2.8038 1.2486 5.7302-0.15313 2.1913-0.72569 4.1947-1.4966 5.2367-3.1445 4.25-9.7103 5.6335-13.735 2.8942zm9.581-1.5268c2.514-1.4851 3.8655-4.1217 3.8655-7.5414 0-8.143-11.103-11.045-15.386-4.0208-2.2566 3.701-1.2754 8.429 2.3394 11.272 2.094 1.6471 6.6403 1.7906 9.181 0.28977zm-350.42-28.713c-3.9e-4 -8.8 0.0897-12.489 0.20031-8.1973 0.11056 4.2915 0.11088 11.492 6.4e-4 16-0.11017 4.5085-0.20063 0.99727-0.20102-7.8027zm-30.085 1.28c4.8e-4 -7.744 0.0929-10.824 0.20537-6.8445 0.11246 3.9795 0.11207 10.316-6.4e-4 14.08-0.11296 3.7645-0.20498 0.50854-0.20449-7.2355zm11.567 7.1283c-1.056-0.49085-2.7707-1.7965-3.8104-2.9015-1.5976-1.6979-1.9251-2.6269-2.1147-5.998-0.17869-3.1768 0.0421-4.4136 1.0845-6.0747 2.1585-3.4398 4.8601-4.7384 9.3361-4.4878 4.6388 0.25973 6.768 1.6062 8.6935 5.4974 3.267 6.6023-0.90054 14.048-8.1813 14.616-1.8004 0.14053-3.8882-0.13106-5.0077-0.65143zm7.7332-2.0765c7.9952-3.794 5.1681-15.612-3.7348-15.612-2.851 0-3.4523 0.2633-5.6737 2.4847-2.0913 2.0913-2.4847 2.907-2.4847 5.1518 0 3.4082 1.4347 6.1663 4.0311 7.7494 2.4926 1.5198 4.9845 1.5915 7.8621 0.22596zm114.48-1.7921c-5.9586-2.5954-7.885-10.778-3.7066-15.744 2.2881-2.7192 4.7368-3.8358 8.4119-3.8358 5.732 0 9.8741 4.2916 9.8741 10.231 0 7.4862-7.6274 12.377-14.579 9.3492zm8.007-1.967c3.0895-1.5976 4.5047-3.9647 4.5047-7.5344 0-2.851-0.26331-3.4523-2.4847-5.6737-2.1291-2.1291-2.8847-2.4844-5.28-2.4823-3.5728 3e-3 -6.7539 1.9192-7.9538 4.7911-1.222 2.9246-1.162 4.6981 0.24797 7.3271 2.108 3.9305 7.1173 5.5624 10.966 3.5722zm136.98 2.2272c0-0.352 0.593-0.64 1.3178-0.64 0.72478 0 1.1398 0.288 0.92223 0.64s-0.81055 0.64-1.3178 0.64c-0.50723 0-0.92223-0.288-0.92223-0.64zm101.76 0c-0.57682-0.37278-0.65576-0.62432-0.19777-0.63021 0.41922-5e-3 0.94022 0.27821 1.1578 0.63021 0.49107 0.79457 0.26952 0.79457-0.96 0zm-257.8-4.16c0.013-1.056 0.15648-1.4105 0.31874-0.78782 0.16227 0.6227 0.1516 1.4867-0.0237 1.92-0.17532 0.4333-0.30808-0.0762-0.29504-1.1322zm142.61 0.0155c-0.5048-0.60826-0.55336-0.97548-0.12897-0.97548 0.77347 0 1.6752 1.2142 1.2314 1.658-0.16109 0.16109-0.65719-0.14607-1.1024-0.68258zm7.9872-2.5694c-5.1588-1.8388-8.1468-7.4716-6.6368-12.511 0.96807-3.2311 4.7986-6.7921 7.9404-7.3815 7.2841-1.3665 13.91 5.7235 11.857 12.687-1.7566 5.9566-7.6353 9.1756-13.16 7.2061zm8.9735-3.7316c2.8888-2.8888 3.4662-6.1251 1.7302-9.6982-3.418-7.0352-13.329-6.0002-15.514 1.6202-0.85459 2.9798 0.24231 6.5463 2.6317 8.5568 1.5854 1.334 2.6284 1.6467 5.4919 1.6467 3.1503 0 3.7662-0.23127 5.6604-2.1255zm-160.28-0.16781c0.0307-0.74556 0.18236-0.89721 0.38666-0.38666 0.18487 0.46199 0.16214 1.014-0.0505 1.2267-0.21266 0.21267-0.36393-0.16533-0.33614-0.84zm138-3.7183c-0.26189-0.66638-0.32538-1.3624-0.1411-1.5467 0.58372-0.58372 1.0973 0.37284 0.85273 1.5882-0.22415 1.1138-0.25838 1.1118-0.71163-0.0415zm-107.86-1.0284c0-0.88 0.14527-1.24 0.32281-0.8s0.17754 1.16 0 1.6-0.32281 0.08-0.32281-0.8zm-0.63862-6.432c-0.0563-0.8976-0.44323-1.9728-0.85976-2.3893-0.41654-0.41654-0.55574-0.95894-0.30934-1.2053 0.88131-0.8813 1.7952 0.94276 1.5357 3.0653-0.19748 1.6156-0.29006 1.7493-0.36661 0.52939zm133.95-8.3306c-0.23202-0.37542-0.26818-0.83626-0.0804-1.0241 0.45845-0.45844 1.7067 0.34933 1.7067 1.1044 0 0.8179-1.1049 0.76331-1.6263-0.0803zm-272.63-31.571c-3.5834-1.5613-4.6306-6.6646-1.959-9.5473 1.9682-2.1237 4.3564-2.721 6.8125-1.7036 2.5106 1.0399 3.8021 2.945 3.8021 5.6088 0 2.9642-1.0122 4.5689-3.551 5.6297-2.5922 1.0831-2.6469 1.0832-5.1046 0.0124zm107.71-2.0242c-4.6907-2.5455-3.919-9.6938 1.199-11.107 4.2322-1.1686 7.9049 1.491 7.9049 5.7241 0 2.6589-0.93676 4.2501-3.1872 5.4138-2.3096 1.1943-3.6719 1.1872-5.9167-0.031zm125.79-0.57534c-2.4968-1.0861-3.4104-2.6955-3.4104-6.0081 0-3.25 2.7512-5.859 6.1783-5.859 6.348 0 8.2182 9.0655 2.4363 11.809-2.4936 1.1833-2.6139 1.1846-5.2042 0.0579z" fill="#4f5554"/>
 </g>
</svg>
